<svg width="80" height="40" viewBox="0 0 80 40" fill="none" xmlns="http://www.w3.org/2000/svg">
<path d="M1.0836 39.9997C0.351524 39.9997 0 39.723 0 39.2597V29.275H0.502988C1.23759 29.275 1.58659 29.5517 1.58659 30.0154V39.9997H1.0836ZM9.40688 39.9997C8.67323 39.9997 8.26112 39.723 8.26112 39.2597V34.4369C8.26112 33.6667 7.68051 33.2034 6.94622 33.2034H5.80203C5.06995 33.2034 4.64238 33.6667 4.64238 34.4369V39.9997H4.33535C3.60327 39.9997 3.19116 39.723 3.19116 39.2597V31.9418H3.66386C4.09112 31.9418 4.48903 32.2019 4.48903 32.6662C4.99296 32.1711 5.69538 31.9418 6.58081 31.9418H6.79444C8.62653 31.9418 9.71139 32.9735 9.71139 35.1314V40H9.40688V39.9997ZM14.4926 39.9997C12.6589 39.9997 11.7271 39.4463 11.7271 37.2887V33.2034H10.4741V32.9267C10.4741 32.2952 10.7029 31.9415 11.1014 31.9415H11.7268V29.83C11.7268 29.6616 11.8644 29.5209 12.0332 29.5209H12.8726C13.0401 29.5209 13.1771 29.6613 13.1771 29.83V31.9415H15.7731V32.2182C15.7731 32.8509 15.5453 33.2034 15.1483 33.2034H13.1774V37.673C13.1774 38.4429 13.605 38.7521 14.3396 38.7521H15.2714C15.6671 38.7521 15.8956 39.1065 15.8956 39.7373V39.9997H14.4926ZM22.6603 36.5639H18.1868V37.5182C18.1868 38.2901 18.7674 38.7521 19.4995 38.7521H22.5392C22.9207 38.7521 23.181 39.0288 23.181 39.6453V39.9997H19.6522C17.8204 39.9997 16.7355 38.9842 16.7355 36.826V35.1311C16.7355 32.9735 17.8204 31.9415 19.6522 31.9415H20.3565C22.1883 31.9415 23.2716 32.9731 23.2716 35.1311V35.9472C23.2719 36.2401 22.9828 36.5639 22.6603 36.5639ZM21.821 34.4369C21.821 33.6667 21.2404 33.2034 20.5083 33.2034H19.4995C18.7674 33.2034 18.1868 33.6667 18.1868 34.4369V35.4689H21.8213L21.821 34.4369ZM29.1351 33.2034H27.4255C26.6909 33.2034 26.2494 33.6667 26.2494 34.4369V39.9997H25.9424C25.2103 39.9997 24.7982 39.723 24.7982 39.2597V31.9418H25.2706C25.6981 31.9418 26.0951 32.2019 26.0951 32.6662C26.4463 32.2952 26.8133 31.9418 27.5766 31.9418H29.7609V32.2185C29.7612 32.8509 29.5321 33.2034 29.1351 33.2034ZM36.892 39.9997C36.1599 39.9997 35.7465 39.723 35.7465 39.2597V34.4369C35.7465 33.6667 35.1675 33.2034 34.4329 33.2034H33.2874C32.5551 33.2034 32.1278 33.6667 32.1278 34.4369V39.9997H31.8227C31.0887 39.9997 30.6769 39.723 30.6769 39.2597V31.9418H31.1502C31.5784 31.9418 31.9741 32.2019 31.9741 32.6662C32.4781 32.1711 33.1821 31.9418 34.0659 31.9418H34.2799C36.1132 31.9418 37.1965 32.9735 37.1965 35.1314V40H36.892V39.9997ZM44.3137 39.9997C43.8874 39.9997 43.4883 39.5829 43.4883 39.1208C43.1696 39.6313 42.3589 39.9997 41.5498 39.9997H41.168C39.3347 39.9997 38.2675 39.0139 38.2675 37.4418V37.2565C38.2675 35.717 39.335 34.8378 41.168 34.8378H43.3365V34.2067C43.3365 33.4355 42.7571 33.1894 42.1765 33.1894H39.5647C39.1674 33.1894 38.9393 32.835 38.9393 32.2019V31.9418H42.0238C43.8552 31.9418 44.7871 32.5108 44.7871 34.6694V39.9997H44.3137ZM43.3368 35.9615H41.0153C40.2832 35.9615 39.7181 36.4248 39.7181 37.1954V37.5182C39.7181 38.2901 40.2832 38.7521 41.0153 38.7521H42.1771C42.908 38.7521 43.3371 38.2901 43.3371 37.5182L43.3368 35.9615ZM49.5661 39.9997C47.7327 39.9997 46.8025 39.4463 46.8025 37.2887V33.2034H45.5501V32.9267C45.5501 32.2952 45.7782 31.9415 46.1774 31.9415H46.8022V29.83C46.8022 29.6616 46.9398 29.5209 47.1076 29.5209H47.9476C48.1155 29.5209 48.2531 29.6613 48.2531 29.83V31.9415H50.8491V32.2182C50.8491 32.8509 50.6191 33.2034 50.2221 33.2034H48.2534V37.673C48.2534 38.4429 48.681 38.7521 49.4134 38.7521H50.3452C50.7421 38.7521 50.9706 39.1065 50.9706 39.7373V39.9997H49.5661ZM53.3994 30.8315H52.3615C52.0555 30.8315 51.8115 30.5841 51.8115 30.2781V29.8304C51.8115 29.5212 52.0555 29.275 52.3615 29.275H53.3994C53.7055 29.275 53.9494 29.5212 53.9494 29.8304V30.2781C53.9497 30.5837 53.7055 30.8315 53.3994 30.8315ZM53.3388 39.9997C52.6045 39.9997 52.193 39.723 52.193 39.2597V31.9418H52.6664C53.3994 31.9418 53.6449 32.2185 53.6449 32.6805V39.9997H53.3388ZM58.7748 39.9997H58.0714C56.2393 39.9997 55.1699 38.9842 55.1699 36.826V35.1311C55.1699 32.9735 56.2397 31.9415 58.0714 31.9415H58.7748C60.6069 31.9415 61.6905 32.9731 61.6905 35.1311V36.826C61.6905 38.9839 60.6066 39.9997 58.7748 39.9997ZM60.2412 34.4369C60.2412 33.6667 59.6747 33.2034 58.9427 33.2034H57.92C57.1854 33.2034 56.6212 33.6667 56.6212 34.4369V37.5182C56.6212 38.2901 57.1854 38.7521 57.92 38.7521H58.9427C59.6747 38.7521 60.2412 38.2901 60.2412 37.5182V34.4369ZM69.1274 39.9997C68.3953 39.9997 67.9816 39.723 67.9816 39.2597V34.4369C67.9816 33.6667 67.4023 33.2034 66.6683 33.2034H65.5225C64.7905 33.2034 64.3626 33.6667 64.3626 34.4369V39.9997H64.0581C63.3238 39.9997 62.9123 39.723 62.9123 39.2597V31.9418H63.3856C63.8138 31.9418 64.2095 32.2019 64.2095 32.6662C64.7138 32.1711 65.4171 31.9418 66.3013 31.9418H66.5149C68.3483 31.9418 69.4319 32.9735 69.4319 35.1314V40H69.1274V39.9997ZM76.5491 39.9997C76.1216 39.9997 75.724 39.5829 75.724 39.1208C75.4037 39.6313 74.5943 39.9997 73.7852 39.9997H73.4022C71.5701 39.9997 70.5016 39.0139 70.5016 37.4418V37.2565C70.5016 35.717 71.5704 34.8378 73.4022 34.8378H75.5703V34.2067C75.5703 33.4355 74.9913 33.1894 74.4107 33.1894H71.8001C71.4028 33.1894 71.1734 32.835 71.1734 32.2019V31.9418H74.2576C76.0916 31.9418 77.0209 32.5108 77.0209 34.6694V39.9997H76.5491ZM75.5703 35.9615H73.2504C72.5167 35.9615 71.9519 36.4248 71.9519 37.1954V37.5182C71.9519 38.2901 72.5167 38.7521 73.2504 38.7521H74.4107C75.143 38.7521 75.5703 38.2901 75.5703 37.5182V35.9615ZM79.6939 39.9997C78.9612 39.9997 78.5494 39.723 78.5494 39.2597V28.9678H78.8707C79.6027 28.9678 80 29.2445 80 29.7065V39.9997H79.6939ZM17.7598 0H0.0176708V9.07364H8.89001V18.1505H0.0176708V27.2311H26.6331V18.1505H17.7598V0ZM44.3759 9.07396V0H35.5067V9.07364H26.6334L26.6331 18.1505H35.5067V27.2311H44.3759V18.1505H53.2508V9.07396H44.3759ZM70.991 18.1505V0H53.2505V9.07364H62.1203V18.1505H53.2508V27.2311H79.8646V18.1505H70.991Z" fill="#C70025"/>
</svg>
