<svg width="162" height="44" viewBox="0 0 162 44" fill="none" xmlns="http://www.w3.org/2000/svg">
<path fill-rule="evenodd" clip-rule="evenodd" d="M16.2809 17.4215C12.96 19.3854 9.52116 20.6972 6.49211 21.5068H161V22.5068H6.1089C13.6396 24.6723 23.9409 30.4388 27.5204 42.7239L26.5603 43.0037C22.2443 28.1909 7.73671 23.1574 1 22.5044L1.04824 22.0068L1.00342 21.5088C4.6153 21.1837 10.3559 19.7637 15.7719 16.5608C21.1814 13.3617 26.2403 8.40127 28.5627 1L29.5168 1.29939C27.1022 8.99466 21.8437 14.1317 16.2809 17.4215Z" fill="#131313"/>
<path d="M6.49211 21.5068L6.41465 21.2169L6.49211 21.8068V21.5068ZM16.2809 17.4215L16.1282 17.1633L16.1282 17.1633L16.2809 17.4215ZM161 21.5068H161.3V21.2068H161V21.5068ZM161 22.5068V22.8068H161.3V22.5068H161ZM6.1089 22.5068V22.2068L6.02599 22.7951L6.1089 22.5068ZM27.5204 42.7239L27.6043 43.012L27.8923 42.928L27.8084 42.64L27.5204 42.7239ZM26.5603 43.0037L26.2723 43.0876L26.3562 43.3756L26.6442 43.2917L26.5603 43.0037ZM1 22.5044L0.701399 22.4755L0.672457 22.7741L0.971058 22.803L1 22.5044ZM1.04824 22.0068L1.34684 22.0357L1.34954 22.0078L1.34703 21.9799L1.04824 22.0068ZM1.00342 21.5088L0.976524 21.21L0.677732 21.2369L0.704624 21.5357L1.00342 21.5088ZM15.7719 16.5608L15.9246 16.819L15.9246 16.819L15.7719 16.5608ZM28.5627 1L28.6525 0.713761L28.3663 0.623944L28.2764 0.910183L28.5627 1ZM29.5168 1.29939L29.8031 1.38921L29.8929 1.10297L29.6066 1.01315L29.5168 1.29939ZM6.56957 21.7966C9.62089 20.9811 13.0858 19.6596 16.4336 17.6797L16.1282 17.1633C12.8342 19.1113 9.42143 20.4133 6.41465 21.2169L6.56957 21.7966ZM161 21.2068H6.49211V21.8068H161V21.2068ZM161.3 22.5068V21.5068H160.7V22.5068H161.3ZM6.1089 22.8068H161V22.2068H6.1089V22.8068ZM27.8084 42.64C24.1888 30.2173 13.775 24.399 6.1918 22.2184L6.02599 22.7951C13.5041 24.9455 23.6929 30.6603 27.2324 42.8079L27.8084 42.64ZM26.6442 43.2917L27.6043 43.012L27.4365 42.4359L26.4764 42.7157L26.6442 43.2917ZM0.971058 22.803C7.6509 23.4505 22.0059 28.4449 26.2723 43.0876L26.8483 42.9198C22.4828 27.9368 7.82253 22.8643 1.02894 22.2058L0.971058 22.803ZM0.749636 21.9778L0.701399 22.4755L1.2986 22.5334L1.34684 22.0357L0.749636 21.9778ZM0.704624 21.5357L0.749445 22.0336L1.34703 21.9799L1.30221 21.4819L0.704624 21.5357ZM15.6192 16.3025C10.2454 19.4805 4.54851 20.8885 0.976524 21.21L1.03031 21.8076C4.68209 21.4789 10.4665 20.0468 15.9246 16.819L15.6192 16.3025ZM28.2764 0.910183C25.9817 8.22326 20.9826 13.1306 15.6192 16.3025L15.9246 16.819C21.3801 13.5927 26.4989 8.57927 28.8489 1.08982L28.2764 0.910183ZM29.6066 1.01315L28.6525 0.713761L28.4729 1.28624L29.427 1.58563L29.6066 1.01315ZM16.4336 17.6797C22.0424 14.3628 27.3607 9.17269 29.8031 1.38921L29.2306 1.20957C26.8436 8.81663 21.645 13.9007 16.1282 17.1633L16.4336 17.6797Z" fill="#131313"/>
</svg>
