<svg width="162" height="44" viewBox="0 0 162 44" fill="none" xmlns="http://www.w3.org/2000/svg">
<path fill-rule="evenodd" clip-rule="evenodd" d="M145.719 17.4215C149.039 19.3854 152.478 20.6972 155.507 21.5068H0.999725V22.5068H155.891C148.36 24.6723 138.059 30.4388 134.479 42.7239L135.439 43.0037C139.755 28.1909 154.263 23.1574 160.999 22.5044L160.951 22.0068L160.996 21.5088C157.384 21.1837 151.644 19.7637 146.228 16.5608C140.818 13.3617 135.759 8.40127 133.437 1L132.483 1.29939C134.897 8.99466 140.156 14.1317 145.719 17.4215Z" fill="#131313"/>
<path d="M155.507 21.5068L155.585 21.2169L155.507 21.8068V21.5068ZM145.719 17.4215L145.871 17.1633L145.871 17.1633L145.719 17.4215ZM0.999725 21.5068H0.699725V21.2068H0.999725V21.5068ZM0.999725 22.5068V22.8068H0.699725V22.5068H0.999725ZM155.891 22.5068V22.2068L155.973 22.7951L155.891 22.5068ZM134.479 42.7239L134.395 43.012L134.107 42.928L134.191 42.64L134.479 42.7239ZM135.439 43.0037L135.727 43.0876L135.643 43.3756L135.355 43.2917L135.439 43.0037ZM160.999 22.5044L161.298 22.4755L161.327 22.7741L161.028 22.803L160.999 22.5044ZM160.951 22.0068L160.653 22.0357L160.65 22.0078L160.652 21.9799L160.951 22.0068ZM160.996 21.5088L161.023 21.21L161.322 21.2369L161.295 21.5357L160.996 21.5088ZM146.228 16.5608L146.075 16.819L146.075 16.819L146.228 16.5608ZM133.437 1L133.347 0.713761L133.633 0.623944L133.723 0.910183L133.437 1ZM132.483 1.29939L132.196 1.38921L132.107 1.10297L132.393 1.01315L132.483 1.29939ZM155.43 21.7966C152.379 20.9811 148.914 19.6596 145.566 17.6797L145.871 17.1633C149.165 19.1113 152.578 20.4133 155.585 21.2169L155.43 21.7966ZM0.999725 21.2068H155.507V21.8068H0.999725V21.2068ZM0.699725 22.5068V21.5068H1.29973V22.5068H0.699725ZM155.891 22.8068H0.999725V22.2068H155.891V22.8068ZM134.191 42.64C137.811 30.2173 148.224 24.399 155.808 22.2184L155.973 22.7951C148.495 24.9455 138.307 30.6603 134.767 42.8079L134.191 42.64ZM135.355 43.2917L134.395 43.012L134.563 42.4359L135.523 42.7157L135.355 43.2917ZM161.028 22.803C154.349 23.4505 139.994 28.4449 135.727 43.0876L135.151 42.9198C139.517 27.9368 154.177 22.8643 160.971 22.2058L161.028 22.803ZM161.25 21.9778L161.298 22.4755L160.701 22.5334L160.653 22.0357L161.25 21.9778ZM161.295 21.5357L161.25 22.0336L160.652 21.9799L160.697 21.4819L161.295 21.5357ZM146.38 16.3025C151.754 19.4805 157.451 20.8885 161.023 21.21L160.969 21.8076C157.317 21.4789 151.533 20.0468 146.075 16.819L146.38 16.3025ZM133.723 0.910183C136.018 8.22326 141.017 13.1306 146.38 16.3025L146.075 16.819C140.619 13.5927 135.501 8.57927 133.151 1.08982L133.723 0.910183ZM132.393 1.01315L133.347 0.713761L133.527 1.28624L132.572 1.58563L132.393 1.01315ZM145.566 17.6797C139.957 14.3628 134.639 9.17269 132.196 1.38921L132.769 1.20957C135.156 8.81663 140.354 13.9007 145.871 17.1633L145.566 17.6797Z" fill="#131313"/>
</svg>
