<svg width="109" height="32" viewBox="0 0 109 32" fill="none" xmlns="http://www.w3.org/2000/svg">
<g clip-path="url(#clip0_19147_1567)">
<mask id="mask0_19147_1567" style="mask-type:luminance" maskUnits="userSpaceOnUse" x="28" y="9" width="26" height="24">
<path d="M28.3047 9.17554H53.0292V32.0241H28.3047V9.17554Z" fill="white"/>
</mask>
<g mask="url(#mask0_19147_1567)">
<path d="M40.655 26.781C39.4315 26.7644 38.2402 26.3864 37.2309 25.6945C36.2216 25.0027 35.4393 24.0279 34.9826 22.8927C34.5258 21.7574 34.4148 20.5125 34.6637 19.3144C34.9126 18.1163 35.5101 17.0186 36.3811 16.1592C37.2522 15.2997 38.3579 14.7171 39.5593 14.4844C40.7606 14.2517 42.0039 14.3794 43.1329 14.8514C44.2618 15.3235 45.226 16.1187 45.9042 17.1373C46.5824 18.1558 46.9443 19.3521 46.9444 20.5758C46.9397 21.3964 46.7732 22.2081 46.4544 22.9643C46.1356 23.7205 45.6708 24.4064 45.0866 24.9828C44.5025 25.5591 43.8104 26.0146 43.0499 26.3232C42.2895 26.6317 41.4757 26.7873 40.655 26.781ZM51.478 14.7554C50.4179 13.0216 48.8988 11.6148 47.0887 10.6908C45.1015 9.66389 42.8916 9.14342 40.655 9.17555C38.4403 9.13804 36.2493 9.63729 34.2695 10.6306C32.428 11.5516 30.8856 12.976 29.8212 14.7385C28.7569 16.5011 28.2144 18.5293 28.2567 20.5878C28.2167 22.6443 28.7603 24.67 29.8245 26.4301C30.8887 28.1903 32.4299 29.6129 34.2695 30.5329C36.2493 31.5263 38.4403 32.0255 40.655 31.988C42.8623 32.0269 45.0457 31.5275 47.0166 30.5329C48.8553 29.6085 50.3953 28.1833 51.4591 26.4216C52.523 24.6599 53.0673 22.6334 53.0293 20.5758C53.0727 18.5053 52.5353 16.464 51.478 14.6833" fill="#131313"/>
</g>
<mask id="mask1_19147_1567" style="mask-type:luminance" maskUnits="userSpaceOnUse" x="83" y="9" width="26" height="24">
<path d="M83.562 9.17554H108.287V32.0241H83.562V9.17554Z" fill="white"/>
</mask>
<g mask="url(#mask1_19147_1567)">
<path d="M95.9724 26.781C94.7489 26.7644 93.5575 26.3864 92.5482 25.6945C91.5389 25.0027 90.7567 24.0279 90.2999 22.8927C89.8432 21.7574 89.7322 20.5125 89.9811 19.3144C90.2299 18.1163 90.8275 17.0186 91.6985 16.1592C92.5696 15.2997 93.6753 14.7171 94.8766 14.4844C96.078 14.2517 97.3213 14.3794 98.4503 14.8514C99.5792 15.3235 100.543 16.1187 101.222 17.1373C101.9 18.1558 102.262 19.3521 102.262 20.5758C102.257 21.3964 102.091 22.2081 101.772 22.9643C101.453 23.7205 100.988 24.4064 100.404 24.9828C99.8198 25.5591 99.1277 26.0146 98.3673 26.3232C97.6069 26.6317 96.793 26.7873 95.9724 26.781ZM106.795 14.7554C105.731 13.0211 104.207 11.6146 102.394 10.6908C100.412 9.66252 98.2053 9.14191 95.9724 9.17555C93.7576 9.13804 91.5667 9.63729 89.5868 10.6306C87.7454 11.5516 86.2029 12.976 85.1386 14.7385C84.0743 16.5011 83.5318 18.5293 83.5741 20.5878C83.5341 22.6443 84.0777 24.67 85.1419 26.4301C86.2061 28.1903 87.7473 29.6129 89.5868 30.5329C91.575 31.4909 93.7535 31.9883 95.9604 31.9883C98.1673 31.9883 100.346 31.4909 102.334 30.5329C104.173 29.6085 105.713 28.1833 106.777 26.4216C107.84 24.6599 108.385 22.6334 108.347 20.5758C108.379 18.5018 107.829 16.4603 106.759 14.6833" fill="#131313"/>
</g>
<mask id="mask2_19147_1567" style="mask-type:luminance" maskUnits="userSpaceOnUse" x="0" y="0" width="26" height="32">
<path d="M0.970703 0H25.4788V31.988H0.970703V0Z" fill="white"/>
</mask>
<g mask="url(#mask2_19147_1567)">
<path d="M13.2247 26.7088C11.5682 26.6992 9.98263 26.0353 8.81353 24.8617C7.64443 23.6881 6.98663 22.1 6.98348 20.4434C6.9811 19.199 7.34794 17.9818 8.03758 16.946C8.72721 15.9101 9.70865 15.1021 10.8577 14.6243C12.0067 14.1464 13.2716 14.0201 14.4925 14.2614C15.7133 14.5028 16.835 15.1008 17.7158 15.9799C18.5966 16.859 19.1968 17.9796 19.4405 19.2C19.6841 20.4203 19.5603 21.6855 19.0846 22.8355C18.6089 23.9854 17.8028 24.9684 16.7683 25.66C15.7337 26.3516 14.5173 26.7208 13.2728 26.7208M24.0958 14.3826C23.1561 12.6833 21.761 11.2798 20.0673 10.33C18.3179 9.36974 16.3506 8.87686 14.3551 8.89891C11.8903 8.90628 9.50184 9.75476 7.58476 11.304V0H0.970703V31.6633H7.19994V29.0658C8.07536 30.0627 9.16847 30.8448 10.3946 31.3516C11.6208 31.8583 12.9471 32.076 14.271 31.988C16.267 32.0155 18.2358 31.5223 19.9831 30.5569C21.6865 29.5943 23.0863 28.1737 24.0237 26.4562C25.017 24.6102 25.5181 22.5394 25.4788 20.4434C25.5192 18.3474 25.018 16.2763 24.0237 14.4307" fill="#131313"/>
</g>
<mask id="mask3_19147_1567" style="mask-type:luminance" maskUnits="userSpaceOnUse" x="55" y="0" width="26" height="32">
<path d="M55.8794 0H80.7122V31.988H55.8794V0Z" fill="white"/>
</mask>
<g mask="url(#mask3_19147_1567)">
<path d="M61.9285 20.4434C61.907 19.179 62.2622 17.9368 62.9488 16.8748C63.6354 15.8128 64.6225 14.979 65.7843 14.4797C66.9462 13.9803 68.2303 13.8378 69.4734 14.0704C70.7164 14.303 71.8622 14.9001 72.7649 15.7858C73.6676 16.6715 74.2864 17.8057 74.5425 19.0441C74.7987 20.2825 74.6807 21.5691 74.2035 22.7403C73.7263 23.9114 72.9115 24.9141 71.8627 25.6208C70.814 26.3275 69.5787 26.7062 68.3141 26.7088C67.4834 26.7167 66.6593 26.5609 65.8888 26.2503C65.1183 25.9398 64.4166 25.4805 63.8236 24.8987C63.2307 24.3169 62.7581 23.624 62.4329 22.8596C62.1078 22.0951 61.9364 21.2741 61.9285 20.4434ZM55.9157 20.4434C55.8755 22.5425 56.3854 24.6154 57.3949 26.4562C58.354 28.1613 59.7701 29.5648 61.4836 30.5088C63.2557 31.4787 65.2478 31.9756 67.2679 31.9519C68.6138 32.0479 69.9639 31.8344 71.2146 31.3279C72.4652 30.8214 73.5834 30.0352 74.4832 29.0297V31.6152H80.7966V0H74.1825V11.2439C72.228 9.69516 69.8097 8.84812 67.316 8.83878C65.2959 8.81504 63.3038 9.31203 61.5317 10.2818C59.7732 11.2382 58.3253 12.6778 57.3588 14.4307C56.3494 16.2715 55.8394 18.3444 55.8797 20.4434" fill="#131313"/>
</g>
</g>
<defs>
<clipPath id="clip0_19147_1567">
<rect width="107.316" height="32" fill="white" transform="translate(0.970703)"/>
</clipPath>
</defs>
</svg>
