<svg width="65" height="64" viewBox="0 0 65 64" fill="none" xmlns="http://www.w3.org/2000/svg">
<path d="M21.145 7.59993L20.035 5.92993L11.045 11.9399L12.155 13.5999L21.145 7.59993ZM54.085 11.9399L45.095 5.92993L43.995 7.59993L52.975 13.5999L54.085 11.9399ZM32.505 8.99993C27.5579 8.98806 22.7185 10.4442 18.5994 13.184C14.4803 15.9238 11.2667 19.8241 9.36527 24.3912C7.46387 28.9583 6.96022 33.9868 7.91806 38.8403C8.87591 43.6938 11.2522 48.154 14.7461 51.6563C18.24 55.1586 22.6945 57.5456 27.5456 58.5151C32.3968 59.4846 37.4265 58.993 41.9982 57.1026C46.5698 55.2122 50.4778 52.0079 53.2275 47.8954C55.9772 43.7829 57.445 38.947 57.445 33.9999C57.445 27.3799 54.8193 21.0301 50.1439 16.3434C45.4684 11.6568 39.125 9.01582 32.505 8.99993ZM32.505 56.9999C27.9535 57.0118 23.5008 55.673 19.7106 53.1529C15.9204 50.6329 12.963 47.0449 11.213 42.8433C9.46301 38.6417 8.99896 34.0153 9.87964 29.5497C10.7603 25.0842 12.9461 20.9804 16.1603 17.7578C19.3745 14.5352 23.4726 12.3387 27.9358 11.4464C32.399 10.554 37.0266 11.006 41.2328 12.745C45.439 14.4841 49.0346 17.432 51.5646 21.2156C54.0945 24.9992 55.445 29.4484 55.445 33.9999C55.445 40.0895 53.03 45.9306 48.7297 50.2422C44.4293 54.5538 38.5946 56.984 32.505 56.9999Z" fill="#131313"/>
<path d="M27.685 39.07H19.825V37.52L29.825 26.26H30.015V37.14H31.845V39.07H30.015V41.55H27.685V39.07ZM23.045 37.21C23.3764 37.1642 23.7105 37.1408 24.045 37.14H27.685V32.64C27.685 32.36 27.705 32.0267 27.745 31.64V31.1C27.6602 31.2423 27.5667 31.3793 27.465 31.51C27.235 31.85 27.005 32.15 26.785 32.42L23.645 36.18C23.4248 36.442 23.1876 36.6892 22.935 36.92C22.675 37.15 22.545 37.27 22.545 37.26L23.045 37.21ZM35.685 40.87C34.77 40.3576 34.0205 39.5943 33.525 38.67L35.525 37.6C35.8341 38.1651 36.277 38.6458 36.815 39C37.4948 39.424 38.284 39.6396 39.085 39.62C41.205 39.62 42.265 38.62 42.265 36.62C42.265 34.62 41.145 33.6667 38.905 33.76C38.1607 33.7523 37.4226 33.8951 36.735 34.18C36.1652 34.4283 35.6386 34.7659 35.175 35.18L34.975 35.07V26.57H43.715V28.62H37.005V32.38C37.7528 31.9773 38.5967 31.7871 39.445 31.83C40.8353 31.767 42.1974 32.2354 43.255 33.14C43.7356 33.5794 44.1143 34.1186 44.3648 34.7197C44.6153 35.3208 44.7314 35.9693 44.705 36.62C44.7372 37.3243 44.6141 38.0271 44.3445 38.6786C44.0749 39.3301 43.6654 39.9144 43.145 40.39C42.0257 41.3213 40.5997 41.8026 39.145 41.74C37.9339 41.7711 36.7374 41.4702 35.685 40.87Z" fill="#131313"/>
</svg>
