<svg width="64" height="64" viewBox="0 0 64 64" fill="none" xmlns="http://www.w3.org/2000/svg">
<path d="M27.46 42.6101H21.76V41.4801L29 33.3201H29.14V41.2101H30.47V42.6101H29.15V44.4001H27.46V42.6101ZM24.09 41.2601C24.3331 41.2469 24.5768 41.2469 24.82 41.2601H27.46V36.8801C27.46 36.8801 27.39 36.9901 27.26 37.1801C27.13 37.3701 26.92 37.6401 26.76 37.8401L24.48 40.5601C24.3213 40.7504 24.151 40.9308 23.97 41.1001L23.69 41.3501L24.09 41.2601ZM40.36 43.6901C39.6766 43.2999 39.1288 42.7103 38.79 42.0001L40.22 41.2501C40.4544 41.6985 40.7984 42.0803 41.22 42.3601C41.6924 42.6774 42.251 42.8415 42.82 42.8301C44.41 42.8301 45.2 42.1001 45.2 40.6401C45.2 39.1801 44.34 38.5101 42.63 38.5101C42.3145 38.5098 41.9997 38.54 41.69 38.6001C41.4777 38.6336 41.2697 38.6906 41.07 38.7701L41 38.6201L43.5 35.4001C43.6 35.2801 43.72 35.1401 43.87 34.9901L44 34.8001H39.75V33.3701H46.69V33.5201L44.28 36.6301C44.1402 36.8118 43.9864 36.9823 43.82 37.1401C43.7602 37.2069 43.6968 37.2703 43.63 37.3301C44.4975 37.3775 45.3199 37.732 45.95 38.3301C46.2624 38.6363 46.5074 39.0044 46.6693 39.4108C46.8312 39.8172 46.9063 40.2529 46.89 40.6901C46.9092 41.1956 46.816 41.6991 46.6171 42.1643C46.4183 42.6294 46.1187 43.0447 45.74 43.3801C44.9398 44.0566 43.9174 44.4129 42.87 44.3801C41.9859 44.3841 41.1177 44.1455 40.36 43.6901ZM36 32.0901H37.85L34 45.6401H32.17L36 32.0901Z" fill="#131313"/>
<path d="M50.59 27.1399V50.5899H21.39L14.39 42.0399L18.64 27.1399H50.64M51.79 25.1399H17.79C17.6044 25.1395 17.4237 25.1999 17.2757 25.3119C17.1276 25.4239 17.0202 25.5812 16.97 25.7599L12.3 42.0599C12.261 42.1931 12.2551 42.3338 12.283 42.4698C12.3109 42.6058 12.3717 42.7328 12.46 42.8399L20.18 52.2799C20.2612 52.3786 20.3636 52.4578 20.4796 52.5114C20.5956 52.5651 20.7222 52.5919 20.85 52.5899H51.74C51.9654 52.5899 52.1816 52.5004 52.341 52.341C52.5005 52.1815 52.59 51.9653 52.59 51.7399V25.9999C52.59 25.8883 52.568 25.7778 52.5253 25.6746C52.4826 25.5715 52.42 25.4778 52.341 25.3989C52.2621 25.3199 52.1684 25.2573 52.0653 25.2146C51.9622 25.1719 51.8516 25.1499 51.74 25.1499L51.79 25.1399ZM50.59 13.4099V20.5599H20.52L22.52 13.4099H50.52M51.67 11.4099H21.67C21.4844 11.4095 21.3037 11.4699 21.1557 11.5819C21.0076 11.6939 20.9002 11.8512 20.85 12.0299L18.15 21.4699C18.114 21.5994 18.1089 21.7355 18.135 21.8673C18.1611 21.9992 18.2178 22.1231 18.3004 22.229C18.3831 22.335 18.4894 22.4201 18.6109 22.4776C18.7324 22.5351 18.8657 22.5633 19 22.5599H51.74C51.8525 22.5599 51.9638 22.5376 52.0676 22.4943C52.1714 22.4509 52.2655 22.3874 52.3446 22.3074C52.4237 22.2274 52.4861 22.1326 52.5282 22.0283C52.5703 21.924 52.5913 21.8124 52.59 21.6999V12.2599C52.59 12.0345 52.5005 11.8183 52.341 11.6589C52.1816 11.4995 51.9654 11.4099 51.74 11.4099H51.67Z" fill="#131313"/>
<path d="M54.88 9.12012V54.8801H18.74L9.12 42.8801V9.12012H54.88ZM55.11 7.12012H8.89C8.42057 7.12012 7.97036 7.3066 7.63842 7.63854C7.30648 7.97048 7.12 8.42068 7.12 8.89012V42.8901C7.11555 43.3269 7.26415 43.7514 7.54 44.0901L17.21 56.1701C17.3875 56.3953 17.6139 56.5771 17.872 56.7019C18.1302 56.8266 18.4133 56.891 18.7 56.8901H55.11C55.5794 56.8901 56.0296 56.7036 56.3616 56.3717C56.6935 56.0398 56.88 55.5896 56.88 55.1201V8.89012C56.88 8.42068 56.6935 7.97048 56.3616 7.63854C56.0296 7.3066 55.5794 7.12012 55.11 7.12012Z" fill="#131313"/>
</svg>
