<svg width="96" height="64" viewBox="0 0 96 64" fill="none" xmlns="http://www.w3.org/2000/svg">
<mask id="mask0_19254_2076" style="mask-type:luminance" maskUnits="userSpaceOnUse" x="0" y="0" width="92" height="64">
<path d="M0.200195 0H91.0877V64H0.200195V0Z" fill="white"/>
</mask>
<g mask="url(#mask0_19254_2076)">
<path d="M89.775 1.17915C89.0354 0.441651 88.0541 0.0354004 87.0083 0.0354004H58.5187C56.2021 0.0354004 53.9625 0.720817 52.0375 2.01457L42.575 8.50207L41.7625 8.07915L39.7666 7.0479L39.6916 7.01665C38.1604 6.52915 36.4854 6.70832 35.0958 7.50832L12.9854 20.2187C12.0562 20.7521 11.4771 21.7479 11.4771 22.8208V25.9646C11.4771 26.6354 11.1812 27.2646 10.6604 27.6917L2.8333 34.0917C1.1583 35.4583 0.195801 37.4854 0.195801 39.65V53.6917C0.195801 54.2083 0.483301 54.675 0.947884 54.9062C1.41038 55.1375 1.95413 55.0896 2.36872 54.7771L4.78747 52.9646C5.31247 52.5708 5.47913 51.8562 5.18538 51.2687L4.71663 50.3312L5.72913 49.6083L15.3771 61.9167C16.2396 63.0167 17.4791 63.7104 18.8708 63.8667C19.0666 63.8875 19.2604 63.8979 19.4562 63.8979C20.6375 63.8979 21.7771 63.4958 22.7083 62.7375L48.3646 41.8229V27.8125L51.1979 24.9792C52.8708 23.3062 52.9604 20.6 51.4041 18.8208L49.4208 16.5562L49.4229 16.5542L48.2333 15.1958L48.2229 15.1854L55.55 9.88123C57.3791 8.55623 59.5375 7.85623 61.7916 7.85623H86.9229C89.1083 7.85623 90.9021 6.11665 90.9187 3.98123V3.94373C90.9187 2.8979 90.5125 1.91873 89.775 1.17915ZM48.3021 16.725L48.6187 17.0875L50.6833 19.4479C51.9125 20.8521 51.8416 22.9875 50.525 24.3042L47.4104 27.4187V41.3687L22.1083 61.9958C21.2229 62.7167 20.1083 63.0437 18.975 62.9187C17.8416 62.7896 16.8312 62.2271 16.1271 61.3292L5.91872 48.3021L3.49788 50.0292L4.3333 51.6958C4.4208 51.8729 4.3708 52.0833 4.21247 52.2021L1.7958 54.0146C1.61663 54.15 1.44163 54.0875 1.37497 54.0521C1.30622 54.0187 1.14997 53.9167 1.14997 53.6917V39.65C1.14997 37.7729 1.9833 36.0167 3.43747 34.8312L11.2666 28.4292C12.0062 27.8229 12.4312 26.9229 12.4312 25.9646V22.8208C12.4312 22.0896 12.8271 21.4104 13.4604 21.0458L35.5708 8.3354C36.7187 7.6729 38.1 7.52082 39.3666 7.91457L41.4479 8.99165L41.8729 9.21248L42.3 9.4354H42.3021L46.8333 15.0167L46.8166 15.025L47.1354 15.3896L47.1604 15.4208L47.9875 16.3625L48.3021 16.725ZM86.9229 6.90207H61.7916C59.3354 6.90207 56.9833 7.66665 54.9916 9.10832L47.6062 14.4562L43.3062 9.15832L52.5729 2.80415C54.3375 1.61665 56.3937 0.989567 58.5187 0.989567H87.0083C87.8 0.989567 88.5416 1.29582 89.1 1.85623C89.6646 2.42082 89.9729 3.17082 89.9646 3.9729C89.9521 5.58957 88.5854 6.90207 86.9229 6.90207Z" fill="#100F0D"/>
</g>
<path d="M30.1626 33.102C29.1439 31.8562 27.3418 31.6458 26.0626 32.625L23.0314 34.9416L22.6189 35.2541L22.2064 35.5708L18.5585 38.3562L18.1814 38.6458L17.8022 38.9375L14.8731 41.175C13.5731 42.1708 13.321 44.0375 14.3147 45.3395L20.6606 53.6645C21.1522 54.3083 21.8689 54.7166 22.6751 54.8125C22.7939 54.825 22.9126 54.8333 23.0293 54.8333C23.7126 54.8333 24.3668 54.6 24.9043 54.1625L36.0814 45.0187V45.0166C37.3501 43.9791 37.5356 42.102 36.4981 40.8354L30.1626 33.102ZM22.4626 36.577L23.121 39.1625C23.5835 40.977 24.8876 42.5083 26.6064 43.2541L28.6335 44.1333L25.7293 43.7645C23.4293 43.4708 21.3356 42.2229 19.9814 40.3395L19.1168 39.1333L22.4626 36.577ZM35.4772 44.2791L24.3001 53.4229C23.8731 53.7729 23.3356 53.9291 22.7876 53.8645C22.2397 53.8 21.7522 53.5229 21.4168 53.0833L15.0731 44.7583C14.3981 43.875 14.5689 42.6083 15.4522 41.9333L18.3585 39.7104L19.2085 40.8958C20.7126 42.9937 23.046 44.3854 25.6085 44.7104L28.9939 45.1395C29.0335 45.1458 29.0751 45.1479 29.1147 45.1479C29.5106 45.1479 29.8481 44.8937 29.9585 44.4979C30.0772 44.0604 29.871 43.6312 29.4585 43.45L26.9856 42.377C25.5356 41.7479 24.4376 40.4583 24.046 38.927L23.2856 35.9479L26.6397 33.3833C27.0085 33.1 27.4397 32.9645 27.8668 32.9645C28.4501 32.9645 29.0272 33.2187 29.4251 33.7062L35.7585 41.4375C36.4647 42.3 36.3376 43.575 35.4772 44.2791Z" fill="#100F0D"/>
<mask id="mask1_19254_2076" style="mask-type:luminance" maskUnits="userSpaceOnUse" x="80" y="14" width="16" height="22">
<path d="M80.9546 14.0271H95.8004V35.3604H80.9546V14.0271Z" fill="white"/>
</mask>
<g mask="url(#mask1_19254_2076)">
<path d="M88.492 35.0086C84.4483 35.0086 81.1587 31.719 81.1587 27.6753C81.1587 25.0232 84.1629 19.5711 86.6858 15.467C87.0733 14.8336 87.7483 14.4565 88.492 14.4565C89.2337 14.4565 89.9087 14.8336 90.2983 15.467C92.8191 19.5711 95.8233 25.0232 95.8233 27.6753C95.8233 31.719 92.5337 35.0086 88.492 35.0086ZM88.492 15.4086C88.0837 15.4086 87.7108 15.617 87.4983 15.967C84.0754 21.5378 82.1129 25.8065 82.1129 27.6753C82.1129 31.194 84.9733 34.0545 88.492 34.0545C92.0087 34.0545 94.8691 31.194 94.8691 27.6753C94.8691 25.8065 92.9066 21.5378 89.4858 15.967C89.2712 15.617 88.9004 15.4086 88.492 15.4086Z" fill="#100F0D"/>
</g>
</svg>
