<svg width="71" height="64" viewBox="0 0 71 64" fill="none" xmlns="http://www.w3.org/2000/svg">
<mask id="mask0_19254_2965" style="mask-type:luminance" maskUnits="userSpaceOnUse" x="0" y="0" width="71" height="64">
<path d="M0.894531 0H70.1063V64H0.894531V0Z" fill="white"/>
</mask>
<g mask="url(#mask0_19254_2965)">
<path d="M58.0433 20.0403H7.95642C7.86304 20.0403 7.77292 20.0588 7.68606 20.0946C7.60029 20.1305 7.5232 20.1815 7.45696 20.2477C7.39073 20.314 7.3397 20.39 7.30387 20.4768C7.26804 20.5626 7.25067 20.6527 7.25067 20.7461V43.2542C7.25067 43.3476 7.26804 43.4377 7.30387 43.5246C7.3397 43.6104 7.39073 43.6875 7.45696 43.7537C7.5232 43.8199 7.60029 43.871 7.68606 43.9068C7.77292 43.9426 7.86304 43.96 7.95642 43.96H58.0433C58.1367 43.96 58.2268 43.9426 58.3136 43.9068C58.4005 43.871 58.4765 43.8199 58.5427 43.7537C58.609 43.6875 58.66 43.6104 58.6958 43.5246C58.7317 43.4377 58.7501 43.3476 58.7501 43.2542V20.7461C58.7501 20.6527 58.7317 20.5626 58.6958 20.4768C58.66 20.39 58.609 20.314 58.5427 20.2477C58.4765 20.1815 58.4005 20.1305 58.3136 20.0946C58.2268 20.0588 58.1367 20.0403 58.0433 20.0403ZM8.66326 21.4529H28.7132L16.2974 42.5485H8.66326V21.4529ZM17.9358 42.5485L30.3516 21.4529H49.0954L36.6795 42.5485H17.9358ZM57.3375 42.5485H38.3256L50.7338 21.4529H57.3375V42.5485ZM67.027 23.4855H65.1204V19.5604C65.1204 19.2825 65.0932 19.0067 65.0389 18.7341C64.9846 18.4616 64.9043 18.1967 64.7979 17.9394C64.6915 17.682 64.5601 17.4377 64.4059 17.2065C64.2517 16.9752 64.0759 16.7613 63.8793 16.5648C63.6817 16.3682 63.4678 16.1923 63.2365 16.0382C63.0053 15.884 62.761 15.7537 62.5047 15.6473C62.2474 15.5409 61.9825 15.4594 61.7089 15.4062C61.4363 15.352 61.1605 15.3248 60.8826 15.3248H5.13232C4.85327 15.3248 4.57857 15.352 4.30495 15.4062C4.03242 15.4594 3.7675 15.5409 3.51017 15.6473C3.25284 15.7537 3.00854 15.884 2.77727 16.0382C2.546 16.1923 2.3321 16.3682 2.13557 16.5648C1.93905 16.7613 1.76315 16.9752 1.60897 17.2065C1.45371 17.4377 1.32341 17.682 1.21701 17.9394C1.1106 18.1967 1.03025 18.4616 0.975964 18.7341C0.921676 19.0067 0.894531 19.2825 0.894531 19.5604V44.4399C0.894531 44.7179 0.921676 44.9936 0.975964 45.2662C1.03025 45.5398 1.1106 45.8047 1.21701 46.061C1.32341 46.3183 1.45371 46.5626 1.60897 46.7939C1.76315 47.0251 1.93905 47.239 2.13557 47.4356C2.3321 47.6321 2.546 47.808 2.77727 47.9622C3.00854 48.1163 3.25284 48.2477 3.51017 48.3541C3.7675 48.4605 4.03242 48.5409 4.30495 48.5952C4.57857 48.6495 4.85327 48.6766 5.13232 48.6766H60.8544C61.1323 48.6766 61.4081 48.6495 61.6806 48.5952C61.9542 48.5409 62.2192 48.4605 62.4754 48.3541C62.7327 48.2477 62.977 48.1163 63.2083 47.9622C63.4396 47.808 63.6535 47.6321 63.8511 47.4356C64.0476 47.239 64.2235 47.0251 64.3777 46.7939C64.5319 46.5626 64.6633 46.3183 64.7697 46.061C64.8761 45.8047 64.9564 45.5398 65.0107 45.2662C65.065 44.9936 65.0921 44.7179 65.0921 44.4399V40.5289H66.9988C67.2018 40.5311 67.4027 40.5126 67.6025 40.4746C67.8022 40.4366 67.9955 40.3802 68.1844 40.3031C68.3723 40.2271 68.5514 40.1326 68.7208 40.0219C68.8902 39.91 69.0476 39.783 69.192 39.6397C69.3364 39.4974 69.4656 39.3411 69.5786 39.1739C69.6926 39.0056 69.7881 38.8275 69.8674 38.6397C69.9456 38.4529 70.0053 38.2597 70.0454 38.061C70.0856 37.8623 70.1052 37.6603 70.1063 37.4573V26.543C70.1052 26.3411 70.0856 26.1413 70.0454 25.9437C70.0064 25.745 69.9477 25.5528 69.8696 25.3672C69.7925 25.1804 69.6969 25.0034 69.5851 24.8362C69.4722 24.6679 69.3451 24.5137 69.2018 24.3704C69.0585 24.2282 68.9032 24.1011 68.7349 23.9893C68.5677 23.8775 68.3907 23.7819 68.204 23.7048C68.0172 23.6277 67.825 23.5702 67.6263 23.5311C67.4287 23.4909 67.2289 23.4714 67.027 23.4714V23.4855ZM63.7078 44.454C63.7078 44.6397 63.6893 44.8232 63.6535 45.0056C63.6166 45.1869 63.5634 45.3639 63.4928 45.5354C63.4211 45.7059 63.3343 45.8688 63.2311 46.023C63.128 46.1771 63.0118 46.3205 62.8804 46.4508C62.749 46.5821 62.6068 46.6994 62.4515 46.8026C62.2973 46.9057 62.1356 46.9926 61.964 47.0631C61.7925 47.1348 61.6155 47.188 61.4342 47.2238C61.2517 47.2607 61.0683 47.2781 60.8826 47.2781H5.13232C4.94665 47.2781 4.76315 47.2607 4.58074 47.2238C4.39833 47.188 4.22244 47.1348 4.05088 47.0631C3.87933 46.9926 3.71646 46.9057 3.56228 46.8026C3.4081 46.6994 3.26587 46.5821 3.13449 46.4508C3.00311 46.3205 2.88584 46.1771 2.7827 46.023C2.67955 45.8688 2.59269 45.7059 2.52211 45.5354C2.45045 45.3639 2.39725 45.1869 2.36141 45.0056C2.3245 44.8232 2.30713 44.6397 2.30713 44.454V19.5604C2.30713 19.3748 2.3245 19.1913 2.36141 19.0099C2.39725 18.8275 2.45045 18.6505 2.52211 18.4801C2.59269 18.3085 2.67955 18.1457 2.7827 17.9915C2.88584 17.8373 3.00311 17.6951 3.13449 17.5637C3.26587 17.4323 3.4081 17.315 3.56228 17.2119C3.71646 17.1087 3.87933 17.0219 4.05088 16.9513C4.22244 16.8807 4.39833 16.8264 4.58074 16.7906C4.76315 16.7548 4.94665 16.7363 5.13232 16.7363H60.8544C61.04 16.7363 61.2235 16.7548 61.4059 16.7906C61.5873 16.8264 61.7642 16.8807 61.9358 16.9513C62.1063 17.0219 62.2691 17.1087 62.4233 17.2119C62.5786 17.315 62.7208 17.4323 62.8522 17.5637C62.9836 17.6951 63.0997 17.8373 63.2029 17.9915C63.306 18.1457 63.3929 18.3085 63.4646 18.4801C63.5351 18.6505 63.5883 18.8275 63.6253 19.0099C63.6611 19.1913 63.6795 19.3748 63.6795 19.5604V44.4399L63.7078 44.454ZM68.6937 37.4573C68.6937 37.5669 68.6817 37.6744 68.66 37.7819C68.6383 37.8883 68.6068 37.9926 68.5645 38.0935C68.5232 38.1934 68.4711 38.289 68.4103 38.3802C68.3495 38.4703 68.28 38.5539 68.2029 38.631C68.1258 38.7081 68.0411 38.7776 67.951 38.8373C67.8598 38.8981 67.7642 38.9491 67.6633 38.9904C67.5623 39.0327 67.458 39.0642 67.3516 39.0849C67.2441 39.1066 67.1356 39.1163 67.027 39.1163H65.1204V24.884H67.027C67.1356 24.884 67.2441 24.8948 67.3516 24.9155C67.458 24.9372 67.5623 24.9687 67.6633 25.0099C67.7642 25.0512 67.8598 25.1022 67.951 25.163C68.0411 25.2238 68.1258 25.2922 68.2029 25.3693C68.28 25.4464 68.3495 25.53 68.4103 25.6201C68.4711 25.7113 68.5232 25.8069 68.5645 25.9079C68.6068 26.0078 68.6383 26.112 68.66 26.2184C68.6817 26.3259 68.6937 26.4334 68.6937 26.543V37.4573ZM37.8587 31.7179C37.8033 31.5897 37.7175 31.4877 37.6003 31.4106C37.4841 31.3346 37.356 31.2955 37.2159 31.2944H35.3375L36.8283 23.8883C36.8435 23.8123 36.8457 23.7363 36.8359 23.6603C36.8261 23.5832 36.8044 23.5105 36.7708 23.441C36.7371 23.3715 36.6937 23.3085 36.6394 23.2542C36.5851 23.1989 36.5232 23.1543 36.4548 23.1196C36.3853 23.0849 36.3126 23.061 36.2365 23.0501C36.1595 23.0392 36.0835 23.0403 36.0075 23.0545C35.9314 23.0686 35.8598 23.0946 35.7925 23.1326C35.7251 23.1695 35.6654 23.2173 35.6133 23.2738L28.2756 31.3509C28.1823 31.454 28.1247 31.5745 28.1019 31.7124C28.0802 31.8503 28.0976 31.9828 28.154 32.1098C28.2105 32.2369 28.2974 32.3389 28.4135 32.4149C28.5308 32.4909 28.6589 32.5289 28.7979 32.53H30.6481L28.9325 40.0914C28.9152 40.1674 28.9108 40.2434 28.9184 40.3205C28.926 40.3986 28.9466 40.4725 28.9792 40.543C29.0118 40.6136 29.0552 40.6766 29.1084 40.7331C29.1616 40.7895 29.2235 40.8362 29.2919 40.872C29.3603 40.909 29.4331 40.9328 29.5102 40.9448C29.5873 40.9578 29.6643 40.9567 29.7403 40.9437C29.8174 40.9307 29.8902 40.9057 29.9586 40.8677C30.027 40.8308 30.0867 40.7841 30.1399 40.7265L37.7317 32.4801C37.8272 32.3769 37.8858 32.2564 37.9097 32.1185C37.9325 31.9795 37.9152 31.846 37.8587 31.7179ZM30.8956 37.8254L32.2235 32.0002C32.2735 31.7776 32.2268 31.5778 32.0824 31.3997C31.9412 31.2227 31.7577 31.1326 31.5308 31.1315H30.394L34.9423 26.1337L33.7838 31.859C33.7414 32.0783 33.7903 32.2727 33.9325 32.4453C34.0726 32.618 34.2539 32.7048 34.4765 32.7059H35.6057L30.8956 37.8254ZM35.5004 0.00341797C35.5938 0.00341797 35.6839 0.0218762 35.7708 0.0577068C35.8565 0.0935376 35.9336 0.144569 35.9998 0.210801C36.0661 0.277034 36.1171 0.353038 36.1529 0.4399C36.1888 0.526762 36.2061 0.615796 36.2061 0.710258V9.21732C36.2061 9.31069 36.1888 9.40081 36.1529 9.48767C36.1171 9.57454 36.0661 9.65054 35.9998 9.71677C35.9336 9.78301 35.8565 9.83404 35.7708 9.86987C35.6839 9.9057 35.5938 9.92307 35.5004 9.92307C35.407 9.92307 35.3169 9.9057 35.23 9.86987C35.1432 9.83404 35.0672 9.78301 35.0009 9.71677C34.9347 9.65054 34.8837 9.57454 34.8478 9.48767C34.812 9.40081 34.7936 9.31069 34.7936 9.21732V0.745003C34.7936 0.651626 34.812 0.561507 34.8478 0.474645C34.8837 0.388869 34.9347 0.311778 35.0009 0.245546C35.0672 0.179314 35.1432 0.128282 35.23 0.0924516C35.3169 0.0566211 35.407 0.0392486 35.5004 0.0392486V0.00341797ZM25.4787 2.68637L31.4884 8.70157C31.5905 8.80255 31.6557 8.92307 31.6839 9.06314C31.7121 9.20212 31.6991 9.33892 31.6448 9.4703C31.5905 9.60277 31.5047 9.70917 31.3864 9.78843C31.268 9.86878 31.1377 9.90896 30.9944 9.90896C30.7979 9.90787 30.6307 9.83729 30.4928 9.69723L24.4895 3.67551C24.4233 3.60928 24.3712 3.53219 24.3354 3.44533C24.2995 3.35847 24.2811 3.26835 24.2811 3.17388C24.2811 3.07942 24.2995 2.9893 24.3354 2.90244C24.3712 2.81558 24.4233 2.73849 24.4895 2.67226C24.5569 2.6082 24.6339 2.55825 24.7208 2.5235C24.8077 2.48985 24.8978 2.47356 24.9912 2.47464C25.0845 2.47573 25.1736 2.49419 25.2593 2.53111C25.3451 2.56802 25.42 2.62014 25.4863 2.68637H25.4787ZM46.5036 2.68637C46.5688 2.7526 46.6198 2.82861 46.6557 2.91547C46.6915 3.00125 46.7089 3.09137 46.7089 3.18474C46.7089 3.27812 46.6915 3.36715 46.6557 3.45402C46.6198 3.53979 46.5688 3.6158 46.5036 3.68203L40.5004 9.70483C40.3625 9.8449 40.1953 9.91547 39.9988 9.91656C39.8565 9.91547 39.7251 9.8753 39.6068 9.79603C39.4884 9.71569 39.4027 9.61037 39.3484 9.4779C39.2941 9.34544 39.2811 9.20972 39.3104 9.06965C39.3386 8.92959 39.4038 8.80906 39.5047 8.70917L45.508 2.68637C45.5742 2.62014 45.6502 2.56802 45.7371 2.53219C45.824 2.49636 45.9152 2.4779 46.0096 2.4779C46.103 2.4779 46.1942 2.49636 46.2811 2.53219C46.3679 2.56802 46.4439 2.62014 46.5102 2.68637H46.5036ZM35.5004 63.9969C35.407 63.9969 35.3169 63.9784 35.23 63.9426C35.1432 63.9068 35.0672 63.8558 35.0009 63.7895C34.9347 63.7233 34.8837 63.6473 34.8478 63.5604C34.812 63.4746 34.7936 63.3845 34.7936 63.2911V54.8188C34.7936 54.7255 34.812 54.6353 34.8478 54.5485C34.8837 54.4616 34.9347 54.3856 35.0009 54.3194C35.0672 54.2531 35.1432 54.2021 35.23 54.1663C35.3169 54.1305 35.407 54.112 35.5004 54.112C35.5938 54.112 35.6839 54.1305 35.7708 54.1663C35.8565 54.2021 35.9336 54.2531 35.9998 54.3194C36.0661 54.3856 36.1171 54.4616 36.1529 54.5485C36.1888 54.6353 36.2061 54.7244 36.2061 54.8188V63.2911C36.2061 63.3845 36.1888 63.4746 36.1529 63.5604C36.1171 63.6473 36.0661 63.7233 35.9998 63.7895C35.9336 63.8558 35.8565 63.9068 35.7708 63.9426C35.6839 63.9784 35.5938 63.9969 35.5004 63.9969ZM45.5221 61.314L39.5112 55.2988C39.445 55.2325 39.3929 55.1554 39.3571 55.0686C39.3212 54.9817 39.3028 54.8916 39.3028 54.7971C39.3028 54.7037 39.3212 54.6125 39.3571 54.5257C39.3929 54.4388 39.445 54.3628 39.5112 54.2966C39.5775 54.2303 39.6546 54.1793 39.7403 54.1446C39.8261 54.1087 39.9162 54.0903 40.0096 54.0903C40.103 54.0903 40.1931 54.1087 40.2789 54.1446C40.3647 54.1793 40.4418 54.2303 40.508 54.2966L46.5102 60.3183C46.6122 60.4193 46.6774 60.5398 46.7056 60.6809C46.7338 60.821 46.7208 60.9578 46.6654 61.0903C46.6101 61.2227 46.5232 61.3292 46.4038 61.4084C46.2843 61.4877 46.1529 61.5268 46.0096 61.5257C45.8153 61.5224 45.6502 61.4518 45.5145 61.314H45.5221ZM24.9912 61.5257C24.7979 61.5224 24.6329 61.4518 24.4971 61.314C24.4309 61.2477 24.381 61.1717 24.3451 61.0849C24.3093 60.9991 24.2919 60.909 24.2919 60.8156C24.2919 60.7233 24.3093 60.6332 24.3451 60.5474C24.381 60.4605 24.4309 60.3845 24.4971 60.3183L30.5004 54.2966C30.5666 54.2303 30.6426 54.1793 30.7284 54.1446C30.8153 54.1087 30.9043 54.0903 30.9977 54.0903C31.0911 54.0903 31.1812 54.1087 31.267 54.1446C31.3538 54.1793 31.4298 54.2303 31.496 54.2966C31.5623 54.3628 31.6144 54.4388 31.6502 54.5257C31.6871 54.6125 31.7045 54.7037 31.7045 54.7971C31.7045 54.8916 31.6871 54.9817 31.6502 55.0686C31.6144 55.1554 31.5623 55.2325 31.496 55.2988L25.4928 61.3205C25.3516 61.4605 25.1823 61.5289 24.9846 61.5257H24.9912Z" fill="black"/>
</g>
</svg>
