<svg width="169" height="172" viewBox="0 0 169 172" fill="none" xmlns="http://www.w3.org/2000/svg">
<path d="M68.3188 130.349C68.0271 130.677 67.8344 131.063 67.7407 131.464C67.548 132.287 67.0323 132.948 66.7198 133.708C66.4177 134.438 65.9959 135.115 65.6313 135.813C65.449 136.162 65.324 136.542 65.0323 136.828C65.0063 136.849 64.9907 136.886 64.9802 136.917C64.7719 137.63 64.2563 138.141 63.8344 138.714C63.7302 138.854 63.6261 139.016 63.6 139.182C63.4542 140.167 62.9542 141 62.4959 141.849C62.4334 141.974 62.4125 142.12 62.3813 142.255C62.3709 142.281 62.4073 142.323 62.4334 142.344C62.449 142.359 62.5011 142.354 62.5115 142.339C62.6573 142.136 62.8552 141.953 62.9386 141.724C63.173 141.109 63.5896 140.62 63.9855 140.109C64.0167 140.068 64.0792 140.047 64.1261 140.016C64.1417 140.083 64.1625 140.151 64.1677 140.219C64.2355 140.854 63.9855 141.412 63.7511 141.979C63.6052 142.339 63.3657 142.682 63.4282 143.104C63.4334 143.141 63.4542 143.172 63.4698 143.203C63.5219 143.177 63.574 143.146 63.6261 143.12C63.6782 143.094 63.725 143.063 63.7823 143.042C63.7823 143.042 63.8188 143.099 63.8292 143.13C63.8396 143.167 63.8448 143.208 63.8292 143.24C63.5115 143.922 63.199 144.609 62.8657 145.281C62.8084 145.396 62.6469 145.458 62.5427 145.547C62.3865 145.682 62.3865 145.854 62.4177 146.042C62.4438 146.214 62.5584 146.328 62.6938 146.281C63.5063 145.995 64.3188 145.708 65.1313 145.422C65.4698 145.307 65.7771 145.13 66.1573 145.125C66.3969 145.12 66.6365 144.979 66.8657 144.875C67.9177 144.406 68.9698 143.938 69.9438 143.313C70.423 143 70.9282 142.74 71.4802 142.547C72.0844 142.333 72.6313 141.964 73.1834 141.63C74.199 141.016 75.199 140.386 76.199 139.745C76.5948 139.495 76.9907 139.24 77.3396 138.938C78.2198 138.188 79.2667 137.672 80.1209 136.891C80.5167 136.531 80.9855 136.25 81.4386 135.964C82.048 135.578 82.6313 135.156 83.1834 134.693C83.4802 134.438 83.8136 134.219 84.1261 133.984C84.3605 133.807 84.5948 133.641 84.8084 133.448C85.7459 132.604 86.6677 131.75 87.548 130.839C88.0167 130.354 88.5427 129.906 89.074 129.49C89.7927 128.927 90.3292 128.198 90.9282 127.526C91.1417 127.287 91.3552 127.037 91.5948 126.828C91.8605 126.594 92.1782 126.412 92.3344 126.068C92.3761 125.974 92.4542 125.88 92.5375 125.833C93.0584 125.547 93.3969 125.073 93.7667 124.641C94.8344 123.38 95.975 122.182 96.949 120.849C97.3084 120.354 97.7355 119.901 97.8709 119.276C98.4073 118.469 98.7719 117.568 99.2667 116.734C99.85 115.745 100.371 114.719 100.866 113.682C101.006 113.391 101.152 113.115 101.324 112.844C101.61 112.386 101.845 111.896 102.079 111.412C102.657 110.214 103.22 109.011 103.788 107.807C103.876 107.615 103.954 107.417 104.038 107.219C104.147 106.953 104.22 106.667 104.366 106.422C104.756 105.771 105.022 105.068 105.314 104.375C105.386 104.203 105.433 104.057 105.371 103.865C105.194 103.323 105.517 102.906 105.767 102.479C105.814 102.396 105.876 102.406 105.954 102.458C106.069 102.531 106.142 102.469 106.178 102.354C106.23 102.208 106.209 102.068 106.126 101.943C106.022 101.776 105.985 101.599 106.069 101.432C106.527 100.521 106.616 99.5001 106.959 98.5574C107.121 98.1251 107.261 97.6772 107.402 97.2345C107.548 96.7866 107.715 96.3491 107.814 95.8959C108.017 94.948 108.329 94.0314 108.6 93.1043C108.97 91.8647 109.288 90.6199 109.59 89.3647C109.673 89.0209 109.772 88.672 109.845 88.323C110.069 87.2345 110.251 86.1355 110.491 85.0522C110.657 84.2814 110.663 83.4845 110.902 82.7241C111.038 82.2866 111.017 81.797 111.058 81.3282C111.069 81.1824 110.84 80.9793 110.683 81.0262C110.392 81.1147 110.136 81.0626 109.85 80.9741C109.293 80.797 108.715 80.8074 108.136 80.8855C107.959 80.9064 107.756 80.9949 107.61 80.9428C106.751 80.6407 105.808 80.8491 104.965 80.4741C103.907 80.4741 102.944 80.0105 101.918 79.8334C101.116 79.698 100.324 79.448 99.5271 79.2449C98.8709 79.0782 98.225 78.8647 97.6105 78.547C97.173 78.3178 96.7042 78.1147 96.1886 78.0574C95.9073 78.0262 95.6261 77.9272 95.3657 77.8074C94.7511 77.5262 94.1417 77.2241 93.5375 76.9116C93.0636 76.6616 92.5427 76.5209 92.0792 76.2345C91.0844 75.6355 90.1625 74.9584 89.3552 74.1251C88.7823 73.5262 88.1886 72.9532 87.6209 72.3491C86.8292 71.5001 86.225 70.5314 85.7094 69.4897C85.1 68.2657 84.4646 67.0574 83.7823 65.8751C83.2563 64.9741 82.8032 64.0366 82.3605 63.0991C82.1209 62.5782 81.7094 62.1407 81.5948 61.5678C81.4907 61.0261 81.2094 60.5626 81.0167 60.0626C80.8188 59.5626 80.6157 59.0678 80.3917 58.5782C80.324 58.4324 80.3813 58.3022 80.3605 58.172C80.3292 57.9584 80.2719 57.7501 80.1938 57.5522C80.1313 57.3907 79.8657 57.3751 79.8761 57.1511C79.9021 56.6772 79.6052 56.2553 79.673 55.7709C79.699 55.5991 79.6677 55.4064 79.6157 55.2397C79.199 53.9064 79.0375 52.5001 78.475 51.2032C78.4438 51.1407 78.4021 51.047 78.4282 51.0001C78.6834 50.5053 78.4855 50.0209 78.4125 49.5366C78.3396 49.0418 78.2094 48.5522 78.1157 48.0626C78.0323 47.6043 78.0011 47.1303 77.8865 46.6824C77.8084 46.3595 77.7927 46.0418 77.7927 45.7189C77.7875 45.2866 77.8136 44.8595 77.6886 44.4324C77.6261 44.2293 77.6209 44.0001 77.6469 43.7918C77.725 43.1928 77.4594 42.5886 77.6938 41.9949C77.7198 41.9376 77.7094 41.8491 77.6886 41.7814C77.4907 41.1095 77.5948 40.422 77.5844 39.7397C77.5688 38.948 77.4542 38.1668 77.5271 37.3699C77.5844 36.698 77.6938 36.0209 77.6209 35.3386C77.6052 35.198 77.6105 35.047 77.6469 34.9064C78.0271 33.5001 77.8709 32.047 78.0323 30.6199C78.0532 30.4428 78.0375 30.2553 78.0844 30.0834C78.3865 28.8959 78.548 27.6928 78.6677 26.4741C78.7615 25.4793 79.0063 24.4949 79.3292 23.5418C79.5011 23.0314 79.6573 22.5209 79.725 21.9793C79.7823 21.5522 79.9021 21.1355 80.0323 20.7241C80.3396 19.7709 80.673 18.823 80.9959 17.8699C81.1365 17.4636 81.3032 17.0626 81.4021 16.6459C81.7407 15.2084 82.3657 13.8699 82.8552 12.4793C83.1052 11.7709 83.3552 11.0574 83.7042 10.3907C84.0011 9.81781 84.3657 9.29177 84.6313 8.69802C84.8917 8.11469 85.2407 7.56781 85.5688 7.01052C85.7355 6.73448 85.9177 6.46365 86.1209 6.21365C86.7198 5.45323 87.3136 4.6824 87.9542 3.95844C88.7771 3.02615 89.8188 2.51052 91.0688 2.44802C91.2823 2.4324 91.5011 2.44802 91.7146 2.46885C92.6886 2.5626 93.6573 2.57302 94.6313 2.55219C95.1261 2.54177 95.6261 2.65115 96.1209 2.70844C96.1886 2.71885 96.2667 2.73969 96.324 2.77615C97.2302 3.40115 98.2511 3.84906 98.9073 4.82823C99.7146 6.02615 100.444 7.2501 100.959 8.59906C101.402 9.77094 101.876 10.9376 102.183 12.1564C102.454 13.2345 102.636 14.3282 102.767 15.4376C102.808 15.8282 102.892 16.2136 102.928 16.6043C102.991 17.3178 103.157 18.0261 103.1 18.7501C103.09 18.922 103.173 19.0991 103.23 19.2709C103.246 19.3178 103.319 19.3439 103.36 19.3803C103.386 19.3491 103.413 19.323 103.428 19.2918C104.152 17.297 105.053 15.3803 105.897 13.4376C106.626 11.7553 107.485 10.1355 108.449 8.57302C109.131 7.46365 109.897 6.4324 110.715 5.42719C111.579 4.35948 112.595 3.46365 113.735 2.6824C114.808 1.94802 115.939 1.91156 117.136 2.21365C117.308 2.25531 117.48 2.32302 117.652 2.3699C118.407 2.5626 119.038 2.95844 119.506 3.59385C119.803 3.9949 120.105 4.40115 120.386 4.81781C120.485 4.96365 120.538 5.14073 120.59 5.3126C120.819 6.06781 121.038 6.82302 121.136 7.61469C121.215 8.2501 121.329 8.89073 121.47 9.52094C121.61 10.1251 121.543 10.7397 121.621 11.3386C121.751 12.3855 121.61 13.4272 121.699 14.4636C121.814 15.8334 121.741 17.1928 121.709 18.5626C121.704 18.7397 121.683 18.9272 121.715 19.0991C121.918 20.2501 121.793 21.4011 121.756 22.547C121.751 22.7032 121.663 22.8803 121.824 23.0157C121.918 22.8595 122.038 22.7189 122.095 22.5574C122.678 20.8543 123.413 19.2189 124.136 17.5782C124.423 16.922 124.741 16.2761 124.991 15.6043C125.303 14.7553 125.772 13.9897 126.163 13.1824C126.485 12.4949 126.933 11.8855 127.324 11.2397C128.038 10.0678 128.803 8.9324 129.673 7.88552C130.944 6.35427 132.35 4.95844 134.194 4.10427C135.314 3.58865 136.444 3.45323 137.652 3.84385C138.35 4.06781 139.006 4.30219 139.538 4.82823C139.663 4.95323 139.824 5.04177 139.975 5.14073C140.834 5.73969 141.334 6.58344 141.72 7.53656C142.324 9.01573 142.6 10.5574 142.746 12.1303C142.788 12.5626 143.001 12.9532 142.928 13.4064C142.866 13.797 142.949 14.1928 143.053 14.5782C143.095 14.7501 143.058 14.9376 143.053 15.1199C143.027 15.9845 142.965 16.8491 142.985 17.7136C142.996 18.2449 143.121 18.7761 143.215 19.3022C143.319 19.8491 143.36 20.7918 143.277 21.4168C143.267 21.4845 143.225 21.5678 143.251 21.6251C143.564 22.4584 143.262 23.3439 143.485 24.1928C143.584 24.5626 143.496 24.9793 143.496 25.3751C143.501 25.4376 143.543 25.5053 143.564 25.5678C143.61 25.5157 143.678 25.4689 143.704 25.4116C143.991 24.672 144.366 23.9741 144.746 23.2866C144.871 23.0678 144.97 22.8282 145.022 22.5834C145.282 21.2709 145.928 20.0939 146.345 18.8334C146.657 17.8803 147.084 16.9689 147.548 16.073C147.876 15.4324 148.142 14.7657 148.454 14.1199C148.985 13.0209 149.527 11.922 150.084 10.8386C150.334 10.3595 150.621 9.89594 150.923 9.45323C151.72 8.30219 152.376 7.05219 153.22 5.92719C154.194 4.63031 155.277 3.42719 156.454 2.3126C157.376 1.4324 158.465 0.79698 159.637 0.323021C160.267 0.073021 160.939 0.00531195 161.621 0.203229C162.532 0.468855 163.35 0.906354 164.137 1.41677C164.527 1.67198 164.928 1.92198 165.267 2.23448C166.256 3.13552 166.782 4.3126 167.105 5.58865C167.277 6.28135 167.454 6.97927 167.543 7.6876C167.673 8.71885 168.022 9.70844 168.012 10.7605C168.006 11.1876 168.048 11.6303 168.168 12.0366C168.319 12.5366 168.293 13.0314 168.298 13.5366C168.303 13.9636 168.246 14.3959 168.392 14.823C168.449 14.9845 168.413 15.1772 168.402 15.3595C168.366 16.1511 168.345 16.9428 168.282 17.7345C168.235 18.3022 168.022 18.8543 168.032 19.4324C168.038 19.5782 167.959 19.7397 168.006 19.8595C168.277 20.6355 168.121 21.422 168.09 22.2084C168.079 22.4584 168.006 22.698 167.944 22.9428C167.704 23.8803 167.501 24.823 167.288 25.7657C167.246 25.9376 167.22 26.1199 167.147 26.2866C166.881 26.922 166.746 27.5782 166.782 28.2761C166.829 29.2605 166.553 30.198 166.329 31.1407C166.277 31.3491 166.22 31.5574 166.194 31.7657C166.137 32.2657 166.053 32.7553 165.897 33.2397C165.699 33.8543 165.548 34.4793 165.522 35.1407C165.501 35.5939 165.36 36.0574 165.22 36.5001C164.892 37.5261 164.548 38.5418 164.178 39.5522C164.006 40.0261 163.782 40.4793 163.548 40.922C163.423 41.1564 163.314 41.3543 163.459 41.6199C163.532 41.7553 163.433 41.8959 163.36 42.0209C163.241 42.2397 163.126 42.4689 162.996 42.6824C162.876 42.8751 162.808 43.0574 162.939 43.2814C162.98 43.3491 162.959 43.5105 162.902 43.573C162.433 44.0939 162.262 44.7709 161.939 45.3699C161.637 45.9376 161.355 46.5261 161.069 47.1043C160.595 48.0678 159.991 48.9636 159.444 49.8907C159.407 49.9532 159.355 50.0261 159.298 50.047C158.72 50.2605 158.6 50.8178 158.35 51.2761C158.126 51.6824 157.887 52.0834 157.663 52.4949C156.855 53.9428 155.949 55.323 154.975 56.6616C154.933 56.7189 154.876 56.7709 154.829 56.823C154.756 56.8907 154.699 56.8907 154.663 56.823C154.647 56.7918 154.621 56.7605 154.626 56.7293C154.642 56.6616 154.652 56.5834 154.694 56.5314C155.178 55.8543 155.485 55.0834 155.803 54.323C156.069 53.6928 156.355 53.0782 156.652 52.4636C157.043 51.6511 157.308 50.8074 157.564 49.9428C157.699 49.4689 157.944 49.0157 158.157 48.5626C158.293 48.2709 158.47 47.9949 158.621 47.7084C158.668 47.6199 158.699 47.5001 158.595 47.4376C158.569 47.4168 158.475 47.5001 158.413 47.5366C158.381 47.5574 158.355 47.5834 158.319 47.5939C158.262 47.6095 158.173 47.6511 158.142 47.6251C158.095 47.5886 158.058 47.4845 158.079 47.4376C158.262 47.047 158.402 46.6251 158.657 46.2918C158.907 45.9689 159.064 45.6147 159.204 45.2501C159.48 44.547 159.72 43.8386 159.97 43.1251C159.991 43.0678 159.944 42.9897 159.928 42.922C159.871 42.9532 159.782 42.9741 159.767 43.0209C159.548 43.6199 159.043 44.1095 159.069 44.8074C159.074 44.9011 159.012 45.0105 158.949 45.0939C158.064 46.3386 157.308 47.7084 156.689 49.2032C156.6 49.4168 156.428 49.5418 156.314 49.7189C156.204 49.9011 156.006 50.1303 156.048 50.2866C156.23 50.9897 155.631 50.8855 155.308 51.0574C155.277 51.073 155.157 51.0001 155.147 50.9532C155.121 50.7761 155.131 50.6095 155.121 50.4324C155.501 50.3959 155.496 50.3855 155.538 50.1043C155.564 49.9272 155.579 49.7605 155.595 49.5834C156.142 49.422 156.319 48.9532 156.491 48.4845C156.496 48.4636 156.465 48.4168 156.439 48.3959C156.423 48.3803 156.381 48.3803 156.36 48.3907C155.954 48.6928 155.558 49.0001 155.595 49.5834C155.314 49.797 155.105 50.0522 155.121 50.4324C154.829 50.5991 154.735 50.9168 154.584 51.1876C153.59 52.9741 152.506 54.7032 151.376 56.4064C150.985 57.0001 150.506 57.5366 150.069 58.0991C149.98 58.2136 149.834 58.323 149.824 58.4428C149.756 59.0522 149.303 59.3491 148.881 59.6824C148.772 59.7657 148.626 59.8647 148.59 59.9845C148.449 60.448 148.022 60.698 147.798 61.0782C147.433 61.6928 146.814 62.0053 146.366 62.5105C146.157 62.7449 145.85 62.7397 145.59 62.8439C145.329 62.948 145.116 63.0782 144.98 63.3855C144.709 64.0105 144.293 64.5522 143.808 65.0418C143.506 65.3439 143.241 65.6876 142.949 66.0001C142.605 66.3647 142.272 66.7189 141.814 66.948C141.819 66.7657 141.819 66.5991 141.975 66.4741C142.183 66.3074 142.277 66.073 142.387 65.8439C142.418 65.7709 142.387 65.7189 142.303 65.7032C142.267 65.698 142.22 65.6928 142.199 65.7084C141.897 65.9637 141.6 66.2293 141.298 66.4793C141.1 66.6459 140.98 66.8647 140.86 67.0887C140.819 67.172 140.798 67.2345 140.866 67.2657C140.923 67.2866 141.006 67.297 141.064 67.2762C141.324 67.1772 141.475 66.8803 141.814 66.948C141.715 67.2501 141.47 67.3803 141.215 67.5157C140.782 67.7397 140.496 68.1043 140.262 68.5157C140.017 68.9532 139.788 69.4011 139.553 69.8439C139.512 69.922 139.532 70.0001 139.616 70.0262C139.678 70.0418 139.772 70.0626 139.819 70.0314C140.189 69.7501 140.553 69.4532 140.923 69.1668C140.933 69.1564 140.98 69.1772 140.996 69.198C141.017 69.2189 141.038 69.2657 141.022 69.2866C140.798 69.7449 140.459 70.1147 140.116 70.4793C139.918 70.6876 139.678 70.8699 139.663 71.1928C139.647 71.3074 139.579 71.3699 139.465 71.3803C138.84 71.5209 138.423 72.0001 137.939 72.3543C137.59 72.6147 137.262 72.8699 136.86 73.047C136.366 73.2709 135.944 73.5991 135.626 74.0626C135.423 74.3543 135.147 74.5939 134.897 74.8491C134.73 75.0209 134.569 75.047 134.553 74.9324C134.543 74.8387 134.595 74.7345 134.626 74.6355C134.631 74.6043 134.657 74.573 134.678 74.5418C134.616 74.5157 134.538 74.4532 134.491 74.4741C134.116 74.6095 133.808 74.8334 133.558 75.1512C133.475 75.2553 133.34 75.3439 133.209 75.3803C133.1 75.4168 133.027 75.3439 133.095 75.2084C133.178 75.047 133.043 74.9897 132.954 75.0418C132.558 75.2814 132.183 75.5522 131.793 75.8022C131.709 75.8543 131.61 75.8751 131.517 75.9116C131.496 75.8074 131.47 75.7032 131.454 75.6043C131.444 75.4949 131.454 75.3855 131.439 75.2814C131.423 75.198 131.345 75.1616 131.272 75.1928C131.142 75.2501 131.017 75.3126 130.897 75.3907C130.501 75.6407 130.131 75.9272 129.72 76.1407C129.267 76.3751 128.834 76.6147 128.449 76.9428C128.09 77.2553 127.657 77.448 127.189 77.5209C126.397 77.6459 125.689 77.9741 124.959 78.2866C123.381 78.9637 121.845 79.7657 120.121 80.0678C119.704 80.1407 119.303 80.3178 118.892 80.4428C118.725 80.4897 118.673 80.6095 118.657 80.7553C118.595 81.3282 118.699 81.9168 118.433 82.4584C118.366 82.6043 118.433 82.7293 118.511 82.8595C118.788 83.3178 118.761 83.823 118.72 84.3282C118.709 84.4689 118.689 84.6459 118.6 84.7293C118.241 85.0782 118.163 85.5418 117.985 85.9689C117.777 86.4584 117.647 86.9949 117.178 87.3386C117.09 87.4064 117.079 87.5991 117.053 87.7345C117.048 87.7709 117.142 87.8647 117.168 87.8595C117.314 87.8178 117.454 87.7761 117.465 87.9949C117.491 88.5001 117.491 89.0001 117.277 89.4793C117.105 89.8595 117.126 90.3074 116.777 90.6407C116.574 90.8386 116.725 91.2918 116.355 91.4584C116.329 91.4741 116.355 91.6668 116.407 91.7501C116.746 92.3699 116.668 93.0157 116.485 93.6355C116.386 93.9845 116.298 94.323 116.277 94.6824C116.267 94.8959 116.204 95.1095 116.126 95.3022C115.808 96.0991 115.579 96.9376 114.985 97.5939C114.897 97.6876 114.886 97.8595 114.876 98.0001C114.871 98.1043 114.767 98.2709 114.97 98.3022C114.991 98.3022 115.032 98.1147 115.069 98.0157C115.079 97.9897 115.105 97.9532 115.131 97.9376C115.183 97.9011 115.225 97.9376 115.241 98.0366C115.251 98.073 115.251 98.1095 115.246 98.1459C115.204 98.3178 115.173 98.4949 115.121 98.6616C115.09 98.7657 115.032 98.8647 114.965 98.9428C114.261 99.7814 113.85 100.771 113.506 101.792C113.449 101.964 113.381 102.13 113.314 102.292C113.303 102.323 113.267 102.344 113.241 102.375C113.209 102.323 113.163 102.276 113.152 102.224C113.105 101.75 113.152 101.292 113.277 100.833C113.35 100.557 113.439 100.276 113.47 99.9949C113.569 99.0314 113.735 98.0834 113.996 97.1459C114.022 97.047 114.006 96.9376 114.001 96.8282C114.001 96.797 113.975 96.7605 113.949 96.7397C113.939 96.7345 113.881 96.7605 113.871 96.7814C113.538 97.4584 113.204 98.1303 112.892 98.8126C112.819 98.9741 112.845 99.1772 112.767 99.3334C112.308 100.229 112.121 101.229 111.663 102.13C111.47 102.511 111.366 102.932 111.225 103.339C111.215 103.359 111.256 103.406 111.282 103.422C111.308 103.432 111.355 103.438 111.381 103.427C111.772 103.287 112.017 102.979 112.251 102.662C112.402 102.458 112.439 102.474 112.616 102.75C112.652 102.807 112.668 102.88 112.704 102.943C112.756 103.037 112.824 103.037 112.86 102.932C112.97 102.62 113.288 102.74 113.496 102.62C113.709 102.495 113.855 102.281 114.131 102.234C114.334 102.198 114.496 102.026 114.668 101.896C115.444 101.313 116.246 100.766 117.136 100.375C117.636 100.162 118.053 99.8074 118.517 99.5366C119.642 98.8855 120.663 98.0991 121.652 97.2657C121.845 97.1043 122.022 96.9116 122.282 96.8647C122.314 96.8595 122.397 96.9532 122.392 96.9741C122.334 97.1199 122.314 97.3074 122.527 97.2136C123.084 96.9741 123.678 96.7866 124.178 96.4272C124.209 96.4064 124.246 96.3959 124.277 96.3803C124.376 96.3334 124.454 96.4116 124.428 96.573C124.402 96.7084 124.34 96.8386 124.308 96.9741C124.293 97.047 124.355 97.0991 124.433 97.073C124.532 97.0418 124.631 96.9897 124.709 96.922C125.121 96.573 125.522 96.2136 125.933 95.8595C126.116 95.698 126.272 95.4897 126.579 95.6668C126.652 95.7084 126.871 95.6043 126.949 95.5105C127.543 94.823 128.428 94.6459 129.163 94.2084C129.303 94.1199 129.506 94.0939 129.678 94.1043C129.944 94.1147 130.163 94.0053 130.402 93.922C130.751 93.8074 131.053 93.6564 131.241 93.3126C131.308 93.1876 131.418 93.0678 131.538 93.0001C131.788 92.8699 132.1 92.8178 132.308 92.6459C132.491 92.4949 132.569 92.2136 132.84 92.1511C132.892 92.1355 132.965 92.1824 133.027 92.198C133.017 92.2293 133.006 92.2605 132.996 92.2918C132.97 92.3751 132.866 92.4741 133.032 92.5366C133.064 92.547 133.1 92.5522 133.137 92.5574C133.616 92.6147 134.058 92.5418 134.47 92.2605C134.673 92.1199 134.918 92.0366 135.142 91.9168C135.246 91.8647 135.298 91.6303 135.246 91.5366C135.152 91.3699 135.064 91.4949 134.991 91.5418C134.803 91.6668 134.626 91.7709 134.397 91.6303C134.173 91.4949 133.793 91.6043 133.725 91.2084C133.715 91.1355 133.642 91.1616 133.558 91.1928C132.845 91.4376 132.131 91.672 131.418 91.9116C131.319 91.948 131.22 92.0053 131.116 92.0105C131.017 92.0157 130.918 91.9636 130.819 91.9324C130.866 91.8907 130.902 91.8334 130.949 91.8074C131.235 91.6564 131.517 91.5001 131.819 91.3751C132.058 91.2761 132.006 91.1303 131.959 90.948C131.918 90.7918 132.064 90.7866 132.152 90.7866C132.277 90.7918 132.48 90.7553 132.392 90.9897C132.355 91.0834 132.334 91.1355 132.423 91.1511C132.491 91.1668 132.574 91.1772 132.626 91.1459C133.1 90.8855 133.626 90.7553 134.121 90.5418C134.6 90.3334 135.147 90.2032 135.694 90.2605C136.069 90.297 136.418 90.2553 136.735 90.0626C137.038 89.8751 137.288 90.0001 137.532 90.1616C137.902 90.4116 138.178 90.7345 138.366 91.1355C138.459 91.3334 138.584 91.4584 138.871 91.4011C139.022 91.3751 139.131 91.6199 139.147 91.8074C139.163 91.9636 139.137 92.1043 138.965 92.1459C138.741 92.2032 138.584 92.3491 138.444 92.5157C138.402 92.5678 138.345 92.6564 138.36 92.6928C138.387 92.7449 138.475 92.7814 138.543 92.7866C138.647 92.797 138.762 92.797 138.855 92.7605C139.048 92.6772 139.121 92.7345 139.048 92.922C138.991 93.0626 138.939 93.1928 139.09 93.297C139.355 93.4793 139.642 93.6251 139.808 93.9272C139.907 94.1043 139.902 94.2553 139.756 94.4064C139.579 94.5886 139.392 94.7553 139.147 94.8491C139.022 94.8959 138.86 94.9532 138.881 95.1199C138.892 95.2136 139.006 95.2918 139.069 95.3751C139.137 95.4689 139.147 95.547 139.105 95.6668C139.027 95.8647 139.006 96.0834 138.944 96.2866C138.892 96.4428 138.715 96.5574 138.84 96.7657C138.871 96.8126 138.782 96.9532 138.72 97.0261C138.61 97.1668 138.475 97.2866 138.36 97.4324C138.298 97.5105 138.241 97.6407 138.366 97.7032C138.444 97.7449 138.574 97.7241 138.663 97.6928C138.762 97.6564 138.845 97.573 138.923 97.5001C139.006 97.4324 139.064 97.4376 139.09 97.5418C139.137 97.7241 139.22 97.7605 139.381 97.6459C139.496 97.5626 139.616 97.4636 139.746 97.4376C139.991 97.3803 139.954 97.5209 139.871 97.6668C139.834 97.7345 139.866 97.8334 139.939 97.8126C140.178 97.7501 140.407 97.6511 140.642 97.5574C140.73 97.5261 140.803 97.5261 140.814 97.6095C140.834 97.7084 140.845 97.8282 140.808 97.9168C140.767 98.0001 140.668 98.0782 140.574 98.1095C140.251 98.2241 140.048 98.4845 139.834 98.7241C139.709 98.8751 139.689 99.047 139.918 99.1616C139.965 99.1876 140.022 99.2814 140.006 99.3178C139.897 99.6095 139.933 99.9741 139.626 100.182C139.34 100.375 139.168 100.63 139.157 100.99C139.152 101.094 139.09 101.193 139.064 101.297C138.871 102.094 138.387 102.646 137.631 102.938C137.152 103.125 136.777 103.38 136.454 103.818C136.006 104.432 135.308 104.787 134.657 105.167C134.038 105.526 133.392 105.854 132.772 106.208C132.272 106.5 131.756 106.75 131.199 106.917C131.058 106.958 131.022 106.891 131.058 106.667C131.074 106.604 131.11 106.505 131.079 106.474C130.98 106.359 130.887 106.469 130.824 106.531C130.699 106.656 130.574 106.792 130.485 106.943C130.402 107.099 130.282 107.12 130.137 107.146C130.064 107.156 129.907 107.136 129.975 107.292C129.991 107.333 130.1 107.333 130.163 107.359C130.23 107.386 130.345 107.438 130.34 107.453C130.282 107.688 130.215 107.922 130.131 108.146C130.116 108.188 130.006 108.229 129.954 108.214C129.6 108.115 129.319 108.307 129.027 108.438C128.793 108.542 128.584 108.641 128.345 108.432C128.23 108.328 128.074 108.427 127.944 108.49C127.558 108.677 127.152 108.839 126.777 109.052C126.366 109.281 125.959 109.5 125.501 109.615C125.376 109.641 125.22 109.719 125.256 109.88C125.267 109.938 125.444 109.953 125.543 109.99C125.642 110.026 125.735 110.083 125.631 110.203C125.433 110.427 125.178 110.547 124.918 110.677C124.334 110.964 123.772 111.287 123.189 111.563C122.636 111.818 122.079 112.068 121.48 112.219C120.34 112.521 119.204 112.854 118.069 113.193C117.855 113.255 117.657 113.307 117.439 113.266C117.402 113.255 117.371 113.24 117.34 113.219C117.293 113.177 117.308 113.109 117.397 113.078C117.928 112.88 118.454 112.625 119.006 112.516C119.475 112.422 119.913 112.313 120.298 112.031C120.506 111.88 120.808 111.953 120.98 111.74C121.022 111.688 121.048 111.625 121.079 111.568C121.017 111.542 120.954 111.511 120.886 111.49C120.855 111.479 120.814 111.479 120.777 111.484C119.371 111.724 117.949 111.927 116.584 112.365C116.345 112.443 116.09 112.495 115.871 112.604C115.34 112.875 114.824 112.745 114.303 112.615C114.215 112.594 114.189 112.406 114.267 112.344C114.407 112.234 114.558 112.136 114.704 112.026C114.73 112.011 114.751 111.979 114.777 111.958C114.715 111.922 114.652 111.854 114.595 111.859C114.032 111.912 113.475 111.979 113.027 112.391C112.928 112.484 112.788 112.391 112.788 112.214C112.788 112.136 112.819 112.042 112.725 112.057C112.444 112.094 112.168 112.162 111.886 112.203C111.725 112.229 111.626 112.328 111.564 112.458C111.178 113.234 110.803 114.011 110.423 114.781C110.064 115.521 109.814 116.323 109.251 116.953C109.204 117.005 109.178 117.083 109.126 117.125C109.074 117.162 108.991 117.193 108.933 117.177C108.881 117.167 108.803 117.094 108.803 117.047C108.793 116.724 108.803 116.401 108.798 116.083C108.798 115.974 108.746 115.958 108.652 116.011C108.491 116.089 108.392 116.052 108.386 115.849C108.381 115.75 108.35 115.646 108.329 115.547C108.261 115.62 108.204 115.698 108.136 115.771C108.116 115.792 108.069 115.818 108.058 115.807C108.027 115.792 107.996 115.755 107.996 115.724C107.996 115.615 107.991 115.505 108.022 115.406C108.423 114.089 108.631 113.63 109.553 111.984C109.584 111.927 109.616 111.844 109.6 111.781C109.59 111.729 109.527 111.677 109.48 111.641C109.454 111.62 109.402 111.615 109.376 111.625C109.314 111.656 109.241 111.693 109.204 111.75C109.064 111.958 108.923 112.167 108.808 112.391C108.657 112.682 108.6 112.568 108.522 112.354C108.501 112.302 108.413 112.271 108.35 112.245C108.189 112.177 108.022 112.12 107.86 112.047C107.699 111.974 107.506 111.787 107.392 111.828C107.209 111.891 107.064 112.094 106.928 112.255C106.72 112.511 106.595 112.818 106.584 113.151C106.574 113.641 106.449 114.057 106.006 114.339C105.892 114.406 105.793 114.552 105.756 114.677C105.6 115.234 105.246 115.703 105.105 116.271C105.006 116.672 104.647 116.964 104.47 117.354C104.277 117.776 104.038 118.182 103.767 118.557C103.558 118.844 103.428 119.203 103.1 119.396C103.043 119.432 102.985 119.49 102.954 119.552C102.84 119.771 102.761 120.016 102.626 120.219C102.491 120.422 102.329 120.656 102.017 120.479C101.965 120.609 101.933 120.75 101.85 120.854C101.397 121.427 101.116 122.078 100.829 122.74C100.652 123.167 100.392 123.563 100.163 123.969C100.095 124.094 99.9802 124.214 100.121 124.339C100.147 124.359 100.293 124.234 100.386 124.177C100.444 124.146 100.511 124.12 100.574 124.094C100.59 124.198 100.621 124.302 100.616 124.406C100.616 124.469 100.579 124.547 100.538 124.594C100.215 124.938 99.8813 125.266 99.6365 125.667C99.5844 125.755 99.4646 125.859 99.3865 125.854C98.949 125.833 98.798 126.172 98.5323 126.401C98.2615 126.641 97.9386 126.802 97.8761 127.198C97.2771 128.042 96.7927 128.969 96.0896 129.745C95.8969 129.958 95.7927 130.24 95.6209 130.474C95.449 130.714 95.4907 130.896 95.7094 131.063C95.6105 131.339 95.7667 131.396 95.975 131.339C96.3552 131.24 96.7302 131.109 97.1052 130.99C97.4334 130.88 97.673 130.662 97.7667 130.333C97.9073 129.833 98.2771 129.479 98.5427 129.057C98.5584 129.031 98.5896 129.016 98.6157 128.995C98.6313 129.063 98.673 129.13 98.6677 129.193C98.6313 129.568 98.3917 129.849 98.2355 130.167C98.1782 130.281 98.0271 130.401 98.1365 130.537C98.1886 130.604 98.3344 130.599 98.4334 130.641C98.5271 130.677 98.548 130.74 98.4855 130.776C98.3396 130.87 98.1469 130.901 98.0532 131.073C98.0375 131.104 98.0167 131.146 98.0271 131.162C98.0427 131.193 98.0844 131.214 98.1157 131.224C98.1834 131.24 98.2563 131.245 98.3292 131.25C98.6157 131.266 98.7563 130.844 99.1 131.005C99.3969 131.151 99.6521 130.912 99.923 130.854C100.235 130.797 100.527 130.63 100.834 130.531C101.11 130.443 101.397 130.406 101.668 130.318C101.939 130.224 102.194 130.073 102.465 129.995C102.985 129.849 103.506 129.682 104.038 129.62C104.756 129.531 105.444 129.344 106.121 129.109C106.334 129.037 106.543 129.021 106.756 129.063C106.788 129.068 106.819 129.099 106.85 129.12C106.814 129.167 106.788 129.224 106.746 129.261C106.699 129.307 106.631 129.339 106.574 129.375C106.631 129.406 106.694 129.469 106.746 129.464C107.73 129.276 108.72 129.089 109.704 128.891C110.334 128.766 110.97 128.63 111.616 128.609C111.725 128.604 111.84 128.615 111.939 128.583C113.121 128.261 114.355 128.261 115.548 128.005C115.689 127.979 115.834 127.953 115.975 127.964C117.386 128.052 118.756 127.74 120.136 127.563C120.282 127.542 120.423 127.516 120.569 127.521C121.824 127.563 123.074 127.333 124.334 127.443C124.761 127.479 125.183 127.484 125.621 127.37C125.954 127.276 126.334 127.328 126.694 127.339C127.668 127.37 128.642 127.422 129.61 127.458C130.006 127.474 130.402 127.521 130.793 127.396C130.913 127.359 131.038 127.479 130.996 127.563C130.965 127.62 130.918 127.708 130.876 127.708C130.308 127.719 129.762 127.927 129.178 127.734C128.923 127.651 128.6 127.677 128.324 127.74C127.965 127.823 127.61 127.797 127.251 127.802C126.1 127.823 124.949 127.792 123.803 127.896C122.663 128 121.517 128.021 120.381 128.156C120.136 128.188 119.881 128.266 119.673 128.391C119.496 128.5 119.72 128.521 119.777 128.563C119.86 128.625 119.959 128.672 119.845 128.787C119.715 128.922 119.543 129.047 119.366 128.979C118.735 128.734 118.183 128.964 117.631 129.219C117.532 129.266 117.459 129.354 117.36 129.391C117.173 129.469 116.913 129.646 117.001 129.193C117.006 129.167 116.913 129.089 116.855 129.083C116.491 129.037 116.142 129.078 115.84 129.328C115.673 129.464 115.485 129.573 115.303 129.672C115.116 129.776 114.928 129.88 114.694 129.755C114.616 129.714 114.485 129.745 114.392 129.776C113.715 130.005 112.991 129.995 112.324 130.271C112.032 130.396 111.699 130.432 111.381 130.484C110.892 130.557 110.527 130.828 110.215 131.193C110.142 131.271 110.152 131.328 110.246 131.349C110.35 131.375 110.454 131.396 110.558 131.406C111.246 131.464 111.907 131.255 112.584 131.198C112.881 130.984 113.215 131.026 113.517 131.136C113.913 131.276 114.267 131.234 114.673 131.167C115.157 131.083 115.663 131.125 116.168 131.047C116.975 130.912 117.808 130.891 118.636 130.875C119.788 130.859 120.928 130.797 122.069 130.656C122.282 130.63 122.501 130.662 122.715 130.656C123.543 130.646 124.366 130.729 125.194 130.589C125.642 130.516 126.126 130.615 126.59 130.641C126.689 130.646 126.725 130.708 126.683 130.771C126.647 130.833 126.6 130.917 126.548 130.927C125.985 131.052 125.423 131.146 124.845 131.141C124.303 131.141 123.761 131.12 123.225 131.12C122.97 131.12 122.715 131.115 122.475 131.177C122.152 131.255 121.829 131.229 121.506 131.25C120.506 131.328 119.501 131.365 118.548 131.734C118.485 131.755 118.444 131.823 118.392 131.87C118.444 131.906 118.496 131.964 118.558 131.979C118.699 132 118.845 132.005 118.985 132.016C119.131 132.026 119.308 131.984 119.413 132.052C120.064 132.464 120.647 132.224 121.251 131.943C121.433 131.859 121.459 131.984 121.413 132.167C121.376 132.302 121.543 132.313 121.626 132.297C121.939 132.229 122.261 132.172 122.553 132.047C123.433 131.672 124.355 131.599 125.293 131.599C125.616 131.599 125.933 131.636 126.251 131.516C126.444 131.448 126.678 131.484 126.897 131.49C126.959 131.49 127.079 131.537 127.079 131.563C127.084 131.682 126.975 131.708 126.881 131.729C126.673 131.781 126.459 131.88 126.256 131.87C125.84 131.849 125.491 132.047 125.11 132.141C125.074 132.146 125.032 132.261 125.048 132.307C125.064 132.359 125.147 132.417 125.199 132.422C125.34 132.432 125.485 132.417 125.626 132.401C125.803 132.386 125.98 132.328 126.157 132.333C127.022 132.349 127.886 132.38 128.751 132.406C128.928 132.412 129.131 132.396 129.256 132.542C129.72 133.057 130.282 132.917 130.86 132.844C131.86 132.719 132.866 132.724 133.845 133.026C134.09 133.099 134.334 133.141 134.584 133.146C135.376 133.172 136.168 133.208 136.965 133.219C137.319 133.219 137.678 133.229 138.032 133.13C138.267 133.068 138.532 133.099 138.782 133.104C138.959 133.109 139.1 133.349 139.324 133.073C139.459 132.901 139.777 133.136 140.022 133.156C140.387 133.177 140.553 133.63 140.97 133.604C141.293 133.589 141.6 133.714 141.913 133.792C142.459 133.938 142.98 134.234 143.579 134.177C143.678 134.172 143.704 134.109 143.657 134.047C143.642 134.021 143.616 133.995 143.584 133.974C143.558 133.953 143.522 133.948 143.491 133.922C143.465 133.901 143.433 133.87 143.428 133.839C143.423 133.823 143.47 133.781 143.496 133.776C143.772 133.729 144.006 133.849 144.121 134.078C143.923 134.391 144.225 134.479 144.376 134.49C144.84 134.511 145.152 134.781 145.496 135.031C145.782 135.234 146.084 135.307 146.319 134.927C146.397 134.802 146.501 134.87 146.6 134.912C146.84 135.011 147.001 135.193 147.163 135.396C147.288 135.563 147.47 135.688 147.626 135.839C147.756 135.964 147.887 136 148.084 136.005C148.376 136.016 148.517 136.344 148.709 136.552C149.314 137.208 149.548 137.255 150.209 136.677C150.407 136.5 150.6 136.604 150.772 136.521C150.866 136.479 150.991 136.359 150.902 136.281C150.61 136.026 150.277 135.807 150.366 135.339C149.933 134.87 149.652 134.271 149.058 133.927C148.345 133.516 147.668 133.037 146.98 132.578C146.866 132.5 146.772 132.38 146.689 132.261C146.663 132.219 146.689 132.115 146.725 132.068C146.762 132.021 146.86 131.969 146.902 131.984C147.267 132.136 147.642 132.271 147.975 132.474C148.709 132.917 149.428 133.396 150.147 133.875C150.48 134.099 150.715 134.417 150.913 134.771C151.11 135.12 151.189 135.505 151.319 135.875C151.454 136.245 151.725 136.557 151.663 136.99C151.652 137.083 151.694 137.219 151.762 137.281C152.241 137.74 152.11 138.266 151.913 138.776C151.824 139 151.788 139.172 151.944 139.37C152.027 139.484 152.126 139.615 152.147 139.745C152.267 140.641 152.418 140.854 151.444 141.261C151.147 141.386 150.86 141.521 150.564 141.651C150.595 141.438 150.616 141.234 150.668 141.031C150.709 140.891 150.657 140.839 150.548 140.813C150.444 140.792 150.34 140.787 150.23 140.787C149.876 140.787 149.751 140.886 149.725 141.188C149.715 141.297 149.699 141.406 149.715 141.511C149.772 141.948 149.616 142.318 149.246 142.516C148.616 142.849 148.725 143.359 148.829 143.886C148.866 144.057 148.918 144.229 148.97 144.396C149.022 144.568 149.131 144.615 149.293 144.552C149.756 144.365 150.215 144.172 150.678 143.99C150.819 143.938 150.788 143.844 150.762 143.745C150.678 143.474 150.584 143.219 150.506 142.948C150.735 142.849 150.954 142.771 151.215 142.781C151.444 142.787 151.621 142.656 151.767 142.479C151.866 142.359 151.918 142.083 152.137 142.229C152.277 142.318 152.084 142.469 152.027 142.583C151.923 142.813 151.788 143.026 151.678 143.255C151.637 143.344 151.579 143.49 151.621 143.547C151.834 143.87 151.678 144.073 151.454 144.292C151.303 144.443 151.288 144.604 151.522 144.714C151.663 144.781 151.715 144.912 151.772 145.047C151.881 145.281 151.808 145.526 151.553 145.521C150.85 145.521 150.522 145.927 150.34 146.526C150.293 146.672 150.199 146.761 150.079 146.849C149.61 147.182 149.178 147.557 148.657 147.823C148.053 148.13 147.459 148.474 146.887 148.844C146.6 149.026 146.288 149.073 145.985 149.156C145.97 149.162 145.897 149.047 145.892 148.984C145.871 148.776 146.006 148.662 146.178 148.578C146.262 148.542 146.288 148.49 146.246 148.406C146.199 148.307 146.116 148.229 146.006 148.245C145.866 148.271 145.725 148.313 145.595 148.365C144.595 148.776 143.512 148.844 142.475 149.099C142.131 149.182 141.819 149.271 141.647 149.667C141.532 149.927 141.168 149.958 140.897 150.042C140.855 150.057 140.782 149.995 140.725 149.969C140.746 149.943 140.767 149.912 140.793 149.88C140.881 149.776 140.991 149.672 141.069 149.552C141.095 149.511 141.074 149.38 141.043 149.365C140.631 149.162 140.756 148.979 141.032 148.766C141.09 148.719 141.1 148.563 141.069 148.479C141.022 148.354 140.887 148.401 140.793 148.432C140.491 148.547 140.163 148.547 139.876 148.734C139.6 148.912 139.272 148.948 138.944 148.974C138.746 148.995 138.673 149.328 138.814 149.5C139.006 149.724 138.996 149.719 138.913 149.797C138.215 150.438 137.387 150.865 136.506 151.177C136.241 151.271 136.475 151.5 136.34 151.563C136.22 151.625 136.053 151.641 135.923 151.615C135.48 151.531 135.069 151.641 134.647 151.755C134.308 151.854 133.98 152.026 133.6 151.969C133.47 151.953 133.314 152 133.189 152.063C132.631 152.333 132.043 152.469 131.444 152.594C131.168 152.651 130.881 152.729 130.626 152.844C129.996 153.136 129.324 153.245 128.657 153.375C128.1 153.49 127.522 153.531 126.959 153.636C126.647 153.698 126.355 153.854 126.038 153.917C125.34 154.063 124.631 154.188 123.928 154.307C123.397 154.391 122.85 154.412 122.334 154.547C121.834 154.677 121.34 154.651 120.84 154.63C120.668 154.625 120.439 154.667 120.402 154.464C120.381 154.375 120.636 154.375 120.777 154.359C121.991 154.219 123.157 153.854 124.35 153.636C125.267 153.469 126.178 153.318 127.084 153.125C127.855 152.958 128.642 152.818 129.366 152.531C130.538 152.068 131.751 151.771 132.954 151.443C133.022 151.427 133.084 151.391 133.147 151.359C133.058 151.328 132.97 151.266 132.881 151.266C132.668 151.266 132.423 151.229 132.246 151.323C131.756 151.573 131.199 151.547 130.699 151.75C130.569 151.802 130.413 151.807 130.293 151.698C130.366 151.646 130.444 151.594 130.522 151.542C130.855 151.313 131.22 151.203 131.621 151.141C132.116 151.063 132.595 150.901 133.079 150.771C133.11 150.761 133.137 150.729 133.168 150.708C133.11 150.677 133.058 150.625 133.001 150.62C132.855 150.604 132.699 150.578 132.569 150.62C131.819 150.87 131.032 150.922 130.262 151.068C130.183 151.078 130.017 151.104 130.116 150.912C130.183 150.776 130.09 150.698 129.985 150.708C128.631 150.859 127.282 151.021 125.933 151.177C125.897 151.182 125.86 151.182 125.824 151.193C124.173 151.651 122.449 151.771 120.782 152.188C120.418 152.281 120.038 152.453 119.621 152.307C119.241 152.172 118.85 152.365 118.454 152.328C117.152 152.193 115.881 152.464 114.616 152.698C114.215 152.771 113.845 152.781 113.454 152.755C113.59 152.448 113.923 152.474 114.173 152.365C114.402 152.266 114.647 152.193 114.881 152.104C114.892 152.099 114.907 152.052 114.902 152.042C114.876 152.021 114.845 151.99 114.814 151.984C114.704 151.984 114.584 151.964 114.496 152C113.902 152.255 113.282 151.984 112.678 152.125C112.121 152.255 111.553 152.333 110.985 152.406C110.777 152.432 110.553 152.417 110.34 152.38C110.11 152.344 109.845 152.479 109.657 152.25C109.85 152.104 110.074 152.198 110.282 152.172C110.673 152.115 111.069 152.089 111.444 152C112.324 151.787 113.241 151.979 114.116 151.724C114.418 151.641 114.761 151.688 115.084 151.719C115.694 151.771 116.282 151.787 116.892 151.604C117.543 151.417 118.23 151.344 118.907 151.281C119.272 151.25 119.61 151.151 119.954 151.057C120.751 150.844 121.553 150.656 122.366 150.521C122.579 150.484 122.788 150.427 122.996 150.359C123.371 150.24 123.746 150.13 124.152 150.188C124.418 150.224 124.647 150.12 124.871 150.005C125.043 149.917 124.913 149.87 124.845 149.807C124.798 149.766 124.761 149.708 124.725 149.656C124.756 149.641 124.788 149.615 124.819 149.609C125.038 149.573 125.251 149.563 125.444 149.698C125.595 149.807 125.767 149.844 125.954 149.833C126.225 149.818 126.293 149.818 126.381 149.479C126.491 149.052 126.496 149.042 126.845 149.047C127.168 149.052 127.517 148.948 127.803 149.12C128.173 149.349 128.485 149.224 128.824 149.089C129.022 149.011 129.225 148.953 129.433 148.891C129.845 148.766 130.277 148.688 130.668 148.521C131.668 148.099 132.72 147.938 133.782 147.828C134.079 147.797 134.319 147.625 134.61 147.599C134.678 147.594 134.741 147.563 134.808 147.542C134.756 147.521 134.699 147.484 134.642 147.479C134.038 147.432 133.433 147.495 132.834 147.375C132.73 147.354 132.61 147.359 132.512 147.391C131.413 147.755 130.23 147.636 129.126 147.984C128.334 147.948 127.574 148.287 126.777 148.188C126.371 148.141 126.006 148.333 125.621 148.417C124.886 148.578 124.152 148.766 123.392 148.646C123.355 148.641 123.303 148.599 123.303 148.589C123.314 148.537 123.329 148.474 123.371 148.443C123.423 148.396 123.496 148.38 123.564 148.349C124.22 148.005 124.944 147.995 125.652 147.906C126.647 147.776 127.647 147.682 128.642 147.552C129.543 147.438 130.366 147.078 131.152 146.641C131.277 146.573 131.413 146.453 131.532 146.464C132.277 146.526 132.907 146.104 133.61 145.99C133.84 145.953 134.017 145.927 134.22 146.047C134.387 146.151 134.61 146.151 134.715 146C134.834 145.818 134.902 145.714 135.084 145.917C135.131 145.969 135.194 146.021 135.256 146.042C135.407 146.089 135.772 145.917 135.767 145.807C135.756 145.708 135.496 145.318 135.428 145.313C135.246 145.302 135.064 145.318 134.887 145.281C134.512 145.214 134.782 145.13 134.871 145C134.996 144.823 134.845 144.526 134.61 144.422C134.517 144.375 134.407 144.359 134.319 144.302C134.282 144.276 134.282 144.182 134.282 144.115C134.282 144.089 134.319 144.057 134.35 144.042C134.621 143.896 134.913 144 135.194 143.964C135.267 143.958 135.334 143.927 135.402 143.906C135.329 143.833 135.256 143.766 135.194 143.693C135.105 143.594 135.131 143.464 135.235 143.432C135.433 143.365 135.647 143.344 135.855 143.302C135.944 143.281 135.975 143.219 135.939 143.136C135.907 143.073 135.881 142.984 135.829 142.964C135.699 142.917 135.553 142.886 135.413 142.88C134.913 142.859 134.407 142.875 133.907 142.833C133.308 142.792 132.788 143.021 132.262 143.245C132.23 143.261 132.204 143.287 132.173 143.302C132.235 143.328 132.298 143.38 132.355 143.375C132.564 143.354 132.772 143.297 132.985 143.287C133.079 143.281 133.084 143.359 133.043 143.438C132.913 143.656 132.803 143.875 132.491 143.865C132.267 143.859 132.058 143.922 131.913 144.109C132.012 144.557 131.6 144.458 131.402 144.589C131.371 144.609 131.334 144.63 131.303 144.63C130.501 144.677 129.772 144.964 129.032 145.24C128.564 145.417 128.079 145.552 127.6 145.698C126.98 145.88 126.376 146.104 125.767 146.307C125.392 146.427 125.001 146.438 124.788 146.839C124.751 146.906 124.564 146.979 124.511 146.948C124.23 146.766 123.965 146.938 123.709 146.979C123.465 147.011 123.23 147.136 122.991 147.214C122.85 147.261 122.808 147.156 122.782 147.047C122.746 146.922 122.636 146.787 122.819 146.682C122.881 146.651 122.944 146.615 123.011 146.589C123.11 146.547 123.215 146.521 123.314 146.479C124.371 146.031 125.459 145.682 126.548 145.323C127.022 145.167 127.465 144.917 127.928 144.714C128.017 144.677 128.032 144.641 128.017 144.563C128.006 144.511 127.84 144.375 127.767 144.406C127.668 144.448 127.569 144.495 127.47 144.537C127.043 144.708 126.631 144.969 126.136 144.875C125.032 145.188 123.886 145.339 122.808 145.761C122.543 145.865 122.267 145.953 122.001 146.057C121.767 146.156 121.793 145.948 121.735 145.844C121.689 145.761 121.59 145.677 121.678 145.552C121.751 145.443 121.689 145.313 121.584 145.349C121.204 145.49 120.788 145.412 120.428 145.542C119.928 145.729 119.428 145.651 118.928 145.646C118.465 145.636 117.996 145.656 117.569 145.396C117.433 145.318 117.048 145.688 117.084 145.859C117.09 145.906 117.173 145.979 117.215 145.979C117.532 145.958 117.86 146.052 118.168 145.901C118.517 145.734 118.876 145.844 119.225 145.906C119.256 145.912 119.282 145.948 119.314 145.969C119.282 145.99 119.256 146.021 119.225 146.026C118.73 146.094 118.235 146.162 117.735 146.219C117.282 146.276 116.803 146.094 116.366 146.38C116.267 146.448 116.079 146.401 115.939 146.38C115.178 146.287 114.439 146.401 113.715 146.625C113.616 146.656 113.459 146.698 113.413 146.651C113.147 146.386 112.881 146.578 112.605 146.604C112.163 146.646 111.788 146.875 111.376 146.969C110.985 147.057 110.626 147.125 110.303 147.391C110.147 147.521 109.902 147.537 109.694 147.594C109.564 147.636 109.381 147.62 109.381 147.813C109.376 147.912 109.433 148.016 109.475 148.109C109.543 148.266 109.522 148.401 109.35 148.443C108.413 148.698 107.475 148.938 106.538 149.182C106.084 149.089 105.699 149.354 105.282 149.438C104.798 149.537 104.35 149.792 103.834 149.823C103.636 149.833 103.392 149.927 103.256 150.068C103.095 150.234 102.923 150.302 102.709 150.359C102.402 150.448 102.11 150.594 101.814 150.724C101.709 150.771 101.631 150.87 101.668 150.979C101.694 151.073 101.767 151.177 101.845 151.234C102.001 151.339 102.194 151.349 102.366 151.292C102.683 151.188 102.996 151.146 103.324 151.203C103.386 151.214 103.444 151.276 103.501 151.313C103.449 151.354 103.397 151.422 103.334 151.427C102.944 151.474 102.59 151.651 102.189 151.688C101.819 151.724 101.418 151.807 101.09 152.089C100.918 152.24 100.631 152.333 100.397 152.333C99.8917 152.328 99.5219 152.646 99.0844 152.787C99.0375 152.802 98.9907 152.891 98.9802 152.953C98.9594 153.099 99.0844 153.125 99.1834 153.141C99.3292 153.162 99.475 153.193 99.6157 153.177C100.215 153.104 100.814 153.016 101.413 152.927C101.636 152.896 101.845 152.901 102.001 153.094C102.027 153.13 102.032 153.245 102.022 153.25C101.788 153.328 101.548 153.443 101.308 153.469C100.595 153.547 99.8761 153.615 99.1573 153.63C98.7823 153.641 98.4542 153.698 98.1521 153.932C97.9855 154.063 97.7875 154.162 97.5948 154.255C97.4698 154.318 97.3188 154.391 97.1938 154.375C96.1834 154.266 95.1886 154.537 94.1782 154.458C93.8552 154.432 93.5375 154.432 93.2198 154.333C93.0167 154.271 92.798 154.234 92.5844 154.229C91.4646 154.188 90.3917 153.875 89.3136 153.609C88.9698 153.526 88.6365 153.38 88.3136 153.229C87.6313 152.906 86.9698 152.537 86.2823 152.229C85.9438 152.073 85.6886 151.823 85.4073 151.604C85.1417 151.396 84.8865 151.245 84.5375 151.255C83.3969 151.287 82.3396 150.969 81.3396 150.438C80.9855 150.25 80.6209 150.12 80.2042 150.146C80.0271 150.156 79.8552 150.109 79.7719 149.901C79.7198 149.776 79.5948 149.849 79.5011 149.833C79.0792 149.766 78.6417 149.74 78.3396 149.375C78.3032 149.333 78.2927 149.24 78.3084 149.182C78.3188 149.125 78.3761 149.037 78.4282 149.031C78.6 149.005 78.7823 149.016 78.9594 148.995C79.0219 148.99 79.1052 148.943 79.1261 148.896C79.173 148.787 79.1313 148.677 79.0323 148.625C78.7823 148.5 78.548 148.245 78.2355 148.406C77.9282 148.563 77.6782 148.443 77.4334 148.287C77.2563 148.167 77.1052 147.995 76.9125 147.906C76.6469 147.781 76.3448 147.745 76.1105 147.99C75.7511 148.365 75.3448 148.63 74.8032 148.651C74.7042 148.656 74.6052 148.734 74.5063 148.781C73.6209 149.255 72.7407 149.74 71.8448 150.198C71.0167 150.62 70.1677 151.011 69.3292 151.417C69.074 151.542 68.8032 151.646 68.5584 151.797C68.3657 151.917 68.1834 152 67.9542 151.964C67.5427 151.901 67.1782 152.073 66.8084 152.208C65.4907 152.688 64.1886 153.214 62.8605 153.646C61.6677 154.031 60.449 154.333 59.2355 154.662C58.475 154.865 57.7094 155.047 56.9386 155.219C56.2771 155.365 55.6157 155.521 54.9334 155.537C54.4646 155.547 54.0323 155.729 53.5532 155.745C53.0219 155.761 52.4959 155.912 51.9698 155.995C51.824 156.016 51.6782 156.021 51.5375 156.026C49.4855 156.083 47.4334 156.115 45.3813 155.984C44.699 155.943 44.0115 155.901 43.3292 155.875C42.8605 155.854 42.4073 155.755 41.949 155.651C41.4282 155.531 40.8813 155.604 40.3761 155.328C40.1521 155.208 39.8188 155.24 39.5323 155.333C39.0375 155.505 38.5532 155.464 38.0636 155.281C37.725 155.151 37.3552 155.115 37.0063 155.214C36.7459 155.292 36.5167 155.302 36.2875 155.156C35.9386 154.938 35.548 154.912 35.1521 154.88C34.8552 154.859 34.574 154.969 34.3032 154.943C34.074 154.922 33.8761 154.682 33.6417 154.62C33.3292 154.542 33.0011 154.547 32.6782 154.511C32.4646 154.49 32.225 154.521 32.0427 154.432C31.0323 153.948 29.9177 153.792 28.8865 153.401C27.8188 153.005 26.699 152.693 25.7198 152.063C25.4802 151.912 25.2302 151.745 24.9282 151.755C24.6157 151.771 24.3761 151.63 24.1365 151.464C24.048 151.401 23.9438 151.292 23.8657 151.307C23.3969 151.401 23.1469 151.068 22.8292 150.844C22.449 150.573 22.048 150.333 21.6313 150.115C21.0636 149.823 20.6 149.344 19.9646 149.162C19.8136 149.12 19.7927 148.948 19.7875 148.802C19.7875 148.682 19.7355 148.594 19.6105 148.583C19.475 148.568 19.4177 148.656 19.4073 148.771C19.3865 149.162 19.3396 149.557 19.4177 149.953C19.6782 151.302 19.6938 152.667 19.6209 154.031C19.5948 154.568 19.5063 155.109 19.6105 155.646C19.6261 155.745 19.5948 155.854 19.5844 155.958C19.5375 156.422 19.4802 156.891 19.4438 157.354C19.3917 158 19.3605 158.641 19.1573 159.271C18.8813 160.125 18.8761 161.042 18.5896 161.896C18.3188 162.714 18.1105 163.542 18.0115 164.406C17.949 164.969 17.7875 165.526 17.7042 166.099C17.6573 166.406 17.5011 166.708 17.3657 167C17.1834 167.391 16.9959 167.781 16.7719 168.151C16.5063 168.583 16.2771 169.026 16.1938 169.531C16.0688 170.287 15.5063 170.698 14.9073 171.021C14.3761 171.302 13.7771 171.464 13.2094 171.693C13.0584 171.75 12.9386 171.693 12.798 171.656C12.1782 171.484 11.5636 171.313 10.9021 171.339C9.80316 171.386 8.98024 170.813 8.30837 170.016C7.79275 169.412 7.33962 168.724 7.13129 167.969C6.91775 167.214 6.64691 166.474 6.48025 165.703C6.1417 164.162 5.88129 162.609 5.65212 161.047C5.64691 161.016 5.6365 160.979 5.6417 160.943C5.699 159.896 5.46462 158.865 5.55837 157.818C5.62608 157.063 5.62087 156.302 5.64691 155.547C5.68858 154.323 5.84483 153.115 6.14691 151.922C6.324 151.229 6.36045 150.505 6.53233 149.802C7.00629 147.849 7.54275 145.917 8.31879 144.063C8.37608 143.927 8.42295 143.792 8.48545 143.667C8.99066 142.672 9.48024 141.672 10.0063 140.693C10.1469 140.427 10.1573 140.214 9.98025 140.005C9.00108 138.849 8.15733 137.599 7.33962 136.333C6.25108 134.636 5.24587 132.886 4.42295 131.047C3.80316 129.672 3.23545 128.271 2.699 126.859C2.36045 125.958 2.08962 125.026 1.87087 124.083C1.58441 122.859 1.25108 121.651 1.08441 120.406C0.922953 119.234 0.787537 118.057 0.662537 116.88C0.563578 115.917 0.480244 114.948 0.417745 113.984C0.360453 113.052 0.323995 112.115 0.292745 111.182C0.271911 110.432 0.303163 109.682 0.230245 108.922C0.146912 108.068 0.225037 107.193 0.266704 106.328C0.334413 104.745 0.407329 103.162 0.511495 101.578C0.579203 100.609 0.803162 99.6668 0.99587 98.7136C1.30316 97.2032 1.69899 95.7136 2.12608 94.2345C2.31358 93.5782 2.49587 92.922 2.7042 92.2761C2.79275 92.0053 2.8865 91.7345 3.11045 91.5261C3.34483 91.3074 3.56358 91.0626 3.75108 90.797C4.29275 90.0209 5.10524 89.7397 5.96983 89.6251C6.8865 89.5105 7.79275 89.6928 8.5167 90.2761C8.98545 90.6564 9.30316 91.2189 9.3917 91.8439C9.4542 92.3282 9.61566 92.8126 9.3865 93.323C9.27712 93.573 9.31879 93.8907 9.29795 94.1772C9.24587 95.1147 9.20941 96.047 9.1417 96.9845C9.11566 97.3751 9.09483 97.7657 8.96462 98.1511C8.85524 98.4845 8.87608 98.8647 8.85525 99.2241C8.80837 99.9064 8.86566 100.609 8.70941 101.266C8.53754 102.016 8.5167 102.761 8.45941 103.511C8.39691 104.302 8.36045 105.094 8.36045 105.891C8.35524 106.531 8.44379 107.177 8.4542 107.823C8.45941 108.469 8.40733 109.115 8.574 109.755C8.60524 109.891 8.5792 110.042 8.5792 110.188C8.58441 110.688 8.51149 111.193 8.69379 111.682C8.73024 111.776 8.70941 111.896 8.7042 112.005C8.6417 113.162 8.8917 114.287 9.05837 115.417C9.33441 117.297 9.65212 119.172 10.0636 121.026C10.3813 122.495 10.6782 123.974 11.2198 125.386C11.2823 125.547 11.3032 125.729 11.3396 125.901C11.5271 126.755 11.8084 127.552 12.4073 128.224C12.9177 128.792 13.2146 129.495 13.5636 130.162C13.7875 130.578 14.0167 130.979 14.3865 131.292C14.6938 131.552 14.8709 131.912 15.0636 132.261C15.2355 132.573 15.4021 132.906 15.6417 133.162C16.4802 134.068 17.1469 135.089 17.798 136.12C18.5219 137.255 19.423 138.224 20.4073 139.125C20.7771 139.458 21.199 139.761 21.3657 140.266C21.8761 140.677 22.0323 141.37 22.574 141.75C22.6313 141.792 22.6938 141.849 22.7146 141.912C23.0948 142.953 24.0584 143.479 24.7771 144.219C25.1521 144.599 25.6313 144.88 26.0167 145.255C26.4959 145.724 27.0792 145.995 27.6782 146.234C28.1782 146.432 28.699 146.583 29.1938 146.792C29.5532 146.948 29.9073 147.12 30.2563 147.297C30.9907 147.662 31.7719 147.958 32.5636 148.182C33.0115 148.307 33.4542 148.438 33.8917 148.599C35.2094 149.089 36.5636 149.417 37.9646 149.552C38.3552 149.589 38.7459 149.672 39.1365 149.734C39.3136 149.761 39.4907 149.802 39.6677 149.807C41.2511 149.891 42.8344 150.031 44.4177 150.026C45.3448 150.026 46.2823 149.917 47.2146 149.922C47.3188 149.922 47.423 149.88 47.5323 149.854C48.0427 149.734 48.0948 149.646 47.9959 149.115C47.8136 148.125 47.6469 147.136 47.4282 146.156C47.2407 145.344 47.2563 144.516 47.1365 143.703C46.9802 142.641 46.949 141.557 46.8709 140.484C46.85 140.198 46.8552 139.906 46.8605 139.62C46.8761 139.078 46.9282 138.542 46.7823 138.005C46.7459 137.875 46.7667 137.719 46.7771 137.578C46.8709 135.344 46.949 133.109 47.074 130.875C47.1521 129.406 47.3709 127.948 47.6365 126.5C47.7875 125.688 47.8761 124.865 48.0271 124.052C48.1573 123.349 48.3292 122.651 48.5011 121.958C48.7771 120.807 49.0688 119.662 49.3552 118.511C49.6417 117.365 49.9438 116.224 50.35 115.109C50.6157 114.37 50.7927 113.599 51.048 112.849C51.7615 110.745 52.6209 108.693 53.5115 106.656C53.9855 105.568 54.4646 104.484 54.9646 103.412C55.1782 102.958 55.449 102.531 55.6834 102.083C56.0896 101.323 56.4542 100.537 56.8917 99.797C57.5271 98.7136 58.1938 97.6459 58.8813 96.5886C59.548 95.5626 60.3344 94.6251 61.173 93.7345C61.7615 93.1043 62.35 92.4636 63.1834 92.1303C63.2823 92.0939 63.3657 92.0157 63.4438 91.9428C63.9959 91.422 64.6469 91.4584 65.2563 91.7293C65.8448 91.9897 66.4959 92.0991 67.0271 92.4897C67.1313 92.5678 67.3032 92.5939 67.4386 92.5834C68.1052 92.5314 68.6105 92.8855 69.1209 93.2241C69.5063 93.4793 69.8657 93.7814 70.2355 94.073C70.35 94.1616 70.449 94.2657 70.548 94.3699C71.3865 95.2345 71.9542 96.2814 72.4594 97.3543C72.7146 97.8959 72.824 98.5157 72.949 99.1095C73.2407 100.511 73.5063 101.922 73.7823 103.328C73.8032 103.432 73.8396 103.537 73.8396 103.641C73.7927 104.792 74.0375 105.932 73.9125 107.089C73.8344 107.802 73.85 108.526 73.8136 109.245C73.798 109.641 73.8032 110.037 73.6834 110.422C73.6417 110.557 73.6105 110.714 73.6417 110.839C73.7094 111.099 73.6521 111.323 73.5948 111.573C73.3761 112.552 73.199 113.542 73.0011 114.526C73.1209 115.188 72.85 115.781 72.6834 116.396C72.5532 116.88 72.548 117.386 72.3813 117.87C72.2198 118.339 72.173 118.844 72.0636 119.333C72.0323 119.469 71.9855 119.609 71.9125 119.729C71.2823 120.787 70.9855 121.979 70.4959 123.094C70.3709 124.068 69.949 124.948 69.6521 125.87C69.3761 126.719 69.2407 127.615 68.8761 128.443C68.798 128.63 68.8344 128.854 68.8084 129.068C68.5011 129.203 68.6469 129.547 68.4698 129.771C68.3552 129.917 68.3657 130.151 68.3188 130.349ZM25.35 151.151C25.1782 150.844 24.85 150.802 24.5532 150.714C24.5219 150.703 24.4855 150.714 24.4542 150.729C24.3605 150.761 24.3657 150.802 24.4646 150.854C24.7459 151.011 25.0063 151.203 25.35 151.151C25.7823 151.568 26.1782 151.755 26.8344 151.87C26.8552 152.052 27.0219 152.052 27.1469 152.109C27.4073 152.229 27.6938 152.313 27.9125 152.484C28.4802 152.932 29.1 153.12 29.8084 153.083C30.1313 153.537 30.6157 153.563 31.1105 153.552C31.1417 153.547 31.1677 153.511 31.199 153.49C31.173 153.469 31.1521 153.432 31.1261 153.427C30.673 153.344 30.2771 153.083 29.8084 153.083C29.7719 153.031 29.7302 152.969 29.6782 152.932C29.0532 152.531 27.7875 152.057 26.8344 151.87C26.8292 151.833 26.8292 151.792 26.8084 151.776C26.3709 151.453 25.923 151.162 25.35 151.151ZM119.241 110.99C119.954 111.151 120.631 110.932 121.329 110.854C121.928 110.787 122.397 110.542 122.746 110.063C123.256 110.021 123.678 109.755 124.121 109.531C124.209 109.49 124.288 109.375 124.173 109.276C124.1 109.214 123.97 109.125 123.918 109.151C123.532 109.339 123.157 109.542 122.793 109.766C122.735 109.802 122.756 109.958 122.746 110.063C122.501 110.052 122.261 110.042 122.017 110.047C121.913 110.047 121.756 110.073 121.725 110.13C121.569 110.458 121.277 110.427 120.996 110.443C120.61 110.464 120.261 110.651 119.86 110.651C119.657 110.651 119.366 110.734 119.241 110.99C118.959 110.984 118.683 110.979 118.397 111.005C118.267 111.021 118.147 111.12 118.027 111.188C118.001 111.198 117.98 111.25 117.985 111.266C118.001 111.292 118.043 111.333 118.064 111.328C118.439 111.245 118.808 111.156 119.173 111.063C119.199 111.057 119.225 111.016 119.241 110.99ZM130.735 105.875C130.152 105.948 129.668 106.266 129.152 106.5C128.876 107.011 128.392 107.089 127.886 107.172C127.683 107.203 127.496 107.339 127.319 107.458C127.256 107.505 127.215 107.656 127.235 107.734C127.267 107.865 127.444 107.865 127.496 107.797C127.642 107.599 127.803 107.641 128.022 107.63C128.282 107.615 128.527 107.406 128.788 107.292C129.538 106.958 130.256 106.578 130.735 105.875C130.985 105.886 131.23 105.854 131.475 105.901C131.975 106 132.381 105.818 132.767 105.531C132.845 105.474 132.866 105.412 132.798 105.38C132.741 105.354 132.657 105.339 132.605 105.359C132.407 105.443 132.22 105.547 132.022 105.63C131.959 105.662 131.887 105.682 131.819 105.677C131.735 105.667 131.704 105.609 131.73 105.542C131.798 105.386 131.788 105.214 131.584 105.323C131.293 105.479 130.855 105.453 130.735 105.875ZM123.553 106.63C123.017 106.74 122.423 106.682 122.043 107.229C121.975 107.328 121.803 107.365 121.668 107.412C121.298 107.537 120.928 107.646 120.616 107.917C120.465 108.052 120.241 108.136 120.032 108.172C119.532 108.261 119.142 108.594 118.673 108.74C118.475 108.802 118.308 108.964 118.131 109.083C118.131 109.083 118.142 109.136 118.163 109.146C118.183 109.167 118.225 109.198 118.251 109.188C118.459 109.141 118.668 109.094 118.866 109.026C119.272 108.886 119.673 108.74 120.069 108.583C121.095 108.172 122.11 107.724 123.064 107.156C123.261 107.031 123.522 106.927 123.553 106.63C123.704 106.677 123.803 106.859 124.017 106.719C124.251 106.563 124.506 106.432 124.756 106.292C125.095 106.104 125.439 105.922 125.777 105.729C125.834 105.693 125.886 105.62 125.892 105.557C125.897 105.516 125.824 105.443 125.767 105.427C125.605 105.37 125.454 105.354 125.345 105.162C125.235 104.974 125.074 104.995 124.907 105.125C124.725 105.271 124.136 105.547 123.949 105.62C123.756 105.693 123.485 105.698 123.423 105.922C123.386 106.073 123.496 106.261 123.532 106.427C123.548 106.5 123.543 106.557 123.553 106.63ZM138.595 99.7293C138.371 99.6928 138.178 99.7657 137.985 99.8699C137.913 99.9116 137.845 99.8907 137.808 99.8126C137.798 99.7918 137.829 99.7449 137.85 99.7241C138.267 99.3282 138.683 98.9376 139.1 98.547C139.178 98.4741 139.267 98.4064 139.329 98.323C139.381 98.2605 139.543 98.1876 139.381 98.0886C139.34 98.0574 139.241 98.0782 139.183 98.1095C138.808 98.323 138.564 98.7189 138.209 98.9376C137.272 99.5209 136.475 100.302 135.506 100.844C135.35 100.927 135.366 101.068 135.574 101.115C135.605 101.125 135.652 101.172 135.652 101.188C135.558 101.458 135.61 101.578 135.913 101.448C136.069 101.38 136.069 101.495 136.1 101.594C136.194 101.917 136.22 101.932 136.392 101.813C137.038 101.365 137.689 100.917 138.251 100.359C138.439 100.172 138.59 100 138.595 99.7293C138.819 99.7866 139.001 99.7293 139.147 99.5366C139.204 99.4584 139.215 99.4064 139.137 99.3595C139.105 99.3439 139.069 99.3334 139.043 99.3386C138.819 99.3907 138.652 99.5001 138.595 99.7293ZM110.235 137.662C109.949 137.672 109.574 137.599 109.459 137.88C109.298 138.292 108.928 138.177 108.673 138.323C108.595 138.37 108.527 138.365 108.496 138.276C108.392 137.969 108.189 138.042 107.985 138.141C107.845 138.208 107.709 138.208 107.569 138.167C107.538 138.156 107.501 138.125 107.491 138.099C107.48 138.073 107.506 138.037 107.527 138.011C107.636 137.849 107.808 137.797 107.975 137.729C108.605 137.474 109.225 137.214 109.855 136.953C109.949 136.912 109.97 136.865 109.902 136.823C109.871 136.807 109.834 136.792 109.803 136.792C109.663 136.797 109.511 136.787 109.376 136.813C108.725 136.948 108.121 137.333 107.413 137.162C107.329 137.141 107.22 137.24 107.121 137.287C106.959 137.359 106.793 137.5 106.636 137.49C106.168 137.458 105.819 137.75 105.423 137.901C105.303 137.953 105.194 138.063 105.105 138.167C105.048 138.234 105.319 138.339 105.553 138.297C105.725 138.266 105.897 138.198 106.069 138.156C106.209 138.125 106.35 138.115 106.48 138.208C106.6 138.292 106.788 138.344 106.824 138.453C106.886 138.625 106.652 138.594 106.558 138.672C106.267 138.938 105.965 139.198 105.553 139.266C105.543 139.271 105.532 139.323 105.538 139.328C105.564 139.349 105.6 139.38 105.626 139.38C105.84 139.359 106.064 139.359 106.261 139.297C106.548 139.208 106.746 139.354 106.959 139.479C107.043 139.531 107.043 139.604 106.965 139.662C106.845 139.745 106.725 139.818 106.605 139.896C106.48 139.984 106.407 140.109 106.428 140.261C106.459 140.49 106.616 140.375 106.746 140.38C107.574 140.422 108.392 140.307 109.204 140.177C109.657 140.109 110.058 140.162 110.402 140.448C110.647 140.651 110.897 140.714 111.199 140.63C111.371 140.583 111.564 140.5 111.72 140.537C112.282 140.667 112.788 140.427 113.314 140.344C113.626 140.292 113.918 140.115 114.225 140.005C114.423 139.938 114.631 139.87 114.84 139.823C114.892 139.813 114.959 139.88 115.022 139.917C115.022 139.917 115.001 139.979 114.98 140C114.704 140.287 114.423 140.563 114.147 140.849C114.116 140.886 114.121 140.958 114.11 141.016C114.178 141.021 114.261 141.063 114.308 141.037C114.683 140.818 115.183 140.969 115.511 140.62C115.543 140.583 115.657 140.583 115.699 140.615C115.996 140.823 116.34 140.662 116.647 140.761C116.735 140.787 116.767 140.844 116.735 140.922C116.657 141.099 116.715 141.198 116.897 141.12C117.272 140.958 117.501 140.604 117.819 140.38C118.147 140.151 118.444 139.922 118.61 139.552C118.678 139.396 118.819 139.37 118.959 139.354C119.308 139.313 119.444 139.125 119.397 138.781C119.392 138.74 119.491 138.677 119.538 138.625C119.735 138.396 119.777 138.188 119.454 138.026C119.386 137.99 119.392 137.917 119.475 137.859C119.558 137.797 119.647 137.714 119.746 137.698C120.189 137.609 120.532 137.422 120.788 137.026C120.949 136.776 121.277 136.75 121.564 136.719C121.761 136.693 121.715 137.047 121.959 136.984C122.168 136.932 122.386 136.917 122.595 136.891C122.788 136.865 122.939 136.771 123.043 136.615C123.121 136.495 123.157 136.354 123.303 136.287C123.392 136.245 123.413 136.177 123.35 136.146C123.293 136.109 123.22 136.089 123.152 136.094C123.011 136.094 122.86 136.099 122.725 136.136C122.157 136.276 121.595 136.323 121.048 136.042C120.902 135.969 120.782 136.052 120.642 136.083C120.168 136.208 119.699 136.49 119.204 136.136C119.152 136.099 119.058 136.115 118.991 136.125C118.439 136.245 117.876 136.344 117.324 136.495C116.704 136.662 116.095 136.875 115.475 137.057C115.261 137.12 115.392 137.271 115.366 137.386C115.36 137.417 115.324 137.443 115.303 137.469C115.157 137.646 115.074 137.625 114.907 137.365C114.876 137.318 114.814 137.255 114.777 137.255C114.6 137.276 114.428 137.318 114.256 137.354C113.204 137.578 112.178 137.917 111.1 138.021C110.871 138.042 110.86 138.037 110.985 137.698C111.032 137.573 111.022 137.49 110.902 137.484C110.663 137.484 110.402 137.375 110.235 137.662ZM118.079 142.969C118.017 143.057 117.923 143.136 117.892 143.234C117.855 143.349 117.913 143.511 117.855 143.609C117.767 143.766 117.579 143.818 117.397 143.854C117.189 143.901 116.991 144.021 116.782 144.026C116.48 144.042 116.22 144.094 115.985 144.292C115.886 144.375 115.715 144.38 115.579 144.406C115.261 144.469 114.944 144.531 114.626 144.573C114.355 144.609 114.157 144.755 113.991 144.948C113.954 144.99 113.944 145.063 113.939 145.12C113.939 145.13 113.996 145.167 114.027 145.167C114.173 145.172 114.314 145.172 114.459 145.172C114.668 145.177 114.845 144.974 115.074 145.104C115.777 145.49 116.47 145.136 117.163 145.052C117.293 145.037 117.288 144.75 117.459 144.823C117.793 144.953 118.095 144.818 118.413 144.776C118.548 144.755 118.694 144.787 118.834 144.802C118.855 144.802 118.897 144.854 118.892 144.87C118.881 144.901 118.85 144.932 118.819 144.943C118.751 144.969 118.678 144.969 118.61 144.99C118.553 145.016 118.506 145.057 118.449 145.089C118.48 145.109 118.511 145.136 118.543 145.146C119.194 145.266 119.845 145.307 120.392 144.859C120.642 144.656 120.913 144.797 121.168 144.703C121.329 144.646 121.366 144.87 121.439 144.984C121.527 145.12 121.683 145.115 121.824 145.136C122.386 145.219 122.949 145.021 123.511 145.099C124.48 144.833 125.449 144.573 126.413 144.302C126.579 144.255 126.741 144.162 126.892 144.068C127.001 144 126.985 143.901 126.86 143.854C126.668 143.781 126.642 143.651 126.814 143.568C127.225 143.359 127.647 143.12 128.09 143.016C129.017 142.802 129.834 142.359 130.626 141.875C131.038 141.62 131.444 141.427 131.923 141.412C132.298 141.406 132.616 141.25 132.918 141.052C132.944 141.031 132.954 140.995 132.975 140.969C132.913 140.948 132.84 140.901 132.782 140.912C132.683 140.938 132.595 141.016 132.491 141.042C132.433 141.063 132.355 141.037 132.293 141.016C132.189 140.984 132.225 140.859 132.36 140.787C132.642 140.63 132.923 140.479 133.246 140.406C133.381 140.38 133.496 140.276 133.616 140.203C133.741 140.12 133.73 139.917 133.61 139.844C133.267 139.625 132.902 139.484 132.491 139.495C132.277 139.495 132.058 139.495 131.845 139.479C131.73 139.474 131.683 139.38 131.637 139.276C131.465 138.912 131.454 138.891 131.137 138.979C130.887 139.052 130.642 139.063 130.392 139.011C130.329 138.995 130.267 138.948 130.204 138.917C130.251 138.875 130.293 138.797 130.334 138.802C130.819 138.823 130.725 138.359 130.907 138.13C130.954 138.073 130.913 137.995 130.824 138.005C130.538 138.026 130.256 138.078 129.975 138.099C129.918 138.104 129.803 138.021 129.808 138.011C129.939 137.636 129.642 137.714 129.459 137.693C129.178 137.662 128.887 137.63 128.6 137.62C128.465 137.62 128.298 137.636 128.189 137.708C127.803 137.969 127.439 138.266 127.058 138.537C126.86 138.677 127.022 138.87 126.959 139.005C126.886 139.156 126.741 139.297 126.595 139.386C126.074 139.703 125.538 139.995 125.011 140.297C124.73 140.464 124.459 140.656 124.433 141.011C124.428 141.141 124.511 141.245 124.324 141.339C124.074 141.464 123.777 141.516 123.579 141.755C123.511 141.839 123.517 141.88 123.626 141.901C123.694 141.912 123.772 141.912 123.834 141.932C123.902 141.953 123.959 141.995 124.017 142.026C123.991 142.078 123.975 142.156 123.933 142.172C123.689 142.266 123.501 142.406 123.392 142.662C123.35 142.755 123.225 142.787 123.121 142.724C123.105 142.708 123.136 142.609 123.147 142.552C123.22 142.224 123.152 142.146 122.866 142.224C122.626 142.292 122.381 142.365 122.152 142.453C121.954 142.526 121.814 142.787 121.928 142.984C122.043 143.193 122.074 143.349 121.985 143.557C121.954 143.636 122.053 143.797 121.886 143.781C121.501 143.75 121.199 143.901 120.907 144.13C120.834 144.188 120.699 144.172 120.595 144.162C120.538 144.162 120.485 144.104 120.439 144.063C120.433 144.052 120.465 143.995 120.485 143.969C120.694 143.688 121.069 143.714 121.329 143.521C121.48 143.406 121.543 143 121.407 142.823C121.293 142.672 121.152 142.776 121.022 142.818C120.824 142.886 120.595 143.042 120.433 142.984C120.09 142.875 119.803 142.969 119.491 143.037C119.386 143.057 119.329 142.958 119.319 142.844C119.548 142.776 119.767 142.698 119.996 142.625C120.09 142.594 120.116 142.511 120.064 142.5C119.808 142.438 119.569 142.302 119.303 142.339C119.22 142.354 119.126 142.453 119.189 142.578C119.235 142.672 119.272 142.75 119.319 142.844C119.142 142.823 118.996 142.813 118.876 143.005C118.73 143.234 118.694 143.094 118.683 142.932C118.678 142.896 118.683 142.859 118.673 142.823C118.616 142.609 118.61 142.604 118.392 142.729C118.334 142.761 118.277 142.807 118.22 142.849C118.053 142.833 117.881 142.802 117.715 142.802C117.584 142.807 117.371 142.823 117.407 142.984C117.48 143.307 117.642 142.974 117.772 142.995C117.871 143.011 117.975 142.979 118.079 142.969ZM139.288 27.2397C139.272 27.2397 139.303 27.2397 139.288 27.2397C139.308 26.8074 139.314 26.3751 139.324 25.9428C139.334 25.5834 139.392 25.2084 139.319 24.8647C139.173 24.1824 139.246 23.5001 139.246 22.8178C139.246 22.4949 139.246 22.172 139.209 21.8491C139.137 21.1407 138.97 20.4428 138.98 19.7189C138.991 19.0053 138.902 18.2866 138.871 17.573C138.845 17.0001 138.944 16.4168 138.725 15.8647C138.631 14.5418 138.548 13.2136 138.449 11.8907C138.397 11.1772 138.355 10.4584 138.256 9.7501C138.178 9.21885 138.032 8.69802 137.902 8.17198C137.788 7.69802 137.496 7.33344 137.121 7.03135C136.85 6.8074 136.564 6.7501 136.235 6.9376C135.954 7.09906 135.663 7.23448 135.392 7.41677C134.907 7.73448 134.512 8.13552 134.11 8.53135C133.235 9.39073 132.428 10.3022 131.756 11.3282C131.444 11.8074 131.131 12.2866 130.808 12.7657C130.61 13.0626 130.433 13.3959 130.173 13.6303C129.892 13.8855 129.683 14.1407 129.647 14.5209C129.626 14.7136 129.532 14.9011 129.371 14.9636C128.913 15.1511 128.788 15.5991 128.621 15.9689C128.428 16.3907 128.204 16.8022 128.027 17.2293C127.626 18.1824 127.074 19.0782 127.011 20.1511C127.006 20.2866 126.954 20.4584 126.86 20.5418C126.532 20.823 126.527 21.2449 126.345 21.5939C126.147 21.9741 125.985 22.3751 125.855 22.7866C125.459 24.0522 125.058 25.3126 124.715 26.5886C124.261 28.2501 123.86 29.922 123.47 31.5939C123.267 32.4636 123.048 33.3386 122.579 34.1251C122.355 34.5001 122.048 34.7345 121.642 34.7136C121.423 34.7032 121.23 34.7032 121.017 34.7449C120.772 34.7866 120.517 34.7761 120.267 34.7553C120.131 34.7397 119.965 34.6928 119.876 34.5991C119.303 34.0053 118.751 33.3803 118.485 32.573C118.314 32.0626 118.131 31.5522 118.017 31.0314C117.881 30.4428 117.85 29.8386 117.84 29.2345C117.824 28.6303 117.892 28.0157 117.683 27.4324C117.6 27.1824 117.605 26.9376 117.616 26.6876C117.636 26.1459 117.678 25.6043 117.704 25.0678C117.741 24.2814 117.777 23.5001 117.626 22.7189C117.548 22.3022 117.506 21.8855 117.621 21.448C117.699 21.1459 117.694 20.797 117.631 20.4845C117.491 19.7657 117.517 19.0522 117.558 18.3334C117.569 18.1199 117.59 17.8907 117.538 17.6876C117.402 17.1876 117.465 16.6876 117.454 16.1824C117.428 14.922 117.439 13.6616 117.345 12.4116C117.298 11.8022 117.261 11.1928 117.256 10.5834C117.251 10.4376 117.267 10.2866 117.241 10.1511C117.069 9.30219 117.105 8.4324 116.975 7.58344C116.886 7.01573 116.829 6.44281 116.595 5.91156C116.48 5.65115 116.288 5.58865 116.095 5.7449C114.475 7.08865 113.131 8.66677 112.084 10.4949C111.501 11.5157 110.782 12.4689 110.381 13.5991C110.36 13.6616 110.293 13.7136 110.256 13.7709C109.913 14.2761 109.678 14.8282 109.439 15.3907C109.126 16.1407 109.006 16.9949 108.418 17.6251C108.35 17.698 108.34 17.823 108.319 17.9272C108.189 18.4949 107.918 19.0053 107.673 19.5261C107.569 19.7501 107.433 19.9689 107.355 20.2032C106.84 21.8439 106.277 23.4741 105.871 25.1459C105.569 26.3959 105.204 27.6459 105.147 28.948C105.136 29.1616 105.074 29.3699 105.027 29.5834C104.902 30.1147 104.876 30.6564 104.965 31.1876C105.105 32.0418 105.11 32.9011 105.178 33.7553C105.251 34.6459 105.084 35.5522 105.241 36.448C105.261 36.5834 105.251 36.7397 105.215 36.8751C105.136 37.1251 105.142 37.3595 105.183 37.6147C105.209 37.7866 105.183 37.9741 105.147 38.1511C105.126 38.2345 105.038 38.3439 104.954 38.3751C104.824 38.422 104.673 38.4064 104.532 38.4272C104.152 38.4741 104.142 38.4845 104.095 38.8907C104.079 39.0314 104.079 39.1772 104.064 39.323C104.038 39.5366 103.923 39.6407 103.709 39.6459C102.803 39.6616 101.923 39.4532 101.048 39.2761C100.663 39.198 100.204 39.0209 100.168 38.4584C100.157 38.3439 99.9959 38.2449 99.923 38.1251C99.7615 37.8855 99.5584 37.6616 99.4698 37.3959C99.074 36.2449 98.6313 35.1095 98.4334 33.8959C98.1573 32.198 97.798 30.5157 97.5167 28.8178C97.324 27.6511 97.0532 26.4897 97.0844 25.297C97.0844 25.1876 97.074 25.0834 97.0584 24.9741C96.8605 23.5939 96.6469 22.2084 96.4594 20.823C96.324 19.8334 96.2511 18.8282 96.0948 17.8386C95.8448 16.2449 95.5636 14.6564 95.2719 13.073C94.9802 11.5157 94.6 9.98448 93.923 8.54177C93.8136 8.31781 93.7042 8.08865 93.574 7.8751C93.324 7.47927 93.0115 7.47406 92.7146 7.86469C92.5011 8.15115 92.3396 8.47927 92.1157 8.76052C91.0532 10.0991 90.3448 11.6303 89.6521 13.172C89.298 13.9532 88.975 14.7501 88.6105 15.5314C88.4646 15.8386 88.3552 16.1199 88.5271 16.448C88.6 16.5886 88.5636 16.7189 88.5167 16.8595C88.3552 17.297 88.2771 17.7501 88.0375 18.1668C87.8136 18.5522 87.5427 18.9689 87.798 19.4689C87.8552 19.5939 87.7875 19.7605 87.6521 19.8439C87.4959 19.9376 87.4698 20.0366 87.5844 20.1824C87.6469 20.2657 87.7146 20.3647 87.7407 20.4636C87.8084 20.7449 87.8084 20.9636 87.5323 21.2136C86.8396 21.8543 86.824 21.9741 86.7302 23.0886C86.7198 23.2136 86.6573 23.2761 86.6052 23.3647C86.3084 23.8907 85.9855 24.4168 85.8969 25.0261C85.7459 26.0209 85.6261 27.0209 85.4959 28.0157C85.4855 28.1251 85.4959 28.2397 85.4594 28.3386C85.1834 29.0261 85.2771 29.7605 85.1886 30.4689C85.1834 30.5053 85.173 30.547 85.1834 30.5782C85.2094 30.6303 85.2459 30.672 85.2823 30.7189C85.3032 30.6928 85.3396 30.6616 85.3396 30.6303C85.3709 30.2605 85.5219 29.9428 85.7042 29.6303C85.8084 29.4532 85.9698 29.3959 86.1521 29.4636C86.3605 29.5418 86.423 29.6355 86.3552 29.8439C86.2823 30.0834 86.3292 30.3439 86.1782 30.573C85.7563 31.2084 85.7146 31.9949 85.3813 32.672C85.225 32.9949 85.2042 33.3543 85.548 33.6511C85.699 33.7814 85.7511 34.0261 85.8448 34.2189C85.8761 34.2814 85.9021 34.3491 85.9334 34.4064C85.9698 34.4741 86.1365 34.4064 86.2042 34.3334C86.3917 34.1199 86.2511 33.8386 86.3761 33.6147C86.3917 33.5886 86.423 33.573 86.449 33.547C86.4698 33.5782 86.5011 33.6095 86.5063 33.6407C86.5532 33.9636 86.548 34.2814 86.3813 34.5834C86.3136 34.7032 86.2771 34.8491 86.2459 34.9845C86.1886 35.2084 85.9177 34.9116 85.8552 35.1668C85.6417 36.0314 85.2302 36.8543 85.2927 37.7814C85.3084 37.9584 85.2927 38.1564 85.225 38.3126C84.9646 38.8855 85.074 39.5261 84.8657 40.1043C84.824 40.2241 84.8448 40.3282 84.9334 40.3959C85.2094 40.5991 85.1834 40.8803 85.1677 41.1772C85.1469 41.7189 84.9542 42.2345 84.8761 42.7605C84.6782 44.0522 84.7667 45.3334 85.0896 46.6043C85.3917 47.7866 85.6209 48.9845 86.0271 50.1407C86.0688 50.2709 86.0896 50.4741 86.1834 50.5209C86.673 50.7709 86.6625 51.2032 86.6261 51.6407C86.6052 51.9324 86.6938 52.2032 86.7459 52.4845C86.8657 53.198 87.1365 53.8595 87.35 54.5418C87.7355 55.7761 88.4177 56.8959 88.7563 58.1511C88.9282 58.7709 89.2146 59.3647 89.449 59.9636C89.7146 60.6303 89.9855 61.297 90.2563 61.9636C90.2823 62.0261 90.324 62.1511 90.3448 62.1459C90.9438 62.0626 90.5844 62.6355 90.798 62.8022C90.7927 63.3647 91.0584 63.8386 91.2927 64.323C91.4542 64.6459 91.6209 64.9636 91.824 65.2605C92.1834 65.797 92.5063 66.4012 93.1313 66.6564C93.5011 66.8022 93.725 67.0366 93.9334 67.3334C94.0532 67.5053 94.1677 67.6876 94.2823 67.8751C94.423 68.1147 94.6417 67.8334 94.8448 67.9845C95.2875 68.3074 95.6938 68.6564 95.9594 69.1355C96.0896 69.3647 96.2615 69.5105 96.4646 69.672C97.3605 70.3907 98.3709 70.8022 99.5115 70.8907C99.6886 70.9064 99.8605 70.9637 100.038 71.0053C101.324 71.3387 102.616 71.6355 103.949 71.7189C104.418 71.7501 104.871 71.823 105.303 72.0209C105.631 72.172 105.985 72.2189 106.355 72.2345C108.043 72.3178 109.73 72.3959 111.423 72.2866C111.959 72.2553 112.511 72.3491 113.043 72.2709C114.886 72.0105 116.73 71.7293 118.501 71.1095C119.454 70.7762 120.418 70.5001 121.371 70.1824C122.022 69.9689 122.657 69.7189 123.298 69.4845C123.97 69.2397 124.657 69.0157 125.319 68.7397C126.246 68.3543 127.189 67.9845 128.064 67.4949C128.673 67.1459 129.298 66.9532 129.97 66.8282C130.178 66.7918 130.387 66.7084 130.595 66.6876C131.017 66.6459 131.35 66.4532 131.626 66.1564C132.012 65.7293 132.376 65.2918 132.751 64.8543C132.808 64.7866 132.788 64.7241 132.72 64.6616C132.61 64.5678 132.756 64.7032 132.616 64.6876C132.553 64.6824 132.459 64.7032 132.444 64.672C132.413 64.6199 132.402 64.5157 132.439 64.4793C132.574 64.323 132.735 64.0418 132.944 64.2032C133.267 64.4532 133.465 64.3126 133.683 64.1043C133.892 63.9064 134.1 63.7032 134.282 63.4845C134.923 62.7084 135.6 61.9636 136.246 61.1876C137.204 60.0261 138.157 58.8595 138.949 57.5782C139.064 57.3959 139.225 57.2397 139.36 57.073C140.084 56.1824 140.808 55.2918 141.34 54.2605C141.605 53.7553 141.933 53.2761 142.235 52.7918C142.782 51.9116 143.334 51.0366 143.855 50.1407C144.647 48.7761 145.428 47.4064 146.293 46.0782C146.652 45.5209 147.001 44.9011 146.965 44.172C146.959 43.9845 147.064 43.8386 147.152 43.6772C147.298 43.3959 147.444 43.0991 147.538 42.797C147.73 42.1824 148.157 41.6668 148.303 41.0314C148.345 40.8647 148.465 40.7084 148.584 40.5782C148.834 40.3074 148.996 39.9897 149.163 39.672C149.381 39.2501 149.663 38.8803 150.038 38.5886C150.324 38.3699 150.574 38.1147 150.751 37.7866C150.881 37.5418 150.871 37.4897 150.6 37.448C150.532 37.4428 150.454 37.4532 150.387 37.4428C150.173 37.4168 150.116 37.3386 150.204 37.1876C150.387 36.8751 150.543 36.5522 150.61 36.1928C150.631 36.0626 150.735 35.9376 150.819 35.8282C151.09 35.4793 151.225 35.1303 151.074 34.6668C150.949 34.2709 151.163 33.8907 151.366 33.5418C152.142 32.2084 152.803 30.8074 153.459 29.4064C153.626 29.047 153.788 28.6928 153.741 28.2761C153.715 28.0574 153.772 27.8595 153.871 27.6511C154.183 27.0105 154.465 26.3491 154.751 25.6928C155.173 24.7397 155.605 23.7918 155.923 22.8022C156.032 22.4636 156.319 22.1668 156.376 21.8334C156.485 21.1459 156.767 20.5261 156.949 19.8699C157.251 18.797 157.574 17.7345 157.887 16.672C157.923 16.5366 157.944 16.3907 157.954 16.2449C157.975 15.9168 158.053 15.6095 158.183 15.3074C158.298 15.047 158.376 14.7657 158.444 14.4897C158.616 13.7918 158.793 13.0991 158.939 12.3959C159.069 11.7709 159.1 11.1199 159.298 10.5001C159.329 10.4011 159.34 10.2709 159.298 10.1824C159.1 9.71365 159.288 9.27094 159.34 8.81781C159.407 8.2501 159.517 7.67719 159.298 7.10427C159.235 6.94802 159.267 6.7501 159.272 6.56781C159.277 6.17198 159.293 5.77615 159.298 5.38031C159.298 5.32823 159.246 5.27094 159.204 5.22406C159.194 5.20844 159.126 5.22406 159.105 5.2449C158.163 6.13552 157.23 7.04177 156.475 8.09906C155.418 9.59906 154.387 11.1199 153.407 12.6668C152.871 13.5105 152.459 14.4324 151.985 15.3126C151.814 15.6303 151.642 15.9428 151.449 16.2501C151.402 16.3282 151.293 16.4272 151.209 16.4272C150.855 16.4272 150.715 16.6355 150.6 16.9324C150.246 17.8334 149.876 18.7241 149.506 19.6199C148.933 21.0157 148.407 22.4272 147.73 23.7761C147.574 24.573 147.131 25.2345 146.756 25.9272C146.6 26.2084 146.506 26.5105 146.407 26.823C146.074 27.8491 145.933 28.9168 145.652 29.9532C145.558 30.297 145.444 30.6459 145.407 31.0001C145.288 32.1043 144.996 33.1772 144.777 34.2605C144.6 35.1199 144.168 35.7553 143.397 36.2136C142.407 36.8022 142.241 36.6616 141.444 36.1616C141.355 36.1043 141.277 36.0261 141.204 35.948C140.387 35.0522 139.845 34.0209 139.647 32.8126C139.496 31.8907 139.272 30.9793 139.329 30.0366C139.334 30.0001 139.329 29.9636 139.314 29.9324C139.163 29.547 139.225 29.1459 139.241 28.7553C139.262 28.2501 139.267 27.7449 139.288 27.2397ZM54.1052 138.162C54.0792 138.807 53.9959 140.823 53.9907 141.182C53.9907 141.281 54.0427 141.323 54.1 141.302C54.1365 141.287 54.1782 141.276 54.1938 141.25C54.3813 140.943 54.5896 140.646 54.7511 140.333C55.1365 139.599 55.475 138.844 55.8709 138.12C56.4073 137.136 56.7771 136.089 57.2146 135.063C57.4646 134.474 57.5323 133.787 57.8657 133.255C58.2355 132.672 58.3813 132 58.7407 131.427C58.8344 131.276 58.8917 131.094 59.0115 130.958C59.5427 130.344 59.7927 129.594 60.0427 128.844C60.1521 128.505 60.2094 128.146 60.3188 127.807C60.7667 126.448 61.1834 125.078 61.6573 123.724C61.7771 123.391 61.8865 123.052 61.9646 122.698C62.1573 121.865 62.4073 121.042 62.5948 120.198C62.7459 119.516 62.975 118.854 63.1677 118.177C63.173 118.151 63.1469 118.109 63.1261 118.083C63.1157 118.073 63.0688 118.083 63.048 118.094C62.8657 118.172 62.8396 118.375 62.7198 118.5C62.6 118.62 62.4073 118.672 62.2771 118.781C62.2042 118.844 62.1521 118.969 62.1521 119.068C62.173 119.698 61.9907 120.266 61.673 120.807C61.548 121.021 61.449 121.271 61.4177 121.516C61.3709 121.896 61.2042 122.245 61.2094 122.651C61.2146 123.021 60.975 123.396 60.8344 123.766C60.699 124.13 60.5375 124.495 60.423 124.87C60.35 125.104 60.3396 125.365 60.2927 125.609C60.2667 125.75 60.2355 125.891 60.1782 126.021C60.0896 126.24 59.7667 126.318 59.4073 126.219C59.2511 126.177 59.1677 126.021 59.2094 125.781C59.2459 125.573 59.3032 125.365 59.3605 125.156C59.3813 125.078 59.3761 125.005 59.298 124.995C59.2355 124.984 59.1469 125.026 59.1052 125.073C58.7771 125.427 58.7198 125.912 58.5427 126.339C58.3657 126.766 58.1469 127.203 58.1105 127.651C58.0844 128.011 58.3188 128.386 58.3917 128.766C58.4386 129.016 58.2667 128.938 58.1261 128.886C58.0844 128.87 57.9959 128.922 57.9594 128.969C57.8292 129.136 57.673 129.302 57.6 129.495C57.4282 129.964 57.3032 130.448 57.1417 130.917C56.9802 131.391 56.5896 131.761 56.4802 132.266C56.4542 132.37 56.3657 132.453 56.3396 132.557C56.0063 133.797 55.4542 134.974 55.225 136.25C55.1573 136.63 54.9386 136.979 54.7823 137.344C54.7615 137.38 54.6886 137.396 54.6365 137.427C54.6157 137.359 54.574 137.287 54.5844 137.224C54.6 137.047 54.6261 136.87 54.673 136.698C55.0115 135.568 55.3865 134.453 55.6469 133.302C55.7927 132.636 55.9438 131.974 56.1365 131.318C56.3709 130.531 56.4907 129.708 56.85 128.953C56.9855 128.667 57.0688 128.344 57.1261 128.026C57.4073 126.396 57.9698 124.839 58.3032 123.219C58.6886 121.365 59.2459 119.547 59.7198 117.708C59.8344 117.255 60.0323 116.797 60.0167 116.349C59.9907 115.391 60.3709 114.521 60.475 113.589C60.6052 112.422 60.9438 111.276 61.1782 110.12C61.3188 109.417 61.3865 108.698 61.5688 108.005C61.7719 107.24 61.9177 106.464 62.074 105.693C62.2302 104.922 62.4125 104.151 62.5532 103.38C62.6209 103.031 62.6157 102.667 62.6417 102.313C62.6417 102.287 62.6105 102.24 62.5792 102.229C62.5636 102.219 62.5115 102.25 62.5011 102.276C62.3969 102.464 62.2875 102.646 62.2042 102.844C61.8552 103.63 61.5167 104.422 61.173 105.214C60.6469 106.427 60.0584 107.62 59.6157 108.87C59.1938 110.042 58.673 111.188 58.3605 112.406C58.2146 112.99 57.9542 113.552 57.7771 114.13C57.2875 115.781 56.798 117.427 56.3448 119.083C56.0896 120.016 55.9282 120.974 55.6834 121.912C55.5063 122.578 55.4594 123.261 55.3448 123.927C55.225 124.599 55.0584 125.261 54.9177 125.927C54.8917 126.068 54.8709 126.224 54.9073 126.354C55.2146 127.396 54.8709 128.432 54.8917 129.469C54.6105 130.339 54.6573 131.245 54.6105 132.141C54.574 132.896 54.5948 133.677 54.423 134.401C54.1261 135.646 54.2355 136.912 54.1052 138.162ZM105.61 148.484C105.308 148.516 105.058 148.531 104.808 148.568C104.136 148.662 103.47 148.813 102.788 148.818C102.61 148.818 102.439 148.886 102.267 148.927C101.918 149.011 101.569 149.094 101.225 149.188C100.808 149.297 100.392 149.401 100.043 149.667C100.001 149.693 99.9907 149.802 100.011 149.859C100.032 149.912 100.105 149.964 100.168 149.984C100.23 150.005 100.324 150.026 100.376 149.995C100.735 149.771 101.121 149.807 101.517 149.828C101.803 149.849 102.1 149.854 102.381 149.802C103.501 149.583 104.621 149.354 105.683 148.912C105.782 148.87 105.886 148.844 105.98 148.802C105.996 148.792 105.996 148.734 105.996 148.698C105.996 148.667 105.985 148.62 105.97 148.615C105.84 148.563 105.704 148.516 105.61 148.484ZM159.423 32.2136C159.439 32.1772 159.506 32.0522 159.553 31.9272C159.564 31.9064 159.475 31.8439 159.428 31.8178C159.402 31.8022 159.345 31.8074 159.329 31.823C159.282 31.8751 159.256 31.948 159.204 31.9949C159.168 32.0314 159.116 32.047 159.064 32.073C159.048 32.0105 159.012 31.9428 159.017 31.8751C159.022 31.7241 159.116 31.6355 159.246 31.5522C159.387 31.4584 159.501 31.3074 159.605 31.172C159.631 31.1355 159.605 31.0209 159.569 30.9845C159.527 30.9428 159.428 30.922 159.381 30.948C159.256 31.0105 159.137 31.0991 159.032 31.1928C158.845 31.3647 158.527 31.2293 158.381 31.5105C158.272 31.7293 158.069 31.9168 157.996 32.1459C157.881 32.5261 157.699 32.8543 157.475 33.1668C157.449 33.2032 157.485 33.3178 157.527 33.3543C157.569 33.3855 157.657 33.3751 157.72 33.3647C157.819 33.3543 157.933 33.2761 158.006 33.3074C158.137 33.3647 158.209 33.4793 158.157 33.6564C158.058 33.9741 158.522 33.9532 158.522 34.2293C158.579 34.2136 158.668 34.2189 158.683 34.1876C158.944 33.573 159.418 33.0366 159.423 32.2136ZM154.47 35.0001C154.475 34.8803 154.496 34.8074 154.475 34.7449C154.454 34.672 154.381 34.6772 154.308 34.7397C154.038 34.9741 153.767 35.198 153.569 35.5105C153.428 35.7293 153.22 35.8751 152.933 35.7084C152.819 35.6407 152.72 35.7345 152.668 35.8178C152.428 36.2084 152.131 36.547 152.022 37.0261C151.855 37.7553 151.626 38.4741 151.142 39.073C151.1 39.1251 151.1 39.2084 151.1 39.2761C151.1 39.3022 151.163 39.3595 151.163 39.3595C151.246 39.3022 151.366 39.2657 151.407 39.1824C151.694 38.6459 152.048 38.1616 152.454 37.7032C152.616 37.5157 152.829 37.3595 152.959 37.1511C153.439 36.4011 153.845 35.5991 154.47 35.0001ZM124.511 103.573C124.449 103.542 124.366 103.474 124.324 103.495C124.006 103.646 123.689 103.807 123.381 103.984C122.959 104.224 122.553 104.547 122.11 104.703C121.397 104.953 120.798 105.417 120.084 105.651C119.85 105.729 119.652 105.901 119.439 106.031C119.209 106.177 119.136 106.417 119.053 106.651C119.043 106.677 119.058 106.719 119.079 106.745C119.09 106.766 119.136 106.792 119.152 106.787C119.34 106.688 119.532 106.594 119.709 106.479C119.886 106.365 120.043 106.146 120.225 106.12C120.668 106.052 121.017 105.787 121.397 105.62C122.001 105.359 122.673 105.182 123.116 104.615C123.241 104.453 123.459 104.37 123.642 104.255C123.913 104.089 124.194 103.932 124.459 103.761C124.501 103.734 124.496 103.636 124.511 103.573ZM113.173 146.224C113.199 146.224 113.308 146.245 113.413 146.214C114.11 146.021 114.824 146.052 115.532 146.12C115.944 146.156 116.293 145.969 116.673 145.906C116.761 145.891 116.788 145.818 116.751 145.734C116.725 145.677 116.689 145.583 116.642 145.573C116.543 145.542 116.418 145.526 116.329 145.557C115.913 145.719 115.511 145.802 115.121 145.49C115.053 145.438 114.892 145.443 114.814 145.49C114.215 145.844 113.522 145.859 112.876 146.042C112.84 146.057 112.814 146.12 112.782 146.156C112.814 146.172 112.845 146.203 112.876 146.208C112.949 146.219 113.017 146.214 113.173 146.224ZM137.652 91.4532C137.699 91.1355 137.61 90.9793 137.235 90.8959C137.1 90.8699 137.079 90.7866 137.012 90.7241C136.819 90.5522 136.803 90.5522 136.626 90.7657C136.558 90.8491 136.522 90.948 136.392 90.8595C136.121 90.6772 135.85 90.7449 135.584 90.8803C135.553 90.8959 135.506 90.8907 135.485 90.9116C135.449 90.9532 135.423 91.0053 135.413 91.0522C135.407 91.0678 135.459 91.1043 135.491 91.1147C135.657 91.1564 135.788 91.323 135.985 91.2397C136.173 91.1616 136.324 91.2657 136.491 91.3282C136.657 91.3855 136.834 91.4168 137.006 91.4636C137.178 91.5105 137.345 91.5574 137.522 91.5991C137.543 91.6043 137.579 91.5678 137.6 91.5418C137.621 91.5157 137.631 91.4793 137.652 91.4532ZM134.496 101.781C134.465 101.766 134.439 101.729 134.407 101.729C134.303 101.734 134.168 101.714 134.095 101.771C133.522 102.245 132.86 102.578 132.225 102.958C132.137 103.011 132.079 103.109 132.012 103.188C132.001 103.203 132.006 103.25 132.022 103.266C132.043 103.292 132.074 103.313 132.105 103.323C132.142 103.328 132.183 103.333 132.215 103.318C133.09 103.016 133.803 102.443 134.501 101.859C134.512 101.849 134.496 101.807 134.496 101.781ZM124.36 99.2345C124.334 99.2136 124.298 99.172 124.272 99.1824C124.183 99.2084 124.079 99.2293 124.011 99.2918C123.913 99.3751 123.98 99.4741 124.032 99.5678C124.095 99.6824 124.209 99.7449 124.204 99.922C124.194 100.125 124.35 100.198 124.496 100.151C124.673 100.094 124.834 99.9949 124.902 99.8334C125.001 99.5886 125.209 99.5886 125.413 99.5314C125.579 99.4845 125.475 99.3803 125.423 99.3074C125.303 99.1564 125.147 99.1043 124.954 99.1355C124.756 99.1668 124.59 99.3803 124.36 99.2345ZM57.975 144.927C58.0219 144.901 58.0844 144.886 58.1052 144.844C58.5323 144.063 58.9802 143.292 59.2302 142.427C59.2615 142.323 59.298 142.224 59.3032 142.115C59.3084 142.052 59.2667 141.99 59.2407 141.922C59.2198 141.948 59.1834 141.969 59.1677 142C58.7563 142.906 58.3448 143.813 57.9334 144.724C57.923 144.755 57.9177 144.797 57.9282 144.828C57.9334 144.859 57.9542 144.891 57.975 144.927ZM131.928 147.078C132.782 147.141 133.334 146.948 133.897 146.729C133.928 146.719 133.954 146.688 133.98 146.662C133.939 146.615 133.902 146.557 133.85 146.526C133.704 146.438 133.569 146.349 133.366 146.422C132.871 146.604 132.36 146.75 131.86 146.917C131.829 146.922 131.803 146.958 131.777 146.979C131.834 147.016 131.866 147.063 131.928 147.078C132.095 147.089 131.991 147.099 131.928 147.078ZM136.402 140.943C136.387 140.917 136.381 140.875 136.36 140.865C136.1 140.75 135.845 140.641 135.579 140.537C135.522 140.516 135.413 140.521 135.381 140.563C135.235 140.75 135.038 140.927 135.053 141.198C135.058 141.307 135.157 141.396 135.272 141.38C135.652 141.339 136.017 141.219 136.36 141.037C136.381 141.026 136.387 140.974 136.402 140.943ZM108.866 110.526C108.35 110.495 107.996 110.599 107.663 110.875C107.564 110.958 107.538 111.203 107.636 111.255C107.72 111.307 107.85 111.359 107.923 111.323C108.277 111.167 108.595 110.938 108.975 110.828C109.011 110.823 109.022 110.708 109.032 110.641C109.032 110.62 108.985 110.589 108.959 110.568C108.933 110.547 108.897 110.542 108.866 110.526ZM156.366 32.1043C156.371 31.9949 156.381 31.9584 156.376 31.922C156.36 31.8543 156.345 31.7866 156.324 31.7189C156.277 31.7553 156.22 31.7866 156.183 31.8334C155.798 32.3439 155.579 32.9532 155.262 33.5053C155.241 33.5418 155.303 33.6251 155.334 33.6876C155.334 33.6876 155.407 33.672 155.423 33.6511C155.699 33.2814 155.98 32.922 156.235 32.5366C156.324 32.3959 156.34 32.2032 156.366 32.1043ZM79.8969 146.948C79.7459 147 79.6105 147.037 79.4802 147.094C79.4334 147.12 79.3969 147.177 79.3552 147.219C79.3813 147.24 79.4073 147.266 79.4386 147.281C79.8344 147.438 80.2302 147.589 80.6209 147.75C80.7927 147.818 80.9594 147.849 81.1105 147.708C81.199 147.62 81.1052 147.511 80.8448 147.386C80.6209 147.276 80.4021 147.162 80.1834 147.052C80.0896 147.011 79.9855 146.979 79.8969 146.948ZM124.814 101.443C124.761 101.406 124.72 101.349 124.663 101.333C124.501 101.292 124.35 101.458 124.168 101.339C123.975 101.214 123.855 101.328 123.772 101.511C123.73 101.604 123.652 101.688 123.61 101.781C123.584 101.833 123.584 101.922 123.61 101.969C123.642 102.016 123.735 102.052 123.788 102.042C124.157 101.948 124.496 101.776 124.798 101.547C124.819 101.531 124.808 101.479 124.814 101.443ZM142.793 64.6251C142.793 64.6564 142.782 64.698 142.788 64.7293C142.808 64.7918 142.829 64.8543 142.855 64.9168C142.913 64.8959 142.985 64.8803 143.032 64.8439C143.314 64.6095 143.397 64.2501 143.574 63.9532C143.683 63.7761 143.501 63.6355 143.444 63.4845C143.407 63.3907 143.36 63.4011 143.215 63.6772C143.053 63.9845 142.782 64.2449 142.793 64.6251ZM135.001 104.026C135.027 104.047 135.069 104.094 135.084 104.089C135.548 103.901 135.98 103.651 136.36 103.318C136.433 103.255 136.428 103.188 136.355 103.146C136.329 103.13 136.282 103.115 136.262 103.125C135.814 103.349 135.376 103.589 135.017 103.943C135.001 103.958 135.006 103.995 135.001 104.026ZM118.366 110.49C118.709 110.563 118.933 110.297 119.204 110.156C119.22 110.146 119.23 110.068 119.22 110.057C119.173 110.011 119.095 109.943 119.058 109.958C118.798 110.047 118.501 110.068 118.314 110.313C118.298 110.339 118.272 110.38 118.282 110.406C118.288 110.432 118.329 110.453 118.366 110.49ZM100.334 150.641C100.36 150.636 100.574 150.625 100.788 150.609C100.819 150.609 100.85 150.573 100.881 150.557C100.855 150.531 100.84 150.495 100.808 150.484C100.506 150.391 100.204 150.297 99.8969 150.219C99.8448 150.208 99.7667 150.261 99.7146 150.307C99.6625 150.349 99.6105 150.417 99.6 150.479C99.5948 150.516 99.673 150.599 99.7198 150.604C99.8605 150.625 100.006 150.625 100.334 150.641ZM126.413 104.771C126.371 104.724 126.314 104.636 126.277 104.646C126.11 104.682 125.944 104.734 125.782 104.802C125.631 104.865 125.558 105.047 125.652 105.115C125.73 105.172 125.84 105.234 125.928 105.224C126.147 105.198 126.303 105.063 126.418 104.875C126.433 104.849 126.418 104.802 126.413 104.771ZM143.387 137.037C143.355 137.052 143.314 137.063 143.293 137.083C143.282 137.094 143.298 137.141 143.314 137.167C143.491 137.401 143.72 137.557 144.012 137.609C144.064 137.62 144.152 137.568 144.183 137.521C144.209 137.474 144.199 137.359 144.163 137.333C143.928 137.172 143.689 137.016 143.387 137.037ZM95.1573 131.177C95.1261 131.115 95.1 131.052 95.0636 131C95.0532 130.984 94.9959 131.005 94.9646 131.021C94.7459 131.141 94.5792 131.307 94.548 131.563C94.5427 131.604 94.6209 131.688 94.6625 131.693C94.9646 131.714 95.1469 131.516 95.1573 131.177ZM116.886 110.219C117.163 110.245 117.418 110.037 117.704 110.156C117.741 110.172 117.824 110.094 117.876 110.047C117.902 110.026 117.913 109.984 117.913 109.948C117.913 109.927 117.892 109.891 117.871 109.88C117.465 109.74 117.116 109.917 116.777 110.109C116.777 110.109 116.782 110.156 116.798 110.172C116.824 110.193 116.86 110.203 116.886 110.219ZM123.59 110.766C123.829 110.521 124.225 110.63 124.501 110.396C124.527 110.375 124.553 110.349 124.569 110.323C124.59 110.297 124.61 110.261 124.605 110.24C124.59 110.214 124.548 110.167 124.527 110.172C124.168 110.281 123.777 110.302 123.491 110.583C123.47 110.599 123.449 110.641 123.459 110.656C123.475 110.682 123.506 110.703 123.59 110.766ZM154.147 32.797C154.116 32.7501 154.1 32.7189 154.084 32.6928C154.053 32.7084 154.017 32.7189 154.001 32.7449C153.866 32.9428 153.73 33.1459 153.605 33.3491C153.553 33.4324 153.501 33.5261 153.6 33.6303C153.663 33.698 153.84 33.6043 153.897 33.4532C153.98 33.2345 154.064 33.0105 154.147 32.797ZM137.407 70.3178C137.433 70.3178 137.465 70.3282 137.48 70.3178C137.631 70.172 137.782 70.0366 137.923 69.8803C137.954 69.8439 137.933 69.7553 137.928 69.6928C137.918 69.6043 137.73 69.6043 137.673 69.698C137.564 69.8699 137.47 70.0522 137.371 70.2345C137.36 70.2501 137.397 70.2918 137.407 70.3178ZM135.183 142.224C135.449 142.271 135.657 142.13 135.881 142.042C135.97 142.005 135.98 141.943 135.923 141.901C135.892 141.88 135.866 141.849 135.834 141.844C135.59 141.802 135.35 141.807 135.147 141.984C135.095 142.026 135.058 142.089 135.012 142.141C135.074 142.167 135.131 142.198 135.183 142.224ZM126.647 102.62C126.647 102.589 126.657 102.552 126.642 102.537C126.621 102.516 126.579 102.49 126.558 102.5C126.303 102.609 126.053 102.719 125.803 102.839C125.777 102.849 125.746 102.896 125.751 102.922C125.751 102.948 125.798 102.995 125.819 102.995C126.131 102.948 126.423 102.849 126.647 102.62ZM65.5896 98.6303C65.5688 98.547 65.5532 98.4428 65.5115 98.3491C65.475 98.2553 65.4021 98.1564 65.2875 98.2189C65.2042 98.2657 65.0844 98.3959 65.1 98.4428C65.1417 98.5574 65.2459 98.6564 65.3448 98.7449C65.3761 98.7761 65.4698 98.7501 65.5271 98.7345C65.548 98.7241 65.5584 98.6772 65.5896 98.6303ZM108.574 148.172C108.735 148.167 108.918 148.208 109.058 148.078C109.079 148.063 109.079 148.011 109.074 147.979C109.069 147.948 109.048 147.912 109.022 147.901C108.881 147.839 108.433 147.984 108.371 148.094C108.36 148.089 108.36 148.109 108.371 148.094C108.433 148.115 108.501 148.156 108.574 148.172ZM81.2146 149.109C81.3136 149.104 81.4177 149.104 81.5219 149.094C81.5532 149.094 81.6105 149.083 81.6157 149.068C81.6209 149.021 81.6261 148.953 81.6 148.917C81.5167 148.787 81.3813 148.745 81.2407 148.792C81.1521 148.823 81.0375 148.896 81.0167 148.969C80.9802 149.104 81.1209 149.094 81.2146 149.109ZM37.5115 154.927C37.6625 154.922 37.7667 154.927 37.8709 154.917C37.9334 154.912 38.0011 154.886 38.0688 154.87C38.0115 154.844 37.9594 154.802 37.9073 154.797C37.699 154.776 37.4959 154.771 37.2875 154.771C37.2563 154.766 37.225 154.797 37.199 154.818C37.2146 154.833 37.2302 154.865 37.2511 154.87C37.3552 154.896 37.4542 154.912 37.5115 154.927ZM35.4959 154.594C35.6 154.599 35.7094 154.609 35.8136 154.604C35.85 154.604 35.8813 154.578 35.9125 154.568C35.9021 154.552 35.8865 154.521 35.8709 154.521C35.6261 154.505 35.3813 154.49 35.1365 154.484C35.1157 154.479 35.0948 154.516 35.074 154.537C35.1105 154.547 35.1417 154.568 35.173 154.573C35.2823 154.583 35.3865 154.589 35.4959 154.594ZM127.845 105.63C127.798 105.599 127.777 105.568 127.746 105.568C127.558 105.563 127.444 105.682 127.345 105.823C127.345 105.823 127.386 105.875 127.418 105.891C127.511 105.938 127.605 105.932 127.683 105.849C127.741 105.781 127.788 105.703 127.845 105.63ZM127.553 106.438C127.527 106.417 127.501 106.386 127.475 106.38C127.34 106.365 127.204 106.344 127.105 106.464C127.084 106.49 127.074 106.537 127.084 106.557C127.105 106.604 127.163 106.688 127.173 106.682C127.298 106.636 127.418 106.573 127.532 106.511C127.548 106.505 127.548 106.464 127.553 106.438ZM123.918 107.229C123.897 107.203 123.866 107.146 123.86 107.151C123.73 107.198 123.6 107.25 123.475 107.307C123.444 107.323 123.428 107.359 123.402 107.386C123.454 107.422 123.501 107.49 123.553 107.49C123.782 107.495 123.949 107.37 123.918 107.229ZM126.845 108.151C126.819 108.136 126.793 108.109 126.761 108.104C126.595 108.078 126.517 108.208 126.413 108.297C126.386 108.318 126.376 108.354 126.355 108.386C126.418 108.412 126.491 108.474 126.527 108.458C126.647 108.396 126.756 108.307 126.86 108.224C126.871 108.219 126.85 108.177 126.845 108.151ZM57.1782 146.484C57.1625 146.453 57.1521 146.422 57.1313 146.401C57.1157 146.386 57.0792 146.37 57.0636 146.375C56.9177 146.474 56.8188 146.599 56.7927 146.776C56.7875 146.802 56.8084 146.839 56.8292 146.865C56.8448 146.875 56.8813 146.886 56.9021 146.875C57.0636 146.797 57.1521 146.662 57.1782 146.484ZM161.303 35.4064C161.225 35.5678 161.147 35.7136 161.084 35.8647C161.079 35.8751 161.121 35.922 161.152 35.9272C161.178 35.9376 161.22 35.9272 161.246 35.9064C161.371 35.823 161.407 35.698 161.397 35.5574C161.392 35.5157 161.345 35.4741 161.303 35.4064Z" fill="#131313"/>
</svg>
