<svg width="169" height="172" viewBox="0 0 169 172" fill="none" xmlns="http://www.w3.org/2000/svg">
<path d="M99.9644 41.6509C100.256 41.3228 100.449 40.9374 100.543 40.5363C100.735 39.7134 101.251 39.052 101.563 38.2916C101.865 37.5624 102.287 36.8853 102.652 36.1874C102.834 35.8384 102.959 35.4582 103.251 35.1718C103.277 35.1509 103.293 35.1145 103.303 35.0832C103.511 34.3697 104.027 33.8593 104.449 33.2863C104.553 33.1457 104.657 32.9843 104.683 32.8176C104.829 31.8332 105.329 30.9999 105.787 30.1509C105.85 30.0259 105.871 29.8801 105.902 29.7447C105.912 29.7186 105.876 29.677 105.85 29.6561C105.834 29.6405 105.782 29.6457 105.772 29.6613C105.626 29.8645 105.428 30.0468 105.345 30.2759C105.11 30.8905 104.694 31.3801 104.298 31.8905C104.266 31.9322 104.204 31.953 104.157 31.9843C104.141 31.9166 104.121 31.8488 104.115 31.7811C104.048 31.1457 104.298 30.5884 104.532 30.0207C104.678 29.6613 104.918 29.3176 104.855 28.8957C104.85 28.8593 104.829 28.828 104.813 28.7968C104.761 28.8228 104.709 28.854 104.657 28.8801C104.605 28.9061 104.558 28.9374 104.501 28.9582C104.501 28.9582 104.464 28.9009 104.454 28.8697C104.444 28.8332 104.438 28.7916 104.454 28.7603C104.772 28.078 105.084 27.3905 105.418 26.7186C105.475 26.6041 105.636 26.5416 105.74 26.453C105.897 26.3176 105.897 26.1457 105.865 25.9582C105.839 25.7863 105.725 25.6718 105.589 25.7186C104.777 26.0051 103.964 26.2916 103.152 26.578C102.813 26.6926 102.506 26.8697 102.126 26.8749C101.886 26.8801 101.647 27.0207 101.418 27.1249C100.365 27.5936 99.3134 28.0624 98.3394 28.6874C97.8603 28.9999 97.355 29.2603 96.803 29.453C96.1988 29.6666 95.6519 30.0364 95.0998 30.3697C94.0842 30.9843 93.0842 31.6145 92.0842 32.2551C91.6884 32.5051 91.2925 32.7603 90.9436 33.0624C90.0634 33.8124 89.0165 34.328 88.1623 35.1093C87.7665 35.4686 87.2977 35.7499 86.8446 36.0363C86.2352 36.4218 85.6519 36.8436 85.0998 37.3072C84.803 37.5624 84.4696 37.7811 84.1571 38.0155C83.9227 38.1926 83.6884 38.3593 83.4748 38.552C82.5373 39.3957 81.6155 40.2499 80.7352 41.1613C80.2665 41.6457 79.7405 42.0936 79.2092 42.5103C78.4905 43.0728 77.954 43.802 77.355 44.4739C77.1415 44.7134 76.928 44.9634 76.6884 45.1718C76.4227 45.4061 76.105 45.5884 75.9488 45.9322C75.9071 46.0259 75.829 46.1197 75.7457 46.1666C75.2248 46.453 74.8863 46.927 74.5165 47.3593C73.4488 48.6197 72.3082 49.8176 71.3342 51.1509C70.9748 51.6457 70.5477 52.0989 70.4123 52.7239C69.8759 53.5311 69.5113 54.4322 69.0165 55.2655C68.4332 56.2551 67.9123 57.2811 67.4175 58.3176C67.2769 58.6093 67.1311 58.8853 66.9592 59.1561C66.6727 59.6145 66.4384 60.1041 66.204 60.5884C65.6259 61.7864 65.0634 62.9895 64.4957 64.1926C64.4071 64.3853 64.329 64.5832 64.2457 64.7811C64.1363 65.0468 64.0634 65.3332 63.9175 65.578C63.5269 66.2291 63.2613 66.9322 62.9696 67.6249C62.8967 67.7968 62.8498 67.9426 62.9123 68.1353C63.0894 68.677 62.7665 69.0936 62.5165 69.5207C62.4696 69.6041 62.4071 69.5937 62.329 69.5416C62.2144 69.4687 62.1415 69.5311 62.105 69.6457C62.053 69.7916 62.0738 69.9322 62.1571 70.0572C62.2613 70.2239 62.2978 70.4009 62.2144 70.5676C61.7561 71.4791 61.6675 72.4999 61.3238 73.4426C61.1623 73.8749 61.0217 74.3228 60.8811 74.7655C60.7352 75.2134 60.5686 75.6509 60.4696 76.1041C60.2665 77.052 59.954 77.9686 59.6832 78.8957C59.3134 80.1353 58.9957 81.3801 58.6936 82.6353C58.6102 82.9791 58.5113 83.328 58.4384 83.677C58.2144 84.7655 58.0321 85.8645 57.7925 86.9478C57.6259 87.7186 57.6207 88.5155 57.3811 89.2759C57.2457 89.7134 57.2665 90.203 57.2248 90.6718C57.2144 90.8176 57.4436 91.0207 57.5998 90.9738C57.8915 90.8853 58.1467 90.9374 58.4332 91.0259C58.9905 91.203 59.5686 91.1926 60.1467 91.1145C60.3238 91.0936 60.5269 91.0051 60.6727 91.0572C61.5321 91.3593 62.4748 91.1509 63.3186 91.5259C64.3759 91.5259 65.3394 91.9895 66.3655 92.1666C67.1675 92.302 67.9592 92.552 68.7561 92.7551C69.4123 92.9218 70.0582 93.1353 70.6727 93.453C71.1102 93.6822 71.579 93.8853 72.0946 93.9426C72.3759 93.9738 72.6571 94.0728 72.9175 94.1926C73.5321 94.4738 74.1415 94.7759 74.7457 95.0884C75.2196 95.3384 75.7405 95.4791 76.204 95.7655C77.1988 96.3645 78.1207 97.0416 78.928 97.8749C79.5009 98.4739 80.0946 99.0468 80.6623 99.6509C81.454 100.5 82.0582 101.469 82.5738 102.51C83.1832 103.734 83.8186 104.943 84.5009 106.125C85.0269 107.026 85.48 107.963 85.9227 108.901C86.1623 109.422 86.5738 109.859 86.6884 110.432C86.7925 110.974 87.0738 111.437 87.2665 111.937C87.4644 112.437 87.6675 112.932 87.8915 113.422C87.9592 113.568 87.9019 113.698 87.9227 113.828C87.954 114.042 88.0113 114.25 88.0894 114.448C88.1519 114.609 88.4175 114.625 88.4071 114.849C88.3811 115.323 88.678 115.745 88.6102 116.229C88.5842 116.401 88.6155 116.594 88.6675 116.76C89.0842 118.094 89.2457 119.5 89.8082 120.797C89.8394 120.859 89.8811 120.953 89.855 121C89.5998 121.495 89.7978 121.979 89.8707 122.463C89.9436 122.958 90.0738 123.448 90.1675 123.937C90.2509 124.396 90.2821 124.87 90.3967 125.318C90.4748 125.641 90.4905 125.958 90.4905 126.281C90.4957 126.713 90.4696 127.141 90.5946 127.568C90.6571 127.771 90.6623 128 90.6363 128.208C90.5582 128.807 90.8238 129.411 90.5894 130.005C90.5634 130.062 90.5738 130.151 90.5946 130.219C90.7925 130.891 90.6884 131.578 90.6988 132.26C90.7144 133.052 90.829 133.833 90.7561 134.63C90.6988 135.302 90.5894 135.979 90.6623 136.661C90.678 136.802 90.6728 136.953 90.6363 137.094C90.2561 138.5 90.4123 139.953 90.2509 141.38C90.23 141.557 90.2457 141.745 90.1988 141.917C89.8967 143.104 89.7352 144.307 89.6155 145.526C89.5217 146.521 89.2769 147.505 88.954 148.458C88.7821 148.969 88.6259 149.479 88.5582 150.021C88.5009 150.448 88.3811 150.864 88.2509 151.276C87.9436 152.229 87.6102 153.177 87.2873 154.13C87.1467 154.536 86.98 154.937 86.8811 155.354C86.5425 156.792 85.9175 158.13 85.428 159.521C85.178 160.229 84.928 160.943 84.579 161.609C84.2821 162.182 83.9175 162.708 83.6519 163.302C83.3915 163.885 83.0425 164.432 82.7144 164.989C82.5478 165.266 82.3655 165.536 82.1623 165.786C81.5634 166.547 80.9696 167.318 80.329 168.042C79.5061 168.974 78.4644 169.489 77.2144 169.552C77.0009 169.568 76.7821 169.552 76.5686 169.531C75.5946 169.437 74.6259 169.427 73.6519 169.448C73.1571 169.458 72.6571 169.349 72.1623 169.292C72.0946 169.281 72.0165 169.26 71.9592 169.224C71.053 168.599 70.0321 168.151 69.3759 167.172C68.5686 165.974 67.8394 164.75 67.3238 163.401C66.8811 162.229 66.4071 161.062 66.0998 159.844C65.829 158.766 65.6467 157.672 65.5165 156.562C65.4748 156.172 65.3915 155.786 65.355 155.396C65.2925 154.682 65.1259 153.974 65.1832 153.25C65.1936 153.078 65.1102 152.901 65.053 152.729C65.0373 152.682 64.9644 152.656 64.9227 152.62C64.8967 152.651 64.8707 152.677 64.855 152.708C64.1311 154.703 63.23 156.62 62.3863 158.562C61.6571 160.245 60.7977 161.864 59.8342 163.427C59.1519 164.536 58.3863 165.568 57.5686 166.573C56.704 167.641 55.6884 168.536 54.5477 169.318C53.4748 170.052 52.3446 170.088 51.1467 169.786C50.9748 169.745 50.803 169.677 50.6311 169.63C49.8759 169.437 49.2457 169.042 48.7769 168.406C48.48 168.005 48.178 167.599 47.8967 167.182C47.7977 167.036 47.7457 166.859 47.6936 166.687C47.4644 165.932 47.2457 165.177 47.1467 164.385C47.0686 163.75 46.954 163.109 46.8134 162.479C46.6727 161.875 46.7405 161.26 46.6623 160.661C46.5321 159.614 46.6727 158.573 46.5842 157.536C46.4696 156.167 46.5425 154.807 46.5738 153.437C46.579 153.26 46.5998 153.073 46.5686 152.901C46.3655 151.75 46.4905 150.599 46.5269 149.453C46.5321 149.297 46.6207 149.12 46.4592 148.984C46.3655 149.141 46.2457 149.281 46.1884 149.443C45.605 151.146 44.8707 152.781 44.1467 154.422C43.8602 155.078 43.5425 155.724 43.2925 156.396C42.98 157.245 42.5113 158.01 42.1207 158.818C41.7978 159.505 41.3498 160.114 40.9592 160.76C40.2457 161.932 39.48 163.068 38.6102 164.114C37.3394 165.646 35.9332 167.042 34.0894 167.896C32.9696 168.411 31.8394 168.547 30.6311 168.156C29.9332 167.932 29.2769 167.698 28.7457 167.172C28.6207 167.047 28.4592 166.958 28.3082 166.859C27.4488 166.26 26.9488 165.417 26.5634 164.463C25.9592 162.984 25.6832 161.443 25.5373 159.87C25.4957 159.437 25.2821 159.047 25.355 158.594C25.4175 158.203 25.3342 157.807 25.23 157.422C25.1884 157.25 25.2248 157.062 25.23 156.88C25.2561 156.016 25.3186 155.151 25.2977 154.286C25.2873 153.755 25.1623 153.224 25.0686 152.698C24.9644 152.151 24.9227 151.208 25.0061 150.583C25.0165 150.516 25.0582 150.432 25.0321 150.375C24.7196 149.542 25.0217 148.656 24.7977 147.807C24.6988 147.437 24.7873 147.021 24.7873 146.625C24.7821 146.562 24.7404 146.495 24.7196 146.432C24.6727 146.484 24.605 146.531 24.579 146.588C24.2925 147.328 23.9175 148.026 23.5373 148.713C23.4123 148.932 23.3134 149.172 23.2613 149.417C23.0009 150.729 22.355 151.906 21.9384 153.167C21.6259 154.12 21.1988 155.031 20.7352 155.927C20.4071 156.568 20.1415 157.234 19.829 157.88C19.2977 158.979 18.7561 160.078 18.1988 161.161C17.9488 161.641 17.6623 162.104 17.3602 162.547C16.5634 163.698 15.9071 164.948 15.0634 166.073C14.0894 167.37 13.0061 168.573 11.829 169.687C10.9071 170.568 9.81857 171.203 8.6467 171.677C8.01649 171.927 7.34462 171.995 6.66232 171.797C5.75087 171.531 4.93315 171.094 4.1467 170.583C3.75607 170.328 3.35504 170.078 3.01649 169.766C2.02692 168.864 1.50087 167.687 1.17795 166.411C1.00607 165.719 0.828995 165.021 0.740448 164.312C0.610245 163.281 0.261276 162.292 0.271698 161.239C0.276901 160.812 0.235245 160.37 0.115448 159.963C-0.0355988 159.463 -0.009552 158.969 -0.0147552 158.463C-0.0199585 158.036 0.037323 157.604 -0.108505 157.177C-0.165802 157.016 -0.129349 156.823 -0.118927 156.641C-0.0824738 155.849 -0.0616302 155.057 0.000869751 154.266C0.0477448 153.698 0.261292 153.146 0.25087 152.568C0.245667 152.422 0.323792 152.26 0.276917 152.141C0.00608826 151.364 0.162323 150.578 0.193573 149.792C0.203995 149.542 0.276917 149.302 0.339417 149.057C0.578995 148.12 0.78212 147.177 0.995667 146.234C1.03734 146.062 1.06337 145.88 1.13629 145.713C1.40192 145.078 1.53732 144.422 1.50087 143.724C1.45399 142.739 1.73004 141.802 1.95399 140.859C2.00607 140.651 2.06337 140.443 2.08942 140.234C2.14671 139.734 2.23004 139.245 2.38629 138.76C2.58421 138.146 2.73524 137.521 2.76129 136.859C2.78212 136.406 2.92274 135.943 3.06337 135.5C3.39149 134.474 3.73524 133.458 4.10504 132.448C4.27692 131.974 4.50087 131.521 4.73524 131.078C4.86024 130.844 4.96962 130.646 4.82379 130.38C4.75087 130.245 4.84982 130.104 4.92274 129.979C5.04254 129.76 5.15712 129.531 5.28732 129.318C5.40712 129.125 5.47482 128.943 5.34462 128.719C5.30295 128.651 5.32378 128.489 5.38107 128.427C5.84982 127.906 6.0217 127.229 6.34462 126.63C6.6467 126.062 6.92796 125.474 7.21442 124.896C7.68837 123.932 8.29254 123.036 8.83942 122.109C8.87587 122.047 8.92795 121.974 8.98524 121.953C9.56337 121.739 9.68317 121.182 9.93317 120.724C10.1571 120.318 10.3967 119.917 10.6207 119.505C11.428 118.057 12.3342 116.677 13.3082 115.338C13.3498 115.281 13.4071 115.229 13.454 115.177C13.5269 115.109 13.5842 115.109 13.6207 115.177C13.6363 115.208 13.6623 115.239 13.6571 115.271C13.6415 115.338 13.6311 115.417 13.5894 115.469C13.105 116.146 12.7977 116.917 12.48 117.677C12.2144 118.307 11.9279 118.922 11.6311 119.536C11.2404 120.349 10.9748 121.193 10.7196 122.057C10.5842 122.531 10.3394 122.984 10.1259 123.437C9.99045 123.729 9.81337 124.005 9.66232 124.292C9.61545 124.38 9.5842 124.5 9.68837 124.562C9.71442 124.583 9.80817 124.5 9.87067 124.463C9.90192 124.443 9.92796 124.417 9.96442 124.406C10.0217 124.391 10.1102 124.349 10.1415 124.375C10.1884 124.411 10.2248 124.516 10.204 124.562C10.0217 124.953 9.88107 125.375 9.62587 125.708C9.37587 126.031 9.21962 126.385 9.07899 126.75C8.80295 127.453 8.56337 128.161 8.31337 128.875C8.29254 128.932 8.33942 129.01 8.35504 129.078C8.41234 129.047 8.50087 129.026 8.51649 128.979C8.73524 128.38 9.24046 127.891 9.21442 127.193C9.20921 127.099 9.2717 126.989 9.3342 126.906C10.2196 125.661 10.9748 124.292 11.5946 122.797C11.6832 122.583 11.855 122.458 11.9696 122.281C12.079 122.099 12.2769 121.87 12.2352 121.713C12.0529 121.01 12.6519 121.114 12.9748 120.943C13.0061 120.927 13.1259 121 13.1363 121.047C13.1623 121.224 13.1519 121.391 13.1623 121.568C12.7821 121.604 12.7873 121.614 12.7457 121.896C12.7196 122.073 12.704 122.239 12.6884 122.417C12.1415 122.578 11.9644 123.047 11.7925 123.516C11.7873 123.536 11.8186 123.583 11.8446 123.604C11.8602 123.62 11.9019 123.62 11.9227 123.609C12.329 123.307 12.7248 123 12.6884 122.417C12.9696 122.203 13.1779 121.948 13.1623 121.568C13.454 121.401 13.5477 121.083 13.6988 120.812C14.6936 119.026 15.7769 117.297 16.9071 115.594C17.2977 115 17.7769 114.463 18.2144 113.901C18.303 113.786 18.4488 113.677 18.4592 113.557C18.5269 112.948 18.98 112.651 19.4019 112.318C19.5113 112.234 19.6571 112.135 19.6936 112.016C19.8342 111.552 20.2613 111.302 20.4852 110.922C20.8498 110.307 21.4696 109.995 21.9175 109.489C22.1259 109.255 22.4332 109.26 22.6936 109.156C22.954 109.052 23.1675 108.922 23.3029 108.614C23.5738 107.989 23.9904 107.448 24.4748 106.958C24.7769 106.656 25.0425 106.312 25.3342 106C25.6779 105.635 26.0113 105.281 26.4696 105.052C26.4644 105.234 26.4644 105.401 26.3082 105.526C26.0998 105.693 26.0061 105.927 25.8967 106.156C25.8654 106.229 25.8967 106.281 25.98 106.297C26.0165 106.302 26.0634 106.307 26.0842 106.292C26.3863 106.036 26.6832 105.771 26.9852 105.521C27.1832 105.354 27.3029 105.135 27.4227 104.911C27.4644 104.828 27.4852 104.766 27.4175 104.734C27.3602 104.713 27.2769 104.703 27.2196 104.724C26.9592 104.823 26.8082 105.12 26.4696 105.052C26.5686 104.75 26.8134 104.62 27.0686 104.484C27.5009 104.26 27.7873 103.896 28.0217 103.484C28.2665 103.047 28.4957 102.599 28.73 102.156C28.7717 102.078 28.7509 102 28.6675 101.974C28.605 101.958 28.5113 101.937 28.4644 101.969C28.0946 102.25 27.73 102.547 27.3602 102.833C27.3498 102.844 27.3029 102.823 27.2873 102.802C27.2665 102.781 27.2457 102.734 27.2613 102.713C27.4852 102.255 27.8238 101.885 28.1675 101.521C28.3655 101.312 28.605 101.13 28.6207 100.807C28.6363 100.693 28.704 100.63 28.8186 100.62C29.4436 100.479 29.8602 99.9999 30.3446 99.6457C30.6936 99.3853 31.0217 99.1301 31.4227 98.953C31.9175 98.7291 32.3394 98.4009 32.6571 97.9374C32.8602 97.6457 33.1363 97.4061 33.3863 97.1509C33.553 96.9791 33.7144 96.953 33.73 97.0676C33.7405 97.1613 33.6884 97.2655 33.6571 97.3645C33.6519 97.3957 33.6259 97.427 33.605 97.4582C33.6675 97.4843 33.7457 97.5468 33.7925 97.5259C34.1675 97.3905 34.4748 97.1666 34.7248 96.8488C34.8082 96.7447 34.9436 96.6561 35.0738 96.6197C35.1832 96.5832 35.2561 96.6561 35.1884 96.7916C35.105 96.953 35.2404 97.0103 35.329 96.9582C35.7248 96.7186 36.0998 96.4478 36.4904 96.1978C36.5738 96.1457 36.6727 96.1249 36.7665 96.0884C36.7873 96.1926 36.8134 96.2968 36.829 96.3957C36.8394 96.5051 36.829 96.6145 36.8446 96.7186C36.8602 96.802 36.9384 96.8384 37.0113 96.8072C37.1415 96.7499 37.2665 96.6874 37.3863 96.6093C37.7821 96.3593 38.1519 96.0728 38.5634 95.8593C39.0165 95.6249 39.4488 95.3853 39.8342 95.0572C40.1936 94.7447 40.6259 94.552 41.0946 94.4791C41.8863 94.3541 42.5946 94.0259 43.3238 93.7134C44.9019 93.0363 46.4384 92.2343 48.1623 91.9322C48.579 91.8593 48.98 91.6822 49.3915 91.5572C49.5582 91.5103 49.6102 91.3905 49.6259 91.2447C49.6884 90.6718 49.5842 90.0832 49.8498 89.5416C49.9175 89.3957 49.8498 89.2707 49.7717 89.1405C49.4957 88.6822 49.5217 88.177 49.5634 87.6718C49.5738 87.5311 49.5946 87.3541 49.6832 87.2707C50.0425 86.9218 50.1207 86.4582 50.2977 86.0311C50.5061 85.5416 50.6363 85.0051 51.105 84.6614C51.1936 84.5936 51.204 84.4009 51.23 84.2655C51.2353 84.2291 51.1415 84.1353 51.1155 84.1405C50.9696 84.1822 50.829 84.2239 50.8186 84.0051C50.7925 83.4999 50.7925 82.9999 51.0061 82.5207C51.178 82.1405 51.1571 81.6926 51.5061 81.3593C51.7092 81.1614 51.5582 80.7082 51.928 80.5416C51.954 80.5259 51.928 80.3332 51.8759 80.2499C51.5373 79.6301 51.6155 78.9843 51.7977 78.3645C51.8967 78.0155 51.9852 77.677 52.0061 77.3176C52.0165 77.1041 52.079 76.8905 52.1571 76.6978C52.4748 75.9009 52.704 75.0624 53.2977 74.4061C53.3863 74.3124 53.3967 74.1405 53.4071 73.9999C53.4123 73.8957 53.5165 73.7291 53.3134 73.6978C53.2925 73.6978 53.2509 73.8853 53.2144 73.9843C53.204 74.0103 53.178 74.0468 53.1519 74.0624C53.0998 74.0989 53.0582 74.0624 53.0425 73.9634C53.0321 73.927 53.0321 73.8905 53.0373 73.8541C53.079 73.6822 53.1102 73.5051 53.1623 73.3384C53.1936 73.2343 53.2509 73.1353 53.3186 73.0572C54.0217 72.2187 54.4332 71.2291 54.7769 70.2082C54.8342 70.0364 54.9019 69.8697 54.9696 69.7082C54.98 69.677 55.0165 69.6561 55.0425 69.6249C55.0738 69.677 55.1207 69.7239 55.1311 69.7759C55.178 70.2499 55.1311 70.7082 55.0061 71.1666C54.9332 71.4426 54.8446 71.7239 54.8134 72.0051C54.7144 72.9686 54.5477 73.9166 54.2873 74.8541C54.2613 74.953 54.2769 75.0624 54.2821 75.1718C54.2821 75.203 54.3082 75.2395 54.3342 75.2603C54.3446 75.2655 54.4019 75.2395 54.4123 75.2186C54.7457 74.5416 55.079 73.8697 55.3915 73.1874C55.4644 73.0259 55.4384 72.8228 55.5165 72.6666C55.9748 71.7707 56.1623 70.7707 56.6207 69.8697C56.8134 69.4895 56.9175 69.0676 57.0582 68.6614C57.0686 68.6405 57.0269 68.5936 57.0009 68.578C56.9748 68.5676 56.928 68.5624 56.9019 68.5728C56.5113 68.7134 56.2665 69.0207 56.0321 69.3384C55.8811 69.5416 55.8446 69.5259 55.6675 69.2499C55.6311 69.1926 55.6155 69.1197 55.579 69.0572C55.5269 68.9634 55.4592 68.9634 55.4227 69.0676C55.3134 69.3801 54.9957 69.2603 54.7873 69.3801C54.5738 69.5051 54.428 69.7186 54.1519 69.7655C53.9488 69.802 53.7873 69.9739 53.6155 70.1041C52.8394 70.6874 52.0373 71.2343 51.1467 71.6249C50.6467 71.8384 50.23 72.1926 49.7665 72.4634C48.6415 73.1145 47.6207 73.9009 46.6311 74.7343C46.4384 74.8957 46.2613 75.0884 46.0009 75.1353C45.9696 75.1405 45.8863 75.0468 45.8915 75.0259C45.9488 74.8801 45.9696 74.6926 45.7561 74.7864C45.1988 75.0259 44.605 75.2134 44.105 75.5728C44.0738 75.5937 44.0373 75.6041 44.0061 75.6197C43.9071 75.6666 43.829 75.5884 43.855 75.427C43.8811 75.2916 43.9436 75.1614 43.9748 75.0259C43.9905 74.953 43.928 74.9009 43.8498 74.927C43.7509 74.9582 43.6519 75.0103 43.5738 75.078C43.1623 75.427 42.7613 75.7864 42.3498 76.1405C42.1675 76.302 42.0113 76.5103 41.704 76.3332C41.6311 76.2916 41.4123 76.3957 41.3342 76.4895C40.7405 77.177 39.855 77.3541 39.1207 77.7916C38.98 77.8801 38.7769 77.9061 38.605 77.8957C38.3394 77.8853 38.1207 77.9947 37.8811 78.078C37.5321 78.1926 37.23 78.3436 37.0425 78.6874C36.9748 78.8124 36.8655 78.9322 36.7457 78.9999C36.4957 79.1301 36.1832 79.1822 35.9748 79.3541C35.7925 79.5051 35.7144 79.7864 35.4436 79.8489C35.3915 79.8645 35.3186 79.8176 35.2561 79.802C35.2665 79.7707 35.2769 79.7395 35.2873 79.7082C35.3134 79.6249 35.4175 79.5259 35.2509 79.4634C35.2196 79.453 35.1832 79.4478 35.1467 79.4426C34.6675 79.3853 34.2248 79.4582 33.8134 79.7395C33.6102 79.8801 33.3654 79.9634 33.1415 80.0832C33.0373 80.1353 32.9852 80.3697 33.0373 80.4634C33.1311 80.6301 33.2196 80.5051 33.2925 80.4582C33.48 80.3332 33.6571 80.2291 33.8863 80.3697C34.1102 80.5051 34.4905 80.3957 34.5582 80.7916C34.5686 80.8645 34.6415 80.8384 34.7248 80.8072C35.4384 80.5624 36.1519 80.328 36.8654 80.0884C36.9644 80.052 37.0634 79.9947 37.1675 79.9895C37.2665 79.9843 37.3655 80.0364 37.4644 80.0676C37.4175 80.1093 37.3811 80.1666 37.3342 80.1926C37.0477 80.3436 36.7665 80.4999 36.4644 80.6249C36.2248 80.7239 36.2769 80.8697 36.3238 81.052C36.3655 81.2082 36.2196 81.2134 36.1311 81.2134C36.0061 81.2082 35.8029 81.2447 35.8915 81.0103C35.9279 80.9166 35.9488 80.8645 35.8602 80.8489C35.7925 80.8332 35.7092 80.8228 35.6571 80.8541C35.1832 81.1145 34.6571 81.2447 34.1623 81.4582C33.6832 81.6666 33.1363 81.7968 32.5894 81.7395C32.2144 81.703 31.8654 81.7447 31.5477 81.9374C31.2457 82.1249 30.9957 81.9999 30.7509 81.8384C30.3811 81.5884 30.105 81.2655 29.9175 80.8645C29.8238 80.6666 29.6988 80.5416 29.4123 80.5989C29.2613 80.6249 29.1519 80.3801 29.1363 80.1926C29.1207 80.0364 29.1467 79.8957 29.3186 79.8541C29.5425 79.7968 29.6988 79.6509 29.8394 79.4843C29.8811 79.4322 29.9384 79.3437 29.9227 79.3072C29.8967 79.2551 29.8082 79.2187 29.7404 79.2134C29.6363 79.203 29.5217 79.203 29.4279 79.2395C29.2352 79.3228 29.1623 79.2655 29.2352 79.078C29.2925 78.9374 29.3446 78.8072 29.1936 78.703C28.9279 78.5207 28.6415 78.3749 28.4748 78.0728C28.3759 77.8957 28.3811 77.7447 28.5269 77.5936C28.704 77.4114 28.8915 77.2447 29.1363 77.1509C29.2613 77.1041 29.4227 77.0468 29.4019 76.8801C29.3915 76.7864 29.2769 76.7082 29.2144 76.6249C29.1467 76.5311 29.1363 76.453 29.1779 76.3332C29.2561 76.1353 29.2769 75.9166 29.3394 75.7134C29.3915 75.5572 29.5686 75.4426 29.4436 75.2343C29.4123 75.1874 29.5009 75.0468 29.5634 74.9739C29.6727 74.8332 29.8082 74.7134 29.9227 74.5676C29.9852 74.4895 30.0425 74.3593 29.9175 74.2968C29.8394 74.2551 29.7092 74.2759 29.6207 74.3072C29.5217 74.3437 29.4384 74.427 29.3602 74.4999C29.2769 74.5676 29.2196 74.5624 29.1936 74.4582C29.1467 74.2759 29.0634 74.2395 28.9019 74.3541C28.7873 74.4374 28.6675 74.5364 28.5373 74.5624C28.2925 74.6197 28.329 74.4791 28.4123 74.3332C28.4488 74.2655 28.4175 74.1666 28.3446 74.1874C28.105 74.2499 27.8759 74.3489 27.6415 74.4426C27.5529 74.4739 27.48 74.4739 27.4696 74.3905C27.4488 74.2916 27.4384 74.1718 27.4748 74.0832C27.5165 73.9999 27.6154 73.9218 27.7092 73.8905C28.0321 73.7759 28.2352 73.5155 28.4488 73.2759C28.5738 73.1249 28.5946 72.953 28.3654 72.8384C28.3186 72.8124 28.2613 72.7187 28.2769 72.6822C28.3863 72.3905 28.3498 72.0259 28.6571 71.8176C28.9436 71.6249 29.1154 71.3697 29.1259 71.0103C29.1311 70.9061 29.1936 70.8072 29.2196 70.703C29.4123 69.9061 29.8967 69.3541 30.6519 69.0624C31.1311 68.8749 31.5061 68.6197 31.829 68.1822C32.2769 67.5676 32.9748 67.2134 33.6259 66.8332C34.2457 66.4739 34.8915 66.1457 35.5113 65.7916C36.0113 65.4999 36.5269 65.2499 37.0842 65.0832C37.2248 65.0416 37.2613 65.1093 37.2248 65.3332C37.2092 65.3957 37.1727 65.4947 37.204 65.5259C37.3029 65.6405 37.3967 65.5311 37.4592 65.4686C37.5842 65.3436 37.7092 65.2082 37.7977 65.0572C37.8811 64.9009 38.0009 64.8801 38.1467 64.8541C38.2196 64.8437 38.3759 64.8645 38.3082 64.7082C38.2925 64.6666 38.1832 64.6666 38.1207 64.6405C38.053 64.6145 37.9384 64.5624 37.9436 64.5468C38.0009 64.3124 38.0686 64.078 38.1519 63.8541C38.1675 63.8124 38.2769 63.7707 38.329 63.7864C38.6832 63.8853 38.9644 63.6926 39.2561 63.5624C39.4904 63.4582 39.6988 63.3593 39.9384 63.5676C40.0529 63.6718 40.2092 63.5728 40.3394 63.5103C40.7248 63.3228 41.1311 63.1614 41.5061 62.9478C41.9175 62.7187 42.3238 62.4999 42.7821 62.3853C42.9071 62.3593 43.0634 62.2812 43.0269 62.1197C43.0165 62.0624 42.8394 62.0468 42.7405 62.0103C42.6415 61.9739 42.5478 61.9166 42.6519 61.7968C42.8498 61.5728 43.105 61.453 43.3655 61.3228C43.9488 61.0364 44.5113 60.7134 45.0946 60.4374C45.6467 60.1822 46.204 59.9322 46.803 59.7811C47.9436 59.4791 49.079 59.1457 50.2144 58.8072C50.428 58.7447 50.6259 58.6926 50.8446 58.7343C50.8811 58.7447 50.9123 58.7603 50.9436 58.7811C50.9905 58.8228 50.9748 58.8905 50.8863 58.9218C50.355 59.1197 49.829 59.3749 49.2769 59.4843C48.8082 59.578 48.3707 59.6874 47.9852 59.9686C47.7769 60.1197 47.4748 60.0468 47.303 60.2603C47.2613 60.3124 47.2352 60.3749 47.204 60.4322C47.2665 60.4582 47.329 60.4895 47.3967 60.5103C47.428 60.5207 47.4696 60.5207 47.5061 60.5155C48.9123 60.2759 50.3342 60.0728 51.6988 59.6353C51.9384 59.5572 52.1936 59.5051 52.4123 59.3957C52.9436 59.1249 53.4592 59.2551 53.98 59.3853C54.0686 59.4061 54.0946 59.5936 54.0165 59.6561C53.8759 59.7655 53.7248 59.8645 53.579 59.9739C53.553 59.9895 53.5321 60.0207 53.5061 60.0416C53.5686 60.078 53.6311 60.1457 53.6884 60.1405C54.2509 60.0884 54.8082 60.0207 55.2561 59.6093C55.355 59.5155 55.4957 59.6093 55.4957 59.7864C55.4957 59.8645 55.4644 59.9582 55.5582 59.9426C55.8394 59.9061 56.1155 59.8384 56.3967 59.7968C56.5582 59.7707 56.6571 59.6718 56.7196 59.5416C57.105 58.7655 57.48 57.9895 57.8602 57.2186C58.2196 56.4791 58.4696 55.677 59.0321 55.0468C59.079 54.9947 59.105 54.9166 59.1571 54.8749C59.2092 54.8384 59.2925 54.8072 59.3498 54.8228C59.4019 54.8332 59.48 54.9061 59.48 54.953C59.4905 55.2759 59.48 55.5989 59.4852 55.9166C59.4852 56.0259 59.5373 56.0416 59.6311 55.9895C59.7925 55.9114 59.8915 55.9478 59.8967 56.1509C59.9019 56.2499 59.9332 56.3541 59.954 56.453C60.0217 56.3801 60.079 56.302 60.1467 56.2291C60.1675 56.2082 60.2144 56.1822 60.2248 56.1926C60.2561 56.2082 60.2873 56.2447 60.2873 56.2759C60.2873 56.3853 60.2925 56.4947 60.2613 56.5936C59.8603 57.9114 59.6519 58.3697 58.73 60.0155C58.6988 60.0728 58.6675 60.1561 58.6832 60.2186C58.6936 60.2707 58.7561 60.3228 58.803 60.3593C58.829 60.3801 58.8811 60.3853 58.9071 60.3749C58.9696 60.3436 59.0425 60.3072 59.079 60.2499C59.2196 60.0416 59.3602 59.8332 59.4748 59.6093C59.6259 59.3176 59.6832 59.4322 59.7613 59.6457C59.7821 59.6978 59.8707 59.7291 59.9332 59.7551C60.0946 59.8228 60.2613 59.8801 60.4227 59.953C60.5842 60.0259 60.7769 60.2134 60.8915 60.1718C61.0738 60.1093 61.2196 59.9062 61.355 59.7447C61.5634 59.4895 61.6884 59.1822 61.6988 58.8489C61.7092 58.3593 61.8342 57.9426 62.2769 57.6614C62.3915 57.5936 62.4905 57.4478 62.5269 57.3228C62.6832 56.7655 63.0373 56.2968 63.178 55.7291C63.2769 55.328 63.6363 55.0364 63.8134 54.6457C64.0061 54.2239 64.2457 53.8176 64.5165 53.4426C64.7248 53.1561 64.855 52.7968 65.1832 52.6041C65.2405 52.5676 65.2977 52.5103 65.329 52.4478C65.4436 52.2291 65.5217 51.9843 65.6571 51.7811C65.7925 51.578 65.954 51.3436 66.2665 51.5207C66.3186 51.3905 66.3498 51.2499 66.4332 51.1457C66.8863 50.5728 67.1675 49.9218 67.454 49.2603C67.6311 48.8332 67.8915 48.4374 68.1207 48.0311C68.1884 47.9061 68.303 47.7864 68.1623 47.6614C68.1363 47.6405 67.9905 47.7655 67.8967 47.8228C67.8394 47.8541 67.7717 47.8801 67.7092 47.9061C67.6936 47.802 67.6623 47.6978 67.6675 47.5936C67.6675 47.5311 67.704 47.453 67.7457 47.4061C68.0686 47.0624 68.4019 46.7343 68.6467 46.3332C68.6988 46.2447 68.8186 46.1405 68.8967 46.1457C69.3342 46.1666 69.4852 45.828 69.7509 45.5989C70.0217 45.3593 70.3446 45.1978 70.4071 44.802C71.0061 43.9582 71.4905 43.0311 72.1936 42.2551C72.3863 42.0415 72.4905 41.7603 72.6623 41.5259C72.8342 41.2864 72.7925 41.1041 72.5738 40.9374C72.6728 40.6613 72.5165 40.604 72.3082 40.6613C71.928 40.7603 71.553 40.8905 71.178 41.0103C70.8498 41.1197 70.6102 41.3384 70.5165 41.6666C70.3759 42.1666 70.0061 42.5207 69.7405 42.9426C69.7248 42.9686 69.6936 42.9843 69.6675 43.0051C69.6519 42.9374 69.6102 42.8697 69.6155 42.8072C69.6519 42.4322 69.8915 42.1509 70.0477 41.8332C70.105 41.7186 70.2561 41.5989 70.1467 41.4634C70.0946 41.3957 69.9488 41.4009 69.8498 41.3593C69.7561 41.3228 69.7352 41.2603 69.7977 41.2238C69.9436 41.1301 70.1363 41.0988 70.23 40.927C70.2457 40.8957 70.2665 40.8541 70.2561 40.8384C70.2405 40.8072 70.1988 40.7864 70.1675 40.7759C70.0998 40.7603 70.0269 40.7551 69.954 40.7499C69.6675 40.7343 69.5269 41.1561 69.1832 40.9947C68.8863 40.8489 68.6311 41.0884 68.3602 41.1457C68.0477 41.203 67.7561 41.3697 67.4488 41.4686C67.1728 41.5572 66.8863 41.5936 66.6155 41.6822C66.3446 41.7759 66.0894 41.927 65.8186 42.0051C65.2977 42.1509 64.7769 42.3176 64.2457 42.3801C63.5269 42.4686 62.8394 42.6561 62.1623 42.8905C61.9488 42.9634 61.7405 42.9791 61.5269 42.9374C61.4957 42.9322 61.4644 42.9009 61.4332 42.8801C61.4696 42.8332 61.4957 42.7759 61.5373 42.7395C61.5842 42.6926 61.6519 42.6613 61.7092 42.6249C61.6519 42.5936 61.5894 42.5311 61.5373 42.5363C60.553 42.7238 59.5634 42.9113 58.579 43.1093C57.9488 43.2343 57.3134 43.3697 56.6675 43.3905C56.5582 43.3957 56.4436 43.3853 56.3446 43.4166C55.1623 43.7395 53.928 43.7395 52.7352 43.9947C52.5946 44.0207 52.4488 44.0468 52.3082 44.0364C50.8967 43.9478 49.5269 44.2603 48.1467 44.4374C48.0009 44.4582 47.8603 44.4843 47.7144 44.4791C46.4592 44.4374 45.2092 44.6666 43.9488 44.5572C43.5217 44.5207 43.0998 44.5155 42.6623 44.6301C42.329 44.7239 41.9488 44.6718 41.5894 44.6614C40.6155 44.6301 39.6415 44.578 38.6727 44.5416C38.2769 44.5259 37.8811 44.4791 37.4904 44.6041C37.3707 44.6405 37.2457 44.5207 37.2873 44.4374C37.3186 44.3801 37.3654 44.2916 37.4071 44.2916C37.9748 44.2812 38.5217 44.0728 39.105 44.2655C39.3602 44.3489 39.6832 44.3228 39.9592 44.2603C40.3186 44.177 40.6727 44.203 41.0321 44.1978C42.1832 44.177 43.3342 44.2082 44.48 44.1041C45.6207 43.9999 46.7665 43.9791 47.9019 43.8436C48.1467 43.8124 48.4019 43.7343 48.6102 43.6093C48.7873 43.4999 48.5634 43.4791 48.5061 43.4374C48.4227 43.3749 48.3238 43.328 48.4384 43.2134C48.5686 43.078 48.7405 42.953 48.9175 43.0207C49.5478 43.2655 50.0998 43.0363 50.6519 42.7811C50.7509 42.7343 50.8238 42.6457 50.9227 42.6093C51.1102 42.5311 51.3707 42.3541 51.2821 42.8072C51.2769 42.8332 51.3707 42.9114 51.428 42.9166C51.7925 42.9634 52.1415 42.9218 52.4436 42.6718C52.6102 42.5363 52.7978 42.427 52.98 42.328C53.1675 42.2238 53.355 42.1197 53.5894 42.2447C53.6675 42.2864 53.7977 42.2551 53.8915 42.2238C54.5686 41.9947 55.2925 42.0051 55.9592 41.7291C56.2509 41.6041 56.5842 41.5676 56.9019 41.5155C57.3915 41.4426 57.7561 41.1718 58.0686 40.8072C58.1415 40.7291 58.1311 40.6718 58.0373 40.6509C57.9332 40.6249 57.829 40.6041 57.7248 40.5936C57.0373 40.5363 56.3759 40.7447 55.6988 40.802C55.4019 41.0155 55.0686 40.9738 54.7665 40.8645C54.3707 40.7238 54.0165 40.7655 53.6102 40.8332C53.1259 40.9165 52.6207 40.8749 52.1155 40.953C51.3082 41.0884 50.4748 41.1093 49.6467 41.1249C48.4957 41.1405 47.355 41.203 46.2144 41.3436C46.0009 41.3697 45.7821 41.3384 45.5686 41.3436C44.7405 41.3541 43.9175 41.2707 43.0894 41.4113C42.6415 41.4843 42.1571 41.3853 41.6936 41.3593C41.5946 41.3541 41.5582 41.2916 41.5998 41.2291C41.6363 41.1666 41.6832 41.0832 41.7352 41.0728C42.2977 40.9478 42.8602 40.8541 43.4384 40.8593C43.98 40.8593 44.5217 40.8801 45.0582 40.8801C45.3134 40.8801 45.5686 40.8853 45.8082 40.8228C46.1311 40.7447 46.454 40.7707 46.7769 40.7499C47.7769 40.6718 48.7821 40.6353 49.7352 40.2655C49.7977 40.2447 49.8394 40.177 49.8915 40.1301C49.8394 40.0936 49.7873 40.0363 49.7248 40.0207C49.5842 39.9999 49.4384 39.9947 49.2977 39.9843C49.1519 39.9738 48.9748 40.0155 48.8707 39.9478C48.2196 39.5364 47.6363 39.7759 47.0321 40.0572C46.8498 40.1405 46.8238 40.0155 46.8707 39.8332C46.9071 39.6978 46.7405 39.6874 46.6571 39.703C46.3446 39.7707 46.0217 39.828 45.73 39.953C44.8498 40.328 43.928 40.4009 42.9905 40.4009C42.6675 40.4009 42.3498 40.3645 42.0321 40.4843C41.8394 40.552 41.605 40.5155 41.3863 40.5103C41.3238 40.5103 41.204 40.4634 41.204 40.4374C41.1988 40.3176 41.3082 40.2915 41.4019 40.2707C41.6103 40.2186 41.8238 40.1197 42.0269 40.1301C42.4436 40.1509 42.7925 39.953 43.1727 39.8593C43.2092 39.8541 43.2509 39.7395 43.2352 39.6926C43.2196 39.6405 43.1363 39.5832 43.0842 39.578C42.9436 39.5676 42.7977 39.5832 42.6571 39.5988C42.48 39.6145 42.303 39.6718 42.1259 39.6666C41.2613 39.6509 40.3967 39.6197 39.5321 39.5936C39.355 39.5884 39.1519 39.604 39.0269 39.4582C38.5634 38.9426 38.0009 39.0832 37.4227 39.1561C36.4227 39.2811 35.4175 39.2759 34.4384 38.9738C34.1936 38.9009 33.9488 38.8593 33.6988 38.8541C32.9071 38.828 32.1154 38.7916 31.3186 38.7811C30.9644 38.7811 30.605 38.7707 30.2509 38.8697C30.0165 38.9322 29.7509 38.9009 29.5009 38.8957C29.3238 38.8905 29.1832 38.6509 28.9592 38.927C28.8238 39.0988 28.5061 38.8645 28.2613 38.8436C27.8967 38.8228 27.73 38.3697 27.3134 38.3957C26.9904 38.4113 26.6832 38.2863 26.3707 38.2082C25.8238 38.0624 25.3029 37.7655 24.704 37.8228C24.605 37.828 24.579 37.8905 24.6259 37.953C24.6415 37.9791 24.6675 38.0051 24.6988 38.0259C24.7248 38.0468 24.7613 38.052 24.7925 38.078C24.8186 38.0988 24.8498 38.1301 24.855 38.1613C24.8602 38.177 24.8134 38.2186 24.7873 38.2238C24.5113 38.2707 24.2769 38.1509 24.1623 37.9218C24.3602 37.6093 24.0582 37.5207 23.9071 37.5103C23.4436 37.4895 23.1311 37.2186 22.7873 36.9686C22.5009 36.7655 22.1988 36.6926 21.9644 37.0728C21.8863 37.1978 21.7821 37.1301 21.6832 37.0884C21.4436 36.9895 21.2821 36.8072 21.1207 36.6041C20.9957 36.4374 20.8134 36.3124 20.6571 36.1613C20.5269 36.0363 20.3967 35.9999 20.1988 35.9947C19.9071 35.9843 19.7665 35.6561 19.5738 35.4478C18.9696 34.7916 18.7352 34.7447 18.0738 35.3228C17.8759 35.4999 17.6832 35.3957 17.5113 35.4791C17.4175 35.5207 17.2925 35.6405 17.3811 35.7186C17.6727 35.9738 18.0061 36.1926 17.9175 36.6613C18.3498 37.1301 18.6311 37.7291 19.2248 38.0728C19.9384 38.4843 20.6154 38.9634 21.3029 39.4218C21.4175 39.4999 21.5113 39.6197 21.5946 39.7395C21.6207 39.7811 21.5946 39.8853 21.5582 39.9322C21.5217 39.9791 21.4227 40.0311 21.3811 40.0155C21.0165 39.8645 20.6415 39.7291 20.3082 39.5259C19.5738 39.0832 18.855 38.6041 18.1363 38.1249C17.803 37.9009 17.5686 37.5832 17.3707 37.2291C17.1727 36.8801 17.0946 36.4947 16.9644 36.1249C16.829 35.7551 16.5582 35.4426 16.6207 35.0103C16.6311 34.9166 16.5894 34.7811 16.5217 34.7186C16.0425 34.2603 16.1727 33.7343 16.3707 33.2238C16.4592 32.9999 16.4957 32.828 16.3394 32.6301C16.2561 32.5155 16.1571 32.3853 16.1363 32.2551C16.0165 31.3593 15.8655 31.1457 16.8394 30.7395C17.1363 30.6145 17.4227 30.479 17.7196 30.3488C17.6884 30.5624 17.6675 30.7655 17.6154 30.9686C17.5738 31.1093 17.6259 31.1613 17.7352 31.1874C17.8394 31.2082 17.9436 31.2134 18.0529 31.2134C18.4071 31.2134 18.5321 31.1145 18.5582 30.8124C18.5686 30.703 18.5842 30.5936 18.5686 30.4895C18.5113 30.052 18.6675 29.6822 19.0373 29.4843C19.6675 29.1509 19.5582 28.6405 19.454 28.1145C19.4175 27.9426 19.3654 27.7707 19.3134 27.6041C19.2613 27.4322 19.1519 27.3853 18.9904 27.4478C18.5269 27.6353 18.0686 27.828 17.605 28.0103C17.4644 28.0624 17.4957 28.1561 17.5217 28.2551C17.605 28.5259 17.6988 28.7811 17.7769 29.052C17.5477 29.1509 17.329 29.2291 17.0686 29.2186C16.8394 29.2134 16.6623 29.3436 16.5165 29.5207C16.4175 29.6405 16.3654 29.9165 16.1467 29.7707C16.0061 29.6822 16.1988 29.5311 16.2561 29.4166C16.3602 29.1874 16.4957 28.9739 16.605 28.7447C16.6467 28.6561 16.704 28.5103 16.6623 28.453C16.4488 28.1301 16.605 27.927 16.829 27.7082C16.98 27.5572 16.9957 27.3957 16.7613 27.2863C16.6207 27.2186 16.5686 27.0884 16.5113 26.953C16.4019 26.7186 16.4748 26.4739 16.73 26.4791C17.4332 26.4791 17.7613 26.0728 17.9436 25.4738C17.9904 25.328 18.0842 25.2395 18.204 25.1509C18.6727 24.8176 19.105 24.4426 19.6259 24.177C20.23 23.8697 20.8238 23.5259 21.3967 23.1561C21.6832 22.9738 21.9957 22.927 22.2977 22.8436C22.3134 22.8384 22.3863 22.953 22.3915 23.0155C22.4123 23.2238 22.2769 23.3384 22.105 23.4218C22.0217 23.4582 21.9957 23.5103 22.0373 23.5936C22.0842 23.6926 22.1675 23.7707 22.2769 23.7551C22.4175 23.729 22.5582 23.6874 22.6884 23.6353C23.6884 23.2239 24.7717 23.1561 25.8082 22.9009C26.1519 22.8176 26.4644 22.729 26.6363 22.3332C26.7509 22.0728 27.1155 22.0415 27.3863 21.9582C27.428 21.9426 27.5009 22.0051 27.5582 22.0311C27.5373 22.0572 27.5165 22.0884 27.4904 22.1197C27.4019 22.2239 27.2925 22.328 27.2144 22.4478C27.1884 22.4895 27.2092 22.6197 27.2404 22.6353C27.6519 22.8384 27.5269 23.0207 27.2509 23.2343C27.1936 23.2811 27.1832 23.4374 27.2144 23.5207C27.2613 23.6457 27.3967 23.5988 27.4904 23.5676C27.7925 23.453 28.1207 23.453 28.4071 23.2655C28.6832 23.0884 29.0113 23.052 29.3394 23.0259C29.5373 23.0051 29.6102 22.6718 29.4696 22.4999C29.2769 22.2759 29.2873 22.2811 29.3707 22.203C30.0686 21.5624 30.8967 21.1353 31.7769 20.8228C32.0425 20.7291 31.8082 20.4999 31.9436 20.4374C32.0634 20.3749 32.23 20.3593 32.3602 20.3853C32.8029 20.4686 33.2144 20.3593 33.6363 20.2447C33.9748 20.1457 34.303 19.9738 34.6832 20.0311C34.8134 20.0468 34.9696 19.9999 35.0946 19.9374C35.6519 19.6666 36.2405 19.5311 36.8394 19.4061C37.1155 19.3488 37.4019 19.2707 37.6571 19.1561C38.2873 18.8645 38.9592 18.7551 39.6259 18.6249C40.1832 18.5103 40.7613 18.4686 41.3238 18.3645C41.6363 18.302 41.928 18.1457 42.2457 18.0832C42.9436 17.9374 43.6519 17.8124 44.355 17.6926C44.8863 17.6093 45.4332 17.5884 45.9488 17.453C46.4488 17.3228 46.9436 17.3489 47.4436 17.3697C47.6155 17.3749 47.8446 17.3332 47.8811 17.5363C47.9019 17.6249 47.6467 17.6249 47.5061 17.6405C46.2925 17.7811 45.1259 18.1457 43.9332 18.3645C43.0165 18.5311 42.105 18.6822 41.1988 18.8749C40.428 19.0416 39.6415 19.1822 38.9175 19.4686C37.7457 19.9322 36.5321 20.2291 35.329 20.5572C35.2613 20.5728 35.1988 20.6093 35.1363 20.6405C35.2248 20.6718 35.3134 20.7343 35.4019 20.7343C35.6155 20.7343 35.8602 20.7707 36.0373 20.677C36.5269 20.427 37.0842 20.453 37.5842 20.2499C37.7144 20.1978 37.8707 20.1926 37.9904 20.302C37.9175 20.354 37.8394 20.4061 37.7613 20.4582C37.428 20.6874 37.0634 20.7968 36.6623 20.8593C36.1675 20.9374 35.6884 21.0989 35.204 21.2291C35.1727 21.2395 35.1467 21.2707 35.1154 21.2916C35.1727 21.3228 35.2248 21.3749 35.2821 21.3801C35.4279 21.3957 35.5842 21.4218 35.7144 21.3801C36.4644 21.1301 37.2509 21.078 38.0217 20.9322C38.0998 20.9218 38.2665 20.8957 38.1675 21.0884C38.0998 21.2239 38.1936 21.302 38.2977 21.2916C39.6519 21.1405 41.0009 20.9791 42.3498 20.8228C42.3863 20.8176 42.4227 20.8176 42.4592 20.8072C44.1102 20.3489 45.8342 20.2291 47.5009 19.8124C47.8655 19.7186 48.2457 19.5468 48.6623 19.6926C49.0425 19.828 49.4332 19.6353 49.829 19.6718C51.1311 19.8072 52.4019 19.5363 53.6675 19.302C54.0686 19.229 54.4384 19.2186 54.829 19.2447C54.6936 19.552 54.3602 19.5259 54.1102 19.6353C53.8811 19.7343 53.6363 19.8072 53.4019 19.8957C53.3915 19.9009 53.3759 19.9478 53.3811 19.9582C53.4071 19.979 53.4384 20.0103 53.4696 20.0155C53.579 20.0155 53.6988 20.0363 53.7873 19.9999C54.3811 19.7447 55.0009 20.0155 55.605 19.8749C56.1623 19.7447 56.73 19.6666 57.2977 19.5936C57.5061 19.5676 57.73 19.5832 57.9436 19.6197C58.1727 19.6561 58.4384 19.5207 58.6259 19.7499C58.4332 19.8957 58.2092 19.802 58.0009 19.828C57.6102 19.8853 57.2144 19.9113 56.8394 19.9999C55.9592 20.2134 55.0425 20.0207 54.1675 20.2759C53.8655 20.3593 53.5217 20.3124 53.1988 20.2811C52.5894 20.2291 52.0009 20.2134 51.3915 20.3957C50.7405 20.5832 50.053 20.6561 49.3759 20.7186C49.0113 20.7499 48.6727 20.8488 48.329 20.9426C47.5321 21.1561 46.73 21.3436 45.9175 21.4791C45.704 21.5155 45.4957 21.5728 45.2873 21.6405C44.9123 21.7603 44.5373 21.8697 44.1311 21.8124C43.8655 21.7759 43.6363 21.8801 43.4123 21.9947C43.2405 22.0832 43.3707 22.1301 43.4384 22.1926C43.4852 22.2343 43.5217 22.2916 43.5582 22.3436C43.5269 22.3593 43.4957 22.3853 43.4644 22.3905C43.2457 22.427 43.0321 22.4374 42.8394 22.302C42.6884 22.1926 42.5165 22.1561 42.329 22.1666C42.0582 22.1822 41.9905 22.1822 41.9019 22.5207C41.7925 22.9478 41.7873 22.9582 41.4384 22.953C41.1155 22.9478 40.7665 23.052 40.48 22.8801C40.1103 22.6509 39.7977 22.7759 39.4592 22.9113C39.2613 22.9895 39.0582 23.0468 38.8498 23.1093C38.4384 23.2343 38.0061 23.3124 37.6154 23.4791C36.6154 23.9009 35.5634 24.0624 34.5009 24.1718C34.204 24.203 33.9644 24.3749 33.6727 24.4009C33.605 24.4061 33.5425 24.4374 33.4748 24.4582C33.5269 24.479 33.5842 24.5155 33.6415 24.5207C34.2457 24.5676 34.8498 24.5051 35.4488 24.6249C35.553 24.6457 35.6727 24.6405 35.7717 24.6093C36.8707 24.2447 38.0529 24.3645 39.1571 24.0155C39.9488 24.052 40.7092 23.7134 41.5061 23.8124C41.9123 23.8593 42.2769 23.6665 42.6623 23.5832C43.3967 23.4218 44.1311 23.2343 44.8915 23.3541C44.928 23.3593 44.98 23.4009 44.98 23.4113C44.9696 23.4634 44.954 23.5259 44.9123 23.5572C44.8602 23.6041 44.7873 23.6197 44.7196 23.6509C44.0634 23.9947 43.3394 24.0051 42.6311 24.0936C41.6363 24.2238 40.6363 24.3176 39.6415 24.4478C38.7404 24.5624 37.9175 24.9218 37.1311 25.3593C37.0061 25.427 36.8707 25.5468 36.7509 25.5363C36.0061 25.4738 35.3759 25.8957 34.6727 26.0103C34.4436 26.0468 34.2665 26.0728 34.0634 25.953C33.8967 25.8488 33.6727 25.8488 33.5686 25.9999C33.4488 26.1822 33.3811 26.2863 33.1988 26.0832C33.1519 26.0311 33.0894 25.979 33.0269 25.9582C32.8759 25.9113 32.5113 26.0832 32.5165 26.1926C32.5269 26.2915 32.7873 26.6822 32.855 26.6874C33.0373 26.6978 33.2196 26.6822 33.3967 26.7186C33.7717 26.7863 33.5009 26.8697 33.4123 26.9999C33.2873 27.177 33.4384 27.4738 33.6727 27.578C33.7665 27.6249 33.8759 27.6405 33.9644 27.6978C34.0009 27.7239 34.0009 27.8176 34.0009 27.8853C34.0009 27.9114 33.9644 27.9426 33.9332 27.9582C33.6623 28.104 33.3707 27.9999 33.0894 28.0363C33.0165 28.0415 32.9488 28.0728 32.8811 28.0936C32.954 28.1666 33.0269 28.2343 33.0894 28.3072C33.178 28.4061 33.1519 28.5363 33.0477 28.5676C32.8498 28.6353 32.6363 28.6561 32.4279 28.6978C32.3394 28.7186 32.3082 28.7811 32.3446 28.8645C32.3759 28.927 32.4019 29.0155 32.454 29.0363C32.5842 29.0832 32.73 29.1145 32.8707 29.1197C33.3707 29.1405 33.8759 29.1249 34.3759 29.1666C34.9748 29.2082 35.4957 28.979 36.0217 28.7551C36.0529 28.7395 36.079 28.7134 36.1102 28.6978C36.0477 28.6718 35.9852 28.6197 35.9279 28.6249C35.7196 28.6457 35.5113 28.703 35.2977 28.7134C35.204 28.7186 35.1988 28.6405 35.2404 28.5624C35.3707 28.3436 35.48 28.1249 35.7925 28.1353C36.0165 28.1405 36.2248 28.078 36.3707 27.8905C36.2717 27.4426 36.6832 27.5415 36.8811 27.4113C36.9123 27.3905 36.9488 27.3697 36.98 27.3697C37.7821 27.3228 38.5113 27.0364 39.2509 26.7603C39.7196 26.5832 40.204 26.4478 40.6832 26.302C41.303 26.1197 41.9071 25.8957 42.5165 25.6926C42.8915 25.5728 43.2821 25.5624 43.4957 25.1613C43.5321 25.0936 43.7196 25.0207 43.7717 25.052C44.053 25.2343 44.3186 25.0624 44.5738 25.0207C44.8186 24.9895 45.053 24.8645 45.2925 24.7863C45.4332 24.7395 45.4748 24.8436 45.5009 24.953C45.5373 25.078 45.6467 25.2134 45.4644 25.3176C45.4019 25.3488 45.3394 25.3853 45.2717 25.4113C45.1727 25.453 45.0686 25.479 44.9696 25.5207C43.9123 25.9686 42.8238 26.3176 41.7352 26.677C41.2613 26.8332 40.8186 27.0832 40.355 27.2863C40.2665 27.3228 40.2509 27.3593 40.2665 27.4374C40.2769 27.4895 40.4436 27.6249 40.5165 27.5936C40.6155 27.552 40.7144 27.5051 40.8134 27.4634C41.2405 27.2916 41.6519 27.0311 42.1467 27.1249C43.2509 26.8124 44.3967 26.6613 45.4748 26.2395C45.7405 26.1353 46.0165 26.0468 46.2821 25.9426C46.5165 25.8436 46.4905 26.052 46.5477 26.1561C46.5946 26.2395 46.6936 26.3228 46.605 26.4478C46.5321 26.5572 46.5946 26.6874 46.6988 26.6509C47.079 26.5103 47.4957 26.5884 47.855 26.4582C48.355 26.2707 48.855 26.3489 49.355 26.3541C49.8186 26.3645 50.2873 26.3436 50.7144 26.6041C50.8498 26.6822 51.2353 26.3124 51.1988 26.1405C51.1936 26.0936 51.1102 26.0207 51.0686 26.0207C50.7509 26.0415 50.4227 25.9478 50.1155 26.0988C49.7665 26.2655 49.4071 26.1561 49.0582 26.0936C49.0269 26.0884 49.0009 26.052 48.9696 26.0311C49.0009 26.0103 49.0269 25.979 49.0582 25.9738C49.553 25.9061 50.0477 25.8384 50.5477 25.7811C51.0009 25.7238 51.48 25.9061 51.9175 25.6197C52.0165 25.552 52.204 25.5989 52.3446 25.6197C53.105 25.7134 53.8446 25.5988 54.5686 25.3749C54.6675 25.3436 54.8238 25.302 54.8707 25.3488C55.1363 25.6145 55.4019 25.4218 55.678 25.3957C56.1207 25.354 56.4957 25.1249 56.9071 25.0311C57.2977 24.9426 57.6571 24.8749 57.98 24.6093C58.1363 24.4791 58.3811 24.4634 58.5894 24.4061C58.7196 24.3645 58.9019 24.3801 58.9019 24.1874C58.9071 24.0884 58.8498 23.9843 58.8082 23.8905C58.7405 23.7343 58.7613 23.5989 58.9332 23.5572C59.8707 23.302 60.8082 23.0624 61.7457 22.8176C62.1988 22.9113 62.5842 22.6457 63.0009 22.5624C63.4852 22.4634 63.9332 22.2082 64.4488 22.177C64.6467 22.1665 64.8915 22.0728 65.0269 21.9322C65.1884 21.7655 65.3603 21.6978 65.5738 21.6405C65.8811 21.552 66.1727 21.4061 66.4696 21.2759C66.5738 21.2291 66.6519 21.1301 66.6155 21.0207C66.5894 20.927 66.5165 20.8228 66.4384 20.7655C66.2821 20.6613 66.0894 20.6509 65.9175 20.7082C65.5998 20.8124 65.2873 20.8541 64.9592 20.7968C64.8967 20.7863 64.8394 20.7238 64.7821 20.6874C64.8342 20.6457 64.8863 20.578 64.9488 20.5728C65.3394 20.5259 65.6936 20.3488 66.0946 20.3124C66.4644 20.2759 66.8655 20.1926 67.1936 19.9113C67.3655 19.7603 67.6519 19.6666 67.8863 19.6666C68.3915 19.6718 68.7613 19.3541 69.1988 19.2134C69.2457 19.1978 69.2925 19.1093 69.303 19.0468C69.3238 18.9009 69.1988 18.8749 69.0998 18.8593C68.954 18.8384 68.8082 18.8072 68.6675 18.8228C68.0686 18.8957 67.4696 18.9843 66.8707 19.0728C66.6467 19.1041 66.4384 19.0988 66.2821 18.9061C66.2561 18.8697 66.2509 18.7551 66.2613 18.7499C66.4957 18.6718 66.7352 18.5572 66.9748 18.5311C67.6884 18.453 68.4071 18.3853 69.1259 18.3697C69.5009 18.3593 69.829 18.302 70.1311 18.0676C70.2977 17.9374 70.4957 17.8384 70.6884 17.7447C70.8134 17.6822 70.9644 17.6093 71.0894 17.6249C72.0998 17.7343 73.0946 17.4634 74.105 17.5416C74.428 17.5676 74.7457 17.5676 75.0634 17.6666C75.2665 17.7291 75.4853 17.7655 75.6988 17.7707C76.8186 17.8124 77.8915 18.1249 78.9696 18.3905C79.3134 18.4738 79.6467 18.6197 79.9696 18.7707C80.6519 19.0936 81.3134 19.4634 82.0009 19.7707C82.3394 19.927 82.5946 20.177 82.8759 20.3957C83.1415 20.604 83.3967 20.7551 83.7457 20.7447C84.8863 20.7134 85.9436 21.0311 86.9436 21.5624C87.2977 21.7499 87.6623 21.8801 88.079 21.8541C88.2561 21.8436 88.428 21.8905 88.5113 22.0988C88.5634 22.2238 88.6884 22.1509 88.7821 22.1666C89.204 22.2343 89.6415 22.2603 89.9436 22.6249C89.98 22.6666 89.9905 22.7603 89.9748 22.8176C89.9644 22.8749 89.9071 22.9634 89.855 22.9686C89.6832 22.9947 89.5009 22.9843 89.3238 23.0051C89.2613 23.0103 89.178 23.0572 89.1571 23.1041C89.1102 23.2134 89.1519 23.3228 89.2509 23.3749C89.5009 23.4999 89.7352 23.7551 90.0477 23.5936C90.355 23.4374 90.605 23.5572 90.8498 23.7134C91.0269 23.8332 91.178 24.0051 91.3707 24.0936C91.6363 24.2186 91.9384 24.2551 92.1727 24.0103C92.5321 23.6353 92.9384 23.3697 93.48 23.3488C93.579 23.3436 93.678 23.2655 93.7769 23.2186C94.6623 22.7447 95.5425 22.2603 96.4384 21.802C97.2665 21.3801 98.1155 20.9895 98.954 20.5832C99.2092 20.4582 99.48 20.3541 99.7248 20.203C99.9175 20.0832 100.1 19.9999 100.329 20.0363C100.74 20.0988 101.105 19.927 101.475 19.7916C102.793 19.3124 104.095 18.7864 105.423 18.3541C106.615 17.9686 107.834 17.6666 109.048 17.3384C109.808 17.1353 110.574 16.953 111.345 16.7811C112.006 16.6353 112.668 16.4791 113.35 16.4634C113.819 16.453 114.251 16.2707 114.73 16.2551C115.261 16.2395 115.787 16.0884 116.313 16.0051C116.459 15.9843 116.605 15.979 116.746 15.9738C118.798 15.9165 120.85 15.8853 122.902 16.0155C123.584 16.0572 124.272 16.0988 124.954 16.1249C125.423 16.1457 125.876 16.2447 126.334 16.3488C126.855 16.4686 127.402 16.3957 127.907 16.6718C128.131 16.7916 128.464 16.7603 128.751 16.6666C129.246 16.4947 129.73 16.5363 130.22 16.7186C130.558 16.8488 130.928 16.8853 131.277 16.7863C131.537 16.7082 131.766 16.6978 131.996 16.8436C132.345 17.0624 132.735 17.0884 133.131 17.1197C133.428 17.1405 133.709 17.0311 133.98 17.0572C134.209 17.078 134.407 17.3176 134.641 17.3801C134.954 17.4582 135.282 17.453 135.605 17.4895C135.819 17.5103 136.058 17.479 136.24 17.5676C137.251 18.052 138.365 18.2082 139.397 18.5988C140.464 18.9947 141.584 19.3072 142.563 19.9374C142.803 20.0884 143.053 20.2551 143.355 20.2447C143.668 20.2291 143.907 20.3697 144.147 20.5363C144.235 20.5988 144.339 20.7082 144.418 20.6926C144.886 20.5988 145.136 20.9322 145.454 21.1561C145.834 21.427 146.235 21.6666 146.652 21.8853C147.22 22.177 147.683 22.6561 148.319 22.8384C148.47 22.8801 148.49 23.052 148.496 23.1978C148.496 23.3176 148.548 23.4061 148.673 23.4166C148.808 23.4322 148.865 23.3436 148.876 23.2291C148.897 22.8384 148.944 22.4426 148.865 22.0468C148.605 20.6978 148.589 19.3332 148.662 17.9686C148.688 17.4322 148.777 16.8905 148.673 16.3541C148.657 16.2551 148.688 16.1457 148.699 16.0416C148.746 15.578 148.803 15.1093 148.839 14.6457C148.892 13.9999 148.923 13.3593 149.126 12.7291C149.402 11.8749 149.407 10.9582 149.694 10.1041C149.964 9.28636 150.173 8.45822 150.272 7.59364C150.334 7.03114 150.496 6.47386 150.579 5.90094C150.626 5.59364 150.782 5.29156 150.918 4.99989C151.1 4.60927 151.287 4.21864 151.511 3.84885C151.777 3.41655 152.006 2.97385 152.089 2.46864C152.214 1.71344 152.777 1.30199 153.376 0.979065C153.907 0.697815 154.506 0.536362 155.074 0.30719C155.225 0.249893 155.345 0.30719 155.485 0.343643C156.105 0.515518 156.72 0.687393 157.381 0.661346C158.48 0.614471 159.303 1.18739 159.975 1.98427C160.49 2.58844 160.944 3.27594 161.152 4.03114C161.365 4.78635 161.636 5.52594 161.803 6.29677C162.141 7.83844 162.402 9.39052 162.631 10.953C162.636 10.9843 162.647 11.0207 162.641 11.0572C162.584 12.1041 162.819 13.1353 162.725 14.1822C162.657 14.9374 162.662 15.6978 162.636 16.453C162.595 17.677 162.438 18.8853 162.136 20.078C161.959 20.7707 161.923 21.4947 161.751 22.1978C161.277 24.1509 160.74 26.0832 159.964 27.9374C159.907 28.0728 159.86 28.2082 159.798 28.3332C159.293 29.328 158.803 30.328 158.277 31.3072C158.136 31.5728 158.126 31.7864 158.303 31.9947C159.282 33.1509 160.126 34.4009 160.944 35.6666C162.032 37.3645 163.037 39.1145 163.86 40.953C164.48 42.328 165.048 43.7291 165.584 45.1405C165.923 46.0416 166.194 46.9739 166.412 47.9166C166.699 49.1405 167.032 50.3489 167.199 51.5936C167.36 52.7655 167.496 53.9426 167.621 55.1197C167.72 56.0832 167.803 57.052 167.865 58.0155C167.923 58.9478 167.959 59.8853 167.99 60.8176C168.011 61.5676 167.98 62.3176 168.053 63.078C168.136 63.9322 168.058 64.8072 168.016 65.6718C167.949 67.2551 167.876 68.8384 167.772 70.4218C167.704 71.3905 167.48 72.3332 167.287 73.2864C166.98 74.7968 166.584 76.2864 166.157 77.7655C165.97 78.4218 165.787 79.078 165.579 79.7239C165.49 79.9947 165.397 80.2655 165.173 80.4739C164.938 80.6926 164.72 80.9374 164.532 81.203C163.99 81.9791 163.178 82.2603 162.313 82.3749C161.397 82.4895 160.49 82.3072 159.766 81.7239C159.298 81.3436 158.98 80.7811 158.891 80.1561C158.829 79.6718 158.668 79.1874 158.897 78.677C159.006 78.427 158.964 78.1093 158.985 77.8228C159.037 76.8853 159.074 75.953 159.141 75.0155C159.168 74.6249 159.188 74.2343 159.319 73.8489C159.428 73.5155 159.407 73.1353 159.428 72.7759C159.475 72.0937 159.418 71.3905 159.574 70.7343C159.746 69.9843 159.767 69.2395 159.824 68.4895C159.886 67.6978 159.923 66.9061 159.923 66.1093C159.928 65.4686 159.839 64.8228 159.829 64.177C159.824 63.5311 159.876 62.8853 159.709 62.2447C159.678 62.1093 159.704 61.9582 159.704 61.8124C159.699 61.3124 159.772 60.8072 159.589 60.3176C159.553 60.2239 159.574 60.1041 159.579 59.9947C159.641 58.8384 159.391 57.7134 159.225 56.5832C158.949 54.703 158.631 52.828 158.22 50.9739C157.902 49.5051 157.605 48.0259 157.063 46.6145C157.001 46.453 156.98 46.2707 156.944 46.0989C156.756 45.2447 156.475 44.4478 155.876 43.7759C155.365 43.2082 155.069 42.5051 154.72 41.8384C154.496 41.4218 154.266 41.0207 153.897 40.7082C153.589 40.4478 153.412 40.0884 153.22 39.7395C153.048 39.427 152.881 39.0936 152.641 38.8384C151.803 37.9322 151.136 36.9113 150.485 35.8801C149.761 34.7447 148.86 33.7759 147.876 32.8749C147.506 32.5416 147.084 32.2395 146.918 31.7343C146.407 31.3228 146.251 30.6301 145.709 30.2499C145.652 30.2082 145.589 30.1509 145.569 30.0884C145.188 29.0468 144.225 28.5207 143.506 27.7811C143.131 27.4009 142.652 27.1197 142.266 26.7447C141.787 26.2759 141.204 26.0051 140.605 25.7655C140.105 25.5676 139.584 25.4165 139.089 25.2082C138.73 25.052 138.376 24.8801 138.027 24.703C137.293 24.3384 136.511 24.0415 135.72 23.8176C135.272 23.6926 134.829 23.5624 134.391 23.4009C133.074 22.9114 131.72 22.5832 130.319 22.4478C129.928 22.4114 129.537 22.328 129.147 22.2655C128.97 22.2395 128.793 22.1978 128.615 22.1926C127.032 22.1093 125.449 21.9686 123.865 21.9738C122.938 21.9738 122.001 22.0832 121.069 22.078C120.964 22.078 120.86 22.1197 120.751 22.1457C120.24 22.2655 120.188 22.3541 120.287 22.8853C120.47 23.8749 120.636 24.8645 120.855 25.8436C121.043 26.6561 121.027 27.4843 121.147 28.2968C121.303 29.3593 121.334 30.4426 121.412 31.5155C121.433 31.802 121.428 32.0936 121.423 32.3801C121.407 32.9218 121.355 33.4582 121.501 33.9947C121.537 34.1249 121.516 34.2811 121.506 34.4218C121.412 36.6561 121.334 38.8905 121.209 41.1249C121.131 42.5936 120.912 44.052 120.647 45.4999C120.496 46.3124 120.407 47.1353 120.256 47.9478C120.126 48.6509 119.954 49.3489 119.782 50.0416C119.506 51.1926 119.214 52.3384 118.928 53.4895C118.641 54.6353 118.339 55.7759 117.933 56.8905C117.668 57.6301 117.49 58.4009 117.235 59.1509C116.522 61.2551 115.662 63.3072 114.772 65.3436C114.298 66.4322 113.819 67.5155 113.319 68.5884C113.105 69.0416 112.834 69.4687 112.6 69.9166C112.194 70.677 111.829 71.4634 111.391 72.203C110.756 73.2864 110.089 74.3541 109.402 75.4114C108.735 76.4374 107.949 77.3749 107.11 78.2655C106.522 78.8957 105.933 79.5364 105.1 79.8697C105.001 79.9062 104.918 79.9843 104.839 80.0572C104.287 80.578 103.636 80.5416 103.027 80.2707C102.438 80.0103 101.787 79.9009 101.256 79.5103C101.152 79.4322 100.98 79.4062 100.845 79.4166C100.178 79.4687 99.6727 79.1145 99.1623 78.7759C98.7769 78.5207 98.4175 78.2186 98.0477 77.927C97.9332 77.8384 97.8342 77.7343 97.7352 77.6301C96.8967 76.7655 96.329 75.7186 95.8238 74.6457C95.5686 74.1041 95.4592 73.4843 95.3342 72.8905C95.0425 71.4895 94.7769 70.078 94.5009 68.6718C94.48 68.5676 94.4436 68.4634 94.4436 68.3593C94.4905 67.2082 94.2457 66.0676 94.3707 64.9114C94.4488 64.1978 94.4332 63.4739 94.4696 62.7551C94.4852 62.3593 94.48 61.9634 94.5998 61.578C94.6415 61.4426 94.6727 61.2864 94.6415 61.1614C94.5738 60.9009 94.6311 60.677 94.6884 60.427C94.9071 59.4478 95.0842 58.4582 95.2821 57.4739C95.1623 56.8124 95.4332 56.2187 95.5998 55.6041C95.73 55.1197 95.7353 54.6145 95.9019 54.1301C96.0634 53.6614 96.1102 53.1562 96.2196 52.6666C96.2509 52.5312 96.2978 52.3905 96.3707 52.2707C97.0009 51.2134 97.2977 50.0207 97.7873 48.9061C97.9123 47.9322 98.3342 47.052 98.6311 46.1301C98.9071 45.2811 99.0425 44.3853 99.4071 43.5572C99.4852 43.3697 99.4488 43.1457 99.4748 42.9322C99.7821 42.7968 99.6363 42.453 99.8134 42.2291C99.928 42.0832 99.9175 41.8489 99.9644 41.6509ZM142.933 20.8488C143.105 21.1561 143.433 21.1978 143.73 21.2863C143.761 21.2968 143.798 21.2863 143.829 21.2707C143.923 21.2395 143.918 21.1978 143.819 21.1457C143.537 20.9895 143.277 20.7968 142.933 20.8488C142.501 20.4322 142.105 20.2447 141.449 20.1301C141.428 19.9478 141.261 19.9478 141.136 19.8905C140.876 19.7707 140.589 19.6874 140.371 19.5155C139.803 19.0676 139.183 18.8801 138.475 18.9166C138.152 18.4634 137.668 18.4374 137.173 18.4478C137.141 18.453 137.115 18.4895 137.084 18.5103C137.11 18.5311 137.131 18.5676 137.157 18.5728C137.61 18.6561 138.006 18.9166 138.475 18.9166C138.511 18.9686 138.553 19.0311 138.605 19.0676C139.23 19.4686 140.496 19.9426 141.449 20.1301C141.454 20.1665 141.454 20.2082 141.475 20.2238C141.912 20.5468 142.36 20.8384 142.933 20.8488ZM49.0425 61.0103C48.329 60.8489 47.6519 61.0676 46.954 61.1457C46.355 61.2134 45.8863 61.4582 45.5373 61.9374C45.0269 61.9791 44.605 62.2447 44.1623 62.4686C44.0738 62.5103 43.9957 62.6249 44.1102 62.7239C44.1832 62.7864 44.3134 62.8749 44.3655 62.8489C44.7509 62.6614 45.1259 62.4582 45.4905 62.2343C45.5477 62.1978 45.5269 62.0416 45.5373 61.9374C45.7821 61.9478 46.0217 61.9582 46.2665 61.953C46.3707 61.953 46.5269 61.927 46.5582 61.8697C46.7144 61.5416 47.0061 61.5728 47.2873 61.5572C47.6727 61.5364 48.0217 61.3489 48.4227 61.3489C48.6259 61.3489 48.9175 61.2655 49.0425 61.0103C49.3238 61.0155 49.5998 61.0207 49.8863 60.9947C50.0165 60.9791 50.1363 60.8801 50.2561 60.8124C50.2821 60.802 50.303 60.7499 50.2977 60.7343C50.2821 60.7082 50.2404 60.6666 50.2196 60.6718C49.8446 60.7551 49.4748 60.8436 49.1102 60.9374C49.0842 60.9426 49.0582 60.9843 49.0425 61.0103ZM37.5477 66.1249C38.1311 66.052 38.6154 65.7343 39.1311 65.4999C39.4071 64.9895 39.8915 64.9114 40.3967 64.828C40.5998 64.7968 40.7873 64.6614 40.9644 64.5416C41.0269 64.4947 41.0686 64.3436 41.0477 64.2655C41.0165 64.1353 40.8394 64.1353 40.7873 64.203C40.6415 64.4009 40.48 64.3593 40.2613 64.3697C40.0009 64.3853 39.7561 64.5936 39.4957 64.7082C38.7457 65.0416 38.0269 65.4218 37.5477 66.1249C37.2977 66.1145 37.053 66.1457 36.8082 66.0989C36.3082 65.9999 35.9019 66.1822 35.5165 66.4686C35.4384 66.5259 35.4175 66.5884 35.4852 66.6197C35.5425 66.6457 35.6259 66.6614 35.6779 66.6405C35.8759 66.5572 36.0634 66.453 36.2613 66.3697C36.3238 66.3384 36.3967 66.3176 36.4644 66.3228C36.5477 66.3332 36.579 66.3905 36.5529 66.4582C36.4852 66.6145 36.4957 66.7864 36.6988 66.677C36.9905 66.5207 37.4279 66.5468 37.5477 66.1249ZM44.73 65.3697C45.2665 65.2603 45.8602 65.3176 46.2405 64.7707C46.3082 64.6718 46.48 64.6353 46.6155 64.5884C46.9852 64.4634 47.355 64.3541 47.6675 64.0832C47.8186 63.9478 48.0425 63.8645 48.2509 63.828C48.7509 63.7395 49.1415 63.4061 49.6102 63.2603C49.8082 63.1978 49.9748 63.0364 50.1519 62.9166C50.1519 62.9166 50.1415 62.8645 50.1207 62.8541C50.0998 62.8332 50.0582 62.802 50.0321 62.8124C49.8238 62.8593 49.6155 62.9061 49.4175 62.9739C49.0113 63.1145 48.6103 63.2603 48.2144 63.4166C47.1884 63.828 46.1727 64.2759 45.2196 64.8436C45.0217 64.9686 44.7613 65.0728 44.73 65.3697C44.579 65.3228 44.48 65.1405 44.2665 65.2811C44.0321 65.4374 43.7769 65.5676 43.5269 65.7082C43.1884 65.8957 42.8446 66.078 42.5061 66.2707C42.4488 66.3072 42.3967 66.3801 42.3915 66.4426C42.3863 66.4843 42.4592 66.5572 42.5165 66.5728C42.678 66.6301 42.829 66.6457 42.9384 66.8384C43.0477 67.0259 43.2092 67.0051 43.3759 66.8749C43.5582 66.7291 44.1467 66.453 44.3342 66.3801C44.5269 66.3072 44.7977 66.302 44.8602 66.078C44.8967 65.927 44.7873 65.7395 44.7509 65.5728C44.7352 65.4999 44.7405 65.4426 44.73 65.3697ZM29.6884 72.2707C29.9123 72.3072 30.105 72.2343 30.2977 72.1301C30.3707 72.0884 30.4384 72.1093 30.4748 72.1874C30.4852 72.2082 30.454 72.2551 30.4332 72.2759C30.0165 72.6718 29.5998 73.0624 29.1832 73.453C29.105 73.5259 29.0165 73.5936 28.954 73.677C28.9019 73.7395 28.7405 73.8124 28.9019 73.9114C28.9436 73.9426 29.0425 73.9218 29.0998 73.8905C29.4748 73.677 29.7196 73.2811 30.0738 73.0624C31.0113 72.4791 31.8082 71.6978 32.7769 71.1561C32.9332 71.0728 32.9175 70.9322 32.7092 70.8853C32.6779 70.8749 32.6311 70.828 32.6311 70.8124C32.7248 70.5416 32.6727 70.4218 32.3707 70.552C32.2144 70.6197 32.2144 70.5051 32.1832 70.4061C32.0894 70.0832 32.0634 70.0676 31.8915 70.1874C31.2457 70.6353 30.5946 71.0832 30.0321 71.6405C29.8446 71.828 29.6936 71.9999 29.6884 72.2707C29.4644 72.2134 29.2821 72.2707 29.1363 72.4634C29.079 72.5416 29.0686 72.5936 29.1467 72.6405C29.1779 72.6561 29.2144 72.6666 29.2404 72.6614C29.4644 72.6093 29.6311 72.4999 29.6884 72.2707ZM58.0477 34.3384C58.3342 34.328 58.7092 34.4009 58.8238 34.1197C58.9853 33.7082 59.355 33.8228 59.6102 33.677C59.6884 33.6301 59.7561 33.6353 59.7873 33.7238C59.8915 34.0311 60.0946 33.9582 60.2977 33.8593C60.4384 33.7916 60.5738 33.7915 60.7144 33.8332C60.7457 33.8436 60.7821 33.8749 60.7925 33.9009C60.803 33.927 60.7769 33.9634 60.7561 33.9895C60.6467 34.1509 60.4748 34.203 60.3082 34.2707C59.678 34.5259 59.0582 34.7863 58.428 35.0468C58.3342 35.0884 58.3134 35.1353 58.3811 35.177C58.4123 35.1926 58.4488 35.2082 58.48 35.2082C58.6207 35.203 58.7717 35.2134 58.9071 35.1874C59.5582 35.052 60.1623 34.6666 60.8707 34.8384C60.954 34.8593 61.0634 34.7603 61.1623 34.7134C61.3238 34.6405 61.4905 34.4999 61.6467 34.5103C62.1155 34.5416 62.4644 34.2499 62.8602 34.0988C62.98 34.0468 63.0894 33.9374 63.178 33.8332C63.2352 33.7655 62.9644 33.6613 62.73 33.703C62.5582 33.7343 62.3863 33.802 62.2144 33.8436C62.0738 33.8749 61.9332 33.8853 61.803 33.7916C61.6832 33.7082 61.4957 33.6561 61.4592 33.5468C61.3967 33.3749 61.6311 33.4061 61.7248 33.328C62.0165 33.0624 62.3186 32.802 62.73 32.7343C62.7405 32.7291 62.7509 32.677 62.7457 32.6718C62.7196 32.6509 62.6832 32.6197 62.6571 32.6197C62.4436 32.6405 62.2196 32.6405 62.0217 32.703C61.7352 32.7916 61.5373 32.6457 61.3238 32.5207C61.2405 32.4686 61.2405 32.3957 61.3186 32.3384C61.4384 32.2551 61.5582 32.1822 61.678 32.1041C61.803 32.0155 61.8759 31.8905 61.855 31.7395C61.8238 31.5103 61.6675 31.6249 61.5373 31.6197C60.7092 31.578 59.8915 31.6926 59.079 31.8228C58.6259 31.8905 58.2248 31.8384 57.8811 31.552C57.6363 31.3488 57.3863 31.2864 57.0842 31.3697C56.9123 31.4166 56.7196 31.4999 56.5634 31.4634C56.0009 31.3332 55.4957 31.5728 54.9696 31.6561C54.6571 31.7082 54.3655 31.8853 54.0582 31.9947C53.8603 32.0624 53.6519 32.1301 53.4436 32.177C53.3915 32.1874 53.3238 32.1197 53.2613 32.0832C53.2613 32.0832 53.2821 32.0207 53.303 31.9999C53.579 31.7134 53.8603 31.4374 54.1363 31.1509C54.1675 31.1145 54.1623 31.0416 54.1727 30.9843C54.105 30.9791 54.0217 30.9374 53.9748 30.9634C53.5998 31.1822 53.0998 31.0311 52.7717 31.3801C52.7405 31.4165 52.6259 31.4166 52.5842 31.3853C52.2873 31.177 51.9436 31.3384 51.6363 31.2395C51.5478 31.2134 51.5165 31.1561 51.5477 31.078C51.6259 30.9009 51.5686 30.802 51.3863 30.8801C51.0113 31.0415 50.7821 31.3957 50.4644 31.6197C50.1363 31.8489 49.8394 32.078 49.6727 32.4478C49.605 32.6041 49.4644 32.6301 49.3238 32.6457C48.9748 32.6874 48.8394 32.8749 48.8863 33.2186C48.8915 33.2603 48.7925 33.3228 48.7457 33.3749C48.5478 33.6041 48.5061 33.8124 48.829 33.9738C48.8967 34.0103 48.8915 34.0832 48.8082 34.1405C48.7248 34.203 48.6363 34.2863 48.5373 34.302C48.0946 34.3905 47.7509 34.578 47.4957 34.9738C47.3342 35.2238 47.0061 35.2499 46.7196 35.2811C46.5217 35.3072 46.5686 34.953 46.3238 35.0155C46.1155 35.0676 45.8967 35.0832 45.6884 35.1093C45.4957 35.1353 45.3446 35.2291 45.2405 35.3853C45.1623 35.5051 45.1259 35.6457 44.98 35.7134C44.8915 35.7551 44.8707 35.8228 44.9332 35.8541C44.9905 35.8905 45.0634 35.9113 45.1311 35.9061C45.2717 35.9061 45.4228 35.9009 45.5582 35.8645C46.1259 35.7238 46.6884 35.677 47.2352 35.9582C47.3811 36.0311 47.5009 35.9478 47.6415 35.9166C48.1155 35.7916 48.5842 35.5103 49.079 35.8645C49.1311 35.9009 49.2248 35.8853 49.2925 35.8749C49.8446 35.7551 50.4071 35.6561 50.9592 35.5051C51.579 35.3384 52.1884 35.1249 52.8082 34.9426C53.0217 34.8801 52.8915 34.729 52.9175 34.6145C52.9228 34.5832 52.9592 34.5572 52.98 34.5311C53.1259 34.3541 53.2092 34.3749 53.3759 34.6353C53.4071 34.6822 53.4696 34.7447 53.5061 34.7447C53.6832 34.7239 53.855 34.6822 54.0269 34.6457C55.079 34.4218 56.105 34.0832 57.1832 33.9791C57.4123 33.9582 57.4227 33.9634 57.2977 34.302C57.2509 34.427 57.2613 34.5103 57.3811 34.5155C57.6207 34.5155 57.8811 34.6249 58.0477 34.3384ZM50.204 29.0311C50.2665 28.9426 50.3602 28.8645 50.3915 28.7655C50.428 28.6509 50.3707 28.4895 50.428 28.3905C50.5165 28.2343 50.704 28.1822 50.8863 28.1457C51.0946 28.0988 51.2925 27.979 51.5009 27.9738C51.803 27.9582 52.0634 27.9061 52.2977 27.7082C52.3967 27.6249 52.5686 27.6197 52.704 27.5936C53.0217 27.5311 53.3394 27.4686 53.6571 27.427C53.928 27.3905 54.1259 27.2447 54.2925 27.052C54.329 27.0103 54.3394 26.9374 54.3446 26.8801C54.3446 26.8697 54.2873 26.8332 54.2561 26.8332C54.1102 26.828 53.9696 26.828 53.8238 26.828C53.6155 26.8228 53.4384 27.0259 53.2092 26.8957C52.5061 26.5103 51.8134 26.8645 51.1207 26.9478C50.9905 26.9634 50.9957 27.2499 50.8238 27.177C50.4905 27.0468 50.1884 27.1822 49.8707 27.2238C49.7353 27.2447 49.5894 27.2134 49.4488 27.1978C49.428 27.1978 49.3863 27.1457 49.3915 27.1301C49.4019 27.0988 49.4332 27.0676 49.4644 27.0572C49.5321 27.0311 49.605 27.0311 49.6727 27.0103C49.73 26.9843 49.7769 26.9426 49.8342 26.9113C49.803 26.8905 49.7717 26.8645 49.7405 26.8541C49.0894 26.7343 48.4384 26.6926 47.8915 27.1405C47.6415 27.3436 47.3707 27.203 47.1155 27.2968C46.954 27.3541 46.9175 27.1301 46.8446 27.0155C46.7561 26.8801 46.5998 26.8853 46.4592 26.8645C45.8967 26.7811 45.3342 26.9791 44.7717 26.9009C43.803 27.1666 42.8342 27.427 41.8707 27.6978C41.704 27.7447 41.5425 27.8384 41.3915 27.9322C41.2821 27.9999 41.2977 28.0988 41.4227 28.1457C41.6155 28.2186 41.6415 28.3489 41.4696 28.4322C41.0582 28.6405 40.6363 28.8801 40.1936 28.9843C39.2665 29.1978 38.4488 29.6405 37.6571 30.1249C37.2457 30.3801 36.8394 30.5728 36.3602 30.5884C35.9852 30.5936 35.6675 30.7499 35.3654 30.9478C35.3394 30.9686 35.329 31.0051 35.3082 31.0311C35.3707 31.052 35.4436 31.0989 35.5009 31.0884C35.5998 31.0624 35.6884 30.9843 35.7925 30.9582C35.8498 30.9374 35.9279 30.9634 35.9904 30.9843C36.0946 31.0155 36.0582 31.1405 35.9227 31.2134C35.6415 31.3697 35.3602 31.5207 35.0373 31.5936C34.9019 31.6197 34.7873 31.7238 34.6675 31.7968C34.5425 31.8801 34.5529 32.0832 34.6727 32.1561C35.0165 32.3749 35.3811 32.5155 35.7925 32.5051C36.0061 32.5051 36.2248 32.5051 36.4384 32.5207C36.5529 32.5259 36.5998 32.6197 36.6467 32.7238C36.8186 33.0884 36.829 33.1093 37.1467 33.0207C37.3967 32.9478 37.6415 32.9374 37.8915 32.9895C37.954 33.0051 38.0165 33.052 38.079 33.0832C38.0321 33.1249 37.9905 33.203 37.9488 33.1978C37.4644 33.177 37.5582 33.6405 37.3759 33.8697C37.329 33.927 37.3707 34.0051 37.4592 33.9947C37.7457 33.9739 38.0269 33.9218 38.3082 33.9009C38.3655 33.8957 38.48 33.979 38.4748 33.9895C38.3446 34.3645 38.6415 34.2864 38.8238 34.3072C39.105 34.3384 39.3967 34.3697 39.6832 34.3801C39.8186 34.3801 39.9852 34.3645 40.0946 34.2916C40.48 34.0311 40.8446 33.7343 41.2248 33.4634C41.4227 33.3228 41.2613 33.1301 41.3238 32.9947C41.3967 32.8436 41.5425 32.703 41.6884 32.6145C42.2092 32.2968 42.7457 32.0051 43.2717 31.703C43.553 31.5363 43.8238 31.3436 43.8498 30.9895C43.855 30.8593 43.7717 30.7551 43.9592 30.6613C44.2092 30.5363 44.5061 30.4843 44.704 30.2447C44.7717 30.1614 44.7665 30.1197 44.6571 30.0988C44.5894 30.0884 44.5113 30.0884 44.4488 30.0676C44.3811 30.0468 44.3238 30.0051 44.2665 29.9738C44.2925 29.9218 44.3082 29.8436 44.3498 29.828C44.5946 29.7343 44.7821 29.5936 44.8915 29.3384C44.9332 29.2447 45.0582 29.2134 45.1623 29.2759C45.178 29.2916 45.1467 29.3905 45.1363 29.4478C45.0634 29.7759 45.1311 29.8541 45.4175 29.7759C45.6571 29.7082 45.9019 29.6353 46.1311 29.5468C46.329 29.4738 46.4696 29.2134 46.355 29.0155C46.2405 28.8072 46.2092 28.6509 46.2977 28.4426C46.329 28.3645 46.23 28.203 46.3967 28.2186C46.7821 28.2499 47.0842 28.0989 47.3759 27.8697C47.4488 27.8124 47.5842 27.828 47.6884 27.8384C47.7457 27.8384 47.7977 27.8957 47.8446 27.9374C47.8498 27.9478 47.8186 28.0051 47.7977 28.0311C47.5894 28.3124 47.2144 28.2864 46.954 28.4791C46.803 28.5936 46.7405 28.9999 46.8759 29.177C46.9905 29.328 47.1311 29.2239 47.2613 29.1822C47.4592 29.1145 47.6884 28.9582 47.8498 29.0155C48.1936 29.1249 48.48 29.0311 48.7925 28.9634C48.8967 28.9426 48.954 29.0416 48.9644 29.1561C48.7353 29.2238 48.5165 29.302 48.2873 29.3749C48.1936 29.4061 48.1675 29.4895 48.2196 29.4999C48.4748 29.5624 48.7144 29.6978 48.98 29.6613C49.0634 29.6457 49.1571 29.5468 49.0946 29.4218C49.0477 29.328 49.0113 29.2499 48.9644 29.1561C49.1415 29.177 49.2873 29.1874 49.4071 28.9947C49.553 28.7655 49.5894 28.9061 49.5998 29.0676C49.605 29.104 49.5998 29.1405 49.6102 29.177C49.6675 29.3905 49.6727 29.3957 49.8915 29.2707C49.9488 29.2395 50.0061 29.1926 50.0634 29.1509C50.23 29.1666 50.4019 29.1978 50.5686 29.1978C50.6988 29.1926 50.9123 29.177 50.8759 29.0155C50.803 28.6926 50.6415 29.0259 50.5113 29.0051C50.4123 28.9895 50.3082 29.0207 50.204 29.0311ZM28.9957 144.76C29.0113 144.76 28.98 144.76 28.9957 144.76C28.9748 145.193 28.9696 145.625 28.9592 146.057C28.9488 146.417 28.8915 146.792 28.9644 147.135C29.1102 147.818 29.0373 148.5 29.0373 149.182C29.0373 149.505 29.0373 149.828 29.0738 150.151C29.1467 150.859 29.3134 151.557 29.3029 152.281C29.2925 152.995 29.3811 153.713 29.4123 154.427C29.4384 155 29.3394 155.583 29.5582 156.135C29.6519 157.458 29.7352 158.786 29.8342 160.109C29.8863 160.823 29.928 161.542 30.0269 162.25C30.105 162.781 30.2509 163.302 30.3811 163.828C30.4957 164.302 30.7873 164.667 31.1623 164.969C31.4332 165.193 31.7196 165.25 32.0477 165.062C32.329 164.901 32.6207 164.766 32.8915 164.583C33.3759 164.266 33.7717 163.864 34.1727 163.469C35.0477 162.609 35.855 161.698 36.5269 160.672C36.8394 160.193 37.1519 159.713 37.4748 159.234C37.6727 158.937 37.8498 158.604 38.1102 158.37C38.3915 158.114 38.5998 157.859 38.6363 157.479C38.6571 157.286 38.7509 157.099 38.9123 157.036C39.3707 156.849 39.4957 156.401 39.6623 156.031C39.855 155.609 40.079 155.198 40.2561 154.771C40.6571 153.818 41.2092 152.922 41.2717 151.849C41.2769 151.713 41.329 151.542 41.4227 151.458C41.7509 151.177 41.7561 150.755 41.9384 150.406C42.1363 150.026 42.2977 149.625 42.428 149.213C42.8238 147.948 43.2248 146.687 43.5686 145.411C44.0217 143.75 44.4227 142.078 44.8134 140.406C45.0165 139.536 45.2352 138.661 45.704 137.875C45.928 137.5 46.2352 137.266 46.6415 137.286C46.8602 137.297 47.053 137.297 47.2665 137.255C47.5113 137.213 47.7665 137.224 48.0165 137.245C48.1519 137.26 48.3186 137.307 48.4071 137.401C48.98 137.995 49.5321 138.62 49.7977 139.427C49.9696 139.937 50.1519 140.448 50.2665 140.969C50.4019 141.557 50.4332 142.161 50.4436 142.766C50.4592 143.37 50.3915 143.984 50.5998 144.568C50.6832 144.818 50.678 145.062 50.6675 145.312C50.6467 145.854 50.605 146.396 50.579 146.932C50.5425 147.719 50.5061 148.5 50.6571 149.281C50.7352 149.698 50.7769 150.114 50.6623 150.552C50.5842 150.854 50.5894 151.203 50.6519 151.516C50.7925 152.234 50.7665 152.948 50.7248 153.667C50.7144 153.88 50.6936 154.109 50.7457 154.312C50.8811 154.812 50.8186 155.312 50.829 155.818C50.855 157.078 50.8446 158.338 50.9384 159.588C50.9852 160.198 51.0217 160.807 51.0269 161.417C51.0321 161.562 51.0165 161.713 51.0425 161.849C51.2144 162.698 51.178 163.568 51.3082 164.417C51.3967 164.984 51.454 165.557 51.6884 166.088C51.803 166.349 51.9957 166.411 52.1884 166.255C53.8082 164.911 55.1519 163.333 56.1988 161.505C56.7821 160.484 57.5009 159.531 57.9019 158.401C57.9228 158.338 57.9905 158.286 58.0269 158.229C58.3707 157.724 58.605 157.172 58.8446 156.609C59.1571 155.859 59.2769 155.005 59.8655 154.375C59.9332 154.302 59.9436 154.177 59.9644 154.073C60.0946 153.505 60.3655 152.995 60.6102 152.474C60.7144 152.25 60.8498 152.031 60.928 151.797C61.4436 150.156 62.0061 148.526 62.4123 146.854C62.7144 145.604 63.079 144.354 63.1363 143.052C63.1467 142.838 63.2092 142.63 63.2561 142.417C63.3811 141.885 63.4071 141.344 63.3186 140.812C63.178 139.958 63.1728 139.099 63.105 138.245C63.0321 137.354 63.1988 136.448 63.0425 135.552C63.0217 135.417 63.0321 135.26 63.0686 135.125C63.1467 134.875 63.1415 134.641 63.0998 134.385C63.0738 134.213 63.0998 134.026 63.1363 133.849C63.1571 133.766 63.2457 133.656 63.329 133.625C63.4592 133.578 63.6102 133.594 63.7509 133.573C64.1311 133.526 64.1415 133.516 64.1884 133.109C64.204 132.969 64.204 132.823 64.2196 132.677C64.2457 132.463 64.3603 132.359 64.5738 132.354C65.48 132.338 66.3602 132.547 67.2352 132.724C67.6207 132.802 68.079 132.979 68.1155 133.542C68.1259 133.656 68.2873 133.755 68.3602 133.875C68.5217 134.114 68.7248 134.338 68.8134 134.604C69.2092 135.755 69.6519 136.891 69.8498 138.104C70.1259 139.802 70.4852 141.484 70.7665 143.182C70.9592 144.349 71.23 145.51 71.1988 146.703C71.1988 146.812 71.2092 146.917 71.2248 147.026C71.4227 148.406 71.6363 149.792 71.8238 151.177C71.9592 152.167 72.0321 153.172 72.1884 154.161C72.4384 155.755 72.7196 157.344 73.0113 158.927C73.303 160.484 73.6832 162.016 74.3602 163.458C74.4696 163.682 74.579 163.911 74.7092 164.125C74.9592 164.521 75.2717 164.526 75.5686 164.135C75.7821 163.849 75.9436 163.521 76.1675 163.239C77.23 161.901 77.9384 160.37 78.6311 158.828C78.9852 158.047 79.3082 157.25 79.6727 156.469C79.8186 156.161 79.928 155.88 79.7561 155.552C79.6832 155.411 79.7196 155.281 79.7665 155.141C79.928 154.703 80.0061 154.25 80.2457 153.833C80.4696 153.448 80.7405 153.031 80.4852 152.531C80.428 152.406 80.4957 152.239 80.6311 152.156C80.7873 152.062 80.8134 151.963 80.6988 151.818C80.6363 151.734 80.5686 151.635 80.5425 151.536C80.4748 151.255 80.4748 151.036 80.7509 150.786C81.4436 150.146 81.4592 150.026 81.553 148.911C81.5634 148.786 81.6259 148.724 81.678 148.635C81.9748 148.109 82.2978 147.583 82.3863 146.974C82.5373 145.979 82.6571 144.979 82.7873 143.984C82.7977 143.875 82.7873 143.76 82.8238 143.661C83.0998 142.974 83.0061 142.239 83.0946 141.531C83.0998 141.495 83.1102 141.453 83.0998 141.422C83.0738 141.37 83.0373 141.328 83.0009 141.281C82.98 141.307 82.9436 141.338 82.9436 141.37C82.9123 141.739 82.7613 142.057 82.579 142.37C82.4748 142.547 82.3134 142.604 82.1311 142.536C81.9227 142.458 81.8602 142.364 81.928 142.156C82.0009 141.917 81.954 141.656 82.105 141.427C82.5269 140.792 82.5686 140.005 82.9019 139.328C83.0582 139.005 83.079 138.646 82.7352 138.349C82.5842 138.219 82.5321 137.974 82.4384 137.781C82.4071 137.719 82.3811 137.651 82.3498 137.594C82.3134 137.526 82.1467 137.594 82.079 137.667C81.8915 137.88 82.0321 138.161 81.9071 138.385C81.8915 138.411 81.8602 138.427 81.8342 138.453C81.8134 138.422 81.7821 138.391 81.7769 138.359C81.73 138.036 81.7353 137.719 81.9019 137.417C81.9696 137.297 82.0061 137.151 82.0373 137.016C82.0946 136.792 82.3655 137.088 82.428 136.833C82.6415 135.969 83.053 135.146 82.9905 134.219C82.9748 134.042 82.9905 133.844 83.0582 133.687C83.3186 133.114 83.2092 132.474 83.4175 131.896C83.4592 131.776 83.4384 131.672 83.3498 131.604C83.0738 131.401 83.0998 131.12 83.1155 130.823C83.1363 130.281 83.329 129.766 83.4071 129.239C83.605 127.948 83.5165 126.667 83.1936 125.396C82.8915 124.213 82.6623 123.016 82.2561 121.859C82.2144 121.729 82.1936 121.526 82.0998 121.479C81.6102 121.229 81.6207 120.797 81.6571 120.359C81.678 120.068 81.5894 119.797 81.5373 119.516C81.4175 118.802 81.1467 118.141 80.9332 117.458C80.5478 116.224 79.8655 115.104 79.5269 113.849C79.355 113.229 79.0686 112.635 78.8342 112.036C78.5686 111.37 78.2978 110.703 78.0269 110.036C78.0009 109.974 77.9592 109.849 77.9384 109.854C77.3394 109.937 77.6988 109.364 77.4852 109.198C77.4905 108.635 77.2248 108.161 76.9905 107.677C76.829 107.354 76.6623 107.036 76.4592 106.739C76.0998 106.203 75.7769 105.599 75.1519 105.344C74.7821 105.198 74.5582 104.963 74.3498 104.667C74.23 104.495 74.1155 104.312 74.0009 104.125C73.8602 103.885 73.6415 104.167 73.4384 104.016C72.9957 103.693 72.5894 103.344 72.3238 102.864C72.1936 102.635 72.0217 102.489 71.8186 102.328C70.9227 101.609 69.9123 101.198 68.7717 101.109C68.5946 101.094 68.4228 101.036 68.2457 100.995C66.9592 100.661 65.6675 100.364 64.3342 100.281C63.8655 100.25 63.4123 100.177 62.98 99.9791C62.6519 99.828 62.2977 99.7811 61.928 99.7655C60.2405 99.6822 58.553 99.6041 56.8602 99.7134C56.3238 99.7447 55.7717 99.6509 55.2405 99.7291C53.3967 99.9895 51.553 100.271 49.7821 100.891C48.829 101.224 47.8655 101.5 46.9123 101.818C46.2613 102.031 45.6259 102.281 44.9852 102.516C44.3134 102.76 43.6259 102.984 42.9644 103.26C42.0373 103.646 41.0946 104.016 40.2196 104.505C39.6102 104.854 38.9852 105.047 38.3134 105.172C38.105 105.208 37.8967 105.292 37.6884 105.312C37.2665 105.354 36.9332 105.547 36.6571 105.844C36.2717 106.271 35.9071 106.708 35.5321 107.146C35.4748 107.213 35.4957 107.276 35.5634 107.338C35.6727 107.432 35.5269 107.297 35.6675 107.312C35.73 107.318 35.8238 107.297 35.8394 107.328C35.8707 107.38 35.8811 107.484 35.8446 107.521C35.7092 107.677 35.5477 107.958 35.3394 107.797C35.0165 107.547 34.8186 107.687 34.5998 107.896C34.3915 108.094 34.1832 108.297 34.0009 108.516C33.3602 109.292 32.6832 110.036 32.0373 110.812C31.079 111.974 30.1259 113.141 29.3342 114.422C29.2196 114.604 29.0582 114.76 28.9227 114.927C28.1988 115.818 27.4748 116.708 26.9436 117.739C26.6779 118.245 26.3498 118.724 26.0477 119.208C25.5009 120.088 24.9488 120.963 24.4279 121.859C23.6363 123.224 22.855 124.594 21.9904 125.922C21.6311 126.479 21.2821 127.099 21.3186 127.828C21.3238 128.016 21.2196 128.161 21.1311 128.323C20.9852 128.604 20.8394 128.901 20.7457 129.203C20.553 129.818 20.1259 130.333 19.98 130.969C19.9384 131.135 19.8186 131.292 19.6988 131.422C19.4488 131.693 19.2873 132.01 19.1207 132.328C18.9019 132.75 18.6207 133.12 18.2457 133.411C17.9592 133.63 17.7092 133.885 17.5321 134.213C17.4019 134.458 17.4123 134.51 17.6832 134.552C17.7509 134.557 17.829 134.547 17.8967 134.557C18.1102 134.583 18.1675 134.661 18.079 134.812C17.8967 135.125 17.7404 135.448 17.6727 135.807C17.6519 135.937 17.5477 136.062 17.4644 136.172C17.1936 136.521 17.0582 136.87 17.2092 137.333C17.3342 137.729 17.1207 138.109 16.9175 138.458C16.1415 139.792 15.48 141.193 14.8238 142.594C14.6571 142.953 14.4957 143.307 14.5425 143.724C14.5686 143.943 14.5113 144.141 14.4123 144.349C14.0998 144.989 13.8186 145.651 13.5321 146.307C13.1102 147.26 12.6779 148.208 12.3602 149.198C12.2509 149.536 11.9644 149.833 11.9071 150.167C11.7977 150.854 11.5165 151.474 11.3342 152.13C11.0321 153.203 10.7092 154.266 10.3967 155.328C10.3602 155.463 10.3394 155.609 10.329 155.755C10.3082 156.083 10.23 156.391 10.0998 156.693C9.98524 156.953 9.90712 157.234 9.83942 157.51C9.66754 158.208 9.49045 158.901 9.34462 159.604C9.21442 160.229 9.18317 160.88 8.98524 161.5C8.95399 161.599 8.94357 161.729 8.98524 161.818C9.18317 162.286 8.99565 162.729 8.94357 163.182C8.87587 163.75 8.76649 164.323 8.98524 164.896C9.04774 165.052 9.01649 165.25 9.01129 165.432C9.00609 165.828 8.99045 166.224 8.98524 166.62C8.98524 166.672 9.03732 166.729 9.07899 166.776C9.08942 166.792 9.15712 166.776 9.17795 166.755C10.1207 165.864 11.053 164.958 11.8082 163.901C12.8655 162.401 13.8967 160.88 14.8759 159.333C15.4123 158.489 15.8238 157.568 16.2977 156.687C16.4696 156.37 16.6415 156.057 16.8342 155.75C16.8811 155.672 16.9905 155.573 17.0738 155.573C17.428 155.573 17.5686 155.364 17.6832 155.068C18.0373 154.167 18.4071 153.276 18.7769 152.38C19.3498 150.984 19.8759 149.573 20.5529 148.224C20.7092 147.427 21.1519 146.766 21.5269 146.073C21.6832 145.792 21.7769 145.489 21.8759 145.177C22.2092 144.151 22.3498 143.083 22.6311 142.047C22.7248 141.703 22.8394 141.354 22.8759 141C22.9957 139.896 23.2873 138.823 23.5061 137.739C23.6832 136.88 24.1155 136.245 24.8863 135.786C25.8759 135.198 26.0425 135.338 26.8394 135.838C26.928 135.896 27.0061 135.974 27.079 136.052C27.8967 136.948 28.4384 137.979 28.6363 139.187C28.7873 140.109 29.0113 141.021 28.954 141.963C28.9488 142 28.954 142.036 28.9696 142.068C29.1207 142.453 29.0582 142.854 29.0425 143.245C29.0217 143.75 29.0165 144.255 28.9957 144.76ZM114.178 33.8384C114.204 33.1926 114.287 31.177 114.293 30.8176C114.293 30.7186 114.24 30.677 114.183 30.6978C114.147 30.7134 114.105 30.7238 114.089 30.7499C113.902 31.0572 113.694 31.3541 113.532 31.6666C113.147 32.4009 112.808 33.1561 112.412 33.8801C111.876 34.8645 111.506 35.9113 111.069 36.9374C110.819 37.5259 110.751 38.2134 110.418 38.7447C110.048 39.328 109.902 39.9999 109.543 40.5728C109.449 40.7239 109.391 40.9061 109.272 41.0416C108.74 41.6561 108.49 42.4061 108.24 43.1561C108.131 43.4947 108.074 43.8541 107.964 44.1926C107.517 45.552 107.1 46.9218 106.626 48.2759C106.506 48.6093 106.397 48.9478 106.319 49.302C106.126 50.1353 105.876 50.9582 105.688 51.802C105.537 52.4843 105.308 53.1457 105.115 53.8228C105.11 53.8489 105.136 53.8905 105.157 53.9166C105.168 53.927 105.214 53.9166 105.235 53.9061C105.418 53.828 105.444 53.6249 105.563 53.4999C105.683 53.3801 105.876 53.328 106.006 53.2186C106.079 53.1561 106.131 53.0312 106.131 52.9322C106.11 52.302 106.293 51.7343 106.61 51.1926C106.735 50.9791 106.834 50.7291 106.865 50.4843C106.912 50.1041 107.079 49.7551 107.074 49.3489C107.069 48.9791 107.308 48.6041 107.449 48.2343C107.584 47.8697 107.746 47.5051 107.86 47.1301C107.933 46.8957 107.944 46.6353 107.99 46.3905C108.016 46.2499 108.048 46.1093 108.105 45.9791C108.194 45.7603 108.516 45.6822 108.876 45.7811C109.032 45.8228 109.115 45.9791 109.074 46.2186C109.037 46.427 108.98 46.6353 108.923 46.8436C108.902 46.9218 108.907 46.9947 108.985 47.0051C109.048 47.0155 109.136 46.9739 109.178 46.927C109.506 46.5728 109.563 46.0884 109.74 45.6614C109.918 45.2343 110.136 44.7968 110.173 44.3489C110.199 43.9895 109.964 43.6145 109.891 43.2343C109.845 42.9843 110.016 43.0624 110.157 43.1145C110.199 43.1301 110.287 43.078 110.324 43.0311C110.454 42.8645 110.61 42.6978 110.683 42.5051C110.855 42.0363 110.98 41.552 111.141 41.0832C111.303 40.6093 111.694 40.2395 111.803 39.7343C111.829 39.6301 111.918 39.5468 111.944 39.4426C112.277 38.203 112.829 37.0259 113.058 35.7499C113.126 35.3697 113.345 35.0207 113.501 34.6561C113.522 34.6197 113.595 34.6041 113.647 34.5728C113.668 34.6405 113.709 34.7134 113.699 34.7759C113.683 34.953 113.657 35.1301 113.61 35.302C113.272 36.4322 112.897 37.5468 112.636 38.6978C112.49 39.3645 112.339 40.0259 112.147 40.6822C111.912 41.4686 111.793 42.2916 111.433 43.0468C111.298 43.3332 111.214 43.6561 111.157 43.9739C110.876 45.6041 110.313 47.1614 109.98 48.7811C109.595 50.6353 109.037 52.453 108.563 54.2916C108.449 54.7447 108.251 55.203 108.266 55.6509C108.293 56.6093 107.912 57.4791 107.808 58.4114C107.678 59.578 107.339 60.7239 107.105 61.8801C106.964 62.5832 106.897 63.302 106.714 63.9947C106.511 64.7603 106.365 65.5364 106.209 66.3072C106.053 67.078 105.871 67.8489 105.73 68.6197C105.662 68.9687 105.668 69.3332 105.641 69.6874C105.641 69.7134 105.673 69.7603 105.704 69.7707C105.72 69.7811 105.772 69.7499 105.782 69.7239C105.886 69.5364 105.996 69.3541 106.079 69.1561C106.428 68.3697 106.766 67.578 107.11 66.7864C107.636 65.5728 108.225 64.3801 108.668 63.1301C109.089 61.9582 109.61 60.8124 109.923 59.5936C110.069 59.0103 110.329 58.4478 110.506 57.8697C110.996 56.2187 111.485 54.5728 111.938 52.9166C112.194 51.9843 112.355 51.0259 112.6 50.0884C112.777 49.4218 112.824 48.7395 112.938 48.0728C113.058 47.4009 113.225 46.7395 113.365 46.0728C113.391 45.9322 113.412 45.7759 113.376 45.6457C113.069 44.6041 113.412 43.5676 113.391 42.5311C113.673 41.6613 113.626 40.7551 113.673 39.8593C113.709 39.1041 113.688 38.3228 113.86 37.5988C114.157 36.354 114.048 35.0884 114.178 33.8384ZM62.6727 23.5155C62.9748 23.4843 63.2248 23.4686 63.4748 23.4322C64.1467 23.3384 64.8134 23.1874 65.4957 23.1822C65.6728 23.1822 65.8446 23.1145 66.0165 23.0728C66.3655 22.9895 66.7144 22.9061 67.0582 22.8124C67.4748 22.703 67.8915 22.5988 68.2405 22.3332C68.2821 22.3072 68.2925 22.1978 68.2717 22.1405C68.2509 22.0884 68.178 22.0363 68.1155 22.0155C68.053 21.9947 67.9592 21.9738 67.9071 22.0051C67.5477 22.229 67.1623 22.1926 66.7665 22.1718C66.48 22.1509 66.1832 22.1457 65.9019 22.1978C64.7821 22.4166 63.6623 22.6457 62.5998 23.0884C62.5009 23.1301 62.3967 23.1561 62.303 23.1978C62.2873 23.2082 62.2873 23.2655 62.2873 23.302C62.2873 23.3332 62.2977 23.3801 62.3134 23.3853C62.4436 23.4374 62.579 23.4843 62.6727 23.5155ZM8.86024 139.786C8.84462 139.823 8.77692 139.948 8.73004 140.073C8.71962 140.094 8.80817 140.156 8.85504 140.182C8.88109 140.198 8.93837 140.193 8.95399 140.177C9.00087 140.125 9.02692 140.052 9.07899 140.005C9.11545 139.969 9.16754 139.953 9.21962 139.927C9.23524 139.989 9.2717 140.057 9.26649 140.125C9.26129 140.276 9.16753 140.364 9.03732 140.448C8.8967 140.542 8.78212 140.693 8.67795 140.828C8.6519 140.864 8.67796 140.979 8.71442 141.016C8.75609 141.057 8.85504 141.078 8.90192 141.052C9.02692 140.989 9.1467 140.901 9.25087 140.807C9.43837 140.635 9.75609 140.771 9.90192 140.489C10.0113 140.271 10.2144 140.083 10.2873 139.854C10.4019 139.474 10.5842 139.146 10.8082 138.833C10.8342 138.797 10.7977 138.682 10.7561 138.646C10.7144 138.614 10.6259 138.625 10.5634 138.635C10.4644 138.646 10.3498 138.724 10.2769 138.693C10.1467 138.635 10.0738 138.521 10.1259 138.344C10.2248 138.026 9.76129 138.047 9.76129 137.771C9.70399 137.786 9.61545 137.781 9.59982 137.812C9.3394 138.427 8.86545 138.963 8.86024 139.786ZM13.8134 137C13.8082 137.12 13.7873 137.193 13.8082 137.255C13.829 137.328 13.9019 137.323 13.9748 137.26C14.2457 137.026 14.5165 136.802 14.7144 136.489C14.855 136.271 15.0634 136.125 15.3498 136.292C15.4644 136.359 15.5634 136.266 15.6154 136.182C15.855 135.792 16.1519 135.453 16.2613 134.974C16.428 134.245 16.6571 133.526 17.1415 132.927C17.1832 132.875 17.1832 132.792 17.1832 132.724C17.1832 132.698 17.1207 132.641 17.1207 132.641C17.0373 132.698 16.9175 132.734 16.8759 132.818C16.5894 133.354 16.2352 133.838 15.829 134.297C15.6675 134.484 15.454 134.641 15.3238 134.849C14.8446 135.599 14.4384 136.401 13.8134 137ZM43.7717 68.427C43.8342 68.4582 43.9175 68.5259 43.9592 68.5051C44.2769 68.3541 44.5946 68.1926 44.9019 68.0155C45.3238 67.7759 45.73 67.453 46.1727 67.2968C46.8863 67.0468 47.4853 66.5832 48.1988 66.3489C48.4332 66.2707 48.6311 66.0989 48.8446 65.9686C49.0738 65.8228 49.1467 65.5832 49.23 65.3489C49.2405 65.3228 49.2248 65.2811 49.204 65.2551C49.1936 65.2343 49.1467 65.2082 49.1311 65.2134C48.9436 65.3124 48.7509 65.4061 48.5738 65.5207C48.3967 65.6353 48.2405 65.8541 48.0582 65.8801C47.6155 65.9478 47.2665 66.2134 46.8863 66.3801C46.2821 66.6405 45.6103 66.8176 45.1675 67.3853C45.0425 67.5468 44.8238 67.6301 44.6415 67.7447C44.3707 67.9114 44.0894 68.0676 43.8238 68.2395C43.7821 68.2655 43.7873 68.3645 43.7717 68.427ZM55.1102 25.7759C55.0842 25.7759 54.9748 25.7551 54.8707 25.7863C54.1728 25.979 53.4592 25.9478 52.7509 25.8801C52.3394 25.8436 51.9905 26.0311 51.6102 26.0936C51.5217 26.1093 51.4957 26.1822 51.5321 26.2655C51.5582 26.3228 51.5946 26.4165 51.6415 26.427C51.7405 26.4582 51.8655 26.4738 51.954 26.4426C52.3707 26.2811 52.7717 26.1978 53.1623 26.5103C53.23 26.5624 53.3915 26.5572 53.4696 26.5103C54.0686 26.1561 54.7613 26.1405 55.4071 25.9582C55.4436 25.9426 55.4696 25.8801 55.5009 25.8436C55.4696 25.828 55.4384 25.7968 55.4071 25.7916C55.3342 25.7811 55.2665 25.7864 55.1102 25.7759ZM30.6311 80.5468C30.5842 80.8645 30.6727 81.0207 31.0477 81.1041C31.1832 81.1301 31.204 81.2134 31.2717 81.2759C31.4644 81.4478 31.48 81.4478 31.6571 81.2343C31.7248 81.1509 31.7613 81.052 31.8915 81.1405C32.1623 81.3228 32.4332 81.2551 32.6988 81.1197C32.73 81.1041 32.7769 81.1093 32.7977 81.0884C32.8342 81.0468 32.8602 80.9947 32.8707 80.9478C32.8759 80.9322 32.8238 80.8957 32.7925 80.8853C32.6259 80.8437 32.4957 80.677 32.2977 80.7603C32.1102 80.8384 31.9592 80.7343 31.7925 80.6718C31.6259 80.6145 31.4488 80.5832 31.2769 80.5364C31.105 80.4895 30.9384 80.4426 30.7613 80.4009C30.7405 80.3957 30.704 80.4322 30.6832 80.4582C30.6623 80.4843 30.6519 80.5207 30.6311 80.5468ZM33.7873 70.2186C33.8186 70.2343 33.8446 70.2707 33.8759 70.2707C33.98 70.2655 34.1154 70.2864 34.1884 70.2291C34.7613 69.7551 35.4227 69.4218 36.0582 69.0416C36.1467 68.9895 36.204 68.8905 36.2717 68.8124C36.2821 68.7968 36.2769 68.7499 36.2613 68.7343C36.2405 68.7082 36.2092 68.6874 36.1779 68.677C36.1415 68.6718 36.0998 68.6666 36.0686 68.6822C35.1936 68.9843 34.48 69.5572 33.7821 70.1405C33.7717 70.1509 33.7873 70.1926 33.7873 70.2186ZM43.9227 72.7655C43.9488 72.7864 43.9853 72.828 44.0113 72.8176C44.0998 72.7916 44.204 72.7707 44.2717 72.7082C44.3707 72.6249 44.303 72.5259 44.2509 72.4322C44.1884 72.3176 44.0738 72.2551 44.079 72.078C44.0894 71.8749 43.9332 71.802 43.7873 71.8489C43.6102 71.9061 43.4488 72.0051 43.3811 72.1666C43.2821 72.4114 43.0738 72.4114 42.8707 72.4686C42.704 72.5155 42.8082 72.6197 42.8602 72.6926C42.98 72.8436 43.1363 72.8957 43.329 72.8645C43.5269 72.8332 43.6936 72.6197 43.9227 72.7655ZM110.308 27.0728C110.261 27.0989 110.199 27.1145 110.178 27.1561C109.751 27.9374 109.303 28.7082 109.053 29.5728C109.022 29.677 108.985 29.7759 108.98 29.8853C108.975 29.9478 109.016 30.0103 109.043 30.078C109.063 30.052 109.1 30.0311 109.115 29.9999C109.527 29.0936 109.938 28.1874 110.35 27.2759C110.36 27.2447 110.365 27.203 110.355 27.1718C110.35 27.1405 110.329 27.1093 110.308 27.0728ZM36.355 24.9218C35.5009 24.8593 34.9488 25.052 34.3863 25.2707C34.355 25.2811 34.329 25.3124 34.3029 25.3384C34.3446 25.3853 34.3811 25.4426 34.4332 25.4738C34.579 25.5624 34.7144 25.6509 34.9175 25.578C35.4123 25.3957 35.9227 25.2499 36.4227 25.0832C36.454 25.078 36.48 25.0415 36.5061 25.0207C36.4488 24.9843 36.4175 24.9374 36.355 24.9218C36.1884 24.9113 36.2925 24.9009 36.355 24.9218ZM31.8811 31.0572C31.8967 31.0832 31.9019 31.1249 31.9227 31.1353C32.1832 31.2499 32.4384 31.3593 32.704 31.4634C32.7613 31.4843 32.8707 31.4791 32.9019 31.4374C33.0477 31.2499 33.2457 31.0728 33.23 30.802C33.2248 30.6926 33.1259 30.6041 33.0113 30.6197C32.6311 30.6614 32.2665 30.7811 31.9227 30.9634C31.9019 30.9739 31.8967 31.0259 31.8811 31.0572ZM59.4175 61.4739C59.9332 61.5051 60.2873 61.4009 60.6207 61.1249C60.7196 61.0416 60.7457 60.7968 60.6467 60.7447C60.5634 60.6926 60.4332 60.6405 60.3602 60.677C60.0061 60.8332 59.6884 61.0624 59.3082 61.1718C59.2717 61.177 59.2613 61.2916 59.2509 61.3593C59.2509 61.3801 59.2978 61.4114 59.3238 61.4322C59.3498 61.453 59.3863 61.4582 59.4175 61.4739ZM11.9175 139.896C11.9123 140.005 11.9019 140.042 11.9071 140.078C11.9227 140.146 11.9384 140.213 11.9592 140.281C12.0061 140.245 12.0634 140.213 12.0998 140.167C12.4852 139.656 12.704 139.047 13.0217 138.495C13.0425 138.458 12.98 138.375 12.9488 138.312C12.9488 138.312 12.8759 138.328 12.8602 138.349C12.5842 138.719 12.3029 139.078 12.0477 139.463C11.9592 139.604 11.9436 139.797 11.9175 139.896ZM88.3863 25.052C88.5373 24.9999 88.6727 24.9634 88.803 24.9061C88.8498 24.8801 88.8863 24.8228 88.928 24.7811C88.9019 24.7603 88.8759 24.7343 88.8446 24.7186C88.4488 24.5624 88.053 24.4113 87.6623 24.2499C87.4905 24.1822 87.3238 24.1509 87.1727 24.2916C87.0842 24.3801 87.178 24.4895 87.4384 24.6145C87.6623 24.7238 87.8811 24.8384 88.0998 24.9478C88.1936 24.9895 88.2978 25.0207 88.3863 25.052ZM43.4696 70.5572C43.5217 70.5937 43.5634 70.6509 43.6207 70.6666C43.7821 70.7082 43.9332 70.5416 44.1155 70.6614C44.3082 70.7864 44.428 70.6718 44.5113 70.4895C44.553 70.3957 44.6311 70.3124 44.6727 70.2186C44.6988 70.1666 44.6988 70.078 44.6727 70.0311C44.6415 69.9843 44.5478 69.9478 44.4957 69.9582C44.1259 70.052 43.7873 70.2239 43.4852 70.453C43.4644 70.4686 43.4748 70.5207 43.4696 70.5572ZM25.4904 107.375C25.4904 107.344 25.5009 107.302 25.4957 107.271C25.4748 107.208 25.454 107.146 25.4279 107.083C25.3707 107.104 25.2977 107.12 25.2509 107.156C24.9696 107.391 24.8863 107.75 24.7092 108.047C24.5998 108.224 24.7821 108.364 24.8394 108.516C24.8759 108.609 24.9227 108.599 25.0686 108.323C25.23 108.016 25.5009 107.755 25.4904 107.375ZM33.2821 67.9739C33.2561 67.953 33.2144 67.9061 33.1988 67.9114C32.7352 68.0989 32.3029 68.3489 31.9227 68.6822C31.8498 68.7447 31.855 68.8124 31.9279 68.8541C31.954 68.8697 32.0009 68.8853 32.0217 68.8749C32.4696 68.6509 32.9071 68.4114 33.2665 68.0572C33.2821 68.0416 33.2769 68.0051 33.2821 67.9739ZM49.9175 61.5103C49.5738 61.4374 49.3498 61.703 49.079 61.8436C49.0634 61.8541 49.053 61.9322 49.0634 61.9426C49.1102 61.9895 49.1884 62.0572 49.2248 62.0416C49.4852 61.953 49.7821 61.9322 49.9696 61.6874C49.9852 61.6614 50.0113 61.6197 50.0009 61.5936C49.9957 61.5676 49.954 61.5468 49.9175 61.5103ZM67.9488 21.3593C67.9228 21.3645 67.7092 21.3749 67.4957 21.3905C67.4644 21.3905 67.4332 21.427 67.4019 21.4426C67.428 21.4686 67.4436 21.5051 67.4748 21.5155C67.7769 21.6093 68.079 21.703 68.3863 21.7811C68.4384 21.7916 68.5165 21.7395 68.5686 21.6926C68.6207 21.6509 68.6728 21.5832 68.6832 21.5207C68.6884 21.4843 68.6102 21.4009 68.5634 21.3957C68.4227 21.3749 68.2769 21.3749 67.9488 21.3593ZM41.8707 67.2291C41.9123 67.2759 41.9696 67.3645 42.0061 67.3541C42.1727 67.3176 42.3394 67.2655 42.5009 67.1978C42.6519 67.1353 42.7248 66.953 42.6311 66.8853C42.553 66.828 42.4436 66.7655 42.355 66.7759C42.1363 66.802 41.98 66.9374 41.8655 67.1249C41.8498 67.1509 41.8655 67.1978 41.8707 67.2291ZM24.8967 34.9634C24.9279 34.9478 24.9696 34.9374 24.9904 34.9166C25.0009 34.9061 24.9852 34.8593 24.9696 34.8332C24.7925 34.5988 24.5634 34.4426 24.2717 34.3905C24.2196 34.3801 24.1311 34.4322 24.0998 34.4791C24.0738 34.5259 24.0842 34.6405 24.1207 34.6666C24.355 34.828 24.5946 34.9843 24.8967 34.9634ZM73.1259 40.8228C73.1571 40.8853 73.1832 40.9478 73.2196 40.9999C73.23 41.0155 73.2873 40.9947 73.3186 40.9791C73.5373 40.8593 73.704 40.6926 73.7352 40.4374C73.7405 40.3957 73.6623 40.3124 73.6207 40.3072C73.3186 40.2864 73.1363 40.4843 73.1259 40.8228ZM51.3967 61.7811C51.1207 61.7551 50.8655 61.9634 50.579 61.8436C50.5425 61.828 50.4592 61.9061 50.4071 61.953C50.3811 61.9739 50.3707 62.0155 50.3707 62.052C50.3707 62.0728 50.3915 62.1093 50.4123 62.1197C50.8186 62.2603 51.1675 62.0832 51.5061 61.8905C51.5061 61.8905 51.5009 61.8436 51.4852 61.828C51.4592 61.8072 51.4227 61.7968 51.3967 61.7811ZM44.6936 61.2343C44.454 61.4791 44.0582 61.3697 43.7821 61.6041C43.7561 61.6249 43.73 61.6509 43.7144 61.677C43.6936 61.703 43.6727 61.7395 43.678 61.7603C43.6936 61.7864 43.7352 61.8332 43.7561 61.828C44.1155 61.7186 44.5061 61.6978 44.7925 61.4166C44.8134 61.4009 44.8342 61.3593 44.8238 61.3436C44.8082 61.3176 44.7769 61.2968 44.6936 61.2343ZM14.1363 139.203C14.1675 139.25 14.1832 139.281 14.1988 139.307C14.23 139.292 14.2665 139.281 14.2821 139.255C14.4175 139.057 14.5529 138.854 14.6779 138.651C14.73 138.568 14.7821 138.474 14.6832 138.37C14.6207 138.302 14.4436 138.396 14.3863 138.547C14.303 138.766 14.2196 138.989 14.1363 139.203ZM30.8759 101.682C30.8498 101.682 30.8186 101.672 30.8029 101.682C30.6519 101.828 30.5009 101.963 30.3602 102.12C30.329 102.156 30.3498 102.245 30.355 102.307C30.3655 102.396 30.5529 102.396 30.6102 102.302C30.7196 102.13 30.8134 101.948 30.9123 101.766C30.9227 101.75 30.8863 101.708 30.8759 101.682ZM33.0998 29.7759C32.8342 29.7291 32.6259 29.8697 32.4019 29.9582C32.3134 29.9947 32.3029 30.0572 32.3602 30.0988C32.3915 30.1197 32.4175 30.1509 32.4488 30.1561C32.6936 30.1978 32.9332 30.1926 33.1363 30.0155C33.1884 29.9738 33.2248 29.9113 33.2717 29.8593C33.2092 29.8332 33.1519 29.802 33.0998 29.7759ZM41.6363 69.3801C41.6363 69.4114 41.6259 69.4478 41.6415 69.4634C41.6623 69.4843 41.704 69.5103 41.7248 69.4999C41.98 69.3905 42.23 69.2811 42.48 69.1614C42.5061 69.1509 42.5373 69.1041 42.5321 69.078C42.5321 69.052 42.4853 69.0051 42.4644 69.0051C42.1519 69.052 41.8603 69.1509 41.6363 69.3801ZM102.694 73.3697C102.714 73.453 102.73 73.5572 102.772 73.6509C102.808 73.7447 102.881 73.8436 102.996 73.7811C103.079 73.7343 103.199 73.6041 103.183 73.5572C103.142 73.4426 103.037 73.3436 102.938 73.2551C102.907 73.2239 102.813 73.2499 102.756 73.2655C102.735 73.2759 102.725 73.3228 102.694 73.3697ZM59.7092 23.828C59.5477 23.8332 59.3655 23.7916 59.2248 23.9218C59.204 23.9374 59.204 23.9895 59.2092 24.0207C59.2144 24.052 59.2353 24.0884 59.2613 24.0988C59.4019 24.1613 59.8498 24.0155 59.9123 23.9061C59.9227 23.9113 59.9227 23.8905 59.9123 23.9061C59.8498 23.8853 59.7821 23.8436 59.7092 23.828ZM87.0686 22.8905C86.9696 22.8957 86.8655 22.8957 86.7613 22.9061C86.73 22.9061 86.6728 22.9166 86.6675 22.9322C86.6623 22.9791 86.6571 23.0468 86.6832 23.0832C86.7665 23.2134 86.9019 23.2551 87.0425 23.2082C87.1311 23.177 87.2457 23.1041 87.2665 23.0311C87.303 22.8957 87.1623 22.9061 87.0686 22.8905ZM130.772 17.0728C130.621 17.078 130.516 17.0728 130.412 17.0832C130.35 17.0884 130.282 17.1145 130.214 17.1301C130.272 17.1561 130.324 17.1978 130.376 17.203C130.584 17.2238 130.787 17.2291 130.996 17.2291C131.027 17.2343 131.058 17.203 131.084 17.1822C131.069 17.1666 131.053 17.1353 131.032 17.1301C130.928 17.104 130.829 17.0884 130.772 17.0728ZM132.787 17.4061C132.683 17.4009 132.574 17.3905 132.47 17.3957C132.433 17.3957 132.402 17.4218 132.371 17.4322C132.381 17.4478 132.397 17.4791 132.412 17.4791C132.657 17.4947 132.902 17.5103 133.147 17.5155C133.168 17.5207 133.188 17.4843 133.209 17.4634C133.173 17.453 133.141 17.4322 133.11 17.427C133.001 17.4165 132.897 17.4113 132.787 17.4061ZM40.4384 66.3697C40.4852 66.4009 40.5061 66.4322 40.5373 66.4322C40.7248 66.4374 40.8394 66.3176 40.9384 66.177C40.9384 66.177 40.8967 66.1249 40.8655 66.1093C40.7717 66.0624 40.678 66.0676 40.5998 66.1509C40.5425 66.2187 40.4957 66.2968 40.4384 66.3697ZM40.73 65.5624C40.7561 65.5832 40.7821 65.6145 40.8082 65.6197C40.9436 65.6353 41.079 65.6561 41.178 65.5364C41.1988 65.5103 41.2092 65.4634 41.1988 65.4426C41.178 65.3957 41.1207 65.3124 41.1102 65.3176C40.9852 65.3645 40.8655 65.427 40.7509 65.4895C40.7352 65.4947 40.7353 65.5364 40.73 65.5624ZM44.3655 64.7707C44.3863 64.7968 44.4175 64.8541 44.4227 64.8489C44.553 64.802 44.6832 64.7499 44.8082 64.6926C44.8394 64.677 44.855 64.6405 44.8811 64.6145C44.829 64.578 44.7821 64.5103 44.73 64.5103C44.5009 64.5051 44.3342 64.6301 44.3655 64.7707ZM41.4384 63.8489C41.4644 63.8645 41.4905 63.8905 41.5217 63.8957C41.6884 63.9218 41.7665 63.7916 41.8707 63.703C41.8967 63.6822 41.9071 63.6457 41.928 63.6145C41.8655 63.5884 41.7925 63.5259 41.7561 63.5416C41.6363 63.6041 41.5269 63.6926 41.4227 63.7759C41.4123 63.7812 41.4332 63.8228 41.4384 63.8489ZM111.105 25.5155C111.121 25.5468 111.131 25.578 111.152 25.5988C111.168 25.6145 111.204 25.6301 111.22 25.6249C111.365 25.5259 111.464 25.4009 111.49 25.2238C111.496 25.1978 111.475 25.1614 111.454 25.1353C111.438 25.1249 111.402 25.1145 111.381 25.1249C111.22 25.203 111.131 25.3384 111.105 25.5155ZM6.98004 136.594C7.05817 136.432 7.13629 136.286 7.19879 136.135C7.20399 136.125 7.16232 136.078 7.13107 136.073C7.10503 136.062 7.06337 136.073 7.03732 136.094C6.91232 136.177 6.87587 136.302 6.88629 136.443C6.89149 136.484 6.93837 136.526 6.98004 136.594Z" fill="#131313"/>
</svg>
