<svg width="263" height="163" viewBox="0 0 263 163" fill="none" xmlns="http://www.w3.org/2000/svg">
<path d="M137.557 152.512C137.41 152.437 137.211 152.387 137.239 152.202C137.3 151.813 137.05 151.567 136.836 151.346C136.183 150.672 135.552 149.969 134.892 149.309C134.228 148.653 133.508 148.043 132.852 147.365C132.777 147.286 132.638 147.265 132.527 147.226C132.452 147.201 132.334 147.222 132.295 147.172C131.778 146.534 131.072 146.092 130.537 145.471C130.38 145.285 130.879 145.054 130.458 144.918C130.265 144.857 130.091 144.732 129.912 144.625C129.809 144.565 129.709 144.486 129.609 144.415C129.573 144.394 129.541 144.365 129.516 144.333C129.367 144.144 129.552 144.172 129.645 144.137C129.695 144.115 129.741 144.076 129.788 144.044C129.359 143.605 128.931 143.163 128.339 142.935C128.229 142.892 128.111 142.885 128.004 142.995C127.926 143.077 127.769 143.117 127.822 142.924C127.897 142.653 127.915 142.368 127.608 142.335C127.148 142.282 126.945 141.882 126.581 141.718C126.203 141.551 125.853 141.347 125.571 141.03C125.443 140.88 125.243 140.787 125.065 140.691C123.98 140.099 122.885 139.521 121.804 138.922C121.127 138.547 120.367 138.305 119.835 137.684C119.736 137.566 119.554 137.516 119.407 137.438C118.323 136.846 117.231 136.261 116.147 135.665C115.897 135.526 115.63 135.39 115.434 135.194C115.262 135.019 115.077 134.987 114.884 135.005C114.496 135.044 114.171 134.916 113.836 134.734C112.716 134.131 111.563 133.582 110.461 132.94C109.869 132.59 109.355 132.105 108.742 131.773C108.553 131.674 108.414 131.438 108.496 131.256C108.571 131.092 108.817 130.907 108.453 130.928C107.465 130.985 106.691 130.511 105.977 129.961C105.617 129.683 105.25 129.423 104.857 129.202C104.461 128.977 104.23 128.577 103.802 128.37C103.37 128.16 103.017 127.782 102.635 127.475C102.571 127.425 102.525 127.354 102.478 127.286C101.8 126.341 101.604 126.162 100.62 125.602C100.513 125.542 100.356 125.485 100.324 125.392C100.16 124.935 99.7173 124.796 99.4141 124.504C99.1251 124.226 98.9289 123.851 98.6186 123.573C98.508 123.473 98.4474 123.287 98.4153 123.13C98.3618 122.866 98.269 122.667 97.9587 122.667C97.9587 122.403 97.8802 122.207 97.6234 122.067C97.4522 121.975 97.2917 121.807 97.2025 121.636C96.778 120.837 96.2073 120.127 95.8613 119.282C95.3191 117.951 94.6735 116.67 94.3988 115.237C94.2704 114.562 93.9137 113.927 93.6461 113.282C93.5035 112.939 93.3287 112.611 93.1753 112.276C92.8079 111.452 92.3121 110.706 91.8055 109.964C91.7092 109.825 91.6058 109.747 91.4203 109.722C91.0743 109.683 91.1777 109.551 91.3454 109.354C91.4025 109.287 91.2883 109.055 91.2241 108.905C91.1849 108.809 91.0101 108.723 91.11 108.62C91.5166 108.209 91.2776 108.12 90.871 108.006C90.6534 107.942 90.4786 107.724 90.2824 107.578C90.1469 107.478 90.0291 107.378 90.0398 107.186C90.0612 106.747 89.6796 106.462 89.6047 106.051C89.5761 105.912 89.4192 105.791 89.2979 105.68C88.028 104.528 86.7475 103.38 85.4776 102.22C85.1458 101.921 84.807 101.614 84.65 101.172C84.5823 100.983 84.4752 100.918 84.2826 101.004C83.9438 101.157 83.6013 101.289 83.266 101.446C82.442 101.832 81.5075 101.853 80.6942 102.274C80.5943 102.324 80.4552 102.299 80.3303 102.299C79.8381 102.295 79.3637 102.381 78.9071 102.581C77.9119 103.023 76.856 103.148 75.7788 103.109C75.6646 103.105 75.5362 103.151 75.4684 102.991C75.3365 102.67 75.019 102.681 74.8727 102.862C74.648 103.144 74.113 102.905 74.0666 103.397C73.4424 103.59 72.8502 103.922 72.1796 103.908C71.9085 103.904 71.6981 103.968 71.4948 104.129C71.4341 104.175 71.3378 104.225 71.2736 104.211C70.6922 104.047 70.1749 104.386 69.6185 104.414C69.0477 104.443 68.4806 104.535 67.9063 104.571C67.5853 104.592 67.2571 104.66 66.9325 104.532C66.829 104.489 66.6614 104.468 66.5829 104.521C65.9087 104.978 65.1383 104.789 64.4213 104.831C63.3155 104.899 62.199 104.889 61.0932 104.803C59.538 104.678 57.9935 104.457 56.4418 104.279C55.4501 103.879 54.3765 103.783 53.3741 103.433C53.3135 103.412 53.235 103.337 53.2279 103.28C53.2136 103.098 53.2207 102.93 52.9924 103.148C52.8462 103.287 52.6928 103.219 52.5394 103.166C51.266 102.713 49.9176 102.549 48.6585 102.006C47.6561 101.568 46.5539 101.354 45.4945 101.047C44.9844 100.901 44.5029 100.672 43.9856 100.526C43.3186 100.337 42.673 100.073 41.9738 99.991C41.8525 99.9767 41.7277 99.941 41.6207 99.8839C40.3865 99.224 38.9989 98.9137 37.7897 98.2074C37.2475 97.89 36.6232 97.8472 36.0703 97.5511C33.7803 96.3276 26.8281 92.6999 25.6724 92.0685C25.4191 91.9294 25.1516 91.8188 24.9661 91.5798C24.8912 91.4835 24.7913 91.3908 24.6843 91.3444C23.4323 90.7951 22.3836 89.9105 21.2136 89.222C20.5465 88.8332 19.9116 88.3802 19.2196 88.0413C18.5561 87.7167 18.0211 87.2102 17.354 86.8963C16.4979 86.4932 15.6775 86.0152 14.8428 85.5694C14.3006 85.2804 13.7263 85.045 13.309 84.5563C13.1841 84.4101 12.963 84.3423 12.7811 84.246C12.0213 83.8358 11.2686 83.4291 10.5766 82.9012C10.2342 82.6408 9.8525 82.3947 9.44229 82.1985C8.36504 81.6848 7.4376 80.9393 6.51016 80.1902C5.90376 79.7016 5.2403 79.2913 4.62677 78.8134C3.85629 78.2141 2.99305 77.7076 2.47583 76.8265C2.40092 76.7017 2.3189 76.5162 2.12271 76.5198C1.81594 76.5305 1.7018 76.2986 1.56268 76.0988C1.42357 75.8991 1.35222 75.6316 1.17743 75.4853C1.00978 75.3533 0.727973 75.3676 0.517517 75.2713C0.335598 75.1892 0.160835 75.0573 0.10733 74.8361C0.0894944 74.7612 0.0716593 74.6578 0.10733 74.6007C0.135867 74.5579 0.282109 74.5293 0.31778 74.5614C0.802899 75.0109 1.46992 75.1215 2.01212 75.4639C2.14766 75.5495 2.31531 75.6066 2.47583 75.6173C2.58284 75.628 2.70414 75.5495 2.80402 75.4889C2.82185 75.4782 2.78262 75.3462 2.74695 75.2856C2.68274 75.1785 2.6221 75.018 2.52936 74.9931C1.91582 74.8254 1.55197 74.1049 0.806458 74.2297C0.703013 74.2475 0.567472 74.1691 0.471161 74.1013C0.378417 74.0335 0.242873 73.9051 0.257141 73.8302C0.324915 73.4664 0.392683 73.1061 0.282104 72.7422C0.749388 72.6067 0.360568 71.9504 0.859955 71.8041C0.995503 71.7649 1.05615 71.5473 0.991943 71.3725C0.934871 71.2227 0.667346 71.0122 1.12036 71.0586C1.36292 71.0836 1.59479 71.0051 1.81595 71.162C1.76244 71.6008 1.73746 72.0324 1.67325 72.4711C1.64828 72.621 1.50915 72.6245 1.38431 72.621C1.3415 72.6174 1.30227 72.6138 1.25946 72.6174C1.05614 72.6352 1.12037 72.7886 1.15961 72.8814C1.34866 73.3165 1.75529 73.2309 2.112 73.2452C2.458 73.2595 2.47226 73.2167 2.32245 72.81C2.30105 72.7565 2.31176 72.6887 2.3082 72.6281C2.46515 72.6424 2.6328 72.6281 2.77905 72.678C2.93244 72.728 2.84323 72.86 2.8147 72.967C2.77189 73.1204 2.72909 73.2773 2.72195 73.4307C2.71839 73.4913 2.82542 73.609 2.86823 73.6019C3.49603 73.5092 4.03106 73.2666 4.33426 72.6566C4.50548 72.3178 4.43057 72.011 4.11667 71.8291C3.68506 71.583 3.23205 71.4153 2.73267 71.3832C2.40806 71.3654 2.09418 71.3868 1.81595 71.162C1.88729 71.0158 1.95504 70.8802 2.00497 70.7233C2.04065 70.6127 2.06563 70.4665 2.02283 70.3702C1.92295 70.1526 1.78384 69.9492 1.65186 69.7459C1.51274 69.5319 1.71607 69.2537 1.50562 69.0468C1.35937 68.9077 1.22739 68.7507 1.10254 68.5902C1.00623 68.4654 1.09181 68.2299 1.2345 68.1836C1.39145 68.1372 1.55197 68.0694 1.70892 68.0694C2.01569 68.0694 2.27251 67.9981 2.47583 67.7591C2.76476 67.4238 3.03587 67.57 3.32837 67.7626C3.12861 67.9624 2.98237 68.2192 2.74338 68.3512C2.3082 68.5973 2.44731 68.9683 2.45801 69.3107C2.46157 69.4249 2.53648 69.5212 2.70413 69.482C2.81471 69.457 2.94668 69.5212 3.06439 69.5105C3.36759 69.4891 3.50671 69.6318 3.56735 69.9171C3.61729 70.1419 3.79922 70.2774 4.00967 70.2881C4.83366 70.3345 5.60415 70.6413 6.40674 70.7732C6.48521 70.7839 6.56725 70.7732 6.64572 70.7732C6.58151 70.6912 6.53513 70.5806 6.44952 70.5307C6.27117 70.4237 6.13565 70.2346 5.9787 70.1597C5.43651 69.8922 4.88718 69.4891 4.23441 69.935C4.07032 70.0456 4.01324 69.9885 4.04535 69.6603C4.07032 69.4213 3.98112 69.2644 3.80634 69.136C3.62798 69.0111 3.62085 68.897 3.80991 68.7792C3.98469 68.6687 4.01681 68.4725 3.85272 68.4011C3.54952 68.2692 3.56023 67.9267 3.32837 67.7626C3.44251 67.727 3.5531 67.6414 3.64227 67.6735C3.90624 67.7733 4.16305 67.9125 4.40918 68.0516C4.6232 68.1729 4.76947 68.1193 4.95139 67.9624C5.0584 67.8697 5.25101 67.8554 5.40796 67.8376C5.4686 67.8304 5.56848 67.8946 5.60059 67.9517C5.62912 68.0123 5.62554 68.1265 5.5863 68.18C5.49356 68.312 5.37587 68.4261 5.26529 68.5474C5.21178 68.6045 5.20819 68.7079 5.29736 68.7293C5.89306 68.8684 6.49233 69.004 7.0916 69.111C7.26995 69.1431 7.39837 69.0289 7.38766 68.8185C7.38053 68.7364 7.38768 68.6544 7.39838 68.5724C7.43761 68.2478 7.9798 68.1693 7.81215 67.7555C7.70157 67.4844 7.84069 67.1705 7.6445 66.9208C7.56959 66.8209 7.60525 66.7353 7.71227 66.7639C8.17955 66.878 8.45778 66.4892 8.83232 66.3608C8.93577 66.3251 9.07131 66.3572 9.18903 66.3786C9.38878 66.4143 9.4209 66.6034 9.26395 66.7817C9.0963 66.9779 9.08916 67.1705 9.214 67.1562C9.71339 67.0956 9.94882 67.5058 10.1628 67.7769C10.5517 68.262 11.1438 68.13 11.5897 68.4083C11.8465 68.5652 12.2246 68.551 12.5278 68.3655C12.6919 68.262 12.8417 68.3013 12.9915 68.3762C13.177 68.4653 13.366 68.5545 13.5408 68.6615C14.0581 68.9683 14.4683 69.4035 15.121 69.5283C15.6704 69.6318 16.1698 69.9956 16.687 70.2524C17.2363 70.5271 17.7678 70.8339 18.3564 71.0265C18.6489 71.1228 18.9627 71.2048 19.1768 71.508C19.3088 71.6935 19.5834 71.772 19.7939 71.904C20.4217 72.2857 21.0602 72.6352 21.638 73.1132C22.2302 73.6055 22.9864 73.898 23.6641 74.2868C23.7034 74.3082 23.6998 74.3974 23.7176 74.4544C23.6784 74.4616 23.632 74.483 23.5999 74.4723C23.5214 74.4473 23.4465 74.4081 23.3716 74.376C23.2967 74.3439 23.2218 74.2975 23.1433 74.2868C23.0898 74.2796 23.0256 74.3224 22.9686 74.3403C22.9864 74.3795 22.9971 74.4259 23.0256 74.4509C23.0898 74.5008 23.154 74.565 23.2289 74.5864C23.7997 74.7612 24.1671 75.2249 24.6308 75.5531C25.066 75.8598 25.626 76.0168 25.997 76.3806C26.4571 76.8301 27.0136 77.0691 27.5522 77.3544C28.4261 77.8217 29.3108 78.2712 30.1883 78.7242C30.331 78.7991 30.3345 78.792 30.3952 78.6743C30.4701 78.528 30.3488 78.742 30.3238 78.5779C30.3131 78.5173 30.3274 78.4495 30.3452 78.3925C30.3524 78.3782 30.4237 78.3782 30.4629 78.3818C30.5022 78.3889 30.5486 78.3996 30.5771 78.4281C31.5545 79.4875 32.9206 79.9013 34.1441 80.5577C34.244 80.6112 34.4152 80.6575 34.4901 80.6112C34.8932 80.3508 35.1964 80.6147 35.5139 80.7788C36.7588 81.4209 39.7623 82.9797 40.0262 83.0938C40.1439 83.1402 40.2723 83.0903 40.3365 82.9726C40.4543 82.755 40.6148 82.5409 40.654 82.3055C40.7575 81.7277 41.0143 81.2176 41.2675 80.6968C41.3746 80.4792 41.4316 80.2331 41.5208 80.0048C41.6207 79.7372 41.6992 79.4554 41.8383 79.2057C42.0951 78.742 42.3662 78.2854 42.6694 77.8503C42.9655 77.4222 42.9762 76.8265 43.4541 76.5126C43.9571 75.5638 44.4601 74.6185 44.9559 73.6661C45.0129 73.5627 45.0486 73.4343 45.0486 73.313C45.0629 72.2429 45.3697 71.212 45.5016 70.1561C45.6158 69.2644 45.7406 68.3797 45.8084 67.4773C45.919 66.0148 46.1294 64.5487 46.5825 63.1362C47.0069 61.8092 47.4064 60.4752 47.8523 59.1553C48.3125 57.782 48.5194 56.373 48.5871 54.9355C48.6585 53.3696 48.4837 51.8144 48.2982 50.2627C47.9914 47.6908 47.6811 45.119 47.328 42.5507C47.089 40.835 47.0997 39.1085 47.0426 37.3856C47.0212 36.6936 47.1889 35.9945 47.171 35.2989C47.1246 33.2871 47.2245 31.2824 47.3101 29.2777C47.385 27.4335 47.6026 25.6001 47.806 23.7666C47.9807 22.2042 48.5301 20.7382 48.7441 19.1972C48.7619 19.0795 48.819 18.9618 48.8725 18.8512C49.7143 17.0285 50.417 15.1379 51.4372 13.3972C51.8546 12.6874 52.2327 11.9525 52.6357 11.232C52.8355 10.8753 53.0067 10.5079 53.3206 10.2154C53.5239 10.0228 53.6452 9.74097 53.7701 9.48058C54.0947 8.80997 54.5263 8.21783 55.015 7.65424C57.2479 5.07169 59.8661 3.00995 63.0159 1.65804C63.13 1.6081 63.2442 1.55103 63.3654 1.53319C64.5033 1.36554 65.5913 0.937485 66.7613 0.901814C67.3712 0.880412 67.9848 0.773398 68.5769 0.573643C68.848 0.484467 69.1405 0.423841 69.4259 0.416706C70.949 0.377469 72.4721 0.423834 73.981 0.627156C74.8299 0.741301 75.6825 0.901812 76.5065 1.13367C77.2912 1.35483 78.0867 1.56172 78.8143 1.96123C79.7525 2.47845 80.7049 2.97071 81.6608 3.45583C82.0354 3.64488 82.3636 3.87317 82.6418 4.18351C82.7916 4.35472 82.9521 4.61511 83.1376 4.64365C83.4194 4.68645 83.5478 4.87551 83.744 5.01462C84.3932 5.47834 84.9283 6.02054 85.1744 6.80886C85.2457 7.03715 85.392 7.24404 85.499 7.4652C85.5168 7.4973 85.5026 7.5401 85.5026 7.57933C85.4277 7.5722 85.3171 7.59003 85.2778 7.54723C85.0032 7.24403 84.7535 6.91944 84.4717 6.62694C84.4146 6.5663 84.2469 6.5877 84.1399 6.61267C84.1007 6.62337 84.0579 6.76249 84.0722 6.83026C84.2577 7.67566 84.4182 8.52461 84.4717 9.38784C84.4788 9.49841 84.4289 9.62325 84.3754 9.72313C84.3575 9.75524 84.2184 9.75167 84.1578 9.72313C83.958 9.62682 84.0686 9.43777 84.0436 9.28795C83.9901 8.99189 83.8796 8.88489 83.6655 8.90985C83.4444 8.93839 83.4372 9.09533 83.4408 9.27011C83.4408 9.34502 83.4123 9.43777 83.3659 9.49128C83.291 9.56975 83.266 9.49485 83.1982 9.41994C82.9129 9.09177 82.7131 8.76717 82.8986 8.31415C82.9414 8.21071 82.8986 8.06802 82.8665 7.95031C82.8415 7.83616 82.7702 7.71845 82.6382 7.8433C82.549 7.9289 82.467 8.05019 82.3457 8.00382C82.1353 7.92178 82.0461 7.98598 82.0211 8.1893C81.8891 9.28796 81.8356 10.3902 81.8356 11.4924C81.8356 11.6565 81.882 11.8241 81.8535 11.9847C81.6787 13.0441 81.7821 14.107 81.7893 15.1665C81.7928 15.7408 81.6252 16.3222 81.6823 16.8822C81.8 18.0807 81.4647 19.24 81.4789 20.4279C81.4861 20.8559 81.3398 21.3089 81.0616 21.6585C80.8975 21.869 80.9225 22.0081 81.0437 22.1971C81.0901 22.272 81.0295 22.3255 80.9189 22.3327C80.8048 22.3362 80.6121 22.3184 80.6799 22.4968C80.8511 22.9391 80.7084 23.31 80.4587 23.6525C80.3232 23.8451 80.02 23.9878 79.995 24.1768C79.9558 24.5157 79.6562 24.6299 79.5563 24.8902C79.4707 25.1078 79.5563 25.3789 79.2852 25.5466C79.196 25.6036 79.2531 25.8355 79.0997 25.9496C78.7038 26.2528 78.6003 26.8129 78.1295 27.0519C78.0902 26.9449 77.9975 26.8271 78.0153 26.7308C78.0474 26.5739 78.1544 26.4348 78.2151 26.285C78.24 26.2208 78.2258 26.1423 78.2258 26.0709C78.1544 26.103 78.0867 26.1387 78.0117 26.1601C77.9475 26.1779 77.8691 26.1958 77.8191 26.1708C77.4053 25.9675 77.3162 25.9639 77.1842 26.1993C77.1057 26.342 77.0201 26.4883 76.9737 26.6452C76.8132 27.1589 76.2746 26.9877 75.9643 27.2195C75.9429 27.1446 75.9143 27.0697 75.9036 26.9948C75.8858 26.8735 75.8715 26.7558 75.7253 26.8949C75.604 27.0091 75.497 27.1339 75.3828 27.2516C75.2401 27.4086 75.2723 27.5049 75.4934 27.5762C75.8037 27.6797 75.8573 27.7546 75.7146 27.9044C75.6004 28.0221 75.472 28.122 75.3472 28.229C75.1902 28.3681 75.0903 28.5286 75.0903 28.7569C75.0939 29.4489 74.7871 30.1053 74.8371 30.8044C74.8585 31.0933 74.5196 31.2539 74.6016 31.5892C74.6658 31.8603 74.5909 32.1599 74.5874 32.4488C74.5838 32.6842 74.5695 32.8983 74.6873 33.148C74.8549 33.5154 74.7122 33.947 74.6124 34.3358C74.5553 34.5498 74.541 34.7353 74.6195 34.9315C74.78 35.356 74.887 35.7947 74.8371 36.2513C74.7907 36.6615 75.1438 37.0218 74.9584 37.4427C75.0761 38.2917 75.3721 40.5639 75.4007 40.8492C75.4149 41.0133 75.3935 41.1667 75.2366 41.2737C75.1331 41.3451 75.0582 41.4735 75.126 41.5912C75.5719 42.3759 75.447 43.2427 75.4827 44.0845C75.5255 45.1903 75.5576 46.2997 75.5719 47.4055C75.5933 48.8394 75.6575 50.277 75.5434 51.7109C75.4756 52.5706 75.4791 53.4338 75.5112 54.297C75.5862 56.1019 75.5612 57.9033 75.1617 59.6797C74.9726 60.518 74.8264 61.3634 74.6445 62.2016C74.5374 62.6796 74.4376 63.1647 74.2556 63.6177C73.7598 64.8733 73.3246 66.161 72.6469 67.3417C72.5435 67.5201 72.465 67.7377 72.3152 67.859C71.8729 68.205 71.6909 68.7186 71.4056 69.1681C71.2522 69.4106 71.0881 69.646 70.9026 69.8601C68.9229 72.1644 66.5722 73.9871 63.8256 75.2891C63.1978 75.5888 62.5843 75.9419 61.9243 76.1559C61.2252 76.3806 60.7044 76.7944 60.23 77.3152C59.752 77.836 58.1112 80.1867 57.7509 80.8252C57.2444 81.7276 56.9554 82.7157 56.6415 83.6895C56.2955 84.7596 55.7854 85.7156 55.1006 86.6074C54.4942 87.3957 53.8093 88.0841 53.0745 88.7369C53.021 88.7833 52.9853 88.8832 52.996 88.9509C53.0067 89.0116 53.0852 89.0972 53.1458 89.1079C54.751 89.4218 56.3597 89.7392 57.9685 90.0353C59.9981 90.4063 62.0421 90.4812 64.1003 90.3991C65.9087 90.3242 67.7137 90.26 69.5079 90.0139C71.1844 89.7892 72.8467 89.511 74.4554 88.9759C74.6908 88.8974 74.9262 88.8189 75.1652 88.7619C76.9024 88.3374 78.4755 87.5562 79.9843 86.6038C81.618 85.5729 83.2803 84.5849 84.832 83.4327C86.5085 82.1842 88.1172 80.843 89.7224 79.4982C91.513 78.0001 93.318 76.5126 95.1871 75.1072C96.432 74.1726 97.7804 73.37 99.1073 72.5425C100.709 71.5401 102.328 70.5735 103.948 69.5997C104.119 69.4962 104.326 69.4534 104.515 69.3821C104.529 69.4213 104.543 69.4641 104.558 69.5069C104.28 69.9492 103.784 70.1026 103.391 70.388C102.96 70.7019 102.489 70.9623 102.05 71.2619C101.922 71.3475 101.833 71.4866 101.726 71.6044C101.686 71.5937 101.643 71.5687 101.615 71.583C100.862 71.9397 100.167 72.3855 99.5924 72.9991C99.5532 72.9919 99.4997 72.942 99.4676 72.9563C98.8077 73.2523 98.2262 73.6839 97.6448 74.1049C97.5556 74.1691 97.52 74.2975 97.4629 74.4009C97.3452 74.3189 97.2382 74.3688 97.1347 74.4366C96.7602 74.6863 96.3856 74.936 96.0182 75.1964C95.9647 75.2356 95.954 75.3319 95.9219 75.4033C95.9826 75.4104 96.0646 75.4461 96.1038 75.4211C96.5783 75.1036 97.1098 74.8753 97.4629 74.4009C98.0943 74.1798 98.6507 73.8159 99.1929 73.4343C99.3499 73.3237 99.4569 73.1418 99.5924 72.9991C99.7636 73.0704 99.9277 73.0062 100.045 72.9135C100.605 72.4747 101.287 72.1965 101.726 71.6044C101.943 71.7078 102.121 71.5937 102.296 71.4866C103.627 70.6734 118.787 61.2314 121.558 59.5477C123.809 58.1851 126.113 56.9117 128.503 55.7987C130.294 54.9641 132.035 54.0295 133.822 53.1877C134.714 52.7668 135.641 52.4065 136.576 52.0962C138.134 51.5789 139.7 51.0867 141.223 50.466C141.641 50.2984 142.083 50.1806 142.522 50.0808C143.646 49.8311 144.769 49.56 145.907 49.3781C147.323 49.1533 148.75 48.9429 150.198 49.0642C150.441 49.0856 150.687 49.0321 150.933 49.0285C151.589 49.0249 152.239 49.0035 152.891 49.1747C153.483 49.3281 154.101 49.4244 154.711 49.4708C156.194 49.5849 157.596 50.0308 159.012 50.4446C160.614 50.9119 161.984 51.8358 163.453 52.567C163.967 53.0557 164.598 53.3589 165.19 53.7263C165.783 54.0937 166.346 54.5075 166.892 54.9391C168.076 55.8772 169.214 56.8831 170.427 57.782C171.611 58.6631 172.738 59.6084 173.887 60.5322C176.32 62.487 178.588 64.6058 180.504 67.0885C181.107 67.8697 181.752 68.6152 182.38 69.375C183.871 71.1799 185.33 73.0133 186.593 74.9931C186.661 75.0965 186.739 75.1928 186.821 75.2856C187.228 75.7421 187.403 76.3699 187.92 76.7445C188.523 76.6232 189.129 76.5269 189.725 76.3735C192.439 75.6779 195.143 74.9502 197.8 74.0621C199.366 73.5377 200.943 73.049 202.527 72.5853C203.315 72.357 204.125 72.1786 204.935 72.0574C206.647 71.797 208.32 71.3654 210.011 71.0051C212.629 70.4486 215.243 69.8993 217.944 69.935C218.636 69.9421 219.335 69.8066 220.023 69.6924C221.165 69.4998 222.303 69.4178 223.458 69.4356C224.193 69.4499 224.935 69.4249 225.673 69.2858C226.608 69.1039 227.557 69.1859 228.495 69.3393C229.715 69.5426 230.935 69.671 232.173 69.646C232.747 69.6353 233.321 69.7352 233.892 69.7816C235.123 69.8815 236.353 69.9457 237.577 70.0884C239.371 70.2952 241.147 70.6163 242.895 71.0657C243.965 71.3404 245.028 71.6507 246.091 71.9504C246.209 71.9825 246.323 72.0324 246.434 72.0895C247.465 72.6031 248.588 72.8671 249.662 73.2737C250.468 73.5805 251.228 74.005 252.002 74.3938C252.74 74.7648 253.461 75.1678 254.199 75.5352C254.941 75.9062 255.622 76.3485 256.218 76.9335C257.299 78.0001 258.444 79.0024 259.475 80.1118C260.174 80.8609 260.68 81.7776 261.016 82.7621C261.241 83.4256 261.383 84.1176 261.751 84.7275C261.886 84.9558 261.808 85.2091 261.811 85.4516C261.811 85.6229 261.701 85.6621 261.583 85.6193C261.305 85.5194 261.109 85.5979 260.952 85.8369C260.816 86.0402 260.688 86.2542 260.42 86.3256C260.313 86.3541 260.156 86.3505 260.163 86.5111C260.167 86.7108 260.142 86.9498 260.238 87.1032C260.388 87.3422 260.627 87.5241 260.823 87.7346C260.909 87.8309 260.955 87.9415 260.902 88.0663C260.698 87.9415 260.488 87.8737 260.317 87.6632C260.017 87.2958 259.796 87.2958 259.393 87.5491C259.296 87.6097 259.271 87.6632 259.336 87.7417C259.482 87.9272 259.657 88.0627 259.735 88.3267C259.803 88.5514 260.138 88.6834 260.299 88.901C260.481 89.1507 260.663 89.2898 260.994 89.2969C261.244 89.2969 261.43 89.4895 261.512 89.7535C261.544 89.8677 261.597 89.9854 261.676 90.071C261.704 90.1067 261.836 90.0746 261.904 90.0389C261.957 90.0068 262.025 89.8962 262.011 89.8748C261.847 89.6287 261.726 89.3825 261.772 89.0793C262.257 89.2149 262.475 89.6108 262.682 90.0175C262.835 90.3135 262.646 90.3492 262.403 90.3135C262.286 90.2957 262.264 90.3456 262.289 90.4634C262.336 90.6845 262.489 90.8129 262.657 90.9342C262.978 91.1625 262.938 91.4835 262.924 91.8224C262.913 92.147 262.799 92.3468 262.528 92.5215C262.221 92.7142 262.214 92.7498 262.382 93.1386C262.564 93.5667 262.321 93.9305 262.268 94.3229C261.879 94.5904 262.086 95.097 261.826 95.4358C261.601 95.7248 261.472 96.0886 261.301 96.4168C261.109 96.7806 260.895 97.1373 260.73 97.5154C260.128 98.8959 259.033 99.6985 257.659 100.184C257.31 100.305 256.953 100.412 256.6 100.519C253.404 101.468 250.168 102.288 246.99 103.312C245.581 103.765 244.126 104.05 242.674 104.357C241.586 104.585 240.502 104.817 239.403 104.988C237.773 105.242 236.139 105.388 234.495 105.502C234.252 105.516 234.006 105.548 233.767 105.591C233.696 105.602 233.635 105.684 233.582 105.741C233.574 105.748 233.61 105.812 233.639 105.834C235.822 107.546 237.655 109.576 239.25 111.837C239.367 112.005 239.474 112.19 239.621 112.329C240.89 113.517 241.846 114.958 242.895 116.324C244.022 117.791 245.114 119.285 246.234 120.755C247.122 121.925 247.657 123.252 247.968 124.671C248.028 124.953 248.082 125.221 248.217 125.481C248.331 125.695 248.453 125.938 248.467 126.173C248.513 126.794 248.913 127.307 248.952 127.932C248.984 128.463 249.138 128.991 249.134 129.523C249.134 129.972 249.212 130.325 249.598 130.582C249.683 130.639 249.644 130.75 249.53 130.728C249.216 130.675 249.205 130.871 249.198 131.085C249.18 131.702 249.17 132.316 249.145 132.933C249.138 133.09 249.13 133.321 249.034 133.389C248.41 133.817 248.542 134.491 248.495 135.073C248.46 135.537 248.36 135.95 248.167 136.364C248.032 136.657 247.971 136.981 247.843 137.277C247.807 137.352 247.632 137.374 247.518 137.391C247.49 137.395 247.436 137.281 247.411 137.217C247.383 137.145 247.372 137.067 247.354 136.992C247.297 137.049 247.233 137.103 247.186 137.167C246.983 137.449 247.054 137.705 247.265 137.952C247.468 138.191 247.297 138.148 247.119 138.18C246.562 138.276 246.377 138.576 246.494 139.122C246.526 139.271 246.655 139.325 246.765 139.303C247.083 139.25 247.325 139.4 247.572 139.55C247.604 139.571 247.654 139.617 247.646 139.639C247.625 139.699 247.593 139.789 247.547 139.803C247.072 139.935 246.594 140.045 246.12 140.181C245.891 140.249 245.795 140.534 245.46 140.495C245.035 140.441 245.032 140.502 244.372 140.987C244.176 141.13 243.947 141.233 243.737 141.358C243.423 141.547 243.013 141.665 242.813 141.939C242.307 142.639 241.643 142.564 240.951 142.471C240.83 142.457 240.705 142.368 240.602 142.392C240.116 142.51 239.674 142.478 239.185 142.3C238.779 142.154 238.297 142.25 237.869 142.054C237.634 141.947 237.395 142.046 237.377 142.232C237.313 142.935 236.817 143.224 236.239 143.338C235.394 143.505 234.538 143.659 233.678 143.691C231.869 143.759 230.079 143.555 228.302 143.159C227.022 142.878 225.766 142.524 224.514 142.157C224.318 142.1 224.129 142.014 223.936 141.943C222.114 141.28 220.369 140.456 218.686 139.489C218.618 139.45 218.532 139.443 218.454 139.421C218.447 139.528 218.411 139.639 218.432 139.735C218.507 140.06 218.614 140.374 218.682 140.695C218.9 141.74 219.16 142.781 219.306 143.837C219.452 144.893 219.502 145.967 219.56 147.033C219.642 148.546 219.695 150.065 219.763 151.581C219.781 152.009 219.891 152.395 220.298 152.63C220.366 152.669 220.419 152.744 220.448 152.819C220.476 152.89 220.494 152.99 220.466 153.058C220.444 153.104 220.348 153.144 220.28 153.147C219.848 153.176 219.827 153.172 219.838 153.447C219.859 153.886 219.659 154.331 219.877 154.763C219.524 155.191 219.863 155.701 219.699 156.183C219.56 156.589 219.649 157.078 219.656 157.527C219.659 158.059 219.499 158.583 219.584 159.122C219.606 159.268 219.502 159.436 219.445 159.589C219.331 159.885 219.117 160.057 218.796 160.078C218.589 160.089 218.382 160.121 218.179 160.099C217.958 160.071 217.812 160.124 217.64 160.285C217.359 160.549 217.034 160.474 216.752 160.238C216.663 160.16 216.599 160.039 216.499 159.989C216.203 159.843 215.778 160.178 215.575 159.867C215.372 159.561 215.076 159.661 214.837 159.55C214.534 159.411 214.416 159.546 214.427 159.914C214.43 159.953 214.451 159.992 214.451 160.035C214.469 160.367 214.455 160.381 214.141 160.274C213.984 160.221 213.838 160.146 213.677 160.099C213.328 159.996 212.935 160.328 213.007 160.667C213.039 160.827 213.1 160.98 213.135 161.137C213.16 161.241 213.107 161.305 213.01 161.312C212.846 161.326 212.679 161.362 212.522 161.344C212.197 161.301 211.93 161.433 211.744 161.647C210.956 162.557 209.978 162.593 208.93 162.297C208.027 162.036 207.132 161.744 206.233 161.469C205.491 161.241 204.746 161.02 204.007 160.784C203.811 160.72 203.633 160.609 203.444 160.531C202.648 160.196 201.885 159.803 201.068 159.507C200.112 159.161 199.202 158.648 198.382 158.013C198.186 157.863 197.979 157.663 197.758 157.635C196.991 157.545 196.395 157.067 195.71 156.793C195.139 156.568 194.622 156.236 194.009 156.083C193.584 155.976 193.153 155.737 192.817 155.451C192.468 155.152 192.075 154.938 191.712 154.67C190.163 153.532 188.583 152.43 187.285 150.989C186.268 149.862 185.241 148.753 184.374 147.497C183.664 146.473 183.133 145.375 182.723 144.201C182.113 142.45 181.471 140.712 180.793 138.99C180.054 137.11 179.345 135.219 178.831 133.264C178.214 130.914 177.736 128.542 177.582 126.105C177.458 124.094 177.294 122.085 177.247 120.07C177.169 116.785 177.158 113.499 177.632 110.239C177.868 108.623 178.207 107.018 178.524 105.409C178.674 104.65 178.824 103.89 179.106 103.158C179.205 102.898 179.227 102.598 179.234 102.313C179.255 101.618 179.245 100.918 179.255 100.219C179.277 98.6997 179.384 97.1872 179.658 95.6891C179.708 95.4073 179.773 95.1219 179.769 94.8366C179.755 94.0054 179.922 93.21 180.183 92.4252C180.465 91.5727 180.465 90.656 180.786 89.8106C180.832 88.6513 181.221 87.5633 181.467 86.4504C181.538 86.1294 181.506 85.8904 181.253 85.6799C180.461 85.0343 179.769 84.2745 178.974 83.6253C178.499 83.2401 178.064 82.7871 177.682 82.3091C176.609 80.9643 175.571 79.5874 174.518 78.2248C174.169 77.7718 173.851 77.2795 173.441 76.8872C173.024 76.4912 172.842 75.892 172.307 75.6102C171.34 74.4937 170.327 73.4129 169.421 72.25C168.362 70.8838 167.152 69.6603 165.875 68.5189C164.812 67.5665 163.675 66.6854 162.39 66.0112C161.22 65.3977 160.004 64.9447 158.752 64.5416C156.276 63.7426 153.719 63.3859 151.168 63.0185C149.538 62.783 147.887 62.9007 146.274 63.3395C145.722 63.4893 145.137 63.5357 144.58 63.6855C142.554 64.242 140.574 64.9304 138.666 65.8329C137.439 66.4107 136.24 67.0421 135.02 67.6342C134.211 68.0302 133.472 68.5652 132.67 68.9754C131.535 69.5569 130.512 70.2988 129.481 71.0336C129.231 71.212 129.138 71.2048 129.192 70.8731C129.213 70.7411 129.16 70.7019 129.085 70.7839C128.864 71.0122 128.507 71.0907 128.4 71.4581C128.343 71.6507 128.204 71.8184 128.082 71.986C127.926 72.2108 127.843 71.9361 127.758 71.9325C127.451 71.9218 127.134 71.9789 126.88 72.2072C126.741 72.3285 126.752 72.5461 126.941 72.6388C127.027 72.6816 127.102 72.6959 127.059 72.8029C127.03 72.8742 126.977 72.9456 126.912 72.9884C126.381 73.3772 125.885 73.8052 125.471 74.3189C125.389 74.4188 125.279 74.4616 125.154 74.3974C125.215 74.2083 125.289 74.0299 125.343 73.8373C125.371 73.7375 125.314 73.6804 125.211 73.6768C125.172 73.6768 125.115 73.659 125.097 73.6768C124.715 74.0763 124.337 74.4794 123.959 74.8825C123.82 75.0287 123.827 75.0466 124.137 75.2606C124.02 75.4211 123.941 75.6565 123.784 75.7421C122.867 76.2344 122.165 76.9942 121.359 77.622C121.33 77.6434 121.28 77.6362 121.241 77.6434C121.376 77.358 121.526 77.0762 121.647 76.7837C121.687 76.6838 121.683 76.5376 121.53 76.4948C121.462 76.4769 121.359 76.4591 121.312 76.4983C121.13 76.6446 120.963 76.8123 120.791 76.9692C120.973 77.3116 120.456 77.6148 120.741 77.9644C120.631 78.2319 120.499 78.4602 120.21 78.6065C119.928 78.7527 119.693 78.9989 119.425 79.1808C119.336 79.2378 119.126 79.2878 119.101 79.2485C118.915 78.9917 118.772 79.0167 118.762 79.3128C118.755 79.6267 118.683 79.8692 118.43 80.0583C118.277 80.1688 118.138 80.0975 118.08 79.8656C118.045 79.7051 118.216 79.8086 118.066 79.7479C117.913 79.6837 118.12 79.6124 118.002 79.7123C117.774 79.9013 117.36 79.962 117.442 80.4185C117.485 80.6361 117.381 80.8287 117.203 80.95C116.422 81.4708 115.74 82.1379 114.834 82.4696C114.299 82.6658 113.975 83.1937 113.458 83.4398C113.315 83.504 113.219 83.6717 113.076 83.7323C112.352 84.0355 111.745 84.5242 111.11 84.9594C110.618 85.2911 110.122 85.5301 109.516 85.498C109.159 85.4802 108.881 85.6193 108.749 85.976C108.553 86.5075 108.164 86.8642 107.672 87.0961C107.126 87.3493 106.702 87.8202 106.056 87.863C106.213 87.4349 106.199 87.4242 105.806 87.3208C105.66 87.2815 105.621 87.2245 105.61 87.0925C105.606 87.0283 105.574 86.9641 105.557 86.8999C105.425 86.9926 105.26 87.064 105.171 87.1888C105.079 87.3172 105.225 87.3779 105.325 87.4314C105.578 87.5705 105.806 87.7203 106.056 87.863C105.938 87.97 105.853 88.1269 105.717 88.1697C105.296 88.2982 104.861 88.3731 104.433 88.4801C103.998 88.5907 103.734 88.8368 103.666 89.3219C103.605 89.7642 103.199 90.1138 102.788 90.2101C102.756 90.2172 102.699 90.2101 102.689 90.1887C102.671 90.1566 102.664 90.1031 102.678 90.071C102.785 89.8035 102.903 89.5431 103.01 89.2791C103.049 89.1792 102.995 89.1364 102.878 89.1578C102.796 89.1757 102.714 89.1899 102.635 89.2113C102.385 89.2755 102.271 89.4396 102.3 89.7036C102.343 90.1245 102.35 90.1602 102.05 90.2315C101.633 90.3314 101.333 90.6203 100.984 90.8236C100.852 90.9021 100.766 91.0662 100.677 91.2017C100.431 91.587 100.195 91.7867 99.8136 91.9294C99.7494 91.9544 99.6852 92.04 99.6673 92.1113C99.6352 92.2148 99.703 92.254 99.81 92.2612C99.8742 92.2647 99.9812 92.3111 99.9955 92.3575C100.106 92.7391 100.074 93.1779 100.473 93.4311C100.152 93.8949 100.62 93.9305 100.834 94.1089C100.862 94.1339 100.88 94.1767 100.905 94.2088C100.848 94.2444 100.798 94.2872 100.737 94.3122C100.68 94.3372 100.616 94.3479 100.556 94.3657C100.584 94.3943 100.609 94.4299 100.645 94.4513C100.78 94.5405 100.93 94.6368 101.094 94.5476C101.269 94.4513 101.39 94.4085 101.408 94.676C101.422 94.8615 101.522 94.9828 101.718 94.9792C102.204 94.9792 102.56 95.2682 102.931 95.5179C102.956 95.5357 102.96 95.5821 102.974 95.6177C102.896 95.6249 102.817 95.6463 102.742 95.6392C102.664 95.632 102.571 95.5535 102.514 95.5749C102.364 95.6392 102.364 95.4394 102.414 95.5963C102.435 95.6677 102.514 95.7212 102.564 95.7854C102.642 95.8781 102.721 95.9745 102.796 96.0708C102.842 96.135 102.874 96.2206 102.938 96.267C103.038 96.3419 103.177 96.3775 103.27 96.2848C103.388 96.1671 103.48 96.0244 103.666 96.028C103.994 96.0315 104.076 96.3811 104.326 96.5131C104.472 96.5916 104.315 96.695 104.251 96.7877C104.069 97.0553 104.037 97.3121 104.201 97.4405C104.633 97.7758 104.939 98.1932 105.157 98.6925C105.221 98.8388 105.378 98.7782 105.482 98.7354C105.631 98.6747 105.76 98.5784 105.906 98.5071C105.988 98.4643 106.163 98.6355 106.106 98.7032C105.974 98.8566 105.924 98.9922 106.138 99.0742C106.338 99.1491 106.612 99.5807 106.751 99.0029C106.755 98.985 106.916 98.9708 106.955 99.0064C107.197 99.224 107.54 99.4238 107.625 99.6985C107.757 100.109 108.05 100.39 108.243 100.744C108.378 100.993 108.225 100.961 108.057 101C107.907 101.04 107.889 100.879 107.943 101.036C107.957 101.075 107.979 101.125 108.011 101.136C108.157 101.204 108.307 101.286 108.46 101.307C109.013 101.382 109.47 101.6 109.844 102.028C110.001 102.206 110.215 102.409 110.429 102.452C110.718 102.509 110.986 102.552 111.085 102.845C111.26 103.369 111.617 103.594 112.152 103.683C112.412 103.726 112.844 103.629 112.876 104.122C112.876 104.164 113.001 104.243 113.058 104.236C113.386 104.189 113.593 104.414 113.846 104.539C114.738 104.967 115.548 105.523 116.361 106.083C117.171 106.64 118.07 107.043 118.858 107.657C119.504 108.156 120.281 108.481 120.998 108.887C121.134 108.962 121.134 109.094 120.998 109.144C120.923 109.173 120.816 109.222 120.77 109.19C120.638 109.105 120.549 108.959 120.417 108.88C120.064 108.67 119.736 108.398 119.297 108.406C119.022 108.409 118.83 108.281 118.673 108.07C118.523 107.867 118.294 107.963 118.102 107.928C118.07 107.921 118.02 107.956 117.995 107.985C117.988 107.999 118.009 108.06 118.034 108.074C118.166 108.17 118.294 108.281 118.437 108.349C118.769 108.502 118.965 108.741 118.962 109.112C118.962 109.283 118.99 109.437 119.147 109.536C119.768 109.932 120.499 110.146 121.03 110.692C121.583 110.706 121.986 111.145 122.518 111.231C122.632 111.249 122.746 111.309 122.85 111.366C122.996 111.445 123.074 111.37 123.142 111.259C123.267 111.052 123.456 110.981 123.666 111.081C124.152 111.309 124.622 111.562 125.1 111.801C125.133 111.819 125.182 111.805 125.225 111.801C125.2 111.752 125.19 111.673 125.15 111.648C124.976 111.537 124.794 111.445 124.615 111.341C124.515 111.284 124.391 111.188 124.469 111.081C124.53 111.002 124.687 110.974 124.804 110.967C124.922 110.96 125.058 110.977 125.157 111.035C125.803 111.406 126.467 111.712 127.205 111.855C127.358 111.887 127.501 111.998 127.647 112.073C128.086 112.301 128.51 112.551 129.024 112.59C129.142 112.6 129.26 112.661 129.37 112.711C130.462 113.182 131.55 113.66 132.641 114.127C132.827 114.209 133.023 114.298 133.219 114.306C133.479 114.316 133.686 114.455 133.918 114.516C134.318 114.619 134.464 115.119 134.931 115.108C135.327 115.094 135.595 115.411 135.926 115.561C136.297 115.725 136.626 115.971 137.075 115.975C137.3 115.975 137.528 116.15 137.749 116.26C139.397 117.106 141.042 117.958 142.697 118.793C143.207 119.05 143.674 119.417 144.277 119.46C144.719 119.845 145.304 119.934 145.804 120.205C146.749 120.712 147.723 121.161 148.65 121.696C149.709 122.31 150.73 122.988 151.764 123.637C151.832 123.68 151.925 123.751 151.925 123.812C151.928 124.336 152.41 124.411 152.699 124.668C153.309 125.21 154.04 125.599 154.6 126.209C154.785 126.412 155.078 126.498 155.078 126.862C155.078 126.976 155.292 127.086 155.403 127.204C155.77 127.589 156.137 127.978 156.505 128.363C156.498 129.144 157.289 129.355 157.611 129.904C157.678 130.018 158.174 130.675 158.149 130.728C158.092 130.85 157.885 130.921 158.078 131.106C158.52 131.531 158.948 131.97 159.387 132.398C160.061 133.047 160.628 133.789 161.195 134.527C161.381 134.766 161.584 134.905 161.83 135.048C162.03 135.676 162.515 136.097 162.872 136.625C162.954 136.746 163.246 136.707 163.425 136.785C163.539 136.835 163.56 136.967 163.443 137.07C163.325 137.37 163.318 137.384 163.642 137.516C163.796 137.577 163.796 137.659 163.771 137.777C163.707 137.827 163.653 137.898 163.582 137.923C163.432 137.98 163.425 138.08 163.478 138.198C163.521 138.294 163.539 138.451 163.717 138.347C163.999 138.183 164.281 138.023 164.566 137.866C164.716 137.784 164.848 137.88 165.001 138.133C165.094 138.283 165.012 138.333 164.898 138.38C164.823 138.415 164.737 138.433 164.673 138.476C164.424 138.64 164.381 138.772 164.52 138.975C164.709 139.246 164.894 139.517 165.105 139.767C165.226 139.917 165.376 139.896 165.512 139.742C165.597 139.646 165.704 139.592 165.825 139.71C165.925 139.81 165.936 139.935 165.858 140.031C165.733 140.188 165.533 140.413 165.85 140.463C166.36 140.541 166.075 141.262 166.596 141.269C166.503 141.643 166.821 141.85 166.949 142.132C167.017 142.289 167.324 142.282 167.224 142.549C167.031 142.496 166.821 142.467 166.642 142.378C166.503 142.307 166.389 142.175 166.293 142.046C166.072 141.761 165.843 141.554 165.476 141.822C165.062 141.729 164.57 141.89 164.256 141.44C164.22 141.39 164.038 141.444 163.921 141.447C163.66 141.447 163.66 141.447 163.707 141.611C163.814 141.993 163.935 142.371 164.017 142.753C164.099 143.12 164.156 143.488 164.509 143.705C164.805 143.887 164.506 144.258 164.784 144.472C165.009 144.64 164.916 145.007 165.173 145.196C165.119 145.539 165.276 145.888 165.069 146.209C165.005 146.313 164.923 146.43 165.055 146.491C165.337 146.616 165.337 146.94 165.579 147.087C165.365 147.643 165.494 148.193 165.501 148.753C165.501 148.956 165.558 149.159 165.365 149.313C165.347 149.327 165.39 149.455 165.437 149.484C165.494 149.523 165.597 149.548 165.651 149.519C165.754 149.462 165.822 149.338 165.929 149.288C166.029 149.241 166.229 149.198 166.264 149.245C166.35 149.37 166.443 149.559 166.41 149.687C166.296 150.126 166.064 150.518 165.779 150.871C165.743 150.918 165.622 150.932 165.554 150.911C165.397 150.857 165.412 150.771 165.544 150.682C165.729 150.554 165.797 150.386 165.726 150.154C165.647 149.905 165.558 149.83 165.28 149.88C165.03 149.923 164.909 150.015 165.144 150.251C165.19 150.297 165.219 150.425 165.19 150.475C164.948 150.868 165.019 151.36 164.812 151.742C164.588 152.156 165.048 152.409 164.952 152.765C165.019 152.741 165.101 152.73 165.144 152.683C165.273 152.551 165.269 152.398 165.19 152.238C165.141 152.134 165.094 152.024 165.059 151.917C165.051 151.884 165.073 151.831 165.101 151.802C165.169 151.724 165.248 151.72 165.29 151.795C165.444 152.063 165.64 152.252 165.979 152.202C166.211 152.17 166.432 152.188 166.642 151.974C167.217 151.392 167.805 150.829 168.201 150.097C168.319 149.883 168.444 149.669 168.583 149.466C168.615 149.42 168.729 149.402 168.797 149.416C168.843 149.427 168.911 149.53 168.897 149.573C168.725 150.129 167.991 151.232 167.509 151.67C167.234 151.917 166.967 152.166 166.685 152.402C166.599 152.473 166.475 152.505 166.368 152.548C166.218 152.605 166.032 152.616 165.918 152.712C165.397 153.161 164.766 153.326 164.128 153.479C163.699 153.586 163.389 153.789 163.246 154.232C163.175 154.46 163.018 154.677 163.407 154.745C163.414 154.988 163.414 155.216 163.421 155.459C163.346 155.451 163.271 155.441 163.204 155.455C163.018 155.491 162.804 155.505 162.776 155.762C162.772 155.794 162.804 155.862 162.804 155.862C162.993 155.844 163.2 155.862 163.314 155.655C163.35 155.583 163.389 155.53 163.421 155.459C163.746 155.694 164.078 155.623 164.284 155.33C164.591 154.899 165.037 154.578 165.258 154.075C165.326 153.921 165.405 153.632 165.626 153.732C165.761 153.793 165.565 154.018 165.54 154.171C165.515 154.328 165.494 154.471 165.372 154.61C164.859 155.184 164.402 155.815 163.717 156.215C163.682 156.236 163.642 156.258 163.614 156.283C162.622 157.135 161.524 157.824 160.35 158.391C160.325 158.401 160.307 158.473 160.307 158.473C160.368 158.516 160.436 158.59 160.493 158.583C160.996 158.512 161.359 158.141 161.812 157.963C162.109 157.849 161.994 158.07 162.055 158.177C162.226 158.469 162.33 158.765 162.34 159.183C162.344 159.3 162.376 159.365 162.476 159.322C162.797 159.183 163.186 159.2 163.443 158.915C163.675 158.662 163.675 158.662 163.81 158.687C163.921 158.708 164.092 158.694 164.135 158.762C164.302 159.015 164.466 158.894 164.648 158.804C164.77 158.744 164.83 158.498 165.009 158.64C165.066 158.687 165.005 158.869 165.001 158.986C164.987 159.575 164.516 159.785 164.103 160.01C163.96 160.089 163.835 160.142 163.728 160.274C163.114 161.034 162.344 161.505 161.338 161.53C161.138 161.537 161.11 161.622 161.235 161.851C161.295 161.958 161.392 162.054 161.267 162.161C161.22 162.2 161.106 162.225 161.071 162.197C160.928 162.083 160.785 162.051 160.625 162.136C160.411 162.254 160.193 162.364 160 162.507C159.861 162.607 159.744 162.707 159.562 162.636C159.273 162.518 159.002 162.636 158.72 162.693C158.613 162.714 158.481 162.664 158.374 162.621C158.306 162.593 158.235 162.521 158.21 162.45C158.196 162.411 158.253 162.307 158.303 162.286C158.481 162.193 158.67 162.125 158.855 162.047C159.005 162.111 159.151 162.218 159.312 162.108C159.369 162.068 159.444 161.951 159.426 161.919C159.369 161.822 159.276 161.733 159.18 161.672C159.044 161.583 158.895 161.515 158.781 161.712C158.517 161.544 158.181 161.512 157.974 161.687C157.536 162.058 157.029 162.083 156.512 162.147C156.448 162.154 156.391 162.218 156.33 162.257C156.383 162.307 156.43 162.389 156.49 162.404C156.644 162.439 156.804 162.439 156.961 162.464C156.993 162.468 157.022 162.514 157.04 162.546C157.083 162.618 157.054 162.696 156.951 162.714C156.68 162.76 156.401 162.785 156.127 162.821C155.97 162.743 155.816 162.653 155.659 162.817C155.292 162.871 154.942 163.213 154.554 162.878C153.872 162.842 153.334 162.421 152.724 162.193C152.538 162.125 152.438 162.211 152.313 162.336C152.032 162.614 151.907 162.65 151.711 162.45C151.097 161.822 150.323 161.448 149.574 161.034C149.431 160.955 149.264 160.87 149.189 160.738C148.95 160.317 148.361 160.527 148.104 160.053C147.922 159.721 147.498 159.521 147.173 159.275C147.138 159.247 147.045 159.286 146.981 159.297C146.991 159.336 146.995 159.379 147.016 159.414C147.098 159.554 147.184 159.689 147.262 159.832C147.284 159.864 147.284 159.914 147.277 159.953C147.273 159.978 147.252 160.014 147.227 160.024C147.191 160.042 147.127 160.06 147.109 160.042C146.428 159.354 145.693 158.705 145.436 157.713C145.479 157.592 145.429 157.506 145.336 157.435C145.408 157.017 145.318 156.818 145.005 156.743C144.787 156.689 144.569 156.675 144.345 156.632C144.423 156.322 144.091 156.168 144.102 155.862C144.109 155.715 143.877 155.73 143.82 155.794C143.556 156.097 143.135 155.979 142.836 156.186C142.629 156.329 142.465 156.254 142.368 156.011C142.344 155.947 142.269 155.847 142.219 155.851C141.798 155.876 141.527 155.737 141.434 155.28C141.38 155.02 141.12 154.927 140.892 154.831C140.646 154.731 140.635 154.888 140.606 155.056C140.603 155.077 140.449 155.113 140.424 155.088C140.264 154.913 140.043 154.742 139.975 154.528C139.79 153.943 139.361 153.643 138.823 153.575C138.409 153.525 138.152 153.383 137.938 153.04C137.821 152.855 137.499 152.833 137.557 152.512C137.835 152.584 138.006 152.858 138.32 152.84C138.381 152.837 138.466 152.758 138.491 152.694C138.509 152.637 138.477 152.516 138.434 152.494C138.295 152.427 138.109 152.43 137.999 152.337C137.696 152.095 137.696 152.437 137.557 152.512ZM132.32 59.1482C132.577 59.2053 132.791 59.1304 132.944 58.9021C132.962 58.8771 132.962 58.8272 132.951 58.7915C132.944 58.7701 132.902 58.7451 132.877 58.7451C132.605 58.7665 132.441 58.9235 132.32 59.1482C132.131 59.191 131.946 59.2445 131.76 59.3087C131.703 59.3301 131.642 59.4264 131.642 59.4907C131.639 59.5442 131.714 59.6298 131.771 59.6476C131.831 59.669 131.946 59.6583 131.981 59.6155C132.103 59.4621 132.213 59.3123 132.32 59.1482ZM120.62 62.7866C120.26 62.7616 120.064 63.0185 119.871 63.2646C119.853 63.2896 119.864 63.3466 119.882 63.3787C119.889 63.393 119.939 63.3966 119.971 63.393C120.331 63.3359 120.545 63.1397 120.62 62.7866C121.148 62.9043 121.33 62.5333 121.483 62.141C121.498 62.1053 121.501 62.0625 121.501 62.0233C121.501 61.9448 121.419 61.9198 121.359 62.0161C121.17 62.3336 120.749 62.4156 120.62 62.7866ZM200.551 87.4242C200.504 87.36 200.451 87.3208 200.415 87.2494C200.312 87.0426 200.169 87.1103 200.016 87.1781C199.912 87.2245 199.891 87.2994 199.998 87.3529C200.169 87.4421 200.351 87.6097 200.551 87.4242C200.74 87.492 200.922 87.5491 201.118 87.5919C201.246 87.624 201.446 87.41 201.41 87.2744C201.353 87.0247 201.25 87.2494 201.178 87.2744C201.086 87.3101 201.036 87.2923 200.964 87.2352C200.683 87.0069 200.665 87.3029 200.551 87.4242ZM245.06 127.297C245.01 127.236 244.971 127.19 244.914 127.136C244.864 127.09 244.804 127.054 244.75 127.015C244.707 127.076 244.643 127.133 244.629 127.2C244.614 127.275 244.632 127.361 244.657 127.432C244.682 127.5 244.732 127.557 244.771 127.621C244.832 127.575 244.907 127.543 244.953 127.489C245 127.429 245.028 127.368 245.06 127.297C245.239 127.386 245.399 127.464 245.478 127.664C245.528 127.785 245.631 127.878 245.745 127.807C245.792 127.778 245.784 127.596 245.752 127.504C245.645 127.208 245.535 126.919 245.417 126.63C245.349 125.966 245.046 125.371 244.821 124.753C244.786 124.654 244.657 124.593 244.565 124.514C244.704 124.222 244.522 123.979 244.418 123.726C244.368 123.605 244.151 123.591 244.012 123.676C243.876 123.765 243.919 123.883 243.951 123.994C244.047 124.297 244.318 124.386 244.565 124.514C244.547 124.9 244.468 125.274 244.804 125.617C244.946 125.763 245.007 126.066 244.985 126.287C244.946 126.712 245.217 126.587 245.417 126.63C245.292 126.862 245.185 127.065 245.06 127.297ZM194.676 132.162C194.612 132.209 194.565 132.251 194.501 132.301C194.173 132.53 194.134 132.608 194.237 132.876C194.269 132.951 194.305 133.025 194.355 133.09C194.419 133.168 194.415 133.35 194.583 133.279C194.644 133.254 194.701 133.165 194.715 133.093C194.793 132.779 194.868 132.458 194.676 132.162C194.686 131.752 194.54 131.37 194.38 131.006C194.323 130.882 194.159 130.803 194.034 130.707C194.041 130.586 194.059 130.464 194.027 130.357C193.88 129.844 193.741 129.337 193.691 128.798C193.645 128.313 193.577 127.785 193.342 127.379C193.035 126.847 192.839 126.255 192.482 125.763C192.293 125.503 192.297 125.117 191.965 124.953C191.865 124.903 191.876 125.132 192.025 125.956C192.086 126.277 192.236 126.605 192.207 126.919C192.172 127.347 192.304 127.611 192.671 127.793C192.914 127.914 192.76 128.007 192.653 128.142C192.493 128.335 192.518 128.403 192.746 128.467C192.906 128.51 193.106 128.506 193.106 128.709C193.11 128.93 193.174 129.105 193.285 129.287C193.452 129.565 193.409 129.84 193.235 130.097C192.967 130.493 193.424 130.389 193.516 130.532C193.663 130.767 193.877 130.586 194.034 130.707C194.034 131.113 194.194 131.481 194.365 131.838C194.426 131.966 194.565 132.059 194.676 132.162ZM242.653 126.027C242.513 126.355 242.292 126.672 242.667 127.008C242.738 127.072 242.781 127.126 242.856 127.079C242.884 127.061 242.913 127.026 242.924 126.994C242.974 126.812 242.892 126.612 243.088 126.451C243.195 126.366 243.038 126.259 242.952 126.202C242.852 126.134 242.76 126.084 242.653 126.027C242.735 125.856 242.556 125.627 242.777 125.492C242.863 125.438 242.884 125.346 242.802 125.288C242.71 125.228 242.592 125.196 242.481 125.171C242.382 125.149 242.335 125.214 242.342 125.321C242.346 125.36 242.335 125.399 242.332 125.438C242.324 125.52 242.321 125.602 242.31 125.681C242.299 125.777 242.171 125.895 242.324 125.963C242.428 126.009 242.535 126.013 242.653 126.027ZM216.581 88.8475C216.92 88.876 217.202 88.5443 217.58 88.7226C217.69 88.7761 217.858 88.5942 217.912 88.4337C217.926 88.3802 217.872 88.2482 217.858 88.2482C217.623 88.2661 217.387 88.3196 217.152 88.3303C216.802 88.3445 216.692 88.5871 216.581 88.8475C216.021 88.5336 215.943 88.5514 215.55 88.9295C215.461 89.0151 215.529 89.1257 215.654 89.1899C215.85 89.2969 216.042 89.2541 216.242 89.2434C216.542 89.2256 216.549 89.2506 216.581 88.8475ZM196.88 138.076C196.994 137.866 197.105 137.67 197.201 137.452C197.283 137.263 197.141 137.07 196.912 137.024C196.873 137.017 196.834 137.01 196.795 137.006C196.484 136.988 196.349 137.11 196.395 137.377C196.416 137.495 196.491 137.623 196.466 137.727C196.352 138.187 196.745 137.955 196.88 138.076C196.823 138.397 196.984 138.615 197.255 138.765C197.323 138.804 197.408 138.8 197.483 138.818C197.458 138.758 197.433 138.693 197.405 138.633C197.376 138.558 197.305 138.483 197.315 138.415C197.383 137.991 197.076 138.119 196.88 138.076ZM114.713 77.2617C114.656 77.4401 114.713 77.5863 114.902 77.597C114.984 77.6006 115.102 77.49 115.163 77.4044C115.259 77.2617 115.245 77.1083 115.109 76.9835C115.22 76.8693 115.309 76.7195 115.441 76.6446C115.633 76.534 115.737 76.3913 115.815 76.2023C116.126 76.402 116.425 76.5911 116.811 76.3557C116.843 76.3343 116.889 76.3378 116.928 76.3236C117.153 76.2522 117.381 76.1702 117.528 76.4591C117.581 76.4056 117.66 76.3557 117.677 76.2915C117.692 76.2273 117.67 76.1095 117.624 76.081C117.185 75.8349 117.246 75.5245 117.478 75.175C117.52 75.1072 117.553 75.0287 117.57 74.9503C117.585 74.886 117.567 74.8147 117.563 74.7469C117.524 74.7612 117.478 74.7612 117.449 74.7862C117.06 75.0965 116.547 75.1072 116.115 75.3141C115.94 75.3997 115.897 75.521 115.822 75.6565C115.79 75.5459 115.705 75.4354 115.737 75.3498C115.815 75.125 115.947 74.9181 116.051 74.7006C116.115 74.5721 116.04 74.4723 115.951 74.3902C115.726 74.1869 115.551 74.2582 115.427 74.6257C115.394 74.7184 115.384 74.7897 115.284 74.7683C115.17 74.7434 115.059 74.6863 114.945 74.672C114.884 74.6649 114.813 74.7077 114.76 74.7434C114.742 74.7576 114.742 74.8254 114.756 74.8575C114.927 75.2749 115.266 75.5352 115.637 75.7564C115.666 75.7742 115.762 75.6993 115.822 75.6565C116.015 75.8491 115.965 76.0061 115.815 76.2023C115.694 76.1987 115.559 76.2522 115.462 76.1987C115.273 76.0917 115.084 75.842 115.027 76.2879C115.002 76.5055 114.916 76.509 114.72 76.4841C114.538 76.4591 114.282 76.4912 114.26 76.7516C114.239 76.9763 114.414 77.1083 114.606 77.2046C114.642 77.2225 114.677 77.2403 114.713 77.2617ZM192.261 96.7628C192.161 96.6914 192.125 96.5987 192.168 96.481C192.229 96.374 192.261 96.2349 192.346 96.1671C192.493 96.0494 192.66 96.1243 192.789 96.2313C192.882 96.3098 192.946 96.4203 193.038 96.5024C193.138 96.5915 193.256 96.5594 193.367 96.5024C193.467 96.4489 193.442 96.3918 193.417 96.2955C193.26 95.7034 193.081 95.1112 192.999 94.5084C192.935 94.0375 192.511 93.6131 192.803 93.1065C192.917 92.9068 193.113 93.1886 193.538 94.3443C193.702 94.8009 193.937 95.2325 193.984 95.739C194.012 96.085 194.187 95.7426 194.291 95.7604C194.476 95.789 194.608 95.9673 194.836 95.9245C194.986 95.896 195.157 95.9638 195.172 95.7212C195.179 95.5571 195.222 95.3966 195.218 95.2325C195.211 94.9685 195.468 94.94 195.592 94.7973C195.614 94.7759 195.682 94.7724 195.71 94.7902C195.732 94.8045 195.739 94.8687 195.728 94.9008C195.664 95.0898 195.582 95.2789 195.521 95.4715C195.482 95.5856 195.539 95.6249 195.657 95.5856C195.842 95.5214 196.103 95.5143 196.095 95.2432C196.088 94.8829 196.277 94.9899 196.488 95.022C196.741 95.0613 196.745 95.0399 196.627 94.9329C196.595 94.9079 196.556 94.8936 196.527 94.8651C195.903 94.2302 195.147 93.7129 194.765 92.864C194.708 92.7356 194.515 92.6678 194.383 92.5751C194.248 92.4752 194.116 92.361 194.18 92.172C194.28 91.8866 194.248 91.6298 194.148 91.3373C193.927 90.7059 193.855 90.0567 194.166 89.4218C193.955 89.033 194.497 88.8296 194.387 88.4266C194.301 88.1162 194.694 87.8095 194.472 87.4314C194.419 87.3386 194.569 87.1353 194.608 86.9783C194.637 86.8642 194.644 86.7465 194.647 86.6288C194.651 86.4076 194.405 86.2685 194.237 86.4219C194.08 86.5646 194.073 86.775 193.727 86.6359C193.124 86.3898 192.753 86.6109 192.575 87.1638C192.55 87.2423 192.521 87.3208 192.507 87.4028C192.411 88.0057 192.336 88.6049 192.115 89.1935C191.897 89.7571 191.811 90.3777 191.701 90.977C191.572 91.6619 191.48 92.3503 191.369 93.0352C191.326 93.3027 191.401 93.4882 191.629 93.6666C191.858 93.8414 191.622 93.8984 191.487 93.9555C191.326 94.0268 191.201 94.116 191.319 94.3158C191.401 94.4585 191.501 94.5976 191.551 94.751C191.608 94.9329 191.512 95.0649 191.326 95.1112C191.219 95.1398 190.93 94.9935 191.109 95.286C191.294 95.5963 191.355 95.871 191.212 96.2099C191.098 96.4774 191.326 96.5559 191.505 96.6522C191.622 97.3727 192.132 97.8436 192.621 98.3216C192.696 98.3929 192.842 98.3965 192.956 98.4286C192.91 98.3323 192.874 98.2288 192.817 98.1397C192.685 97.9363 192.543 97.7366 192.407 97.5333C192.307 97.3799 192.364 97.3085 192.675 97.2301C192.789 97.198 192.842 97.1516 192.767 97.0945C192.61 96.9697 192.432 96.8698 192.261 96.7628ZM199.791 92.0543C200.001 92.1613 200.205 92.2576 200.422 92.3503C200.465 92.3717 200.536 92.3218 200.593 92.304C200.572 92.2719 200.561 92.2219 200.533 92.2041C200.305 92.0757 200.087 91.8117 199.791 92.0543C199.695 91.9794 199.58 91.9401 199.516 91.8438C199.242 91.4443 198.81 91.5977 198.446 91.5263C198.439 91.5228 198.41 91.5941 198.403 91.6333C198.393 91.669 198.382 91.7118 198.396 91.7439C198.514 92.0436 198.913 91.9936 199.049 92.2291C199.267 92.6072 199.655 92.5644 199.976 92.6928C200.041 92.7177 200.13 92.6928 200.208 92.6928C200.13 92.6072 200.066 92.5037 199.973 92.4431C199.816 92.3396 199.77 92.2255 199.791 92.0543ZM133.9 147.233C134.243 147.925 134.86 148.396 135.345 148.97C135.359 148.992 135.502 148.949 135.534 148.902C135.62 148.767 135.698 148.624 135.741 148.471C135.798 148.275 135.548 148.071 135.37 148.203C135.124 148.385 134.981 148.307 134.967 148.082C134.935 147.583 134.664 147.411 134.214 147.379C134.1 147.372 134.011 147.283 133.9 147.233C133.965 146.944 133.565 146.769 133.679 146.455C133.693 146.42 133.579 146.284 133.536 146.291C133.116 146.348 133.001 146.024 132.834 145.763C132.777 145.674 132.748 145.539 132.577 145.581C132.474 145.61 132.484 145.838 132.602 145.999C132.962 146.491 133.301 146.998 133.9 147.233ZM214.116 90.3456C213.913 90.2458 213.742 90.071 213.478 90.153C213.449 90.1637 213.41 90.2101 213.41 90.2386C213.41 90.2957 213.442 90.4027 213.449 90.4027C213.67 90.3742 213.916 90.5597 214.116 90.3456C214.184 90.3884 214.245 90.4455 214.316 90.4562C214.987 90.5418 215.661 90.6132 216.335 90.6952C216.495 90.7131 216.652 90.7416 216.77 90.5953C216.959 90.6738 217.141 90.7987 217.334 90.8165C218.307 90.8985 219.281 90.952 220.259 91.0163C220.376 91.027 220.423 90.9913 220.387 90.9128C220.369 90.8771 220.348 90.8415 220.316 90.8201C220.13 90.6881 220.052 90.4598 219.741 90.4455C219.178 90.417 218.607 90.3278 218.061 90.1923C217.648 90.0888 217.255 90.2707 216.852 90.1673C216.806 90.1566 216.734 90.2493 216.67 90.2957C216.388 90.178 216.149 89.9497 215.782 90.1067C215.411 90.2672 215.015 90.2743 214.616 90.1281C214.423 90.0603 214.223 90.1423 214.116 90.3456ZM195.543 133.175C195.564 133.386 195.589 133.6 195.61 133.814C195.425 133.742 195.246 133.65 195.057 133.61C194.9 133.578 194.751 133.757 194.793 133.896C194.843 134.049 194.893 134.203 194.958 134.349C195.05 134.559 195.129 134.409 195.193 134.324C195.243 134.26 195.279 134.188 195.321 134.117C195.617 134.442 196.135 134.467 196.374 134.88C196.388 134.905 196.502 134.884 196.563 134.866C196.591 134.859 196.62 134.805 196.623 134.77C196.655 134.424 196.377 134.092 196.641 133.75C196.969 134.153 197.098 134.691 197.658 134.909C197.783 134.955 197.868 135.148 197.943 135.287C198.057 135.505 198.122 135.751 198.261 135.947C198.896 136.86 199.819 138.469 200.18 139.293C200.854 140.834 201.671 142.3 202.423 143.798C202.591 144.133 202.887 144.24 203.158 144.415C203.226 144.458 203.426 144.297 203.408 144.208C203.358 143.966 203.365 143.687 203.237 143.495C202.727 142.735 202.466 141.865 202.124 141.033C201.796 140.238 201.446 139.446 201.146 138.644C200.829 137.798 200.379 137.021 200.041 136.193C199.909 135.865 199.613 135.694 199.484 135.398C199.284 134.952 199.056 134.545 198.753 134.145C198.46 133.767 198.211 133.325 197.915 132.94C197.669 132.615 197.355 132.344 197.059 132.066C196.973 131.987 196.845 131.948 196.734 131.902C196.705 131.888 196.663 131.909 196.623 131.916C196.645 131.952 196.655 132.012 196.68 132.023C197.215 132.18 196.837 132.769 197.166 133.047C197.287 133.15 197.148 133.368 197.048 133.486C196.944 133.603 196.777 133.657 196.641 133.75C196.531 133.764 196.42 133.792 196.313 133.824C196.103 133.885 195.928 133.792 195.953 133.603C195.974 133.45 196.049 133.304 196.063 133.15C196.085 132.926 195.96 133.047 195.864 133.079C195.76 133.118 195.653 133.143 195.543 133.175C195.757 132.861 195.853 132.537 195.65 132.18C195.632 132.151 195.585 132.112 195.557 132.119C195.5 132.127 195.403 132.148 195.393 132.187C195.332 132.412 195.271 132.64 195.243 132.872C195.218 133.075 195.403 133.111 195.543 133.175ZM123.342 70.9266C123.171 71.1014 123.014 71.2619 122.853 71.4438C122.768 71.5473 122.775 71.6793 122.889 71.7613C122.942 71.8005 123.039 71.8112 123.106 71.797C123.36 71.7399 123.538 71.5901 123.684 71.3725C123.773 71.237 123.863 71.3083 123.88 71.4581C123.895 71.558 123.855 71.7363 124.059 71.6293C124.166 71.5722 124.255 71.4795 124.348 71.401C124.597 71.187 124.583 70.6734 124.312 70.4415C124.269 70.4058 124.141 70.4058 124.091 70.4415C123.963 70.5342 123.838 70.6448 123.738 70.7661C123.624 70.9088 123.52 70.973 123.342 70.9266C123.502 70.5521 123.72 70.2489 124.03 69.9849C124.116 69.9136 124.119 69.7745 124.02 69.671C123.952 69.6032 123.884 69.6032 123.802 69.6567C123.706 69.7138 123.556 69.8208 123.509 69.7887C123.356 69.6853 123.171 69.4356 123.171 69.8315C123.171 70.1775 123.071 70.4486 122.932 70.7411C122.839 70.9373 123.035 70.8695 123.131 70.8838C123.206 70.8945 123.263 70.9159 123.342 70.9266ZM243.972 120.848C243.88 120.99 243.83 121.158 243.933 121.297C244.136 121.568 244.211 121.878 244.308 122.189C244.55 122.959 244.853 123.708 245.146 124.461C245.303 124.86 245.585 125.003 245.874 125.203C245.834 125.274 245.77 125.346 245.774 125.417C245.788 125.774 245.824 126.13 245.852 126.487C245.916 126.473 245.998 126.476 246.041 126.437C246.23 126.266 246.316 126.359 246.384 126.548C246.448 126.712 246.476 126.897 246.316 126.986C246.116 127.101 246.006 127.208 246.077 127.45C246.148 127.682 246.234 127.921 246.248 128.16C246.259 128.349 246.316 128.477 246.466 128.559C246.83 128.749 247.197 128.927 247.564 129.102C247.661 129.148 247.704 129.091 247.689 128.973C247.657 128.731 247.532 128.442 247.622 128.26C247.796 127.903 247.393 127.907 247.368 127.707C247.329 127.397 247.514 127.036 247.193 126.794C246.876 126.551 246.976 126.134 246.726 125.831C246.473 125.527 246.227 125.328 245.874 125.203C246.059 125.117 246.23 125.042 246.409 124.942C246.452 124.918 246.498 124.793 246.476 124.761C246.334 124.564 246.213 124.308 246.016 124.208C245.631 124.011 246.102 123.737 245.881 123.498C245.61 123.205 245.474 122.795 245.242 122.463C244.85 121.9 244.493 121.308 243.972 120.848C244.037 120.591 243.898 120.409 243.737 120.238C243.719 120.22 243.666 120.22 243.634 120.227C243.616 120.234 243.594 120.277 243.598 120.302C243.637 120.544 243.723 120.751 243.972 120.848ZM118.212 66.8388C118.426 66.9458 118.623 67.1598 118.879 67.0207C119.122 66.8887 119.411 66.771 119.493 66.4571C119.511 66.3929 119.489 66.318 119.479 66.2502C119.479 66.2502 119.397 66.2431 119.361 66.2573C119.179 66.3323 118.997 66.4143 118.815 66.4928C118.401 66.0612 118.412 66.5784 118.27 66.7425C118.245 66.771 118.23 66.7995 118.212 66.8388C118.138 66.8388 118.034 66.8174 117.998 66.853C117.709 67.1527 117.239 67.1741 116.992 67.545C116.853 67.7519 116.611 67.809 116.358 67.8518C115.99 67.9125 115.487 68.1907 115.191 68.419C114.995 68.5652 114.809 68.7257 114.603 68.8577C113.454 69.5783 112.305 70.2881 111.153 71.0051C111.085 71.0479 111.014 71.0943 110.968 71.1549C110.886 71.2619 110.889 71.3796 110.961 71.4973C111.039 71.6258 111.157 71.6507 111.242 71.5437C111.424 71.3047 111.635 71.1442 111.938 71.08C112.134 71.0408 112.327 70.9409 112.484 70.8196C112.719 70.6377 112.855 70.7269 112.969 70.9337C113.022 71.0301 113.083 71.08 113.147 71.0265C113.486 70.7411 114.007 70.6841 114.203 70.2203C114.328 69.9207 114.567 69.9564 114.817 69.9635C115.034 69.9706 115.202 69.9136 115.173 69.6139C115.163 69.482 115.416 69.4285 115.409 69.2287C115.394 68.8934 115.58 68.8577 115.883 68.872C116.158 68.8863 116.457 68.9933 116.721 68.8078C117.057 68.5759 117.399 68.3512 117.72 68.0979C117.795 68.0409 117.838 67.8839 117.827 67.7805C117.795 67.5308 117.966 67.4309 118.102 67.2775C118.191 67.1741 118.18 66.9922 118.212 66.8388ZM247.029 131.153C246.701 131.01 246.316 130.907 245.974 130.664C245.752 130.511 245.367 130.807 245.364 131.089C245.36 131.171 245.36 131.253 245.371 131.331C245.403 131.645 245.72 131.859 245.599 132.248C245.438 132.779 246.081 132.697 246.262 132.983C246.323 133.075 246.337 133.2 246.373 133.311C246.434 133.503 246.487 133.7 246.566 133.885C246.58 133.924 246.701 133.928 246.773 133.931C246.805 133.931 246.84 133.889 246.872 133.864C247.101 133.7 247.268 133.732 247.386 133.967C247.44 134.078 247.504 134.185 247.55 134.299C247.593 134.413 247.654 134.445 247.725 134.356C247.889 134.149 248.274 134.128 248.228 133.732C248.21 133.575 248.292 133.411 248.314 133.25C248.321 133.2 248.281 133.14 248.264 133.082C248.199 133.132 248.135 133.222 248.067 133.222C247.957 133.229 247.836 133.197 247.739 133.143C247.704 133.125 247.704 132.983 247.732 132.918C247.814 132.736 247.893 132.544 248.16 132.544C248.321 132.544 248.485 132.497 248.638 132.444C248.702 132.423 248.763 132.344 248.795 132.276C248.834 132.18 248.727 132.173 248.674 132.116C248.421 131.855 248.025 131.855 247.782 131.638C247.564 131.438 247.343 131.278 247.029 131.153ZM168.593 58.9199C168.658 58.9663 168.733 59.0055 168.786 59.0626C168.854 59.1375 168.818 59.1874 168.697 59.1981C168.615 59.2053 168.469 59.2089 168.465 59.2267C168.451 59.3373 168.426 59.5121 168.486 59.5584C168.893 59.8759 169.182 60.3717 169.749 60.4538C169.928 60.4823 170.07 60.5536 170.131 60.7141C170.334 61.2706 170.841 61.4739 171.297 61.7379C171.394 61.7914 171.526 61.7985 171.643 61.7985C172.082 61.8057 172.078 61.8021 172.178 62.1659C172.207 62.2765 172.253 62.4049 172.335 62.4691C172.417 62.5369 172.574 62.594 172.663 62.5619C172.81 62.5084 172.97 62.4085 173.045 62.2801C173.166 62.0732 172.917 62.0447 172.813 61.9662C172.139 61.4418 171.529 60.8461 170.859 60.3182C169.742 59.4371 168.715 58.4419 167.473 57.7214C167.338 57.6429 167.249 57.4895 167.12 57.3932C167.074 57.3576 166.953 57.3576 166.91 57.3932C166.86 57.4289 166.828 57.5466 166.853 57.6001C166.981 57.8676 167.152 58.0603 167.484 58.1102C167.709 58.1459 168.066 58.178 168.087 58.4419C168.123 58.8058 168.297 58.8949 168.593 58.9199ZM151.044 161.041C151.101 161.102 151.147 161.184 151.215 161.216C151.268 161.244 151.386 161.234 151.407 161.202C151.436 161.144 151.447 161.03 151.411 160.988C151.283 160.827 151.094 160.709 151.001 160.538C150.933 160.413 150.922 160.192 150.99 160.074C151.094 159.903 151.318 159.793 151.5 159.971C151.682 160.149 151.882 160.053 152.074 160.089C152.203 160.114 152.239 160.042 152.139 159.985C151.86 159.825 151.771 159.579 151.778 159.275C151.425 159.589 151.201 158.926 150.965 159.129C150.63 159.414 150.387 159.293 150.095 159.126C150.038 159.093 149.945 159.118 149.866 159.118C149.913 159.183 149.952 159.258 150.009 159.307C150.159 159.439 150.409 159.443 150.476 159.675C150.484 159.707 150.484 159.76 150.462 159.782C150.409 159.835 150.348 159.91 150.284 159.917C150.109 159.935 149.963 159.843 149.863 159.711C149.656 159.429 149.363 159.297 149.046 159.197C148.771 159.115 148.511 159.258 148.411 159.628C148.322 159.95 148.589 159.914 148.789 159.903C148.978 159.892 149.096 159.996 149.185 160.139C149.321 160.36 149.567 160.217 149.734 160.317C149.877 160.399 150.098 160.452 150.145 160.574C150.302 160.966 150.612 160.973 150.944 160.977C150.979 160.98 151.011 161.02 151.044 161.041ZM196.352 91.6904C196.552 92.0079 196.869 91.9936 197.133 92.0899C197.362 92.172 197.594 92.2505 197.825 92.3289C197.8 92.0186 197.501 91.9259 197.333 91.7332C196.802 91.109 196.131 90.6274 195.489 90.1209C195.4 90.0531 195.261 90.0496 195.143 90.0139C195.179 90.1209 195.229 90.2279 195.243 90.3385C195.268 90.524 195.193 90.6488 194.979 90.6524C194.918 90.6524 194.858 90.6881 194.793 90.7059C195.15 90.9627 195.254 91.5085 195.796 91.5513C195.996 91.5656 196.188 91.6476 196.352 91.6904ZM114.446 65.0874C114.314 65.2728 114.424 65.3477 114.496 65.4441C114.77 65.8008 115.184 65.5832 115.523 65.6973C115.751 65.7758 115.89 65.6402 116.001 65.3121C116.14 64.9161 116.283 64.5666 116.8 64.5345C116.971 64.5202 117.142 64.3311 117.296 64.2027C117.346 64.1635 117.363 64.06 117.356 63.9887C117.356 63.9602 117.239 63.9245 117.174 63.9281C116.814 63.9423 116.436 63.896 116.204 64.2812C116.147 64.3704 116.012 64.4738 115.919 64.4667C115.387 64.4274 115.038 64.8519 114.567 64.9661C114.503 64.9839 114.46 65.0767 114.446 65.0874ZM198.029 86.4041C198.271 86.5111 198.4 86.5432 198.493 86.6145C198.767 86.8214 199.02 86.7679 199.288 86.6002C199.459 86.4932 199.648 86.4148 199.83 86.322C200.019 86.2257 200.215 86.1793 200.422 86.2542C200.668 86.347 200.797 86.2721 200.808 86.0081C201 85.9867 201.196 85.976 201.389 85.9403C201.439 85.9296 201.478 85.8369 201.507 85.7763C201.514 85.762 201.467 85.6978 201.439 85.6942C200.208 85.6157 198.999 85.8262 197.793 86.0366C197.758 86.0438 197.701 86.0723 197.693 86.1009C197.686 86.1294 197.718 86.1829 197.751 86.2043C197.879 86.3006 198.015 86.3934 198.029 86.4041ZM129.395 142.368C129.192 142.25 129.088 142.243 128.817 142.321C128.707 142.353 128.671 142.403 128.721 142.478C128.942 142.821 129.185 143.142 129.588 143.295C129.905 143.413 130.13 143.634 130.294 143.926C130.373 144.065 130.476 144.197 130.594 144.304C130.726 144.429 130.897 144.39 131.054 144.351C131.218 144.312 131.246 144.18 131.147 143.969C131.007 143.669 130.843 143.409 130.522 143.256C130.34 143.17 130.183 143.038 129.969 143.031C129.623 143.02 129.855 142.592 129.595 142.507C129.524 142.482 129.463 142.417 129.395 142.368ZM14.5218 69.7174C13.6015 69.3714 12.9523 69.1217 12.3031 68.8827C12.2496 68.8649 12.1818 68.9005 12.1176 68.9112C12.1319 68.9505 12.1354 69.004 12.1604 69.0254C12.4993 69.3107 12.7418 69.7495 13.2269 69.8101C13.737 69.8708 14.1579 70.1312 14.6109 70.3166C14.8178 70.4023 15.1353 70.6662 15.2566 70.4308C15.4563 70.0491 14.9819 70.1882 14.8392 70.0563C14.6573 69.885 14.4932 69.7067 14.5218 69.7174ZM246.594 129.537C246.234 129.241 245.752 129.148 245.306 128.97C245.035 128.859 245.053 129.034 244.993 129.152C244.889 129.344 245.032 129.455 245.167 129.548C245.224 129.59 245.321 129.622 245.385 129.608C246.205 129.412 246.812 129.715 247.286 130.375C247.35 130.461 247.493 130.493 247.604 130.543C247.636 130.557 247.689 130.55 247.721 130.528C247.739 130.521 247.739 130.457 247.721 130.429C247.65 130.286 247.604 130.097 247.486 130.018C247.218 129.833 246.912 129.704 246.594 129.537ZM121.184 63.3181C121.07 63.5393 120.98 63.6784 120.923 63.8318C120.906 63.8888 120.945 63.9958 120.995 64.0386C121.048 64.0779 121.17 64.1028 121.212 64.0707C121.801 63.607 122.265 63.047 122.514 62.33C122.529 62.2908 122.514 62.248 122.514 62.2052C122.454 62.223 122.368 62.2194 122.336 62.2587C122.204 62.4121 122.111 62.6154 121.886 62.6546C121.458 62.7295 121.287 63.0434 121.184 63.3181ZM122.204 63.9887C122.125 63.9958 122.018 63.9709 121.979 64.0137C121.733 64.2812 121.448 64.5059 121.252 64.8305C120.966 65.2942 120.941 65.2978 120.313 65.4583C120.089 65.5154 120.21 65.6295 120.21 65.7187C120.21 65.7758 120.299 65.8828 120.317 65.8792C120.602 65.7936 121.013 65.9898 121.116 65.5011C121.17 65.255 121.351 65.0909 121.555 64.934C121.84 64.7128 122.079 64.4346 122.325 64.1706C122.436 64.0529 122.332 64.217 122.293 64.06C122.286 64.0315 122.236 64.0137 122.204 63.9887ZM196.909 92.5108C196.909 92.5108 195.667 91.8688 195.047 91.5513C195.011 91.5335 194.94 91.5905 194.883 91.6155C194.904 91.6512 194.915 91.694 194.94 91.7225C195.318 92.1078 195.949 92.0971 196.267 92.5893C196.309 92.6535 196.506 92.6 196.606 92.65C197.226 92.9603 197.911 93.1565 198.403 93.688C198.464 93.7522 198.517 93.7343 198.603 93.6808C198.682 93.6273 198.66 93.424 198.553 93.3634C198.517 93.3455 197.419 92.7784 196.909 92.5108ZM220.576 120.619C220.216 120.43 219.859 120.238 219.495 120.059C219.46 120.038 219.388 120.088 219.335 120.102C219.356 120.138 219.37 120.188 219.403 120.202C219.752 120.402 220.145 120.551 220.451 120.805C220.783 121.076 221.033 121.443 221.325 121.764C221.432 121.889 221.6 121.814 221.689 121.622C221.76 121.465 221.814 121.29 221.646 121.19C221.3 120.983 220.933 120.808 220.576 120.619ZM118.451 70.8945C118.537 70.8517 118.58 70.759 118.476 70.6484C118.373 70.5414 118.245 70.5842 118.134 70.6413C118.041 70.6912 117.952 70.709 117.931 70.8802C117.884 71.2905 117.756 71.6828 117.217 71.6971C116.996 71.7042 116.975 71.8862 116.996 72.0538C117.046 72.4212 117.303 72.5247 117.599 72.3106C117.913 72.0895 118.17 71.8469 118.116 71.4117C118.091 71.1906 118.216 71.0229 118.451 70.8945ZM136.558 149.38C136.461 149.313 136.426 149.159 136.269 149.206C136.19 149.227 136.098 149.241 136.044 149.291C136.005 149.33 136.005 149.427 136.019 149.491C136.037 149.566 136.073 149.651 136.126 149.709C136.544 150.147 136.968 150.582 137.4 151.01C137.442 151.057 137.546 151.039 137.621 151.053C137.606 150.989 137.599 150.925 137.574 150.864C137.375 150.354 136.768 150.069 136.779 149.434C136.779 149.416 136.633 149.398 136.558 149.38ZM3.78137 70.5164C3.61729 70.388 3.22849 70.2738 2.80045 70.3059C2.67917 70.3167 2.54718 70.3274 2.51151 70.4772C2.4794 70.6163 2.55431 70.6948 2.66846 70.759C3.16428 71.0372 3.69935 70.9944 4.23441 70.9623C4.27364 70.9587 4.31287 70.9338 4.35211 70.9195C4.32714 70.8838 4.31644 70.8374 4.28433 70.8196C4.18445 70.7518 4.07744 70.6912 3.78137 70.5164ZM223.362 122.082C223.141 122 222.905 121.939 222.695 121.828C222.417 121.682 222.235 121.9 222.014 121.964C221.989 121.971 221.953 122.014 221.957 122.032C221.967 122.067 221.996 122.121 222.024 122.125C222.581 122.224 223.152 122.296 223.48 122.866C223.494 122.895 223.708 122.841 223.804 122.781C223.936 122.702 223.872 122.57 223.829 122.46C223.744 122.249 223.53 122.192 223.362 122.082ZM198.992 140.281C199.163 140.349 199.238 140.377 199.313 140.406C199.427 140.456 199.477 140.416 199.445 140.295C199.423 140.217 199.384 140.081 199.349 140.081C198.985 140.06 198.731 139.924 198.671 139.532C198.642 139.357 198.51 139.257 198.364 139.168C198.196 139.064 198.047 138.911 197.822 139.025C197.697 139.086 197.779 139.375 198.025 139.503C198.428 139.717 198.632 140.181 198.992 140.281ZM112.123 133.036C111.728 132.826 111.335 132.608 110.932 132.408C110.893 132.387 110.818 132.433 110.761 132.451C110.775 132.487 110.782 132.526 110.8 132.562C110.986 132.872 111.299 133.086 111.606 133.125C111.945 133.172 112.216 133.332 112.516 133.443C112.737 133.528 112.901 133.753 113.176 133.721C113.087 133.396 112.741 133.45 112.537 133.293C112.412 133.193 112.263 133.118 112.123 133.036ZM141.284 51.8679C141.248 51.8536 141.213 51.8286 141.177 51.8286C140.439 51.9 139.772 52.221 139.073 52.4315C139.055 52.4386 139.033 52.4921 139.04 52.5135C139.051 52.5456 139.087 52.5884 139.112 52.5884C139.233 52.592 139.358 52.6098 139.472 52.5777C140.057 52.4065 140.642 52.221 141.223 52.0426C141.263 52.0284 141.295 52.0034 141.33 51.9784C141.388 51.9428 141.373 51.9035 141.284 51.8679ZM220.387 89.2827C220.387 89.3148 220.38 89.3504 220.391 89.3754C220.408 89.4075 220.437 89.4539 220.466 89.461C221.058 89.618 221.653 89.6287 222.249 89.5038C222.27 89.5003 222.303 89.4539 222.295 89.4325C222.288 89.3968 222.267 89.3469 222.235 89.3326C222.124 89.2827 221.989 89.1828 221.899 89.2113C221.425 89.3647 220.958 89.1971 220.491 89.222C220.455 89.2256 220.419 89.2613 220.387 89.2827ZM18.3385 71.5152C18.0175 71.344 17.7 71.1692 17.3718 71.0051C17.3076 70.9766 17.2256 70.9837 17.1507 70.9766C17.2006 71.0372 17.2434 71.1157 17.3076 71.1513C17.9354 71.5152 18.6025 71.8041 19.1233 72.332C19.1661 72.3713 19.2767 72.3534 19.3516 72.3392C19.43 72.3249 19.3979 72.0788 19.3052 72.0253C18.9842 71.854 18.6631 71.6828 18.3385 71.5152ZM78.2079 24.9794C78.1758 25.0151 78.1473 25.0472 78.1259 25.0793C78.1081 25.115 78.0902 25.1542 78.0902 25.1934C78.0902 25.2719 78.1509 25.2862 78.2579 25.2541C78.7287 25.1185 78.7323 25.115 78.7537 24.53C78.7644 24.3338 78.8964 24.4015 79.0105 24.4122C79.1211 24.4194 79.1782 24.3481 79.1247 24.2981C79.0391 24.2196 78.9321 24.159 78.825 24.0984C78.661 24.0056 78.5076 24.0698 78.3756 24.1733C78.2222 24.291 78.1937 24.4372 78.3185 24.5942C78.4648 24.7832 78.3363 24.8831 78.2079 24.9794ZM127.055 141.169C126.841 141.055 126.627 140.934 126.406 140.83C126.36 140.809 126.285 140.848 126.224 140.855C126.253 140.887 126.27 140.926 126.303 140.951C126.895 141.365 127.612 141.597 128.104 142.164C128.147 142.214 128.254 142.2 128.332 142.218C128.289 142.154 128.243 142.093 128.204 142.029C127.936 141.59 127.512 141.358 127.055 141.169ZM217.648 158.173C217.612 158.33 217.533 158.523 217.569 158.548C217.737 158.662 217.819 158.458 217.929 158.387C218.393 158.084 218.432 157.606 218.404 157.114C218.404 157.092 218.368 157.053 218.357 157.057C218.322 157.071 218.265 157.089 218.258 157.117C218.154 157.538 217.933 157.895 217.648 158.173ZM110.636 69.1074C110.643 69.1467 110.636 69.1966 110.661 69.2216C110.675 69.2394 110.739 69.2287 110.768 69.2073C111.182 68.9576 111.596 68.7079 111.999 68.4475C112.049 68.4154 112.052 68.312 112.077 68.2442C112.013 68.2335 111.942 68.1943 111.888 68.2157C111.421 68.3726 111.075 68.7186 110.686 69.004C110.661 69.0218 110.654 69.0717 110.636 69.1074ZM118.908 62.5797C118.869 62.5976 118.83 62.6118 118.797 62.6332C118.416 62.8722 118.034 63.1041 117.667 63.3538C117.635 63.3752 117.645 63.5321 117.688 63.5821C117.795 63.7069 117.62 63.7675 117.756 63.6784C118.152 63.4108 118.637 63.2503 118.887 62.7937C118.904 62.7616 118.919 62.7224 118.922 62.6832C118.926 62.6511 118.915 62.6154 118.908 62.5797ZM120.231 63.9851C120.206 63.7461 120.142 63.8781 120.071 63.953C119.818 64.2134 119.8 64.5345 119.825 64.8733C119.835 64.9875 119.868 65.0445 119.925 64.9982C120.139 64.8198 120.353 64.6343 120.549 64.4382C120.581 64.4096 120.545 64.2527 120.524 64.2491C120.36 64.2241 120.181 64.2277 120.231 63.9851ZM119.404 69.6068C119.393 69.7673 119.375 69.9243 119.379 70.0848C119.379 70.1668 119.464 70.2061 119.554 70.1526C119.825 69.9813 120.092 69.8101 120.342 69.6139C120.424 69.5533 120.445 69.4142 120.488 69.3072C120.495 69.2822 120.467 69.243 120.453 69.2109C120.36 69.2751 120.267 69.3428 120.174 69.4071C120.003 69.5319 119.81 69.5569 119.604 69.5426C119.539 69.539 119.472 69.5854 119.404 69.6068ZM123.488 67.6806C123.834 67.3275 123.588 66.9351 123.838 66.6783C123.848 66.664 123.823 66.5962 123.802 66.5677C123.791 66.557 123.724 66.5712 123.702 66.5962C123.499 66.8245 123.417 67.1669 123.085 67.2847C123.142 67.4238 123.174 67.5914 123.271 67.6949C123.32 67.7448 123.495 67.6806 123.488 67.6806ZM124.034 62.6511C123.959 62.6618 123.863 62.6475 123.816 62.6867C123.581 62.9007 123.527 63.2575 123.203 63.418C123.071 63.4822 123.188 63.3645 123.224 63.525C123.228 63.55 123.295 63.5856 123.317 63.5785C123.684 63.4251 124.055 63.2753 124.152 62.8223C124.177 62.7188 124.137 62.6618 124.034 62.6511ZM207.303 90.6774C207.032 90.4455 206.622 90.4384 206.215 90.4206C206.094 90.417 205.98 90.3813 205.862 90.3563C205.98 90.4562 206.087 90.6025 206.226 90.6488C206.604 90.7808 207.025 90.7773 207.392 90.977C207.417 90.9913 207.492 90.9235 207.539 90.8878C207.542 90.8807 207.506 90.8129 207.478 90.7844C207.453 90.7559 207.41 90.7416 207.303 90.6774ZM118.191 64.9161C118.12 64.8947 118.009 64.8341 117.977 64.8626C117.731 65.066 117.495 65.2871 117.271 65.5154C117.242 65.5439 117.281 65.6438 117.31 65.7044C117.317 65.7223 117.399 65.7366 117.424 65.7187C117.684 65.5297 117.945 65.3406 118.191 65.1337C118.227 65.1052 118.195 64.991 118.191 64.9161ZM114.078 75.3426C114.046 75.3248 114.01 75.2963 113.975 75.2891C113.664 75.2463 113.493 75.4282 113.507 75.7742C113.518 76.0025 113.568 76.0168 113.789 75.9597C114.018 75.9027 114.132 75.7635 114.164 75.5495C114.175 75.4889 114.11 75.4175 114.078 75.3426ZM163.971 159.407C163.892 159.397 163.799 159.35 163.746 159.382C163.571 159.472 163.414 159.593 163.254 159.7C163.111 159.796 163.032 159.928 163.018 160.096C163.007 160.235 163.3 160.199 163.507 160.017C163.685 159.864 163.846 159.693 164.006 159.521C164.017 159.507 163.981 159.447 163.971 159.407ZM154.093 131.056C154.058 131.039 154.022 131.014 153.986 131.003C153.919 130.985 153.851 130.978 153.787 130.964C153.801 131.003 153.804 131.053 153.833 131.074C154.008 131.21 154.001 131.427 154.083 131.606C154.133 131.723 154.243 131.795 154.34 131.677C154.407 131.599 154.454 131.459 154.436 131.356C154.411 131.181 154.236 131.124 154.093 131.056ZM132.035 144.722C131.81 144.704 131.589 144.54 131.364 144.704C131.332 144.725 131.314 144.772 131.311 144.811C131.304 144.85 131.321 144.925 131.321 144.925C131.628 144.911 131.842 145.054 131.992 145.307C132.053 145.26 132.145 145.225 132.167 145.168C132.224 144.996 132.124 144.857 132.035 144.722ZM146.881 53.2626C146.984 53.0664 146.959 53.1021 146.949 53.1377C146.916 53.2519 146.827 53.4053 146.87 53.473C146.97 53.6336 147.134 53.5337 147.277 53.4837C147.63 53.3518 147.633 53.3517 147.384 53.07C147.141 52.7989 147.134 52.7989 146.881 53.2626ZM198.535 88.4801C198.871 88.8582 198.357 89.1043 198.614 89.4218C198.635 89.4467 198.678 89.4646 198.714 89.4681C198.749 89.4717 198.792 89.461 198.831 89.4539C198.778 89.1471 198.856 88.9081 199.17 88.794C199.127 88.7333 199.095 88.6513 199.035 88.6228C198.931 88.5728 198.814 88.555 198.535 88.4801ZM76.4173 26.0103C76.5136 25.7356 76.7561 25.5716 76.6884 25.2933C76.6741 25.2362 76.5635 25.1471 76.5314 25.1578C76.3816 25.2184 76.4101 25.0294 76.4208 25.1792C76.4458 25.5787 76.2461 25.889 76.0927 26.2207C76.0748 26.2564 76.0713 26.2992 76.0713 26.3385C76.0677 26.3741 76.0748 26.4098 76.0784 26.449C76.1141 26.4241 76.1569 26.4098 76.1783 26.3777C76.271 26.2457 76.3566 26.1066 76.4173 26.0103ZM118.448 74.804C118.28 74.7505 117.981 74.8504 117.959 74.9895C117.931 75.1536 118.002 75.2998 118.138 75.3997C118.273 75.4996 118.476 75.364 118.562 75.1036C118.598 74.9931 118.594 74.8718 118.448 74.804ZM125.268 62.1017C125.307 62.0411 125.339 61.9626 125.396 61.9234C125.486 61.8627 125.518 61.8021 125.439 61.7379C125.386 61.6915 125.293 61.638 125.247 61.6559C125.065 61.7236 124.961 61.9412 124.722 61.8984C124.615 61.877 124.562 61.9305 124.587 61.9983C124.601 62.034 124.626 62.0732 124.655 62.091C124.758 62.1517 124.869 62.2016 124.976 62.2622C125.165 62.3728 125.264 62.3265 125.268 62.1017ZM203.579 86.3327C203.597 86.2578 203.618 86.1829 203.636 86.108C203.572 86.0937 203.497 86.0509 203.436 86.0688C203.215 86.1365 202.966 86.1544 202.812 86.3719C202.794 86.3969 202.784 86.4433 202.791 86.4754C202.794 86.5075 202.823 86.5646 202.841 86.5646C203.108 86.5646 203.411 86.6573 203.579 86.3327ZM216.859 158.002C216.827 158.095 216.77 158.205 216.756 158.319C216.738 158.441 216.791 158.558 216.92 158.598C217.045 158.633 217.141 158.594 217.209 158.473C217.312 158.287 217.312 158.088 217.266 157.891C217.252 157.834 217.177 157.784 217.12 157.745C217.102 157.734 217.041 157.77 217.016 157.795C216.963 157.856 216.92 157.92 216.859 158.002ZM110.672 72.5247C110.647 72.5068 110.618 72.4712 110.597 72.4747C110.212 72.5247 109.997 72.8493 109.701 73.0454C109.68 73.0561 109.687 73.1204 109.698 73.156C109.701 73.1739 109.744 73.1953 109.766 73.1917C110.144 73.1311 110.401 72.8671 110.675 72.6352C110.693 72.621 110.675 72.5639 110.672 72.5247ZM206.408 91.9187C206.522 91.9259 206.643 91.9401 206.761 91.9365C206.854 91.9365 206.932 91.7154 206.861 91.6476C206.775 91.5691 206.682 91.48 206.572 91.4407C206.418 91.3908 206.158 91.6013 206.147 91.7796C206.13 92.0115 206.319 91.8616 206.408 91.9187ZM54.7617 90.0246C54.5691 89.9711 54.3765 89.914 54.1838 89.8677C54.1624 89.8641 54.1196 89.9176 54.1054 89.9533C54.0911 89.9818 54.0947 90.0496 54.1054 90.0531C54.4728 90.1887 54.8438 90.3171 55.2183 90.4455C55.254 90.4562 55.2968 90.4491 55.3396 90.4491C55.3146 90.417 55.3003 90.3742 55.2682 90.3563C55.1041 90.2422 54.9329 90.1352 54.7617 90.0246ZM209.418 92.3289C209.661 92.4074 209.793 92.6179 210.014 92.5537C210.078 92.5322 210.157 92.468 210.175 92.4074C210.192 92.3503 210.15 92.2219 210.114 92.2148C209.814 92.147 209.515 92.0971 209.215 92.0471C209.183 92.04 209.144 92.065 209.108 92.0792C209.133 92.1113 209.147 92.1541 209.179 92.1755C209.272 92.2433 209.376 92.3004 209.418 92.3289ZM215.119 158.633C215.243 158.409 215.076 157.981 214.847 157.938C214.815 157.934 214.762 157.959 214.737 157.988C214.558 158.212 214.651 158.612 214.912 158.705C214.965 158.722 215.047 158.658 215.119 158.633ZM224.368 123.976C224.147 123.876 223.965 123.787 223.779 123.715C223.737 123.698 223.672 123.73 223.615 123.737C223.64 123.769 223.662 123.812 223.694 123.826C224.015 123.987 224.336 124.143 224.664 124.283C224.696 124.297 224.828 124.176 224.821 124.158C224.746 124.011 224.946 124.086 224.789 124.044C224.639 124.004 224.482 123.994 224.368 123.976ZM221.618 90.6845C221.55 90.6417 221.489 90.5953 221.418 90.5597C221.265 90.4848 221.115 90.4669 221.015 90.6453C220.997 90.6738 220.983 90.7166 220.99 90.7487C221.029 90.9556 221.193 90.9556 221.354 90.952C221.432 90.952 221.511 90.9306 221.586 90.9199C221.664 90.9092 221.807 90.9128 221.807 90.8914C221.828 90.7594 221.714 90.7238 221.618 90.6845ZM195.639 135.497C195.739 135.54 195.846 135.601 195.96 135.622C196.078 135.647 196.192 135.608 196.22 135.469C196.245 135.34 196.174 135.23 196.053 135.212C195.864 135.183 195.667 135.191 195.475 135.187C195.45 135.187 195.403 135.226 195.403 135.244C195.403 135.28 195.425 135.326 195.45 135.351C195.507 135.405 195.571 135.447 195.639 135.497ZM215.864 120.141C215.821 120.123 215.764 120.084 215.75 120.098C215.543 120.27 215.336 120.441 215.14 120.63C215.026 120.744 215.115 120.587 215.186 120.737C215.204 120.769 215.361 120.787 215.4 120.751C215.575 120.598 215.736 120.423 215.893 120.252C215.907 120.238 215.875 120.177 215.864 120.141ZM215.825 86.1294C215.807 86.1722 215.782 86.2079 215.782 86.2435C215.782 86.2756 215.811 86.3398 215.821 86.3363C216.092 86.297 216.396 86.3398 216.595 86.0866C216.617 86.0581 216.627 86.0117 216.627 85.976C216.627 85.9403 216.61 85.8726 216.599 85.8726C216.317 85.8904 216.042 85.9403 215.825 86.1294ZM214.776 88.1127C214.762 88.1876 214.748 88.2589 214.737 88.3338C214.808 88.341 214.887 88.3695 214.954 88.3517C215.101 88.3124 215.243 88.2482 215.386 88.1876C215.418 88.1733 215.472 88.1198 215.468 88.1127C215.432 88.0485 215.397 87.9629 215.34 87.9307C215.069 87.7881 214.962 87.8273 214.776 88.1127ZM210.66 91.1019C210.392 90.9449 210.125 90.9199 209.861 91.0983C209.832 91.1197 209.811 91.1661 209.804 91.2017C209.8 91.241 209.821 91.3159 209.832 91.3159C210.114 91.3301 210.374 91.1268 210.667 91.2374C210.681 91.241 210.706 91.2124 210.727 91.1982C210.703 91.1661 210.681 91.134 210.66 91.1019ZM208.113 89.4004C208.106 89.3611 208.099 89.2862 208.099 89.2862C207.82 89.3076 207.546 89.3326 207.271 89.3611C207.25 89.3647 207.218 89.4039 207.221 89.4182C207.232 89.4539 207.25 89.4967 207.278 89.5145C207.539 89.6822 207.795 89.7143 208.041 89.4931C208.07 89.4681 208.088 89.4289 208.113 89.4004ZM206.618 86.8071C206.461 86.7964 206.304 86.7964 206.151 86.775C206.037 86.7608 205.99 86.7929 206.023 86.907C206.044 86.9783 206.062 87.0996 206.108 87.1139C206.247 87.1603 206.397 87.171 206.547 87.1888C206.679 87.2031 206.772 87.1567 206.736 87.0069C206.718 86.9355 206.657 86.8749 206.618 86.8071ZM199.748 90.9734C199.709 90.9734 199.662 90.9663 199.63 90.9841C199.609 90.9948 199.598 91.0448 199.602 91.0733C199.63 91.373 199.823 91.5656 200.137 91.6155C200.165 91.6227 200.215 91.6048 200.23 91.5798C200.244 91.5477 200.244 91.5014 200.233 91.4621C200.169 91.2053 199.98 91.0698 199.748 90.9734ZM112.02 71.6115C112.016 71.5723 112.016 71.533 112.016 71.4938C111.977 71.5045 111.931 71.5045 111.902 71.5259C111.685 71.6864 111.396 71.7649 111.303 72.0574C111.278 72.1287 111.282 72.2072 111.275 72.2821C111.307 72.275 111.349 72.2785 111.371 72.2571C111.578 72.0823 111.781 71.9004 111.981 71.7185C112.006 71.6935 112.006 71.6472 112.02 71.6115ZM115.79 66.7389C115.794 66.7817 115.794 66.8245 115.805 66.8602C115.808 66.8709 115.869 66.878 115.887 66.8637C116.151 66.6783 116.443 66.5177 116.568 66.1931C116.582 66.1575 116.568 66.1111 116.554 66.0719C116.55 66.0647 116.49 66.0612 116.475 66.0754C116.247 66.2966 115.894 66.3893 115.79 66.7389ZM113.169 72.8707C113.165 72.9135 113.161 72.9527 113.158 72.9919C113.425 73.0098 113.693 73.1703 113.957 72.9848C113.993 72.9598 114.032 72.9456 114.068 72.9242C114.021 72.8635 113.982 72.7529 113.936 72.7494C113.697 72.7387 113.461 72.7529 113.222 72.7672C113.201 72.7708 113.183 72.835 113.169 72.8707ZM155.806 161.123C155.82 161.155 155.831 161.194 155.852 161.223C155.873 161.251 155.905 161.276 155.938 161.298C156.194 161.462 156.483 161.373 156.754 161.405C156.886 161.419 156.911 161.366 156.826 161.266C156.801 161.237 156.772 161.212 156.744 161.191C156.487 161.023 156.194 161.152 155.923 161.102C155.888 161.095 155.845 161.112 155.806 161.123ZM139.946 54.5431C139.715 54.3862 139.444 54.5396 139.386 54.8071C139.365 54.9141 139.408 54.9641 139.508 54.9605C139.625 54.9569 139.743 54.9676 139.857 54.9462C139.918 54.9391 140.018 54.8713 140.014 54.8356C140.011 54.7251 139.964 54.6181 139.946 54.5431ZM248.617 130.942C248.62 130.903 248.642 130.857 248.627 130.828C248.574 130.732 248.524 130.621 248.442 130.55C248.349 130.468 248.231 130.493 248.139 130.586C248.021 130.71 248.11 130.8 248.207 130.86C248.303 130.917 248.417 130.942 248.528 130.974C248.553 130.981 248.588 130.953 248.617 130.942ZM117.51 107.353C117.431 107.336 117.321 107.293 117.21 107.296C117.164 107.296 117.11 107.389 117.078 107.45C117.067 107.471 117.092 107.539 117.117 107.553C117.214 107.607 117.317 107.685 117.413 107.682C117.51 107.682 117.602 107.592 117.699 107.539C117.645 107.485 117.588 107.432 117.51 107.353ZM142.529 51.8821C142.533 51.8072 142.561 51.6788 142.533 51.6645C142.336 51.5611 142.133 51.6003 141.951 51.7145C141.93 51.7287 141.944 51.8679 141.98 51.8928C142.197 52.0462 142.365 52.0355 142.529 51.8821ZM142.857 155.084C142.818 155.088 142.761 155.08 142.743 155.102C142.725 155.123 142.739 155.177 142.743 155.212C142.779 155.476 142.943 155.623 143.185 155.694C143.221 155.705 143.264 155.69 143.299 155.69C143.296 155.662 143.303 155.623 143.285 155.605C143.15 155.423 143.103 155.17 142.857 155.084ZM144.166 154.874C144.123 154.866 144.084 154.863 144.049 154.859C143.945 154.856 143.917 154.916 143.995 155.009C144.145 155.188 144.302 155.359 144.466 155.526C144.48 155.544 144.548 155.53 144.577 155.505C144.598 155.491 144.594 155.441 144.591 155.405C144.555 155.141 144.384 154.984 144.166 154.874ZM137.553 55.5705C137.542 55.681 137.532 55.7559 137.524 55.8344C137.631 55.8201 137.738 55.8202 137.842 55.7916C137.967 55.7559 138.042 55.6561 137.999 55.5277C137.981 55.4741 137.87 55.4028 137.828 55.4171C137.721 55.4456 137.631 55.5241 137.553 55.5705ZM242.617 128.046C242.517 127.992 242.478 127.953 242.446 127.96C242.371 127.971 242.282 127.985 242.239 128.032C242.171 128.11 242.203 128.199 242.289 128.196C242.489 128.188 242.538 128.363 242.656 128.456C242.667 128.463 242.731 128.42 242.752 128.388C242.774 128.356 242.795 128.296 242.777 128.271C242.72 128.174 242.645 128.085 242.617 128.046ZM80.5836 17.6456C80.5729 17.7205 80.5622 17.7954 80.5515 17.8703C80.6193 17.8739 80.7013 17.8988 80.7584 17.8738C80.8547 17.831 80.9546 17.7668 81.0188 17.6848C81.0544 17.642 81.0473 17.5207 81.0081 17.4708C80.9332 17.378 80.8155 17.3638 80.7191 17.4565C80.6656 17.51 80.63 17.5813 80.5836 17.6456ZM77.0308 25.9283C77.12 25.757 77.1842 25.6536 77.227 25.543C77.252 25.4717 77.2413 25.3896 77.2448 25.3112C77.1842 25.3397 77.095 25.3575 77.0665 25.4075C76.9523 25.6143 76.856 25.8355 76.7597 26.0531C76.7455 26.0852 76.7668 26.1316 76.7704 26.1708C76.799 26.1637 76.8382 26.1673 76.856 26.1494C76.9309 26.0602 76.9987 25.9639 77.0308 25.9283ZM259.864 82.9048C259.725 82.7015 259.657 82.6908 259.582 82.7585C259.553 82.7799 259.528 82.8085 259.51 82.8406C259.432 82.9761 259.525 83.0617 259.618 83.1224C259.71 83.183 259.824 83.2115 259.928 83.2543C259.939 83.1937 259.974 83.1259 259.956 83.0796C259.917 82.9725 259.849 82.8762 259.864 82.9048ZM117.21 70.5949C116.957 70.5984 116.739 70.6912 116.539 70.8339C116.529 70.841 116.554 70.9123 116.575 70.9409C116.6 70.9694 116.643 70.9944 116.679 70.9944C116.885 71.0051 117.078 70.973 117.21 70.7911C117.231 70.7625 117.246 70.7233 117.246 70.6876C117.246 70.6555 117.221 70.6234 117.21 70.5949ZM162.176 155.509C162.151 155.505 162.119 155.484 162.105 155.491C161.916 155.637 161.727 155.783 161.545 155.933C161.527 155.947 161.541 156.015 161.556 156.047C161.566 156.065 161.616 156.076 161.641 156.069C161.905 156.026 162.066 155.855 162.173 155.626C162.187 155.594 162.176 155.551 162.176 155.509ZM225.488 123.509C225.417 123.469 225.345 123.43 225.27 123.394C225.163 123.337 225.11 123.366 225.121 123.473C225.124 123.512 225.124 123.555 225.138 123.591C225.185 123.708 225.256 123.801 225.402 123.79C225.524 123.78 225.645 123.787 225.763 123.765C225.827 123.755 225.805 123.683 225.702 123.626C225.634 123.583 225.559 123.548 225.488 123.509ZM198.336 90.2351C198.232 90.2244 198.164 90.2172 198.093 90.2101C198.107 90.2886 198.1 90.3777 198.143 90.4384C198.204 90.5311 198.296 90.606 198.382 90.6774C198.4 90.6917 198.475 90.6702 198.489 90.6453C198.528 90.5882 198.589 90.4883 198.564 90.4527C198.503 90.3599 198.403 90.2921 198.336 90.2351ZM227.703 105.374C227.593 105.317 227.489 105.252 227.371 105.21C227.314 105.188 227.239 105.21 227.172 105.213C227.197 105.245 227.218 105.292 227.25 105.309C227.464 105.431 227.682 105.548 227.903 105.659C227.935 105.673 227.981 105.655 228.024 105.652C227.988 105.595 227.967 105.531 227.921 105.491C227.856 105.438 227.774 105.413 227.703 105.374ZM207.77 91.801C207.692 91.7796 207.542 91.7261 207.389 91.7047C207.346 91.6976 207.232 91.8117 207.242 91.8331C207.307 91.9865 207.118 91.908 207.278 91.9437C207.51 91.9936 207.742 92.0329 207.974 92.0721C208.013 92.0792 208.052 92.0685 208.091 92.0614C208.074 92.0293 208.063 91.9829 208.034 91.9615C207.974 91.9151 207.902 91.8795 207.77 91.801ZM212.119 90.285C212.311 90.2814 212.511 90.3777 212.7 90.2529C212.732 90.2315 212.764 90.1923 212.771 90.1566C212.779 90.1209 212.757 90.046 212.743 90.046C212.547 90.0317 212.35 90.0175 212.154 90.0317C212.111 90.0353 212.072 90.1423 212.044 90.2065C212.04 90.2172 212.09 90.2565 212.119 90.285ZM214.016 86.9284C214.023 86.9997 214.002 87.0925 214.041 87.146C214.116 87.2494 214.252 87.278 214.337 87.1817C214.437 87.0711 214.576 86.9462 214.491 86.7715C214.473 86.7358 214.359 86.7358 214.291 86.7394C214.17 86.7501 214.063 86.7964 214.016 86.9284ZM223.669 105.088C223.815 105.22 223.965 105.167 224.118 105.106C224.229 105.06 224.243 104.999 224.15 104.921C223.926 104.728 223.719 104.707 223.647 104.878C223.622 104.935 223.658 105.02 223.669 105.088ZM214.006 118.59C213.902 118.532 213.799 118.472 213.688 118.429C213.645 118.415 213.581 118.454 213.528 118.468C213.545 118.5 213.556 118.55 213.585 118.565C213.795 118.675 214.006 118.786 214.22 118.882C214.262 118.903 214.33 118.864 214.384 118.854C214.366 118.818 214.352 118.771 214.323 118.754C214.22 118.693 214.113 118.643 214.006 118.59ZM196.431 136.186C196.174 135.986 196.035 136.018 195.889 136.314C195.856 136.382 195.864 136.464 195.853 136.539C195.889 136.535 195.931 136.543 195.953 136.525C196.088 136.421 196.231 136.386 196.399 136.4C196.509 136.411 196.548 136.353 196.502 136.282C196.481 136.246 196.456 136.218 196.431 136.186ZM222.756 90.9734C222.848 90.9948 222.962 91.0341 223.073 91.0341C223.134 91.0305 223.219 90.9699 223.248 90.9092C223.294 90.8129 223.241 90.7666 223.141 90.7701C223.023 90.7701 222.905 90.7487 222.791 90.7452C222.677 90.7452 222.638 90.788 222.677 90.8629C222.695 90.895 222.72 90.9235 222.756 90.9734ZM217.601 117.348C217.615 117.437 217.619 117.477 217.626 117.516C217.772 117.48 217.922 117.462 218.061 117.405C218.104 117.387 218.14 117.27 218.126 117.209C218.111 117.163 217.997 117.095 217.961 117.113C217.829 117.181 217.708 117.277 217.601 117.348ZM213.257 92.7712C213.26 92.8033 213.249 92.8426 213.264 92.864C213.374 93.0174 213.528 92.9888 213.674 92.946C213.735 92.9282 213.788 92.8783 213.838 92.8319C213.845 92.8247 213.813 92.7534 213.784 92.7356C213.595 92.625 213.353 92.6428 213.257 92.7712ZM212.522 88.2768C212.518 88.3945 212.507 88.5157 212.515 88.6335C212.522 88.6977 212.557 88.7619 212.579 88.8296C212.629 88.769 212.704 88.7191 212.721 88.6549C212.75 88.5514 212.743 88.4373 212.739 88.3303C212.736 88.3053 212.682 88.2732 212.643 88.2625C212.607 88.2554 212.568 88.2696 212.522 88.2768ZM197.18 89.9533C197.119 89.8213 197.073 89.6322 197.026 89.6322C196.855 89.6287 196.805 89.7963 196.759 89.9354C196.727 90.0424 196.777 90.096 196.877 90.071C196.973 90.0424 197.066 89.9961 197.18 89.9533ZM196.984 88.3267C196.909 88.2946 196.837 88.2589 196.759 88.2339C196.723 88.2232 196.677 88.2411 196.638 88.2447C196.652 88.3017 196.648 88.3873 196.688 88.4087C196.823 88.4979 196.973 88.5657 197.123 88.6335C197.155 88.6513 197.201 88.637 197.244 88.6335C197.226 88.5764 197.226 88.505 197.187 88.4658C197.133 88.4087 197.055 88.3731 196.984 88.3267ZM196.506 87.2958C196.434 87.2815 196.324 87.2387 196.213 87.2423C196.174 87.2459 196.106 87.3672 196.113 87.4242C196.138 87.5847 195.967 87.5134 196.128 87.5348C196.242 87.5526 196.359 87.5205 196.477 87.5098C196.559 87.4991 196.677 87.6169 196.716 87.4599C196.723 87.4314 196.602 87.3707 196.506 87.2958ZM155.035 162.022C155.074 162.033 155.128 162.065 155.035 162.022C154.957 162.004 154.885 161.997 154.807 161.983C154.853 162.047 154.889 162.125 154.949 162.165C155.053 162.229 155.171 162.275 155.285 162.311C155.331 162.325 155.392 162.3 155.445 162.293C155.42 162.261 155.403 162.222 155.37 162.2C155.299 162.158 155.235 162.129 155.035 162.022ZM164.356 140.602C164.231 140.545 164.16 140.502 164.085 140.481C164.013 140.459 163.931 140.459 163.856 140.452C163.903 140.513 163.942 140.577 163.992 140.634C164.017 140.662 164.06 140.68 164.092 140.702C164.124 140.723 164.156 140.755 164.192 140.766C164.306 140.791 164.424 140.809 164.538 140.83C164.466 140.741 164.395 140.652 164.356 140.602ZM141.762 154.364C141.88 154.506 141.994 154.649 142.119 154.784C142.126 154.795 142.197 154.767 142.219 154.742C142.244 154.717 142.258 154.667 142.247 154.631C142.204 154.438 141.976 154.264 141.844 154.303C141.823 154.31 141.801 154.335 141.762 154.364ZM138.816 151.674C138.78 151.556 138.716 151.538 138.637 151.631C138.537 151.752 138.43 151.884 138.527 152.045C138.548 152.081 138.684 152.081 138.752 152.052C138.966 151.966 138.891 151.817 138.816 151.674ZM149.335 129.401C149.246 129.405 149.128 129.391 149.021 129.416C148.968 129.426 148.893 129.512 148.896 129.558C148.9 129.615 148.975 129.708 149.028 129.712C149.135 129.719 149.249 129.69 149.356 129.662C149.453 129.633 149.481 129.565 149.438 129.498C149.421 129.466 149.385 129.448 149.335 129.401ZM144.338 53.5943C144.355 53.63 144.359 53.6835 144.387 53.6978C144.555 53.7798 144.858 53.7085 144.915 53.5765C144.926 53.5515 144.894 53.4873 144.869 53.4766C144.684 53.3981 144.409 53.4659 144.338 53.5943ZM127.462 60.3753C127.487 60.2683 127.501 60.1934 127.519 60.1185C127.458 60.1292 127.394 60.1256 127.344 60.1541C127.244 60.2148 127.151 60.2897 127.062 60.3646C126.998 60.4181 127.012 60.4823 127.098 60.5322C127.13 60.5501 127.184 60.575 127.209 60.5643C127.301 60.5037 127.39 60.4288 127.462 60.3753ZM76.9488 24.5121C76.8203 24.4729 76.724 24.505 76.6777 24.6405C76.6384 24.7725 76.6812 24.8724 76.8168 24.8902C76.9488 24.9081 77.0272 24.8011 77.0522 24.6905C77.0665 24.6441 76.988 24.5728 76.9488 24.5121ZM119.55 74.3688C119.618 74.2368 119.671 74.1691 119.686 74.0906C119.696 74.0442 119.654 73.9836 119.636 73.9265C119.6 73.9479 119.564 73.9657 119.536 73.9943C119.507 74.0228 119.489 74.0585 119.468 74.0942C119.447 74.1298 119.418 74.1655 119.407 74.2047C119.375 74.3189 119.35 74.4366 119.322 74.5507C119.411 74.4794 119.504 74.4045 119.55 74.3688ZM80.6835 21.0592C80.712 20.9879 80.7477 20.913 80.7762 20.8416C80.8262 20.7204 80.7905 20.6811 80.6763 20.7239C80.6014 20.7525 80.5158 20.7632 80.4587 20.8131C80.3517 20.9023 80.4052 21.02 80.4409 21.127C80.4552 21.1627 80.4873 21.1912 80.5123 21.2197C80.5693 21.1662 80.6264 21.1127 80.6835 21.0592ZM116.39 72.4355C116.397 72.3392 116.432 72.2143 116.408 72.2001C116.254 72.1109 116.101 72.1679 115.979 72.275C115.93 72.3213 115.897 72.4176 115.908 72.4854C115.912 72.5211 116.026 72.5782 116.076 72.5675C116.186 72.5425 116.29 72.4783 116.39 72.4355ZM80.3232 22.297C80.3482 22.2292 80.3696 22.1936 80.3767 22.1543C80.3838 22.0758 80.3874 21.9974 80.391 21.9189C80.3268 21.9617 80.234 21.9902 80.2019 22.0473C80.127 22.1864 80.0806 22.3398 80.0271 22.4896C80.0164 22.5253 80.0236 22.5681 80.0236 22.6109C80.0592 22.5931 80.1056 22.5824 80.127 22.5538C80.2019 22.4646 80.2697 22.3648 80.3232 22.297ZM115.922 71.4724C116.044 71.5473 116.161 71.5437 116.243 71.4474C116.286 71.3975 116.304 71.2833 116.276 71.2334C116.211 71.1335 116.09 71.0729 115.983 71.1727C115.901 71.2476 115.855 71.3618 115.922 71.4724ZM114.702 72.118C114.731 72.1715 114.745 72.2143 114.774 72.2393C114.802 72.2643 114.849 72.2892 114.884 72.2857C115.059 72.2607 115.17 72.1537 115.22 71.986C115.23 71.9504 115.227 71.9076 115.227 71.8683C115.223 71.7791 115.166 71.7649 115.07 71.8362C114.945 71.9254 114.824 72.0253 114.702 72.118ZM113.943 73.6055C113.964 73.6911 113.975 73.8088 114 73.8088C114.114 73.8231 114.239 73.8231 114.349 73.7945C114.403 73.7803 114.435 73.6946 114.478 73.6411C114.414 73.5983 114.349 73.5199 114.289 73.5234C114.171 73.5234 114.057 73.5734 113.943 73.6055ZM118.755 64.3739C118.701 64.3525 118.665 64.3276 118.63 64.3276C118.53 64.3311 118.501 64.3918 118.548 64.4917C118.598 64.5951 118.648 64.6985 118.705 64.7949C118.719 64.8163 118.772 64.827 118.808 64.827C118.901 64.827 118.944 64.7663 118.908 64.6664C118.865 64.5594 118.801 64.4631 118.755 64.3739ZM53.5453 89.7214C53.3634 89.6251 53.26 89.5645 53.1494 89.5145C53.1137 89.5003 53.0674 89.511 53.0281 89.5145C53.0602 89.568 53.0888 89.6251 53.128 89.6715C53.153 89.7 53.1958 89.7143 53.2314 89.7321C53.3028 89.7678 53.3741 89.8142 53.449 89.8391C53.5239 89.8641 53.6024 89.8677 53.6809 89.8819C53.6203 89.807 53.556 89.7321 53.5453 89.7214ZM103.316 88.3873C103.316 88.4587 103.309 88.5015 103.32 88.5336C103.324 88.5443 103.384 88.5514 103.409 88.5407C103.516 88.4979 103.634 88.4658 103.719 88.398C103.766 88.3624 103.762 88.2589 103.784 88.1876C103.712 88.1947 103.63 88.1804 103.57 88.2125C103.473 88.2589 103.388 88.3338 103.316 88.3873ZM100.57 90.4206C100.577 90.4598 100.57 90.5169 100.591 90.5347C100.62 90.5525 100.673 90.5418 100.712 90.5311C100.873 90.4848 101.026 90.4241 101.105 90.26C101.119 90.2279 101.119 90.1816 101.112 90.1459C101.108 90.1245 101.069 90.0924 101.051 90.0995C100.852 90.1459 100.648 90.1887 100.57 90.4206Z" fill="black"/>
</svg>
