<svg width="146" height="97" viewBox="0 0 146 97" fill="none" xmlns="http://www.w3.org/2000/svg">
<path d="M73.976 90.0955C74.0623 90.0513 74.1801 90.0219 74.1633 89.9124C74.1275 89.6831 74.2748 89.5379 74.401 89.4074C74.7861 89.0098 75.1585 88.5952 75.5478 88.206C75.9392 87.8188 76.3642 87.459 76.7514 87.0592C76.7956 87.0129 76.8776 87.0003 76.9429 86.9771C76.987 86.9624 77.0565 86.975 77.0796 86.9456C77.3847 86.5689 77.8014 86.308 78.117 85.9419C78.2096 85.8325 77.915 85.6957 78.1633 85.6158C78.2769 85.58 78.38 85.5063 78.4852 85.4432C78.5462 85.4075 78.6051 85.3612 78.6641 85.3191C78.6851 85.3065 78.704 85.2896 78.7188 85.2707C78.8071 85.1592 78.6977 85.176 78.643 85.155C78.6136 85.1423 78.5862 85.1192 78.5588 85.1002C78.8113 84.8414 79.0638 84.5805 79.4131 84.4459C79.4784 84.4206 79.5478 84.4164 79.6109 84.4816C79.6572 84.53 79.7498 84.5532 79.7182 84.4395C79.674 84.2796 79.6635 84.1113 79.8445 84.0924C80.1159 84.0608 80.2359 83.8251 80.4505 83.7283C80.6735 83.6294 80.8797 83.5095 81.0459 83.3222C81.1217 83.2339 81.2395 83.1792 81.3447 83.1223C81.9844 82.7731 82.6304 82.4322 83.2679 82.0787C83.6677 81.8578 84.1159 81.7147 84.4294 81.3486C84.4883 81.2791 84.5956 81.2497 84.6819 81.2034C85.3216 80.8541 85.9654 80.509 86.6051 80.1576C86.7524 80.0755 86.9102 79.9956 87.0259 79.8799C87.1269 79.7768 87.2364 79.7578 87.35 79.7683C87.5793 79.7915 87.7708 79.7157 87.9686 79.6084C88.6293 79.2528 89.3089 78.9288 89.9591 78.55C90.3084 78.3438 90.6114 78.0577 90.9733 77.862C91.0848 77.8031 91.1669 77.6642 91.1185 77.5569C91.0743 77.4601 90.9291 77.3507 91.1438 77.3633C91.7266 77.397 92.1832 77.1171 92.604 76.7931C92.8166 76.6289 93.0333 76.4753 93.2647 76.3449C93.4983 76.2123 93.6351 75.9767 93.8876 75.8546C94.1422 75.7305 94.3505 75.5074 94.5756 75.3265C94.6135 75.297 94.6408 75.2549 94.6682 75.215C95.068 74.6574 95.1837 74.5522 95.7645 74.2218C95.8276 74.186 95.9202 74.1524 95.9391 74.0977C96.0359 73.8283 96.2968 73.7463 96.4757 73.5737C96.6461 73.4096 96.7618 73.1887 96.9449 73.0245C97.0101 72.9656 97.0459 72.8562 97.0648 72.7636C97.0964 72.6079 97.1511 72.4901 97.3342 72.4901C97.3342 72.3344 97.3804 72.2187 97.5319 72.1366C97.633 72.0819 97.7276 71.983 97.7802 71.882C98.0306 71.4107 98.3673 70.9919 98.5714 70.4933C98.8912 69.7084 99.2721 68.953 99.4341 68.1072C99.5099 67.7095 99.7203 67.3349 99.8781 66.9541C99.9622 66.7521 100.065 66.5585 100.156 66.3607C100.373 65.8746 100.665 65.4349 100.964 64.9972C101.021 64.9152 101.082 64.8689 101.191 64.8541C101.395 64.831 101.334 64.7531 101.235 64.6374C101.202 64.5974 101.269 64.4607 101.307 64.3723C101.33 64.3155 101.433 64.265 101.374 64.204C101.134 63.962 101.275 63.9094 101.515 63.842C101.643 63.8042 101.747 63.6758 101.862 63.5895C101.942 63.5306 102.012 63.4717 102.005 63.3581C101.993 63.0993 102.218 62.9309 102.262 62.689C102.279 62.6069 102.371 62.5354 102.443 62.4701C103.192 61.7905 103.947 61.113 104.697 60.4291C104.892 60.2524 105.092 60.0714 105.185 59.8105C105.225 59.699 105.288 59.6611 105.401 59.7116C105.601 59.8021 105.803 59.8799 106.001 59.9725C106.487 60.1998 107.038 60.2124 107.518 60.4607C107.577 60.4901 107.659 60.4754 107.733 60.4754C108.023 60.4733 108.303 60.5238 108.572 60.6416C109.159 60.9025 109.782 60.9762 110.418 60.953C110.485 60.9509 110.561 60.9783 110.601 60.8836C110.679 60.6942 110.866 60.7005 110.952 60.8079C111.085 60.9741 111.4 60.8331 111.428 61.1235C111.796 61.2371 112.145 61.4328 112.541 61.4244C112.701 61.4223 112.825 61.4601 112.945 61.5548C112.981 61.5822 113.037 61.6116 113.075 61.6032C113.418 61.5064 113.723 61.7063 114.052 61.7232C114.388 61.74 114.723 61.7947 115.062 61.8157C115.251 61.8284 115.445 61.8684 115.636 61.7926C115.697 61.7674 115.796 61.7547 115.842 61.7863C116.24 62.0556 116.694 61.9441 117.117 61.9694C117.77 62.0093 118.428 62.003 119.081 61.9525C119.998 61.8789 120.909 61.7484 121.824 61.6432C122.409 61.4075 123.043 61.3507 123.634 61.1445C123.67 61.1319 123.716 61.0877 123.72 61.054C123.729 60.9467 123.724 60.8478 123.859 60.9762C123.945 61.0583 124.036 61.0183 124.126 60.9867C124.877 60.7195 125.673 60.6227 126.416 60.3029C127.007 60.0441 127.657 59.9178 128.282 59.7368C128.583 59.6506 128.867 59.5159 129.172 59.4296C129.565 59.3181 129.946 59.1624 130.359 59.114C130.43 59.1056 130.504 59.0846 130.567 59.0509C131.295 58.6616 132.114 58.4786 132.827 58.0619C133.147 57.8747 133.515 57.8494 133.841 57.6748C135.192 56.9531 139.293 54.8131 139.975 54.4407C140.124 54.3586 140.282 54.2934 140.391 54.1524C140.436 54.0956 140.494 54.0409 140.558 54.0136C141.296 53.6895 141.915 53.1677 142.605 52.7616C142.998 52.5322 143.373 52.265 143.781 52.0651C144.173 51.8736 144.488 51.5749 144.882 51.3897C145.387 51.1519 145.871 50.87 146.363 50.607C146.683 50.4365 147.022 50.2976 147.268 50.0094C147.341 49.9231 147.472 49.8831 147.579 49.8263C148.027 49.5843 148.471 49.3445 148.879 49.033C149.081 48.8794 149.307 48.7343 149.549 48.6185C150.184 48.3155 150.731 47.8758 151.278 47.4339C151.636 47.1456 152.027 46.9037 152.389 46.6217C152.844 46.2682 153.353 45.9694 153.658 45.4497C153.702 45.376 153.751 45.2666 153.866 45.2687C154.047 45.275 154.115 45.1383 154.197 45.0204C154.279 44.9026 154.321 44.7448 154.424 44.6585C154.523 44.5807 154.689 44.5891 154.813 44.5323C154.92 44.4839 155.024 44.406 155.055 44.2756C155.066 44.2314 155.076 44.1704 155.055 44.1367C155.038 44.1114 154.952 44.0946 154.931 44.1136C154.645 44.3787 154.251 44.4439 153.932 44.6459C153.852 44.6964 153.753 44.7301 153.658 44.7364C153.595 44.7427 153.523 44.6964 153.464 44.6606C153.454 44.6543 153.477 44.5765 153.498 44.5407C153.536 44.4776 153.572 44.3829 153.626 44.3682C153.988 44.2693 154.203 43.8442 154.643 43.9179C154.704 43.9284 154.784 43.8821 154.841 43.8421C154.895 43.8021 154.975 43.7264 154.967 43.6822C154.927 43.4676 154.887 43.2551 154.952 43.0404C154.676 42.9605 154.906 42.5733 154.611 42.487C154.531 42.4639 154.495 42.3355 154.533 42.2324C154.567 42.1441 154.725 42.0199 154.458 42.0473C154.314 42.062 154.178 42.0157 154.047 42.1083C154.079 42.3671 154.094 42.6217 154.131 42.8805C154.146 42.9689 154.228 42.971 154.302 42.9689C154.327 42.9668 154.35 42.9647 154.376 42.9668C154.495 42.9773 154.458 43.0678 154.434 43.1225C154.323 43.3792 154.083 43.3287 153.873 43.3371C153.669 43.3455 153.66 43.3203 153.748 43.0804C153.761 43.0489 153.755 43.0089 153.757 42.9731C153.664 42.9815 153.565 42.9731 153.479 43.0026C153.389 43.032 153.441 43.1099 153.458 43.173C153.483 43.2635 153.509 43.3561 153.513 43.4465C153.515 43.4823 153.452 43.5517 153.427 43.5475C153.056 43.4928 152.741 43.3497 152.562 42.9899C152.461 42.79 152.505 42.6091 152.69 42.5018C152.945 42.3566 153.212 42.2577 153.507 42.2388C153.698 42.2282 153.883 42.2409 154.047 42.1083C154.005 42.022 153.965 41.9421 153.936 41.8495C153.915 41.7843 153.9 41.698 153.925 41.6412C153.984 41.5128 154.066 41.3929 154.144 41.273C154.226 41.1467 154.106 40.9826 154.23 40.8605C154.317 40.7785 154.394 40.6859 154.468 40.5912C154.525 40.5176 154.474 40.3787 154.39 40.3513C154.298 40.324 154.203 40.284 154.11 40.284C153.929 40.284 153.778 40.2419 153.658 40.1009C153.488 39.9032 153.328 39.9894 153.155 40.103C153.273 40.2209 153.359 40.3724 153.5 40.4502C153.757 40.5954 153.675 40.8142 153.669 41.0162C153.666 41.0836 153.622 41.1404 153.523 41.1172C153.458 41.1025 153.38 41.1404 153.311 41.1341C153.132 41.1215 153.05 41.2056 153.014 41.374C152.985 41.5065 152.877 41.5865 152.753 41.5928C152.267 41.6201 151.813 41.8011 151.339 41.8789C151.293 41.8853 151.245 41.8789 151.198 41.8789C151.236 41.8306 151.263 41.7653 151.314 41.7359C151.419 41.6727 151.499 41.5612 151.592 41.517C151.912 41.3592 152.236 41.1215 152.621 41.3845C152.717 41.4497 152.751 41.416 152.732 41.2225C152.717 41.0815 152.77 40.9889 152.873 40.9131C152.978 40.8395 152.983 40.7722 152.871 40.7027C152.768 40.6375 152.749 40.5218 152.846 40.4797C153.025 40.4018 153.018 40.1998 153.155 40.103C153.088 40.082 153.023 40.0315 152.97 40.0504C152.814 40.1094 152.663 40.1914 152.518 40.2735C152.391 40.345 152.305 40.3135 152.198 40.2209C152.135 40.1662 152.021 40.1578 151.928 40.1472C151.893 40.143 151.834 40.1809 151.815 40.2146C151.798 40.2503 151.8 40.3177 151.823 40.3492C151.878 40.4271 151.947 40.4944 152.013 40.566C152.044 40.5996 152.046 40.6606 151.994 40.6733C151.642 40.7553 151.289 40.8353 150.935 40.8984C150.83 40.9174 150.754 40.85 150.761 40.7259C150.765 40.6775 150.761 40.6291 150.754 40.5807C150.731 40.3892 150.411 40.3429 150.51 40.0988C150.575 39.9389 150.493 39.7538 150.609 39.6065C150.653 39.5475 150.632 39.4971 150.569 39.5139C150.293 39.5812 150.129 39.3519 149.908 39.2761C149.847 39.2551 149.767 39.274 149.698 39.2866C149.58 39.3077 149.561 39.4192 149.654 39.5244C149.753 39.6401 149.757 39.7538 149.683 39.7453C149.389 39.7096 149.25 39.9515 149.124 40.1115C148.894 40.3976 148.545 40.3198 148.282 40.4839C148.13 40.5765 147.907 40.5681 147.729 40.4586C147.632 40.3976 147.543 40.4208 147.455 40.465C147.346 40.5176 147.234 40.5702 147.131 40.6333C146.826 40.8143 146.584 41.071 146.199 41.1446C145.875 41.2056 145.58 41.4202 145.275 41.5717C144.951 41.7338 144.638 41.9147 144.29 42.0283C144.118 42.0852 143.933 42.1335 143.806 42.3124C143.729 42.4218 143.567 42.4681 143.442 42.546C143.072 42.7711 142.695 42.9773 142.355 43.2593C142.005 43.5496 141.559 43.7222 141.159 43.9515C141.136 43.9642 141.138 44.0168 141.128 44.0504C141.151 44.0546 141.178 44.0673 141.197 44.0609C141.244 44.0462 141.288 44.0231 141.332 44.0041C141.376 43.9852 141.42 43.9578 141.467 43.9515C141.498 43.9473 141.536 43.9726 141.57 43.9831C141.559 44.0062 141.553 44.0336 141.536 44.0483C141.498 44.0778 141.46 44.1157 141.416 44.1283C141.079 44.2314 140.863 44.5049 140.589 44.6985C140.332 44.8795 140.002 44.972 139.783 45.1867C139.512 45.4518 139.184 45.5928 138.866 45.7611C138.35 46.0367 137.828 46.3019 137.311 46.5691C137.227 46.6133 137.225 46.6091 137.189 46.5396C137.145 46.4534 137.216 46.5796 137.231 46.4828C137.237 46.4471 137.229 46.4071 137.218 46.3734C137.214 46.365 137.172 46.365 137.149 46.3671C137.126 46.3713 137.098 46.3776 137.082 46.3945C136.505 47.0194 135.699 47.2635 134.977 47.6506C134.918 47.6822 134.817 47.7095 134.773 47.6822C134.535 47.5286 134.357 47.6843 134.169 47.7811C133.435 48.1598 131.663 49.0793 131.508 49.1467C131.438 49.174 131.362 49.1446 131.325 49.0751C131.255 48.9468 131.16 48.8205 131.137 48.6817C131.076 48.3408 130.925 48.0399 130.775 47.7327C130.712 47.6043 130.679 47.4591 130.626 47.3245C130.567 47.1667 130.521 47.0004 130.439 46.8532C130.287 46.5796 130.127 46.3103 129.948 46.0536C129.774 45.8011 129.767 45.4497 129.486 45.2645C129.189 44.7048 128.892 44.1472 128.6 43.5854C128.566 43.5244 128.545 43.4486 128.545 43.3771C128.537 42.7459 128.356 42.1378 128.278 41.5149C128.21 40.9889 128.137 40.4671 128.097 39.9347C128.032 39.072 127.907 38.2072 127.64 37.374C127.39 36.5912 127.154 35.8043 126.891 35.0257C126.62 34.2156 126.498 33.3845 126.458 32.5365C126.416 31.6128 126.519 30.6954 126.628 29.7801C126.809 28.263 126.992 26.7459 127.2 25.2309C127.341 24.2188 127.335 23.2004 127.369 22.1841C127.381 21.7759 127.282 21.3635 127.293 20.9532C127.32 19.7665 127.261 18.5839 127.211 17.4014C127.167 16.3135 127.038 15.232 126.918 14.1505C126.815 13.2289 126.491 12.3641 126.365 11.4551C126.355 11.3856 126.321 11.3162 126.289 11.251C125.793 10.1757 125.378 9.06054 124.776 8.03373C124.53 7.615 124.307 7.18155 124.069 6.75651C123.952 6.54609 123.851 6.32937 123.665 6.15683C123.546 6.0432 123.474 5.87697 123.4 5.72337C123.209 5.32779 122.954 4.9785 122.666 4.64605C121.349 3.12264 119.804 1.90645 117.946 1.10898C117.879 1.07951 117.812 1.04585 117.74 1.03533C117.069 0.93643 116.427 0.683935 115.737 0.662893C115.377 0.650267 115.015 0.587141 114.666 0.469313C114.506 0.416708 114.334 0.380941 114.165 0.37673C113.267 0.353582 112.368 0.380941 111.478 0.500875C110.977 0.568205 110.475 0.662893 109.989 0.799665C109.526 0.93012 109.056 1.05216 108.627 1.28782C108.074 1.59292 107.512 1.8833 106.948 2.16946C106.727 2.28098 106.533 2.41565 106.369 2.59871C106.281 2.69971 106.186 2.85332 106.077 2.87015C105.911 2.89539 105.835 3.00692 105.719 3.08898C105.336 3.36252 105.021 3.68235 104.875 4.14736C104.833 4.28203 104.747 4.40407 104.684 4.53453C104.673 4.55346 104.682 4.57871 104.682 4.60186C104.726 4.59765 104.791 4.60817 104.814 4.58292C104.976 4.40407 105.124 4.21259 105.29 4.04005C105.324 4.00428 105.423 4.0169 105.486 4.03164C105.509 4.03795 105.534 4.12001 105.526 4.15999C105.416 4.65867 105.322 5.15946 105.29 5.66866C105.286 5.73389 105.315 5.80753 105.347 5.86645C105.357 5.88539 105.439 5.88328 105.475 5.86645C105.593 5.80964 105.528 5.69812 105.542 5.60975C105.574 5.4351 105.639 5.37198 105.765 5.38671C105.896 5.40354 105.9 5.49612 105.898 5.59923C105.898 5.64342 105.915 5.69812 105.942 5.72968C105.986 5.77598 106.001 5.73179 106.041 5.6876C106.209 5.49402 106.327 5.30254 106.218 5.03531C106.193 4.97429 106.218 4.89013 106.237 4.82069C106.252 4.75335 106.294 4.68392 106.371 4.75757C106.424 4.80807 106.472 4.87961 106.544 4.85225C106.668 4.80385 106.721 4.84173 106.735 4.96167C106.813 5.60975 106.845 6.25992 106.845 6.91011C106.845 7.0069 106.818 7.10579 106.834 7.20048C106.937 7.82541 106.876 8.45245 106.872 9.07738C106.87 9.41615 106.969 9.75912 106.935 10.0895C106.866 10.7965 107.064 11.4803 107.055 12.181C107.051 12.4335 107.137 12.7007 107.302 12.9069C107.398 13.0311 107.384 13.1131 107.312 13.2247C107.285 13.2688 107.32 13.3004 107.386 13.3046C107.453 13.3067 107.567 13.2962 107.527 13.4014C107.426 13.6623 107.51 13.8812 107.657 14.0832C107.737 14.1968 107.916 14.2809 107.931 14.3925C107.954 14.5924 108.131 14.6597 108.189 14.8133C108.24 14.9416 108.189 15.1016 108.349 15.2005C108.402 15.2341 108.368 15.3709 108.459 15.4382C108.692 15.6171 108.753 15.9474 109.031 16.0884C109.054 16.0253 109.109 15.9558 109.098 15.899C109.08 15.8064 109.016 15.7244 108.981 15.636C108.966 15.5981 108.974 15.5518 108.974 15.5098C109.016 15.5287 109.056 15.5497 109.101 15.5624C109.138 15.5729 109.185 15.5834 109.214 15.5687C109.458 15.4487 109.511 15.4466 109.589 15.5855C109.635 15.6697 109.686 15.7559 109.713 15.8485C109.808 16.1515 110.125 16.0505 110.308 16.1873C110.321 16.1431 110.338 16.0989 110.344 16.0547C110.355 15.9832 110.363 15.9138 110.449 15.9958C110.521 16.0632 110.584 16.1368 110.651 16.2062C110.735 16.2988 110.717 16.3556 110.586 16.3977C110.403 16.4587 110.371 16.5029 110.456 16.5913C110.523 16.6607 110.599 16.7196 110.672 16.7828C110.765 16.8648 110.824 16.9595 110.824 17.0942C110.822 17.5024 111.003 17.8896 110.973 18.302C110.961 18.4724 111.161 18.5671 111.112 18.7649C111.074 18.9248 111.118 19.1015 111.121 19.272C111.123 19.4109 111.131 19.5371 111.062 19.6844C110.963 19.9011 111.047 20.1557 111.106 20.3851C111.139 20.5113 111.148 20.6207 111.102 20.7365C111.007 20.9869 110.944 21.2457 110.973 21.515C111.001 21.757 110.792 21.9695 110.902 22.2178C110.832 22.7186 110.658 24.0589 110.641 24.2272C110.632 24.324 110.645 24.4145 110.738 24.4776C110.799 24.5197 110.843 24.5955 110.803 24.6649C110.54 25.1278 110.613 25.6391 110.592 26.1357C110.567 26.788 110.548 27.4424 110.54 28.0947C110.527 28.9405 110.489 29.7885 110.557 30.6344C110.597 31.1415 110.594 31.6507 110.576 32.1599C110.531 33.2246 110.546 34.2872 110.782 35.335C110.893 35.8295 110.98 36.3282 111.087 36.8227C111.15 37.1046 111.209 37.3908 111.316 37.658C111.609 38.3987 111.865 39.1583 112.265 39.8548C112.326 39.96 112.373 40.0883 112.461 40.1599C112.722 40.364 112.829 40.667 112.997 40.9321C113.088 41.0752 113.185 41.214 113.294 41.3403C114.462 42.6996 115.849 43.7748 117.469 44.5428C117.839 44.7195 118.201 44.9279 118.59 45.0541C119.003 45.1867 119.31 45.4307 119.59 45.738C119.872 46.0452 120.84 47.4318 121.052 47.8084C121.351 48.3408 121.521 48.9236 121.707 49.4981C121.911 50.1293 122.212 50.6932 122.615 51.2193C122.973 51.6843 123.377 52.0904 123.811 52.4754C123.842 52.5028 123.863 52.5617 123.857 52.6017C123.851 52.6375 123.804 52.688 123.769 52.6943C122.822 52.8794 121.873 53.0667 120.924 53.2413C119.727 53.4602 118.521 53.5044 117.307 53.456C116.24 53.4118 115.175 53.3739 114.117 53.2287C113.128 53.0962 112.147 52.932 111.198 52.6164C111.06 52.5701 110.921 52.5238 110.78 52.4902C109.755 52.2398 108.827 51.779 107.937 51.2172C106.973 50.6091 105.993 50.0262 105.077 49.3466C104.088 48.6101 103.14 47.819 102.193 47.0257C101.136 46.142 100.072 45.2645 98.9691 44.4355C98.2347 43.8842 97.4394 43.4108 96.6566 42.9226C95.7119 42.3313 94.7566 41.7611 93.8013 41.1867C93.7003 41.1257 93.5783 41.1004 93.4667 41.0583C93.4583 41.0815 93.4499 41.1067 93.4415 41.132C93.6056 41.3929 93.8981 41.4834 94.1295 41.6517C94.3841 41.8369 94.6619 41.9905 94.9207 42.1672C94.9965 42.2177 95.0491 42.2998 95.1122 42.3692C95.1353 42.3629 95.1606 42.3482 95.1774 42.3566C95.6214 42.567 96.0317 42.83 96.3705 43.1919C96.3936 43.1877 96.4252 43.1583 96.4441 43.1667C96.8334 43.3413 97.1763 43.5959 97.5193 43.8442C97.5719 43.8821 97.593 43.9578 97.6266 44.0189C97.6961 43.9705 97.7592 43.9999 97.8202 44.0399C98.0412 44.1872 98.2621 44.3345 98.4788 44.4881C98.5104 44.5112 98.5167 44.568 98.5356 44.6101C98.4999 44.6143 98.4515 44.6354 98.4283 44.6207C98.1485 44.4334 97.8349 44.2987 97.6266 44.0189C97.2542 43.8884 96.926 43.6738 96.6061 43.4486C96.5135 43.3834 96.4504 43.2761 96.3705 43.1919C96.2695 43.234 96.1727 43.1961 96.1032 43.1414C95.7729 42.8826 95.371 42.7185 95.1122 42.3692C94.9838 42.4302 94.8786 42.3629 94.7755 42.2998C93.9907 41.82 85.048 36.2504 83.4131 35.2572C82.0854 34.4534 80.7261 33.7022 79.3163 33.0457C78.2601 32.5534 77.2332 32.0021 76.1791 31.5055C75.653 31.2572 75.1059 31.0447 74.5547 30.8616C73.6351 30.5565 72.7114 30.2662 71.8129 29.9C71.5668 29.8011 71.3059 29.7317 71.047 29.6728C70.3842 29.5255 69.7214 29.3656 69.0502 29.2583C68.2149 29.1257 67.3732 29.0016 66.5189 29.0731C66.3758 29.0857 66.2306 29.0542 66.0855 29.0521C65.6983 29.05 65.3153 29.0373 64.9303 29.1383C64.581 29.2288 64.217 29.2856 63.8572 29.313C62.9818 29.3803 62.1549 29.6433 61.3196 29.8874C60.3748 30.1631 59.5668 30.708 58.6999 31.1394C58.3969 31.4276 58.0245 31.6065 57.6752 31.8232C57.3259 32.04 56.9934 32.284 56.6715 32.5386C55.9729 33.092 55.3017 33.6854 54.5863 34.2156C53.8877 34.7354 53.2228 35.293 52.5453 35.8379C51.1102 36.991 49.772 38.2409 48.6421 39.7054C48.2865 40.1662 47.9056 40.6059 47.5353 41.0541C46.6558 42.1188 45.7952 43.2004 45.0503 44.3682C45.0103 44.4292 44.964 44.486 44.9156 44.5407C44.6758 44.81 44.5727 45.1804 44.2675 45.4013C43.9119 45.3297 43.5542 45.2729 43.2029 45.1825C41.6016 44.7722 40.0067 44.3429 38.4391 43.819C37.5153 43.5097 36.5853 43.2214 35.6511 42.9479C35.186 42.8132 34.7084 42.708 34.2308 42.6364C33.2208 42.4828 32.2339 42.2282 31.2366 42.0157C29.6921 41.6875 28.1498 41.3634 26.5569 41.3845C26.1487 41.3887 25.7363 41.3087 25.3302 41.2414C24.6569 41.1278 23.9857 41.0794 23.3039 41.0899C22.8705 41.0983 22.4328 41.0836 21.9973 41.0015C21.446 40.8942 20.8863 40.9426 20.3329 41.0331C19.6132 41.153 18.8936 41.2288 18.1635 41.214C17.8247 41.2077 17.486 41.2666 17.1493 41.294C16.4234 41.3529 15.6974 41.3908 14.9757 41.475C13.9173 41.597 12.8695 41.7864 11.8384 42.0515C11.2072 42.2135 10.5801 42.3966 9.95311 42.5733C9.88367 42.5923 9.81634 42.6217 9.75111 42.6554C9.14301 42.9584 8.4802 43.1141 7.84685 43.354C7.37132 43.5349 6.92313 43.7853 6.46653 44.0147C6.03097 44.2335 5.60594 44.4713 5.17038 44.688C4.73272 44.9068 4.33082 45.1677 3.97943 45.5128C3.34187 46.142 2.66644 46.7332 2.05834 47.3876C1.64593 47.8295 1.34714 48.3702 1.14935 48.951C1.01679 49.3424 0.932625 49.7506 0.715897 50.1104C0.63594 50.245 0.682231 50.3944 0.680127 50.5375C0.680127 50.6385 0.745355 50.6617 0.814792 50.6364C0.978916 50.5775 1.09464 50.6238 1.18723 50.7648C1.26718 50.8847 1.34293 51.011 1.50074 51.053C1.56387 51.0699 1.65645 51.0678 1.65224 51.1624C1.65014 51.2803 1.66487 51.4213 1.60806 51.5117C1.51968 51.6527 1.3787 51.76 1.26298 51.8842C1.21248 51.941 1.18512 52.0062 1.21668 52.0799C1.33662 52.0062 1.46077 51.9662 1.56176 51.8421C1.73851 51.6254 1.86897 51.6254 2.10674 51.7748C2.16355 51.8105 2.17828 51.8421 2.14041 51.8884C2.05414 51.9978 1.95103 52.0778 1.90474 52.2335C1.86476 52.366 1.66697 52.4439 1.57229 52.5722C1.46497 52.7195 1.35766 52.8016 1.16198 52.8058C1.01469 52.8058 0.905271 52.9194 0.856875 53.0751C0.837938 53.1425 0.806376 53.2119 0.760085 53.2624C0.743251 53.2834 0.665398 53.2645 0.625419 53.2434C0.593857 53.2245 0.553878 53.1593 0.562295 53.1467C0.659085 53.0015 0.730626 52.8563 0.703273 52.6774C0.417108 52.7574 0.288755 52.991 0.166715 53.2308C0.0762364 53.4055 0.187756 53.4265 0.330838 53.4055C0.400276 53.3949 0.4129 53.4244 0.398171 53.4938C0.370817 53.6243 0.280338 53.7 0.181444 53.7716C-0.00792966 53.9063 0.0152162 54.0956 0.0236328 54.2955C0.0299454 54.487 0.0972786 54.6048 0.257193 54.7079C0.43815 54.8216 0.442358 54.8426 0.343463 55.072C0.236152 55.3245 0.379234 55.5391 0.410796 55.7705C0.640148 55.9283 0.518108 56.2271 0.67171 56.427C0.804272 56.5975 0.880021 56.8121 0.98102 57.0057C1.09464 57.2203 1.22089 57.4307 1.31768 57.6537C1.67329 58.4681 2.31926 58.9415 3.12936 59.2276C3.33556 59.2992 3.54598 59.3623 3.75429 59.4254C5.6396 59.9851 7.54807 60.4691 9.42286 61.073C10.254 61.3402 11.1125 61.5085 11.9689 61.6895C12.6106 61.8242 13.2503 61.9609 13.8984 62.0619C14.86 62.2113 15.8237 62.2976 16.7937 62.3649C16.9368 62.3733 17.082 62.3923 17.2229 62.4175C17.265 62.4238 17.3008 62.4722 17.3324 62.5059C17.3366 62.5101 17.3155 62.548 17.2987 62.5606C16.0109 63.5706 14.9294 64.7679 13.9889 66.1019C13.9194 66.2008 13.8563 66.3102 13.77 66.3923C13.021 67.093 12.457 67.943 11.8384 68.7489C11.1735 69.6137 10.5296 70.4954 9.86894 71.3623C9.34501 72.0524 9.02939 72.8352 8.84633 73.6726C8.81055 73.8388 8.77899 73.9967 8.69904 74.1503C8.6317 74.2765 8.56016 74.4196 8.55174 74.5585C8.52439 74.9246 8.28873 75.2276 8.26558 75.5958C8.24664 75.9093 8.15616 76.2207 8.15827 76.5343C8.15827 76.7994 8.11198 77.0077 7.88473 77.1592C7.83423 77.1929 7.85738 77.2581 7.92471 77.2455C8.10987 77.2139 8.11619 77.3296 8.12039 77.4559C8.13092 77.8199 8.13723 78.1818 8.15196 78.5458C8.15616 78.6384 8.16037 78.7752 8.21718 78.8152C8.58541 79.0677 8.50756 79.4653 8.53491 79.8083C8.55595 80.0819 8.61487 80.3259 8.72849 80.57C8.80845 80.7426 8.84422 80.934 8.91997 81.1087C8.94101 81.1529 9.04412 81.1655 9.11145 81.176C9.12828 81.1781 9.15984 81.1108 9.17457 81.0729C9.19141 81.0308 9.19772 80.9845 9.20824 80.9403C9.2419 80.974 9.27978 81.0056 9.30713 81.0435C9.42707 81.2097 9.38499 81.3612 9.26084 81.5064C9.14091 81.6473 9.24191 81.6221 9.34711 81.641C9.67536 81.6978 9.78478 81.8746 9.71534 82.1965C9.6964 82.2849 9.62065 82.3165 9.55542 82.3038C9.36815 82.2723 9.22507 82.3606 9.07989 82.449C9.06095 82.4616 9.03149 82.489 9.0357 82.5016C9.04832 82.5374 9.06726 82.59 9.09461 82.5984C9.37447 82.6763 9.65642 82.7415 9.93627 82.8215C10.0709 82.8614 10.1278 83.0298 10.3255 83.0066C10.5759 82.9751 10.578 83.0108 10.9673 83.297C11.083 83.3812 11.2177 83.4422 11.3418 83.5158C11.527 83.6273 11.769 83.6968 11.8868 83.8588C12.1856 84.2712 12.577 84.227 12.9852 84.1723C13.0567 84.1639 13.1304 84.1113 13.1914 84.126C13.4776 84.1955 13.7385 84.1765 14.0267 84.0713C14.2666 83.985 14.5507 84.0419 14.8032 83.9261C14.942 83.863 15.083 83.9219 15.0935 84.0313C15.1314 84.4459 15.4239 84.6163 15.7648 84.6836C16.2634 84.7825 16.7684 84.873 17.2755 84.8919C18.3423 84.9319 19.3986 84.812 20.4465 84.5784C21.2019 84.4122 21.9425 84.2039 22.6811 83.9872C22.7968 83.9535 22.9083 83.903 23.022 83.8609C24.0972 83.4695 25.1261 82.9835 26.1193 82.4133C26.1593 82.3901 26.2098 82.3859 26.256 82.3733C26.2603 82.4364 26.2813 82.5016 26.2687 82.5584C26.2245 82.7499 26.1614 82.9351 26.1214 83.1245C25.993 83.741 25.8394 84.3554 25.7532 84.9782C25.6669 85.601 25.6374 86.2344 25.6038 86.8635C25.5554 87.7557 25.5238 88.6521 25.4838 89.5463C25.4733 89.7988 25.4081 90.0261 25.1682 90.1649C25.1282 90.1881 25.0967 90.2323 25.0798 90.2765C25.063 90.3185 25.0525 90.3775 25.0693 90.4174C25.0819 90.4448 25.1387 90.4679 25.1787 90.47C25.4333 90.4869 25.4459 90.4848 25.4396 90.6468C25.427 90.9056 25.5448 91.1686 25.4165 91.4232C25.6248 91.6757 25.4249 91.9766 25.5217 92.2607C25.6038 92.5005 25.5512 92.7888 25.5469 93.0539C25.5448 93.3674 25.6395 93.6768 25.589 93.9945C25.5764 94.0808 25.6374 94.1796 25.6711 94.2701C25.7384 94.4448 25.8647 94.5458 26.054 94.5584C26.1761 94.5647 26.2981 94.5836 26.4181 94.571C26.5485 94.5542 26.6348 94.5857 26.7358 94.6804C26.902 94.8361 27.0935 94.792 27.2597 94.6531C27.3123 94.6068 27.3502 94.5352 27.4091 94.5058C27.5838 94.4195 27.8342 94.6173 27.9541 94.4342C28.074 94.2533 28.2487 94.3122 28.3897 94.247C28.5685 94.1649 28.6379 94.2449 28.6316 94.4616C28.6295 94.4847 28.6169 94.5079 28.6169 94.5331C28.6064 94.7288 28.6148 94.7372 28.8 94.6741C28.8925 94.6426 28.9788 94.5984 29.0735 94.571C29.2797 94.51 29.5112 94.7057 29.4691 94.9056C29.4501 95.0003 29.4144 95.0907 29.3933 95.1833C29.3786 95.2443 29.4102 95.2822 29.467 95.2864C29.5638 95.2948 29.6627 95.3159 29.7552 95.3054C29.9467 95.2801 30.1045 95.358 30.2139 95.4842C30.679 96.0208 31.2555 96.0418 31.8741 95.8672C32.4065 95.7136 32.9346 95.541 33.4649 95.379C33.9025 95.2443 34.3423 95.1139 34.7778 94.975C34.8936 94.9371 34.9988 94.8719 35.1103 94.8256C35.5795 94.6278 36.0298 94.3964 36.5117 94.2217C37.0756 94.0176 37.6121 93.7146 38.0961 93.3401C38.2118 93.2517 38.3339 93.1339 38.4643 93.1171C38.9167 93.0644 39.2681 92.7825 39.6721 92.6205C40.0088 92.4879 40.3139 92.2922 40.6758 92.2017C40.9262 92.1386 41.1808 91.9976 41.3786 91.8293C41.5848 91.6526 41.8162 91.5263 42.0308 91.3685C42.944 90.6973 43.8762 90.0471 44.6421 89.197C45.2418 88.5321 45.8478 87.8777 46.3591 87.1371C46.7778 86.5332 47.0913 85.8851 47.3333 85.1928C47.6931 84.1597 48.0718 83.135 48.4716 82.1187C48.9072 81.0098 49.3259 79.8946 49.6289 78.7415C49.9929 77.3549 50.2749 75.9556 50.3654 74.5185C50.439 73.3318 50.5358 72.1471 50.5632 70.9583C50.6095 69.0204 50.6158 67.0824 50.3359 65.1592C50.197 64.2061 49.9971 63.2592 49.8099 62.3102C49.7215 61.862 49.6331 61.4139 49.4669 60.9825C49.408 60.8289 49.3954 60.6522 49.3911 60.4838C49.3785 60.0735 49.3848 59.6611 49.3785 59.2487C49.3659 58.3523 49.3028 57.4602 49.1408 56.5764C49.1113 56.4102 49.0734 56.2419 49.0755 56.0735C49.0839 55.5833 48.985 55.114 48.8314 54.6511C48.6652 54.1482 48.6652 53.6075 48.4758 53.1088C48.4485 52.4249 48.2191 51.7832 48.074 51.1267C48.0319 50.9373 48.0508 50.7963 48.2002 50.6722C48.6673 50.2913 49.0755 49.8431 49.5448 49.4602C49.8246 49.2329 50.0813 48.9657 50.3065 48.6838C50.9398 47.8905 51.5521 47.0783 52.1728 46.2745C52.379 46.0073 52.5663 45.7169 52.8083 45.4855C53.0545 45.2519 53.1618 44.8984 53.4774 44.7322C54.0476 44.0736 54.6452 43.436 55.1797 42.7501C55.8046 41.9442 56.5179 41.2225 57.2712 40.5491C57.8982 39.9873 58.5694 39.4676 59.3269 39.0699C60.0171 38.708 60.7346 38.4408 61.4732 38.203C62.9334 37.7317 64.4421 37.5213 65.9466 37.3045C66.9082 37.1657 67.8824 37.2351 68.8335 37.4939C69.1596 37.5823 69.5047 37.6096 69.8329 37.698C71.0281 38.0263 72.1959 38.4324 73.3216 38.9647C74.0455 39.3056 74.7524 39.678 75.4721 40.0273C75.9497 40.2609 76.3853 40.5765 76.8587 40.8185C77.5278 41.1614 78.1317 41.5991 78.7398 42.0326C78.8871 42.1378 78.9418 42.1335 78.9102 41.9379C78.8976 41.86 78.9292 41.8369 78.9734 41.8853C79.1038 42.0199 79.3142 42.0662 79.3774 42.2829C79.411 42.3966 79.4931 42.4955 79.5646 42.5944C79.6572 42.7269 79.7056 42.5649 79.7561 42.5628C79.9371 42.5565 80.1243 42.5901 80.2737 42.7248C80.3558 42.7964 80.3495 42.9247 80.238 42.9794C80.1875 43.0047 80.1433 43.0131 80.1685 43.0762C80.1854 43.1183 80.2169 43.1604 80.2548 43.1856C80.5683 43.415 80.8608 43.6675 81.1049 43.9705C81.1533 44.0294 81.2185 44.0546 81.2921 44.0168C81.2564 43.9052 81.2122 43.8 81.1806 43.6864C81.1638 43.6275 81.1975 43.5938 81.2585 43.5917C81.2816 43.5917 81.3153 43.5812 81.3258 43.5917C81.5509 43.8274 81.774 44.0652 81.997 44.3029C82.0791 44.3892 82.0749 44.3997 81.8918 44.526C81.9613 44.6207 82.0075 44.7595 82.1001 44.81C82.6409 45.1004 83.0554 45.5486 83.5309 45.9189C83.5478 45.9315 83.5772 45.9273 83.6004 45.9315C83.5204 45.7632 83.4321 45.597 83.3605 45.4244C83.3374 45.3655 83.3395 45.2793 83.4299 45.254C83.4699 45.2435 83.5309 45.233 83.5583 45.2561C83.6656 45.3424 83.7645 45.4413 83.8655 45.5339C83.7582 45.7359 84.0633 45.9147 83.895 46.1209C83.9602 46.2787 84.0381 46.4134 84.2085 46.4997C84.3747 46.5859 84.5136 46.7311 84.6714 46.8384C84.724 46.8721 84.8481 46.9015 84.8629 46.8784C84.9723 46.7269 85.0565 46.7416 85.0628 46.9163C85.067 47.1014 85.1091 47.2445 85.2585 47.356C85.3489 47.4213 85.431 47.3792 85.4647 47.2424C85.4857 47.1477 85.3847 47.2088 85.4731 47.173C85.5636 47.1351 85.4415 47.093 85.511 47.1519C85.6456 47.2635 85.8897 47.2992 85.8413 47.5686C85.8161 47.6969 85.8771 47.8105 85.9823 47.8821C86.4431 48.1893 86.845 48.5828 87.3794 48.7784C87.6951 48.8942 87.8865 49.2056 88.1916 49.3508C88.2758 49.3887 88.3326 49.4875 88.4168 49.5233C88.8439 49.7022 89.2016 49.9904 89.5762 50.2471C89.8665 50.4428 90.159 50.5838 90.5167 50.5649C90.7271 50.5544 90.8913 50.6364 90.9691 50.8468C91.0848 51.1603 91.3142 51.3708 91.6046 51.5075C91.9265 51.6569 92.1769 51.9347 92.5577 51.9599C92.4652 51.7074 92.4736 51.7011 92.705 51.6401C92.7913 51.6169 92.8144 51.5833 92.8208 51.5054C92.8229 51.4676 92.8418 51.4297 92.8523 51.3918C92.9302 51.4465 93.027 51.4886 93.0796 51.5622C93.1343 51.638 93.048 51.6738 92.9891 51.7053C92.8397 51.7874 92.705 51.8758 92.5577 51.9599C92.6272 52.023 92.6777 52.1156 92.7576 52.1409C93.0059 52.2166 93.2626 52.2608 93.5151 52.3239C93.7718 52.3892 93.9275 52.5344 93.9675 52.8205C94.0033 53.0814 94.2432 53.2876 94.4851 53.3445C94.5041 53.3487 94.5377 53.3445 94.5441 53.3318C94.5546 53.3129 94.5588 53.2813 94.5504 53.2624C94.4872 53.1046 94.4178 52.951 94.3547 52.7953C94.3315 52.7363 94.3631 52.7111 94.4325 52.7237C94.4809 52.7342 94.5293 52.7427 94.5756 52.7553C94.7229 52.7932 94.7902 52.89 94.7734 53.0457C94.7482 53.2939 94.744 53.315 94.9207 53.3571C95.1669 53.416 95.3436 53.5864 95.5498 53.7064C95.6277 53.7527 95.6782 53.8494 95.7308 53.9294C95.876 54.1566 96.0149 54.2745 96.24 54.3586C96.2779 54.3734 96.3158 54.4239 96.3263 54.466C96.3452 54.527 96.3052 54.5501 96.2421 54.5543C96.2042 54.5564 96.1411 54.5838 96.1327 54.6111C96.0675 54.8363 96.0864 55.0951 95.8507 55.2445C96.0401 55.518 95.7645 55.5391 95.6382 55.6443C95.6214 55.659 95.6109 55.6843 95.5961 55.7032C95.6298 55.7242 95.6593 55.7495 95.695 55.7642C95.7287 55.7789 95.7666 55.7853 95.8023 55.7958C95.7855 55.8126 95.7708 55.8337 95.7497 55.8463C95.6698 55.8989 95.5814 55.9557 95.4846 55.9031C95.3815 55.8463 95.31 55.821 95.2994 55.9788C95.291 56.0883 95.2321 56.1598 95.1164 56.1577C94.8302 56.1577 94.6198 56.3281 94.401 56.4754C94.3862 56.4859 94.3841 56.5133 94.3757 56.5343C94.422 56.5385 94.4683 56.5512 94.5125 56.547C94.5588 56.5428 94.6135 56.4965 94.6472 56.5091C94.7355 56.547 94.7355 56.4291 94.7061 56.5217C94.6935 56.5638 94.6472 56.5954 94.6177 56.6332C94.5714 56.6879 94.5251 56.7448 94.4809 56.8016C94.4536 56.8394 94.4346 56.8899 94.3968 56.9173C94.3379 56.9615 94.2558 56.9825 94.2011 56.9278C94.1316 56.8584 94.0769 56.7742 93.9675 56.7763C93.7739 56.7784 93.7255 56.9846 93.5783 57.0625C93.492 57.1088 93.5846 57.1698 93.6224 57.2245C93.7298 57.3823 93.7487 57.5338 93.6519 57.6096C93.3973 57.8073 93.2163 58.0535 93.088 58.3481C93.0501 58.4344 92.9575 58.3986 92.8965 58.3734C92.8081 58.3376 92.7324 58.2808 92.6461 58.2387C92.5977 58.2134 92.4946 58.3144 92.5283 58.3544C92.6061 58.4449 92.6356 58.5249 92.5093 58.5733C92.3915 58.6174 92.2295 58.872 92.1474 58.5312C92.1453 58.5207 92.0506 58.5122 92.0275 58.5333C91.8844 58.6616 91.6824 58.7795 91.6319 58.9415C91.5541 59.1835 91.3815 59.3497 91.2679 59.558C91.1879 59.7053 91.2784 59.6864 91.3773 59.7095C91.4657 59.7326 91.4762 59.638 91.4447 59.7305C91.4362 59.7537 91.4236 59.7831 91.4047 59.7895C91.3184 59.8294 91.23 59.8778 91.1396 59.8905C90.8134 59.9346 90.5441 60.063 90.3231 60.3155C90.2306 60.4207 90.1043 60.5406 89.9781 60.5659C89.8076 60.5996 89.6498 60.6248 89.5909 60.7973C89.4878 61.1066 89.2774 61.2392 88.9618 61.2918C88.8082 61.3171 88.5536 61.2603 88.5346 61.5506C88.5346 61.5759 88.461 61.6222 88.4273 61.618C88.2337 61.5906 88.1117 61.7232 87.9623 61.7968C87.4362 62.0493 86.9586 62.3776 86.4789 62.7079C86.0012 63.0362 85.471 63.2739 85.006 63.6358C84.6251 63.9304 84.1664 64.1219 83.7435 64.3618C83.6635 64.406 83.6635 64.4838 83.7435 64.5133C83.7877 64.5301 83.8508 64.5596 83.8781 64.5406C83.956 64.4901 84.0086 64.4039 84.0864 64.3576C84.2948 64.2334 84.4883 64.0735 84.7471 64.0777C84.9092 64.0798 85.0228 64.0041 85.1154 63.8799C85.2037 63.76 85.3384 63.8168 85.452 63.7958C85.471 63.7915 85.5004 63.8126 85.5152 63.8294C85.5194 63.8378 85.5067 63.8736 85.492 63.882C85.4142 63.9388 85.3384 64.0041 85.2542 64.044C85.0586 64.1345 84.9428 64.2755 84.9449 64.4943C84.9449 64.5953 84.9281 64.6858 84.8355 64.7447C84.4694 64.9783 84.0381 65.1045 83.7245 65.4265C83.3984 65.4349 83.1606 65.6937 82.8471 65.7442C82.7798 65.7547 82.7124 65.7905 82.6514 65.8241C82.5651 65.8704 82.5189 65.8263 82.4789 65.761C82.4052 65.639 82.2937 65.5969 82.1696 65.6558C81.8834 65.7905 81.6057 65.9399 81.3237 66.0809C81.3048 66.0914 81.2753 66.083 81.2501 66.0809C81.2648 66.0514 81.2711 66.0051 81.2942 65.9904C81.3973 65.9251 81.5047 65.8704 81.6099 65.8094C81.6688 65.7758 81.7424 65.7189 81.6961 65.6558C81.6604 65.6095 81.5678 65.5927 81.4983 65.5885C81.4289 65.5843 81.3489 65.5948 81.29 65.6285C80.9092 65.8473 80.5178 66.0283 80.0822 66.1124C79.9918 66.1314 79.9076 66.1966 79.8213 66.2408C79.5625 66.3754 79.3121 66.5227 79.0091 66.5459C78.9397 66.5522 78.8703 66.588 78.805 66.6174C78.1612 66.8952 77.5194 67.1771 76.8755 67.4528C76.7661 67.5012 76.6504 67.5538 76.5347 67.558C76.3811 67.5643 76.259 67.6463 76.1222 67.6821C75.8866 67.7431 75.8003 68.0377 75.5247 68.0314C75.2911 68.023 75.1333 68.2103 74.9376 68.2986C74.7188 68.3954 74.5252 68.5406 74.2601 68.5427C74.1275 68.5427 73.9928 68.6458 73.8624 68.711C72.8903 69.2097 71.9203 69.7126 70.9439 70.205C70.643 70.3565 70.3674 70.5732 70.0118 70.5985C69.7509 70.8257 69.4058 70.8783 69.1112 71.0382C68.5536 71.337 67.9792 71.6021 67.4321 71.9178C66.8072 72.2797 66.2054 72.6795 65.5952 73.0624C65.5552 73.0877 65.5005 73.1298 65.5005 73.1655C65.4984 73.4748 65.2143 73.519 65.0439 73.6705C64.6841 73.9903 64.2527 74.2197 63.9224 74.5795C63.813 74.6994 63.6404 74.7499 63.6404 74.9646C63.6404 75.0319 63.5142 75.0971 63.449 75.1666C63.2322 75.3938 63.0155 75.6232 62.7988 75.8504C62.803 76.3112 62.3359 76.4354 62.1465 76.7594C62.1065 76.8267 61.814 77.2139 61.8288 77.2455C61.8624 77.317 61.9845 77.3591 61.8708 77.4685C61.6099 77.7189 61.3574 77.9777 61.0986 78.2302C60.7009 78.6132 60.3664 79.0508 60.0318 79.4864C59.9224 79.6274 59.8025 79.7094 59.6573 79.7936C59.5395 80.1639 59.2533 80.4122 59.0429 80.7236C58.9945 80.7952 58.8219 80.772 58.7167 80.8183C58.6494 80.8478 58.6368 80.9256 58.7062 80.9866C58.7757 81.1634 58.7799 81.1718 58.5884 81.2497C58.4979 81.2854 58.4979 81.3338 58.5126 81.4033C58.5505 81.4327 58.5821 81.4748 58.6241 81.4895C58.7125 81.5232 58.7167 81.5821 58.6852 81.6516C58.6599 81.7084 58.6494 81.8009 58.5442 81.7399C58.378 81.6431 58.2117 81.5484 58.0434 81.4559C57.955 81.4075 57.8772 81.4643 57.7867 81.6137C57.732 81.7021 57.7804 81.7315 57.8477 81.7589C57.8919 81.7799 57.9424 81.7904 57.9803 81.8157C58.1276 81.9125 58.1528 81.9903 58.0708 82.1103C57.9592 82.2702 57.8498 82.4301 57.7257 82.5774C57.6541 82.6657 57.5658 82.6531 57.4858 82.5626C57.4353 82.5058 57.3722 82.4743 57.3006 82.5437C57.2417 82.6026 57.2354 82.6763 57.2817 82.7331C57.3553 82.8257 57.4732 82.9582 57.2859 82.9877C56.985 83.034 57.1534 83.459 56.8461 83.4632C56.9009 83.6842 56.7136 83.8062 56.6378 83.9724C56.5979 84.065 56.4169 84.0608 56.4758 84.2186C56.5894 84.187 56.7136 84.1702 56.8188 84.1176C56.9009 84.0755 56.9682 83.9977 57.025 83.9219C57.1555 83.7536 57.2901 83.6316 57.5068 83.7894C57.7509 83.7347 58.0413 83.8293 58.2265 83.5642C58.2475 83.5348 58.3548 83.5663 58.4243 83.5684C58.5779 83.5684 58.5779 83.5684 58.5505 83.6652C58.4874 83.8904 58.4158 84.1134 58.3674 84.3385C58.3191 84.5553 58.2854 84.772 58.0771 84.9004C57.9024 85.0077 58.0792 85.2265 57.9151 85.3527C57.7825 85.4516 57.8372 85.6684 57.6857 85.7799C57.7173 85.9819 57.6247 86.1881 57.7467 86.3775C57.7846 86.4385 57.833 86.5079 57.7551 86.5437C57.5889 86.6173 57.5889 86.8088 57.4458 86.8951C57.5721 87.2233 57.4963 87.5474 57.4921 87.8777C57.4921 87.9977 57.4585 88.1176 57.5721 88.2081C57.5826 88.2165 57.5573 88.2922 57.53 88.3091C57.4963 88.3322 57.4353 88.3469 57.4037 88.3301C57.3427 88.2964 57.3027 88.2228 57.2396 88.1933C57.1807 88.166 57.0629 88.1407 57.0418 88.1681C56.9913 88.2417 56.9366 88.3533 56.9556 88.429C57.0229 88.6878 57.1597 88.9193 57.328 89.1276C57.349 89.1549 57.4206 89.1634 57.4606 89.1507C57.5531 89.1192 57.5447 89.0687 57.4669 89.0161C57.3575 88.9403 57.3175 88.8414 57.3596 88.7047C57.4058 88.5574 57.4585 88.5132 57.6226 88.5426C57.7699 88.5679 57.8414 88.6226 57.7025 88.7615C57.6752 88.7888 57.6583 88.8646 57.6752 88.894C57.8183 89.1255 57.7762 89.4159 57.8982 89.641C58.0308 89.8851 57.7593 90.0345 57.8162 90.2449C57.7762 90.2302 57.7278 90.2238 57.7025 90.1965C57.6268 90.1186 57.6289 90.0282 57.6752 89.9335C57.7046 89.8725 57.732 89.8072 57.753 89.7441C57.7572 89.7252 57.7446 89.6936 57.7278 89.6768C57.6878 89.6305 57.6415 89.6284 57.6163 89.6726C57.5258 89.8304 57.4101 89.9419 57.2102 89.9124C57.0734 89.8935 56.9429 89.904 56.8188 89.7778C56.48 89.4348 56.1328 89.1023 55.8993 88.671C55.8298 88.5447 55.7562 88.4185 55.6741 88.2986C55.6552 88.2712 55.5879 88.2607 55.5479 88.2691C55.5205 88.2754 55.4806 88.3364 55.489 88.3617C55.59 88.6899 56.0234 89.3401 56.3075 89.5989C56.4695 89.7441 56.6273 89.8914 56.7935 90.0303C56.844 90.0724 56.9177 90.0913 56.9808 90.1165C57.0692 90.1502 57.1786 90.1565 57.2459 90.2133C57.5531 90.4785 57.9256 90.5752 58.3022 90.6657C58.5547 90.7288 58.7378 90.8488 58.8219 91.1097C58.864 91.2444 58.9566 91.3727 58.7273 91.4127C58.723 91.5558 58.723 91.6904 58.7188 91.8335C58.763 91.8293 58.8072 91.823 58.8472 91.8314C58.9566 91.8525 59.0829 91.8609 59.0997 92.0124C59.1018 92.0313 59.0829 92.0713 59.0829 92.0713C58.9713 92.0608 58.8493 92.0713 58.782 91.9493C58.7609 91.9072 58.7378 91.8756 58.7188 91.8335C58.5274 91.9724 58.3317 91.9303 58.2096 91.7578C58.0287 91.5032 57.7657 91.3138 57.6352 91.0171C57.5952 90.9266 57.5489 90.7562 57.4185 90.8151C57.3385 90.8509 57.4542 90.9834 57.469 91.0739C57.4837 91.1665 57.4963 91.2507 57.5679 91.3327C57.8709 91.6715 58.1402 92.0439 58.5442 92.2796C58.5652 92.2922 58.5884 92.3049 58.6052 92.3196C59.1902 92.8225 59.8382 93.2286 60.5305 93.5631C60.5452 93.5694 60.5558 93.6115 60.5558 93.6115C60.52 93.6368 60.48 93.681 60.4463 93.6768C60.1497 93.6347 59.935 93.4158 59.6678 93.3106C59.4932 93.2433 59.5605 93.3738 59.5247 93.4369C59.4237 93.6094 59.3627 93.7841 59.3564 94.0303C59.3543 94.0997 59.3354 94.1376 59.2764 94.1123C59.0871 94.0303 58.8577 94.0408 58.7062 93.8724C58.5694 93.723 58.5694 93.723 58.4895 93.7378C58.4243 93.7504 58.3233 93.742 58.298 93.782C58.1991 93.9314 58.1023 93.8598 57.995 93.8072C57.9235 93.7714 57.8877 93.6263 57.7825 93.7104C57.7488 93.7378 57.7846 93.8451 57.7867 93.9145C57.7951 94.2617 58.0729 94.3859 58.3169 94.5184C58.4011 94.5647 58.4748 94.5963 58.5379 94.6741C58.8998 95.1223 59.3543 95.4001 59.9477 95.4148C60.0655 95.419 60.0823 95.4695 60.0087 95.6042C59.9729 95.6673 59.9161 95.7241 59.9897 95.7872C60.0171 95.8104 60.0844 95.8251 60.1055 95.8083C60.1896 95.7409 60.2738 95.722 60.3685 95.7725C60.4947 95.8419 60.6231 95.9072 60.7367 95.9913C60.8188 96.0502 60.8882 96.1092 60.9955 96.0671C61.166 95.9976 61.3259 96.0671 61.4921 96.1007C61.5552 96.1134 61.6331 96.0839 61.6962 96.0587C61.7362 96.0418 61.7783 95.9997 61.793 95.9577C61.8014 95.9345 61.7677 95.8735 61.7383 95.8609C61.6331 95.8062 61.5216 95.7662 61.4121 95.7199C61.3238 95.7578 61.2375 95.8209 61.1428 95.7557C61.1092 95.7325 61.065 95.6631 61.0755 95.6441C61.1092 95.5873 61.1639 95.5347 61.2207 95.4989C61.3006 95.4463 61.389 95.4064 61.4563 95.5221C61.612 95.4232 61.8098 95.4043 61.9319 95.5074C62.1907 95.7262 62.4895 95.7409 62.7946 95.7788C62.8324 95.783 62.8661 95.8209 62.9019 95.844C62.8703 95.8735 62.843 95.9219 62.8072 95.9303C62.7167 95.9513 62.622 95.9513 62.5294 95.9661C62.5105 95.9682 62.4937 95.9955 62.4832 96.0145C62.4579 96.0565 62.4747 96.1028 62.5358 96.1134C62.6957 96.1407 62.8598 96.1554 63.0218 96.1765C63.1144 96.1302 63.2049 96.0776 63.2975 96.1744C63.5142 96.2059 63.7204 96.4079 63.9497 96.2101C64.3516 96.1891 64.6694 95.9408 65.0292 95.8062C65.1386 95.7662 65.1975 95.8167 65.2712 95.8903C65.4374 96.0544 65.511 96.0755 65.6268 95.9577C65.9887 95.5873 66.4453 95.3664 66.8871 95.1223C66.9713 95.076 67.0702 95.0255 67.1144 94.9477C67.2554 94.6994 67.6026 94.8235 67.754 94.5437C67.8614 94.348 68.1118 94.2301 68.3032 94.085C68.3243 94.0681 68.379 94.0913 68.4169 94.0976C68.4105 94.1207 68.4084 94.146 68.3958 94.167C68.3474 94.2491 68.2969 94.329 68.2506 94.4132C68.238 94.4321 68.238 94.4616 68.2422 94.4847C68.2443 94.4995 68.2569 94.5205 68.2717 94.5268C68.2927 94.5374 68.3306 94.5479 68.3411 94.5374C68.743 94.1313 69.1764 93.7483 69.328 93.1633C69.3027 93.0918 69.3322 93.0413 69.3869 92.9992C69.3448 92.753 69.3974 92.6352 69.5826 92.591C69.7109 92.5595 69.8393 92.551 69.9718 92.5258C69.9255 92.3427 70.1212 92.2522 70.1149 92.0713C70.1107 91.985 70.2475 91.9934 70.2811 92.0313C70.4368 92.2102 70.6851 92.1407 70.8619 92.2628C70.9839 92.3469 71.0807 92.3027 71.1375 92.1597C71.1522 92.1218 71.1964 92.0629 71.2259 92.065C71.4742 92.0797 71.6341 91.9976 71.6888 91.7283C71.7204 91.5747 71.874 91.52 72.0086 91.4632C72.1538 91.4043 72.1601 91.4969 72.177 91.5958C72.1791 91.6084 72.2695 91.6294 72.2843 91.6147C72.379 91.5116 72.5094 91.4106 72.5494 91.2843C72.6588 90.9393 72.9113 90.7625 73.229 90.7225C73.4731 90.6931 73.6246 90.6089 73.7509 90.4069C73.8203 90.2975 74.0097 90.2849 73.976 90.0955C73.8119 90.1376 73.7109 90.2996 73.5257 90.2891C73.49 90.287 73.4395 90.2407 73.4247 90.2028C73.4142 90.1691 73.4331 90.0976 73.4584 90.085C73.5405 90.045 73.6499 90.0471 73.7151 89.9924C73.894 89.8493 73.894 90.0513 73.976 90.0955ZM77.0649 35.0215C76.9134 35.0552 76.7872 35.011 76.6967 34.8763C76.6862 34.8616 76.6862 34.8322 76.6925 34.8111C76.6967 34.7985 76.7219 34.7838 76.7367 34.7838C76.8966 34.7964 76.9934 34.889 77.0649 35.0215C77.1764 35.0468 77.2858 35.0783 77.3953 35.1162C77.4289 35.1288 77.4647 35.1857 77.4647 35.2235C77.4668 35.2551 77.4226 35.3056 77.3889 35.3161C77.3532 35.3287 77.2858 35.3224 77.2648 35.2972C77.1933 35.2067 77.128 35.1183 77.0649 35.0215ZM83.9665 37.1678C84.179 37.153 84.2948 37.3045 84.4084 37.4497C84.4189 37.4644 84.4126 37.4981 84.4021 37.517C84.3979 37.5255 84.3684 37.5276 84.3495 37.5255C84.1369 37.4918 84.0107 37.3761 83.9665 37.1678C83.6551 37.2372 83.5478 37.0184 83.4573 36.7869C83.4489 36.7659 83.4468 36.7406 83.4468 36.7175C83.4468 36.6712 83.4952 36.6565 83.5309 36.7133C83.6425 36.9005 83.8908 36.9489 83.9665 37.1678ZM36.8168 51.7011C36.8441 51.6632 36.8757 51.6401 36.8967 51.598C36.9577 51.476 37.0419 51.5159 37.1324 51.5559C37.1934 51.5833 37.206 51.6275 37.1429 51.659C37.0419 51.7116 36.9346 51.8105 36.8168 51.7011C36.7052 51.7411 36.5979 51.7748 36.4822 51.8C36.4065 51.8189 36.2886 51.6927 36.3097 51.6127C36.3433 51.4654 36.4043 51.598 36.4464 51.6127C36.5011 51.6338 36.5306 51.6233 36.5727 51.5896C36.7389 51.4549 36.7494 51.6296 36.8168 51.7011ZM10.5612 75.2213C10.5907 75.1855 10.6138 75.1582 10.6475 75.1266C10.6769 75.0992 10.7127 75.0782 10.7443 75.055C10.7695 75.0908 10.8074 75.1245 10.8158 75.1645C10.8242 75.2086 10.8137 75.2591 10.799 75.3012C10.7842 75.3412 10.7548 75.3749 10.7316 75.4128C10.6959 75.3854 10.6517 75.3665 10.6243 75.3349C10.597 75.2991 10.5801 75.2634 10.5612 75.2213C10.456 75.2739 10.3613 75.3202 10.315 75.438C10.2856 75.5095 10.2245 75.5643 10.1572 75.5222C10.1299 75.5053 10.1341 75.398 10.153 75.3433C10.2161 75.1687 10.2814 74.9982 10.3508 74.8278C10.3908 74.4364 10.5696 74.085 10.7022 73.721C10.7232 73.6621 10.799 73.6263 10.8537 73.58C10.7716 73.4075 10.8789 73.2644 10.94 73.115C10.9694 73.0435 11.0978 73.0351 11.1798 73.0856C11.2598 73.1382 11.2345 73.2076 11.2156 73.2728C11.1588 73.4517 10.9989 73.5043 10.8537 73.58C10.8642 73.8073 10.9105 74.0282 10.7127 74.2302C10.6285 74.3165 10.5928 74.4953 10.6054 74.6258C10.6285 74.8762 10.4686 74.8025 10.3508 74.8278C10.4244 74.9646 10.4876 75.0845 10.5612 75.2213ZM40.2823 78.0913C40.3202 78.1187 40.3475 78.1439 40.3854 78.1734C40.579 78.3081 40.6021 78.3544 40.5411 78.5122C40.5222 78.5563 40.5011 78.6005 40.4717 78.6384C40.4338 78.6847 40.4359 78.792 40.337 78.7499C40.3012 78.7352 40.2676 78.6826 40.2591 78.6405C40.2129 78.4554 40.1687 78.266 40.2823 78.0913C40.276 77.8494 40.3622 77.6242 40.4569 77.4096C40.4906 77.3359 40.5874 77.2897 40.661 77.2328C40.6568 77.1613 40.6463 77.0898 40.6652 77.0266C40.7515 76.7236 40.8336 76.4248 40.863 76.1071C40.8904 75.821 40.9304 75.5095 41.0692 75.2697C41.2502 74.9562 41.3659 74.6069 41.5763 74.3165C41.6879 74.1629 41.6858 73.9356 41.8814 73.8388C41.9404 73.8094 41.934 73.9441 41.8457 74.4301C41.8099 74.6195 41.7215 74.8131 41.7384 74.9982C41.7594 75.2507 41.6816 75.4064 41.4648 75.5138C41.3217 75.5853 41.4122 75.64 41.4753 75.72C41.57 75.8336 41.5553 75.8736 41.4206 75.9114C41.326 75.9367 41.2081 75.9346 41.2081 76.0545C41.206 76.185 41.1681 76.2881 41.1029 76.3954C41.004 76.5595 41.0293 76.7215 41.1324 76.873C41.2902 77.1066 41.0208 77.0456 40.9661 77.1297C40.8799 77.2686 40.7536 77.1613 40.661 77.2328C40.661 77.4727 40.5664 77.6894 40.4654 77.8999C40.4296 77.9756 40.3475 78.0303 40.2823 78.0913ZM11.9815 74.4722C12.0636 74.6658 12.194 74.853 11.9731 75.0508C11.931 75.0887 11.9058 75.1203 11.8616 75.0929C11.8447 75.0824 11.8279 75.0614 11.8216 75.0424C11.7921 74.9351 11.8405 74.8173 11.7248 74.7226C11.6617 74.6721 11.7543 74.609 11.8048 74.5753C11.8637 74.5353 11.9184 74.5059 11.9815 74.4722C11.9331 74.3712 12.0383 74.2365 11.9079 74.1566C11.8574 74.125 11.8447 74.0703 11.8931 74.0366C11.9478 74.0009 12.0173 73.9819 12.0825 73.9672C12.1414 73.9546 12.1688 73.9925 12.1646 74.0556C12.1625 74.0787 12.1688 74.1019 12.1709 74.125C12.1751 74.1734 12.1772 74.2218 12.1835 74.2681C12.1898 74.3249 12.2656 74.3943 12.1751 74.4343C12.1141 74.4617 12.0509 74.4638 11.9815 74.4722ZM27.3607 52.5407C27.1608 52.5575 26.9946 52.3618 26.7716 52.467C26.7063 52.4986 26.6074 52.3913 26.5759 52.2966C26.5675 52.265 26.599 52.1872 26.6074 52.1872C26.7463 52.1977 26.8852 52.2293 27.0241 52.2356C27.2303 52.244 27.2955 52.3871 27.3607 52.5407C27.6911 52.3555 27.7374 52.366 27.9688 52.5891C28.0214 52.6396 27.9814 52.7048 27.9078 52.7427C27.7921 52.8058 27.6784 52.7805 27.5606 52.7742C27.3839 52.7637 27.3797 52.7784 27.3607 52.5407ZM38.9819 81.58C38.9146 81.4559 38.8494 81.3401 38.7926 81.2118C38.7442 81.1003 38.8283 80.9866 38.963 80.9593C38.9861 80.9551 39.0093 80.9509 39.0324 80.9488C39.2155 80.9382 39.2954 81.0098 39.2681 81.1676C39.2555 81.237 39.2113 81.3128 39.226 81.3738C39.2933 81.6452 39.0619 81.5085 38.9819 81.58C39.0156 81.7694 38.9209 81.8977 38.761 81.9861C38.721 82.0093 38.6705 82.0072 38.6263 82.0177C38.6411 81.9819 38.6558 81.944 38.6726 81.9083C38.6895 81.8641 38.7315 81.8199 38.7252 81.7799C38.6852 81.5295 38.8662 81.6053 38.9819 81.58ZM87.451 45.7064C87.4846 45.8116 87.451 45.8979 87.3395 45.9042C87.2911 45.9063 87.2216 45.8411 87.1859 45.7906C87.129 45.7064 87.1375 45.6159 87.2174 45.5423C87.1522 45.4749 87.0996 45.3866 87.0217 45.3424C86.9081 45.2771 86.8471 45.193 86.8008 45.0815C86.6177 45.1993 86.441 45.3108 86.2137 45.1719C86.1948 45.1593 86.1674 45.1614 86.1443 45.153C86.0117 45.1109 85.8771 45.0625 85.7908 45.233C85.7592 45.2014 85.713 45.1719 85.7024 45.1341C85.694 45.0962 85.7066 45.0268 85.734 45.0099C85.9928 44.8647 85.957 44.6817 85.8203 44.4755C85.795 44.4355 85.7761 44.3892 85.7656 44.3429C85.7571 44.305 85.7677 44.2629 85.7698 44.223C85.7929 44.2314 85.8203 44.2314 85.8371 44.2461C86.0664 44.4292 86.3694 44.4355 86.624 44.5575C86.7272 44.608 86.7524 44.6796 86.7966 44.7595C86.8155 44.6943 86.866 44.6291 86.8471 44.5786C86.8008 44.446 86.7229 44.324 86.6619 44.1956C86.624 44.1199 86.6682 44.0609 86.7208 44.0126C86.8534 43.8926 86.9565 43.9347 87.0301 44.1514C87.0491 44.2061 87.0554 44.2482 87.1143 44.2356C87.1816 44.2209 87.2469 44.1872 87.3142 44.1788C87.35 44.1746 87.3921 44.1998 87.4236 44.2209C87.4341 44.2293 87.4341 44.2693 87.4257 44.2882C87.3247 44.5344 87.1248 44.688 86.906 44.8184C86.8892 44.829 86.8324 44.7848 86.7966 44.7595C86.683 44.8731 86.7124 44.9657 86.8008 45.0815C86.8723 45.0794 86.9523 45.1109 87.0091 45.0794C87.1206 45.0162 87.2321 44.8689 87.2658 45.132C87.2805 45.2603 87.331 45.2624 87.4468 45.2477C87.5541 45.233 87.7056 45.2519 87.7182 45.4055C87.7308 45.5381 87.6277 45.6159 87.5141 45.6727C87.4931 45.6832 87.472 45.6938 87.451 45.7064ZM41.7068 57.2098C41.7657 57.1677 41.7868 57.113 41.7615 57.0435C41.7257 56.9804 41.7068 56.8984 41.6563 56.8584C41.57 56.7889 41.4711 56.8331 41.3954 56.8963C41.3407 56.9425 41.3028 57.0078 41.2481 57.0562C41.1892 57.1088 41.1197 57.0898 41.0545 57.0562C40.9956 57.0246 41.0103 56.9909 41.0251 56.9341C41.1176 56.5848 41.2228 56.2355 41.2712 55.8799C41.3091 55.6022 41.5595 55.3518 41.387 55.053C41.3196 54.9352 41.2039 55.1014 40.9535 55.7832C40.8567 56.0525 40.7179 56.3071 40.6905 56.6059C40.6737 56.81 40.5706 56.608 40.5095 56.6185C40.4001 56.6353 40.3223 56.7405 40.1876 56.7153C40.0992 56.6985 39.9982 56.7384 39.9898 56.5954C39.9856 56.4986 39.9604 56.4039 39.9625 56.3071C39.9667 56.1514 39.8152 56.1346 39.7415 56.0504C39.7289 56.0378 39.6889 56.0357 39.6721 56.0462C39.6595 56.0546 39.6553 56.0925 39.6616 56.1114C39.6994 56.2229 39.7478 56.3344 39.7836 56.4481C39.8068 56.5154 39.7731 56.5385 39.7037 56.5154C39.5942 56.4775 39.4406 56.4733 39.4448 56.3134C39.4491 56.1009 39.3375 56.164 39.2134 56.1829C39.064 56.2061 39.0619 56.1935 39.1313 56.1303C39.1503 56.1156 39.1734 56.1072 39.1902 56.0904C39.5585 55.7158 40.0045 55.4107 40.2297 54.9099C40.2634 54.8342 40.377 54.7942 40.4548 54.7395C40.5348 54.6806 40.6126 54.6132 40.5748 54.5017C40.5159 54.3334 40.5348 54.1819 40.5937 54.0094C40.7242 53.6369 40.7662 53.254 40.5832 52.8794C40.7073 52.6501 40.3875 52.5301 40.4527 52.2924C40.5032 52.1093 40.2718 51.9284 40.4022 51.7053C40.4338 51.6506 40.3454 51.5307 40.3223 51.4381C40.3054 51.3708 40.3012 51.3013 40.2991 51.2319C40.297 51.1014 40.4422 51.0194 40.5411 51.1098C40.6337 51.194 40.6379 51.3182 40.842 51.2361C41.1976 51.0909 41.4164 51.2214 41.5216 51.5475C41.5364 51.5938 41.5532 51.6401 41.5616 51.6885C41.6184 52.0441 41.6626 52.3976 41.7931 52.7448C41.9214 53.0772 41.9719 53.4433 42.0372 53.7968C42.1129 54.2008 42.1676 54.6069 42.2328 55.0109C42.2581 55.1687 42.2139 55.2782 42.0792 55.3834C41.9446 55.4865 42.0834 55.5201 42.1634 55.5538C42.2581 55.5959 42.3317 55.6485 42.2623 55.7663C42.2139 55.8505 42.155 55.9326 42.1255 56.023C42.0919 56.1303 42.1487 56.2082 42.2581 56.2355C42.3212 56.2524 42.4916 56.1661 42.3864 56.3387C42.277 56.5217 42.2413 56.6837 42.3254 56.8836C42.3928 57.0414 42.2581 57.0877 42.1529 57.1445C42.0834 57.5696 41.7825 57.8473 41.4943 58.1293C41.4501 58.1714 41.3638 58.1735 41.2965 58.1924C41.3238 58.1356 41.3449 58.0746 41.3786 58.022C41.4564 57.902 41.5406 57.7842 41.6205 57.6643C41.6794 57.5738 41.6458 57.5317 41.4627 57.4854C41.3954 57.4665 41.3638 57.4391 41.408 57.4055C41.5006 57.3318 41.6058 57.2729 41.7068 57.2098ZM37.2649 54.4323C37.1408 54.4954 37.0209 54.5522 36.8925 54.6069C36.8673 54.6196 36.8252 54.5901 36.7915 54.5796C36.8041 54.5606 36.8104 54.5312 36.8273 54.5207C36.9619 54.4449 37.0903 54.2892 37.2649 54.4323C37.3218 54.3881 37.3891 54.365 37.427 54.3081C37.589 54.0725 37.8436 54.163 38.0582 54.1209C38.0624 54.1188 38.0792 54.1609 38.0835 54.184C38.0898 54.205 38.0961 54.2303 38.0877 54.2492C38.0182 54.426 37.7826 54.3965 37.7026 54.5354C37.5743 54.7584 37.3449 54.7332 37.1555 54.8089C37.1177 54.8237 37.065 54.8089 37.0188 54.8089C37.065 54.7584 37.1029 54.6974 37.1576 54.6616C37.2502 54.6006 37.2776 54.5333 37.2649 54.4323ZM76.1328 86.9814C75.9308 87.3896 75.5668 87.6673 75.2806 88.0061C75.2722 88.0187 75.188 87.9935 75.1691 87.9661C75.1186 87.8861 75.0723 87.802 75.047 87.7115C75.0134 87.5958 75.1606 87.4758 75.2659 87.5537C75.411 87.661 75.4952 87.6147 75.5036 87.4821C75.5226 87.1876 75.6825 87.0866 75.9476 87.0676C76.0149 87.0634 76.0675 87.0108 76.1328 86.9814C76.0949 86.8109 76.3306 86.7078 76.2632 86.5227C76.2548 86.5016 76.3221 86.4217 76.3474 86.4259C76.5957 86.4595 76.663 86.268 76.7619 86.1144C76.7956 86.0618 76.8124 85.9819 76.9134 86.0071C76.9744 86.024 76.9681 86.1586 76.8987 86.2533C76.6862 86.5437 76.4863 86.8425 76.1328 86.9814ZM28.8147 53.4244C28.9346 53.3655 29.0356 53.2624 29.1913 53.3108C29.2082 53.3171 29.2313 53.3445 29.2313 53.3613C29.2313 53.3949 29.2124 53.4581 29.2082 53.4581C29.0777 53.4412 28.9325 53.5507 28.8147 53.4244C28.7747 53.4497 28.7389 53.4833 28.6969 53.4896C28.3013 53.5401 27.9036 53.5822 27.5059 53.6306C27.4112 53.6411 27.3186 53.658 27.2492 53.5717C27.1377 53.618 27.0304 53.6916 26.9167 53.7022C26.3423 53.7505 25.7679 53.7821 25.1913 53.82C25.1219 53.8263 25.0946 53.8053 25.1156 53.759C25.1261 53.7379 25.1387 53.7169 25.1577 53.7043C25.2671 53.6264 25.3134 53.4917 25.4964 53.4833C25.8289 53.4665 26.1656 53.4139 26.4875 53.3339C26.7316 53.2729 26.963 53.3802 27.2008 53.3192C27.2282 53.3129 27.2702 53.3676 27.3081 53.3949C27.4743 53.3255 27.6153 53.1908 27.8321 53.2834C28.0509 53.3781 28.2844 53.3823 28.5201 53.2961C28.6337 53.2561 28.7516 53.3045 28.8147 53.4244ZM39.771 78.6889C39.7584 78.8131 39.7436 78.9393 39.731 79.0656C39.8404 79.0235 39.9456 78.9688 40.0571 78.9456C40.1497 78.9267 40.2381 79.0319 40.2129 79.1139C40.1834 79.2044 40.1539 79.2949 40.1161 79.3812C40.0614 79.5053 40.0151 79.4169 39.9772 79.3664C39.9477 79.3286 39.9267 79.2865 39.9014 79.2444C39.7268 79.4359 39.4217 79.4506 39.2807 79.6947C39.2723 79.7094 39.205 79.6968 39.1692 79.6863C39.1524 79.6821 39.1355 79.6505 39.1334 79.6295C39.1145 79.4254 39.2786 79.2297 39.1229 79.0277C38.9293 79.2654 38.8536 79.5832 38.5232 79.7115C38.4496 79.7389 38.3991 79.8525 38.3549 79.9346C38.2876 80.0629 38.2497 80.2081 38.1676 80.3238C37.7931 80.8625 37.2481 81.8115 37.0356 82.2975C36.6379 83.2065 36.1561 84.0713 35.7121 84.9551C35.6132 85.1529 35.4385 85.216 35.2786 85.3191C35.2386 85.3443 35.1208 85.2496 35.1313 85.197C35.1608 85.054 35.1566 84.8898 35.2323 84.7762C35.5332 84.328 35.6868 83.8146 35.8888 83.3243C36.0824 82.8551 36.2886 82.388 36.4654 81.9146C36.6526 81.4159 36.9178 80.9572 37.1177 80.469C37.1955 80.2754 37.3702 80.1744 37.4459 79.9998C37.5637 79.7368 37.6984 79.4969 37.8773 79.2612C38.0498 79.0382 38.1971 78.7773 38.3717 78.55C38.5169 78.3586 38.7021 78.1986 38.8767 78.0345C38.9272 77.9882 39.003 77.9651 39.0682 77.9377C39.085 77.9293 39.1103 77.9419 39.1334 77.9461C39.1208 77.9672 39.1145 78.003 39.0998 78.0093C38.7841 78.1019 39.0072 78.449 38.8136 78.6132C38.7421 78.6742 38.8241 78.8025 38.883 78.872C38.9441 78.9414 39.043 78.973 39.1229 79.0277C39.1881 79.0361 39.2534 79.0529 39.3165 79.0719C39.4406 79.1076 39.5437 79.0529 39.529 78.9414C39.5164 78.8509 39.4722 78.7647 39.4638 78.6742C39.4512 78.5416 39.5248 78.6132 39.5816 78.6321C39.6426 78.6552 39.7058 78.67 39.771 78.6889C39.6447 78.5037 39.5879 78.3123 39.7079 78.1019C39.7184 78.085 39.7457 78.0619 39.7626 78.0661C39.7962 78.0703 39.853 78.0829 39.8594 78.1061C39.8951 78.2386 39.9309 78.3733 39.9477 78.5101C39.9625 78.63 39.853 78.651 39.771 78.6889ZM82.361 41.9694C82.462 42.0725 82.5546 42.1672 82.6493 42.2745C82.6998 42.3355 82.6956 42.4134 82.6283 42.4618C82.5967 42.4849 82.5399 42.4913 82.4999 42.4828C82.3505 42.4492 82.2453 42.3608 82.159 42.2324C82.1064 42.1525 82.0538 42.1946 82.0433 42.2829C82.0349 42.3419 82.058 42.4471 81.9381 42.3839C81.875 42.3503 81.8224 42.2956 81.7677 42.2493C81.6204 42.123 81.6288 41.82 81.7887 41.6833C81.814 41.6622 81.8897 41.6622 81.9192 41.6833C81.9949 41.738 82.0686 41.8032 82.1275 41.8747C82.1948 41.9589 82.2558 41.9968 82.361 41.9694C82.2664 41.7485 82.138 41.5696 81.9549 41.4139C81.9044 41.3718 81.9023 41.2898 81.9613 41.2288C82.0012 41.1888 82.0412 41.1888 82.0896 41.2203C82.1464 41.254 82.2348 41.3171 82.2621 41.2982C82.3526 41.2372 82.462 41.0899 82.462 41.3235C82.462 41.5276 82.521 41.6875 82.603 41.86C82.6577 41.9757 82.542 41.9358 82.4852 41.9442C82.441 41.9505 82.4073 41.9631 82.361 41.9694ZM11.203 71.417C11.2577 71.5011 11.2871 71.6 11.2261 71.6821C11.1062 71.842 11.062 72.0251 11.0052 72.2081C10.8621 72.6626 10.6832 73.1045 10.5107 73.5485C10.4181 73.7841 10.2519 73.8683 10.0815 73.9861C10.1046 74.0282 10.1425 74.0703 10.1404 74.1124C10.132 74.3228 10.1109 74.5332 10.0941 74.7436C10.0562 74.7352 10.0078 74.7373 9.98257 74.7142C9.87105 74.6132 9.82055 74.6679 9.78057 74.7794C9.74269 74.8762 9.72586 74.9856 9.82055 75.0382C9.93838 75.1055 10.0036 75.1687 9.96152 75.3118C9.91944 75.4485 9.86894 75.5895 9.86052 75.7305C9.85421 75.842 9.82055 75.9177 9.73217 75.9661C9.51755 76.0777 9.30082 76.1829 9.08409 76.286C9.02728 76.3133 9.00203 76.2797 9.01045 76.2102C9.02939 76.0671 9.10303 75.8967 9.05043 75.7894C8.94732 75.579 9.18509 75.5811 9.19982 75.4633C9.22297 75.2802 9.11355 75.0677 9.30293 74.9246C9.49019 74.7815 9.43128 74.5353 9.57857 74.3565C9.72796 74.1776 9.87315 74.0598 10.0815 73.9861C9.97204 73.9356 9.87105 73.8915 9.76584 73.8325C9.74059 73.8178 9.71323 73.7442 9.72586 73.7252C9.81002 73.6095 9.88157 73.458 9.99729 73.3991C10.2245 73.2834 9.94679 73.1213 10.0773 72.9804C10.2372 72.8078 10.3171 72.5658 10.4539 72.3702C10.6854 72.0377 10.8958 71.6884 11.203 71.417C11.1651 71.2655 11.2472 71.1582 11.3418 71.0572C11.3524 71.0466 11.3839 71.0466 11.4029 71.0509C11.4134 71.0551 11.426 71.0803 11.4239 71.095C11.4008 71.2381 11.3503 71.3602 11.203 71.417ZM85.3868 39.5581C85.2606 39.6212 85.1448 39.7474 84.9933 39.6654C84.8503 39.5875 84.6798 39.5181 84.6314 39.3329C84.6209 39.2951 84.6335 39.2509 84.6398 39.2109C84.6398 39.2109 84.6882 39.2067 84.7093 39.2151C84.8166 39.2593 84.9239 39.3077 85.0312 39.354C85.2753 39.0994 85.269 39.4045 85.3531 39.5013C85.3679 39.5181 85.3763 39.5349 85.3868 39.5581C85.431 39.5581 85.492 39.5454 85.5131 39.5665C85.6835 39.7432 85.9612 39.7559 86.1064 39.9747C86.1885 40.0967 86.3316 40.1304 86.481 40.1557C86.6977 40.1914 86.9944 40.3555 87.169 40.4902C87.2847 40.5765 87.3942 40.6712 87.5162 40.749C88.1937 41.1741 88.8713 41.5928 89.5509 42.0157C89.5909 42.041 89.633 42.0683 89.6603 42.1041C89.7087 42.1672 89.7066 42.2367 89.6645 42.3061C89.6183 42.3818 89.5488 42.3966 89.4983 42.3334C89.391 42.1925 89.2669 42.0978 89.088 42.0599C88.9723 42.0368 88.8587 41.9778 88.7661 41.9063C88.6272 41.799 88.5472 41.8516 88.4799 41.9736C88.4483 42.0304 88.4126 42.0599 88.3747 42.0283C88.1748 41.86 87.8676 41.8263 87.7519 41.5528C87.6782 41.3761 87.5372 41.3971 87.39 41.4013C87.2616 41.4055 87.1627 41.3718 87.1795 41.1951C87.1859 41.1172 87.0365 41.0857 87.0407 40.9678C87.0491 40.7701 86.9397 40.749 86.7608 40.7574C86.5988 40.7659 86.422 40.829 86.2663 40.7196C86.0686 40.5828 85.8665 40.4502 85.6772 40.3008C85.633 40.2672 85.6077 40.1746 85.6141 40.1136C85.633 39.9663 85.532 39.9074 85.452 39.8169C85.3994 39.7559 85.4057 39.6486 85.3868 39.5581ZM9.39972 77.4959C9.5933 77.4117 9.82055 77.3507 10.0225 77.2076C10.153 77.1171 10.3802 77.2918 10.3824 77.458C10.3845 77.5064 10.3845 77.5548 10.3781 77.6011C10.3592 77.7862 10.1719 77.9125 10.2435 78.1418C10.3382 78.4554 9.95942 78.407 9.85211 78.5753C9.81634 78.63 9.80792 78.7036 9.78688 78.7689C9.75111 78.8825 9.71955 78.9982 9.67326 79.1076C9.66484 79.1308 9.5933 79.1329 9.55121 79.135C9.53228 79.135 9.51124 79.1097 9.4923 79.095C9.35763 78.9982 9.25874 79.0172 9.1893 79.156C9.15774 79.2213 9.11986 79.2844 9.09251 79.3517C9.06726 79.419 9.03149 79.438 8.98941 79.3854C8.89262 79.2633 8.66537 79.2507 8.69272 79.0172C8.70324 78.9246 8.65485 78.8278 8.64222 78.7331C8.63801 78.7036 8.66116 78.6679 8.67168 78.6342C8.70956 78.6637 8.74743 78.7163 8.78741 78.7163C8.85264 78.7205 8.92418 78.7015 8.98099 78.67C9.00203 78.6595 9.00203 78.5753 8.9852 78.5374C8.9368 78.4301 8.89051 78.3165 8.7327 78.3165C8.63801 78.3165 8.54122 78.2891 8.45075 78.2576C8.41287 78.2449 8.3771 78.1986 8.35816 78.1587C8.33502 78.1019 8.39814 78.0976 8.4297 78.064C8.5791 77.9104 8.81266 77.9104 8.95574 77.782C9.08409 77.6642 9.21455 77.5695 9.39972 77.4959ZM55.6678 34.8869C55.6299 34.9142 55.5858 34.9374 55.5542 34.971C55.5142 35.0152 55.5353 35.0447 55.6068 35.051C55.6552 35.0552 55.7415 35.0573 55.7436 35.0678C55.752 35.133 55.7667 35.2362 55.7309 35.2635C55.4911 35.4508 55.3206 35.7433 54.9861 35.7916C54.8809 35.8085 54.7967 35.8506 54.7609 35.9453C54.641 36.2735 54.3422 36.3934 54.0729 36.5491C54.0161 36.5807 53.9382 36.5849 53.8688 36.5849C53.61 36.5891 53.6121 36.587 53.5532 36.8016C53.5363 36.8669 53.509 36.9426 53.4606 36.9805C53.4122 37.0205 53.3196 37.0541 53.267 37.0352C53.1807 37.0036 53.086 36.9447 53.0418 36.869C52.9703 36.7469 53.1176 36.7301 53.1786 36.6838C53.5763 36.3745 53.9361 36.0231 54.3317 35.7117C54.9903 35.192 55.5963 34.6049 56.3285 34.1799C56.4085 34.1336 56.4611 34.0431 56.5368 33.9863C56.5642 33.9652 56.6357 33.9652 56.661 33.9863C56.6904 34.0073 56.7094 34.0768 56.6946 34.1083C56.6189 34.2661 56.5179 34.3798 56.3222 34.4092C56.1897 34.4303 55.9792 34.4492 55.9666 34.6049C55.9456 34.8195 55.8425 34.8721 55.6678 34.8869ZM66.0202 95.1265C65.9866 95.1623 65.9592 95.2107 65.9192 95.2296C65.8877 95.2464 65.8182 95.2401 65.8056 95.2212C65.7888 95.1875 65.7825 95.1202 65.8035 95.095C65.8793 95.0003 65.9908 94.9308 66.0455 94.8298C66.0855 94.7562 66.0918 94.6257 66.0518 94.5563C65.9908 94.4553 65.8582 94.3901 65.7509 94.4953C65.6436 94.6005 65.5258 94.5437 65.4121 94.5647C65.3364 94.5794 65.3153 94.5374 65.3743 94.5037C65.5384 94.409 65.591 94.2638 65.5868 94.085C65.7951 94.2701 65.9276 93.8788 66.0665 93.9987C66.2643 94.167 66.4074 94.0955 66.5799 93.9966C66.6136 93.9776 66.6683 93.9924 66.7146 93.9924C66.6872 94.0303 66.6641 94.0744 66.6304 94.1039C66.5421 94.1818 66.3948 94.1839 66.3548 94.3206C66.3506 94.3396 66.3506 94.3711 66.3632 94.3837C66.3948 94.4153 66.4305 94.4595 66.4684 94.4637C66.5715 94.4742 66.6578 94.4195 66.7167 94.3417C66.8387 94.1754 67.0113 94.0976 67.1986 94.0387C67.3606 93.9903 67.5142 94.0744 67.5731 94.2933C67.6257 94.4826 67.4679 94.4616 67.35 94.4553C67.2385 94.449 67.1691 94.51 67.1165 94.5942C67.0365 94.7246 66.8913 94.6405 66.7925 94.6994C66.7083 94.7478 66.5778 94.7793 66.5505 94.8509C66.4579 95.0823 66.2748 95.0865 66.0791 95.0886C66.0581 95.0907 66.0392 95.1139 66.0202 95.1265ZM39.2933 54.2177C39.1755 54.4049 38.9882 54.3965 38.8325 54.4533C38.6979 54.5017 38.5611 54.548 38.4243 54.5943C38.4391 54.4113 38.6158 54.3565 38.7147 54.2429C39.0282 53.8747 39.4238 53.5906 39.8025 53.2918C39.8551 53.2519 39.9372 53.2498 40.0067 53.2287C39.9856 53.2918 39.9562 53.355 39.9477 53.4202C39.933 53.5296 39.9772 53.6033 40.1034 53.6054C40.1392 53.6054 40.175 53.6264 40.2129 53.6369C40.0024 53.7884 39.9414 54.1104 39.6216 54.1356C39.5038 54.144 39.3901 54.1924 39.2933 54.2177ZM87.6088 38.5249C87.6866 38.6343 87.6214 38.6785 87.5793 38.7354C87.4173 38.9458 87.1732 38.8174 86.9733 38.8847C86.8387 38.931 86.7566 38.8511 86.6914 38.6575C86.6093 38.4239 86.5251 38.2177 86.22 38.1988C86.1191 38.1904 86.0181 38.0789 85.9276 38.0031C85.8981 37.98 85.8876 37.9189 85.8918 37.8769C85.8918 37.86 85.9612 37.839 85.9991 37.8411C86.2116 37.8495 86.4347 37.8222 86.5714 38.0494C86.6051 38.102 86.6851 38.163 86.7398 38.1588C87.0533 38.1357 87.2595 38.3861 87.5372 38.4534C87.5751 38.4639 87.6004 38.5186 87.6088 38.5249ZM38.3044 51.0993C38.1613 51.1624 38.0856 51.1814 38.0309 51.2235C37.8688 51.3455 37.7194 51.3139 37.5616 51.2151C37.4606 51.1519 37.3491 51.1056 37.2418 51.0509C37.1303 50.9941 37.0146 50.9668 36.8925 51.011C36.7473 51.0657 36.6716 51.0215 36.6653 50.8658C36.5516 50.8531 36.4359 50.8468 36.3223 50.8258C36.2928 50.8195 36.2697 50.7648 36.2529 50.729C36.2486 50.7206 36.276 50.6827 36.2928 50.6806C37.0188 50.6343 37.7321 50.7585 38.4433 50.8826C38.4643 50.8868 38.498 50.9036 38.5022 50.9205C38.5064 50.9373 38.4875 50.9689 38.4685 50.9815C38.3928 51.0383 38.3128 51.093 38.3044 51.0993ZM78.7903 84.1113C78.9102 84.0419 78.9713 84.0377 79.1312 84.0839C79.1964 84.1029 79.2174 84.1323 79.188 84.1765C79.0575 84.3785 78.9144 84.5679 78.6767 84.6584C78.4894 84.7278 78.3569 84.8583 78.2601 85.0308C78.2138 85.1129 78.1528 85.1907 78.0833 85.2539C78.0055 85.3275 77.9045 85.3044 77.8119 85.2812C77.7151 85.2581 77.6983 85.1802 77.7572 85.0561C77.8392 84.8793 77.936 84.7257 78.1254 84.6352C78.2327 84.5847 78.3253 84.5069 78.4515 84.5027C78.6556 84.4964 78.5189 84.2439 78.6725 84.1934C78.7146 84.1786 78.7503 84.1408 78.7903 84.1113ZM146.552 41.2561C147.095 41.052 147.478 40.9047 147.861 40.7637C147.893 40.7532 147.933 40.7743 147.97 40.7806C147.962 40.8037 147.96 40.8353 147.945 40.8479C147.745 41.0162 147.602 41.2751 147.316 41.3108C147.015 41.3466 146.767 41.5002 146.5 41.6096C146.378 41.6601 146.19 41.8158 146.119 41.6769C146.001 41.4518 146.281 41.5339 146.365 41.456C146.472 41.355 146.569 41.2498 146.552 41.2561ZM9.65642 76.5427C9.86894 76.368 10.153 76.3133 10.416 76.2081C10.5759 76.1429 10.5654 76.246 10.6012 76.3154C10.6622 76.4291 10.578 76.4943 10.4981 76.549C10.4644 76.5742 10.4076 76.5932 10.3697 76.5848C9.88577 76.469 9.52807 76.6479 9.24822 77.0372C9.21034 77.0877 9.12618 77.1066 9.06095 77.1361C9.04201 77.1445 9.01045 77.1403 8.99151 77.1276C8.98099 77.1234 8.98099 77.0855 8.99151 77.0687C9.03359 76.9846 9.06095 76.873 9.13038 76.8267C9.2882 76.7173 9.46915 76.6416 9.65642 76.5427ZM83.6341 37.4813C83.7014 37.6117 83.754 37.6938 83.7877 37.7843C83.7982 37.8179 83.775 37.8811 83.7456 37.9063C83.714 37.9295 83.6425 37.9442 83.6172 37.9253C83.27 37.6517 82.9965 37.3214 82.8492 36.8984C82.8408 36.8753 82.8492 36.85 82.8492 36.8248C82.885 36.8353 82.9355 36.8332 82.9544 36.8563C83.0323 36.9468 83.087 37.0668 83.2195 37.0899C83.472 37.1341 83.573 37.3193 83.6341 37.4813ZM83.0323 37.8769C83.0786 37.8811 83.1417 37.8663 83.1648 37.8916C83.31 38.0494 83.4783 38.182 83.5941 38.3734C83.7624 38.647 83.7771 38.6491 84.1475 38.7438C84.28 38.7774 84.2085 38.8448 84.2085 38.8974C84.2085 38.931 84.1559 38.9942 84.1454 38.9921C83.977 38.9416 83.735 39.0573 83.674 38.769C83.6425 38.6238 83.5352 38.527 83.4152 38.4345C83.2469 38.304 83.1059 38.1399 82.9607 37.9842C82.8955 37.9147 82.9565 38.0115 82.9797 37.9189C82.9839 37.9021 83.0133 37.8916 83.0323 37.8769ZM38.9651 54.7016C38.9651 54.7016 39.6973 54.3229 40.0635 54.1356C40.0845 54.1251 40.1266 54.1588 40.1603 54.1735C40.1476 54.1945 40.1413 54.2198 40.1266 54.2366C39.9035 54.4639 39.5311 54.4575 39.3438 54.7479C39.3186 54.7858 39.2029 54.7542 39.1439 54.7837C38.7778 54.9667 38.3738 55.0825 38.0835 55.396C38.0477 55.4339 38.0161 55.4233 37.9656 55.3918C37.9193 55.3602 37.932 55.2403 37.9951 55.2045C38.0161 55.194 38.6642 54.8594 38.9651 54.7016ZM25.0041 71.2823C25.2166 71.1708 25.427 71.0572 25.6416 70.952C25.6627 70.9393 25.7048 70.9688 25.7363 70.9772C25.7237 70.9983 25.7153 71.0277 25.6963 71.0361C25.4901 71.154 25.2587 71.2423 25.0777 71.3917C24.882 71.5516 24.7347 71.7684 24.5622 71.9577C24.4991 72.0314 24.4002 71.9872 24.3476 71.8736C24.3055 71.781 24.2739 71.6779 24.3728 71.619C24.5769 71.4969 24.7937 71.3938 25.0041 71.2823ZM85.2458 41.9505C85.1953 41.9252 85.1701 41.8705 85.2311 41.8053C85.2921 41.7422 85.3679 41.7674 85.4331 41.8011C85.4878 41.8306 85.5404 41.8411 85.553 41.9421C85.5804 42.184 85.6561 42.4155 85.9739 42.4239C86.1043 42.4281 86.1169 42.5354 86.1043 42.6343C86.0749 42.8511 85.9234 42.9121 85.7487 42.7858C85.5636 42.6554 85.4121 42.5123 85.4436 42.2556C85.4583 42.1251 85.3847 42.0262 85.2458 41.9505ZM74.5652 88.2481C74.622 88.2081 74.643 88.1176 74.7356 88.145C74.7819 88.1576 74.8366 88.166 74.8682 88.1955C74.8913 88.2186 74.8913 88.2754 74.8829 88.3133C74.8724 88.3575 74.8513 88.408 74.8198 88.4416C74.5736 88.7004 74.3232 88.9572 74.0686 89.2096C74.0433 89.237 73.9823 89.2265 73.9381 89.2349C73.9466 89.197 73.9508 89.1592 73.9655 89.1234C74.0833 88.8225 74.441 88.6542 74.4347 88.2796C74.4347 88.2691 74.521 88.2586 74.5652 88.2481ZM152.888 41.7274C152.985 41.6517 153.214 41.5844 153.467 41.6033C153.538 41.6096 153.616 41.6159 153.637 41.7043C153.656 41.7864 153.612 41.8327 153.544 41.8705C153.252 42.0347 152.936 42.0094 152.621 41.9905C152.598 41.9884 152.574 41.9736 152.551 41.9652C152.566 41.9442 152.572 41.9168 152.591 41.9063C152.65 41.8663 152.713 41.8306 152.888 41.7274ZM23.3607 72.145C23.4912 72.0966 23.6301 72.0608 23.7542 71.9956C23.9183 71.9093 24.0256 72.0377 24.1561 72.0756C24.1708 72.0798 24.1919 72.105 24.1898 72.1156C24.1835 72.1366 24.1666 72.1682 24.1498 72.1703C23.8215 72.2292 23.4849 72.2713 23.2913 72.6079C23.2829 72.6248 23.1566 72.5932 23.0998 72.5574C23.022 72.5111 23.0598 72.4333 23.0851 72.3681C23.1356 72.2439 23.2618 72.2102 23.3607 72.145ZM37.7363 82.8804C37.6353 82.9204 37.5911 82.9372 37.5469 82.954C37.4796 82.9835 37.4501 82.9603 37.469 82.8888C37.4817 82.8425 37.5048 82.7625 37.5259 82.7625C37.7405 82.7499 37.8899 82.67 37.9256 82.4385C37.9425 82.3354 38.0203 82.2765 38.1066 82.2239C38.2055 82.1629 38.2939 82.0724 38.4264 82.1397C38.5001 82.1755 38.4517 82.3459 38.3065 82.4217C38.0687 82.5479 37.9488 82.8215 37.7363 82.8804ZM88.9786 78.6068C89.2121 78.4827 89.4436 78.3544 89.6814 78.2365C89.7045 78.2239 89.7487 78.2512 89.7824 78.2618C89.774 78.2828 89.7697 78.306 89.7592 78.327C89.6498 78.5101 89.4646 78.6363 89.2837 78.6595C89.0838 78.6868 88.9239 78.7815 88.7471 78.8467C88.6167 78.8972 88.5199 79.0298 88.3579 79.0108C88.4105 78.8194 88.6146 78.8509 88.7345 78.7583C88.8082 78.6994 88.8965 78.6552 88.9786 78.6068ZM71.7772 30.727C71.7982 30.7185 71.8193 30.7038 71.8403 30.7038C72.2759 30.7459 72.6693 30.9353 73.0818 31.0594C73.0923 31.0636 73.1049 31.0952 73.1007 31.1078C73.0944 31.1268 73.0733 31.152 73.0586 31.152C72.9871 31.1541 72.9134 31.1646 72.8461 31.1457C72.501 31.0447 72.1559 30.9353 71.8129 30.8301C71.7898 30.8217 71.7709 30.8069 71.7498 30.7922C71.7162 30.7712 71.7246 30.748 71.7772 30.727ZM25.1156 52.7974C25.1156 52.8163 25.1198 52.8373 25.1135 52.8521C25.103 52.871 25.0861 52.8984 25.0693 52.9026C24.72 52.9952 24.3686 53.0015 24.0172 52.9278C24.0046 52.9257 23.9857 52.8984 23.9899 52.8857C23.9941 52.8647 24.0067 52.8352 24.0256 52.8268C24.0909 52.7974 24.1708 52.7385 24.2234 52.7553C24.5033 52.8458 24.7789 52.7469 25.0546 52.7616C25.0756 52.7637 25.0967 52.7847 25.1156 52.7974ZM144.301 42.3166C144.49 42.2156 144.677 42.1125 144.871 42.0157C144.909 41.9989 144.957 42.0031 145.002 41.9989C144.972 42.0347 144.947 42.0809 144.909 42.102C144.539 42.3166 144.145 42.487 143.838 42.7985C143.813 42.8216 143.747 42.8111 143.703 42.8027C143.657 42.7942 143.676 42.6491 143.731 42.6175C143.92 42.5165 144.109 42.4155 144.301 42.3166ZM108.985 14.8659C109.004 14.8869 109.021 14.9059 109.033 14.9248C109.044 14.9459 109.054 14.969 109.054 14.9921C109.054 15.0384 109.018 15.0468 108.955 15.0279C108.678 14.948 108.676 14.9459 108.663 14.6008C108.657 14.485 108.579 14.525 108.511 14.5313C108.446 14.5355 108.412 14.4935 108.444 14.464C108.495 14.4177 108.558 14.3819 108.621 14.3462C108.718 14.2915 108.808 14.3293 108.886 14.3904C108.976 14.4598 108.993 14.5461 108.92 14.6386C108.833 14.7502 108.909 14.8091 108.985 14.8659ZM80.1706 83.4043C80.2969 83.337 80.4231 83.2654 80.5536 83.2044C80.5809 83.1918 80.6251 83.2149 80.6609 83.2191C80.6441 83.2381 80.6335 83.2612 80.6146 83.276C80.2653 83.52 79.8424 83.6568 79.552 83.9914C79.5268 84.0208 79.4636 84.0124 79.4173 84.0229C79.4426 83.985 79.4699 83.9493 79.4931 83.9114C79.6509 83.6526 79.9013 83.5158 80.1706 83.4043ZM26.7316 93.4348C26.7526 93.5274 26.7989 93.641 26.7779 93.6557C26.679 93.723 26.6306 93.6031 26.5654 93.561C26.2918 93.3822 26.2687 93.1002 26.2855 92.8098C26.2855 92.7972 26.3065 92.7741 26.3129 92.7762C26.3339 92.7846 26.3676 92.7951 26.3718 92.812C26.4328 93.0602 26.5632 93.2707 26.7316 93.4348ZM89.856 40.8963C89.8518 40.9195 89.856 40.9489 89.8413 40.9636C89.8329 40.9742 89.795 40.9679 89.7782 40.9552C89.5341 40.8079 89.29 40.6606 89.0522 40.507C89.0228 40.4881 89.0207 40.4271 89.0059 40.3871C89.0438 40.3808 89.0859 40.3577 89.1175 40.3703C89.3931 40.4629 89.5972 40.667 89.8266 40.8353C89.8413 40.8458 89.8455 40.8753 89.856 40.8963ZM84.9765 37.0457C84.9996 37.0562 85.0228 37.0647 85.0417 37.0773C85.2669 37.2183 85.492 37.355 85.7087 37.5023C85.7277 37.5149 85.7214 37.6075 85.6961 37.637C85.633 37.7106 85.7361 37.7464 85.6561 37.6938C85.4226 37.536 85.1364 37.4413 84.9891 37.172C84.9786 37.153 84.9702 37.1299 84.9681 37.1067C84.966 37.0878 84.9723 37.0668 84.9765 37.0457ZM84.1959 37.8748C84.2106 37.7338 84.2485 37.8116 84.2905 37.8558C84.4399 38.0094 84.4505 38.1988 84.4357 38.3987C84.4294 38.466 84.4105 38.4997 84.3768 38.4723C84.2506 38.3671 84.1243 38.2577 84.0086 38.142C83.9897 38.1251 84.0107 38.0326 84.0233 38.0305C84.1201 38.0157 84.2253 38.0178 84.1959 37.8748ZM84.684 41.1909C84.6903 41.2856 84.7009 41.3782 84.6987 41.4728C84.6987 41.5212 84.6482 41.5444 84.5956 41.5128C84.4357 41.4118 84.2779 41.3108 84.1306 41.1951C84.0822 41.1593 84.0696 41.0773 84.0444 41.0141C84.0402 40.9994 84.057 40.9763 84.0654 40.9573C84.1201 40.9952 84.1748 41.0352 84.2295 41.0731C84.3305 41.1467 84.4441 41.1614 84.5662 41.153C84.6041 41.1509 84.644 41.1783 84.684 41.1909ZM82.2748 40.0547C82.0707 39.8463 82.2159 39.6149 82.0686 39.4634C82.0623 39.455 82.077 39.415 82.0896 39.3982C82.0959 39.3918 82.1359 39.4003 82.1485 39.415C82.2685 39.5497 82.3169 39.7517 82.5125 39.8211C82.4789 39.9032 82.4599 40.002 82.4031 40.0631C82.3737 40.0925 82.2706 40.0547 82.2748 40.0547ZM81.9528 37.0878C81.997 37.0941 82.0538 37.0857 82.0812 37.1088C82.2201 37.2351 82.2516 37.4455 82.4431 37.5402C82.521 37.5781 82.4515 37.5086 82.4305 37.6033C82.4284 37.618 82.3884 37.6391 82.3758 37.6349C82.159 37.5444 81.9402 37.456 81.8834 37.1888C81.8687 37.1278 81.8918 37.0941 81.9528 37.0878ZM32.8336 53.6201C32.9935 53.4833 33.2355 53.4791 33.4754 53.4686C33.5469 53.4665 33.6143 53.4454 33.6837 53.4307C33.6143 53.4896 33.5511 53.5759 33.4691 53.6033C33.246 53.6811 32.9977 53.679 32.781 53.7968C32.7663 53.8053 32.7221 53.7653 32.6947 53.7442C32.6926 53.74 32.7137 53.7 32.7305 53.6832C32.7452 53.6664 32.7705 53.658 32.8336 53.6201ZM85.3994 38.4239C85.4415 38.4113 85.5067 38.3755 85.5257 38.3924C85.6709 38.5123 85.8097 38.6428 85.9423 38.7774C85.9591 38.7943 85.936 38.8532 85.9192 38.889C85.915 38.8995 85.8666 38.9079 85.8518 38.8974C85.6982 38.7859 85.5446 38.6743 85.3994 38.5523C85.3784 38.5355 85.3973 38.4681 85.3994 38.4239ZM87.8255 44.5744C87.8445 44.5638 87.8655 44.547 87.8865 44.5428C88.0696 44.5175 88.1706 44.6249 88.1622 44.829C88.1559 44.9636 88.1264 44.972 87.996 44.9384C87.8613 44.9047 87.794 44.8227 87.775 44.6964C87.7687 44.6606 87.8066 44.6185 87.8255 44.5744ZM58.3948 94.1628C58.4411 94.1565 58.4958 94.1291 58.5274 94.1481C58.6305 94.2007 58.723 94.2722 58.8177 94.3354C58.9019 94.3922 58.9482 94.47 58.9566 94.5689C58.9629 94.651 58.7904 94.6299 58.6683 94.5226C58.5631 94.4321 58.4684 94.3311 58.3738 94.2301C58.3674 94.2217 58.3885 94.186 58.3948 94.1628ZM64.2212 77.439C64.2422 77.4285 64.2633 77.4138 64.2843 77.4075C64.3243 77.397 64.3643 77.3928 64.4021 77.3843C64.3937 77.4075 64.3916 77.4369 64.3748 77.4496C64.2717 77.5295 64.2759 77.6579 64.2275 77.7631C64.198 77.8325 64.1328 77.8746 64.076 77.8052C64.036 77.7589 64.0087 77.6768 64.0192 77.6158C64.0339 77.5127 64.137 77.479 64.2212 77.439ZM77.2332 85.5C77.3658 85.4895 77.4963 85.3927 77.6288 85.4895C77.6478 85.5021 77.6583 85.5295 77.6604 85.5526C77.6646 85.5758 77.6541 85.62 77.6541 85.62C77.4731 85.6116 77.3469 85.6957 77.2585 85.8451C77.2227 85.8178 77.168 85.7967 77.1554 85.7631C77.1217 85.6621 77.1806 85.58 77.2332 85.5ZM68.4758 31.5497C68.4148 31.434 68.4295 31.455 68.4358 31.476C68.4547 31.5434 68.5073 31.6339 68.4821 31.6738C68.4232 31.7685 68.3264 31.7096 68.2422 31.6801C68.0339 31.6023 68.0318 31.6023 68.1791 31.4361C68.3222 31.2761 68.3264 31.2761 68.4758 31.5497ZM38.0056 52.3239C37.8078 52.547 38.1108 52.6922 37.9593 52.8794C37.9467 52.8942 37.9214 52.9047 37.9004 52.9068C37.8794 52.9089 37.8541 52.9026 37.831 52.8984C37.8625 52.7174 37.8162 52.5764 37.6311 52.5091C37.6563 52.4733 37.6753 52.4249 37.711 52.4081C37.772 52.3786 37.8415 52.3681 38.0056 52.3239ZM110.041 15.474C109.984 15.312 109.841 15.2152 109.881 15.0511C109.89 15.0174 109.955 14.9648 109.974 14.9711C110.062 15.0069 110.045 14.8954 110.039 14.9837C110.024 15.2194 110.142 15.4024 110.233 15.5981C110.243 15.6192 110.245 15.6444 110.245 15.6676C110.247 15.6886 110.243 15.7097 110.241 15.7328C110.22 15.7181 110.195 15.7097 110.182 15.6907C110.127 15.6129 110.077 15.5308 110.041 15.474ZM85.2479 44.2566C85.3468 44.2251 85.5236 44.284 85.5362 44.3661C85.553 44.4628 85.511 44.5491 85.431 44.608C85.351 44.6669 85.2311 44.587 85.1806 44.4334C85.1596 44.3682 85.1617 44.2966 85.2479 44.2566ZM81.2248 36.7638C81.2017 36.728 81.1827 36.6817 81.1491 36.6586C81.0964 36.6228 81.0775 36.587 81.1238 36.5491C81.1554 36.5218 81.2101 36.4902 81.2374 36.5007C81.3447 36.5407 81.4058 36.6691 81.5467 36.6438C81.6099 36.6312 81.6414 36.6628 81.6267 36.7027C81.6183 36.7238 81.6035 36.7469 81.5867 36.7574C81.5257 36.7932 81.4605 36.8227 81.3973 36.8585C81.2858 36.9237 81.2269 36.8963 81.2248 36.7638ZM35.0303 51.0572C35.0198 51.0131 35.0072 50.9689 34.9967 50.9247C35.0345 50.9163 35.0787 50.891 35.1145 50.9015C35.245 50.9415 35.3923 50.952 35.4827 51.0804C35.4933 51.0951 35.4996 51.1225 35.4954 51.1414C35.4933 51.1603 35.4764 51.194 35.4659 51.194C35.3081 51.194 35.1292 51.2487 35.0303 51.0572ZM27.1966 93.3338C27.2155 93.3885 27.2492 93.4537 27.2576 93.521C27.2681 93.5926 27.2366 93.662 27.1608 93.6852C27.0872 93.7062 27.0304 93.6831 26.9904 93.6115C26.9294 93.5021 26.9294 93.3843 26.9567 93.2686C26.9651 93.2349 27.0093 93.2054 27.043 93.1823C27.0535 93.176 27.0893 93.197 27.104 93.2117C27.1356 93.2475 27.1608 93.2854 27.1966 93.3338ZM89.835 42.9121C89.8497 42.9016 89.8665 42.8805 89.8792 42.8826C90.1064 42.9121 90.2327 43.1036 90.4073 43.2193C90.4199 43.2256 90.4157 43.2635 90.4094 43.2845C90.4073 43.295 90.3821 43.3077 90.3694 43.3056C90.1464 43.2698 89.9949 43.1141 89.8329 42.9773C89.8224 42.9689 89.8329 42.9352 89.835 42.9121ZM33.3618 54.3523C33.2944 54.3565 33.2229 54.365 33.1534 54.3629C33.0987 54.3629 33.0524 54.2324 33.0945 54.1924C33.145 54.1461 33.1997 54.0935 33.265 54.0704C33.3554 54.0409 33.509 54.1651 33.5154 54.2703C33.5259 54.407 33.4144 54.3187 33.3618 54.3523ZM122.815 53.235C122.929 53.2035 123.043 53.1698 123.156 53.1425C123.169 53.1403 123.194 53.1719 123.203 53.1929C123.211 53.2098 123.209 53.2498 123.203 53.2519C122.986 53.3318 122.767 53.4076 122.546 53.4833C122.525 53.4896 122.5 53.4854 122.475 53.4854C122.489 53.4665 122.498 53.4412 122.517 53.4307C122.613 53.3634 122.714 53.3003 122.815 53.235ZM31.5859 54.5943C31.4428 54.6406 31.3649 54.7648 31.2345 54.7269C31.1966 54.7142 31.1503 54.6764 31.1398 54.6406C31.1293 54.6069 31.1545 54.5312 31.1755 54.527C31.3523 54.487 31.529 54.4575 31.7058 54.4281C31.7247 54.4239 31.7479 54.4386 31.7689 54.447C31.7542 54.466 31.7458 54.4912 31.7268 54.5038C31.6721 54.5438 31.6111 54.5775 31.5859 54.5943ZM28.2234 93.7062C28.1498 93.5737 28.2487 93.3212 28.3833 93.2959C28.4023 93.2938 28.4338 93.3085 28.4486 93.3254C28.5538 93.4579 28.4991 93.6936 28.3455 93.7483C28.3139 93.7588 28.2655 93.7209 28.2234 93.7062ZM22.7674 73.2623C22.8978 73.2034 23.0051 73.1508 23.1146 73.1087C23.1398 73.0982 23.1777 73.1171 23.2113 73.1213C23.1966 73.1403 23.184 73.1655 23.1651 73.1739C22.9757 73.2686 22.7863 73.3612 22.5927 73.4433C22.5738 73.4517 22.4959 73.3801 22.5001 73.3696C22.5443 73.2834 22.4265 73.3275 22.5191 73.3023C22.6075 73.2791 22.7 73.2728 22.7674 73.2623ZM24.3897 53.6243C24.4296 53.5991 24.4654 53.5717 24.5075 53.5507C24.598 53.5065 24.6864 53.4959 24.7453 53.6012C24.7558 53.618 24.7642 53.6432 24.76 53.6622C24.7368 53.7842 24.6401 53.7842 24.5454 53.7821C24.4991 53.7821 24.4528 53.7695 24.4086 53.7632C24.3623 53.7569 24.2781 53.759 24.2781 53.7463C24.2655 53.6685 24.3329 53.6474 24.3897 53.6243ZM39.7142 80.0587C39.6553 80.084 39.5921 80.1197 39.5248 80.1324C39.4554 80.1471 39.388 80.1239 39.3712 80.0419C39.3565 79.9661 39.3985 79.9009 39.4701 79.8904C39.5816 79.8735 39.6973 79.8778 39.811 79.8756C39.8257 79.8756 39.853 79.8988 39.853 79.9093C39.853 79.9304 39.8404 79.9577 39.8257 79.9724C39.792 80.004 39.7542 80.0293 39.7142 80.0587ZM27.7837 71.0004C27.8089 70.9898 27.8426 70.9667 27.851 70.9751C27.973 71.0761 28.0951 71.1771 28.2108 71.2886C28.2781 71.356 28.2255 71.2634 28.1834 71.3517C28.1729 71.3707 28.0803 71.3812 28.0572 71.3602C27.9541 71.2697 27.8594 71.1666 27.7668 71.0656C27.7584 71.0572 27.7773 71.0214 27.7837 71.0004ZM27.8068 50.9373C27.8173 50.9626 27.8321 50.9836 27.8321 51.0046C27.8321 51.0236 27.8152 51.0614 27.8089 51.0593C27.649 51.0362 27.4701 51.0614 27.3523 50.9121C27.3397 50.8952 27.3334 50.8679 27.3334 50.8468C27.3334 50.8258 27.3439 50.7858 27.3502 50.7858C27.5164 50.7963 27.6784 50.8258 27.8068 50.9373ZM28.4254 52.1072C28.4338 52.1514 28.4423 52.1935 28.4486 52.2377C28.4065 52.2419 28.3602 52.2587 28.3202 52.2482C28.2339 52.225 28.1498 52.1872 28.0656 52.1514C28.0467 52.143 28.0151 52.1114 28.0172 52.1072C28.0383 52.0693 28.0593 52.0188 28.093 51.9999C28.2529 51.9157 28.316 51.9389 28.4254 52.1072ZM30.8536 53.8705C31.0114 53.7779 31.1692 53.7632 31.3249 53.8684C31.3418 53.881 31.3544 53.9084 31.3586 53.9294C31.3607 53.9525 31.3481 53.9967 31.3418 53.9967C31.1755 54.0052 31.0219 53.8852 30.8494 53.9504C30.841 53.9525 30.8263 53.9357 30.8136 53.9273C30.8284 53.9084 30.841 53.8894 30.8536 53.8705ZM32.356 52.8668C32.3602 52.8437 32.3644 52.7995 32.3644 52.7995C32.5285 52.8121 32.6905 52.8268 32.8525 52.8437C32.8652 52.8458 32.8841 52.8689 32.882 52.8773C32.8757 52.8984 32.8652 52.9236 32.8483 52.9341C32.6947 53.033 32.5432 53.052 32.3981 52.9215C32.3812 52.9068 32.3707 52.8836 32.356 52.8668ZM33.2376 51.3371C33.3302 51.3308 33.4228 51.3308 33.5133 51.3182C33.5806 51.3097 33.6079 51.3287 33.589 51.396C33.5764 51.4381 33.5659 51.5096 33.5385 51.5181C33.4564 51.5454 33.3681 51.5517 33.2797 51.5622C33.2018 51.5707 33.1471 51.5433 33.1682 51.4549C33.1787 51.4128 33.2145 51.3771 33.2376 51.3371ZM37.2902 53.7947C37.3133 53.7947 37.3407 53.7905 37.3596 53.8011C37.3723 53.8074 37.3786 53.8368 37.3765 53.8537C37.3596 54.0304 37.246 54.144 37.0608 54.1735C37.044 54.1777 37.0146 54.1672 37.0061 54.1524C36.9977 54.1335 36.9977 54.1062 37.004 54.083C37.0419 53.9315 37.1534 53.8515 37.2902 53.7947ZM89.0396 42.3734C89.0417 42.3503 89.0417 42.3271 89.0417 42.304C89.0649 42.3103 89.0922 42.3103 89.109 42.3229C89.2374 42.4176 89.4078 42.4639 89.4625 42.6364C89.4773 42.6785 89.4752 42.7248 89.4794 42.769C89.4604 42.7648 89.4352 42.7669 89.4226 42.7543C89.3005 42.6512 89.1806 42.5439 89.0628 42.4365C89.048 42.4218 89.048 42.3945 89.0396 42.3734ZM86.8155 39.4992C86.8134 39.5244 86.8134 39.5497 86.8071 39.5707C86.805 39.577 86.7692 39.5812 86.7587 39.5728C86.603 39.4634 86.4305 39.3687 86.3568 39.1772C86.3484 39.1562 86.3568 39.1288 86.3652 39.1057C86.3673 39.1015 86.4031 39.0994 86.4115 39.1078C86.5462 39.2382 86.7545 39.2929 86.8155 39.4992ZM88.3621 43.1162C88.3642 43.1414 88.3663 43.1646 88.3684 43.1877C88.2106 43.1982 88.0528 43.2929 87.8971 43.1835C87.876 43.1688 87.8529 43.1604 87.8318 43.1477C87.8592 43.112 87.8823 43.0467 87.9097 43.0446C88.0507 43.0383 88.1895 43.0467 88.3305 43.0552C88.3431 43.0573 88.3537 43.0951 88.3621 43.1162ZM63.2112 95.1749C63.2028 95.1938 63.1965 95.217 63.1838 95.2338C63.1712 95.2507 63.1523 95.2654 63.1333 95.278C62.9818 95.3748 62.8114 95.3222 62.6515 95.3411C62.5736 95.3496 62.5589 95.318 62.6094 95.2591C62.6241 95.2422 62.641 95.2275 62.6578 95.2149C62.8093 95.116 62.9818 95.1917 63.1418 95.1623C63.1628 95.1581 63.188 95.1686 63.2112 95.1749ZM72.5662 32.3051C72.703 32.2125 72.8629 32.303 72.8966 32.4608C72.9092 32.5239 72.884 32.5534 72.825 32.5513C72.7556 32.5492 72.6862 32.5555 72.6188 32.5428C72.5831 32.5386 72.5242 32.4987 72.5263 32.4776C72.5284 32.4124 72.5557 32.3493 72.5662 32.3051ZM8.46337 77.3717C8.46127 77.3486 8.44864 77.3212 8.45706 77.3044C8.48862 77.2476 8.51808 77.1823 8.56647 77.1403C8.62118 77.0919 8.69062 77.1066 8.74533 77.1613C8.81476 77.2349 8.76216 77.2875 8.70535 77.3233C8.64854 77.357 8.5812 77.3717 8.51597 77.3907C8.50124 77.3949 8.4802 77.378 8.46337 77.3717ZM85.8013 63.457C85.8476 63.4465 85.9128 63.4212 85.9781 63.4233C86.0054 63.4233 86.037 63.478 86.0559 63.5138C86.0622 63.5264 86.0475 63.5664 86.0328 63.5748C85.976 63.6064 85.915 63.6527 85.8581 63.6506C85.8013 63.6506 85.7466 63.598 85.6898 63.5664C85.7214 63.5348 85.755 63.5033 85.8013 63.457ZM71.0428 30.7354C71.0407 30.6912 71.0239 30.6154 71.0407 30.607C71.1565 30.546 71.2764 30.5691 71.3837 30.6365C71.3963 30.6449 71.3879 30.727 71.3669 30.7417C71.2385 30.8322 71.1396 30.8259 71.0428 30.7354ZM70.8492 91.6126C70.8724 91.6147 70.9061 91.6105 70.9166 91.6231C70.9271 91.6357 70.9187 91.6673 70.9166 91.6883C70.8955 91.844 70.7987 91.9303 70.6557 91.9724C70.6346 91.9787 70.6094 91.9703 70.5883 91.9703C70.5904 91.9535 70.5862 91.9303 70.5968 91.9198C70.6767 91.8125 70.7041 91.6631 70.8492 91.6126ZM70.077 91.4884C70.1023 91.4842 70.1254 91.4821 70.1465 91.48C70.2075 91.4779 70.2243 91.5137 70.178 91.5684C70.0896 91.6736 69.9971 91.7746 69.9003 91.8735C69.8919 91.884 69.8519 91.8756 69.835 91.8609C69.8224 91.8525 69.8245 91.823 69.8266 91.802C69.8477 91.6463 69.9487 91.5537 70.077 91.4884ZM73.9781 32.9111C73.9844 32.9763 73.9907 33.0205 73.995 33.0668C73.9318 33.0584 73.8687 33.0584 73.8077 33.0415C73.734 33.0205 73.6898 32.9616 73.7151 32.8858C73.7256 32.8543 73.7909 32.8122 73.8161 32.8206C73.8792 32.8374 73.9318 32.8837 73.9781 32.9111ZM12.0025 75.6631C12.0615 75.6316 12.0846 75.6084 12.1035 75.6126C12.1477 75.619 12.2003 75.6274 12.2256 75.6547C12.2656 75.701 12.2466 75.7536 12.1961 75.7515C12.0783 75.7473 12.0488 75.8504 11.9794 75.9051C11.9731 75.9093 11.9352 75.8841 11.9226 75.8651C11.91 75.8462 11.8973 75.8104 11.9079 75.7957C11.9415 75.7389 11.9857 75.6863 12.0025 75.6631ZM107.583 10.5398C107.59 10.584 107.596 10.6281 107.602 10.6723C107.562 10.6744 107.514 10.6892 107.48 10.6744C107.424 10.6492 107.365 10.6113 107.327 10.5629C107.306 10.5377 107.31 10.4661 107.333 10.4367C107.377 10.382 107.447 10.3735 107.504 10.4282C107.535 10.4598 107.556 10.5019 107.583 10.5398ZM109.679 15.4256C109.627 15.3246 109.589 15.2636 109.563 15.1983C109.549 15.1563 109.555 15.1079 109.553 15.0616C109.589 15.0784 109.641 15.0889 109.658 15.1184C109.725 15.2404 109.782 15.3709 109.839 15.4992C109.848 15.5182 109.835 15.5455 109.833 15.5687C109.816 15.5645 109.793 15.5666 109.782 15.5561C109.738 15.5034 109.698 15.4466 109.679 15.4256ZM1.82899 49.0352C1.91105 48.9152 1.95103 48.9089 1.99522 48.9489C2.01205 48.9615 2.02678 48.9783 2.0373 48.9973C2.08359 49.0772 2.02889 49.1277 1.97418 49.1635C1.91947 49.1993 1.85214 49.2161 1.79112 49.2414C1.7848 49.2056 1.76376 49.1656 1.77428 49.1383C1.79743 49.0751 1.83741 49.0183 1.82899 49.0352ZM85.9781 41.7737C86.1275 41.7758 86.2558 41.8306 86.3737 41.9147C86.38 41.9189 86.3652 41.961 86.3526 41.9778C86.3379 41.9947 86.3126 42.0094 86.2916 42.0094C86.1696 42.0157 86.0559 41.9968 85.9781 41.8895C85.9654 41.8726 85.957 41.8495 85.957 41.8284C85.957 41.8095 85.9718 41.7906 85.9781 41.7737ZM59.4532 91.863C59.4679 91.8609 59.4869 91.8483 59.4953 91.8525C59.6068 91.9387 59.7183 92.025 59.8256 92.1134C59.8361 92.1218 59.8277 92.1618 59.8193 92.1807C59.813 92.1912 59.7835 92.1975 59.7688 92.1933C59.6131 92.1681 59.5184 92.0671 59.4553 91.9324C59.4469 91.9135 59.4532 91.8882 59.4532 91.863ZM22.1067 72.9867C22.1487 72.9635 22.1908 72.9404 22.235 72.9193C22.2981 72.8857 22.3297 72.9025 22.3234 72.9656C22.3213 72.9888 22.3213 73.014 22.3129 73.0351C22.2855 73.1045 22.2434 73.1592 22.1572 73.1529C22.0856 73.1466 22.0141 73.1508 21.9446 73.1382C21.9068 73.1319 21.9194 73.0898 21.9804 73.0561C22.0204 73.0309 22.0646 73.0098 22.1067 72.9867ZM38.1234 53.3592C38.1845 53.3529 38.2244 53.3487 38.2665 53.3445C38.2581 53.3907 38.2623 53.4433 38.2371 53.4791C38.2013 53.5338 38.1466 53.578 38.0961 53.6201C38.0856 53.6285 38.0414 53.6159 38.033 53.6012C38.0098 53.5675 37.974 53.5086 37.9888 53.4875C38.0245 53.4328 38.0835 53.3928 38.1234 53.3592ZM20.8 62.2892C20.8652 62.2555 20.9262 62.2176 20.9957 62.1924C21.0293 62.1798 21.0735 62.1924 21.1135 62.1945C21.0988 62.2134 21.0862 62.2408 21.0672 62.2513C20.941 62.3228 20.8126 62.3923 20.6822 62.4575C20.6632 62.4659 20.6359 62.4554 20.6106 62.4533C20.6317 62.4196 20.6443 62.3818 20.6716 62.3586C20.7095 62.3271 20.7579 62.3123 20.8 62.2892ZM32.558 54.2829C32.6043 54.2703 32.6926 54.2387 32.7831 54.2261C32.8084 54.2219 32.8757 54.2892 32.8694 54.3018C32.8315 54.3923 32.943 54.346 32.8483 54.3671C32.7116 54.3965 32.5748 54.4197 32.438 54.4428C32.4149 54.447 32.3917 54.4407 32.3686 54.4365C32.3791 54.4176 32.3854 54.3902 32.4023 54.3776C32.438 54.3502 32.4801 54.3292 32.558 54.2829ZM29.993 53.3886C29.8794 53.3865 29.7616 53.4433 29.65 53.3697C29.6311 53.3571 29.6122 53.3339 29.608 53.3129C29.6037 53.2918 29.6164 53.2477 29.6248 53.2477C29.7405 53.2392 29.8562 53.2308 29.972 53.2392C29.9972 53.2413 30.0204 53.3045 30.0372 53.3423C30.0393 53.3487 30.0098 53.3718 29.993 53.3886ZM28.8736 51.4086C28.8694 51.4507 28.882 51.5054 28.8589 51.537C28.8147 51.598 28.7347 51.6148 28.6842 51.558C28.6253 51.4928 28.5433 51.4192 28.5938 51.3161C28.6043 51.295 28.6716 51.295 28.7116 51.2971C28.7831 51.3034 28.8463 51.3308 28.8736 51.4086ZM23.1798 62.1209C23.0935 62.1987 23.0051 62.1671 22.9147 62.1314C22.8494 62.104 22.841 62.0682 22.8957 62.022C23.0283 61.9083 23.1503 61.8957 23.1924 61.9967C23.2071 62.0304 23.1861 62.0809 23.1798 62.1209ZM28.8799 70.0851C28.9409 70.0514 29.002 70.0156 29.0672 69.9904C29.0924 69.9819 29.1303 70.0051 29.1619 70.0135C29.1514 70.0324 29.145 70.0619 29.1282 70.0703C29.0041 70.1355 28.8799 70.2008 28.7537 70.2576C28.7284 70.2702 28.6884 70.2471 28.6569 70.2408C28.6674 70.2197 28.6758 70.1924 28.6926 70.1818C28.7537 70.1461 28.8168 70.1166 28.8799 70.0851ZM39.2471 80.4648C39.3985 80.347 39.4806 80.3659 39.5669 80.5406C39.5858 80.5805 39.5816 80.6289 39.5879 80.6731C39.5669 80.671 39.5416 80.6752 39.529 80.6647C39.4491 80.6037 39.3649 80.5826 39.266 80.5911C39.2008 80.5974 39.1776 80.5637 39.205 80.5216C39.2176 80.5006 39.2323 80.4837 39.2471 80.4648ZM23.7184 53.7947C23.6637 53.8074 23.5964 53.8305 23.5312 53.8305C23.4954 53.8284 23.4449 53.7926 23.4281 53.7569C23.4007 53.7 23.4323 53.6727 23.4912 53.6748C23.5606 53.6748 23.6301 53.6622 23.6974 53.6601C23.7647 53.6601 23.7879 53.6853 23.7647 53.7295C23.7542 53.7484 23.7395 53.7653 23.7184 53.7947ZM26.7589 69.3528C26.7505 69.4054 26.7484 69.4286 26.7442 69.4517C26.6579 69.4307 26.5696 69.4201 26.4875 69.3865C26.4623 69.376 26.4412 69.3065 26.4496 69.2707C26.458 69.2434 26.5254 69.2034 26.5464 69.2139C26.6243 69.2539 26.6958 69.3107 26.7589 69.3528ZM29.3218 54.8552C29.3197 54.8742 29.326 54.8973 29.3176 54.9099C29.2524 55.0004 29.1619 54.9836 29.0756 54.9583C29.0398 54.9478 29.0083 54.9184 28.9788 54.891C28.9746 54.8868 28.9935 54.8447 29.0104 54.8342C29.1219 54.769 29.265 54.7795 29.3218 54.8552ZM29.7552 52.204C29.7573 52.2734 29.7637 52.345 29.7595 52.4144C29.7552 52.4523 29.7342 52.4902 29.7216 52.5301C29.6921 52.4944 29.6479 52.4649 29.6374 52.427C29.6206 52.366 29.6248 52.2987 29.6269 52.2356C29.629 52.2208 29.6606 52.2019 29.6837 52.1956C29.7047 52.1914 29.7279 52.1998 29.7552 52.204ZM38.8052 53.1929C38.841 53.1151 38.8683 53.0036 38.8957 53.0036C38.9967 53.0015 39.0261 53.1004 39.0535 53.1824C39.0724 53.2456 39.043 53.2771 38.984 53.2624C38.9272 53.2456 38.8725 53.2182 38.8052 53.1929ZM38.9209 52.2335C38.9651 52.2145 39.0072 52.1935 39.0535 52.1788C39.0745 52.1724 39.1019 52.183 39.125 52.1851C39.1166 52.2187 39.1187 52.2692 39.0956 52.2819C39.0156 52.3345 38.9272 52.3744 38.8388 52.4144C38.8199 52.4249 38.7926 52.4165 38.7673 52.4144C38.7778 52.3807 38.7778 52.3387 38.801 52.3155C38.8325 52.2819 38.8788 52.2608 38.9209 52.2335ZM39.2029 51.6254C39.2449 51.6169 39.3102 51.5917 39.3754 51.5938C39.3985 51.5959 39.4385 51.6674 39.4343 51.7011C39.4196 51.7958 39.5206 51.7537 39.4259 51.7663C39.3586 51.7769 39.2891 51.7579 39.2197 51.7516C39.1713 51.7453 39.1019 51.8147 39.0787 51.7222C39.0745 51.7053 39.1461 51.6695 39.2029 51.6254ZM63.6657 95.7052C63.611 95.7304 63.6425 95.7115 63.6657 95.7052C63.712 95.6946 63.7541 95.6904 63.8004 95.682C63.773 95.7199 63.752 95.7662 63.7162 95.7893C63.6552 95.8272 63.5857 95.8545 63.5184 95.8756C63.491 95.884 63.4553 95.8693 63.4237 95.8651C63.4384 95.8461 63.449 95.823 63.4679 95.8104C63.51 95.7851 63.5479 95.7683 63.6657 95.7052ZM58.1675 83.0697C58.2412 83.0361 58.2833 83.0108 58.3275 82.9982C58.3695 82.9856 58.4179 82.9856 58.4621 82.9814C58.4348 83.0171 58.4116 83.055 58.3822 83.0887C58.3674 83.1055 58.3422 83.116 58.3233 83.1287C58.3043 83.1413 58.2854 83.1602 58.2643 83.1665C58.197 83.1813 58.1276 83.1918 58.0602 83.2044C58.1023 83.1518 58.1444 83.0992 58.1675 83.0697ZM71.4952 91.1875C71.4258 91.2717 71.3585 91.3559 71.2848 91.4358C71.2806 91.4422 71.2385 91.4253 71.2259 91.4106C71.2112 91.3959 71.2027 91.3664 71.2091 91.3454C71.2343 91.2317 71.369 91.1286 71.4468 91.1518C71.4595 91.156 71.4721 91.1707 71.4952 91.1875ZM73.2332 89.601C73.2543 89.5316 73.2922 89.5211 73.3385 89.5758C73.3974 89.6473 73.4605 89.7252 73.4037 89.8199C73.3911 89.8409 73.3111 89.8409 73.2711 89.8241C73.1449 89.7736 73.1891 89.6852 73.2332 89.601ZM67.0281 76.4627C67.0807 76.4648 67.1502 76.4564 67.2133 76.4711C67.2448 76.4775 67.289 76.528 67.2869 76.5553C67.2848 76.589 67.2406 76.6437 67.2091 76.6458C67.1459 76.65 67.0786 76.6332 67.0155 76.6163C66.9587 76.5995 66.9418 76.5595 66.9671 76.5195C66.9776 76.5006 66.9987 76.4901 67.0281 76.4627ZM69.976 31.7454C69.9655 31.7664 69.9634 31.798 69.9466 31.8064C69.8477 31.8548 69.6688 31.8127 69.6352 31.7349C69.6288 31.7201 69.6478 31.6822 69.6625 31.6759C69.7719 31.6296 69.9339 31.6696 69.976 31.7454ZM79.9308 35.7454C79.916 35.6822 79.9076 35.638 79.8971 35.5939C79.9329 35.6002 79.9707 35.5981 80.0002 35.6149C80.0591 35.6507 80.1138 35.6949 80.1664 35.739C80.2043 35.7706 80.1959 35.8085 80.1454 35.8379C80.1264 35.8485 80.0949 35.8632 80.0801 35.8569C80.0254 35.8211 79.9728 35.7769 79.9308 35.7454ZM109.728 14.5902C109.803 14.5671 109.86 14.586 109.888 14.666C109.911 14.7438 109.885 14.8028 109.805 14.8133C109.728 14.8238 109.681 14.7607 109.667 14.6955C109.658 14.6681 109.704 14.626 109.728 14.5902ZM84.5978 43.9999C84.5578 43.9221 84.5262 43.8821 84.5178 43.8358C84.5115 43.8085 84.5367 43.7727 84.5473 43.739C84.5683 43.7516 84.5893 43.7622 84.6062 43.779C84.623 43.7958 84.6335 43.8169 84.6461 43.8379C84.6588 43.859 84.6756 43.88 84.6819 43.9031C84.7009 43.9705 84.7156 44.0399 84.7324 44.1072C84.6798 44.0652 84.6251 44.021 84.5978 43.9999ZM107.525 12.5534C107.508 12.5113 107.487 12.4672 107.47 12.4251C107.44 12.3535 107.461 12.3304 107.529 12.3556C107.573 12.3725 107.623 12.3788 107.657 12.4082C107.72 12.4609 107.689 12.5303 107.668 12.5934C107.659 12.6145 107.64 12.6313 107.626 12.6481C107.592 12.6166 107.558 12.585 107.525 12.5534ZM86.462 42.8595C86.4578 42.8027 86.4368 42.729 86.4515 42.7206C86.542 42.668 86.6325 42.7017 86.704 42.7648C86.7335 42.7921 86.7524 42.849 86.7461 42.8889C86.744 42.91 86.6767 42.9436 86.6472 42.9373C86.582 42.9226 86.5209 42.8847 86.462 42.8595ZM107.737 13.2836C107.722 13.2436 107.71 13.2226 107.706 13.1994C107.701 13.1531 107.699 13.1068 107.697 13.0605C107.735 13.0858 107.79 13.1026 107.809 13.1363C107.853 13.2183 107.88 13.3088 107.912 13.3972C107.918 13.4182 107.914 13.4435 107.914 13.4687C107.893 13.4582 107.865 13.4519 107.853 13.4351C107.809 13.3825 107.769 13.3236 107.737 13.2836ZM86.7377 42.2914C86.6661 42.3355 86.5967 42.3334 86.5483 42.2766C86.5231 42.2472 86.5125 42.1798 86.5294 42.1504C86.5672 42.0915 86.6388 42.0557 86.7019 42.1146C86.7503 42.1588 86.7777 42.2261 86.7377 42.2914ZM87.4573 42.6722C87.4405 42.7038 87.432 42.729 87.4152 42.7438C87.3984 42.7585 87.371 42.7732 87.35 42.7711C87.2469 42.7564 87.1816 42.6933 87.1522 42.5944C87.1459 42.5733 87.148 42.5481 87.148 42.5249C87.1501 42.4723 87.1837 42.4639 87.2406 42.506C87.3142 42.5586 87.3857 42.6175 87.4573 42.6722ZM87.9055 43.5496C87.8928 43.6001 87.8865 43.6696 87.8718 43.6696C87.8045 43.678 87.7308 43.678 87.6656 43.6612C87.634 43.6527 87.6151 43.6022 87.5899 43.5707C87.6277 43.5454 87.6656 43.4991 87.7014 43.5012C87.7708 43.5012 87.8381 43.5307 87.9055 43.5496ZM85.067 38.1041C85.0985 38.0915 85.1196 38.0768 85.1406 38.0768C85.1995 38.0789 85.2164 38.1146 85.189 38.1735C85.1596 38.2346 85.1301 38.2956 85.0964 38.3524C85.088 38.365 85.0565 38.3713 85.0354 38.3713C84.9807 38.3713 84.9555 38.3356 84.9765 38.2766C85.0017 38.2135 85.0396 38.1567 85.067 38.1041ZM123.533 53.0562C123.64 52.9994 123.701 52.9636 123.766 52.9341C123.788 52.9257 123.815 52.932 123.838 52.9341C123.819 52.9657 123.802 52.9994 123.779 53.0267C123.764 53.0436 123.739 53.052 123.718 53.0625C123.676 53.0835 123.634 53.1109 123.59 53.1256C123.546 53.1403 123.499 53.1425 123.453 53.1509C123.489 53.1067 123.527 53.0625 123.533 53.0562ZM94.1737 52.2692C94.1737 52.3113 94.1779 52.3366 94.1716 52.3555C94.1695 52.3618 94.1338 52.366 94.119 52.3597C94.0559 52.3345 93.9865 52.3155 93.936 52.2755C93.9086 52.2545 93.9107 52.1935 93.8981 52.1514C93.9402 52.1556 93.9886 52.1472 94.0243 52.1661C94.0811 52.1935 94.1316 52.2377 94.1737 52.2692ZM95.7939 53.4686C95.7897 53.4917 95.7939 53.5254 95.7813 53.5359C95.7645 53.5464 95.7329 53.5401 95.7098 53.5338C95.6151 53.5065 95.5246 53.4707 95.4783 53.3739C95.4699 53.355 95.4699 53.3276 95.4741 53.3066C95.4762 53.2939 95.4993 53.275 95.5099 53.2792C95.6277 53.3066 95.7476 53.3318 95.7939 53.4686Z" fill="#131313"/>
</svg>
