<svg width="65" height="64" viewBox="0 0 65 64" fill="none" xmlns="http://www.w3.org/2000/svg">
<g clip-path="url(#clip0_21183_545)">
<path d="M58.5 12V52H6.5V12H58.5ZM58.5 10H6.5C5.96957 10 5.46086 10.2107 5.08579 10.5858C4.71071 10.9609 4.5 11.4696 4.5 12V52C4.5 52.5304 4.71071 53.0391 5.08579 53.4142C5.46086 53.7893 5.96957 54 6.5 54H58.5C59.0304 54 59.5391 53.7893 59.9142 53.4142C60.2893 53.0391 60.5 52.5304 60.5 52V12C60.5 11.4696 60.2893 10.9609 59.9142 10.5858C59.5391 10.2107 59.0304 10 58.5 10Z" fill="#131313"/>
<path d="M45.01 34.81L41.74 30.27H44.5L45.81 32.12C45.9685 32.3558 46.1025 32.6071 46.21 32.87L46.4 33.3C46.4396 33.1597 46.4897 33.0227 46.55 32.89C46.6631 32.6214 46.8003 32.3637 46.96 32.12L48.33 30.27H50.86L47.66 34.63L51.4 39.85H48.66L46.94 37.45C46.7565 37.1981 46.5959 36.9304 46.46 36.65L46.23 36.15C46.2005 36.2039 46.177 36.2609 46.16 36.32L46.01 36.65C45.8722 36.9253 45.7186 37.1924 45.55 37.45L43.79 39.85H41.27L45.01 34.81ZM17.24 39C16.2932 38.4621 15.5169 37.6685 15 36.71L17.05 35.61C17.4123 36.273 17.9525 36.8218 18.6097 37.1945C19.2668 37.5673 20.015 37.7493 20.77 37.72C22.97 37.72 24.08 36.72 24.08 34.61C24.08 32.5 22.92 31.61 20.59 31.61C19.8155 31.601 19.0471 31.7472 18.33 32.04C17.7437 32.2859 17.2003 32.6235 16.72 33.04L16.5 33V24.14H25.57V26.27H18.57V30.16C19.3374 29.7386 20.2052 29.5346 21.08 29.57C22.5209 29.5101 23.9314 29.9957 25.03 30.93C25.53 31.385 25.9243 31.944 26.1851 32.5676C26.446 33.1913 26.5671 33.8645 26.54 34.54C26.5723 35.2705 26.444 35.9993 26.1641 36.6749C25.8842 37.3504 25.4595 37.9564 24.92 38.45C23.7468 39.4229 22.2524 39.9223 20.73 39.85C19.5122 39.8779 18.3086 39.5847 17.24 39ZM29.99 38.3C29.4718 37.8222 29.0604 37.2402 28.7829 36.5922C28.5055 35.9442 28.3682 35.2448 28.38 34.54C28.435 33.0932 28.9304 31.6977 29.8 30.54L34.22 24.1H36.93L34.11 28.2C33.8423 28.5888 33.5412 28.9536 33.21 29.29L32.99 29.51L32.67 29.82C33.2732 29.4557 33.9654 29.2654 34.67 29.27C35.3462 29.2554 36.0183 29.3782 36.6457 29.6308C37.2731 29.8835 37.8427 30.2608 38.32 30.74C38.8102 31.2226 39.1956 31.8012 39.452 32.4396C39.7083 33.078 39.8302 33.7624 39.81 34.45C39.826 35.1624 39.6928 35.8703 39.4189 36.5281C39.1451 37.186 38.7367 37.7793 38.22 38.27C37.6744 38.7963 37.0284 39.2074 36.3206 39.4788C35.6128 39.7503 34.8576 39.8765 34.1 39.85C33.3465 39.8763 32.5952 39.7529 31.8897 39.4868C31.1842 39.2207 30.5385 38.8174 29.99 38.3ZM36.5 36.72C37.07 36.1041 37.3753 35.2889 37.35 34.45C37.3731 33.6055 37.0685 32.7849 36.5 32.16C35.8653 31.5316 35.0082 31.1791 34.115 31.1791C33.2218 31.1791 32.3647 31.5316 31.73 32.16C31.1502 32.7866 30.8411 33.6168 30.87 34.47C30.8452 35.3106 31.1544 36.1268 31.73 36.74C32.3656 37.363 33.22 37.7119 34.11 37.7119C35 37.7119 35.8544 37.363 36.49 36.74L36.5 36.72ZM56.48 19.25H54.98V15.5H51.23V14H56.48V19.25Z" fill="#131313"/>
<path d="M50.3476 19.0779L55.1984 14.2271L56.259 15.2878L51.4083 20.1385L50.3476 19.0779Z" fill="#131313"/>
<path d="M10.02 19.25H8.52V14H13.77V15.5H10.02V19.25Z" fill="#131313"/>
<path d="M8.74198 15.2834L9.80264 14.2228L14.6534 19.0735L13.5927 20.1342L8.74198 15.2834Z" fill="#131313"/>
<path d="M56.48 50H51.23V48.5H54.98V44.75H56.48V50Z" fill="#131313"/>
<path d="M50.3463 44.9265L51.4069 43.8659L56.2648 48.7237L55.2041 49.7843L50.3463 44.9265Z" fill="#131313"/>
<path d="M13.77 50H8.52V44.75H10.02V48.5H13.77V50Z" fill="#131313"/>
<path d="M8.74063 48.7122L13.5914 43.8614L14.652 44.9221L9.80129 49.7728L8.74063 48.7122Z" fill="#131313"/>
</g>
<defs>
<clipPath id="clip0_21183_545">
<rect width="64" height="64" fill="white" transform="translate(0.5)"/>
</clipPath>
</defs>
</svg>
