<svg xmlns="http://www.w3.org/2000/svg" aria-hidden="true" style="position:absolute;width:0;height:0;overflow:hidden">
  <defs>
    <symbol id="icon-arrow-right" viewBox="0 0 118 32">
      <path d="M106 12.7c2.4 1.4 4.9 2.4 7.1 3H.7v.7h112.7A22 22 0 0 0 97.8 31l.7.2c3.1-10.8 13.7-14.5 18.6-15v-.7c-2.6-.2-6.8-1.2-10.8-3.6-3.9-2.3-7.6-5.9-9.3-11.3l-.6.2c1.7 5.6 5.5 9.4 9.6 11.8z"/>
      <path d="M113.1 15.6v-.2.5-.3zm-7.1-3zM.7 15.7H.5v-.2h.2v.2zm0 .8v.2H.5v-.2h.2zm112.7 0v-.2.4-.2zM97.8 31v.2h-.3V31h.3zm.7.2h.2v.2h-.3l.1-.2zm18.6-15h.2v.3h-.2v-.2zm0-.3h-.3.3zm0-.4v-.2h.2v.3h-.2zM106.3 12zM97 .7V.5h.2v.2H97zm-.6.2L96 1V.8h.2v.1zM113 16c-2.2-.6-4.7-1.6-7.1-3l.2-.4c2.4 1.4 4.9 2.3 7 3v.4zM.7 15.4h112.4v.5H.7v-.5zm-.2 1v-.8H1v.8H.5zm112.9.2H.7v-.4h112.7v.4zM97.6 31c2.6-9 10.2-13.3 15.7-14.8l.1.4A21.8 21.8 0 0 0 98 31h-.4zm.8.5-.7-.2.2-.4.7.2-.2.4zm18.7-15c-4.8.6-15.3 4.2-18.4 14.8h-.4c3.2-11 13.8-14.7 18.8-15.2v.5zm.2-.5v.3h-.4V16h.4zm0-.3v.3h-.5v-.4h.5zm-10.8-3.8c3.9 2.3 8 3.3 10.6 3.5v.5c-2.7-.3-6.9-1.3-10.9-3.7l.3-.3zM97.3.7c1.6 5.3 5.3 8.9 9.2 11.2l-.3.3c-4-2.3-7.7-6-9.4-11.4l.5-.1zm-1 0 .7-.2.1.4-.7.3-.1-.5zm9.6 12.2A21 21 0 0 1 96 1l.5-.1c1.7 5.5 5.5 9.2 9.5 11.6l-.2.4z"/>
    </symbol>
    <symbol id="icon-arrow-left" viewBox="0 0 118 32">
      <path d="M11.8 12.7c-2.4 1.4-4.9 2.4-7 3H117v.7H4.4A22 22 0 0 1 20 31l-.7.2C16.2 20.5 5.6 16.8.7 16.3v-.7c2.7-.2 6.8-1.2 10.8-3.6C15.4 9.7 19 6.1 20.8.7l.7.2a20.8 20.8 0 0 1-9.7 11.8z"/>
      <path d="M4.7 15.6v-.2.5-.3zm7.1-3zm105.3 3h.2v-.2h-.2v.2zm0 .8v.2h.2v-.2h-.2zm-112.7 0v-.2.4-.2zM20 31v.2h.3V31H20zm-.7.2h-.2v.2h.3v-.2zM.7 16.3H.5v.3h.2v-.2zm0-.3H1 .8zm0-.4v-.2H.5v.3h.2zM11.5 12zM20.8.7V.5h-.2v.2h.2zm.7.2.2.1V.8h-.2v.1zM4.8 16c2.2-.6 4.7-1.6 7.2-3l-.3-.4a28.5 28.5 0 0 1-7 3v.4zm112.3-.5H4.7v.5h112.4v-.5zm.2 1v-.8h-.4v.8h.4zm-112.9.2h112.7v-.4H4.4v.4zM20.2 31A22.3 22.3 0 0 0 4.5 16.2l-.1.4A21.8 21.8 0 0 1 19.8 31h.4zm-.8.5.7-.2-.1-.4-.7.2v.4zM.7 16.5c4.9.6 15.3 4.2 18.4 14.8h.4C16.4 20.2 5.7 16.5.7 16v.5zM.5 16v.3H1V16H.6zm0-.3v.3H1v-.4H.4zm10.9-3.8A27 27 0 0 1 .7 15.4v.5c2.7-.3 7-1.3 10.9-3.7l-.2-.3zM20.6.7a19.9 19.9 0 0 1-9.2 11.2l.2.3c4-2.3 7.7-6 9.4-11.4l-.4-.1zm1 0-.8-.2V1l.6.3.1-.5zM12 13c4-2.5 7.9-6.2 9.7-11.9l-.4-.1a20.6 20.6 0 0 1-9.6 11.6l.3.4z"/>
    </symbol>
    <symbol id="icon-close-plus-button" viewBox="0 0 32 32">
      <path d="M14.4 0v14.4H0v3.2h14.4V32h3.2V17.6H32v-3.2H17.6V0h-3.2z"/>
    </symbol>
    <symbol id="icon-jamming-band" viewBox="0 0 33 32">
      <path d="M16.3 31.7v-2.9a12.7 12.7 0 0 0 12.8-12.7h2.8c0 8.5-7 15.5-15.6 15.6zM.6 16h2.8a12.8 12.8 0 0 0 12.8 12.7v2.9C7.6 31.7.6 24.7.6 16zM5 5l2 2a12.8 12.8 0 0 0-3.7 8.8H.6C.6 11.7 2.3 8 5 5zM16 .3v2.9a12.7 12.7 0 0 0-8.8 3.6l-2-2C8.1 2.1 11.9.4 16.2.3zM26.6 16c0-2.7-1-5.3-3-7.2s-4.4-3-7.2-3V3.5c6.9 0 12.4 5.6 12.4 12.4h-2.2zM16.3 26.3c2.8 0 5.3-1 7.2-3s3-4.5 3-7.2h2.2c0 6.8-5.5 12.3-12.4 12.4v-2.2zM6 16.1a10.3 10.3 0 0 0 10.2 10.2v2.2C9.4 28.5 3.9 22.9 3.9 16h2.1zm3-7.3c-1.9 2-3 4.4-3 7.1H3.8c0-3.3 1.3-6.4 3.5-8.6l1.5 1.5zm7.3-3.1c-2.7 0-5.2 1-7.1 2.9L7.5 7c2.3-2.1 5.3-3.5 8.7-3.5v2.2zm7.6 10.2a7.5 7.5 0 0 0-7.5-7.5V6a10 10 0 0 1 10 10h-2.5zm-7.5 7.7a7.5 7.5 0 0 0 7.5-7.5h2.4a10 10 0 0 1-9.9 9.9v-2.4zM8.7 16a7.5 7.5 0 0 0 7.5 7.5V26a10 10 0 0 1-10-10h2.5zm2-5.3a7.5 7.5 0 0 0-2 5.1H6.3c0-2.6 1-5 2.8-6.8l1.7 1.7zm5.5-2.4c-2 0-3.8.8-5.2 2.1L9.3 8.8A10 10 0 0 1 16.2 6v2.4zm.6 7.5c0-.2-.3-.4-.5-.4V8.8c4 0 7.1 3.2 7.2 7.1h-6.7zm-.5.6c.2 0 .4-.2.5-.4h6.7c0 4-3.2 7-7.2 7.1v-6.7zm-.6-.4c0 .2.2.4.5.4v6.7c-4 0-7.1-3.2-7.2-7.1h6.7zm0-.3v.1H9c0-1.9.8-3.6 2-4.9l4.8 4.8zm.5-.3H16l-4.7-4.7c1.2-1.3 3-2 4.9-2v6.7zm15.7.4h-2.8A12.8 12.8 0 0 0 16.3 3.2V.3C25 .3 32 7.3 32 16zm-1-6.1A16 16 0 0 0 10 1.3a16 16 0 0 0-5 26A16 16 0 0 0 32.1 16 16 16 0 0 0 31 9.8z"/>
    </symbol>
    <symbol id="icon-large-display" viewBox="0 0 20 32">
      <path d="M15.2 0h-11C2 0 .3 1.6.3 3.6v24.8c0 2 1.8 3.6 4 3.6h11c2.3 0 4.1-1.6 4.1-3.6V3.6c0-2-1.8-3.6-4-3.6zm3 28.4c0 1.3-1.4 2.4-3 2.4h-11c-1.5 0-2.8-1.1-2.8-2.4V3.6c0-1.3 1.3-2.4 2.9-2.4h11c1.5 0 2.8 1 2.8 2.4v24.8z"/>
      <path d="M14.8 11a.6.6 0 0 0 0-.3l-.1-.2-.2-.1h-2.7c-.4 0-.6.3-.6.7s.3.5.6.5h.8l-2.1 2a.6.6 0 0 0 .8.8l2.2-2v.9a.6.6 0 1 0 1.1.1l.2-2.4zM8.4 15.4 6 17.6v-.9c.1-.3-.1-.6-.5-.6-.3 0-.6.2-.6.5L4.7 19a.6.6 0 0 0 0 .3l.1.2H5v.1H5.3l2.7.1a.6.6 0 0 0 0-1.2H6.8l2.4-2.2a.6.6 0 0 0-.8-.9z"/>
    </symbol>
    <symbol id="icon-clock-45" viewBox="0 0 33 32">
      <path d="M10.6 3.8 10 3 5.5 6l.6.8 4.5-3zM27 6l-4.5-3-.5.8 4.5 3L27 6zM16.3 4.5a12.5 12.5 0 1 0-.1 25 12.5 12.5 0 0 0 0-25zm0 24a11.5 11.5 0 1 1-.1-23 11.5 11.5 0 0 1 0 23z"/>
      <path d="M13.8 19.5H10v-.7l5-5.7h.1v5.5h1v1h-1v1.2h-1.2v-1.3zm-2.3-.9h2.3V15.5v.3l-.4.4-1.6 1.9-.3.4-.2.1h.2zm6.3 1.8c-.4-.2-.8-.6-1-1l1-.6c.1.3.3.5.6.7.3.2.7.3 1.1.3 1.1 0 1.6-.5 1.6-1.5s-.5-1.5-1.6-1.4a2.8 2.8 0 0 0-2 .7v-4.3h4.4v1h-3.4v1.9l1.2-.3c.7 0 1.4.2 2 .7l.5.8.2 1c0 .3 0 .6-.2 1l-.6.8a3 3 0 0 1-2 .7c-.6 0-1.2-.2-1.8-.5z"/>
    </symbol>
    <symbol id="icon-wide-range" viewBox="0 0 43 32">
      <path d="M35.2 12a.6.6 0 0 1 0 .4.6.6 0 0 1-.2.3.6.6 0 0 1-.3 0 .7.7 0 0 1-.2 0 .6.6 0 0 1-.2 0 .6.6 0 0 1-.2-.3v-.1a3.7 3.7 0 0 0-1.3-2.3 3.7 3.7 0 0 0-2.4-.9.6.6 0 0 1-.3-.2.6.6 0 0 1-.2-.3.6.6 0 0 1 .6-.7 4.6 4.6 0 0 1 1.7.4 5.1 5.1 0 0 1 2.2 1.8 4.8 4.8 0 0 1 .8 2zm1-5.9A9.3 9.3 0 0 0 29.8 4a.6.6 0 0 0-.2.2.6.6 0 0 0-.1.3v.1a.6.6 0 0 0 .1.4l.2.1h.2a8.3 8.3 0 0 1 7 4.2 8.1 8.1 0 0 1 1 2.7v.2l.2.2h.2l.2.1a.6.6 0 0 0 .5-.3.7.7 0 0 0 0-.3 9.3 9.3 0 0 0-3-5.7zm6.7 4.4a12.6 12.6 0 0 0-5-8.1A12.7 12.7 0 0 0 30.7 0h-.2v.1l-.1.1a.6.6 0 0 0-.2.3v.1a.6.6 0 0 0 .6.6 11.5 11.5 0 0 1 8.7 4.4 11.3 11.3 0 0 1 2.3 5.3l.2.1.2.1h.2a.6.6 0 0 0 .3 0 .6.6 0 0 0 .2-.3.6.6 0 0 0 0-.3zM31.6 15v13.9a3.1 3.1 0 0 1-3 3H3.1a3.1 3.1 0 0 1-2.8-1.6A3 3 0 0 1 .1 29v-14a3 3 0 0 1 .6-1.8 3.1 3.1 0 0 1 1.5-1L15 5.6a2.2 2.2 0 0 1 2-2.7h.4a2.3 2.3 0 0 1 1.2.5 2.3 2.3 0 0 1 .6.8 2 2 0 0 1 .1.5 2.3 2.3 0 0 1 0 1 2.2 2.2 0 0 1-1.6 1.5 2 2 0 0 1-.8 0 2 2 0 0 1-.5 0 2.5 2.5 0 0 1-.6-.4l-.2-.1-10.3 5h23.3a3.1 3.1 0 0 1 3.1 3.2zM16 5.2a1 1 0 0 0 0 .4 1 1 0 0 0 .5.4 1 1 0 0 0 .3.2 1 1 0 0 0 1-1.6 1.2 1.2 0 0 0-.2-.3 1 1 0 0 0-.6-.1 1 1 0 0 0-.8.4 1 1 0 0 0-.2.6zM30.5 15a2 2 0 0 0-.6-1.4 1.8 1.8 0 0 0-.6-.4 2 2 0 0 0-.8-.1H3.2a2 2 0 0 0-1.4.5 2 2 0 0 0-.5 1.4v13.9a2 2 0 0 0 .8 1.6 2 2 0 0 0 1 .3h25.4a1.9 1.9 0 0 0 1.4-.6 1.9 1.9 0 0 0 .4-.6 2 2 0 0 0 .2-.7v-14zm-15.9 7a5.1 5.1 0 0 1-1.5 3.6 5 5 0 0 1-7 0 5.3 5.3 0 0 1-1.3-2.1 5 5 0 0 1 .1-3.4 5 5 0 0 1 6.6-2.7 5 5 0 0 1 3.1 4.6zm-1.2 0a3.7 3.7 0 0 0-.3-1.4 4 4 0 0 0-1.4-1.8 4.4 4.4 0 0 0-1-.4 3.8 3.8 0 0 0-2.6 0 3.5 3.5 0 0 0-1 .7 4.2 4.2 0 0 0-1 1.1 4 4 0 0 0-.4 2.2 4 4 0 0 0 .9 2 4.2 4.2 0 0 0 .8.8 3.8 3.8 0 0 0 3.3.5 4 4 0 0 0 1.6-1 4.2 4.2 0 0 0 .8-1.2 3.7 3.7 0 0 0 .3-1.5zm13.3-4.4h-8.9a.6.6 0 0 0-.2 0 .6.6 0 0 0-.3.3.6.6 0 0 0 0 .2.6.6 0 0 0 0 .3.6.6 0 0 0 .4.4h9.1a.6.6 0 0 0 .2 0 .6.6 0 0 0 .3-.7.6.6 0 0 0-.2-.4.6.6 0 0 0-.4-.1zm0 3.7h-8.9a.6.6 0 0 0-.2 0 .6.6 0 0 0-.3.2.6.6 0 0 0 0 .3.6.6 0 0 0 0 .3.6.6 0 0 0 .4.4h9.1a.6.6 0 0 0 .2 0 .6.6 0 0 0 .3-.7.6.6 0 0 0 0-.3.6.6 0 0 0-.6-.2zm0 3.6h-8.9a.6.6 0 0 0-.2 0 .6.6 0 0 0-.3.3.6.6 0 0 0 0 .2.6.6 0 0 0 0 .4.6.6 0 0 0 .4.3h9.1a.6.6 0 0 0 .2 0 .6.6 0 0 0 .3-.7.6.6 0 0 0-.1-.3.5.5 0 0 0-.2-.1.6.6 0 0 0-.3 0z"/>
    </symbol>
    <symbol id="icon-water-cooled-engine" viewBox="0 0 48 32">
      <path d="M14.3 30h24v1.5h-24V30zm2-2.2h20v1.7h-20v-1.7zM.6 14.8h8.3v2.8H.6v-2.9zm8.8-2.4h.8v7.5h-.8v-7.5zM13 5.9v20.5l-2.1-6.3v-8L12.9 6zm11.4-1.3a1.4 1.4 0 1 1 0 2.7 1.4 1.4 0 0 1 0-2.7zm-4.4 0a1.4 1.4 0 1 1 0 2.7 1.4 1.4 0 0 1 0-2.7zm-6-.2h.6V28h-.7c-.1 0-.2 0-.3-.2V4.5h.3zm29.8-.3L47.4 7v18.3l-3.7 2.9V4.1zM24.3 4a1.9 1.9 0 1 0 0 3.7 1.9 1.9 0 0 0 0-3.8zm-4.4 0a1.9 1.9 0 1 0 0 3.7A1.9 1.9 0 0 0 20 4zm-4.2-.2h12.8v.2c0 .1.1.2.3.2h9v5.3H16.1c-.2 0-.3.1-.3.3 0 .1.1.2.3.2h21.5v.3H16.2c-.2 0-.3.1-.3.3s.1.2.3.2h21.5v.3H16.2c-.2 0-.3.1-.3.3 0 .1.1.2.3.2h21.5v.3H16.2c-.2 0-.3.1-.3.3 0 .1.1.2.3.2h21.5v.3H16.2c-.2 0-.3.1-.3.3s.1.2.3.2h21.5v.3H16.2c-.2 0-.3.1-.3.3 0 .1.1.3.3.3h21.5v4H16.2c-.2 0-.3 0-.3.2s.1.3.3.3h21.5v.2H16.2c-.2 0-.3.1-.3.3 0 .1.1.3.3.3h21.5v.2H16.2c-.2 0-.3.1-.3.3 0 .1.1.3.3.3h21.5v.2H16.2c-.2 0-.3.2-.3.3s.1.3.3.3h21.5v.2H16.2c-.2 0-.3.2-.3.3 0 .2.1.3.3.3h21.5v.2H16.2c-.2 0-.3.2-.3.3s.1.3.3.3h21.5v5.2H37v-.3c0-.2-.1-.3-.3-.3H16c-.1 0-.2.1-.2.3v.3H15V4.4h.3c.2 0 .3-.1.3-.3V4zm22.6-.1h4.9v24.7h-5V3.8zM15.9.5h12.4l.2 2.9H15.7L16 .5zm-.3-.5c-.1 0-.3.1-.3.3l-.1 3.3v.2h-1.4a1 1 0 0 0-.8.5 1 1 0 0 0-.2.3l-2.5 7.2H9.2c-.2 0-.3.2-.3.3v2H.3l-.3.3v3.4c0 .2.2.3.3.3H9v2c0 .2.1.3.3.3h1.1l2.5 7.2a1 1 0 0 0 .2.5c.2.2.5.3.8.3h2v1.2h-2v2.2c0 .1 0 .2.2.2h24.7c.1 0 .2 0 .2-.2v-2c0-.1 0-.2-.2-.2h-1.8v-1.1h.8v.3l.3.2H43.6l4.3-3.3V6.6l-4.3-3.3H38c-.1 0-.3 0-.3.2v.3H29v-.2L29 .3c0-.2-.1-.3-.3-.3h-13z"/>
    </symbol>
    <symbol id="icon-modified" viewBox="0 0 37 32">
      <path d="M31.1 32a5.4 5.4 0 0 1-5-3.5H2.4a2 2 0 0 1-2-2V4.2c0-1.2.9-2 2-2h4.8v-2a.3.3 0 1 1 .7 0v2H14v-2a.3.3 0 1 1 .7 0v2h6.1v-2a.3.3 0 0 1 .7 0v2h6.2v-2c0-.2.2-.3.3-.3s.3.1.3.3v2h4.9c1.1 0 2 .8 2 2v18.9a5.4 5.4 0 0 1-4.2 8.8zm-4.8-5 .2 1c.7 2 2.5 3.4 4.6 3.4a4.8 4.8 0 1 0-.2-9.6 4.8 4.8 0 0 0-4.6 5.2zM1.1 10.3v16.1c0 .8.6 1.4 1.4 1.4h23.3v-1l-.1-.2v-.2c.1-2.8 2.4-5.1 5.2-5.2h.1c1.4 0 2.7.4 3.7 1.3V4.3c0-.8-.6-1.5-1.4-1.5h-4.9v1.6a.3.3 0 0 1-.6 0V2.8h-6.2v1.6a.3.3 0 0 1-.7 0V2.8h-6.1v1.6a.3.3 0 1 1-.7 0V2.8H8v1.6a.3.3 0 0 1-.7 0V2.8H2.5c-.8 0-1.5.7-1.5 1.5v5.4h24.4a.3.3 0 0 1 0 .6H1zM30.7 29l-.3-.5A4.8 4.8 0 0 0 29 27c-.2 0-.2-.3-.1-.4s.2-.2.4-.1a5.5 5.5 0 0 1 1.4 1.2 10 10 0 0 1 2.8-3.4.3.3 0 0 1 .4.5 9.4 9.4 0 0 0-2.8 3.6l-.3.6zm-7.2-5.5h-4.2c-.2 0-.3-.1-.3-.3s0-.3.3-.3h4.2a.3.3 0 1 1 0 .6zm-6.8 0h-4.2c-.2 0-.3-.1-.3-.3s.1-.3.3-.3h4.2a.3.3 0 0 1 0 .6zm-6.7 0H5.8c-.2 0-.3-.1-.3-.3s.1-.3.3-.3H10a.3.3 0 0 1 0 .6zm20-4.3h-4.2c-.2 0-.4-.2-.4-.3s.2-.3.4-.3H30a.3.3 0 1 1 0 .6zm-6.5 0h-4.2c-.2 0-.3-.2-.3-.3s0-.3.3-.3h4.2a.3.3 0 1 1 0 .6zm-6.8 0h-4.2c-.2 0-.3-.2-.3-.3s.1-.3.3-.3h4.2a.3.3 0 0 1 0 .6zm-6.7 0H5.8c-.2 0-.3-.2-.3-.3s.1-.3.3-.3H10a.3.3 0 0 1 0 .6zM30 14.9h-4.3a.3.3 0 0 1 0-.6H30a.3.3 0 1 1 0 .6zm-6.5 0H19a.3.3 0 1 1 0-.6h4.3a.3.3 0 1 1 0 .6zm-6.8 0h-4.3a.3.3 0 1 1 0-.6h4.3a.3.3 0 1 1 0 .6zm-6.7 0H5.7a.3.3 0 1 1 0-.6h4.2a.3.3 0 1 1 0 .6zm22-4.6h-3.2a.3.3 0 0 1 0-.6H32c.2 0 .3.1.3.3s-.1.3-.3.3z"/>
    </symbol>
    <symbol id="icon-jamming-band1" viewBox="0 0 33 32">
      <path d="M16.3 31.7v-2.9a12.7 12.7 0 0 0 12.8-12.7h2.8c0 8.5-7 15.5-15.6 15.6zM.6 16h2.8a12.8 12.8 0 0 0 12.8 12.7v2.9C7.6 31.7.6 24.7.6 16zM5 5l2 2a12.8 12.8 0 0 0-3.7 8.8H.6C.6 11.7 2.3 8 5 5zM16 .3v2.9a12.7 12.7 0 0 0-8.8 3.6l-2-2C8.1 2.1 11.9.4 16.2.3zM26.6 16c0-2.7-1-5.3-3-7.2s-4.4-3-7.2-3V3.5c6.9 0 12.4 5.6 12.4 12.4h-2.2zM16.3 26.3c2.8 0 5.3-1 7.2-3s3-4.5 3-7.2h2.2c0 6.8-5.5 12.3-12.4 12.4v-2.2zM6 16.1a10.3 10.3 0 0 0 10.2 10.2v2.2C9.4 28.5 3.9 22.9 3.9 16h2.1zm3-7.3c-1.9 2-3 4.4-3 7.1H3.8c0-3.3 1.3-6.4 3.5-8.6l1.5 1.5zm7.3-3.1c-2.7 0-5.2 1-7.1 2.9L7.5 7c2.3-2.1 5.3-3.5 8.7-3.5v2.2zm7.6 10.2a7.5 7.5 0 0 0-7.5-7.5V6a10 10 0 0 1 10 10h-2.5zm-7.5 7.7a7.5 7.5 0 0 0 7.5-7.5h2.4a10 10 0 0 1-9.9 9.9v-2.4zM8.7 16a7.5 7.5 0 0 0 7.5 7.5V26a10 10 0 0 1-10-10h2.5zm2-5.3a7.5 7.5 0 0 0-2 5.1H6.3c0-2.6 1-5 2.8-6.8l1.7 1.7zm5.5-2.4c-2 0-3.8.8-5.2 2.1L9.3 8.8A10 10 0 0 1 16.2 6v2.4zm.6 7.5c0-.2-.3-.4-.5-.4V8.8c4 0 7.1 3.2 7.2 7.1h-6.7zm-.5.6c.2 0 .4-.2.5-.4h6.7c0 4-3.2 7-7.2 7.1v-6.7zm-.6-.4c0 .2.2.4.5.4v6.7c-4 0-7.1-3.2-7.2-7.1h6.7zm0-.3v.1H9c0-1.9.8-3.6 2-4.9l4.8 4.8zm.5-.3H16l-4.7-4.7c1.2-1.3 3-2 4.9-2v6.7zm15.7.4h-2.8A12.8 12.8 0 0 0 16.3 3.2V.3C25 .3 32 7.3 32 16zm-1-6.1A16 16 0 0 0 10 1.3a16 16 0 0 0-5 26A16 16 0 0 0 32.1 16 16 16 0 0 0 31 9.8z"/>
    </symbol>
    <symbol id="icon-ism-band" viewBox="0 0 51 32">
      <path d="M23.2 32c-.6 0-.9-.8-1-1.1A160.3 160.3 0 0 1 20.5 16a158.4 158.4 0 0 0-1.7-14.2c0-.4-.1-.6-.2-.7-.1.3-.4 1-.7 2.4a192.3 192.3 0 0 0-2 21.3 22 22 0 0 1-.5 2.7c-.2.7-.4 1.3-1 1.3s-.8-.7-.9-1l-.4-2.3c-.3-2-.5-5.3-.7-9.6l-.1-1.5c-.1-2.7-.2-5.6-.7-8.3l-.1 1.3a140.8 140.8 0 0 0-1.2 14.6l-.2 1.7c-.1.3-.2 1-.8 1-.5 0-.6-.6-.7-.8l-.3-1.6a132.7 132.7 0 0 1-1.6-11v-.8a63 63 0 0 0-.5 2.7L5.8 16l-.6 3.1c-.2.8-.5 1.5-1 1.5-.7 0-.9-.7-1-1.3-.3-.7-.5-1.8-.7-3.3l-.6-2.2c-.2.4-.5 1.3-.6 2.2l-1-.2.3-1.4c.3-.9.7-1.8 1.3-1.8.6 0 1 .7 1 1 .2.5.4 1.2.5 2.2a36.6 36.6 0 0 0 .7 3.4l.2-.6a45.9 45.9 0 0 0 1-5.5c0-1.1.2-2 .3-2.8.2-.9.4-1.6 1-1.6s.8.6 1 1.9c.3 1.1.5 2.8.8 5.3a155.7 155.7 0 0 0 1 5.6l.3-5.6c.2-2.5.4-5.6.8-8.5v-.1c.3-2.6.6-3 .8-3.1.2-.1.4-.2.6-.1.5.2.6.8.7 1.6v.1c.4 2.8.6 5.7.7 8.5A464 464 0 0 0 14 25l.4 2.5c.2-.5.3-1.4.5-3.1A189.6 189.6 0 0 1 17 2.8l.6-1.8c.1-.3.4-1 1-1s1 .8 1 1.1l.6 2.7c.5 2.6.9 6.7 1.3 12.2a174.6 174.6 0 0 0 1.7 14.7l.5-2.3A80.8 80.8 0 0 0 25 15.8a214.7 214.7 0 0 1 1.3-13l.5-1.8c0-.3.3-1 1-1 .5 0 .8.8 1 1.1l.5 2.7c.4 2.6.8 6.7 1.2 12.1A157.2 157.2 0 0 0 32 30.1l.2.7a72.4 72.4 0 0 0 1.4-7.6A192.1 192.1 0 0 0 35.2 7l.4-2.7c.2-.7.4-1.3 1-1.3s.8.7.9 1l.4 2.3c.3 2 .6 5.3.8 9.5a165.7 165.7 0 0 0 .7 9.8l1-9.8a203.6 203.6 0 0 1 .6-7.7c0-.4.2-1 .7-1 .5 0 .7.6.7.8l.4 1.6a134 134 0 0 1 1.5 11l.1.8.4-2.7a90 90 0 0 1 1-6c.3-.7.5-1.4 1.1-1.4.6 0 .8.7 1 1.3l.7 3.3.5 2.2.7-2.2 1 .2-.4 1.4c-.3.9-.6 1.8-1.3 1.8-.6 0-.9-.7-1-1a12 12 0 0 1-.5-2.2 36.6 36.6 0 0 0-.7-3.4c0 .2 0 .4-.2.6a45.7 45.7 0 0 0-.9 5.5l-.4 2.8c-.2.9-.4 1.6-1 1.6-.5 0-.7-.6-1-1.9l-.8-5.3a153.6 153.6 0 0 0-1-5.6l-.3 5.6A168.5 168.5 0 0 1 40 27.3c-.2.4-.4.5-.7.5-.6 0-.7-.6-.8-1l-.3-2-.6-8.8a133.6 133.6 0 0 0-1.1-11.4L36 7.7c-.3 2.2-.4 5-.6 8.3A189.6 189.6 0 0 1 34 29.2l-.6 1.8c0 .3-.4 1-1 1s-.9-.8-1-1.1l-.6-2.7c-.4-2.6-.8-6.7-1.2-12.2a173.9 173.9 0 0 0-1.8-14.7l-.5 2.3A81.9 81.9 0 0 0 26 16.2a214.7 214.7 0 0 1-1.4 13l-.4 1.8c-.1.3-.4 1-1 1z"/>
    </symbol>
    <symbol id="icon-intelligent-audio" viewBox="0 0 29 32">
      <path d="M14.7 19.4a.5.5 0 0 1-.1.4.5.5 0 0 1-.7 0 .5.5 0 0 1-.1-.4.5.5 0 0 1 .1-.3.5.5 0 0 1 .7 0 .5.5 0 0 1 .1.3z"/>
      <path d="M9.4 23.8c0 1.1.8 2 2 2 .9 0 1.6.7 1.6 1.5h2.5c0-.8.8-1.5 1.7-1.5 1 0 2-.9 2-2v-6.3H9.3v6.3zm4.8-5.4a1 1 0 1 1 0 2 1 1 0 0 1 0-2zm0 2.6a2 2 0 1 1 0 4.1 2 2 0 0 1 0-4.1z"/>
      <path d="M14.2 24.6a1.6 1.6 0 1 0 0-3.1 1.6 1.6 0 0 0 0 3.1zm0-2.7a1.2 1.2 0 1 1 0 2.3 1.2 1.2 0 0 1 0-2.3zM13 28h2.5v.3H13v-.4z"/>
      <path d="M14.2 23.7a.7.7 0 1 0 0-1.3.7.7 0 0 0 0 1.3zM17.2 30.4h-.6a1 1 0 0 1-1-1v-.6H13v.6c0 .5-.5 1-1 1h-.7c-.7 0-1.2.5-1.2 1.2v.4h8.3v-.4c0-.7-.5-1.2-1.2-1.2zM18.6 17V9c0-1.4-1.1-2.5-2.5-2.5h-3.7A2.5 2.5 0 0 0 10 9v8h.5V9c0-1.2.9-2 2-2H16a2 2 0 0 1 2 2v8h.5z"/>
      <path d="M16.1 7.4h-3.7c-.8 0-1.5.7-1.5 1.5v8h6.7V9c0-.8-.7-1.5-1.5-1.5z"/>
      <path d="M14.2 0a13.8 13.8 0 0 0-6.7 25.8v-1.5a12.5 12.5 0 1 1 13.4 0v1.5A13.7 13.7 0 0 0 14.3 0z"/>
      <path d="M21 19v1.4A10 10 0 0 0 14.2 3a10 10 0 0 0-6.7 17.3V19A9 9 0 1 1 21 19z"/>
    </symbol>
    <symbol id="icon-hybrid-zoom" viewBox="0 0 33 32">
      <path d="M29.3 6v20h-26V6h26zm0-1h-26a1 1 0 0 0-1 1v20a1 1 0 0 0 1 1h26a1 1 0 0 0 1-1V6a1 1 0 0 0-1-1z"/>
      <path d="m22.5 17.4-1.6-2.3h1.3l.7 1 .2.3.1.3v-.3l.3-.3.7-1h1.2l-1.6 2.2 1.9 2.6h-1.4l-.8-1.2-.3-.4v-.2H23l-.1.2-.2.4-1 1.2h-1.2l1.9-2.5zM8.6 19.5c-.5-.3-.8-.7-1.1-1.1l1-.6a2 2 0 0 0 1.9 1c1 0 1.6-.4 1.6-1.5s-.5-1.5-1.7-1.5a2.9 2.9 0 0 0-2 .7v-4.4h4.5v1H9.3v2l1.2-.3c.8 0 1.5.2 2 .7.3.2.5.5.6.8l.2 1a2.5 2.5 0 0 1-.8 2 3 3 0 0 1-2.1.6c-.6 0-1.2-.1-1.8-.4zm6.4-.4a2.5 2.5 0 0 1-.8-1.8c0-.8.3-1.5.7-2l2.2-3.3h1.4L17 14.1a4 4 0 0 1-.5.5l-.1.2-.2.1a2 2 0 0 1 1-.3 2.5 2.5 0 0 1 2.6 2.6 2.6 2.6 0 0 1-.8 2 2.8 2.8 0 0 1-2 .7 2.9 2.9 0 0 1-2.1-.8zm3.3-.7c.2-.3.4-.8.4-1.2 0-.4-.2-.8-.4-1.1a1.7 1.7 0 0 0-2.4 0c-.3.3-.5.7-.5 1.1 0 .5.2.9.5 1.2a1.7 1.7 0 0 0 2.3 0zm10-8.8h-.8V7.8h-1.9V7h2.6v2.6z"/>
      <path d="m25.2 9.5 2.4-2.4.5.5-2.4 2.5-.5-.6zM5 9.6h-.7V7h2.6v.8H5v1.8z"/>
      <path d="m4.4 7.6.5-.5 2.4 2.4-.5.6-2.4-2.5zM28.2 25h-2.6v-.8h1.9v-1.8h.7V25z"/>
      <path d="m25.2 22.5.5-.6 2.4 2.5-.5.5-2.4-2.4zM6.9 25H4.3v-2.6H5v1.9H7v.7z"/>
      <path d="m4.4 24.4 2.4-2.5.5.6L5 24.9l-.5-.5z"/>
    </symbol>
    <symbol id="icon-fast-charging" viewBox="0 0 36 32">
      <path d="M29 10H4a.3.3 0 0 0-.3.1.3.3 0 0 0 0 .3v11.2a.3.3 0 0 0 0 .3.4.4 0 0 0 .3 0h25a.3.3 0 0 0 .3 0 .4.4 0 0 0 0-.3V10.4a.3.3 0 0 0 0-.3.3.3 0 0 0-.3 0zm-24.7.7h10L8.2 21.3H4.3V10.7zM9 21.3l6.2-10.6h9.3l-6.2 10.6H9zm19.7 0h-9.5l6.2-10.6h3.3v10.6zm4.8-9.6h-1v-2a2.1 2.1 0 0 0-2-2h-28a2.1 2.1 0 0 0-2 2v12.5a2.1 2.1 0 0 0 2 2.1h28a2.1 2.1 0 0 0 2-2v-2h1A1.5 1.5 0 0 0 35 19v-5.7a1.6 1.6 0 0 0-.2-.9 1.6 1.6 0 0 0-1-.6h-.3zM32 22.2a1.4 1.4 0 0 1-1.2 1.4H2.6a1.4 1.4 0 0 1-1.4-1.1V9.8a1.4 1.4 0 0 1 1-1.4h28.2a1.4 1.4 0 0 1 1.4 1.1V22.2zm2.4-3.5a.8.8 0 0 1 0 .3.9.9 0 0 1-.3.4.9.9 0 0 1-.5.2h-1v-7.2h1a.8.8 0 0 1 .5.2.9.9 0 0 1 .2.2.9.9 0 0 1 .1.5v5.4zM19 16a.4.4 0 0 0-.3-.3h-1l.8-3.7v-.2l-.2-.1H18a.3.3 0 0 0-.2 0l-3.7 4a.4.4 0 0 0 .3.7h1l-1 3.7a.3.3 0 0 0 0 .3.3.3 0 0 0 .2.1.3.3 0 0 0 .4 0l3.9-4.2a.3.3 0 0 0 0-.3zm-3.5 3 .7-2.9v-.3l-.3-.1h-.6l2.3-2.5-.6 2.8v.3l.3.2h.6l-2.4 2.5zM17.7 0a.3.3 0 0 1 .3.1.3.3 0 0 1 .1.3v4.2a.3.3 0 0 1-.1.3h-.4a.4.4 0 0 1-.2-.3V.4a.3.3 0 0 1 .1-.3.3.3 0 0 1 .3 0V0zm-5 1.3 3 3a.3.3 0 0 1 .1.4.3.3 0 0 1-.3.3c-.1 0-.2 0-.3-.2l-3-3a.4.4 0 0 1 0-.3v-.2a.4.4 0 0 1 .5 0zm10.6 0v.5l-3 3-.3.2-.2-.1-.1-.2V4.4l3-3a.3.3 0 0 1 .3-.2.4.4 0 0 1 .3.1zM17.7 32a.3.3 0 0 1-.2-.1.3.3 0 0 1-.1-.3v-4.2a.3.3 0 0 1 .1-.2.3.3 0 0 1 .3-.1.3.3 0 0 1 .2 0 .4.4 0 0 1 .1.3v4.2a.3.3 0 0 1-.1.3h-.1l-.1.1zm5-1.3-3-3a.4.4 0 0 1 0-.4.4.4 0 0 1 .2-.2h.4l3 3v.4a.4.4 0 0 1-.5.2zm-10.2 0h-.3v-.5l3-3 .2-.1H15.7l.1.2a.4.4 0 0 1 0 .2v.1l-3 3-.3.2z"/>
    </symbol>
    <symbol id="icon-diesel-fuelled" viewBox="0 0 48 32">
      <path d="M44.9.6a2 2 0 0 0-1.4-.6H29.3C28 0 27 .4 26 1l-4.7 3.3-.4-.3-1-.5c-.8-.2-1.7-.1-2.4.3L6.5 10c-.5.3-.8.8-.8 1.3V13c0 .3-.1.6-.4.8L1.4 17c-.8.7-1.3 1.7-1.3 2.8v7c0 .3.1.5.4.7l.7-.1 1.2-1c.3-.1.3-.5.2-.8l-.2-.4.5-.4L7.7 31a2.6 2.6 0 0 0 3.7.4l12.8-10.5v-7l1.4-1.4c.8-.8.9-2.2.1-3l-1-1.2-.6-.7 3.7-2.7c.9-.6 2-1 3.1-1h12.6c1 0 2-.8 2-2 0-.4-.2-1-.6-1.3zM24.2 8.4l.1.1 1 1.2c.7.7.6 1.8 0 2.5l-1.6 1.5v7L11.1 31a2.1 2.1 0 0 1-3-.3L3 24l-1.3 1 .5.7v.3l-1.3 1H.7l-.1-.3v-7a3 3 0 0 1 1.1-2.4l4-3.2c.3-.3.5-.7.5-1.2v-1.6c0-.4.2-.7.5-.9l11-6.3c.7-.4 1.4-.4 2-.2l1.5.7 2.2 2.8.2.2.4.5.2.2zm19.3-5H30.9c-1.2 0-2.4.4-3.4 1.2l-3.7 2.6-2.1-2.6 4.6-3.2c.9-.6 1.9-1 3-1h14.2A1.5 1.5 0 0 1 45 2c0 .8-.7 1.5-1.5 1.5z"/>
      <path d="M15 16.6c-.4-.7-1.3-.8-2-.3l-5.6 4.3c-.6.5-.7 1.4-.2 2l3.1 4.2a1.5 1.5 0 0 0 2.2.3l5.5-4.6c.7-.5.8-1.4.2-2l-3.1-4zm-3.8 1.7.4 1.3a3 3 0 0 0 1.7 2l1 .5-1.4-.2a4.2 4.2 0 0 1-3-1.7l-.3-.6 1.6-1.3zm6.5 3.8-5.5 4.6c-.3.2-.5.3-.8.2s-.5-.1-.7-.4l-3.2-4.1a1 1 0 0 1 .2-1.4l1.5-1.1.4.5c.8 1.1 2 1.8 3.2 2l1.7.2c.3 0 .4-.2.5-.4 0-.2 0-.4-.3-.5l-1.2-.5c-.7-.3-1.3-1-1.5-1.7l-.4-1.5 1.7-1.3a1 1 0 0 1 1.4.2l3.2 3.8c.3.5.3 1-.2 1.4zM44.2 17.5c-2 0-3.6-1.6-3.6-3.7 0-1.3 1.5-4 2.7-6 .2-.4.6-.6 1-.6s.7.2.8.5c1.3 2 2.8 4.8 2.8 6.1 0 2-1.6 3.7-3.7 3.7zm0-9.8c-.2 0-.3.1-.5.3-1.7 2.8-2.6 4.9-2.6 5.8a3.2 3.2 0 0 0 6.3 0c0-.9-1-3-2.7-5.8a.6.6 0 0 0-.5-.3z"/>
    </symbol>
    <symbol id="icon-cmos-wide-camera" viewBox="0 0 32 32">
      <path d="M13.7 21.3H11v-.6l3.6-4v3.9h.7v.7h-.6v.9h-.9v-.9zm-1.7-.7H13.7v-2.2.2c0 .2-.2.2-.3.3l-1.2 1.4-.2.2-.2.2h.2zm8.2 1.2a2 2 0 0 1-.8-.8l.7-.4.5.6.8.2c.8 0 1.2-.3 1.2-1s-.4-1.1-1.3-1.1a2.5 2.5 0 0 0-.8 0l1.3-1.6.1-.2.1-.1h-2.1v-.7h3.4l-1.2 1.6a2.2 2.2 0 0 1-.3.4c.4 0 .9.2 1.2.5.1.1.3.3.3.5l.1.6v.8l-.5.6c-.4.3-1 .5-1.5.5-.4 0-.8-.1-1.2-.4zM18 16h1l-2 6.8h-1l2-6.8z"/>
      <path d="M25.3 13.6v11.7H10.7L7.2 21l2.1-7.4h16zm.6-1h-17a.4.4 0 0 0-.4.3L6 21a.4.4 0 0 0 .1.4l3.9 4.7.1.2H26a.4.4 0 0 0 .4-.4V13a.4.4 0 0 0-.1-.3H26l-.1-.1zm-.6-5.9v3.6h-15l1-3.6h14zm.5-1h-15a.4.4 0 0 0-.4.3l-1.3 4.7a.4.4 0 0 0 .2.5H26a.4.4 0 0 0 .3 0V11l.1-.2V6.1a.4.4 0 0 0-.4-.4z"/>
      <path d="M27.4 4.6v22.8h-18l-4.8-6V4.6h22.8zm.2-1H4.4a.9.9 0 0 0-.8.8v17c0 .3 0 .5.2.6l4.8 6a1 1 0 0 0 .8.4h18.2a.9.9 0 0 0 .8-.8V4.4a.9.9 0 0 0-.8-.8z"/>
    </symbol>
    <symbol id="icon-flower2right" viewBox="0 0 52 32">
      <path d="M27 30v-.1l-.1-.2-.4-.4-.4-.4H26l-.4-.3v-.2h-.1c-.1-.1 0-.1 0-.1l-.3-.2H25v-.2h-.3l-.1-.2h-.1l-.7-.4-.4-.3-.7-.4h-.1l-.1-.1h-.3l-.6-.4-.4-.2v-.2c-.2 0-.4 0-.5-.2l-.2-.1-.2-.2-.3-.2a.9.9 0 0 0-.3-.3h-.1c0-.2-.1-.2-.2-.3l-.1-.1v-.1l-.2-.1V24l-.1-.1-.3-.5-.3-.8-.1-.4-.1-.2-.3-.4c-.1 0-.1 0 0-.1v-.1h-.1v-.2h-.2V21l-.1-.2-.8-.7-.2-.2h-.3l-.5.2h-.3l-.6.1h-.2l-.2.1-.3.1H14l-.3.1H11l-.5-.2h-.2l-.7-.3-.7-.2h-.3l-.4-.2-.8-.3-.3-.1L5 18l-.2-.1-.7-.5-.4-.2-.4-.2-.5-.3-.3-.2-.5-.3-.2-.2a3 3 0 0 1-.6-.4l-.4-.2-.4-.4-.2-.2-.2-.1v-.1l.3.1h.2-.1c-.1-.1-.2-.3-.3-.2H0c-.1 0 0 0 0-.1V14h.1v-.2h.2v.3H.2v.1h.2v.1l.4-.1V14H.4L.4 14V13.7l-.1-.1v-.1c-.1 0 0-.1 0-.1l.2-.1h.2l-.2.1v.2h.1l.1.1v.1h.6c0 .1 0 0 0 0h-.1c-.1 0-.2-.2-.4 0V13.4l-.1-.2h.4v.2h.3c0-.1.2-.1.1-.2v-.2H1.8l.2.2.3.1h.4l.3.3h.3l.3.2.2.1v.1c.2 0 .3.2.4.3l.4.2.2.2.3.2.3.2c.2 0 .4.2.5.3v-.1H6l.7.4H7l.9.5v-.1l.2-.4.1-.2.2-.3.1-.3a98.6 98.6 0 0 0 .3-.6l.1-.6v-.6l.2-.8.3-.8.1-.8v-1l-.2-1.4V4.7l.3-1 .5-1 .2-.5.2-.2V2l.3-.4c.4-.5 1-1 1.6-1.2l.7-.1h.4l.1-.1a5.6 5.6 0 0 1 1.4.1l.5.2a16.5 16.5 0 0 0 .7.4l.1.1h.1l.3.4v.2l-.1-.2h-.1V2v-.2l-.1.1c-.1 0-.2 0-.1-.2H16v1.7L16 4v.3c-.1 0-.1 0 0 0h-.1v.1l-.1.2-.1.1V5l-.1.1v.1c-.2 0-.2.2-.3.2v-.1c-.1-.1-.1-.1-.1 0l-.3.1h-.1V5.7l-.1.4v1.4a58.7 58.7 0 0 1 0 .8l.1.5v3l-.1.5-.1.3-.3.7-.1.1-.2.3v.1c-.5.5-1 .8-1.5 1l-.3.3c-.2 0-.3 0-.4.2l-.5.7-.2.5-.3.6a3 3 0 0 1-.4.4v.1a75.3 75.3 0 0 0 2.2.2h1l1-.2h.2l.9-.5 1-.6a21.5 21.5 0 0 0 2-1.7l.8-.5 1-.5-.2.1-.3.2-.5.3-.3.2v.1H19l-.3.2c.2 0 .3-.1.3-.2l.4-.2h.1c.1-.2.3-.2.4-.3l3.9-2.4 1.3-.7 1-.6.6-.2 1-.3h.2l.6-.2H30.4l.8.2.9.4.3.2.4.3.7.5.6.6c.5.4 1 .8 1.3 1.3l.4.4a11.1 11.1 0 0 1 .9 1.2s0 .2.2.3l.3-.1a22.8 22.8 0 0 0 3-.9c.4 0 .7 0 1-.2a7 7 0 0 1 1.6-.2h1.1l.4-.1H45.6l.3.1h.7l1 .3.7.1.7.3.5.2.4.2.4.3.6.6.3.5.2.4v.2h-.2v.1H51v.2l.1.1H51v.1l.2.2h.1l.1.1h.1v-.1l.2.2h-.1v.2l.1.1v.2c-.1 0-.1 0 0 0l-.1.3-.1.2-.1.2-.1.2a1 1 0 0 1-.6.6h-.2l-2 .6-.8.2-.6.1a11.1 11.1 0 0 1-1.1.1l1 1.3h.1l.7.8.6.9.4.8V24.8l.2.3v.5c.1 0 .1 0 0 0v.5l-.1.4v.3l-.1.1h-.1c-.1 0-.1.1 0 .2-.2 0-.2.1-.2.2l.2.1-.3.1h-.1l-.2.2h-.2l-.1.2c-.1.1-.3 0-.4 0H46.5c0 .2-.1.2-.2.2a3.2 3.2 0 0 1-1.6 0l-.7-.2H44l-1-.5h-.1v.2l.1.6.1.7v.9l.1.2v.7c-.1 0 0 .1 0 .2l-.1.3v.1l-.2.1h-.2c0 .1-.1.1-.2 0H42.2c0-.1-.1 0-.1 0h-.2s-.1 0 0 .1v.1h-.2l-.1.1c-.2.2-.4.2-.6.2l-.5-.2-.5-.1-.5-.3a2 2 0 0 1-.6-.3l-.5-.2-.3-.2h-.3l-.2-.2-.8-.8-.6-.6-.3-.7a27.8 27.8 0 0 0-.8-2.1l-.2-1.4-.1-1.2v-2l.2-1 .2-.3v-1.6l.2-.6v-.5l.2-.6v-.2l-.5-.4-.2-.2-.6-.8-.3-.3s0-.2-.2-.3l-.5-.6a5.5 5.5 0 0 0-1.4-1.2l-.7-.3-1.5-.3h-1l-.3.1a7 7 0 0 0-1.2.4l-.7.4-.5.2-.6.4-.2.1v.1H24.8v.2l-.3.3v-.1l-.3.2v.2c-.2 0-.3.2-.5.3v-.1s-.2.1-.1.2l-.1.1-.2.1-.2.2H23l-.1.2-.5.3-.2.2h-.1l-.4.3h-.3l-.2.2s0 .2-.2.2l-.3.1V17h-.2l.2.1v.1h-.3l-.2.2-.1.2v-.2l-.1.1v.1l-.3.1v.1l-.2.1v.1l.1.2v.2h.2v.1c.2 0 .2.1.3.2H20l.1.1H20.6v.2l.1.3h.2s.1.2.1 0l.2.2.1.2.4.2v.1h.2c0 .2.1.2.2.3h.2l.1.1.5.3.5.3.4.3-.3-.1h-.1l-.1-.1.1.2v.1l.5.2.2.1H24.3l.3.1h-.1v-.1l.5.2.3.1.7.3H26.3c0 .1 0 .2.2.2h.2l.2.2h.1l1 .5.3.2.3.1.6.3.6.4.2.2.3.3.1.1h.1l.2.3c0 .2.2.2.2.3l.1.2.3.3.3.4.2.1.2.3c.1 0 .1 0 0 .1l.1.1v.1h.2c.1 0 0 0 0 0v.2l.1.1h.1v.2l.2.1v.2h.1-.2s0-.1-.1 0l-.3-.1v.4l.1.2.1.1v.2l.1.2v.4h.1v.3h-.1v-.1c-.1 0-.1 0 0 0l-.1.3v.2-.2H32.7l.3-.3v-.2h.1l-.2.5-.2.1h-.1c-.1.2-.3.2-.4.2l-.2.2V30.7l.2-.1.2-.2.1-.1v.2l-.4.3a3 3 0 0 1-.6.4h.3c0-.1 0 0 0 0v.2l.3-.1h.2c.1 0 0 0 0 0v.2H32c0 .2-.2.3-.4.3v.1h-.2v.1H31h.2v-.1H30.6l.1.1h-1l-.4-.3h-.1c0-.1-.2 0-.2-.2l-.2-.1v.1l-.4-.4v-.2h-.2v-.2H28l-.2-.1-.1-.1h-.2c0-.2-.1-.2-.3-.2l-.1-.2H27h.1c0-.1 0 0-.1 0zm-1-18.4h.1-.2v.1zm-2.3.7-.2.1h.2l.1-.2-.1.1zm15.7 4.9c0-.1-.1-.1-.1 0h.2c0-.1 0 0 0 0-.1-.1-.1 0-.1 0zM48 25c.1 0 .1.1.1 0V25l-.1-.4-.1-.2h-.1c-.1 0 0 0 0 0l.1.1v.3s.1 0 0 0c0 .2.1.1.2.2zm-9.9 1v.1-.4H38v-.4L38 25l-.2-.3-.1-.2v.4l.1.2v.1h.1v.4h.2v.3h.1zm9.4-1.3v.2h.1V24.5h-.1v.1zm-5-7.3h.1-.4v.1h.2zm-4 9.7.1-.1v-.1h-.1v.2l.1.1c0-.1 0 0 0 0zm-16-12v.1-.2h.5c-.1-.1 0-.2 0-.2v-.1h-.3v.2V14.6h-.2v.1l.1.2h-.1v.1h-.2l.1.2zM37.6 19v-.1h.2v-.6l.1.2v.3H38.4v-.1H38.6l-.4-.5V17.6c-.1-.1 0-.2 0-.2V17H38l-.2.1v.4l-.2.4v.7s-.1 0 0 .1v.2l.2.4V19zm1.5-1 .1.1h-.1L39 18v.1l.3.1V18zm-13 11 .4.2V29h-.1c0-.1 0-.2-.2-.2v-.1c-.2 0-.2-.1-.2-.2 0 .2 0 .3.2.3zM42 17.6h-.1.1l.5.1h.7-.4l-.2-.1H42zm-3.6 8.4v.2h-.1c0 .1 0 0 0 0l.3.2v-.2l.2.2.1.2.4.6.4 1h.2v-.1l-.2-.5-.2-.5-.2-.5-.1-.1-.2-.3-.1-.2-.2-.2h-.1l.1.2v.1c0 .1 0 0-.1 0h-.1c0-.1 0 0 0 0h-.1V26v.1zM24.2 14v.1c-.1 0-.1 0 0 0 0 .1 0 .1 0 0h.2v-.2h-.1v.1-.2h-.1v.2zM48 23.7V24l.2.4.2.2V25.2l.3.1V25l-.2-.2-.1-.1v-.4L48 24l-.2-.3v-.1.1zM23.2 13.1H23.5s0-.1 0 0h-.2c0-.1 0 0 0 0h-.1s-.2 0-.2.2h-.2l-.2.1-.1.1-.7.4v.1h.2v-.1h.2l.2-.1h.1l.1-.1v-.1H23l.2-.2v-.1l.1-.2zm25.3 12.6H48.2v.3l.1.1.1.2H48.8V26l.1-.1-.2-.2h-.1zM33.1 11.6c0 .2.1.3.2.3h.1l.2.2h.1l.1.1h.1c.1 0 0 0 0 0l-.4-.4-.6-.5h-.1v.1h.2l.1.2zm-3.4 20v-.2h.2l-.1-.1s-.1-.1-.2 0h-.1c0 .1 0 0 0 0H29c0 .1 0 0 .1 0v.1h.2v.1l.2.1zM38.5 18h.2l.1.1-.4-.4-.1.1.1.2h.1zm-16-5.2.2.1.2-.2.1-.1h-.2l-.3.2zM38.9 17h.4l.1-.1h.1a3 3 0 0 0-.7 0zM25.4 28h-.1l.1.1.2.2h.1V28h-.2V28h-.1zM2.9 13.6l-.5-.2.2.2.3.1c.1 0 0 0 0 0v-.1zm45.5 11.7h-.2c-.1-.1 0 0-.1 0 .2 0 .4 0 .4.2h.1l-.2-.2zm-24.6-13v.1l.3-.3-.2.1-.1.1zm.2.2-.2.1-.2.2h.2v-.2l.2-.1zm14.7 5.6-.4-.2s.2 0 .2.2h.1a51.6 51.6 0 0 1 0 0zm4.6 5.5-.2-.1.2.1.2.2v-.1l-.2-.1zm-20-9.8h-.1c0 .1 0 .2-.2.2v.1c.1 0 .2 0 .2-.2zm3.5 15.4h-.1l.3.3-.1-.3zM.8 13.8H.4l.3.1zm43 10.2c-.1-.1-.2 0-.2 0l.3.1V24zm-4.7 3.5-.1-.1-.2-.1.3.2zm-17-1.4-.3-.1.1.1.2.1h.1-.1zm5.6-16-.4.2h.4v-.1zm15.6 7.4h.3-.3zM3.6 14h-.2l.4.2-.2-.2zM15.4 5l.1-.1c.1 0 0 0 0 0h-.1V5zm9.5 22.8h-.1l.3.2-.2-.2zm17.8 3.4c.2 0 .2-.2.2-.3l-.2.3zm-21-17.5.3-.2-.3.1zm1.6-1.3-.2.1v.1c.1 0 .2 0 .2-.2zm.3.3v.1-.1zm-.2 1v.2l.2-.1v-.1h-.1zm.8-.3.1-.2-.1.1c0 .1 0 0 0 0zm.2-1-.2.2s.2 0 .2-.2zm16.3 5.5h-.2.2zm-17.5-5H23v.1l.2-.1zm-.8 2h-.1v.1h.1v-.1zm9.8 16.5H32l-.1.1h.2v-.1zm-2-5.6v.1h.1zM26 28.4h-.1l.1.1zm3-18v.1c0-.1 0-.1 0 0zm10 7c.1 0 0 0 0 .2h.1l.1-.2H39zM15 5V5 5zm8.3 9.6h-.1v.1c0 .1 0 0 0 0v-.1zm1.3-2.5s0-.1 0 0h-.1zM40 16.9h-.2s.1.1.2 0zM42.6 31v.1-.1zM21.7 14.2l-.2.1h.2zM40.5 18h.1-.1zm-29.7-.3h-.2.2zM41 18h.1-.1zm1.1 13zm1.8-6.8h-.1l.2.1zm-.5-6.5h-.1.1c.1 0 0 0 0 0zm-5 8.8h-.1zm3.9-3h-.2v.1h.2v-.1zm0-6.7h.1-.1zm-.2.4h.1-.1zm-.8.6h-.2.2zm-.5-.3a4.3 4.3 0 0 0-.2 0h.1zm-.3-.6h-.1v.1zm-1.4.9h.1zM22 14h-.1zm.7-1 .2-.1-.2.1zm-.5 1.2h.2-.2zm8.4 17.3c0 .1.1 0 .2 0h-.2zm-3.1-20.9h-.1zm21.3 15c-.1 0 0 0 0 0zm-25.7-4.6H23h.1zM28 10h-.1c0 .1 0 .1 0 0zm0 20.3.1.2v-.2zm.3 0v.1zM27 11s.1 0 0 0zm20.6 14.2v.1zM15.8 3.5h.1zM15.1 5V5 5zm36 11.2H51zm-28-2.4h-.2.1zm8.7 16.6v.1zm12.5-6.3h-.1v.1h.1zm-5.4-6.5v.1zm5.8 3h-.1.1zm-4-2.7h.1zm1-.3zm.3-.6h.1zm2 3.5h-.1zm-2 2.7zm-3.4 3.4h-.1v.1zm5.1-8.8h.1zm-1 5.1h.1zm-.8-4.8zm-.2-.9v.1zm-3 .4v-.1zm0-.4h-.1l.1.1zm-.1-.2h-.1c0 .1 0 0 0 0s.1.1.1 0zm-8.2 14.7h.1zm1.9-4.2h-.1.1zm-4.5 2.7h.1zm-.5-.5h-.1zm2-4.4zm-1-14.9h.1zM25 12v-.1zm-9.9-7c0-.1 0 0 0 0zm8.4 9.7zM15.8 4.1zm7 10.1zm-7-9.8v-.1.1zm7 9.6zm-.3.2h.1V14zm-.1.3zm1-1.9h-.1v.1zm-12.9 5zm9.8-.2zm-.6.4h.1v-.1z"/>
    </symbol>
    <symbol id="icon-flower2left" viewBox="0 0 48 32">
      <path d="m24.4 29.7.1-.2.4-.4.4-.4h.1l.4-.3s-.1-.1 0-.2h.1c.1-.1 0-.1 0-.1l.3-.2h.1v-.2h.2l.2-.2h.1l.7-.4.4-.3.7-.4h.2l.2-.1.7-.4.3-.2v-.1c.3 0 .4-.2.5-.3l.3-.1.2-.2.2-.1.4-.4.2-.2.2-.2V24h.1v-.2h.2l.2-.5.3-.8.1-.4.1-.2.3-.5h.1V21l.2-.1v-.1l.1-.2h.1l.7-.8c.1 0 .2 0 .2-.2h.3c.1.2.3.2.5.2l.3.1.6.1h.4l.3.2h.9c0 .1 0 .1.1 0h.1c.1.2.3.1.4.1h1.6l.6-.2s0-.1 0 0h.1l.8-.3.6-.2.3-.1.4-.1.8-.3.4-.2 2-1 .1-.1.7-.5.4-.2.4-.2.5-.3.3-.2.5-.3.2-.2c.2 0 .4-.2.6-.4l.4-.2.4-.4.2-.2.2-.1v-.1l-.3.1h-.1l.3-.2h.1V14H51v-.1h-.2v.2h.1v.1c0 .1 0 0-.1 0s-.1 0 0 0h-.2v.1l-.3-.1V14h.3l.2-.1v-.4l.2-.1-.2-.1h-.1c0-.1-.1-.1-.2 0h.1l.1.2h-.1l-.1.1-.1.1-.5.1.1-.1h.3v-.1l.1-.1c0-.1 0 0 0 0v-.2h.1s0-.1 0 0H50v.1h-.3s-.2 0-.1-.2v-.1l-.2-.1h-.1v.1l-.2.1-.3.2h-.4l-.3.2-.3.1-.3.2h-.2v.1l-.4.3-.4.2h.1c-.2 0-.2.2-.3.2l-.3.2-.3.2c-.2 0-.3.2-.5.3v-.1l-.8.4h-.2l-1 .5V16l-.2-.4v-.2l-.2-.3s0-.2-.2-.3c0-.2-.2-.3-.3-.5v-.7l-.1-.5-.2-.9-.2-.7a3 3 0 0 1-.2-.9v-.9l.3-1.5V5.7l-.1-1-.2-1-.5-1-.3-.5-.1-.2V2l-.3-.4C40 1 39.5.6 38.9.4l-.7-.2h-.5a5.5 5.5 0 0 0-1.4 0l-.5.2a18.2 18.2 0 0 1-.7.5H35l-.1.1-.3.4v.1l.1-.2h.1V2l.1-.1c0 .1 0 0 0 0l.2-.1v-.1h.1v1.7l.1.7.1.3v.1l.1.2.1.1.1.2V5l.3.3v-.1c.1-.1.1-.1.2 0l.2.1h.1V5.6l.1.4V7.3a38.3 38.3 0 0 0 0 .8l-.1.5v3l.2.5v.3l.3.7.1.1.2.3v.1c.5.5 1 .8 1.5 1 0 .2.2.2.3.3.2 0 .3 0 .4.2l.4.7.3.5.3.6.4.4-1 .3h-2.2l-1-.2h-.1l-1-.5-1-.6a21 21 0 0 1-2-1.6l-.7-.5-1-.6.2.1.2.2h.1l.4.3.4.3c.2 0 .2.1.3.2-.1 0-.2 0-.3-.2-.1 0-.2 0-.3-.2h-.1l-.4-.3h-.1l-3.8-2.4-1.3-.7-1-.5-.6-.2-.9-.3-.3-.1-.6-.2h-1.4a2 2 0 0 1-.3 0l-.9.3c-.3 0-.5.2-.8.4l-.4.2-.3.2-.7.6-.7.5c-.4.4-.9.8-1.2 1.3l-.4.4a11.2 11.2 0 0 0-.9 1.2s0 .2-.2.3l-.3-.1a22.7 22.7 0 0 1-3-.8l-1-.2a7 7 0 0 0-1.5-.2l-.4-.1h-.7a2 2 0 0 1-.4 0H5L4 14l-.7.1-.7.3-.5.2-.4.2c-.2 0-.3.2-.4.3l-.6.6-.3.5c0 .2 0 .3-.2.4v.2h.2l.1.1V17.2s-.1 0 0 0h.2v.1l-.2.1-.1.1-.1.1H.1v-.1l-.1.2v.8l.1.2.1.2.1.2c.2.3.4.4.6.5l.2.1 2 .5.8.2.6.2a11.3 11.3 0 0 0 1 0l.1.1c-.4.4-.8.8-1 1.2l-.1.1-.7.8-.6.8a2 2 0 0 0-.4.8V24.6l-.2.3v.6c-.1 0-.1 0 0 0a44.5 44.5 0 0 0 0 .5l.1.3v.3l.2.2v-.1c.1 0 .1.1 0 .2.2 0 .2.1.2.2l-.2.1.3.1h.1l.2.2h.2l.1.2c.1.1.3 0 .4 0H5c.1.2.2.2.3.2a3.2 3.2 0 0 0 1.6 0l.7-.2h.1l1-.5v.2l-.1.6v1.5l-.2.2v.1l.1.1V31.1h.2s0 .1.1 0l.1.1h.4l.2-.1.1.1h.1l.1.1v.1h.1l.2.1c.1.2.3.2.5.1l.5-.1.5-.2.6-.2.5-.3h.1l.4-.2.3-.2.3-.1.2-.2.8-.7.6-.7.3-.6a27.3 27.3 0 0 1 .8-2.1l.2-1.4v-3.2l-.2-.8V20l-.1-.2V18.7l-.1-.2V18l-.2-.5-.1-.6v-.2l.4-.4.3-.2.6-.8.2-.3.2-.2.6-.7a5.5 5.5 0 0 1 1.4-1.2l.7-.3 1.5-.3h1l.2.1 1.2.5.7.3c.2 0 .3.2.5.3.2 0 .4.2.6.4 0 0 0-.1 0 0h.2v.1H26.6v.2l.3.3v-.1a24.5 24.5 0 0 1 .2.3l.6.4-.1-.1h.2V15.3l.2.2h.1l.1.1h.2v.2l.5.3.3.2.5.3h.3l.1.2.2.2.3.1.1-.1h.1c.1 0 0 0 0 0l-.2.1.1.1h.3l.1.2c0 .1 0 .2.2.2v-.2.1l.1.1.2.1c.1.2.2.2.3.2v.1l-.2.2v.2h-.1l-.1.1-.3.1h.1v.1s-.1.1-.1 0H31l-.1.1v.2l-.2.2h-.1v.1c-.1 0-.2.1-.2 0l-.2.1v.2c-.1.1 0 0 0 .1H30l-.3.2h-.1l-.1.2-.2.1-.2.1H29l-.5.4c-.2 0-.3.2-.5.3l-.4.2s0 .1 0 0h.4V21h.2l-.2.2-.4.3h-.3v.1H27l-.3.1h.1v-.1l-.5.1-.3.2H26l-.6.3H25l-.2.1-.2.1-.2.1h-.1l-1 .6h-.3c0 .2-.2.2-.3.2l-.5.3-.7.4-.1.2-.4.3-.1.1v.1l-.3.2c0 .2-.1.2-.2.3l-.1.2-.2.3-.4.4-.1.1-.2.3h-.1v.2c-.1 0-.1 0 0 0v.1H19V27.3h-.2v.2l-.1.1-.1.2h.1s.1-.1.2 0l.2-.1h.1v.2l-.1.2v.2l-.2.1V29.1h-.2l.1.3v-.1s0-.1.1 0l.1.3v.2-.2h-.4l-.3-.3V29c0 .2 0 .4.2.5l.1.1h.1l.4.2c.1 0 .2 0 .2.2v.2h.1H19.2L19 30v.1l.3.3.7.5-.3-.1-.1.2H19s0-.1 0 0l.1.2h.1c.1.2.3.3.5.3v.1h.2s0 .1.1 0l.2.1v-.1h-.1v-.1h.5v.2h.2s.1.1.2 0l.4-.1h.2l.4-.2c0-.2.2-.1.3-.2l.1-.2v.1c.2 0 .3-.2.4-.4v-.2h.2v-.1h.4l.2-.1v-.1h.2c0-.2.2-.3.3-.3h.1l.1-.2h-.1.1zm1-18.1h-.1v-.1h.2v.1zm2.3.7h.1-.1l-.2-.2s.2 0 .2.2zM12.1 17c0-.1.1-.1.2 0H12c0-.1 0 0 0 0 .1-.1.1 0 .1 0zm-8.6 7.7h-.1v.1-.2l.1-.4.1-.2h.1l-.1.2v.2l-.1.1c0 .1 0 0 0 0v.2zm9.8 1v.1-.4h.1V25l.1-.3.2-.3.1-.1V24.7l-.1.2v.1h-.1v.4h-.2v.3h-.1zM4 24.6v.2h-.1v-.4H4v.1zm5-7.3h-.2.4v.1h-.1zM13 27l-.1-.1c.1-.1.2 0 .2 0l-.1.1-.1.1c0-.1 0 0 0 0zm16-11.8h-.1V15l-.2-.1H28.3V14.5l.3.1v-.1c0-.1 0-.1.1 0h.1l-.1.2c-.1 0-.1 0 0 0l.1.1h.1v.2zm-15.1 3.8v-.1H13.4l.1-.4s.1-.1 0-.2v.2l-.2.3h-.2v-.2H13v.1h-.2v-.1l.4-.4s.1 0 0-.1v-.2c.1-.1.1-.2 0-.4.1 0 0 0 0-.1v-.4h.2l.2.1v.4l.2.3V18.6s.1 0 0 0v.2l-.2.4V18.8zm-1.5-1-.1.1h.1c.1-.2.2-.1.3-.1h-.2l-.1.2V18zM25 28.8l-.3.3v-.1h.1c0-.1 0-.2.2-.2v-.2h.2v-.1c0 .2 0 .2-.2.3zm-15.6-11 .1-.1H9c0 .1 0 .1-.1 0l-.1.1h-.6.1l.3-.1H9.5zm3.6 8.3h.1v.1c0 .1 0 .1 0 0l-.2.2c-.1-.1 0-.2 0-.2-.2 0-.2.2-.3.2l-.1.2a5 5 0 0 0-.4.6l-.4 1h-.2V28l.2-.5.2-.5.2-.5.2-.1V26l.3-.2.1-.2h.1l-.1.2v.1h.1c.1.1.1 0 .1 0h.1v-.2.1zm14-12.2.2.1v.1H27v-.2h.2l-.2-.1v-.1h.2v.2zM3.8 23.6v.2l-.2.5-.2.1V25l-.3.2v-.5l.2-.2h.1v-.1s-.1 0 0 0V24l.1-.2.3-.3v-.2.2zM28.2 13s-.1.1-.2 0c.1-.1.1 0 .2 0l.2.2h.1l.3.2.7.5c.1 0 .1 0 0 0h-.2c0-.1 0 0-.1 0l-.2-.2h-.2v-.1l-.2-.2h-.1l-.2-.1-.1-.2zM3 25.6l.2-.1h.1V25.9l-.1.1-.1.2H2.8V25.8h-.1l.2-.1.1-.1zm15.3-14c0 .1-.1.2-.3.2 0 .2-.2.2-.3.3h-.1v.1c0 .1-.1 0-.1 0h-.1V12l.4-.3.7-.5h.1-.1l-.1.1-.1.1zm3.4 19.8c-.1 0-.1 0 0 0v-.2h-.2V31c.1.1.1 0 .2 0h.2l-.1.1H22.2c.1 0 0 0 0 0v.1H22c0 .2-.1.2-.2.2zM13 17.9h-.2l-.1.1V18l.4-.3h.1l-.1.3H13zm15.9-5.2-.2.1h-.1c0-.1 0-.2-.2-.2v-.1h.2l.3.2zM12.6 17h-.4l-.1-.1H12a3 3 0 0 1 .7 0zM26 27.7h.1l-.1.2c-.1 0-.2 0-.2.2h-.1v-.2h.2v-.1zm22.3-14 .5-.3-.2.2-.3.1s0 .1-.1 0h.1zM3.2 25.2l.2-.2h.1v.2l-.4.1H3l.2-.1zm24.4-13v.2a.7.7 0 0 1-.3-.3h.2v.2zm-.2.2.2.2h.2v.1h-.2v-.1l-.2-.2zM12.9 18l.3-.1s-.2 0-.2.2a36.5 36.5 0 0 0 0 0zm-4.7 5.5h.3c0-.1 0 0 0 0h-.2l-.2.2.1-.2zm20-9.7s-.1 0 0 0c0 .1 0 .2.2.2 0 .1 0 .2-.1.1l-.1-.2zm-3.6 15.3h.1l-.3.3.2-.3zm25.8-15.3h.2-.3.1zm-42.7 10H8c-.1 0-.3 0-.3.2-.1 0 0-.1 0-.1v-.1zm4.7 3.5.1-.1.2-.1-.3.2zm17-1.4h.2-.1l-.2.1H29h.2zm-5.7-15.8.4.1h-.4zM8.3 17.4h-.4.4zM47.6 14l.2-.1-.3.2.1-.1zM36 4.9h-.2v-.1h.1V5zm-9.6 22.6h.2l-.4.2.2-.2zM8.8 30.8v.1l-.1-.3.1.2zm20.8-17.3-.2-.1h.2zM28 12.2l.3.2-.3-.1zm-.2.3v.2-.2zm.1 1v.2l-.1-.1h.1zm-.8-.3V13l.1.1v.1zm0-1 .1.2-.2-.1zm-16.3 5.5H11.1h-.3zm17.4-5h.2v.1h-.2v-.1zm.8 2v.1-.1zm-9.7 16.4h.1v.1l-.1-.1zm1.9-5.6v.2-.2zm4.3 2.7h.1l-.1.1zm-3-17.8s.1 0 0 0zm-10 6.9v.1-.1zM36.3 5V5 5zm-8.2 9.5h.1v.1H28v-.1zm-1.3-2.5h.1-.1zm-15.2 4.7h.1s-.1.1-.1 0zM9 30.8v.1h-.1v-.1zm20.6-16.6h.2-.2zM11 17.9s-.1 0 0 0zm29.5-.3h.1-.2.1zm-30 .4h-.2.2zM9.2 31v-.2c.1 0 .1.1 0 .1zm-1.8-6.8h.1-.1s-.1 0 0 0zm.5-6.5h.2H8zm5.1 8.7H13h.1zm-4-3 .2.1h-.1zm0-6.6zm.3.4h-.1zm.8.6h.1-.1zm.5-.4a4.2 4.2 0 0 1 .1 0c0 .1 0 .1-.1 0zm.3-.5v.1zm1.3.8v.2-.2zm17-3.7h.2v.1l-.1-.1zm-.7-1h-.1v-.1l.1.1zm.5 1.2H29h.1zM21 31.4h-.2.1zm3-20.7h.1zM2.8 25.5c.1 0 0 0 0 0zM28.3 21v.1zm-4.9-10.8h.1zm0 20.1v.1h-.1zm-.3 0v.1-.1zm1.3-19.3zM4 24.9v.1zM35.5 3.6c-.1 0-.1 0 0 0zm.7 1.6V5 5zM.6 16v.1zm27.8-2.3h.1-.1zm-8.8 16.5h.1v.1zM7.3 24.1zm5.3-6.5zm-5.7 3h-.1zm3.8-2.7h.1-.1zm-.8-.3h-.1.1zm-.4-.6zm-1.9 3.5zm2 2.6h-.1zm3.3 3.4h.2v.1H13zm-5-8.8h-.1zm1 5.2h-.2.1zm.8-4.8h-.1zm.1-.9v.1zm3 .3zm0-.3h.1-.1zm.1-.2h.1-.1zM21 31.6zm-1.8-4.2zm4.4 2.7h-.1zm.6-.5zm-2-4.4H22zm.9-14.7H23zm3.3 1.3zm9.8-7zm-8.3 9.7zm7.6-10.4zm-7 10h.1zm7-9.7h.1zM28.6 14v-.1zm.3 0v.1h-.1zm.1.4h-.1.1zm-1-1.8h.1zm12.8 4.9zm-9.7-.3H31zm.5.4h-.1.1z"/>
    </symbol>
    <symbol id="icon-flowerdown" viewBox="0 0 31 32">
      <path d="m18.6 7.7.1-.2.2-.4.2-.4.1-.2.2-.3.3-.6h-.1l-.2.3v-.3l.1-.2.1-.4c.1-.1.1-.1 0-.2l-.4.1-.2.1h-.1l-.6.3-.3.2c-.1 0-.2 0-.3.2a25 25 0 0 0-.8.5l-.5.3-.2.2-.4.2-.1.2h-.2a10.6 10.6 0 0 0-.8.8l-.3.4-.1.1-.2.1-.2.3-.6.7-.2.3-.3.5a7.1 7.1 0 0 0-.3.7l-.2.3-.3.6v.2l-.1.1-.2.4v.3h-.1v.2l-.2.6v.2l-.2.3-.1.5-.2.7v.2l-.1.6-.1.4v.3h.5l.6.1.5.1.5.2h.3l.3.2h.2l.3.2.3.1.5.4.3.3.4.6a12 12 0 0 0 .6 1.2l.1.2.1.3.2.3v.5l.1.1.2.8v.6l.1.2v3.1l-.1.7-.1.5-.1.3v.2l-.3.6v.2l-.3.8-.2.4-.1.3-.2.3-.1.1-.4.5a.8.8 0 0 1-.7.2h-.8l-.5-.4-.4-.7-.2-.7-.1-.6V28.5H12v-.1l-.5 1.1a7.2 7.2 0 0 1-.9 1.5c-.1.2-.3.4-.6.5h-.6a.6.6 0 0 1-.4-.2l-.2-.2-.1-.5v-.4l-.1-.3V27.8h-.1l-.4 1-.1.3-.3.4-.2.4-.4.6c-.3.3-.5.6-.9.7-.2.1-.4.2-.6 0l-.4-.1a1 1 0 0 1-.4-.5 3 3 0 0 1-.1-.9s-.1-.1 0-.2l-.1-.2V27.5c-.1 0 0-.1 0-.2h-.1l-.2.4v.1l-.3.7-.2.5-.2.4a31.5 31.5 0 0 1-.5.8l-.4.7-.6.7-.6.3c-.1 0-.2.1-.4 0-.1 0-.3 0-.4-.2l-.2-.1-.4-.6v-.4c0-.2-.2-.4-.1-.6v-.2l-.1-.3v-1.8l.2-.5v-.5l.2-.5v-.4l.1-.3v-.3a14 14 0 0 1 .4-.8V24c.1 0 .1-.1 0-.2H1l.2-.3.1-.4.3-.5c.2 0 .2-.2.2-.2l.2-.3.5-.7-.2.4-.1.3-.2.5-.1.3-.1.1H2l-.1.3-.1.2-.2.4.2-.3.5-.9v-.2l.2-.1V22.8c-.1 0-.2 0-.2.2l.2-.2v-.2l.1-.1.6-1 .3-.3c0-.2.1-.2.2-.3l.2-.3.3-.2h.1l.1-.2.3-.3.1-.2.2-.2v.2H5l.1-.2h-.2.1l.2-.2.1-.3-.2.1.1-.2.1-.1.3-.3h.2l.3-.3.1-.1h.3V18l.3-.1v.1H7l.2-.2.2-.1.2-.1.5-.2.9-.3h.2v-.8l.2-.3.1-.3V15l.2-.1c-.1-.2-.1-.3 0-.4V14.3l.2-.5v-.2l.3-.5V13v.4l-.1.5v.1l.2-.4.2-.6.1-.2-.2.1H10l-.1.1-.5.3-.2.2-.6.4h-.1c-.2 0-.3 0-.4.2V14H8l-.2.2h-.2c-.1.2-.3.2-.4.3H7l-.1.1-.2.2h-.5v.2h.2L7 15l-.1.1v.1h-.5l-.2.1h-.4l-.1-.2h-.1v-.4h-.2v-.2h.1V14l.2-.1H5.3v-.1H5l.2-.2v-.2l.1-.2c0-.2.2-.3.3-.4l.2-.1.3-.3c.2 0 .3 0 .4-.2h.3c0-.1 0 0 0 0L7 12c0-.1 0 0 0 0h.1v-.2h.2c0-.1 0-.1.1 0h.1l.2-.2.3-.1v-.1l.4-.3h.3a21.6 21.6 0 0 0 .8-.2h-.3l-.3.2h-.1l.8-.1H10.5l.3-.5.2-.4v.2h.1v.1h.1a2.6 2.6 0 0 1-.3.7l.2-.1h.1s.1.1.1 0h.1V11l.2-.2.1-.3.2-.2.1-.3.1-.1.1-.2h.1l.2-.4.2-.3h-.1l.2-.3.2-.1v-.2l.4-.4.1-.2c.1 0 0 0 0 0v-.1h-.3v.1L13 8v-.4H12.7l-.2.1h-.1l-.2.1H12l-.3.2h-1.1l-.7.2H8.1l-.3.1H7h1.3A5.7 5.7 0 0 0 9 8V8h.4c.1 0 .2-.1.1 0h.3v-.1h.2l.4-.1h.2l.2-.2H9.1a6 6 0 0 0-.6 0h-.1l-.5.1h-.2l.3-.1H8.7l.5-.1H9c-.1-.1-.2-.1-.4 0v-.1h-.2l-.5.1H7.7 8v-.1h-.7c-.1-.2-.2-.1-.3-.1H5.5s0-.1-.1 0h-.1L5 7h-.6V7l-.3-.1H4v-.2h-.1l-.2-.1c0-.1-.1-.1-.2 0h-.1v.2l.3.3.4.2v.1h-.2L3.4 7l-.2-.2v-.2L3 6.5V6L3 6l.1-.3h.2v.1h.1v-.1l.1-.2c.2 0 .1-.2.1-.3h-.3v.2h-.2c0 .1 0 .2-.1.1v-.2h.1v-.4c.1 0 .2 0 .2-.2.2 0 .3-.2.3-.2l.4-.2H4v.1h.1l.6-.1.2-.1V4h.1v.2c0 .1 0 0 0 0h.4v-.1c0-.2.2-.3.4-.3v-.1h.6l.4-.2H7l.4-.1h.3l.2-.1.3-.1H9l-.7.1-.5.1-.5.1-.6.2H7h-.2l-.3.1H8l1-.2h.4l.7-.1h.2-.1l-.2.1h1-1.3a2 2 0 0 1-.4.2H9a4.6 4.6 0 0 1-.6.1H8.1v.1H7.8l-.1.2H7a2 2 0 0 1-.6.2h-.1 1.4l.2-.1h.4H8l-.5.1-.5.2-.5.1H6l.1.2h.1v.1h.1v.1h-.2v.1s-.1 0 0 0v.1h.6-.1v-.2h.2V5l.5-.1.3-.1.3-.1.2-.1H8.4c0-.1 0 0 0 0l-.6.3h-.3v.1h.3l.7-.2H9.5 9l.3-.1h.9l.3-.1.2-.1.1-.1v-.1l.6-.2h.5V4h.2l.2-.1v-.1H12l.2-.1h.2l.1-.1.3-.1-.1-.1a19.1 19.1 0 0 0-.5 0H13l.1-.1.1-.1H14l.7.1h.2l.3.3h.2l.2.2.6.1h.2v.1h.1l.2.1-.1.1s0 .1.1 0l.2.1c.1.1.2.1.2 0h.3L18 4l.5-.3H18.7l.2-.1.7-.3.7-.2h.4l.4-.1h.2l.3-.1h.1a12.5 12.5 0 0 1 1.8 0l.3.1h1.1l.1.1H25.3l.6.3c.2 0 .4 0 .6.2h.2l.1.1.2.1.3.2.3.1v.1s.1-.1 0-.2V2.7l.1-.3.1-.5.1-.5.1-.3V.9l.2-.2V.5l.3-.3.3-.1h.5c.2 0 .3.1.4.3l.3.3v.5c.2.3.2.5.2.8V3.8l-.1.4-.4 1v.2c0 .2-.2.3-.3.5V6l.5.7A7.7 7.7 0 0 1 31 9l.2.7a20.6 20.6 0 0 1 .1 1.2v2.8l-.3.9-.1.3v.2l-.2.1-.4.2-.5-.1-.2-.3V14l.1-.3v-.5l.1-.5v-2.2l-.3-1c0-.3 0-.6-.2-.8v-.1L29 8l-.2-.3-.2-.2-.1-.2-.1-.2-.4-.5-.5-.6-.2-.2-.2-.3-.4-.4-.2-.2-.4-.2-.2-.1-.2-.1-.5-.2H25a3 3 0 0 0-.8-.2H24L23 4h-.5c-.1 0-.2 0-.1.2v.5l.1.5v1c.1 0 0 0 0 .1v2.1l-.1.4-.1.4-.2.6-.2.7-.1.4a15 15 0 0 1-.7 1.8l-.2.2-.2.4a14.8 14.8 0 0 1-.8 1.2l-.4.3h-.3l-.4-.1-.4-.1-.2-.2a2 2 0 0 1-.4-.6v-.3l-.2-.8v-1.6l.1-.5v-.4l.1-.2v-.3h.1l.3-.7.1-.5.2-.5v-.4zm8-3.8h.1-.1l-.3-.2H26a.5.5 0 0 0-.3-.2h-.3.3l.5.2.3.2zM9 11.4h-.4l-.2.1-.3.1s0 .1 0 0h.4l.2-.1H9l.1-.1h.2v-.1a5.7 5.7 0 0 0-.2 0zm-2.1.9.3-.1.2-.1h.1V12h-.2l-.4.3h-.4v.1h.2l.2-.1zm1.3-.1.3-.1.3-.2.3-.1h.1v-.1h-.1a5.4 5.4 0 0 0-.8.4h-.2l-.1.1-.2.1v.1H8.3l.1-.1v-.1zm-2.8 1.2h.1c0 .1 0 .2-.2.3l.2-.1.5-.4s0-.1 0 0L6 13l-.4.2v.1h-.2v.1h.1zm5.3-7h.1l.2-.1h.2l-.4.2H11.6l.2-.2h-.2v-.1l.2-.1h-.2c-.1 0-.1 0 0 0v-.2H9.8l.2-.1h-.7l-.2.2-.1.2v.1l-.3.2H8.5l-.1.1h.4c0 .1 0 0 0 0h.7l.3-.1c0-.1.1-.1.1 0h.2l.5-.2v.1h.2zm-1.5-1v-.1h.2v-.1H9.9L10 5h.1V5H8.2l-.5.2h-.1l-.2.2-.5.2h-.2l-.2.2h.1-.2V6c0 .1 0 .2.2.1h.1c0 .2 0 .2.1.1h.2l-.1.2h.2l.2.1.3-.2V6l.4-.2v-.1l.2-.2v-.1H8.7v-.2l.2-.1H9l-.2.1v.1h.4H9l.1.1v-.1H9.5zm-4 21.5c.1 0 0 0 0 0v.5l.1.4v.9l.1.3V30.2l.2.3.1.2H6.1l.3-.3.4-.5.2-.3v-.1l.2-.2.2-.3v-.2l.3-.6.1-.2v-.2a17.9 17.9 0 0 0 .7-2.2H9l.3.3v.7l.1.3V30l.1.1v.5l.1.3h.1c.3-.2.6-.5.8-.9l.3-.5.1-.4.2-.4.2-.3v-.2l.3-.9.1-.7V25h.2v-.2h.6l.2.1v.1l.1.1.2.7.2 1v.6l.2.8v.6a32.8 32.8 0 0 0 .5 1.8c0 .1.1.1.2 0v-.1c.3-.3.4-.6.5-.9l.2-.4v-.2l.1-.3s.1-.1 0-.2l.1-.1V28c.2 0 .2 0 .2-.3l.1-.4.1-.5v-.5.2h-.1v-.2l.1-.4V25.6h-.1v.1-.2c0-.2.2-.4.1-.5v-.1l.1-.4v-1.2l-.2-.6v-.1l-.1-.2v-.2l-.1-.4-.3-.6-.1-.4-.2-.3c-.1 0 0-.2 0-.2l-.2-.3V20l-.3-.3-.2-.1v-.1h-.1l-.2-.3h-.1a1 1 0 0 0-.6-.3h-.1l-.7-.1-.3-.1h-1.4c-.4 0-.7 0-1 .2l-.6.1-.3.2-.4.1-.5.2a1 1 0 0 1-.4.2h-.3c0 .2-.1.2-.2.3v.1h-.2v.2l-.4.4a6 6 0 0 0-.5.7h-.1a3 3 0 0 0-.4.6l-.2.3-.3.5-.4.7-.1.4-.1.2-.2.4-.1.2-.2.2-.1.2v.3l-.1.2v.3a10.1 10.1 0 0 0-.5 1l-.2.4-.2.6v.1l-.2.4-.2.6v.4l-.2.4V31l.5-.5.6-.9.2-.5.1-.1.2-.2.2-.5.3-.7.2-.4V27l.2-.6v-.2l.2-.6c0-.1 0-.3.2-.3.2-.2.2-.1.4 0l.3.6v.5l.1.2v.3zm16-20.6a52 52 0 0 0 0-.6L21 6l-.2.4-.2.6s0 .2-.2.3l-.1.3v.1L20 8v.2l-.3.8v.2l-.1.4-.1.4.1-.1.1-.4v-.1l.1-.2V9l.2-.2v-.2s0-.1.2 0v.1l.1-.2.1-.2V8l.2-.4.1-.2.2-.7.1-.3v.2l-.1.6-.1.4-.2.4v.2l-.2.9-.3 1v.3l-.1.5-.2.6v.4l-.1.4-.1.5v.2-.1l.2-.5.3-.7.3-.6v-.3l.3-1 .1-.5.1-.4v-.3s.1 0 0-.1v-.6l.1-.5V7l.1-.7zm-9.6-2h.8l.2-.1V4h-.4l-.7.2zM1.7 26v.2h.1L2 26l.1-.2h-.1v-.2h-.1l-.2.4zm.9-.5.1-.1H3L3 25l.2-.4-.3.3-.3.5zM8 12.7h.3l.2-.2.4-.2.2-.1H9l-.3.2-.3.1-.1.1-.1.1zm2.2-7.9a1 1 0 0 1-.5 0h-.2V5h.7v-.1zM5.7 15l.1.1H6.2h-.2V15h-.2zm.6-2c.2 0 .3 0 .4-.2l-.4.2zm1.9.5v-.1H8v.1h.2zM20.5 5l-.2.5v.1l.2-.5zM6.8 4.6l-.4.1h.4zm-.9 1.2a3.7 3.7 0 0 0 .2 0v-.1H6zm5.2 5.6h.2v-.1H11v.1zM2.2 26v.1l.2-.3-.2.1v.1zM16.4 4.7h.1v-.1h-.2c0-.1 0-.1 0 0-.1 0 0 0 0 0h.1zM8.1 13h.2H8zM4.7 20l-.1.1c0 .1 0 .1 0 0l.1-.1zm1.5-7.4-.3.2.3-.1zm3-1.2v.1h.1zM12.7 4h.1zm-4.8 8.5H8h-.1zm-3.2-6v-.1h-.1l.1.1zm9 1v.1h.1v-.1l-.1.1zm-4 4h-.2.2zm-1.3-.1h-.2v.1h.2v-.1zM2.6 25.9a7.2 7.2 0 0 0 .1-.2v.2zm3.1-7v.1zm.5-13.4H6v.1h.2zM7.7 13a4.4 4.4 0 0 0 .2 0h-.2zm11.4.8h.1zm-8-9.3zm5.1-.1zm8.1-1.1zm.4 0zM7.5 12.3h.1zm0-.1h.2-.1zm.8-.1V12zm-.6-.2h.1zm13-7.2zM1.3 25.4z"/>
    </symbol>
    <symbol id="icon-flowerup" viewBox="0 0 31 32">
      <path d="m12.7 24.3-.1.2-.2.4-.2.4-.1.2-.2.3-.3.6h.1l.2-.3v.3l-.1.2-.1.4v.2l.4-.1.2-.1h.1l.6-.3.3-.2c.1 0 .2 0 .3-.2a21.9 21.9 0 0 0 .8-.5c.2 0 .3-.2.5-.3l.3-.2.3-.2.2-.2a10.6 10.6 0 0 0 .9-.8l.3-.4.1-.1.2-.1.2-.3.6-.7.2-.3.3-.5a7.5 7.5 0 0 0 .4-.7v-.3l.4-.6v-.2l.1-.1.2-.4V19h.1v-.2l.2-.6v-.2l.2-.3.1-.5.2-.7v-.2l.2-.6v-.7H20l-.6-.1-.5-.1-.5-.2h-.3l-.3-.2h-.2l-.3-.2-.3-.1-.5-.4-.3-.3-.4-.6a11.7 11.7 0 0 0-.6-1.2l-.1-.2-.1-.3-.1-.3v-.2h-.1v-.4l-.3-.8v-.6l-.1-.2V5.6l.1-.7.2-.5v-.5l.3-.6v-.2l.3-.8.2-.4.1-.3.2-.3.1-.1.4-.5a.8.8 0 0 1 .7-.2h.8l.5.4.4.7.2.7.1.6V3.5h.1v.1l.5-1.1a7 7 0 0 1 .9-1.5c.2-.2.3-.4.6-.5h.6c.2 0 .3 0 .4.2l.2.2.1.5.1.4v2.4h.1l.4-1 .2-.3.2-.4.2-.4.4-.6c.3-.3.5-.6.9-.7.2-.1.4-.2.6 0l.4.1.4.5.2.9V4l.1.5v.2l.2-.4.3-.8c0-.2.2-.3.3-.5l.1-.4a31.5 31.5 0 0 1 .5-.8l.4-.7.6-.7.6-.3h.4c.1 0 .3 0 .4.2l.3.1.3.6v.4l.2.6V4.3l-.2.5v.5l-.2.5v.4l-.1.3v.3a14 14 0 0 1-.4.8V8s-.1.1 0 .2l-.3.3-.1.4-.3.5c-.2 0-.2.2-.2.2l-.2.3-.5.7.2-.4.1-.3.2-.5.1-.3.1-.1v-.3l.1-.2.2-.4-.2.3-.4.9H29c-.1 0 0 .1 0 .2l-.2.1V9.2c.2 0 .2 0 .2-.2 0 0-.2.1-.1.2l-.1.2-.1.1-.6 1-.3.3c0 .2-.1.2-.2.3 0 .2-.2.2-.2.3l-.3.2-.1.1-.1.1-.2.3-.2.2-.2.2v-.1l.1-.1h-.2v.2c-.1 0-.1 0 0 0l-.2.3-.1.2.2-.1-.1.2-.1.1-.3.3h-.2l-.3.3-.1.1h-.2l-.1.1-.3.1V14h-.1l-.3.2-.2.1-.2.1-.4.2-1 .3h-.2v.8l-.1.3-.2.3V17l-.1.1V17.8l-.3.5v.2l-.3.5v.1-.4l.1-.5V18l-.2.4-.2.6-.1.2.2-.1H21.3l.1-.1.5-.3.3-.2.5-.4h.2c.1 0 .2 0 .3-.2v.1h.1l.2-.2h.2c.1-.2.3-.2.4-.3H24.3l.1-.1.2-.2h.5V17h-.2l-.4.1h-.1c-.1 0 0 0 0 0l.1-.1v-.1h.5l.3-.1H25.6l.2.2h.1v.1l-.1.1v.2h.2v.2H26v.4l-.1.1h.2v.1h.2l-.2.2v.2l-.1.2c0 .2-.1.3-.3.4l-.2.1-.3.3-.4.2h-.3c0 .1 0 0 0 0l-.1.1h-.1v.2H24c0 .1 0 .1-.1 0l-.3.2-.2.1v.1h-.2l-.3.3h-.3a21.6 21.6 0 0 0-.8.2h.3l.3-.2h.1l-.8.1H20.8l-.2.5-.3.4v-.2h-.1v-.1H20a2.6 2.6 0 0 1 .3-.7l-.1.1H20s0-.1-.1 0h-.1v.2l-.2.2-.1.3-.2.2v.3l-.2.1-.1.2H19l-.2.4-.2.3h.1l-.2.3-.2.1v.2l-.4.4-.1.2v.1h.3v-.1l.2-.3v.4H18.6l.2-.1h.1l.2-.1h.3l.3-.2h1.1l.7-.2h1.6l.3-.1H24.3 23.8l-.7.1h-.7v.2h-.4c-.1 0-.1.1-.1 0h-.2l-.1.1h-.2l-.4.1h-.2l-.2.2H22.9l.5-.1h.3l-.4.1H22.6l-.5.1h.1c.1.1.3.1.4 0v.1h.2l.5-.1H23.6 23.3v.1h.7c.1.2.2.1.4.1H25.8s0 .1.1 0h.2l.1.2h.6v.1l.3.1H27.4v.2h.2v.1h.5l-.1-.2-.3-.3-.4-.2v-.1h.2l.4.3.2.2v.2l.1.2v.4l.1.1-.1.3H28v-.1h-.1v.1l-.1.2-.1.3h.3v-.2h.2c0-.1 0-.2.1-.1v.2s-.1 0 0 0l-.1.1V27.1c-.1 0-.2 0-.2.2-.2 0-.2.2-.3.2l-.4.2h-.1v-.1H27l-.6.1-.1.1-.2.1v-.2c0-.1 0 0 0 0H25.9s-.1 0 0 .1c-.2.2-.3.3-.5.3v.1h-.6l-.3.2h-.2l-.4.1h-.3l-.1.1-.4.1h-.7l.7-.1.5-.1.5-.1.6-.2h-.4.2l.3-.1h-1.4l-1 .2H22l-.7.1h-.2.1l.2-.1H21a3 3 0 0 1-.3 0h-.2H21.4l.4-.1h.3l.2-.1a4.6 4.6 0 0 1 .6-.1H23.2v-.1H23.5l.1-.2h.7l.6-.2h.1-1.4l-.2.1H23h.4l.5-.1.5-.2.5-.1h.4l-.1-.2h-.1v-.1H25v-.1h.2v-.1h.1v-.1h-.7.1v.2h-.2v.1l-.5.1-.3.1-.3.1-.2.1H22.9l.6-.3h.3v-.1h-.3l-.6.2h-1.1.4l-.3.1H21.6a1 1 0 0 0-.4 0H21l-.3.1-.2.1-.1.1v.1l-.6.2h-.5v.1H19l-.2.1v.1H19.3l-.2.1h-.2l-.1.1-.3.1.1.1a12.8 12.8 0 0 0 .5 0h-.5l-.2.1-.1.1h-1l-.6-.1-.2-.1-.3-.2-.2-.1h-.2l-.6-.2H15v-.1h-.1l-.2-.1h.1v-.1s0-.1-.1 0-.1 0-.2-.1-.2-.1-.2 0h-.3l-.5.3-.5.3h-.2l-.3.1-.7.3-.7.2h-.4l-.4.1H10l-.3.1h-.1a12.1 12.1 0 0 1-1.8 0l-.3-.1H6.4l-.1-.1H6l-.6-.3c-.2 0-.4 0-.6-.2h-.2l-.1-.1-.2-.1-.3-.2-.3-.1v-.1 1.6l-.1.3-.1.5-.1.5-.1.3v.2l-.2.2v.2l-.3.3-.3.1H2c-.2 0-.3-.1-.4-.3l-.3-.3v-.5L1 30V28.2l.1-.4.4-1.1c0-.3.2-.4.3-.6V26l-.5-.6a7.5 7.5 0 0 1-1-2.3l-.2-.7a24 24 0 0 1-.1-1.2v-2.8l.3-.9.1-.3V17l.2-.1.4-.2.5.1.2.3v.9l-.1.3v.5l-.1.5V20.8l.1.7.2 1 .2.8v.1l.2.5.2.3.2.2.1.2.1.2.4.5.5.6.2.2.2.3.4.4.3.2c0 .1.1.2.3.2l.2.1.2.1.5.2h.2l.8.2h.2l1 .1h.5c.1 0 .2 0 .1-.2v-.5l-.1-.5V23.5l.1-.4.1-.4.2-.6.2-.7.1-.4a15 15 0 0 1 .7-1.8l.2-.2.2-.4a14.8 14.8 0 0 1 .8-1.2l.4-.3h.3l.4.1.4.1.2.2.4.6v.3l.2.8v1.6l-.1.5v.4l-.1.2v.3h-.1l-.3.7-.1.5-.2.5v.4zm-8 3.8h-.1.1l.3.2h.2c.1.2.2.2.3.2h.3-.3l-.5-.2-.3-.2zm17.5-7.5h.4l.2-.1.3-.1s0-.1 0 0h-.4c0 .2-.1.1-.2.1h-.2l-.1.1H22v.1a6.2 6.2 0 0 0 .2 0zm2.1-.9-.3.1-.2.1h-.1v.1H24l.3-.3h.4v-.1h-.1s-.1 0 0 0h-.1l-.2.1zm-1.3.1-.3.1-.3.2-.3.1H22v.1h.1a5.4 5.4 0 0 0 .8-.4h.2l.1-.1.2-.1v-.1H23l-.1.1v.1zm2.8-1.2h-.1l.2-.3-.2.1-.5.4s0 .1 0 0l.1.1.4-.2v-.1h.2v-.1h-.1zm-5.3 7h-.1l-.2.1H20l.4-.2H19.8l-.2.2h.2v.1l-.2.1H20v.1l-.1.1H21.5l-.2.1h.7l.2-.2.1-.2v-.1l.3-.2H22.8l.1-.1h-.4c0-.1 0 0 0 0h-.7l-.3.1c0 .1-.1.1-.1 0h-.1l-.6.2v-.1h-.2zm1.5 1v.1h-.2v.1H21.4l-.2.1-.1.1H23l.5-.2h.1l.2-.2.5-.2h.2l.2-.2c-.1 0-.1 0 0 0l.2-.1c-.1-.1-.2-.2-.3-.1h-.1c0-.2 0-.2-.1-.1h-.1v-.2h-.2l-.2-.1-.3.2v.1l-.3.2-.2.1-.1.2v.1H22.7v.2l-.2.1h-.1l.2-.1v-.1h-.4.1l-.1-.1v.1H21.8zm4-21.5v-.5c-.1-.1 0-.2 0-.4l-.1-.1V3l-.1-.8v-.4l-.1-.3-.2-.2H25.2l-.2.3-.5.5-.2.3v.1l-.2.2-.2.3v.2l-.3.6V4l-.2.2a17.9 17.9 0 0 0-.6 2.2h-.5a1 1 0 0 1-.3-.3v-.7l-.1-.3V2l-.1-.5-.1-.3h-.1c-.3.2-.6.5-.7.9l-.4.5-.1.4-.2.4-.2.3v.2l-.3.9-.1.7V7h-.2v.2h-.6l-.2-.1V7l-.3-.7-.2-1v-.6l-.2-.8v-.6a38.2 38.2 0 0 0-.5-1.8c0-.1-.1-.1-.2 0v.1c-.3.3-.4.6-.5.9l-.2.4V3l-.1.3s-.1.1 0 .2v.1h-.1V4l-.2.3-.1.4-.1.5v.5-.2h.1v.2L16 6V6.4h.1v-.1c.1 0 .1 0 0 .1v.1l-.1.5v.1l-.1.4v1.2l.2.6v.1l.1.2v.2l.1.3.3.7.1.4.2.3c.1 0 0 .2 0 .2l.2.3v.1l.3.3.2.1v.1h.1l.2.3h.1l.6.3h.1l.7.1.3.1H21c.4 0 .7 0 1-.2l.6-.1.3-.2.4-.1.5-.2.4-.2h.3c0-.2.1-.3.2-.3V12h.2v-.2l.4-.4.5-.7h.1l.4-.6.2-.3.3-.5.4-.7.1-.4.1-.2.2-.4.1-.2.2-.2.1-.2v-.3l.1-.2v-.3a9.9 9.9 0 0 0 .5-1l.2-.4.2-.6v-.1l.2-.4.2-.6v-.4l.2-.4V1l-.5.5-.6.9-.2.5-.1.1-.2.2-.2.5-.3.7-.2.4V5l-.2.6v.2l-.2.6c0 .1 0 .3-.2.3-.2.2-.2.1-.4 0L26 6v-.5l-.1-.2V5zM10 25.7a52 52 0 0 0 0 .6l.2-.2.2-.4.2-.6.2-.3.1-.3v-.1c.2-.1.2-.3.3-.4v-.2l.3-.8v-.2l.1-.4.2-.4h-.1l-.1.1-.1.4v.1l-.1.2v.2l-.2.2v.2s0 .1-.1 0v-.1H11l-.1.2v.3c-.1 0 0 0 0 .2h-.1l-.2.4v.2h-.1l-.2.7-.1.3v-.2l.2-.6v-.4l.2-.4v-.2l.2-.9.3-1v-.3l.1-.5.2-.6V20l.1-.4.1-.5V19v.1l-.2.5-.3.7-.2.6-.2.3-.2 1-.1.5-.1.4v1l-.1.5v.4l-.1.7zm9.6 2h-.8l-.2.1v.1h.4l.7-.2zM29.6 6v-.2c.1 0 0 0 0 0h-.1l-.1.2-.1.2h.1v.2h.1l.2-.4zm-.9.5-.1.1h-.1l-.2.3c0 .1 0 .3-.2.4l.3-.3.3-.5zm-5.5 12.8H23l-.3.2-.4.2-.2.1h.2c.2 0 .2-.1.3-.2l.3-.1.1-.1.2-.1zM21 27.2H21.7V27H21v.1zM25.6 17l-.1-.1H25.1h.1l.2.1a5.3 5.3 0 0 0 .1 0zm-.6 2c-.2 0-.3 0-.4.2l.4-.2zm-1.9-.5v.1h.2v-.1H23zM10.8 27l.2-.5v-.1l-.2.5zm13.7.4.4-.1h-.4zm.9-1.2h-.2v.1h.2zm-5.1-5.6H20v.1h.3v-.1zM29 6v-.1l-.2.3.2-.1V6zM14.9 27.3h-.1v.1h.2c0 .1 0 .1 0 0 .1 0 0 0 0 0h-.1zm8.3-8.4H23h.2zm3.4-6.9.1-.1c0-.1 0-.1 0 0l-.1.1zM25 19.4l.3-.2-.3.1zm-3 1.2v-.1s-.1 0 0 0zM18.6 28h-.1zm4.8-8.5h-.1.1zm3.2 6v.1h.1l-.1-.1zm-9-1v-.1h-.1v.1h.1zm4-4h.2-.2zm1.3.1h.2v-.1H23v.1zm5.7-14.5a7.2 7.2 0 0 0-.1.2V6zm-3.1 7V13zM25 26.5h.2v-.1H25zM23.6 19a3.5 3.5 0 0 0-.2 0h.2zm-11.4-.8zm8 9.3c0-.1 0 0 0 0zm-5 .1H15zM7 28.8zm-.4 0zm17.2-9.1h-.1zm0 .1h-.2.1zm-.7.1H23v.1zm.5.2zm-13 7.2zM30 6.6z"/>
    </symbol>
    <symbol id="icon-stemright" viewBox="0 0 111 32">
      <path d="M111 16.6h-.2c-.3-.2-.3-.2-.4 0l-.2.8-.4 1a1 1 0 0 0-.1.9v.2c0 .5 0 .9-.3 1.3-.3.3-.5.7-.6 1-.2.3-.3.6-.5.7l-.2.3c-.2.3-.5.5-.9.4l-.8-.1c-.2 0-.5-.1-.7.1-.2.3-.5.3-.9.3l-1-.1c-.2 0-.3 0-.2.2.1.4.3.8.6 1.1l.3.3.2.4v.5c.3.2.4.5.5.8l.3.6v1.6l-.5 1.2c-.3.3-.6.5-1 .6l-1.6.8h-.1l-1.2.3c-.5.2-1 .2-1.5.1l-1.2-.2-.7-.3-1.1-1A8.8 8.8 0 0 1 95 28l-.9-2.1-.4-1.1-.5-1v-.5l-.1-.1c-.2-.1-.2-.4-.3-.6h.1s.1 0 0 0v-1l.1-.9v-.2h.2c0-.2 0-.2-.2-.2L93 20c0-.2-.1 0-.2 0-.4-.3-.7-.5-1.1-.6-.2 0-.2-.1-.2-.2 0-.3-.2-.4-.5-.5l-.4-.2-.4-.1-.2-.5c.2.1.5.1.7.3l.4.2h.1v-.5h-.5l-.3-.2c-.2.1-.3 0-.4 0v.3h-.7l-.1-.3h.4c.1 0 0-.2 0-.2-.2 0-.3-.2-.3-.3h-.5c-.2 0-.4 0-.5-.2h.7c0-.2-.3-.2-.5-.3l-.2.1v.2c-.3 0-.4-.2-.6-.3v-.3L87 16h.4l.1.1c.1 0 .2 0 .2-.2H87.5v-.2l.2-.2h.5l-.1-.3c-.2 0-.3-.2-.4-.3 0-.2 0-.2-.2 0l-.1-.1c0-.2-.3-.3-.1-.5s0 0 0-.1h-.1l-.1.3-.1.1h-.2l-.1-.2c-.1-.2-.3-.2-.5-.2-.1 0-.1.1 0 .1l.1.1h.4c0 .2-.1.1-.2.2.2.2 0 .5.2.7h.1c.1 0 0 .1 0 .1-.1.1-.2.2 0 .2 0 .2.2.3.3.4h-.3l-.2-.1-.3-.1h-.5v.4h-.3l-.3-.1c-.1-.2-.2-.2-.4 0h-.2c-.2-.2-.5-.2-.7-.3-.2 0-.3-.2-.4-.4v-.3l-.2-.1c-.3 0-.5-.1-.7-.3l-.8-.4h-.3l-.3-.2H81c0 .1 0 .1 0 0-.1-.2-.3-.3-.6-.2l-.5-.2a.8.8 0 0 0-.3-.2l-.2.1c-.2 0 0 .2 0 .2-.2.2-.3 0-.4 0l-.1.1h-.3v-.1c.1 0 .1 0 0 0-.1-.1-.2 0-.4 0l-1-.3.2-.1s0-.2.2-.3h-.2c-.1 0-.2.1-.4 0h-.1V13.4c-.1 0-.3 0-.5-.2-.2 0-.4 0-.4-.3s-.1.1-.2 0h-.5l-.5-.2c-.4 0-.7-.3-1.1-.4v-.1h.3l.3.2h.1v-.1l-.4-.1c-.1-.2-.3-.1-.5-.2l-1.3-.4c-.2 0-.4 0-.6-.2l-.3-.1h.2l.1-.1v-.1h-.2l-.1.2h-.7v.1l-2.7-.4-2.7-.4-1-.1-1.1-.2c-.8 0-1.5-.1-2.2-.4-.3 0-.7 0-1-.2-.4.2-.8 0-1.2 0H58l-1-.1H56l-.8-.1-.2-.1.1-.1h2c.1 0 .3.2.5 0l.2.1h.4l-.7-.3V9l.6-.1h1.5l-.4-.2h-.6l-.5.1-.4-.1v-.1h1.7l.3-.1s.1.2.2 0c.2.2.5 0 .7.2h1.1v-.1c-.3 0-.6-.2-1-.1l-.2-.2V8l.2-.1c.1 0 .1-.2 0-.2-.2-.2-.3-.2-.3 0-.2 0-.2 0 0 .2l-.2.2h-.7l-.4-.2c-.1 0-.2.1-.4 0h-.4c-.1-.2-.2-.2-.4-.1h-.4l-.1-.1h.1l.2-.1v-.1c-.2-.1-.2-.2-.4 0h-.3c-.1-.2 0-.2.1-.3 0 0 .1-.1 0-.2l-.5.2c-.1.2-.3 0-.5.2h-.1v-.7l-1.4.1-1 .1h-.9l-.6.1v.1h.3s.1.2 0 .2c-.1.1 0 .2 0 .2.1 0 .2.1.1.2l-.3.2a2 2 0 0 0-.3 0v.2H52.9v.2c-.1.2-.1.2-.2.1-.2-.2-.2-.2-.4 0h-.7v.2h.3l.2-.2v.2l-.1.2h-.4l-.7.1H53l-.1.2c0 .1-.1 0-.1 0h-.3v.1c-.3 0-.5.3-.8.1l-.2.1-.3.2H51c0-.3-.2-.2-.3-.1h-.5l-.3-.2-.5-.2V9h.2c0-.2-.1-.1-.2-.1l-.3-.1c-.2-.2-.3-.2-.5 0l-.1.2c-.4 0-.6.2-1 .1-.1 0 0 .1 0 .2 0 .3 0 .3-.2.4h-.5l-.1.2h-.3s-.2.2-.1.3h.4l.3-.1c-.2.2 0 .2 0 .2v.1l-.5.2h-1a1 1 0 0 1-.5 0l-.4-.3c-.2-.2-.4-.2-.7-.1l-.9.2c-.1 0-.3 0-.4.3h-.4l-.8.4-.2.1h.2l1-.3h.4v.1h-.1l-.1.1h.3v.2l-1.2.3-1.5.5-1 .5-1 .5-1 .4c-.3 0-.6.2-.8.3-.3.1-.6.3-1 .3-.3 0-.5.2-.8.3l-1 .3-2.4 1.1-2.6 1.4c-.1 0-.1 0 0 .2l1.5 1.3L32 21v.2c.2.1.2.3 0 .4-.1.1 0 .3 0 .4v.1h-.2l-.3.1c0 .2-.1.2-.2.3l-.3.1c-.1 0 0 .1 0 .2v.2h-.2c-.2-.1-.3 0-.4.2h-.1c0 .2 0 .2-.2.2h-.3c-.2 0-.4 0-.6-.2l-.5-.1.6.4v.1h-.8l-2.3-.8-2-1.2-1.4-1c-.3-.1-.4-.3-.4-.7 0 0 0-.1-.1 0-.3 0-.6 0-1 .2-.3 0-.7.1-1 .3l-1 .2c-.2.2-.6 0-1 .2H17c-.9.2-1.8 0-2.6.1h-.2c-.6 0-1.2 0-1.8-.2l-1.6-.1c-1-.2-2-.4-3-.8-.8-.3-1.7-.7-2.4-1.3a17.7 17.7 0 0 1-2.7-2.8L1 13.2l-.9-1.7v-.3c.2-.4.1-.8 0-1.1v-.5c.1-.2.2-.5 0-.7 0-.2 0-.4.3-.4l.1-.1c0-.2.1-.3.2-.3l.1-.2.1-.3.1-.1c.3-.3.6-.5 1-.5h.8c.6 0 1 .2 1.4.5l1.8 1.3 1.5 1 1.8.8 1 .4 1.1.2 1.3.2 1.4.1a26.3 26.3 0 0 0 3.2.2h1.1l1.2-.2 1.9-.6 3.7-1.4c.8-.4 1.6-.8 2.5-1 .2-.1.5-.3.8-.3.4 0 .7-.2 1-.3l6-2.2s0-.2.2-.2l.3-.1c0-.1.2-.2.1-.3h-.6l.5-.3a55 55 0 0 1 1.9-.7l1.2-.3 1.4-.3a7 7 0 0 1 1.5-.2l.6-.2h.6c-.2.2-.4.1-.6.1h-.2c-.2.2-.5.2-.8.3l-.8.2h-.2c0 .2-.1.1-.3.1h-.7l-.1.2c0 .2-.2.2-.3.2-.2-.1-.4 0-.5.1v.1h.1c.5 0 1-.2 1.4-.3.6 0 1.1-.3 1.7-.4l1.2-.3c.2-.1.4 0 .5.2h1l.1.2.1-.1v-.3c0-.1.1 0 .2 0h.4c.3-.2.6-.2.9-.2.2 0 .3 0 .3.3h.2L47 3h.3v.1l.1.3h.1l.1-.4c0-.2 0-.2.2-.3.5 0 .9 0 1.3-.2h1.5a6 6 0 0 1 1-.2h.3c.3-.2.6-.2.9-.2l.9-.2h.4c.3-.2.7-.2 1-.3h.4l.6-.1 1.4-.2.7-.1h4.1c.3.2.6.2 1 .2h1.4c.7 0 1.4.2 2.2.4a88.5 88.5 0 0 1 5.8 1.5l1.4-1c.5-.5 1.1-.8 1.7-1 .7-.4 1.3-.8 2-1H80c.4 0 .7 0 1 .3l.6.2c.5.1.5.6.8.9V2l.2.2.2.8c0 .1 0 .2.2.2l.1.1c-.2 0 0 .3-.1.4l-1.4 1.1-.5.3-.5.4c-.2 0-.3.2-.5.3-.2 0 0 .4-.3.4l-.3.3c0 .1.3 0 .4.2l.2.1c.1 0 0 .2 0 .2H80l-.1.1.4.2c.2.2.4 0 .6.1h.5c.1 0 .1.2.3.2l-.2.2.1.2V8.3h.3s0-.1.1 0h.2v.2c0 .3.1.5.5.6h.2c.1.2.3.2.4.3l.4.2.3.2c.2 0 .4.1.5.3.2.1.4 0 .5.3h.3c.1 0 0-.2 0-.2.1-.2.2-.2.3-.2l.2.2v.1l.2-.1v-.3h.2v.2l.2-.1h.2v.3c.3 0 .6 0 .7.4.3-.1.3.2.5.2v.1h-.2s-.1-.2-.1 0l-.3.6h.2c.1-.2.1-.2.2-.1l.3.2c.2-.1.4-.2.5.2h.2l1 .5.6.2h.3l.3.2v.3c.2.2.4 0 .5.2 0 .1.2.2.4 0l.2.1v.3h.4c0 .3.2.4.3.4.2 0 .3.2.5.1.2 0 .3.2.4.3l.2.1h.2c.2.2.3.2.3 0l.1-.5c0-.2.2-.1.3-.2v.3s-.2.1 0 .2h.3c.1-.2.3-.2.3-.4l.5-.1c1-.3 2-.6 3-.7h.4c.6-.2 1.2-.2 1.8-.2h.8l2.3-.1 1 .1 1.2.2 1.3.3c.2 0 .5.1.7.3l.5.4c.3.1.5.3.7.6l.2.2c.2.4.5.8.9 1l.3.3v.1c.1 0 .2.1.1.2zm-69-5.2h.1l.2-.1c-.1-.1-.2 0-.4 0zM30.3 8h-.1l-.4.2v.1h.2l.4-.2zm.5.7h-.2c-.2.1-.4.3-.6.2L30 9c.4 0 .7 0 .9-.2v-.1zm1.4 5 .4-.1v-.1l-.4.2zm.2-6.2h-.3c-.2 0-.5 0-.6.2l-.3.1V8h.5c.2-.2.3-.1.5 0 .1 0 .1-.1 0-.2l.2-.1v-.1zm0 5.6-.6.3v.1h.1l.6-.2h.2v-.1h-.3zm.8-5.8-.5.2.5-.1zm1.1 5.5a1 1 0 0 0-.5.2l.1.1c.2 0 .3-.1.5-.3zm2.8-.5h.2l-.2-.2v.2zm-1.8.3h.3v-.1h-.4l.1.1zm.9-2h-.1v.3h.1v-.3zm.6-5.5-.2-.1h-.2l.4.2V5zm.2 5.4-.2-.1s0-.1 0 0l-.4.4h.4s.1-.2.3-.2v-.1zm.3.9c0-.1-.2 0-.2 0-.2 0-.4 0-.4.2-.3 0-.6.2-.8.3-.3 0-.5.1-.7.3.3 0 .5 0 .6-.2l.9-.3.4-.2c.1 0 .3 0 .2-.1zm.4-6.8h-.2v.1h.2v-.1zm.3 0H38l.1.1h.1v-.2zm5.3 5.5h-.6v.2h.3l.3-.1v-.1zm1.3-.4h-.1l-.6.3c.1 0 .1 0 0 0h.5l.2-.2zm.4.5v.1h.4-.4zm.2-.4h.4v-.1H45.4zm.4-4.7h-.1c-.2.1-.2.3-.2.4l.2.1.2-.3-.1-.2zm5.8 3h.3V8l-.3.1zm-.4-.7.7-.1h.1l-.2-.1h-.5l-.1.2zm-.5.8.1.2h.1L51 8h-.3zm0-1.2H50.3h.3zM50 9c0 .1.1 0 .2 0h.1V9h-.3V9zm-1.6-1h.4l.1.2-.3.1-.1.1h.1c.1 0 .2.1.2 0h.5c.1.1.4 0 .3.3h.1l.2-.1h.6c-.2 0-.3-.2-.4 0h-.2v-.2c.2 0 .3 0 .5-.2h-.9c-.3.1-.2 0-.2-.2l-.2-.1s0-.2-.2-.2h-.2c0 .3-.1.2-.3.3zm1.3-1H50c0-.1 0-.2-.1-.1h-.2V7zm0 .6-.2.2.2.2.2-.2-.3-.2zm-.3-.4-.1-.2v.2zm-.4 0h-.6v.1h.6v-.1zm-.8-.5.2.1v-.2H48v.1zm-.5 0h.1l.1-.2s.1 0 0-.1h-.2v.3zm.3-2.7h-.3v.1H47.9zm0 .4h-.5v.1h.5v-.1zm.8 1s0 .2-.2.2l-.1-.1c-.2-.2-.2-.2-.3 0h-.3v-.1L48 5v-.1h-.2l-.2.1v.3l-.1.2c-.1 0-.2.2 0 .3l.1.3h.2v-.2h-.1c0-.2 0-.1.1-.1h.2c.2 0 .2 0 .3-.2h.2l.1.2h.3v-.4s0-.1-.2 0zm1.1-1-.1-.1c-.2 0-.3-.3-.5-.3H49l-.2.4v.1l.5-.1.2.1s.2.1.2 0zm.2.9h-.5l-.1.3V5.9h.2c.1-.1.2-.2 0-.3v-.1l.4-.1v-.1zm0 1.2h-.5c.2.2.4.2.6 0zm.6-2.3h-.3l-.1.2v.1h.3v-.1c.1 0 .1-.2 0-.2zm0 1.2s0-.1 0 0c-.1 0-.2 0-.2.2h.2c0-.1.1-.2 0-.2zm.5 1.2c0-.2-.2-.2-.4-.2h-.2v.2l.7.1c.1 0 0 0 0 0v-.1zm.5-1.7-.4.1.2.1.2-.2zm.2 1.4-.1.1c0 .2.1.1.2.1s0-.1 0-.1h-.1zm.2-1.6V5h.1v-.2zm12.5 2.8.1-.1h-.1zm0-1v-.1V6.7h.1v-.2zM63 9.3h.1v-.1a6 6 0 0 0-.3 0h-.2l.1.1H63zm-.9.6h-.2.3c0 .1.1 0 .1 0l.5-.1h-.5c0-.2-.2-.2-.3-.1h-.1.4v.2H62zm-.7-1h-1.1V9a13.9 13.9 0 0 1 2 .2l-1-.2zm-1.7-2.2h.1c0-.2.2-.3.4-.3H60.7c0 .2.1.1.2 0v-.1h.2v.2c0 .2.1 0 .1 0 .2-.2.4 0 .5-.2l.2.3h-.3v.2h.3l.1.1.6.1c.2.1.4 0 .5-.1v.2c.1.1.1.1 0 .2l.3.2h.1V7c.1 0 .1-.1 0-.1h-.4c0-.2-.2-.1-.3-.1h-.1v-.1l.2-.2h-.2s-.1 0 0-.1v-.1c0-.2-.1-.2-.3-.2 0 0 0 .3-.2.2h-.5c0-.2-.2-.1-.3-.2 0 0-.1-.1 0-.2l-.1-.2-.1.1V6l-.4.2-.1-.1v-.4h-.2c0 .2 0 .2-.2.2H60c0 .3-.1.4-.3.5v.3zm3.6-.4v-.1.3-.2zm-1-.5h-.5l.4.2v-.2zm-2.8.2H59.7v-.5h-.1v.4c-.2 0-.3 0-.2.1zm-.6-.1h.2c.1 0 0-.1 0-.2s.1-.3 0-.2l-.3.2.1.2zm-.9-.1h.2v-.2H57.8l.1.2zm-1 .3h.1v-.2h-.2l.1.2zm-.4-.7v-.1s0-.1 0 0h-.1l.1.1zm-1 .8h.2l.1-.2h-.2v.2zm-.1-.5v.1h.1v-.1c0-.1.3 0 .3-.2-.1 0-.2 0-.2-.2h-.2v.4zm-.5.2v-.3h-.1V6zm-2.2.5.1.2s0 .1.2 0c.3-.2.7-.2 1-.2h.1v-.1h-.6l-.1-.2H53c0 .2-.2.3-.3.2-.1 0-.1 0 0 0zM53 3v.2l.1-.1V3zm3-1.2h-.4l-.1.1h.4zm-.4.5h.2V2l-.2.1v.1zm.8 1h-2c-.2-.1-.4 0-.5.2l-.1.4h-.2l.1-.3-.1-.2h-.1v.2l-.2.2-.2-.1s0-.1-.1 0l-.2.2h-.2c-.1-.2-.2-.1-.4-.1.2.1 0 .3.1.3.1.1.1.1.2 0h.6s.1.2 0 .2c-.1.1 0 .3 0 .4l.1.4v.3l-.2.2s-.2.2 0 .2h.4c.3 0 .3 0 .4-.2v-.2c-.1 0-.2 0-.2-.2 0-.4.3-.6.6-.7l.1.2V5l-.2.2v.3c-.1.1 0 .3 0 .4h.2c0-.1 0-.1.1 0l.2-.1v-.1c0-.2 0-.2-.2-.1h-.1v-.1l.3-.2.1-.2h.1s.1-.1 0-.2v-.2l.5-.1h.3c0 .1 0 0 0 0H56.5l-.2.3V5h.2v-.3h.3s.1-.2.3 0l.2-.1c0-.1.2-.1.2 0 .1.2.1.2.2.1h.1c0-.1.2-.1.2 0l.2.2c.1-.1.1-.2.3-.1 0-.1.1-.1.2 0l.2-.1c0 .3.4.1.6.3 0 0 .1.2.2 0h.5c.2.2.3.2.5.1h1c.1.2.4 0 .6.2h.7l.8.1h.2V5c0-.3.2-.3.4-.3h.1l-.1-.1H64c-.3 0-.5 0-.6-.4h-.2l-.1-.1L63 4h-.5c0 .3-.2.4-.4.3-.2-.1-.4 0-.5-.2l-.8-.2h-.7c-.3-.1-.3-.1-.4-.4h-.1v.3h-.1V3.5c-.3 0-.3-.2-.3-.4H59c-.1.2-.3.3-.5.3-.5 0-1 0-1.5-.2h-.4c-.2 0-.3.1-.4 0zm7.8.7H64c-.2 0-.3 0-.3.2 0 .1 0 .1.1 0l.2-.1.1-.1zm-3.1-1.3c-.1 0-.3-.2-.4-.1h-.1l.4.2h.1zm-1.3-.6H59h.7zm-2.7.2h-.3c0-.1 0 0 0 0h.2zm-.5.3H56.9h-.4zm6.5-.8c-.4 0-1-.2-1.4 0l-.2-.1h-.8c-.1-.1-.3 0-.4 0h-1a115.6 115.6 0 0 0-2.7.1V2h3.3c.2 0 .4-.2.6 0h.6c.2 0 .4 0 .6-.2 0 .2.2.3.4.2h.2c.2.1.5 0 .8 0h.1c.1 0 0-.1 0-.1zm.6 0-.3.1V2s0 .1.1 0h.2v-.1zm1 1h-.5c-.2.2-.2.1-.3 0v-.2l-.1-.1H63c-.5 0-1-.2-1.4-.1h-.9c-.1 0-.2-.1-.1-.3h-.1l-.1.3.9.2h.5c0-.2.2 0 .3 0h.5l-.2.1h-.1V3l.3.2H64c.1.1.3 0 .4 0h.2V3zm.2 1.8V4.9l.2-.1-.2-.2zm2.5 1h-.1s-.1.1 0 .2c.1 0 .1-.1 0-.2zm1.5-2.1s.2.2.3.1c0-.1-.2-.2-.3-.1zm.4-.6H69V3h.2v-.1zm.2 1.3h-.2.3-.1zm1.3-.9h-.2c-.2-.3-.4-.1-.6 0 0-.3-.1-.3-.3-.3l.3.2c.2.2.5.2.8.2v-.1zm0 .5-1-.2h-.2v.2l.7.2c.1 0 .2 0 .1.2 0 .3 0 .4.2.6V4h.4l.3.1h.3v-.3h-.8zm1.4-.2-1-.3v.2l.5.2h.4c.1 0 .2 0 .1-.1zm0 7.6H72l.1.2.3-.1zm6-1.8h-.1v.2c.1 0 .2-.1.1-.2zm5.5 3.5v.2h.1c.2-.1.1-.3.1-.4 0-.2 0-.2-.2-.3H83.4c-.1 0 0 .1 0 .2l.3-.2v.5zm-.2 1.8h.2v-.1h-.2zm-.6-1.5h.2l.3.1c0 .1 0 .2-.2.2l.1.2c.2 0 .3 0 .3.2h-.5l.3.2c0 .2.3 0 .4.2v-.1c0-.1 0-.2-.2-.3l.3-.1v-.4s0-.1 0 0c-.2 0-.3-.3-.5-.3l-.3-.1-.2.1v.1zm0-.5c.1 0 0-.1 0-.2-.2-.1-.3 0-.4 0l.1.2h.3zm-.5 1.5H82.7l-.3-.2c-.1.1 0 .2 0 .2zM82 14h.1c0 .1.1 0 .1 0h-.2zM81 8l-.3-.1-.2-.2s0-.2-.1-.1h-.1V8c-.1 0-.3 0-.1.1.2 0 .4.2.6.1h.2zm3.2 4v-.4l-.2-.1H84c-.2.2-.4 0-.5 0h-.1s-.2-.2 0-.1c.2 0 .2 0 .2-.2 0 0 0-.1-.1 0h-.1c-.2 0-.4-.1-.4-.4h-.1l-.2.2h-.3c-.2-.2-.4-.4-.7-.3l-.3-.1c-.2-.2-.5-.2-.7-.3v.4l.1.3h.5c.2-.2.4-.1.5 0 .1 0 0 0 0 .2h-.1v.2h.1c.4-.3.8-.2 1 0h-.5v.2l.3.1c.1.1 0 .2 0 .2l.2.3h.3c0-.2.1-.2.2 0V12c.3 0 .4 0 .6.2.1.1.2.1.4 0 0 0 .1-.1 0-.2-.2 0 0 0 0-.1zm.6.5v-.1h-.1l-.1.2c.1.1.2 0 .2 0v-.1zm.1 1c-.2 0-.4 0-.6-.2l-.2.1v.2s-.1.2 0 .2.3.1.4 0c0-.2.2-.1.3 0l.2-.1v-.1zm.6-.8-.2-.1v-.1c-.2 0-.1.4 0 .5l.2-.1v-.2zm0 1.2-.1.2.1.1h.2V14h-.2zm.4-.3v-.2h-.2l.1.4h.1v-.2zm0 1.6c0 .1.1.2.3.2 0-.1-.1-.2-.3-.2zm0-4.7v.2h.2l-.1-.2zm1.1 2.7L87 13c0-.1-.1-.2-.2 0l-.3-.1v-.3h-.2v.5c.3 0 .5.2.8.4 0-.2-.1-.3 0-.4.1 0 .1 0 0 0zm1.2 3.2v.1h.5a.7.7 0 0 0-.4-.2l-.1.1zm-.8-3-.2.2v.1c0 .3.3.3.5.4l.1-.4-.1-.3h-.3zm.5-1v-.3s-.1-.1-.2 0l.1.4h.1zm0 1.4.2.1v-.2l-.1.1zm.3-1h-.2l.2.1zm.2 2.3-.1.1c-.1.1 0 .3 0 .4l-.1.2v.1h.2l.2.1s.2.2.2 0l.2-.2-.1-.2c0-.1-.1-.3-.3-.2-.1 0-.2 0-.2-.2zm.4-1.2c-.1-.1-.1-.3 0-.4h-.2v.4l.1.1zm2.4 1.5-.2-.2c0-.1 0 0 0 0-.1.1-.2.1-.2 0-.1 0-.2-.2-.1-.3v-.1h-.1c0 .1-.1.2-.3.1l-.1.3-.3-.2-.1-.4c-.2.1-.2-.2-.4-.2l-.4-.2H88.8c-.1 0 0 0 0 .1 0 .2 0 .2-.2.2h-.1v.1l1.2.5h.3v.2h.2v-.1H90.6l-.2.3.6.4h.1c0-.2.1-.2.2-.2l.2.3h.2c0-.3-.1-.4-.3-.6zm.4 2-.1-.2-.3-.3h-.2l-.6-.3s-.2 0-.2-.3h-.1c-.2-.3-.2-.3-.5-.1h-.1v.1c.3.3.6.5 1 .6.2 0 .3.4.5.3h.1c0 .2 0 .2.2.3h.3zm.2-1.6-.1.2c.1 0 .2 0 .1-.2zm.7.2H92.3l.3.2V16z"/>
    </symbol>
    <symbol id="icon-stemleft" viewBox="0 0 111 32">
      <path d="M.2 15.4c.3.2.4.2.5 0l.2-.8c0-.3.1-.7.3-1 .2-.3.3-.6.2-.9v-.2c0-.5 0-.9.3-1.3l.6-1c.1-.3.3-.6.5-.7l.2-.3c.2-.3.5-.5.8-.4l.8.1c.3 0 .6.1.8-.1.2-.3.5-.3.8-.3l1.1.1c.2 0 .3 0 .2-.2a3 3 0 0 0-.7-1.1L6.6 7a.5.5 0 0 1-.2-.4V6c-.3-.2-.4-.5-.6-.8l-.2-.6c-.2-.2 0-.4 0-.6v-1c0-.4.3-.8.5-1.2.2-.3.6-.5 1-.6L8.5.5h.2L9.9.2c.5-.2 1-.2 1.5-.1l1.2.2c.3 0 .6.2.8.3l1.1 1c.7.7 1.1 1.6 1.5 2.5l.8 2.1.5 1.1.5 1V9c.3.1.3.4.4.6H18c-.1 0 0 0 0 0H18v1.9l-.1.2h-.1l.1.2.2.2c.1.2.2 0 .3 0 .3.3.7.5 1.1.6l.1.2c0 .3.2.4.5.5l.5.2.4.1.2.5c-.3-.1-.6-.1-.8-.3l-.4-.2v.5h.4l.4.2c.1-.1.2 0 .4 0V14h.7v.3H21.7c-.1 0-.1.2 0 .2l.3.3c.1-.1.3-.1.4 0 .2 0 .5 0 .6.2h-.8l.6.3.1-.1.1-.2.6.3v.3l.5.4h-.4l-.2-.1-.1.2h.3v.2l-.2.2h-.5l.1.3.4.3c0 .2 0 .2.2 0v.1c.2.2.3.3.2.5s0 0 0 .1c.2 0 .2-.2.2-.3v-.1h.2l.2.2c0 .2.3.2.5.2v-.1l-.2-.1h-.3c0-.2.1-.2.2-.2-.2-.2-.1-.5-.3-.7-.1-.1 0-.1 0-.1 0-.1.1-.2 0-.2 0-.2-.2-.3-.3-.4h.2l.3.1.3.1h.5v-.4h.2l.4.1c0 .2.2.2.3 0h.3c.2.2.4.2.7.3.1 0 .3.2.3.4l.1.3.2.1.7.3.8.4h.3s.1.2.3.2h.1c0-.1.1-.1.1 0 .1.2.3.3.5.2l.5.2.4.2.2-.1c.1 0 0-.2 0-.2.2-.2.3 0 .4 0l.1-.1h.3v.1c-.1 0-.1 0 0 0h.3c.4 0 .7.2 1 .3l-.1.1c-.1 0 0 .2-.2.3h.6v-.2h.6c.2.1.4.2.4.4 0 0 0-.1.2 0h.4l.6.2c.4 0 .7.3 1 .4.1 0 .1 0 0 0v.1h-.2l-.4-.2v.1l.4.1c0 .2.3.1.4.2l1.4.4c.2 0 .4 0 .5.2l.4.1h-.2l-.1.1v.1h.2l.1-.2h.7v-.1l2.7.4 2.7.4 1 .1 1.1.2c.7 0 1.5.1 2.2.4.3 0 .7 0 1 .2.4-.2.8 0 1.2 0h.6l1 .1h1.8l.1.2v.1h-1.5a1 1 0 0 0-.5 0c-.2 0-.3-.2-.5 0l-.2-.1h-.4l.6.3v.1h-1.1c-.2 0-.3.2-.5 0l-.4.1.4.2h.6l.5-.1.4.1v.1h-1.7l-.3.1c-.1 0-.1-.2-.3 0-.2-.2-.4 0-.6-.2h-.7c-.2-.1-.3 0-.4 0v.1c.3 0 .6.2 1 .1l.1.2v.3l-.2.1v.2h.2c0 .2.1.1.2 0 .1 0 .1 0 0-.2 0-.1 0-.2.2-.2h.7l.3.2c.2 0 .3-.1.4 0h.5c.1.2.2.2.4.1h.4s.1.1 0 .1c-.1.1-.2 0-.2 0v.2c.1.1.2.2.4 0h.3c0 .2 0 .2-.2.3v.2l.5-.2c.2-.2.4 0 .5-.2h.2v.5c-.1.2-.1.2 0 .2l1.4-.1 1-.1h.4c.1 0 .3.1.4 0l.6-.1v-.1h-.2c-.1 0-.2-.2 0-.3v-.1c-.2 0-.2-.1-.1-.2 0-.1.1-.2.3-.2h.3v-.2H58.2v-.2c0-.2 0-.2.2-.1.1.2.1.2.4 0h.7v-.2h-.3l-.2.2s-.1-.2 0-.2v-.2h.5l.6-.1h-2v-.2c.1-.1.2 0 .2 0 .1.1.1.1.2 0l.1-.1c.3 0 .5-.3.8-.2h.2l.2-.2h.3c0 .3.2.2.3.1h.4l.3.2c.3 0 .3.2.5.2v.1h-.1c0 .2 0 .1.1.1l.4.1c.2.2.2.2.4 0l.2-.2c.3 0 .6-.2 1-.1v-.2c-.1-.3 0-.3.2-.4h.4c0-.1 0-.2.2-.2h.2l.2-.3h-.4l-.3.1c.2-.2 0-.2 0-.2v-.1l.5-.2H66c.1.2.3.2.4.3.2.2.4.2.6.1l1-.2.4-.3H68.8l.9-.4.2-.1h-.2l-1 .2h-.4l.2-.1H68v-.2c.5 0 .8-.2 1.2-.3l1.6-.5 1-.5 1-.5 1-.4c.3 0 .5-.2.8-.3l.9-.3.9-.3 1-.3 2.3-1.1 2.6-1.4c.2 0 .2 0 0-.2L81 13.2c-.6-.6-1-1.4-1.7-2l-.1-.3c-.1-.1-.1-.3 0-.4.2-.1.2-.3 0-.4l.1-.1h.2c.2 0 .3 0 .3-.2l.2-.2.3-.1V9h.2c.2.1.3 0 .4-.2 0-.2.1-.2.2-.2h.4c.2 0 .4 0 .5.2l.5.1-.6-.4v-.1h.8l2.4.8 2 1.2 1.4 1c.2.1.3.3.3.7 0 0 0 .1.2 0 .3 0 .6 0 1-.2l1-.3.9-.2c.3-.2.7 0 1-.2H94.1c.9-.2 1.7 0 2.6-.1h.1c.6 0 1.2 0 1.8.2l1.7.1c1 .2 2 .4 3 .8.8.3 1.6.7 2.4 1.3a17.7 17.7 0 0 1 2.7 2.8l1.6 2.4.8 1.7V23c0 .2 0 .4-.2.4l-.2.1c0 .2 0 .3-.2.3v.2l-.1.3-.2.1c-.2.3-.5.5-1 .5h-.7c-.6 0-1-.2-1.5-.5l-1.8-1.3-1.5-1-1.8-.8-.9-.4a14 14 0 0 0-1.2-.2l-1.3-.2-1.3-.1a26.3 26.3 0 0 0-3.3-.2h-1l-1.2.2-2 .6c-1.2.3-2.4.9-3.6 1.4-.8.4-1.6.8-2.5 1l-.9.3-1 .3-6 2.2-.1.2-.3.1-.2.3h.6l-.4.3-1.9.7-1.2.3c-.5.1-1 .1-1.4.3a7 7 0 0 1-1.5.2l-.6.2h-.6c.1-.2.3-.1.5-.1h.3c.2-.3.5-.2.7-.3l.9-.2h.1c0-.2.2-.1.3-.1h.8V28c.1-.2.3-.2.4-.2.2.1.3 0 .4-.1v-.1c-.5 0-1 .2-1.4.3-.6 0-1.2.3-1.7.4l-1.2.2c-.3.2-.4.1-.6 0 0-.2-.2-.1-.3 0-.2 0-.4 0-.6-.2h-.2v.3c0 .1-.1 0-.2 0h-.4c-.3.2-.6.2-1 .2-.1 0-.2 0-.2-.3h-.2l-.1.5h-.3c-.1 0 0 0 0 0v-.1l-.2-.3-.2.4c0 .2 0 .2-.2.3-.4 0-.8 0-1.3.2h-1.4a6 6 0 0 1-1 .2 1 1 0 0 0-.4 0c-.2.2-.5.2-.8.2l-1 .2H57l-1 .3h-.5l-.5.1-1.4.2-.8.1h-4c-.3-.2-.7-.2-1-.2h-1.4l-2.2-.4a89.2 89.2 0 0 1-5.8-1.5l-1.4 1c-.6.5-1.1.8-1.8 1-.6.4-1.3.8-2 1H31c-.3 0-.7 0-1-.3a1 1 0 0 0-.5-.2c-.5-.1-.6-.6-.8-.9V30l-.2-.2c0-.3-.3-.5-.2-.8 0-.1-.1-.2-.3-.2v-.2l.1-.3 1.4-1.1.5-.3.5-.4.4-.3c.3 0 .1-.4.4-.4l.3-.3c-.1-.1-.3 0-.4-.2l-.3-.1V25h.2v-.1l-.4-.2c-.1-.2-.4 0-.5-.1h-.5c-.2 0-.2-.2-.3-.2l.2-.2c0-.2-.2-.1-.2-.2V23.7h-.2s-.1.1-.2 0H29v-.2c0-.3-.2-.5-.5-.6h-.2c-.1-.2-.3-.2-.4-.3l-.4-.2-.4-.2a1 1 0 0 1-.5-.3c-.1-.1-.4 0-.5-.3h-.2l-.1.2c0 .2-.2.2-.3.2l-.2-.2s.1-.1 0-.1l-.1.1-.1.3h-.1l-.1-.2-.2.1h-.1v-.3c-.3 0-.6 0-.8-.4-.3.1-.3-.2-.4-.2V21h.2s0 .2.1 0l.2-.6h-.2c0 .2 0 .2-.2.1 0 0-.1-.2-.3-.2-.2.1-.4.2-.5-.2h-.1l-1-.5-.6-.2h-.4c-.2 0-.1-.1-.2-.2l-.1-.3c0-.2-.3 0-.4-.2-.1-.1-.3-.2-.4 0l-.2-.1v-.3H19c0 .1-.2 0-.2 0 0-.3-.2-.4-.4-.4s-.2-.2-.4-.1c-.3 0-.3-.2-.4-.3l-.3-.1h-.2c-.1-.2-.2-.2-.3 0v.5c-.1.2-.2.1-.3.2v-.3s.1-.1 0-.2h-.3c-.1.2-.3.2-.3.4l-.6.1c-1 .3-1.9.6-2.9.7H12c-.5.2-1.1.2-1.7.2h-.8l-2.4.1-1-.1-1.1-.2-1.3-.3c-.3 0-.5-.1-.7-.3l-.5-.4a2 2 0 0 1-.8-.6V17c-.3-.4-.6-.8-1-1l-.3-.3-.1-.1s-.1-.1 0-.2zm69 5.2H69l-.2.1h.4zM80.5 24h.2l.3-.2v-.1H81l-.4.2zm-.4-.7h.2c.2-.1.4-.3.6-.2V23c-.3 0-.6 0-.8.3zm-1.5-5-.4.1.1.1.4-.2zm-.1 6.2h.3c.2 0 .4 0 .6-.2l.2-.1V24h-.5c-.1.2-.3.1-.4 0-.2 0-.1.1-.1.2v.1h-.1v.1zm0-5.6.6-.3v-.1H79a2 2 0 0 1-.6.2h-.2v.1h.3zm-.9 5.8h.2l.3-.2h.1-.1l-.5.1zm-1-5.5c.1 0 .3 0 .4-.2v-.1c-.2 0-.4.1-.5.3zm-2.8.5H73.6l.2.2h.1v-.2zm1.7-.3h-.2v.1h.3v-.1zm-.8 2h.1V21h-.1v.3zm-.6 5.5.2.1h.2l-.4-.2v.1zm-.3-5.4.2.1s0 .1.1 0l.3-.4h-.3l-.3.2h-.1l.1.1zm-.3-.9h.3c.1 0 .3 0 .4-.2.3 0 .5-.2.8-.3.3 0 .5-.1.7-.3h-.1c-.2 0-.4 0-.6.2-.3 0-.5.2-.8.3l-.5.2-.2.1zm-.3 6.8h.2v-.1h-.3v.1zm-.4 0h.2l-.1-.1h-.2l.1.2zM67.7 22h.5v-.2H68l-.3.1v.1zm-1.3.4h.1c.1-.2.3-.2.5-.3h-.5v.2c-.1 0-.1 0 0 0zm-.5-.5.1-.1h-.4.3zm-.2.4h-.3v.1H65.7zm-.3 4.7h.1c.2-.1.1-.3.2-.4l-.2-.1h-.1v.3c-.1 0 0 .1 0 .2zm-5.9-3c0-.1-.1-.1-.2 0v.1l.3-.1zm.5.7-.7.1h-.1l.1.1h.6v-.2c.1 0 .1 0 0 0zm.4-.8v-.2h-.1c0 .1 0 .2-.2.3H60.4zm0 1.2H60.8h-.2zm.8-2c0-.1-.2 0-.2 0h-.1v.1h.3V23zm1.5 1h-.3l-.2-.2.4-.1s.1 0 0-.1h-.8c0-.1-.4 0-.3-.3l-.3.1h-.5c.1 0 .2.2.4 0h.1v.1s.1.1 0 .1-.3 0-.4.2h.9c.3-.1.2 0 .1.2l.3.1.1.2h.3c0-.3.1-.2.2-.3h.1zm-1.2 1H61.2v.1h.3V25zm0-.6.2-.2c0-.1-.1-.2-.3-.2 0 0-.1.1 0 .2l.1.2zm.3.4v.2h.1v-.2h-.1zm.4 0h.5v-.1h-.5v.1zm.7.5-.2-.1.2.2v-.1zm.6 0h-.2v.2s-.2 0 0 .1h.2v-.3zm-.3 2.7h.3v-.1H63.2zm0-.4h.4v-.1h-.5v.1zm-.9-1c.1 0 .1-.2.3-.2v.1c.2.2.2.2.4 0 0-.1.1-.1.2 0 0 0 .1 0 0 .1l-.1.4v.1h.1l.2-.1v-.3s0-.2.2-.2v-.3s0-.2-.2-.3h-.2v.2h.2c0 .2-.1.1-.1.1H63l-.2.2h-.2s0-.2-.2-.2h-.3v.4s.2.1.2 0zm-1 1v.1c.3 0 .4.3.6.3l.3-.4-.1-.1-.4.1-.2-.1h-.3zm-.3-.9h.5c.2 0 .2-.1.2-.3V26.1h-.3v.3h.1v.1l-.5.1v.1zm0-1.2H61.6c-.2-.2-.4-.2-.6 0zm-.5 2.3h.3v-.2c.1 0 .1-.1 0-.1h-.2l-.1.1v.2zm-.1-1.2s0 .1 0 0c.2 0 .3 0 .3-.2h-.2l-.1.2zm-.5-1.2c.1.2.3.2.5.2h.1v-.2l-.6-.1c-.1 0-.1 0 0 0v.1zm-.5 1.7.4-.1-.1-.1-.3.2zm0-1.4v-.1c0-.2-.1-.1-.2-.1H59v.1h.2zm-.4 1.6.1-.2h-.2l.1.2zm-12.4-2.8h-.1v.1s.1 0 0 0zm-.1 1v.1V25.3v.2zm1.6-2.8v.1h.4v-.1H48zm1-.6h.1-.2c0-.1-.2 0-.2 0l-.4.1h.4c.1.2.2.2.4.1h-.4V22h.3zm.7 1h1.1V23a13.9 13.9 0 0 1-2-.2h-.1l1 .2zm1.6 2.2c0 .2-.2.3-.4.3H50.4c-.1-.2-.2-.1-.2 0l-.1.1-.2-.2c0-.2 0 0 0 0-.2.2-.4 0-.5.2l-.2-.3h.2l.1-.1-.1-.1h-.2l-.2-.1-.5-.1c-.2-.1-.4 0-.6.1v-.4l-.3-.2-.1.5v.1h.4c0 .2.2.1.3.1h.2l-.1.1-.2.2h.2l.2.1-.1.1c0 .2 0 .2.2.2s.1-.3.3-.2h.5c0 .2.1.1.2.2.1 0 .2.1.1.2v.2l.2-.1V26l.4-.2v.1l.1.2v.2h.2l.1-.2h.4c0-.3.2-.4.4-.5v-.3zm-3.6.4v.1h.1v-.3.2zm1.2.5H49.3L49 26v.2zm2.7-.2H51.4l-.1.2v.3h.2v-.1l-.1-.3h.2l.1-.1zm.5.1H52v.2l.1.2.2-.2V26zm1 .1H53v.2h.2v-.2zm1-.3H54v.2h.1v-.2zm.3.7v.1s0 .1.1 0v-.1zm1-.8h-.2v.2h.2v-.2zm.2.5v-.1h-.1v.1c-.1.1-.3 0-.3.2 0 0 .2 0 .2.2h.1l.1-.3v-.1zm.5-.2H56l.1.3V26zm2.2-.5-.1-.2s-.1-.1-.2 0c-.3.2-.7.2-1 .2h-.2l.1.1h.5c.2 0 .1.2.2.2h.3c0-.2.1-.3.3-.2zM58 29h.1v-.2l-.2.1.1.1zm-2.9 1.2h.4V30H55zm.4-.5H55.2v.2l.2-.1.1-.1zm-.8-1h2c.2.1.4 0 .5-.2v-.4h.2v.5h.2v-.2l.2-.2.1.1s.2.1.2 0l.2-.2h.2c0 .2.2.1.3.1.1 0 .1 0 0 0v-.3H57.8v-.2c.2-.1.1-.3.1-.4l-.2-.4v-.3c.2 0 .3-.1.3-.2 0 0 .1-.2 0-.2h-.5c-.2 0-.2 0-.3.2v.2s.2 0 .1.2c0 .4-.2.6-.5.7h-.1V27l.1-.2c0-.2.1-.2.2-.3 0-.1-.2-.3-.1-.4h-.2c0 .1 0 .1-.2 0l-.2.1v.1c0 .2 0 .2.3.1v.1l-.2.2c-.2 0-.1.1-.1.2h-.2v.4l-.5.1h-.2c0-.1 0 0-.1 0h-.8c.2-.1.2-.2.2-.3V27h-.2v.3s-.1-.1-.2 0c-.1 0-.2.2-.3 0l-.2.1h-.3c0-.2 0-.2-.2-.1-.1.1-.2.1-.2 0l-.2-.2h-.1c0 .1 0 .2-.2.1h-.3v.1c-.2-.3-.6-.1-.8-.3 0 0 0-.2-.2 0H51c0-.2-.3-.2-.5-.1h-.9c-.2-.2-.4 0-.6-.2h-.7l-.9-.1h-.1l-.1.3c0 .3-.1.3-.3.3h-.1v.1h.4c.2 0 .5 0 .5.4h.2l.2.1v.2h.4l.1-.1c.1-.2.3-.3.5-.2.1.1.4 0 .5.2l.8.2h.7c.2.1.3.1.3.4h.1v-.3h.2V28.5c.3 0 .3.2.3.4h.1c.1-.2.2-.3.5-.3.5 0 1 0 1.5.2h.7zm-7.9-.7h.2c.2 0 .3 0 .3-.2 0-.1-.1-.1-.1 0l-.3.1v.1zm3.2 1.3c.1 0 .2.2.4.1-.1-.2-.2-.2-.4-.2zm1.2.6H52h-.7zm2.8-.2h.2c0 .1.1 0 0 0H54zm.5-.3h-.4.5zm-6.6.8h1.4l.3.1h.8c0 .1.2 0 .4 0h1.8l1.8-.1h.2l-.1-.1h-3.3c-.2 0-.4.2-.6 0H50l-.7.1c0-.1-.1-.2-.3-.1h-.2c-.3-.1-.6 0-.8 0h-.1v.1zm-.5 0 .2-.1V30s0-.1 0 0h-.2v.1zm-1-1h.5c.1-.2.1-.1.2 0l.1.2.1.1h.7c.4 0 .9.2 1.3.1h1v.3h.2l.1-.3-1-.2-.4.1h-.7s-.1 0 0-.2h.2V29l-.3-.2H47c-.2-.1-.3 0-.4 0h-.2l-.1.1v.1zm-.3-1.8.1-.1V27l-.2.1.1.2zm-2.4-1c.2 0 .2-.1.1-.2l-.1.2zM42 28.5h.1c-.1 0-.2-.2-.3-.1 0 .1.1.2.2.1zm-.3.6h.2V29h-.2v.1zm-.2-1.3h.2H41.5zm-1.3.9h.2c.2.3.4.1.6 0 0 .3 0 .3.2.3l-.2-.2c-.3-.2-.5-.2-.8-.2v.1zm0-.5 1 .2h.2l-.1-.2-.6-.2c-.2 0-.2 0-.2-.2.1-.3 0-.4-.1-.6h-.1v.4c0 .1.2.2 0 .3h-.3l-.4-.1h-.2v.3h.8zm-1.4.2.9.3h.1v-.2l-.6-.2H39s-.1 0 0 .1zm-.1-7.6H39v-.2l-.4.1zm-6 1.8h.2l-.1-.2s-.1.1 0 .2zM27.4 19v-.2h-.2v.5l.2.2H27.7v-.2l-.3.2V19zm.2-1.8h-.2l-.1.1h.4-.1zm.6 1.5H28l-.4-.1.2-.2c.1 0 .1 0 0 0v-.2c-.2 0-.3 0-.4-.2H28h-.1l-.2-.2c-.1-.2-.3 0-.5-.2v.1l.2.3-.2.1v.4s0 .1 0 0c.2 0 .2.3.4.3l.4.1.2-.1v-.1zm0 .5h-.1v.2h.4v-.2h-.3zm.5-1.5h-.3l.2.2h.1v-.2zm.5.3H29c0-.1 0-.1 0 0h.2zm.7 5.9.3.1c.1 0 .2 0 .2.2 0 0 0 .2.2.1l.1-.3s.2 0 0-.1c-.1 0-.3-.2-.6-.1H30zm-3.1-4c-.1.2-.1.3 0 .4l.2.1h.1c.1-.2.3 0 .5 0h.1s.1.2-.1.1l-.2.2s.1.1.2 0h.1c.2 0 .4.1.4.4.2 0 .2-.1.3-.2h.3c.2.2.4.4.7.3l.3.1c.2.2.5.2.7.3v-.1l-.1-.3V21h-.6c-.2.2-.3.1-.4 0-.1 0-.1 0 0-.2h.1v-.2h-.2c-.3.3-.7.2-1 0h.5c.1-.1 0-.1 0-.2l-.2-.1c-.2-.1 0-.2 0-.2l-.2-.3H28c-.1.2-.1.2-.2 0l-.1.1c-.2 0-.3 0-.5-.2-.1-.1-.3-.1-.4 0 0 0-.2.1 0 .2.1 0 0 0 0 .1zm-.6-.5v.1h.1c0-.1.1-.1 0-.2 0-.1-.1 0-.1 0v.1zm-.2-1c.2 0 .5 0 .6.2h.1l.2-.1v-.4c-.2 0-.4-.1-.4 0-.1.2-.2.1-.3 0l-.2.1v.1zm-.5.8.1.1v.1h.1V19l-.2.1v.1zm0-1.2s.1-.2 0-.2v-.1h-.3v.2h.2zm-.4.3v.2h.1v-.4H25v.2zm0-1.6-.3-.2c0 .1 0 .2.2.2h.1zm-.1 4.7v-.2h-.2l.2.2zm-1-2.7v.1c.1.1.2.2.3 0l.2.1.1.3h.2v-.5c-.3 0-.6-.2-.8-.4l-.1.4zm-1.2-3.2-.1-.1h-.4l.3.2.2-.1zm.7 3 .3-.2v-.1c-.1-.3-.3-.3-.5-.4h-.1v.4l.1.3h.2zm-.5 1s.2.2 0 .3c0 0 .2.1.2 0v-.4H23zm0-1.4v-.1h-.2l.1.2.1-.1zm-.2 1h.1l-.1-.1h-.1zm-.2-2.3v-.1c.2-.1 0-.3.1-.4l.1-.2V16h-.3l-.2-.1s-.1-.2-.2 0l-.2.2c.2 0 .1.1.2.2 0 .1 0 .3.3.2l.2.2zm-.4 1.2c.1.1 0 .3 0 .4h.2v-.4l-.2-.1zm-2.4-1.5.1.2c.1.1.1 0 .1 0 0-.1.1-.1.2 0 .1 0 .2.2 0 .3v.1h.2c0-.1 0-.2.2-.1l.2-.3.2.2c0 .2 0 .3.2.4.2-.1.2.2.4.2l.4.2h.2c.2 0 .1 0 0-.1 0-.2 0-.2.2-.2h.2v-.1l-1.2-.5H21v-.2h-.2l-.1.1h-.2l.1-.3-.5-.4H20l-.1.2-.2-.3h-.2c0 .3 0 .4.3.6zm-.4-2v.2l.3.3h.3l.5.3c.1 0 .3 0 .2.3h.2c.2.3.2.3.4.1h.2v-.1c-.3-.3-.6-.5-1-.6-.2 0-.3-.4-.6-.3 0-.2-.1-.2-.2-.3h-.3zm-.3 1.6h.1l.1-.2c-.1 0-.2 0-.2.2zm-.6-.2h.2c.1 0 0 0 0-.1h-.2c-.1 0 0 .1 0 .1z"/>
    </symbol>
    <symbol id="icon-bodo" viewBox="0 0 109 32">
      <path d="M40.5 26.8a6.2 6.2 0 1 1 .2-12.4 6.2 6.2 0 0 1-.2 12.4zm10.8-12a11 11 0 0 0-4.4-4.1c-2-1-4.2-1.6-6.4-1.5-2.2 0-4.4.4-6.4 1.4a10.9 10.9 0 0 0-6 10 10.9 10.9 0 0 0 6 10c2 1 4.2 1.4 6.4 1.4s4.4-.5 6.4-1.5a11 11 0 0 0 6-10c0-2-.5-4-1.6-5.8zM95.8 26.8a6.2 6.2 0 1 1 .2-12.4 6.2 6.2 0 0 1-.2 12.4zm10.8-12a11 11 0 0 0-4.4-4.1c-2-1-4.2-1.6-6.4-1.5-2.2 0-4.4.4-6.4 1.4a10.9 10.9 0 0 0-6 10 10.9 10.9 0 0 0 6 10 14.7 14.7 0 0 0 12.8 0 11 11 0 0 0 6-10c0-2.1-.5-4.1-1.6-6zM13 26.7a6.3 6.3 0 1 1 .1 0zm11-12.3c-1-1.7-2.4-3.1-4-4-1.8-1-3.8-1.5-5.8-1.5-2.5 0-4.9.9-6.8 2.4V0H.8v31.7H7V29a8.6 8.6 0 0 0 7.1 2.9c2 0 4-.5 5.7-1.4 1.7-1 3.1-2.4 4-4.1 1-1.9 1.6-4 1.5-6 0-2.2-.4-4.2-1.4-6zM61.8 20.4a6.4 6.4 0 1 1 12.7-.2 6.4 6.4 0 0 1-12.7.2zm-6 0c0 2.1.4 4.2 1.4 6 1 1.8 2.4 3.2 4.1 4.1 1.8 1 3.8 1.5 5.8 1.4a8.8 8.8 0 0 0 7.2-2.9v2.6h6.3V0H74v11.2c-2-1.5-4.3-2.4-6.8-2.4-2 0-4 .5-5.8 1.5-1.8 1-3.2 2.4-4.2 4.1a12 12 0 0 0-1.5 6z"/>
    </symbol>
    <symbol id="icon-uz" viewBox="0 0 90 32">
      <path fill="#2b2d7f" d="M51 13.6h30.4l-3.6-7.4A12 12 0 0 0 67.2 0H49a12.1 12.1 0 0 1 2 13.6zM35 8c2.7 0 4 1 4 2.4s-1.4 2.4-4 2.4h-2.5l-3.2 6.7h6.2c2.8 0 4 1 4 2.3s-1.2 2.3-4 2.3H27l-3.9 8h11.5c9 0 13.4-3.9 13.4-8.9a8.7 8.7 0 0 0-4.2-7.7c2.3-1.5 3.9-3.8 3.9-6.6 0-5.4-4.8-8.8-12.3-8.8H23.9l-7.2 15.1L9.4 0H.3L12 24.7 8.5 32h9L29.1 8h6zm17.4 15.8c0-1.9-.4-3.7-1.2-5.3h32.4L90.1 32H48.8a11 11 0 0 0 3.6-8.3z" style="fill:var(--color1, #2b2d7f)"/>
    </symbol>
    <symbol id="icon-silpo" viewBox="0 0 101 32">
      <path fill="#ff8522" d="M44.4 11.4c1.3 0 2.4-.6 2.5-2 0-.8-.6-1.6-2-1.7a3 3 0 0 0-1.8.5 2 2 0 0 0-.8 1.2c0 .5 0 1 .3 1.4.3.4 1 .6 1.8.6z" style="fill:var(--color2, #ff8522)"/>
      <path fill="#ff8522" d="M79.5 13c-.1.3-.5.7-.8.8h-.2l.2-1.1c0-1.2-.3-2.4-2.2-2.3-1.1.1-2.7 1.1-3 3.2-.2.8-.7 1.9-1 2a.3.3 0 0 1-.3-.2v-.1l-.1-.2.2-1 .3-1.8c.1-1.4-.8-1.7-1.7-1.6-.5 0-1 .3-1.5.7l-.3.4.2-1-2 .2-.7 2.9c-.2.3-.6.6-1 .7v-.1l-.1-.5c-.1-.3-.4-1.4-1.5-1.3-2.8.3-2.7 3.8-1 3.3l.2-.1v.2c-.2 1.4-.8 2.1-1.6 2.2a.4.4 0 0 1-.4 0 1 1 0 0 1-.2-.7c0-.7 1.3-6.4 1.3-6.4l-2.6.1-.7 2.8v.3l-.2 1c-.5 1-1.2 2.2-1.7 2.3h-.2a.4.4 0 0 1-.2-.4v-.5l1.4-5.4-3 .1-.2 1c-.1-.8-1.7-1.8-2.9-.7s-1.6 2.9-1.7 4.5v.1c-.3 2-.7 3.4-2.1 3.6h-.9c.4-.4.8-.7 1-1.1.5-1 .3-1.7-.3-2-1-.7-2.2.2-2.4 1.3-.1.5 0 1.1.3 1.6l-1.2.5a.9.9 0 0 1-.7-.2c-.4-.4 0-1.8.1-2l2-6-4.1.1-1 3.1c-.9 2.6-3.5 6-6.2 6.8-1.5.4-2.6.4-3.3 0-1-.7-1.6-2-1.3-4.1.2-1 .5-2 .9-2.8 2.2-4.9 5.9-3.9 5.7-3.5l-.7.3c-.6.4-1.5 1.3-1.6 2.4 0 .8.2 1.3.6 1.7a2 2 0 0 0 1.7.5 2.9 2.9 0 0 0 2.6-2.9c0-.9-.2-1.6-.8-2-.8-1-1.7-1.3-3.9-1.2-3.2.1-8.2 2.5-9.6 7.7-.4 1.8.2 4 1.3 4.9 1.5 1.3 3.3 1.7 6.5 1 2.8-.5 5.1-2.5 6.8-4.5-.4 1.6.2 3.1 2.7 2.8 1.4-.3 2.9-.9 4-1.8.7.5 1.6.8 2.8.6.5 0 1.7-.4 2.7-2 .8-1.2 1.2-3.5 1.4-4.8 0-.4.2-.7.3-1.1 0-.2.2-.3.4-.4.4-.2.6.2.5.5l-.5 2v.2c-.3.8-.6 1.7-.6 2.6 0 .7.2 1.3.5 1.6.4.3.9.4 1.4.3 1.6-.2 2.7-1.8 3.2-2.7v-.2l.2-.1v.3c.3 1.4 1.4 1.9 3 1.6 2.1-.3 3.4-1.4 3.7-3.3v-.1h.1l.6-.3.2-.2-.7 3.1 2.4-.4.9-4c.1-.6.5-1.8 1-1.8a.3.3 0 0 1 .2 0l.2.5c0 .5-.1 1-.3 1.4l-.4 2.2c0 1.3 1 1.3 1.3 1.2.8-.1 1.8-.5 2.7-2.4v.1c.1.5.4 1 .8 1.2s.9.4 1.4.3a3 3 0 0 0 2.5-2c.6 0 1.2-.7 1.4-1.3l-.2-.3zm-32.3 4.5c.4 0 .6.3.4.8l-1 1c-.5-.8 0-1.8.6-1.8zm16.2-2.6c-.1.2-.3.2-.5.3-.3 0-.4-.1-.4-.2 0-.3.2-.7.4-.8a.3.3 0 0 1 .4 0c.2.2 0 .7 0 .7zm13.5-.3c-.2.5-.4 1-1 1.1a.4.4 0 0 1-.3 0c-.2-.2-.2-.3-.2-.8 0-1.1.5-4 1.3-4h.2l.1.1c.2.2.3.5.2 1 0 0-.8 0-.9 1.3 0 .2 0 .4.2.6l.4.5v.2zm.2-.9c-.3-.1-.3-.6-.1-.8s.2-.1.2 0l-.1.8z" style="fill:var(--color2, #ff8522)"/>
      <path fill="#ff8522" d="M44.3 3c-3 .1-5.1 2.2-6.1 3.4-2.2-.7-4.4-.8-6.6-.3a20 20 0 0 0-7.8 3.7c-4.2 3.4-6.3 7.5-6 11.5a7.8 7.8 0 0 0 3.2 6c3.3 2.3 8.4 1.7 10.5 1.3l41.9-8.2c4.4-.9 8.5-2.4 9.3-7.7v-1c0-1.3-.4-2.6-1.2-3.5-1.4-1.5-3.6-1.7-5.1-1.7l-25.8 1c-.2-1-.6-1.9-1.2-2.6-.9-1-2.4-2-5-1.9zm-5.7 4a8 8 0 0 1 5.8-3.3c2.3 0 3.7.9 4.4 1.7.7.6 1 1.5 1.2 2.4v.3h.4l26-.8c1.4 0 3.4 0 4.6 1.4a5.3 5.3 0 0 1 1 3.9c-.7 4.8-4.6 6.3-8.8 7.1L31.4 28c-2 .4-7 1-10-1.2a7.1 7.1 0 0 1-3-5.4c-.2-3.8 1.9-7.7 5.8-11a19 19 0 0 1 7.5-3.5 12 12 0 0 1 6.5.3h.2l.2-.1z" style="fill:var(--color2, #ff8522)"/>
    </symbol>
    <symbol id="icon-naftogaz" viewBox="0 0 169 32">
      <path fill="#00a1df" d="M15.4 1c-5 0-8.7 2.7-8.5 7.7.2 6 5.5 7.8 7.4 8.5 2.3.8 5 2 6.3 4.3a6.5 6.5 0 0 1-3.8 9.6 9.6 9.6 0 0 0 7.8-6.2 8.5 8.5 0 0 0-1-7.9c-1-1.2-2.1-2.5-3.3-3.6-2-2.1-3.7-3.8-3.7-6.7s2-4.4 4.1-5C19 1 17.1.9 15.4.9zm6.4 2A3.8 3.8 0 0 0 18 6.7c0 2.3 1.3 3.9 3.4 5.7 6.2 5.6 6.8 11.8 2.3 16.6 2.4-1.2 4.2-3.2 5.4-5.6a11 11 0 0 0-.7-10.7c-1.2-2 .4-3 2-1.7-.8-2.8-3.7-7.7-8.6-8z" style="fill:var(--color3, #00a1df)"/>
      <path d="M19.5 26.9c-.8 2.1-3.4 4.9-7.8 3.5A15.3 15.3 0 0 1 .9 16 15.2 15.2 0 0 1 6.3 4.6a9.7 9.7 0 0 0 1.4 10.1c1.8 2.2 4 3 6.1 3.8 0 0 8.1 2.3 5.7 8.4zM110.8 8.5c-4.6 0-7.7 3.3-7.7 7.4 0 4.6 3.3 7.5 7.7 7.5s7.7-3 7.7-7.5-3.3-7.4-7.7-7.4zm-69.4.2v14.5h3v-8.7l7 8.7H54V8.7h-3v8.7l-7-8.7h-2.6zm22.1 0-6 14.5h3.3l1.2-3h5.8l1.2 3h3.5l-6-14.5h-3zm12.8 0v14.5h3.4V18H84v-3.1h-4.4v-3h5V8.6h-8.4zm12.2 0v3.1H93v11.4h3.3V11.8h4.3v-3h-12zm22.3 2.9a4.2 4.2 0 0 1 4.2 4.3c0 2.5-1.4 4.4-4.2 4.4a4.3 4.3 0 0 1-4.2-4.4c0-2.6 1.8-4.3 4.2-4.3zM64.9 13l1.6 4h-3.2l1.6-4z" style="fill:var(--color4, #000)"/>
      <path fill="#00a0df" d="M129.6 8.5c-4.6 0-7.3 3.3-7.3 7.4 0 4.5 2.7 7.5 7.7 7.5 2 0 4-.7 5.4-2v-6.5h-6.1V18h3v1.6c-.6.5-1.4.7-2.2.7-2.6 0-4.3-1.7-4.3-4.3 0-3 1.8-4.4 4.2-4.4 1 0 2.1.4 3 1l1.3-2.6c-1.3-1-3-1.6-4.7-1.5zm14.8.2-6 14.5h3.3l1.2-3h5.8l1.2 3h3.5l-6-14.5h-3zm12.8 0v3.1h6.7l-7.1 9v2.4h11.8V20h-7.4l7.2-9V8.6h-11.2zM145.8 13l1.6 4h-3.2l1.6-4z" style="fill:var(--color5, #00a0df)"/>
    </symbol>
    <symbol id="icon-1" viewBox="0 0 64 32">
      <path fill="#c70025" d="M.9 32c-.6 0-.9-.2-.9-.6v-8h.4c.6 0 .9.2.9.6v8H.9zm6.6 0c-.6 0-.9-.2-.9-.6v-3.8c0-.7-.5-1-1-1h-1c-.5 0-.9.3-.9 1V32h-.2c-.6 0-1-.2-1-.6v-5.8H3c.4 0 .7.2.7.5.4-.4 1-.5 1.7-.5h.1c1.5 0 2.4.8 2.4 2.5V32h-.3zm4 0c-1.4 0-2.1-.4-2.1-2.2v-3.2h-1v-.3c0-.5.2-.7.5-.7h.5v-1.7c0-.2 0-.3.2-.3h.7c.1 0 .2.1.2.3v1.7h2.1v.2c0 .5-.2.8-.5.8h-1.6V30c0 .7.4.9 1 .9h.7c.3 0 .5.3.5.8v.2h-1.1zm6.6-2.7h-3.6v.7c0 .6.5 1 1.1 1H18c.3 0 .5.2.5.7v.3h-2.8c-1.4 0-2.3-.8-2.3-2.5V28c0-1.7.9-2.5 2.3-2.5h.6c1.4 0 2.3.8 2.3 2.5v.7c0 .2-.2.5-.5.5zm-.6-1.8c0-.6-.5-1-1-1h-.9c-.6 0-1 .4-1 1v.9h2.9v-.8zm5.8-1H22c-.5 0-.9.4-.9 1V32h-.2c-.6 0-1-.2-1-.6v-5.8h.4c.4 0 .7.2.7.5.3-.3.6-.5 1.2-.5h1.7v.2c0 .5-.2.8-.5.8zm6.2 5.5c-.6 0-.9-.2-.9-.6v-3.8c0-.7-.5-1-1-1h-1c-.6 0-.9.3-.9 1V32h-.2c-.6 0-1-.2-1-.6v-5.8h.4c.4 0 .7.2.7.5.4-.4 1-.5 1.7-.5h.1c1.5 0 2.4.8 2.4 2.5V32h-.3zm6 0c-.4 0-.7-.3-.7-.7-.3.4-1 .7-1.6.7H33c-1.4 0-2.3-.8-2.3-2v-.2c0-1.2.9-2 2.3-2h1.8v-.4c0-.7-.5-.8-1-.8h-2c-.4 0-.5-.3-.5-.8v-.2h2.4c1.5 0 2.2.4 2.2 2.1V32h-.3zm-.8-3.2h-1.9c-.6 0-1 .3-1 1v.2c0 .6.4 1 1 1h1c.5 0 .9-.4.9-1v-1.2zm5 3.2c-1.5 0-2.3-.4-2.3-2.2v-3.2h-1v-.3c0-.5.2-.7.5-.7h.5v-1.7c0-.2.2-.3.3-.3h.7s.2.1.2.3v1.7h2v.2c0 .5-.1.8-.4.8h-1.6V30c0 .7.3.9 1 .9h.7c.3 0 .5.3.5.8v.2h-1.1zm3-7.3H42a.4.4 0 0 1-.4-.5V24c0-.3.1-.5.4-.5h.8c.3 0 .5.2.5.5v.3c0 .3-.2.5-.5.5zm0 7.3c-.6 0-1-.2-1-.6v-5.8h.4c.6 0 .8.2.8.5V32h-.2zm4.3 0h-.5c-1.5 0-2.4-.8-2.4-2.5V28c0-1.7.9-2.5 2.4-2.5h.5c1.5 0 2.4.8 2.4 2.5v1.4c0 1.7-1 2.5-2.4 2.5zm1.2-4.4c0-.7-.5-1-1-1h-.9c-.6 0-1 .3-1 1V30c0 .6.4 1 1 1h.9c.5 0 1-.4 1-1v-2.4zm7.1 4.4c-.6 0-1-.2-1-.6v-3.8c0-.7-.4-1-1-1h-.9c-.6 0-1 .3-1 1V32h-.2c-.5 0-.9-.2-.9-.6v-5.8h.4c.3 0 .7.2.7.5.4-.4 1-.5 1.6-.5h.2c1.5 0 2.3.8 2.3 2.5V32h-.2zm6 0c-.4 0-.7-.3-.7-.7-.3.4-1 .7-1.6.7h-.3c-1.4 0-2.3-.8-2.3-2v-.2c0-1.2.9-2 2.3-2h1.8v-.4c0-.7-.5-.8-1-.8h-2c-.4 0-.6-.3-.6-.8v-.2h2.5c1.5 0 2.2.4 2.2 2.1V32h-.4zm-.8-3.2h-1.9c-.6 0-1 .3-1 1v.2c0 .6.4 1 1 1h1c.5 0 .9-.4.9-1v-1.2zm3.3 3.2c-.6 0-1-.2-1-.6v-8.2h.3c.6 0 .9.2.9.6V32h-.2zM14.2 0H0v7.3h7.1v7.2h-7v7.3h21.2v-7.3h-7V0zm21.3 7.3V0h-7v7.3h-7.2v7.2h7.1v7.3h7.1v-7.3h7.1V7.3h-7.1zm21.3 7.2V0H42.6v7.3h7.1v7.2h-7.1v7.3h21.3v-7.3h-7.1z" style="fill:var(--color6, #c70025)"/>
    </symbol>
  </defs>
</svg>
