<svg xmlns="http://www.w3.org/2000/svg" aria-hidden="true" style="position:absolute;width:0;height:0;overflow:hidden">
  <defs>
    <symbol id="icon-close-plus-button" viewBox="0 0 32 32">
      <path d="M14 0v14H0v4h14v14h4V18h14v-4H18V0h-4z"/>
    </symbol>
    <symbol id="icon-jamming-band" viewBox="0 0 33 32">
      <path d="M16 32v-3a13 13 0 0 0 13-13h3c0 9-7 16-16 16zM1 16h2a13 13 0 0 0 13 13v3C8 32 1 25 1 16zM5 5l2 2a13 13 0 0 0-4 9H1c0-4 1-8 4-11zm11-5v3a13 13 0 0 0-9 4L5 5c3-3 7-5 11-5zm11 16c0-3-2-5-3-7s-5-3-8-3V4c7 0 13 5 13 12h-2zM16 26c3 0 6-1 8-3s3-4 3-7h2c0 7-6 12-13 12v-2zM6 16c0 3 1 5 3 7s4 3 7 3v2C9 28 4 23 4 16h2zm3-7c-2 2-3 4-3 7H4l3-9 2 2zm7-3c-2 0-5 1-7 3L8 7c2-2 5-3 8-3v2zm8 10a8 8 0 0 0-8-8V6c6 0 10 4 10 10h-2zm-8 8a8 8 0 0 0 8-8h2c0 6-4 10-10 10v-2zm-7-8a8 8 0 0 0 7 8v2c-5 0-10-4-10-10h3zm2-5c-2 1-2 3-2 5H6c0-3 1-5 3-7l2 2zm5-3c-2 0-4 1-5 3L9 9c2-2 5-3 7-3v2zm1 8-1-1V9c4 0 7 3 7 7h-6zm-1 1 1-1h6c0 4-3 7-7 7v-6zm0-1v7c-4 0-7-3-7-7h7zm0 0H9l2-5 5 5zm0-1v1l-5-5 5-2v6zm16 1h-3A13 13 0 0 0 16 3V0c9 0 16 7 16 16zm-1-6a16 16 0 0 0-21-9 16 16 0 0 0-5 26 16 16 0 0 0 27-11l-1-6z"/>
    </symbol>
    <symbol id="icon-large-display" viewBox="0 0 20 32">
      <path d="M15 0H4C2 0 0 2 0 4v24c0 2 2 4 4 4h11c2 0 4-2 4-4V4c0-2-1-4-4-4zm3 28c0 2-1 3-3 3H4c-1 0-3-1-3-3V4c0-2 2-3 3-3h11c2 0 3 1 3 3v24z"/>
      <path d="M15 11v-1h-3l-1 1 1 1h1l-3 2a1 1 0 0 0 1 0l2-2v1a1 1 0 1 0 2 0v-2zM8 15l-2 3v-2l-1 1v3h3a1 1 0 0 0 0-1H7l2-3a1 1 0 0 0-1-1z"/>
    </symbol>
    <symbol id="icon-clock-45" viewBox="0 0 33 32">
      <path d="m11 4-1-1-4 3v1l5-3zm16 2-4-3-1 1 4 3 1-1zM16 5a12 12 0 1 0 0 24 12 12 0 0 0 0-24zm0 24a11 11 0 1 1 0-23 11 11 0 0 1 0 22z"/>
      <path d="M14 20h-4v-1l5-6v6h1v1h-1v1h-1v-1zm-2-1h2v-3h-1l-1 2h-1v1h1zm6 1-1-1h1l2 1 1-2-2-1a3 3 0 0 0-1 1h-1v-5h5v1h-3v2h1l2 1a2 2 0 0 1 0 1 2 2 0 0 1 0 2l-2 1-2-1z"/>
    </symbol>
    <symbol id="icon-wide-range" viewBox="0 0 43 32">
      <path d="M35 12a1 1 0 0 1 0 1 1 1 0 0 1-1 0 1 1 0 0 1 0-1 4 4 0 0 0-1-2 4 4 0 0 0-3-1 1 1 0 0 1 0-1 5 5 0 0 1 2 0 5 5 0 0 1 2 2 5 5 0 0 1 1 2zm1-6a9 9 0 0 0-6-2v1a8 8 0 0 1 7 4 8 8 0 0 1 1 3s1 0 1 0a9 9 0 0 0-3-6zm7 4a13 13 0 0 0-5-8 13 13 0 0 0-7-2h-1a1 1 0 0 0 0 1 1 1 0 0 0 1 0 12 12 0 0 1 9 5 11 11 0 0 1 2 5 1 1 0 0 0 1 0 1 1 0 0 0 0-1zm-11 5v14a3 3 0 0 1-3 3H3a3 3 0 0 1-3-2 3 3 0 0 1 0-1V15a3 3 0 0 1 1-2 3 3 0 0 1 1-1l13-6a2 2 0 0 1 2-3 2 2 0 0 1 1 1 2 2 0 0 1 1 0 2 2 0 0 1 0 1 2 2 0 0 1 0 1 2 2 0 0 1-1 1 2 2 0 0 1-1 0 2 2 0 0 1-1 0h-1L5 12h24a3 3 0 0 1 3 3zM16 5a1 1 0 0 0 0 1 1 1 0 0 0 1 0 1 1 0 0 0 1-1 1 1 0 0 0 0-1 1 1 0 0 0-1 0 1 1 0 0 0-1 1zm14 10a2 2 0 0 0 0-1 2 2 0 0 0-1-1H3a2 2 0 0 0-1 1 2 2 0 0 0-1 1v14a2 2 0 0 0 1 1 2 2 0 0 0 1 1h26a2 2 0 0 0 1-1 2 2 0 0 0 0-1V15zm-15 7a5 5 0 0 1-2 4 5 5 0 0 1-7 0 5 5 0 0 1-1-3 5 5 0 0 1 0-3 5 5 0 0 1 7-3 5 5 0 0 1 3 5zm-2 0a4 4 0 0 0 0-1 4 4 0 0 0-1-2 4 4 0 0 0-1-1 4 4 0 0 0-3 0 4 4 0 0 0-1 1 4 4 0 0 0-1 1 4 4 0 0 0 0 2 4 4 0 0 0 1 2 4 4 0 0 0 0 1 4 4 0 0 0 4 1 4 4 0 0 0 1-1 4 4 0 0 0 1-1 4 4 0 0 0 0-2zm14-4h-9a1 1 0 0 0-1 0 1 1 0 0 0 1 1h9a1 1 0 0 0 0-1zm0 3h-9a1 1 0 0 0-1 1 1 1 0 0 0 1 0h9a1 1 0 0 0 0-1zm0 4h-9a1 1 0 0 0-1 0 1 1 0 0 0 0 1 1 1 0 0 0 1 0h9a1 1 0 0 0 0-1z"/>
    </symbol>
    <symbol id="icon-water-cooled-engine" viewBox="0 0 48 32">
      <path d="M14 30h24v1H14v-1zm2-2h20v2H16v-2zM1 15h8v3H1v-3zm8-3h1v8H9v-8zm4-6v20l-2-6v-8l2-6zm11-1a1 1 0 1 1 0 2 1 1 0 0 1 0-2zm-4 0a1 1 0 1 1 0 2 1 1 0 0 1 0-2zm-6-1h1v24h-2V5l1-1zm30 0 3 3v18l-3 3V4zM24 4a2 2 0 1 0 0 4 2 2 0 0 0 0-4zm-4 0a2 2 0 1 0 0 4 2 2 0 0 0 0-4zm-4 0h22v6H16h22-22v1h22-22v1h22-22v1h22-22 22v1H16h22v4H16v1h22-22 22v1H16h22v1H16h22-22v1h22-22v1h22v5h-1v-1H16v1h-1V4h1zm22 0h5v24h-5V4zM16 1h12v2H16V1zm0-1h-1v4h-1a1 1 0 0 0-1 0v1l-3 7H9v2H0v4h9v2h1l3 8h3v2h-2v2h25v-2h-2v-2h1v1h6l4-3V7l-4-4h-6v1h-9V0H16z"/>
    </symbol>
    <symbol id="icon-modified" viewBox="0 0 37 32">
      <path d="M31 32c-2 0-4-1-5-4H3c-2 0-3 0-3-2V4c0-1 1-2 3-2h4V0h1v2h6V0h1v2h6V0h1v2h6V0v2h5l2 2v19a5 5 0 0 1-4 9zm-5-5 1 1c0 2 2 3 4 3a5 5 0 1 0 0-9 5 5 0 0 0-5 5zM1 10v16l2 2h23v-2c0-2 2-5 5-5l4 2V4l-2-1h-5v1-1h-6v1h-1V3h-6v1h-1V3H8v1H7V3H2L1 4v6h24H1zm30 19-1-1a5 5 0 0 0-1-1s0-1 0-1a6 6 0 0 1 2 2l2-4 1 1-3 3v1zm-7-6h-5 5zm-7 0h-5 5zm-7 0H5h5zm20-4h-5 5zm-6 0h-5 5zm-7 0h-5 5zm-7 0H5h5zm20-4h-5l1-1h4v1zm-7 0h-4v-1h4v1zm-6 0h-5v-1h5v1zm-7 0H5l1-1h4v1zm22-5h-3 3z"/>
    </symbol>
    <symbol id="icon-jamming-band1" viewBox="0 0 33 32">
      <path d="M16 32v-3a13 13 0 0 0 13-13h3c0 9-7 16-16 16zM1 16h2a13 13 0 0 0 13 13v3C8 32 1 25 1 16zM5 5l2 2a13 13 0 0 0-4 9H1c0-4 1-8 4-11zm11-5v3a13 13 0 0 0-9 4L5 5c3-3 7-5 11-5zm11 16c0-3-2-5-3-7s-5-3-8-3V4c7 0 13 5 13 12h-2zM16 26c3 0 6-1 8-3s3-4 3-7h2c0 7-6 12-13 12v-2zM6 16c0 3 1 5 3 7s4 3 7 3v2C9 28 4 23 4 16h2zm3-7c-2 2-3 4-3 7H4l3-9 2 2zm7-3c-2 0-5 1-7 3L8 7c2-2 5-3 8-3v2zm8 10a8 8 0 0 0-8-8V6c6 0 10 4 10 10h-2zm-8 8a8 8 0 0 0 8-8h2c0 6-4 10-10 10v-2zm-7-8a8 8 0 0 0 7 8v2c-5 0-10-4-10-10h3zm2-5c-2 1-2 3-2 5H6c0-3 1-5 3-7l2 2zm5-3c-2 0-4 1-5 3L9 9c2-2 5-3 7-3v2zm1 8-1-1V9c4 0 7 3 7 7h-6zm-1 1 1-1h6c0 4-3 7-7 7v-6zm0-1v7c-4 0-7-3-7-7h7zm0 0H9l2-5 5 5zm0-1v1l-5-5 5-2v6zm16 1h-3A13 13 0 0 0 16 3V0c9 0 16 7 16 16zm-1-6a16 16 0 0 0-21-9 16 16 0 0 0-5 26 16 16 0 0 0 27-11l-1-6z"/>
    </symbol>
    <symbol id="icon-ism-band" viewBox="0 0 51 32">
      <path d="m23 32-1-1v-3l-2-12a158 158 0 0 0-1-15l-1 3a73 73 0 0 0-2 12 108 108 0 0 1-1 12l-1 1v-1l-1-2-1-10v-2a74 74 0 0 0-1-7v1a141 141 0 0 0-1 16l-1 1v-1l-1-2a133 133 0 0 1-1-11l-1 2v3l-1 3-1 2-1-2-1-3v-2l-1 2H0l1-2 1-1 1 1v2a37 37 0 0 0 1 3 46 46 0 0 0 1-6l1-3 1-1 1 2v5a156 156 0 0 0 1 6l1-6V7l1-3h1l1 2v8a464 464 0 0 0 2 2 190 190 0 0 1 3-15l1-1 1 1v3l1 12a175 175 0 0 0 2 15l1-3a81 81 0 0 0 1-12 215 215 0 0 1 2-15l1-1 1 1v3l1 12a157 157 0 0 0 2 15l1-3a72 72 0 0 0 1-12 108 108 0 0 1 2-12l1-1v1l1 2a123 123 0 0 1 1 18v2a108 108 0 0 0 2-16V8l1-1v1l1 2a134 134 0 0 1 1 11l1-2a90 90 0 0 1 1-6l1-2 1 2v3l1 2 1-2h1l-1 2-1 1-1-1-1-2a37 37 0 0 0 0-3 46 46 0 0 0-1 6l-1 3-1 1-1-2v-5a154 154 0 0 0-1-6 231 231 0 0 0-2 17l-1 1v-1l-1-2a149 149 0 0 1-1-18V5l-1 3-1 8a190 190 0 0 1-2 15l-1 1-1-1v-3l-2-12a174 174 0 0 0-1-15l-1 3a82 82 0 0 0-1 12 215 215 0 0 1-2 15l-1 1z"/>
    </symbol>
    <symbol id="icon-intelligent-audio" viewBox="0 0 29 32">
      <path d="M15 19v1h-1v-1h1z"/>
      <path d="m9 24 2 2 2 1h3l1-1 2-2v-7H9v7zm5-6a1 1 0 1 1 0 2 1 1 0 0 1 0-2zm0 3a2 2 0 1 1 0 4 2 2 0 0 1 0-4z"/>
      <path d="M14 25a2 2 0 1 0 0-4 2 2 0 0 0 0 4zm0-3a1 1 0 1 1 0 2 1 1 0 0 1 0-2zM13 28h3-3z"/>
      <path d="M14 24a1 1 0 1 0 0-2 1 1 0 0 0 0 2zM17 30l-1-1h-3l-1 1h-1l-1 2h8l-1-2zM19 17V9l-3-2h-4l-2 2v8-8l2-2h4l2 2v8h1z"/>
      <path d="M16 7h-4l-1 2v8h7V9l-2-2z"/>
      <path d="M14 0a14 14 0 0 0-6 26v-2c-4-2-6-6-6-10a12 12 0 1 1 19 10v2a14 14 0 0 0-7-26z"/>
      <path d="M21 19v1a10 10 0 0 0-7-17 10 10 0 0 0-6 17v-1a9 9 0 1 1 13 0z"/>
    </symbol>
    <symbol id="icon-hybrid-zoom" viewBox="0 0 33 32">
      <path d="M29 6v20H3V6h26zm0-1H3a1 1 0 0 0-1 1v20a1 1 0 0 0 1 1h26a1 1 0 0 0 1-1V6a1 1 0 0 0-1-1z"/>
      <path d="m23 17-2-2h1l1 1v1-1l1-1h1l-1 2 2 3h-2l-1-1v-1 1l-1 1h-1l2-3zM9 20l-2-2h2a2 2 0 0 0 1 1l2-2-2-1a3 3 0 0 0-2 1v-5h5v1H9v2h4a2 2 0 0 1 0 2 2 2 0 0 1-1 2l-2 1H9zm6-1a3 3 0 0 1-1-2l1-2 2-3h1l-1 2v1h-1 1a3 3 0 0 1 3 2 3 3 0 0 1-1 2 3 3 0 0 1-2 1 3 3 0 0 1-2-1zm3-1 1-1-1-1a2 2 0 0 0-2 0l-1 1 1 1a2 2 0 0 0 2 0zm10-8h-1V8h-1V7h2v3z"/>
      <path d="m25 10 3-3v1l-2 2h-1zM5 10H4V7h3v1H5v2z"/>
      <path d="m4 8 1-1 2 3-3-2zM28 25h-2v-1h1v-2h1v3z"/>
      <path d="M25 22h1l2 2v1l-3-3zM7 25H4v-3h1v2h2v1z"/>
      <path d="m4 24 3-2-2 3-1-1z"/>
    </symbol>
    <symbol id="icon-fast-charging" viewBox="0 0 36 32">
      <path d="M29 10H4v12h25V10zM4 11h10L8 21H4V11zm5 10 6-10h10l-7 10H9zm20 0H19l6-10h4v10zm5-9h-1v-2a2 2 0 0 0-3-2H3a2 2 0 0 0-3 2v12a2 2 0 0 0 3 2h27a2 2 0 0 0 3-2v-2a2 2 0 0 0 2-1v-6a2 2 0 0 0 0-1 2 2 0 0 0-1 0zm-2 10a1 1 0 0 1-1 2H3a1 1 0 0 1-2-1V10a1 1 0 0 1 1-2h28a1 1 0 0 1 2 2v12zm2-3a1 1 0 0 1 0 1h-1v-8h1a1 1 0 0 1 0 1v6zm-15-3h-1v-4l-4 4h1l-1 4h1l4-4zm-4 3 1-3h-1l2-3v3h1l-3 3zm3-19v5h-1V0h1zm-5 1 3 3v1h-1l-3-3V1h1zm10 0v1l-3 3V4l3-3zm-5 31h-1v-5h1v5zm5-1-3-3v-1l3 3v1zm-11 0v-1l3-3h1c1 0 0 0 0 0v1l-3 3h-1z"/>
    </symbol>
    <symbol id="icon-diesel-fuelled" viewBox="0 0 48 32">
      <path d="m45 1-1-1H29l-3 1-5 3h-3L6 10v3l-1 1-4 3-1 3v7h1l1-1h1l-1-1h1l5 6a3 3 0 0 0 3 0l13-10v-7l2-2V9l-1-1h-1l4-3 3-1h12c2 0 2-1 2-2V1zM24 8v1l1 1v2l-1 2v7L11 31a2 2 0 0 1-3 0l-5-7-1 1v1l-1 1v-7l1-3 4-3v-3h1l11-7h2l1 1 2 3h1zm19-5H31l-4 2-3 2-2-2 4-4 3-1h15a1 1 0 0 1 1 2l-2 1z"/>
      <path d="m15 17-2-1-6 5v2l3 4a1 1 0 0 0 2 0l6-4v-3l-3-3zm-4 1 1 2 1 2h1-1l-3-2 1-2zm7 4-6 5h-1c-1 0 0 0 0 0l-3-5v-1l1-1h1l3 2 1 1h1v-1l-2-1-1-2v-1l1-1a1 1 0 0 1 2 0l3 4v1zM44 18c-2 0-3-2-3-4l2-6 1-1 1 1 3 6c0 2-2 4-4 4zm0-10-3 6a3 3 0 0 0 6 0l-2-6h-1z"/>
    </symbol>
    <symbol id="icon-cmos-wide-camera" viewBox="0 0 32 32">
      <path d="M14 21h-3l4-4v5h-1v-1zm-2 0h2v-3 1h-1l-1 1v1zm8 1-1-1h2l2-1-2-1 1-1v-1h-2 3l-1 1a2 2 0 0 1 0 1h1a2 2 0 0 1 0 1 2 2 0 0 1 0 2h-3zm-2-6h1l-2 7h-1l2-7z"/>
      <path d="M25 14v11H11l-4-4 2-7h16zm1-1H8l-2 8 4 5h16V13zm-1-6v3H10l1-3h14zm1-1H10l-1 5h17V6z"/>
      <path d="M27 5v22H9l-4-6V5h22zm1-1H4v18l5 6h19V4z"/>
    </symbol>
    <symbol id="icon-flower2right" viewBox="0 0 52 32">
      <path d="m27 30-1-1c-1 0 0 0 0 0v-1h-1l-1-1h-1l-1-1h-1v-1h-1v-1h-1v-1l-1-1v-1l-1-1h-3l-1 1h-1l-1-1H8l-1-1-2-1H4v-1H3l-1-1H1v-1H0h1-1v-1h1-1v-1h1l-1 1h1v-1 1-1h1c-1 0-1 0 0 0h1v1h1l1 1h1l1 1h1v-1h1a99 99 0 0 0 0-1v-2l1-1-1-1V5l1-1V2h1l1-2h2a6 6 0 0 1 1 0 16 16 0 0 0 1 1h1v1h-1v3h-1v2a59 59 0 0 1 0 1v4l-1 1v1l-1 1h-1l-1 1v1h-1a75 75 0 0 0 3 1h1l1-1h1l1-1a21 21 0 0 0 2-1v-1h2-1l-1 1v-1h1l4-2 1-1 1-1h6v1h1l1 1 1 1 1 1a11 11 0 0 1 1 1 23 23 0 0 0 3-1h9v1h1l1 1v2-1l1 1h-1 1c-1 0-1 0 0 0l-1 1v1h-3l-1 1a11 11 0 0 1-1 0l1 1 1 1v1h1v3c-1 0-1 0 0 0h-1 1l-1 1h-2a3 3 0 0 1-1 0h-1l-1-1v4c0 1 0 1 0 0h-1v1h-2l-1-1h-1v-1h-1l-1-1v-1a28 28 0 0 0-1-2v-8l1-1-1-1-1-1-1-1a6 6 0 0 0-1-1h-1l-1-1h-1l-1 1h-1l-1 1h-1v1-1l-1 1-1 1h-1v1h-2v1s0-1 0 0v1c1 0 0 0 0 0h1s0 1 0 0v1h1v1h2-1v1h2-1 2v1h2l1 1h1v1h1v1h1v1h1v1h-1v1h1-1 1v1h-1l1-1h-1v1h1v-1 1h-1v1-1h1-1v1h-1 1v1h-3v-1h-1v-1h-1zm-1-18zm-2 0zm15 5h1-1zm9 8v-1 1zm-10 1v-1 1zm10-1zm-5-8h-1v1l1-1zm-4 10zM23 15h-1 1zm15 4v-1 1s1 0 0 0h1l-1-1v-1 2s-1 0 0 0zm1-1zM26 29h1-1zm16-11h1-1zm-4 8h1v1l1 1-1-1v-1h-1zM24 14zm24 10v1h1-1v-1zM23 13v1h-1 1v-1zm25 13h1-1zM33 12h1l-1-1v1zm-3 20v-1h-1 1-1v1h1zm9-14h-1 1zm-17-5h1-1zm17 4h1a3 3 0 0 0-1 0zM25 28h1-1zM3 14H2h1zm45 11 1 1-1-1zM24 12v1-1zm0 1zm15 5h-1 1zm4 6h1-1zM23 14zm4 15v1-1zM1 14H0h1zm43 10zm-5 4v-1 1zm-17-2zm6-16h-1 1zm15 8h1-1zM4 14H3h1zm11-9h1c1 0 0 0 0 0h-1zm10 23zm18 3zM22 14v-1 1zm1-2v1-1zm1 1zm-1 1h1-1zm1-1zm0-1zm17 6h-1 1zm-18-5zm-1 2zm10 16zm-2-5zm-4 2v1-1zm3-18c0 1 0 1 0 0zm10 7v1-1zM15 5zm8 10zm2-3h-1 1zm15 5zm3 14zM22 14zm19 4h-1 1zm-30 0zm30 0zm1 13zm2-7zm0-6h-1 1c1 0 0 0 0 0zm-6 9h1-1zm4-3zm0-7h1-1zm0 0zm-1 1zm0 0zm0-1h-1 1zm-2 1zm-17-4zm1-1zm-1 1zm9 18zm-4-21zm22 15zm-26-5zm5-11zm0 20v1-1zm0 0v1-1zm-1-19zm21 14zM16 3v1-1zm-1 2zm36 11zm-28-2zm9 17zm12-7zm-5-6zm6 3zm-4-3zm1 0zm0-1zm2 4zm-2 2zm-3 4h-1 1zm5-9zm-1 5zm-1-5zm0-1zm-3 1zm0-1zm0 0s-1 0 0 0c0 0-1 0 0 0zm-9 15h1-1zm2-4zm-4 2zm-1 0zm2-5zm-1-14v-1 1zm-3 1zM15 5zm8 10zM16 4zm7 10zM16 4zm7 10zm0 0zm-1 0zm1-1zm-12 5h-1 1zm9-1zm0 1z"/>
    </symbol>
    <symbol id="icon-flower2left" viewBox="0 0 48 32">
      <path d="m24 30 1-1 1-1h1v-1h1l1-1h1l1-1 1-1 1-1v-2h1l1-1h8v-1h1l2-1 1-1h1l1-1h1v-1h1v-1h-1 1v-1 1h-1v-1c0-1 0 0 0 0h1-2l-1 1h-1v1-1 1h-2v1h-2v-1l-1-1V4l-1-1V2h-1l-1-2h-1a5 5 0 0 0-2 0 18 18 0 0 1-1 1v1-1 3l1 1h1-1l1 1v1a38 38 0 0 0 0 1l-1 1v2l1 1v2l2 1 1 1v1h1l-1 1h-2l-1-1h-1l-1-1a21 21 0 0 1-2-1l-1-1h-1 1v1h1-1v-1h-1l-3-2-2-1-1-1h-6v1h-1l-1 1-1 1v1a11 11 0 0 0-1 1h-1a23 23 0 0 1-3-1H7c0-1 0 0 0 0H3l-1 1H1v1H0v1h1-1 1-1v1-1 2l1 1h4a11 11 0 0 0 1 1l-1 1-1 1-1 1v3h1v1h1a3 3 0 0 0 2 0h1l1-1v1l-1 1v2h2l1 1v-1h2v-1h1l1-1 1-1a27 27 0 0 1 0-2l1-1v-4h-1v-5h1v-1h1v-1a5 5 0 0 1 2-1l2-1h1l1 1h1l1 1c1 0 1 0 0 0l1 1v-1a25 25 0 0 1 0 1h1c-1 0-1 0 0 0v1h1l1 1h1v1-1 1h1-1v1h-1v1h-1v1h-1v1h-3v1h-2l-1 1h-1v1h-1v1l-1 1v3l-1-1 1 1h1-1l1 1h-1 1v1c0-1 0-1 0 0 0-1 0-1 0 0h2v-1h1v-1h1zm1-18v-1 1h1-1zm3 0zm-16 5zm-9 8h1-1l1-1v1H3zm10 1v-1h1v-1 1h-1v1zm-9-1v-1 1zm5-8zm4 10zm16-12h-1 1c0-1 0-1 0 0zm-15 4v-1l-1 1v-1 1-2h1v2zm-2-1h1-1zm13 11v-1 1zM10 18H8h2zm3 8-1 1v1-2h1zm14-12zM4 24H3v1-1h1v-1 1zm24-11h1l1 1h-1v-1h-1zM3 26v-1 1zm15-14h-1 1l1-1h-1v1zm4 19zm-9-13zm16-5h-1v-1l1 1zm-16 4h-1a3 3 0 0 1 1 0zm13 11zm22-14 1-1v1h-1zM3 25c1 0 0 0 0 0zm25-13v1c0 1 0 0 0 0l-1-1h1zm-1 0 1 1h-1v-1zm-14 6zm-5 6v-1 1zm20-10zm-3 15h-1 1zm25-15h1-1zM8 24zm4 3h1-1zm17-1h1-1zm-5-16zM8 17zm40-3h-1 1zM36 5zM26 28l1-1-1 1zM9 31zm21-18v1l-1-1h1zm-2-1zm0 0v1-1zm0 2zm-1-1zm0-1zm-16 6zm17-5zm1 2zM19 31zm2-5zm4 2h1-1zm-2-18h-1 1zm-10 7c-1 0 0 0 0 0h-1 1zM36 5zm-8 10zm-1-3zm-15 5zM9 31zm21-17zm-19 4zm30 0h-1 1zm-31 0zM9 31zm-1-7H7h1zm0-6zm5 8zm-4-3v1-1zm0-6zm0 0zm1 1zm1-1s0 1 0 0zm0 0zm1 1zm17-4h1-1zm0-1h-1 1zm0 1zm-8 17zm3-20zM3 26v-1 1c0 1 0 0 0 0zm25-5zm-5-11h1-1zm0 20zm0 0zm1-19zM4 25zM35 3v1-1zm1 2zM1 16zm27-2zm-8 16zM7 24zm6-6zm-6 3zm4-3zm-1 0zm0-1H9h1zm-2 3c0 1 0 1 0 0zm2 3H9h1zm3 4zm-5-9zm1 5zm1-5zm0-1zm3 1v-1 1zm0-1zm0 0zm8 15zm-2-5zm5 3h-1c-1 0 0 0 0 0h1zm0 0zm-2-5zm1-15c0 1 0 0 0 0zm3 2zm10-7zm-8 10v-1 1zm7-11h1-1zm-6 10zm7-10zm-7 10zm0 0zm0 0zm-1-1zm13 5v-1 1zm-10-1zm1 1h-1 1z"/>
    </symbol>
    <symbol id="icon-flowerdown" viewBox="0 0 31 32">
      <path d="M19 8V6h1-1l1-1h-1 1-2v1a25 25 0 0 0-1 0l-1 1a11 11 0 0 0-1 1h-1v1l-1 1a7 7 0 0 0-1 1v2l-1 1v3h2l1 1h1v1a12 12 0 0 0 1 1v2h1v6h-1v2l-1 1a1 1 0 0 1-1 1l-1-1v-1h-1v-2 2a7 7 0 0 1-1 1l-1 1H9v-4l-1 1v1l-1 1H5v-4l-1 1v1a31 31 0 0 1-1 1v1l-1 1H1l-1-1v-5l1-1a14 14 0 0 1 0-1v-1h1v-2h1l-1 1v2-1c0-1 0 0 0 0l1-1v-1h1v-1h1v-1 1-1h1v-1h2v-1h1v-1h1-1v-1h1v-2 1l1-1H9v1H7v1H6h1-2 1-1v-1h1-1v-1h1v-1h2v-1h3v-1 1h1v-1l1-1V8h1-1c1 0 0 0 0 0H7h4-3 1V7L8 8V7H4c1 0 0 0 0 0H3h1-1V6l1-1H3v1-1l1-1h1s1 0 0 0h2V3h2-1v1H7h4-2a5 5 0 0 1-1 0H6v1h1V4h1L7 5H6h2-1 3-1 2V4h2s0-1 0 0a19 19 0 0 0-1-1h3v1h2c0 1 0 1 0 0h2l1-1h2a12 12 0 0 1 1 0h3l1 1h1V0h2v1a6 6 0 0 0 0 1v3l-1 1 1 1a8 8 0 0 1 1 2v1a21 21 0 0 1 0 1v4h-1v-4l-1-2V8l-1-1-1-1V5h-1l-1-1h-3v1h1v3h-1v3a15 15 0 0 1-1 2 15 15 0 0 1-1 2h-2V8h1zm8-4h-1V3v1h1zM9 11l-1 1h1v-1zm-2 1h1-1zm1 0h1a5 5 0 0 0-1 0zm-2 1-1 1h1v-1H5v1l1-1zm5-7v1-1h1-1 1-1 1-3v1H8h1l1-1h1zM9 5h1-3v1H6h2V5v1l1-1v1-1zM5 27v2l1 1v1-1h1v-1l1-1a18 18 0 0 0 1-2v1c0 1 0 0 0 0v3l1 1v-1l1-1v-1l1-1v-2h1v4a33 33 0 0 0 1 2v-1h1v-4 1-2s0 1 0 0h1v-1h-1 1l-1-1v-3h-1v-1H7v1H6v1H5v2H4v2H3v1a10 10 0 0 0 0 1l-1 1v3-1h1v-2h1v-2l1-1v2zM21 6v1l-1 1v2-1s0-1 0 0V8c0-1 0 0 0 0 1 0 0 0 0 0h1V6v2l-1 1v4-2h1V6zm-9-2h1-1zM2 26zm1-1v1-1zm5-12h1v-1l-1 1zm2-8zM6 15zm0-2h1-1zm2 1v-1 1zm13-9h-1v1l1-1zM7 5H6h1zM6 6zm5 5zM2 26zM16 5h1-1c0-1 0-1 0 0zm-8 8zm-3 7zm1-7zm3-2v1-1zm4-7zm-5 9v-1 1zM5 7V6H4l1 1zm9 1V7v1zm-4 3-1 1h1v-1zm-2 0v1-1zM3 26zm3-7zM6 6zm2 7zm11 1zM11 4zm5 0zm8-1zm1 0zM8 12zm0 0zm0 0zm0 0zm13-7zM1 25z"/>
    </symbol>
    <symbol id="icon-flowerup" viewBox="0 0 31 32">
      <path d="m13 24-1 1v2h1l1-1 1-1h1a11 11 0 0 0 1-1v-1l1-1a7 7 0 0 0 1-1v-1l1-1v-3h1v-1h-3v-1h-1l-1-1a12 12 0 0 0-1-1V9h-1V6h1V2h1V1a1 1 0 0 1 1-1h1v1l1 1v2l1-1a7 7 0 0 1 1-2l1-1v1h1v3-2h1V1h2l1 1v3-2h1a31 31 0 0 1 0-1l1-1V0h2v7a14 14 0 0 1-1 1v1l-1 1v1-2h1-1 1V8l-1 1v1-1 1h-1v1l-1 1h-1c1 0 0 0 0 0v1-1 1l-1 1h-1l-1 1h-1v3h-1v1-1 1h1l1-1h1v-1h1-1 2v2h-1v1h-2v1a22 22 0 0 0-1 0h1-2l-1 1v-1 1h-1v1h-1v1h6-3c-1 0-1 0 0 0h3-1l-1 1h1v-1h1v1h-1 5c0 1 0 1 0 0h-1 1v2-1 2h-4v1h-2 1l1-1h1-1 1-5 2a5 5 0 0 1 1 0h2v-1l-1 1h-1l1-1h1-2 1-4v1h-2 1v1h-3v-1h-2c0-1 0-1 0 0h-2v1h-2a12 12 0 0 1-2 0H5v-1H4v2H3v2H2l-1-1v-3l1-1v-1l-1-1a7 7 0 0 1-1-2v-1a24 24 0 0 1 0-1v-3l1-1h1v7h1v1l1 1 1 1h1v1h3v-7h1a15 15 0 0 1 0-2h1a15 15 0 0 1 0-2h2v1h1v4h-1v2zm-8 4h1v1-1H5zm17-7h1v-1 1h-1zm2-1h1-1zm-1 0h-1a5 5 0 0 0 1 0zm3-1v-1l-1 1h1v-1 1zm-5 7h-1v-1 1h2v-1h1-1l-1 1zm1 1h-1 3v-1h1-2v1-1 1h-1 1-1v-1 1zm4-22V1h-1v1h-1v2h-1a18 18 0 0 0 0 2h-1V1l-1 1v1h-1v4h-1l-1-1V3a38 38 0 0 0-1-2v1l-1 1v3-1 2s0-1 0 0v3l1 1v2h7v-1h1v-1h1v-1l1-1V8h1V6a10 10 0 0 0 1-1V3l1-1V1l-1 1-1 1v1h-1v3h-1V5zM10 26l1-1v-2h1v-1h-1v1s0 1 0 0v1c0 1 0 0 0 0v1h-1v1-2h1v-4h1v-1l-1 1v1l-1 1v4zm10 2h-1 1zM30 6h-1 1zm-1 1V6v1h-1 1zm-6 12-1 1h1v-1zm-2 8h1-1zm5-10h-1a5 5 0 0 0 1 0zm-1 2zm-2-1v1-1zm-12 9v-1 1zm14 0zm0-1zm-5-5zm9-15zM15 27c0 1 0 1 0 0zm8-8zm4-7zm-2 7zm-3 2v-1 1zm-3 7zm5-9h-1v1h1v-1zm3 6v1-1zm-9-1v1-1zm4-3v-1 1zm1 0v-1 1zm6-15zm-3 7zm-1 13zm-1-7a4 4 0 0 0-1 0h1zm-12-1zm8 10zm-5 0zm-8 1zm0 0zm17-9zm0 0zm-1 0zm1 0zm-13 7zM30 7z"/>
    </symbol>
    <symbol id="icon-stemright" viewBox="0 0 111 32">
      <path d="M111 17h-1v3l-1 1v1l-1 1h-2l-1 1-1-1v2h1v2h1l-1 1v2l-1 1h-2v1h-4v-1l-1-1-2-2-1-2v-1l-1-1v-2 1-3l-1-1h-2v-1h1-2 1l-1-1h-1 1-1v-1h-1 1-1 1v-1c0 1 0 1 0 0h-1v-1 1-1h-1 1l-1 1h1v1h-3v-1h-1l-1-1h-4l-1-1h1-3l-1-1h-2v-1h-1 1-7l-1-1h-9V9h5-2 1l1-1v1h2l-1-1h-4 1V7h-1s0 1 0 0h-5 1v1h-1 1c0 1 0 1 0 0h-1v1-1 1h-1 2-2v1-1h-2 1-3v1h-1 1l-1 1h-1v-1h-2v1h-2 2l-1 1h-2l-1 1h-2l-1 1h-1l-1 1-3 1-2 1c-1 0-1 0 0 0l1 2 2 2v1h-1v1h-2v1c0-1 0 0 0 0h-1l-2-1-2-2h-1l-1-1h-2l-1 1h-7l-1-1H8l-3-2a18 18 0 0 1-2-2l-2-3-1-1V9l1-1V7h2l1 1 2 1 2 1 1 1h4l1 1a26 26 0 0 0 3 0h1l2-1h2l3-2 3-1h2l6-2s0-1 0 0V5l2-1h3a7 7 0 0 1 1-1h1-1l-1 1h-2 3l1-1 1 1h1V3h2v1-1h2l1-1h6V1h9l2 1a89 89 0 0 1 6 1l1-1 2-1 2-1h2l1 1h1v1h1v2l-1 1h-1l-1 1-1 1h2c0 1 0 0 0 0l1 1h-1 1l1 1 1 1h3c-1 0-1 0 0 0v1h1-1v1l1-1v1h2v1h1c1 0 0 0 0 0h1v1h1v1h1v-1h1s-1 0 0 0h1l3-1h7l1 1h2v1h1v1h1v1zm-69-6zM30 8h1-1zm1 1h-1 1zm1 5h1v-1l-1 1zm0-7v1h-1 1V7zm1 6h-1v1l1-1zm0-6v1-1zm1 6zm3-1zm-2 1h1v-1l-1 1zm1-2zm1-6h-1 1zm0 6v-1 1zm0 0v1h-2 2v-1zm1-6zm0 0zm5 5zm2 0h-1 1zm0 0h1-1zm0 0h1-1zm1-5h-1l1 1V5zm6 3h-1 1zm-1-1h1-1zm0 1zm0-1h-1 1zm-1 2zm-2-1h1-1 1c1 0 0 1 0 0l1 1s0-1 0 0V8h-2zm2-1zm0 1h-1 1zm-1-1zm0 0h-1 1zm-1 0zm0 0V6v1zm0-3zm0 0h-1v1l1-1zm1 1-1 1V5v1-1l-1 1h2V5zm1-1h-1c0 1 0 0 0 0l1 1V4zm0 1-1 1h1V5zm0 1v1h-1 1V6zm1-2h-1v1-1h1zm0 1-1 1h1V5zm0 2V6h-1l1 1zm1-2h-1 1zm0 1v1-1zm0-1zm12 2h1-1zm1-1h-1v1h1V6zm-2 3zm-1 1h1-1zm-1-1h-1a14 14 0 0 1 2 0h-1zm-1-2V6h1c0 1 0 1 0 0v1l1-1v1h2c-1 0-1 0 0 0h-1V6c0 1 0 0 0 0h-3c1 0 1 0 0 0v1zm3-1v1-1zm-1 0zm-3 0h1V5v1h-1zm0 0s0-1 0 0zm-1 0zm-1 0zm0-1h-1 1zm-1 1zm-1 0h1V5h-1v1zm0 0zm-2 0v1l1-1h-1zm0-3zm3-1zm0 0zm0 1h-2v1-1h-1v1h-1 1v2h1V5c0-1 0 0 0 0v1h1-1V5h3s0-1 0 0c0-1 0-1 0 0h7l-1-1h-3V3v1h-1V3h-3zm8 1zm-3-1zm-1-1h-1 1zm-3 0zm0 1h-1 1zm6-1h-6 6zm1 0h-1 1zm1 1h-1V2h-4 1v1h1c0-1 0 0 0 0h1-1 3zm0 2zm2 1zm2-3v1-1zm0 0zm0 1h1-1zm2-1h-1 1zm0 1h-1l1 1V4s-1 0 0 0h1-1zm1 0-1-1v1h1zm0 7zm6-2v1-1zm6 4v-1h-1v1l1-1v1zm-1 2h1-1zm0-2v1h1-1 1v-1h-1zm0 0v-1 1zm-1 1h1-1zm0 0zm-1-6h-1 1zm3 4v-1l-1 1v-1h1-3v-1 1h2-1v1h2zm1 0v1-1zm0 2-1-1v1h1zm1-1h-1v-1 1h1zm0 1h-1 1zm0 0v-1 1zm0 1zm0-4zm1 2h-1l1 1v-1zm1 3v1h1v-1h-1zm0-3-1 1h1v-1zm0-1zm0 2zm0-1zm0 2v1h1v-1h-1zm1-1v-1 1zm2 1h-1l-1-1-1 1h2s1 0 0 0v1h2l-1-1zm1 2h-1l-1-1 1 1h1zm0-1zm1 0h-1 1z"/>
    </symbol>
    <symbol id="icon-stemleft" viewBox="0 0 111 32">
      <path d="M0 15h1v-3l1-1v-1l1-1h2l1-1 1 1 1-1-1-1H6V2l1-1h2V0h4v1l2 1 1 2 1 2v1l1 1v2-1 3l2 1h1v1h-1 2c-1 0-1 0 0 0v1h1-1 1c1 0 1 0 0 0l1 1h-1 1-1v1c0-1 0-1 0 0h1v1-1 1h1-1l1-1h-1v-1h3l1 1 1 1h3c1 0 0 0 0 0h1l1 1h-1 3l1 1h2v1h1-1 1c1 0 1 0 0 0h6l1 1h9v1h-5 2-1l-1 1v-1h-2l1 1h4-1v1h1s0-1 0 0h5c-1 0-1 0 0 0v-1h-1 1-1c0-1 0-1 0 0h2l-1-1v1-1h1-2 2v-1 1h4v-1h1-1l1-1h1v1h2v-1h2-2l1-1h2l1-1h2l1-1h1l1-1 3-1 2-1c1 0 1 0 0 0l-1-2-2-2v-1h1V9h2V8c0 1 0 0 0 0h1l2 1 2 2h1l1 1h2l1-1h7l1 1h3l3 2a18 18 0 0 1 2 2l2 3 1 1v3l-1 1v1h-2l-1-1-2-1-2-1-1-1h-4l-1-1a26 26 0 0 0-3 0h-1l-2 1h-2l-3 2-3 1h-2l-6 2s0 1 0 0v1l-2 1h-3a7 7 0 0 1-1 1h-1 1l1-1h2-3l-1 1-1-1h-1v1h-2v-1 1h-2l-1 1h-5l-1 1h-9l-2-1a89 89 0 0 1-6-1l-1 1-2 1-2 1h-2l-1-1h-1v-1h-1v-2l1-1h1l1-1 1-1h-2c0-1 0 0 0 0l-1-1h1-1l-1-1-1-1h-3c1 0 1 0 0 0v-1h-1 1v-1l-1 1v-1h-2v-1h-2v-1h-1v-1h-1v1h-1s1 0 0 0h-1l-3 1H5l-1-1H2v-1l-1-1H0v-1zm69 6zm12 3zm-1-1h1-1zm-1-5h-1v1l1-1zm0 7 1-1h-1v1zm0-6v-1l-1 1h1zm-1 6v-1 1zm-1-6zm-3 1zm2-1h-1v1l1-1zm-1 2zm-1 6h1-1zm0-6v1l1-1h-1zm0 0v-1h2-2v1zm-1 6h1-1zm0 0zm-5-5zm-2 0h1-1zm0 0zm0 0h-1 1zm-1 5h1v-1h-1v1zm-5-3h-1 1zm0 1h-1 1zm0-1zm0 1h1-1zm1-2zm2 1h-1 1-1v-1h-1s0 1 0 0v1h2zm-2 1h1-1zm1-1h-1 1zm0 1zm0 0h1-1zm1 0zm0 0v1-1zm0 3h1-1zm0 0h1v-1l-1 1zm-1-1 1-1v1-1 1l1-1h-2v1zm-1 1h1c0-1 0 0 0 0l-1-1v1zm0-1h1v-1h-1 1l-1 1zm0-1 1-1h-1v1zm0 2v-1 1h-1 1zm-1-1 1-1h-1v1zm0-2v1h1v-1h-1zm-1 2h1-1zm0-1v-1 1zm0 1zm-12-2h-1 1zm-1 1h1v-1h-1v1zm2-3h1-1zm1-1h-1 1zm1 1h1a14 14 0 0 1-2 0h1zm1 2v1h-1c0-1 0-1 0 0v-1l-1 1v-1h1-3 1v1c0-1 0 0 0 0h3v-1zm-3 1v-1 1zm1 0zm3 0h-1v1l1-1h-1 1zm0 0s0 1 0 0zm1 0zm1 0zm1 1h-1 1zm0-1zm1 0h-1l1 1v-1zm0 0zm2 0v-1l-1 1h1zm0 3zm-3 1h1-1zm1 0h-1 1zm-1-1h2v-1 1h1v-1h1-1v-2h-1v1c0 1 0 0 0 0v-1h-1 1v1h-3s0 1 0 0c0 1 0 1 0 0h-7l1 1h3v1-1h1v1h3zm-8-1zm3 1zm1 1h1-1zm3 0zm1-1h-1 1zm-7 1h7-7zm-1 0h1-1zm-1-1h1v1h4l-1-1h-1c0 1 0 0 0 0h-1 1-3zm0-2zm-2-1zm-2 3v-1 1zm0 0zm0-1h-1 1c1 0 0 0 0 0zm-2 1h1-1zm0-1h1c1 0 0 0 0 0l-1-1v1s1 0 0 0h-1 1zm-1 0 1 1v-1h-1zm0-7zm-6 2v-1 1zm-6-4v1h1v-1l-1 1v-1zm1-2h-1 1zm0 2v-1h-1 1-1v1h1zm0 0v1l1-1h-1zm1-1h-1 1zm0 0zm1 6h1-1zm-3-4v1l1-1v1h-1 3v1-1h-2 1v-1h-2zm-1 0v-1 1zm0-2 1 1v-1h-1zm-1 1h1v1-1h-1zm0-1h1-1zm0 0v1-1zm0-1zm0 4zm-1-2h1l-1-1v1zm-1-3v-1h-1v1h1zm1 3v-1h-1v1h1zm-1 1v-1 1zm0-2zm0 1zm0-2v-1h-1v1h1zm-1 1v1-1zm-2-1h1l1 1 1-1h-2v-1h-1v1zm-1-2h2v1h1-1l-1-1h-1zm0 1zm0 0h-1 1z"/>
    </symbol>
    <symbol id="icon-bodo" viewBox="0 0 109 32">
      <path d="M40 27a6 6 0 1 1 1-13 6 6 0 0 1-1 13zm11-12-4-4-7-2-6 2-4 4-2 6 2 5 4 5 6 1 7-1 4-5 2-5-2-6zM96 27a6 6 0 1 1 0-13 6 6 0 0 1 0 13zm11-12-5-4-6-2-7 2-4 4-2 6 2 5 4 5 7 1 6-1 5-5 1-5-1-6zM13 27zm11-13-4-4-6-1-7 2V0H1v32h6v-3a9 9 0 0 0 7 3l6-1 4-5 1-6-1-6zM62 20a6 6 0 1 1 13 0 6 6 0 0 1-13 0zm-6 0 1 6 4 5 6 1a9 9 0 0 0 7-3v3h7V0h-7v11l-7-2-6 1-4 4-1 6z"/>
    </symbol>
    <symbol id="icon-uz" viewBox="0 0 90 32">
      <path fill="#2b2d7f" d="M51 14h30l-3-8-5-4-6-2H49a12 12 0 0 1 2 14zM35 8c3 0 4 1 4 2s-1 3-4 3h-3l-3 6h6c3 0 4 1 4 3s-1 2-4 2h-8l-4 8h12c9 0 13-4 13-9a9 9 0 0 0-4-8c2-1 4-3 4-6 0-6-5-9-13-9H24l-7 15L9 0H0l12 25-3 7h9L29 8h6zm17 16-1-6h33l6 14H49l3-4v-4z" style="fill:var(--color1, #2b2d7f)"/>
    </symbol>
    <symbol id="icon-silpo" viewBox="0 0 101 32">
      <path fill="#ff8522" d="M44 11c2 0 3 0 3-2l-2-1h-2l-1 1 1 2h1z" style="fill:var(--color2, #ff8522)"/>
      <path fill="#ff8522" d="m80 13-1 1v-1l-2-3c-2 0-3 2-3 4l-2 2v-2l1-2-2-1h-2v1-1h-2v3l-1 1v-1h-1l-1-1c-3 0-3 3-1 3l-1 2h-1l1-7h-2l-1 3v1l-2 3v-1l1-6-3 1h-3l-2 4c0 2 0 4-2 4h-1l1-1v-2c-1-1-2 0-2 1v2h-1a1 1 0 0 1-1 0v-2l2-6h-4l-1 3c-1 3-3 6-6 7h-4l-1-4 1-3c2-5 6-4 6-3h-1l-1 2v2a2 2 0 0 0 2 1 3 3 0 0 0 2-3v-2l-4-2c-4 1-9 3-10 8l1 5c2 1 4 2 7 1 3 0 5-2 7-4-1 1 0 3 2 2l4-1h3c1 0 2 0 3-2l1-5 1-1h1l-1 2v1l-1 2 1 2h1c2 0 3-2 3-3h1c0 2 1 2 3 2s3-1 3-3h1v-1 3h2a1090 1090 0 0 1 2-2l1 1c1 0 2 0 3-2a2 2 0 0 0 2 2 3 3 0 0 0 2-2v-1l2-1zm-33 4 1 1-1 1v-2zm16-2h-1l1-1v1zm14 0-1 1-1-1 2-4v1l-1 1a1 1 0 0 0 1 1v1zm0-1v-1 1z" style="fill:var(--color2, #ff8522)"/>
      <path fill="#ff8522" d="M44 3c-3 0-5 2-6 3h-6l-8 4c-4 3-6 7-6 11 0 3 1 5 3 6 3 3 8 2 10 2l42-9c5 0 9-2 10-7v-1l-1-4-6-1H51l-2-2c0-1-2-2-5-2zm-5 4c1-1 2-3 5-3l5 1 1 3 26-1c2 0 4 0 5 2l1 3v1c-1 4-5 6-9 7l-42 8c-2 0-7 1-10-1l-3-6c0-4 2-7 6-11 2-2 6-3 8-3h7z" style="fill:var(--color2, #ff8522)"/>
    </symbol>
    <symbol id="icon-naftogaz" viewBox="0 0 169 32">
      <path fill="#00a1df" d="M15 1c-5 0-8 3-8 8 0 6 5 7 7 8 3 1 5 2 7 5a7 7 0 0 1-4 9l5-2 3-4a8 8 0 0 0-1-8l-4-4c-2-2-3-3-3-6s2-5 4-5l-6-1zm7 2a4 4 0 0 0-4 4c0 2 1 4 3 5 7 6 7 12 3 17 2-1 4-3 5-6l1-5-2-5c-1-2 1-3 2-2 0-3-3-8-8-8z" style="fill:var(--color3, #00a1df)"/>
      <path d="M20 27c-1 2-4 5-8 3-3-1-6-2-8-5s-3-6-3-9l1-6 4-5v5l2 5 6 4s8 2 6 8zM111 8c-5 0-8 4-8 8 0 5 3 7 8 7s8-3 8-7c0-5-4-8-8-8zM41 9v14h3v-8l7 8h3V9h-3v8l-7-8h-3zm23 0-7 14h4l1-3h6l1 3h4L66 9h-2zm12 0v14h4v-5h4v-3h-4v-3h5V9h-9zm13 0v3h4v11h3V12h5V9H89zm22 3a4 4 0 0 1 4 4c0 2-1 4-4 4a4 4 0 0 1-4-4c0-3 1-4 4-4zm-46 1 2 4h-4l2-4z" style="fill:var(--color4, #000)"/>
      <path fill="#00a0df" d="M130 8c-5 0-8 4-8 8s3 7 8 7c2 0 4 0 5-2v-6h-6v3h3v2h-2c-3 0-4-1-4-4s2-4 4-4l3 1 1-3-4-2zm14 1-6 14h4l1-3h6l1 3h3l-6-14h-3zm13 0v3h7l-7 9v2h12v-3h-8l7-9V9h-11zm-11 4 1 4h-3l2-4z" style="fill:var(--color5, #00a0df)"/>
    </symbol>
    <symbol id="icon-1" viewBox="0 0 64 32">
      <path fill="#c70025" d="m1 32-1-1v-8l1 1v8zm7 0-1-1v-3l-1-1H5l-1 1v4H3v-6h2c2 0 3 0 3 2v4zm4 0c-2 0-3 0-3-2v-3H8v-1h1v-2h2v2h2l-1 1h-1v4h1l1 1h-1zm6-3h-3v1l1 1h2l1 1h-3c-2 0-3-1-3-3v-1c0-2 1-2 3-2s3 0 3 2v1h-1zm-1-1-1-1-1 1h2zm6-1h-1l-1 1v4l-1-1v-5h4l-1 1zm7 5-1-1v-3l-1-1h-1l-1 1v4h-1v-6h2c2 0 3 0 3 2v4zm5 0v-1l-2 1c-2 0-2-1-2-2s0-2 2-2h2v-1h-3l-1-1h3c1 0 2 0 2 2v4h-1zm0-3h-2l-1 1 1 1h1l1-1v-1zm5 3c-2 0-3 0-3-2v-3h-1v-1h1v-2h2v2h2l-1 1h-1v3l1 1 1 1h-1zm3-7h-1l-1-1 1-1h1v2zm0 7-1-1v-5h1v6zm4 0h-1c-1 0-2-1-2-3v-1c0-2 1-2 2-2h1c1 0 2 0 2 2v1c0 2-1 3-2 3zm1-4-1-1h-1l-1 1v2l1 1h1l1-1v-2zm7 4-1-1v-3l-1-1h-1l-1 1v4l-1-1v-5h3c2 0 3 0 3 2v4h-1zm6 0v-1l-2 1c-2 0-3-1-3-2s1-2 3-2h1v-1h-3v-1h2c2 0 3 0 3 2v4h-1zm-1-3h-1l-1 1 1 1h1v-2zm4 3-1-1v-8l1 1v8zM14 0H0v7h7v8H0v7h21v-7h-7V0zm22 7V0h-8v7h-7v8h7v7h8v-7h7V7h-7zm21 8V0H43v7h7v8h-7v7h21v-7h-7z" style="fill:var(--color6, #c70025)"/>
    </symbol>
  </defs>
</svg>
