<svg width="57" height="64" viewBox="0 0 57 64" fill="none" xmlns="http://www.w3.org/2000/svg">
<path d="M29.4662 38.8948C29.4662 39.024 29.4413 39.1489 29.3913 39.2683C29.3424 39.3888 29.2708 39.4941 29.1796 39.5853C29.0884 39.6776 28.982 39.7482 28.8625 39.7982C28.7431 39.847 28.6182 39.872 28.4879 39.872C28.3587 39.872 28.2339 39.847 28.1144 39.7982C27.995 39.7482 27.8886 39.6776 27.7974 39.5853C27.7051 39.4941 27.6345 39.3888 27.5857 39.2683C27.5357 39.1489 27.5107 39.024 27.5107 38.8948C27.5107 38.7645 27.5357 38.6396 27.5857 38.5202C27.6345 38.4008 27.7051 38.2944 27.7974 38.2031C27.8886 38.1119 27.995 38.0414 28.1144 37.9914C28.2339 37.9415 28.3587 37.9165 28.4879 37.9165C28.6182 37.9165 28.7431 37.9415 28.8625 37.9914C28.982 38.0414 29.0884 38.1119 29.1796 38.2031C29.2708 38.2944 29.3424 38.4008 29.3913 38.5202C29.4413 38.6396 29.4662 38.7645 29.4662 38.8948Z" fill="black"/>
<path d="M18.7148 47.6267C18.7148 49.7983 20.4814 51.5648 22.6519 51.5648H22.8028C24.5237 51.5648 25.9222 52.9644 25.9222 54.6842V54.77H31.0569C31.0927 52.997 32.5433 51.5648 34.324 51.5648C36.4955 51.5648 38.2621 49.7983 38.2621 47.6267V34.9448H18.7148V47.6267ZM28.4879 36.8688C29.6052 36.8688 30.514 37.7776 30.514 38.8949C30.514 40.0121 29.6052 40.9209 28.4879 40.9209C27.3717 40.9209 26.4629 40.0121 26.4629 38.8949C26.4629 37.7776 27.3717 36.8688 28.4879 36.8688ZM28.4879 41.9231C30.7854 41.9231 32.654 43.7917 32.654 46.0903C32.654 48.3878 30.7854 50.2565 28.4879 50.2565C26.1915 50.2565 24.3229 48.3878 24.3229 46.0903C24.3229 43.7917 26.1915 41.9231 28.4879 41.9231Z" fill="black"/>
<path d="M28.4879 49.2074C30.2077 49.2074 31.6062 47.8089 31.6062 46.0901C31.6062 44.3703 30.2077 42.9707 28.4879 42.9707C26.7691 42.9707 25.3706 44.3703 25.3706 46.0901C25.3706 47.8089 26.7691 49.2074 28.4879 49.2074ZM28.4879 43.7199C29.7941 43.7199 30.857 44.7829 30.857 46.0901C30.857 47.3963 29.7951 48.4593 28.4879 48.4593C27.1817 48.4593 26.1187 47.3963 26.1187 46.0901C26.1187 44.7829 27.1817 43.7199 28.4879 43.7199Z" fill="black"/>
<path d="M25.9224 55.8179H31.0537V56.5584H25.9224V55.8179Z" fill="black"/>
<path d="M28.4878 47.4104C29.2163 47.4104 29.8092 46.8175 29.8092 46.089C29.8092 45.3604 29.2163 44.7676 28.4878 44.7676C27.7592 44.7676 27.1675 45.3604 27.1675 46.089C27.1675 46.8175 27.7592 47.4104 28.4878 47.4104Z" fill="black"/>
<mask id="mask0_19255_643" style="mask-type:luminance" maskUnits="userSpaceOnUse" x="19" y="57" width="18" height="7">
<path d="M19.9941 57.3701H36.9496V63.9999H19.9941V57.3701Z" fill="white"/>
</mask>
<g mask="url(#mask0_19255_643)">
<path d="M34.3972 60.8111H33.1518C31.9954 60.8111 31.0541 59.8708 31.0541 58.7133V57.6069H25.9227V58.7133C25.9227 59.8708 24.9824 60.8111 23.826 60.8111H22.5807C21.2658 60.8111 20.1963 61.8806 20.1963 63.1954V63.9761H36.7815V63.1954C36.7804 61.8806 35.712 60.8111 34.3972 60.8111Z" fill="black"/>
</g>
<path d="M37.184 33.8968V18.0684C37.184 15.291 34.9234 13.0293 32.1449 13.0293H24.8311C22.0526 13.0293 19.792 15.291 19.792 18.0684V33.8958H20.7822V17.8404C20.7822 15.6406 22.5727 13.8501 24.7725 13.8501H32.2035C34.4033 13.8501 36.1937 15.6406 36.1937 17.8404V33.8968H37.184Z" fill="black"/>
<path d="M32.2035 14.8989H24.7724C23.1503 14.8989 21.8311 16.2181 21.8311 17.8403V33.8968H35.1459V17.8403C35.1459 16.2181 33.8256 14.8989 32.2035 14.8989Z" fill="black"/>
<mask id="mask1_19255_643" style="mask-type:luminance" maskUnits="userSpaceOnUse" x="0" y="0" width="57" height="52">
<path d="M0.981934 0H56.0178V51.8111H0.981934V0Z" fill="white"/>
</mask>
<g mask="url(#mask1_19255_643)">
<path d="M28.4879 0.0229492C13.3207 0.0229492 0.981934 12.3639 0.981934 27.5333C0.981934 37.5539 6.35436 46.6766 15.0623 51.5485V48.5127C7.86902 43.9025 3.58454 36.0827 3.58454 27.5333C3.58454 13.8004 14.7561 2.62664 28.4879 2.62664C42.2208 2.62664 53.3913 13.7993 53.3913 27.5333C53.3913 36.0827 49.1068 43.9025 41.9146 48.5127V51.5485C50.6215 46.6766 55.995 37.5539 55.995 27.5333C55.995 12.3639 43.6551 0.0229492 28.4879 0.0229492Z" fill="black"/>
</g>
<path d="M41.9147 37.9209C41.9147 38.4182 41.9147 39.7537 41.9147 40.7375C46.0276 36.972 48.3642 31.6918 48.3642 26.0795C48.3642 15.1185 39.4478 6.20215 28.4879 6.20215C17.5292 6.20215 8.61279 15.1185 8.61279 26.0795C8.61279 31.6918 10.9494 36.972 15.0623 40.7375C15.0623 39.7537 15.0623 38.4193 15.0623 37.9209C12.1752 34.6495 10.5878 30.4519 10.5878 26.0795C10.5878 16.2076 18.6182 8.17609 28.489 8.17609C38.3598 8.17609 46.3902 16.2076 46.3902 26.0795C46.3891 30.4519 44.8017 34.6495 41.9147 37.9209Z" fill="black"/>
</svg>
