<svg width="102" height="64" viewBox="0 0 102 64" fill="none" xmlns="http://www.w3.org/2000/svg">
<mask id="mask0_19255_667" style="mask-type:luminance" maskUnits="userSpaceOnUse" x="0" y="0" width="102" height="64">
<path d="M0.385742 0H101.615V64H0.385742V0Z" fill="white"/>
</mask>
<g mask="url(#mask0_19255_667)">
<path d="M46.4268 63.9985C45.1882 63.9985 44.6718 62.4217 44.4513 61.7469C44.0607 60.5573 43.6882 58.8057 43.314 56.3907C42.5101 51.2289 41.7176 43.0622 40.9545 32.1211C40.2535 22.0606 39.5068 14.3515 38.7339 9.20767C38.3859 6.8825 38.0264 5.05407 37.6686 3.76976C37.4807 3.09329 37.3156 2.65374 37.1866 2.3727C36.9039 2.97074 36.4382 4.29263 35.8761 7.17662C35.3647 9.81388 34.8499 13.3253 34.3499 17.6129C33.5166 24.7518 32.9986 31.6995 32.9676 32.1047C32.7258 39.0508 32.2862 45.3564 31.7274 49.8645C31.4447 52.157 31.1359 53.9528 30.8107 55.2028C30.4562 56.5655 29.9758 57.8286 28.8647 57.8351H28.8565C27.6915 57.8351 27.2601 56.3809 27.0754 55.76C26.7764 54.7551 26.4905 53.2403 26.2241 51.2616C25.6522 47.0165 25.1571 40.5688 24.7503 32.0982C24.7013 31.0655 24.6555 30.0116 24.6098 28.992C24.3696 23.5116 24.1196 17.8482 23.2568 12.4086C23.1457 13.0622 23.0281 13.8956 22.9071 14.9593C22.8957 15.0557 22.8892 15.1276 22.8826 15.1701C22.1539 21.0083 21.7666 27.1652 21.4562 32.1129C21.1506 36.9871 20.8728 41.2616 20.582 44.2273C20.4333 45.7501 20.2862 46.8596 20.1343 47.6178C19.9986 48.291 19.747 49.5426 18.6964 49.572C18.6849 49.572 18.6735 49.572 18.6604 49.572C17.6866 49.572 17.3565 48.456 17.198 47.9168C16.997 47.2322 16.783 46.2273 16.546 44.8417C16.0869 42.175 15.5444 38.1488 14.8352 32.1684C14.3352 27.956 13.8973 24.8449 13.497 22.657C13.3973 22.1145 13.3058 21.6586 13.2225 21.2763C12.9398 22.7894 12.6522 24.8792 12.4186 26.5851C12.1588 28.4691 11.8908 30.4201 11.5852 32.2175C11.0689 35.2518 10.6996 37.1145 10.3499 38.4479C9.95289 39.9691 9.46269 41.4544 8.25845 41.4544H8.25191C7.08851 41.4495 6.59505 40.0492 6.22577 38.7387C5.82707 37.3318 5.4006 35.1962 4.91858 32.2093C4.49047 29.5573 4.09505 28.3335 3.84668 27.7812C3.42184 28.6178 2.87282 30.4609 2.55256 32.2289L0.59668 31.8743C0.608118 31.8155 0.866288 30.4005 1.29276 28.9609C1.80583 27.224 2.51498 25.4495 3.87282 25.4495H3.88753C5.08034 25.4626 5.62282 26.858 5.80093 27.3155C6.19309 28.3269 6.54603 29.8237 6.87936 31.8939C7.27969 34.3727 7.63426 36.2224 7.96433 37.5492C8.07054 37.9707 8.16531 38.309 8.25028 38.5802C8.34668 38.2632 8.45779 37.8531 8.58361 37.3237C8.87609 36.0851 9.19799 34.407 9.62609 31.8858C9.92675 30.1178 10.1931 28.1848 10.4496 26.3155C10.7388 24.2126 11.0117 22.2273 11.2993 20.7583C11.6359 19.0312 12.0117 17.5998 13.1784 17.5998H13.1915C14.3058 17.6113 14.7682 18.8874 15.2781 21.3972C15.7307 23.6309 16.2323 27.0769 16.8075 31.9348C17.4284 37.1701 17.9333 40.9789 18.3499 43.5802C18.4153 43.9887 18.4774 44.3613 18.5362 44.6979C18.5852 44.2469 18.6359 43.7338 18.6882 43.1505C18.948 40.2534 19.2078 36.2175 19.4725 31.9903C19.7862 27.0149 20.1751 20.8237 20.912 14.925C20.9169 14.8874 20.9235 14.822 20.9333 14.7354C21.5101 9.65048 22.1163 8.87924 22.6898 8.52303C23.015 8.32205 23.4055 8.27793 23.7617 8.40701C24.7356 8.75669 24.9627 10.0426 25.1424 11.5606C25.1555 11.675 25.1686 11.7845 25.1767 11.8335C26.0918 17.4658 26.3467 23.2812 26.595 28.9054C26.6392 29.9234 26.6866 30.974 26.7356 32.0034C27.1016 39.6521 27.5428 45.6456 28.0428 49.8204C28.3516 52.3874 28.6408 53.9021 28.8663 54.7943C29.1392 53.7681 29.5019 51.9119 29.8794 48.5802C30.3777 44.1701 30.7601 38.443 30.9839 32.0165L30.9856 31.9789C30.9905 31.9021 31.564 24.1015 32.4921 16.4021C33.0395 11.8645 33.6032 8.24198 34.1653 5.63577C34.5117 4.02793 34.8516 2.82368 35.2045 1.9544C35.4218 1.42008 35.997 0.00341797 37.1964 0.00341797H37.1996C38.4774 0.00505185 39.0542 1.62923 39.2715 2.24198C39.6964 3.44133 40.0983 5.20276 40.497 7.62924C41.3516 12.8122 42.1718 21.0051 42.9366 31.9822C43.6326 41.9789 44.3549 49.6488 45.082 54.7779C45.6392 58.7011 46.1179 60.5459 46.43 61.4086C46.6882 60.706 47.0607 59.3466 47.4954 56.7387C47.9415 54.0704 48.3826 50.5296 48.8042 46.2109C49.5264 38.8351 49.9513 31.6734 49.9562 31.6015H49.966C50.0983 29.5214 50.5297 23.0132 51.1833 16.5737C51.649 11.9969 52.1326 8.34492 52.6245 5.71584C52.9251 4.09819 53.2241 2.8874 53.5362 2.01159C53.7503 1.41191 54.2503 0.00832003 55.4284 0.00341797H55.4366C56.6751 0.00341797 57.1915 1.58022 57.4137 2.25505C57.8026 3.44459 58.1751 5.19623 58.5509 7.61126C59.3532 12.773 60.1473 20.9381 60.9104 31.8809C61.6098 41.9413 62.3565 49.6488 63.1294 54.7926C63.4774 57.1194 63.8385 58.9479 64.1947 60.2305C64.3826 60.9086 64.5493 61.3482 64.6768 61.6292C64.9611 61.0312 65.4268 59.7093 65.9856 56.8269C66.4986 54.1897 67.0134 50.6799 67.5134 46.3956C68.3467 39.2567 68.8663 32.3024 68.8957 31.8956C69.1375 24.9511 69.5787 18.6456 70.1359 14.139C70.4202 11.8449 70.7274 10.0492 71.0542 8.79917C71.4071 7.43642 71.8892 6.17335 72.9986 6.16682H73.0085C74.1719 6.16682 74.6032 7.62106 74.7895 8.24198C75.0885 9.24688 75.3745 10.76 75.6408 12.7403C76.2111 16.9854 76.7062 23.4332 77.113 31.9037C77.4545 39.0426 77.8238 44.5704 78.2078 48.3318C78.3451 49.6848 78.4774 50.7175 78.5951 51.5051C79.0444 48.822 79.6915 43.2877 80.4088 31.8874C80.7143 27.0149 80.9921 22.7403 81.2813 19.7747C81.43 18.2518 81.5771 17.1423 81.7307 16.3841C81.8647 15.7109 82.1163 14.4593 83.1669 14.4299C84.1702 14.4021 84.5035 15.5394 84.6653 16.0851C84.8679 16.7681 85.0803 17.7747 85.3189 19.1603C85.7764 21.8269 86.3205 25.8531 87.0281 31.8335C87.5281 36.0459 87.966 39.157 88.3663 41.3449C88.466 41.8874 88.5575 42.3433 88.6424 42.724C88.9235 41.2126 89.2111 39.1227 89.4464 37.4168C89.7045 35.5328 89.9725 33.5835 90.2781 31.7845C90.7944 28.7502 91.1637 26.8874 91.5134 25.5541C91.912 24.0312 92.4006 22.5475 93.6065 22.5475H93.613C94.7748 22.5524 95.2683 23.9511 95.6392 25.2632C96.0362 26.6701 96.4627 28.8057 96.9447 31.7926C97.3728 34.4462 97.7699 35.6684 98.0183 36.2207C98.4415 35.3841 98.9905 33.541 99.3124 31.773L101.267 32.126C101.257 32.1864 100.997 33.6015 100.572 35.041C100.057 36.7779 99.3483 38.5508 97.9905 38.5508H97.9758C96.783 38.5394 96.2405 37.1439 96.0624 36.6848C95.6719 35.6766 95.3173 34.1783 94.9839 32.108C94.5836 29.6292 94.229 27.7796 93.899 26.4528C93.7944 26.0296 93.698 25.6913 93.613 25.4217C93.5166 25.7387 93.4055 26.1488 93.2813 26.6783C92.9872 27.9168 92.6669 29.5949 92.2372 32.1162C91.9366 33.8841 91.6702 35.8171 91.4153 37.6864C91.1261 39.7894 90.8532 41.7747 90.5656 43.2436C90.2274 44.9707 89.8532 46.4005 88.6849 46.4005H88.6719C87.5575 46.3907 87.0967 45.1145 86.5853 42.6047C86.1326 40.3711 85.6326 36.925 85.0558 32.0671C84.4349 26.8319 83.9317 23.023 83.5134 20.4217C83.448 20.0116 83.3859 19.6407 83.3271 19.3057C83.2797 19.7551 83.229 20.2681 83.1768 20.8498C82.9169 23.7485 82.6555 27.7828 82.3908 32.0116C81.9823 38.523 81.5542 43.7779 81.1228 47.6325C80.8663 49.9234 80.6065 51.7077 80.35 52.9332C80.2029 53.6423 80.0558 54.1766 79.9006 54.5655C79.5967 55.322 79.1506 55.706 78.5689 55.706H78.5591C77.4758 55.6979 77.1506 54.3743 76.9954 53.7387C76.7732 52.8351 76.564 51.5132 76.3565 49.7011C75.9219 45.8988 75.5085 39.943 75.1277 31.9969C74.7617 24.3498 74.3222 18.3564 73.8205 14.1815C73.5117 11.6145 73.2241 10.0982 72.9986 9.20767C72.7241 10.2338 72.3614 12.09 71.9839 15.4217C71.4856 19.8302 71.1032 25.5573 70.881 31.9838L70.8777 32.023C70.8728 32.0998 70.2993 39.9005 69.3712 47.5998C68.8238 52.1374 68.2617 55.76 67.6996 58.3662C67.3516 59.974 67.0134 61.1766 66.6588 62.0475C66.4415 62.5802 65.8663 63.9985 64.6669 63.9985H64.6653C63.3859 63.9969 62.8091 62.3711 62.5934 61.76C62.1669 60.5606 61.7666 58.7992 61.3663 56.3727C60.5134 51.1897 59.6931 42.9969 58.9268 32.0181C58.2307 22.023 57.5101 14.3531 56.7813 9.22401C56.2258 5.3008 55.747 3.45603 55.4333 2.59165C55.1768 3.2959 54.8042 4.65701 54.3679 7.26649C53.9218 9.93316 53.4823 13.4773 53.0575 17.7975C52.3369 25.1701 51.912 32.3302 51.9071 32.4005H51.8973C51.765 34.4805 51.3336 40.9887 50.68 47.4283C50.216 52.0051 49.7307 55.657 49.2405 58.2861C48.9382 59.9021 48.6392 61.1145 48.3271 61.9887C48.113 62.5884 47.6114 63.992 46.4349 63.9985H46.4268Z" fill="#292827"/>
</g>
</svg>
