<svg width="65" height="64" viewBox="0 0 65 64" fill="none" xmlns="http://www.w3.org/2000/svg">
<mask id="mask0_19255_662" style="mask-type:luminance" maskUnits="userSpaceOnUse" x="0" y="0" width="65" height="64">
<path d="M0.5 0H64.5V64H0.5V0Z" fill="white"/>
</mask>
<g mask="url(#mask0_19255_662)">
<path d="M32.6654 63.3125V57.6611C36.0704 57.6394 39.3733 56.9608 42.4862 55.6448C45.5427 54.3516 48.2875 52.5015 50.6447 50.1442C53.002 47.787 54.8521 45.0422 56.1453 41.9857C57.4612 38.8728 58.1388 35.5699 58.1616 32.166H63.813C63.7207 49.2995 49.8 63.2203 32.6654 63.3125ZM1.17894 32.166H6.8304C6.85212 35.5699 7.52964 38.8728 8.84669 41.9857C10.1388 45.0422 11.99 47.787 14.3472 50.1442C16.7034 52.5015 19.4482 54.3516 22.5047 55.6448C25.6176 56.9608 28.9205 57.6394 32.3255 57.6611V63.3125C15.192 63.2203 1.27014 49.2995 1.17894 32.166ZM10.1214 10.1019L14.1094 14.09C11.8651 16.3918 10.0953 19.052 8.84669 22.0042C7.52964 25.1171 6.85212 28.4211 6.8304 31.825H1.17894C1.22345 23.3799 4.62845 15.7154 10.1214 10.1019ZM32.3255 0.67845V6.32992C28.9205 6.35163 25.6176 7.02916 22.5047 8.3462C19.5524 9.59484 16.8923 11.3647 14.5894 13.609L10.6024 9.6209C16.2159 4.12796 23.8804 0.724052 32.3255 0.67845ZM53.0953 31.825C53.0508 26.3864 50.914 21.2789 47.0628 17.4276C43.2126 13.5775 38.1051 11.4396 32.6654 11.3961V7.00961C46.3092 7.10082 57.3896 18.1823 57.4808 31.825H53.0953ZM32.6654 52.5948C38.1051 52.5503 43.2126 50.4135 47.0628 46.5623C50.914 42.7121 53.0508 37.6046 53.0953 32.166H57.4808C57.3896 45.8087 46.3092 56.8891 32.6654 56.9803V52.5948ZM11.8966 32.166C11.9401 37.6046 14.0769 42.7121 17.9281 46.5623C21.7794 50.4135 26.8869 52.5503 32.3255 52.5948V56.9803C18.6827 56.8891 7.60131 45.8087 7.5101 32.166H11.8966ZM17.6903 17.6708C13.99 21.4928 11.939 26.4993 11.8966 31.825H7.5101C7.5557 25.1258 10.2506 19.0433 14.597 14.5775L17.6903 17.6708ZM32.3255 11.3961C26.9998 11.4385 21.9933 13.4895 18.1713 17.1899L15.078 14.0965C19.5438 9.75011 25.6263 7.05521 32.3255 7.00961V11.3961ZM47.6567 31.825C47.6133 27.8391 46.041 24.0976 43.218 21.2735C40.3939 18.4494 36.6523 16.8771 32.6654 16.8337V12.0758C43.5155 12.1681 52.3233 20.976 52.4146 31.825H47.6567ZM32.6654 47.1562C36.6523 47.1128 40.3939 45.5406 43.218 42.7175C46.041 39.8934 47.6133 36.1518 47.6567 32.166H52.4146C52.3233 43.015 43.5155 51.8229 32.6654 51.9141V47.1562ZM17.3342 32.166C17.3776 36.1518 18.9498 39.8934 21.7739 42.7175C24.597 45.5406 28.3385 47.1128 32.3255 47.1562V51.9141C21.4764 51.8229 12.6675 43.015 12.5763 32.166H17.3342ZM21.5362 21.5167C18.8619 24.3104 17.3766 27.9521 17.3342 31.825H12.5763C12.6219 26.5221 14.7479 21.7067 18.1779 18.1594L21.5362 21.5167ZM32.3255 16.8337C28.4526 16.8761 24.8109 18.3614 22.0172 21.0357L18.6589 17.6784C22.2083 14.2474 27.0226 12.1214 32.3255 12.0758V16.8337ZM33.5036 31.825C33.4319 31.3961 33.0942 31.0585 32.6654 30.9868V17.5145C40.5166 17.6057 46.8858 23.9738 46.977 31.825H33.5036ZM32.6654 33.0031C33.0942 32.9314 33.4319 32.5938 33.5036 32.166H46.977C46.8858 40.0161 40.5166 46.3853 32.6654 46.4765V33.0031ZM31.4873 32.166C31.559 32.5938 31.8966 32.9314 32.3255 33.0031V46.4765C24.4743 46.3853 18.1062 40.0161 18.015 32.166H31.4873ZM31.5731 31.5536C31.5329 31.6383 31.5036 31.7295 31.4873 31.825H18.015C18.0584 28.0216 19.5752 24.5655 22.0215 22.002L31.5731 31.5536ZM32.3255 30.9868C32.23 31.0031 32.1388 31.0324 32.0541 31.0726L22.5025 21.521C25.066 19.0748 28.522 17.5579 32.3255 17.5145V30.9868ZM63.813 31.825H58.1616C58.1388 28.4211 57.4612 25.1171 56.1453 22.0042C54.8521 18.9477 53.002 16.2029 50.6447 13.8467C48.2875 11.4895 45.5427 9.63828 42.4862 8.3462C39.3733 7.02916 36.0704 6.35163 32.6654 6.32992V0.67845C49.8 0.769655 63.7207 14.6915 63.813 31.825ZM61.9792 19.5395C60.3679 15.7295 58.0606 12.3071 55.1214 9.369C52.1833 6.43089 48.7609 4.12362 44.9509 2.51124C41.0063 0.843488 36.8152 -0.00341797 32.496 -0.00341797C28.1757 -0.00341797 23.9857 0.843488 20.04 2.51124C16.23 4.12362 12.8076 6.43089 9.86949 9.369C6.93138 12.3071 4.62411 15.7295 3.01173 19.5395C1.34398 23.4852 0.49707 27.6752 0.49707 31.9955C0.49707 36.3147 1.34398 40.5047 3.01173 44.4504C4.62411 48.2604 6.93138 51.6828 9.86949 54.6209C12.8076 57.5601 16.23 59.8674 20.04 61.4787C23.9857 63.1475 28.1757 63.9933 32.496 63.9933C36.8152 63.9933 41.0063 63.1475 44.9509 61.4787C48.7609 59.8674 52.1833 57.5601 55.1214 54.6209C58.0606 51.6828 60.3679 48.2604 61.9792 44.4504C63.648 40.5047 64.4938 36.3147 64.4938 31.9955C64.4938 27.6752 63.648 23.4852 61.9792 19.5395Z" fill="black"/>
</g>
</svg>
