<svg xmlns="http://www.w3.org/2000/svg" width="596" height="678" fill="none">
  <mask id="a" width="168" height="172" x="0" y="0" maskUnits="userSpaceOnUse" style="mask-type:luminance">
    <path fill="#fff" d="M168 172H0V0h168v172Z"/>
  </mask>
  <g mask="url(#a)">
    <path fill="#131313" d="M99.82 41.65c.3-.33.49-.71.58-1.11.2-.83.7-1.49 1.02-2.25.3-.73.73-1.4 1.09-2.1.18-.35.3-.73.6-1.02a.19.19 0 0 0 .05-.09c.21-.71.73-1.22 1.15-1.8.1-.13.2-.3.23-.46.15-.99.65-1.82 1.1-2.67.07-.12.09-.27.12-.4.01-.03-.03-.07-.05-.1l-.08.01c-.15.2-.34.39-.43.62-.23.61-.65 1.1-1.04 1.61-.03.04-.1.06-.14.1l-.05-.2c-.06-.64.19-1.2.42-1.77.15-.36.39-.7.32-1.12 0-.04-.02-.07-.04-.1l-.15.08-.16.08-.05-.09v-.11c.32-.68.63-1.37.97-2.04.05-.12.22-.18.32-.27.16-.13.16-.3.12-.5-.02-.16-.14-.28-.27-.23l-2.44.86c-.34.11-.65.29-1.03.3-.23 0-.48.14-.7.24-1.06.47-2.1.94-3.08 1.57-.48.31-.99.57-1.54.76-.6.22-1.15.59-1.7.92-1.02.61-2.02 1.24-3.02 1.89-.4.25-.79.5-1.14.8-.88.75-1.92 1.27-2.78 2.05-.4.36-.86.64-1.32.93-.6.38-1.19.8-1.74 1.27-.3.25-.63.47-.94.7-.24.18-.47.35-.69.54a53.9 53.9 0 0 0-2.74 2.61c-.47.49-1 .93-1.52 1.35-.72.56-1.26 1.3-1.86 1.96-.21.24-.42.5-.66.7-.27.24-.59.42-.74.76a.53.53 0 0 1-.2.24c-.53.28-.87.76-1.23 1.19-1.07 1.26-2.21 2.46-3.19 3.8-.36.49-.78.94-.92 1.56-.54.81-.9 1.71-1.4 2.55-.58.99-1.1 2.01-1.6 3.05-.13.29-.28.57-.45.84-.29.45-.52.94-.76 1.43-.58 1.2-1.14 2.4-1.7 3.6-.1.2-.17.4-.26.6-.1.26-.18.54-.32.79-.4.65-.66 1.35-.95 2.04-.07.18-.12.32-.06.52.18.54-.15.95-.4 1.38-.04.08-.1.07-.18.02-.12-.07-.19 0-.23.1a.44.44 0 0 0 .06.42c.1.16.14.34.05.5-.46.92-.54 1.94-.89 2.88-.16.43-.3.88-.44 1.33-.15.44-.31.88-.41 1.33-.2.95-.52 1.87-.79 2.8a71.85 71.85 0 0 0-.99 3.74c-.08.34-.18.69-.25 1.04-.23 1.09-.4 2.18-.65 3.27-.17.77-.17 1.57-.41 2.33-.14.43-.12.92-.16 1.4 0 .14.22.34.38.3.29-.1.55-.04.83.05.56.17 1.14.16 1.72.08.17-.02.38-.1.52-.05.86.3 1.8.1 2.65.47 1.05 0 2.02.46 3.04.64.8.13 1.6.38 2.4.59.65.16 1.3.38 1.91.7.44.22.9.43 1.42.48.28.03.57.13.83.25.61.28 1.22.59 1.82.9.48.25 1 .39 1.46.68 1 .6 1.92 1.27 2.73 2.1l1.73 1.78c.8.85 1.4 1.82 1.91 2.86.61 1.22 1.25 2.43 1.93 3.61.53.9.98 1.84 1.42 2.78.24.52.65.96.77 1.53.1.54.38 1 .58 1.5.2.5.4 1 .62 1.5.07.14.01.27.03.4.03.21.09.42.17.62.06.16.33.17.32.4-.03.47.27.9.2 1.38-.03.17 0 .36.06.53.41 1.33.57 2.74 1.14 4.04.03.06.07.15.04.2-.25.5-.05.98.02 1.46.07.5.2.99.3 1.48.08.46.11.93.23 1.38.07.32.09.64.09.96 0 .43-.02.86.1 1.29.07.2.07.43.04.64-.07.6.2 1.2-.04 1.8-.03.05-.02.14 0 .2.2.68.1 1.37.1 2.05.02.8.14 1.57.06 2.37-.05.67-.16 1.35-.09 2.03.02.14.01.3-.03.43-.38 1.41-.22 2.86-.38 4.29-.02.18 0 .37-.05.54a24.1 24.1 0 0 0-.59 3.6c-.09 1-.33 1.98-.66 2.94a8 8 0 0 0-.4 1.56 7.5 7.5 0 0 1-.3 1.26c-.3.95-.64 1.9-.96 2.85-.14.4-.31.8-.41 1.22-.34 1.44-.96 2.78-1.45 4.17-.25.7-.5 1.42-.85 2.09-.3.57-.66 1.1-.93 1.7-.26.57-.6 1.12-.94 1.68-.16.28-.35.55-.55.8-.6.76-1.2 1.53-1.83 2.25a4.3 4.3 0 0 1-3.76 1.5c-.98-.1-1.95-.11-2.92-.1-.5.02-1-.1-1.49-.15a.57.57 0 0 1-.2-.07c-.9-.62-1.93-1.07-2.59-2.05-.8-1.2-1.53-2.42-2.05-3.77-.44-1.17-.91-2.34-1.22-3.56a25.74 25.74 0 0 1-.58-3.28c-.05-.39-.13-.77-.17-1.16-.06-.72-.23-1.43-.17-2.15.01-.17-.07-.35-.13-.52-.01-.05-.09-.07-.13-.11l-.07.09c-.72 2-1.62 3.91-2.47 5.85a38.27 38.27 0 0 1-2.55 4.87 29.4 29.4 0 0 1-2.26 3.14 14.05 14.05 0 0 1-3.02 2.75c-1.08.73-2.2.77-3.4.47-.18-.04-.35-.11-.52-.16a3.22 3.22 0 0 1-1.85-1.22c-.3-.4-.6-.81-.88-1.23a13.83 13.83 0 0 1-.75-2.8 20 20 0 0 0-.34-1.9c-.14-.6-.07-1.22-.15-1.82-.13-1.05.01-2.09-.08-3.12-.11-1.37-.04-2.73 0-4.1 0-.18.02-.37-.01-.54-.2-1.15-.08-2.3-.04-3.45 0-.15.09-.33-.07-.47-.1.16-.22.3-.27.46-.59 1.7-1.32 3.34-2.04 4.98-.3.66-.6 1.3-.86 1.98-.31.84-.78 1.61-1.17 2.42-.32.69-.77 1.3-1.16 1.94a27.94 27.94 0 0 1-2.35 3.35 13.21 13.21 0 0 1-4.52 3.79 4.58 4.58 0 0 1-3.46.26 4.44 4.44 0 0 1-1.89-.99c-.12-.12-.28-.21-.43-.31a5.06 5.06 0 0 1-1.75-2.4c-.6-1.48-.88-3.02-1.02-4.59-.05-.43-.26-.82-.19-1.28.07-.39-.02-.78-.12-1.17-.04-.17 0-.36 0-.54.02-.86.09-1.73.07-2.6-.01-.53-.14-1.06-.23-1.58a7.9 7.9 0 0 1-.07-2.12c.02-.06.06-.15.03-.2-.31-.84-.01-1.72-.23-2.57-.1-.37-.01-.79-.01-1.19 0-.06-.05-.13-.07-.19-.05.05-.12.1-.14.16a17.4 17.4 0 0 1-1.04 2.12c-.13.22-.23.46-.28.7-.26 1.32-.9 2.5-1.32 3.76-.32.95-.74 1.86-1.2 2.76-.33.64-.6 1.3-.91 1.95-.53 1.1-1.08 2.2-1.63 3.28-.25.48-.54.94-.84 1.39-.8 1.15-1.45 2.4-2.3 3.52-.97 1.3-2.06 2.5-3.23 3.62a9.92 9.92 0 0 1-3.18 1.99c-.64.25-1.3.31-1.99.12a9.5 9.5 0 0 1-2.51-1.22c-.4-.25-.8-.5-1.14-.81a6.53 6.53 0 0 1-1.83-3.36c-.18-.7-.35-1.39-.44-2.1-.13-1.03-.48-2.02-.47-3.07 0-.43-.04-.87-.16-1.28-.15-.5-.12-1-.13-1.5 0-.42.06-.86-.09-1.28-.06-.16-.02-.36-.01-.54.04-.8.06-1.58.12-2.37.05-.57.26-1.12.25-1.7 0-.15.07-.31.03-.43-.28-.78-.12-1.56-.09-2.35.01-.25.09-.49.15-.73.24-.94.44-1.88.65-2.83.05-.17.07-.35.14-.52.27-.63.4-1.29.37-1.99-.05-.98.23-1.92.45-2.86.05-.2.11-.42.14-.63.06-.5.14-.98.3-1.47.2-.61.34-1.24.37-1.9.02-.45.16-.92.3-1.36.33-1.03.67-2.04 1.04-3.05.18-.48.4-.93.63-1.37.13-.24.24-.43.1-.7-.08-.13.02-.28.1-.4.11-.22.23-.45.36-.66.12-.2.18-.38.05-.6-.04-.07-.02-.23.04-.3.47-.51.64-1.2.96-1.79.3-.57.59-1.16.87-1.73.48-.97 1.08-1.86 1.63-2.8.03-.05.09-.13.14-.15.58-.21.7-.77.95-1.23.23-.4.47-.8.69-1.22.8-1.44 1.71-2.82 2.69-4.16l.14-.16c.08-.07.13-.07.17 0 .01.03.04.06.04.1-.02.06-.03.14-.07.19-.49.68-.8 1.45-1.11 2.2-.27.64-.55 1.25-.85 1.87-.4.8-.66 1.65-.91 2.52-.14.47-.38.92-.6 1.38-.13.29-.3.56-.46.85-.05.09-.08.21.03.27.02.02.12-.06.18-.1l.1-.05c.05-.02.14-.06.17-.03.05.03.08.14.06.18-.18.4-.32.81-.58 1.15-.25.32-.4.68-.54 1.04-.28.7-.52 1.41-.77 2.13-.02.05.03.13.04.2.06-.03.15-.05.16-.1.22-.6.73-1.09.7-1.79 0-.1.06-.2.12-.28a20.82 20.82 0 0 0 2.26-4.11c.1-.22.26-.34.38-.52.1-.18.3-.41.26-.57-.18-.7.42-.6.74-.77.03-.01.15.06.16.1.03.18.02.35.03.53-.38.03-.37.04-.42.33l-.05.52c-.55.16-.73.63-.9 1.1 0 .02.03.06.05.08.02.02.06.02.08 0 .4-.3.8-.6.77-1.18.28-.22.49-.47.47-.85.3-.17.39-.49.54-.76 1-1.78 2.08-3.51 3.2-5.22.4-.59.88-1.13 1.31-1.69.1-.11.24-.22.25-.34.07-.61.52-.9.94-1.24.11-.09.26-.18.3-.3.13-.47.56-.72.78-1.1.37-.61.99-.92 1.44-1.43.2-.23.51-.23.77-.33s.48-.24.61-.55c.27-.62.69-1.16 1.17-1.65.3-.3.57-.65.86-.96.35-.36.68-.72 1.14-.95 0 .18 0 .35-.16.48-.21.16-.3.4-.41.63-.04.07 0 .12.08.14h.1l.9-.78c.2-.17.32-.38.44-.6.04-.1.06-.15 0-.19a.32.32 0 0 0-.2 0c-.26.1-.41.39-.75.32.1-.3.34-.43.6-.57.43-.22.72-.58.95-1 .25-.43.47-.88.7-1.32.05-.08.03-.16-.05-.19-.07-.01-.16-.03-.2 0-.38.28-.74.58-1.11.86-.01.01-.06 0-.07-.03-.02-.02-.05-.07-.03-.09.22-.45.56-.82.9-1.19.2-.2.44-.39.46-.71.01-.12.08-.18.2-.19.62-.14 1.04-.62 1.52-.97.35-.26.68-.52 1.08-.7.5-.22.92-.55 1.24-1.01.2-.3.47-.53.72-.79.17-.17.33-.2.35-.08 0 .1-.04.2-.07.3l-.06.09c.07.02.14.09.2.07.37-.14.67-.36.92-.68.09-.1.22-.2.35-.23.11-.04.18.04.12.17-.09.16.05.22.14.17.4-.24.77-.51 1.16-.76.08-.05.18-.08.27-.11l.07.3.01.33c.02.08.1.12.17.09.13-.06.26-.12.37-.2.4-.25.77-.54 1.18-.75.45-.24.89-.47 1.27-.8.36-.32.8-.5 1.26-.58.8-.13 1.5-.45 2.23-.77 1.58-.67 3.12-1.48 4.84-1.78.42-.07.82-.25 1.23-.37.17-.05.22-.17.23-.32.07-.57-.04-1.16.23-1.7.07-.14 0-.27-.08-.4-.28-.46-.25-.96-.2-1.47 0-.14.02-.32.11-.4.36-.35.44-.81.62-1.24.2-.49.33-1.02.8-1.37.1-.07.1-.26.13-.4 0-.03-.09-.12-.12-.12-.14.04-.28.08-.3-.13-.02-.51-.02-1.01.2-1.49.17-.38.15-.83.5-1.16.2-.2.05-.65.42-.82.02-.01 0-.2-.06-.29-.33-.62-.26-1.27-.07-1.89.1-.34.18-.68.2-1.04.02-.22.08-.43.16-.62.31-.8.54-1.64 1.14-2.3.08-.09.1-.26.1-.4.01-.1.12-.27-.09-.3-.02 0-.06.19-.1.28a.18.18 0 0 1-.06.08c-.05.04-.1 0-.1-.1a.26.26 0 0 1-.01-.1c.04-.18.07-.35.12-.52.03-.1.09-.2.16-.28a8.55 8.55 0 0 0 1.46-2.85c.05-.17.12-.34.19-.5 0-.03.05-.05.07-.09.03.06.08.1.09.16.05.47 0 .93-.13 1.39-.07.27-.16.55-.19.84-.1.96-.26 1.9-.52 2.84-.03.1-.01.21 0 .32 0 .03.02.07.04.09.01 0 .07-.02.08-.04.33-.68.67-1.35.98-2.03.07-.16.05-.37.13-.52.45-.9.64-1.9 1.1-2.8.2-.38.3-.8.44-1.2 0-.03-.03-.08-.06-.1a.16.16 0 0 0-.1 0c-.39.14-.63.45-.87.77-.15.2-.19.19-.36-.09l-.1-.2c-.04-.09-.11-.09-.15.02-.1.31-.43.19-.63.31-.22.13-.36.34-.64.39-.2.03-.36.2-.54.33-.77.59-1.57 1.13-2.46 1.52-.5.22-.92.57-1.38.84a22.04 22.04 0 0 0-3.14 2.27c-.2.17-.37.36-.63.4-.03.01-.12-.08-.11-.1.06-.15.08-.34-.14-.24-.55.24-1.15.42-1.65.78l-.1.05c-.1.05-.17-.03-.15-.2.03-.13.1-.26.12-.4.02-.07-.04-.12-.12-.1a.8.8 0 0 0-.28.16l-1.22 1.06c-.18.16-.34.37-.65.2-.07-.05-.29.06-.37.15-.6.69-1.48.86-2.21 1.3a.91.91 0 0 1-.52.1c-.26 0-.48.1-.72.19-.35.11-.65.26-.84.6a.82.82 0 0 1-.3.32c-.25.13-.56.18-.77.35-.18.16-.26.44-.53.5-.05.01-.12-.03-.19-.05l.04-.1c.02-.08.13-.17-.04-.24l-.1-.02c-.48-.05-.93.02-1.34.3-.2.14-.45.22-.67.34-.1.06-.16.29-.1.38.09.17.18.05.25 0 .19-.13.37-.23.6-.09.22.14.6.03.67.42 0 .07.08.05.16.02l2.14-.72c.1-.04.2-.1.3-.1.1 0 .2.05.3.08-.04.04-.08.1-.13.12-.28.15-.56.31-.87.43-.24.1-.18.25-.14.43.04.16-.1.16-.19.16-.13 0-.33.03-.24-.2.04-.1.06-.15-.03-.16-.07-.02-.15-.03-.2 0-.48.26-1 .4-1.5.6-.48.22-1.03.35-1.57.29-.38-.04-.73 0-1.04.2-.3.18-.56.06-.8-.1a2.36 2.36 0 0 1-.83-.98c-.1-.2-.22-.32-.5-.26-.16.02-.27-.22-.29-.4-.01-.16.02-.3.19-.35.22-.05.38-.2.52-.37.04-.05.1-.14.08-.17-.02-.05-.11-.1-.18-.1a.7.7 0 0 0-.31.03c-.2.08-.27.03-.2-.16.06-.14.11-.27-.04-.38-.26-.18-.55-.33-.72-.63-.1-.17-.09-.33.06-.48.17-.18.36-.35.6-.44.13-.05.3-.1.27-.27-.01-.1-.12-.17-.19-.26-.06-.09-.08-.17-.03-.29.07-.2.1-.41.16-.62.05-.15.23-.27.1-.48-.03-.04.06-.18.12-.26.11-.14.25-.26.36-.4.06-.08.12-.21 0-.27-.08-.04-.21-.02-.3 0-.1.04-.18.13-.26.2-.08.07-.14.06-.17-.04-.04-.18-.13-.22-.29-.1-.11.08-.23.18-.36.2-.25.06-.21-.08-.13-.23.04-.06 0-.16-.07-.14-.24.06-.47.16-.7.25-.09.03-.16.03-.17-.05a.56.56 0 0 1 0-.3.43.43 0 0 1 .24-.2c.32-.11.52-.37.74-.61.12-.16.14-.33-.09-.44-.04-.03-.1-.12-.08-.16.1-.29.07-.65.38-.86.28-.2.45-.45.46-.81.01-.1.07-.2.1-.3.2-.8.68-1.36 1.43-1.65a2.5 2.5 0 0 0 1.18-.88c.45-.61 1.14-.97 1.8-1.35.61-.36 1.26-.68 1.88-1.04.5-.29 1.02-.54 1.57-.7.14-.05.18.02.14.24-.01.07-.05.16-.02.2.1.11.2 0 .26-.06.12-.13.25-.26.34-.41.08-.16.2-.18.35-.2.07-.02.22 0 .16-.15-.02-.04-.13-.04-.2-.07-.06-.03-.17-.08-.17-.1l.21-.69c.02-.04.13-.08.18-.06.35.1.63-.1.92-.23.24-.1.45-.2.69 0 .11.11.27.01.4-.05.38-.19.79-.35 1.16-.56.42-.23.82-.45 1.28-.56.13-.03.28-.1.25-.27-.02-.06-.2-.07-.3-.11-.09-.04-.18-.1-.08-.21.2-.23.45-.35.71-.48.59-.28 1.15-.6 1.73-.88.56-.26 1.11-.5 1.71-.66 1.14-.3 2.28-.63 3.41-.97.22-.07.41-.12.63-.08l.1.05c.05.04.03.11-.06.14-.53.2-1.05.45-1.6.56-.47.1-.91.2-1.3.49-.2.15-.5.08-.68.29l-.1.17.2.08h.1c1.41-.23 2.83-.44 4.2-.87.24-.08.5-.13.71-.24.53-.28 1.05-.14 1.57-.01.09.02.11.2.03.27l-.43.31-.08.07c.07.04.13.1.19.1.56-.05 1.12-.12 1.56-.53.1-.1.24 0 .24.18 0 .07-.03.17.07.15.28-.03.55-.1.84-.14a.42.42 0 0 0 .32-.26l1.14-2.32c.36-.74.6-1.54 1.17-2.17.05-.06.07-.13.13-.18.05-.03.13-.06.19-.05.05.01.13.09.13.13v.97c0 .1.06.12.15.07.16-.08.26-.04.27.16 0 .1.03.2.05.3l.2-.22c.02-.02.06-.05.07-.04.03.02.07.05.07.09 0 .1 0 .21-.03.31-.4 1.32-.61 1.78-1.53 3.43-.03.05-.06.14-.05.2.01.05.07.1.12.14.03.02.08.03.1.01.07-.03.14-.06.18-.12.14-.2.28-.42.4-.64.14-.3.2-.18.28.04.02.05.1.08.17.1l.5.2c.15.08.35.26.46.22.18-.06.33-.26.46-.43.21-.25.34-.56.35-.9 0-.48.13-.9.58-1.18a.63.63 0 0 0 .25-.34c.15-.55.5-1.02.65-1.6.1-.4.45-.68.63-1.07.2-.43.43-.83.7-1.2.21-.3.34-.65.67-.85.06-.03.12-.09.15-.15.11-.22.19-.47.33-.67.13-.2.3-.44.6-.26.06-.13.09-.27.17-.37.45-.58.74-1.23 1.02-1.89.18-.43.44-.82.67-1.23.07-.12.18-.24.04-.37-.03-.02-.17.1-.26.16l-.2.09c0-.1-.04-.21-.03-.32 0-.06.03-.14.07-.18.33-.35.66-.68.9-1.08.06-.09.18-.19.26-.18.43.02.58-.32.85-.55.27-.24.6-.4.66-.8.6-.84 1.08-1.77 1.78-2.54.2-.22.3-.5.47-.73.17-.24.13-.43-.09-.6.1-.27-.06-.33-.26-.27-.38.1-.76.23-1.13.35a.96.96 0 0 0-.67.66c-.14.5-.5.85-.77 1.27l-.07.07c-.02-.07-.06-.14-.06-.2.04-.38.28-.66.44-.98.05-.11.2-.23.1-.37-.06-.06-.2-.06-.3-.1-.1-.04-.12-.1-.05-.14.14-.09.33-.12.43-.3.01-.02.03-.07.02-.08-.01-.03-.05-.05-.08-.06a1.41 1.41 0 0 0-.22-.03c-.28-.02-.42.4-.77.24-.3-.14-.55.1-.82.16-.31.05-.6.22-.91.32-.28.09-.57.12-.84.21-.27.1-.52.25-.8.33-.51.14-1.03.3-1.57.37-.71.09-1.4.28-2.08.51a1.2 1.2 0 0 1-.63.05c-.04 0-.07-.04-.1-.06l.1-.14c.05-.05.12-.08.18-.12-.06-.03-.12-.09-.17-.08-.99.18-1.98.37-2.96.57-.63.12-1.27.26-1.91.28-.11 0-.23 0-.33.03-1.18.32-2.41.32-3.6.57a1.7 1.7 0 0 1-.43.05c-1.41-.1-2.78.22-4.16.4-.15.02-.3.04-.44.04-1.25-.04-2.5.19-3.76.08a3.71 3.71 0 0 0-1.29.07c-.33.1-.71.04-1.07.03-.98-.03-1.95-.08-2.92-.12-.4-.01-.79-.06-1.18.06-.12.04-.25-.08-.2-.16.03-.06.07-.15.12-.15.56 0 1.11-.22 1.7-.02.25.08.57.05.85-.01.36-.08.71-.06 1.07-.06 1.15-.02 2.3 0 3.45-.1 1.14-.1 2.28-.12 3.42-.26.25-.03.5-.1.7-.23.19-.11-.04-.13-.1-.17-.08-.07-.18-.11-.06-.23.13-.13.3-.26.48-.19.63.25 1.18.02 1.73-.24.1-.05.17-.13.27-.17.19-.08.45-.26.36.2 0 .02.09.1.15.1.36.05.71.01 1.01-.24.17-.13.36-.24.54-.34.19-.1.37-.21.6-.09.09.05.22.02.31-.02.68-.23 1.4-.21 2.07-.5.29-.12.62-.15.94-.2.49-.08.85-.35 1.17-.71.07-.08.06-.14-.03-.16a2.2 2.2 0 0 0-.32-.06c-.68-.05-1.35.15-2.02.21-.3.22-.63.17-.94.06-.4-.14-.74-.1-1.15-.03-.49.09-1 .04-1.5.12-.8.14-1.64.16-2.46.17-1.16.02-2.3.08-3.44.22-.21.03-.43 0-.64 0-.83.01-1.65-.07-2.48.07-.45.07-.93-.02-1.4-.05-.1 0-.13-.07-.1-.13.04-.06.1-.15.14-.16a7.51 7.51 0 0 1 1.7-.21l1.63.02c.25 0 .5 0 .75-.06.32-.08.64-.05.97-.07 1-.08 2-.11 2.95-.48.07-.03.1-.1.16-.14-.05-.04-.1-.1-.17-.1-.14-.03-.28-.04-.42-.05-.15 0-.33.04-.43-.03-.65-.41-1.24-.17-1.84.1-.18.1-.2-.03-.16-.22.04-.13-.13-.14-.21-.13-.32.07-.64.13-.93.25-.88.38-1.8.45-2.74.45-.32 0-.64-.04-.96.08-.2.07-.43.04-.65.03-.06 0-.18-.05-.18-.07 0-.12.1-.15.2-.17.2-.05.42-.15.63-.14.41.02.76-.18 1.14-.27.04 0 .08-.12.06-.17-.01-.05-.1-.1-.15-.11-.14-.01-.28 0-.42.02-.18.01-.36.07-.54.07l-2.59-.08c-.18 0-.38.01-.5-.13-.47-.52-1.03-.38-1.6-.3-1 .12-2.01.12-3-.19a2.78 2.78 0 0 0-.73-.12c-.8-.02-1.59-.06-2.38-.07-.36 0-.72 0-1.07.09-.23.06-.5.03-.75.03-.18 0-.32-.25-.54.03-.14.17-.46-.07-.7-.09-.36-.02-.53-.47-.95-.44-.32.01-.63-.11-.94-.2-.55-.14-1.07-.43-1.67-.38-.1 0-.12.07-.08.13l.08.08.1.05c.02.02.05.05.05.08 0 .02-.04.06-.06.06a.56.56 0 0 1-.63-.3c.2-.31-.1-.4-.25-.41-.47-.02-.78-.3-1.12-.54-.3-.2-.6-.28-.83.1-.08.13-.18.06-.28.02-.24-.1-.4-.28-.56-.49-.13-.16-.3-.29-.46-.44-.13-.12-.26-.16-.46-.17-.3 0-.43-.33-.63-.54-.6-.66-.84-.7-1.5-.13-.2.18-.39.08-.56.16-.1.04-.22.16-.13.24.3.25.62.47.54.94.43.47.71 1.07 1.3 1.41.72.41 1.4.9 2.08 1.35.12.08.21.2.3.32.02.04 0 .15-.04.2-.04.04-.14.1-.18.08-.36-.16-.74-.3-1.07-.5-.74-.44-1.46-.92-2.18-1.4a2.5 2.5 0 0 1-.76-.9c-.2-.34-.28-.73-.4-1.1-.14-.36-.41-.68-.35-1.11a.4.4 0 0 0-.1-.3c-.48-.45-.35-.98-.15-1.49.09-.22.12-.4-.03-.59-.09-.11-.18-.24-.2-.37-.13-.9-.28-1.11.7-1.52l.88-.4c-.03.22-.05.43-.1.63-.05.14 0 .2.11.22.1.02.21.02.32.02.36 0 .48-.1.5-.4.02-.1.03-.22.02-.32-.06-.44.1-.8.47-1 .63-.34.52-.85.41-1.38a5.72 5.72 0 0 0-.14-.5c-.05-.18-.16-.22-.32-.16l-1.39.56c-.14.05-.1.15-.08.25.08.27.18.52.26.8-.23.1-.45.17-.71.16-.23 0-.4.12-.55.3-.1.12-.16.4-.37.25-.15-.09.05-.24.1-.35.1-.23.24-.45.35-.68.05-.08.1-.23.06-.29-.21-.32-.06-.52.17-.74.15-.15.16-.31-.07-.42-.14-.07-.2-.2-.25-.34-.11-.23-.04-.48.22-.47.7 0 1.03-.4 1.21-1a.64.64 0 0 1 .26-.33c.47-.33.9-.7 1.42-.97.6-.31 1.2-.65 1.78-1.02.28-.19.6-.23.9-.32.01 0 .08.11.09.18.02.2-.11.32-.29.4-.08.04-.1.09-.06.17.04.1.13.18.24.17.14-.03.28-.07.4-.12 1-.42 2.09-.48 3.13-.74.34-.08.65-.17.82-.57.12-.26.48-.29.75-.37.05-.02.12.05.18.07l-.07.09c-.09.1-.2.2-.28.33-.02.04 0 .17.03.19.41.2.29.38 0 .6-.05.04-.06.2-.03.28.05.13.19.08.28.05.3-.12.63-.12.92-.3.27-.18.6-.22.93-.24.2-.02.27-.36.13-.53-.2-.22-.18-.22-.1-.3a6.9 6.9 0 0 1 2.4-1.38c.27-.1.04-.32.17-.38a.68.68 0 0 1 .42-.05c.44.08.85-.03 1.27-.15.34-.1.67-.27 1.05-.2.13 0 .29-.04.41-.1.56-.27 1.15-.4 1.75-.53a4 4 0 0 0 .82-.25c.63-.3 1.3-.4 1.96-.54.56-.11 1.14-.15 1.7-.26.31-.06.6-.21.92-.28.7-.14 1.41-.27 2.11-.39.53-.08 1.08-.1 1.6-.24.5-.13 1-.1 1.5-.08.16 0 .4-.04.43.17.02.08-.23.08-.38.1-1.2.14-2.38.5-3.57.72-.91.17-1.83.32-2.73.51-.77.17-1.56.31-2.28.6-1.18.46-2.39.76-3.6 1.09-.06.01-.12.05-.19.08.1.03.18.1.27.1.21 0 .46.03.64-.06.49-.25 1.04-.23 1.54-.43.13-.05.29-.06.4.05l-.22.16c-.33.23-.7.34-1.1.4-.5.08-.97.24-1.46.37-.03 0-.05.04-.09.06.06.03.11.08.17.09.15.02.3.04.43 0 .75-.25 1.54-.3 2.31-.45.08 0 .24-.03.15.16-.07.13.02.21.13.2l4.05-.47.1-.01c1.66-.46 3.38-.58 5.05-1 .36-.1.74-.26 1.16-.12.38.14.77-.05 1.17-.02 1.3.14 2.57-.13 3.84-.37.4-.07.77-.08 1.16-.06-.14.31-.47.29-.72.4-.23.1-.48.17-.71.26-.01 0-.03.05-.02.06l.09.06c.1 0 .23.02.32-.02.59-.26 1.2.02 1.81-.13.56-.13 1.13-.2 1.7-.28.2-.02.43 0 .64.03.23.04.5-.1.68.13-.19.15-.41.05-.62.08-.4.06-.79.08-1.16.17-.88.21-1.8.02-2.67.28-.3.08-.65.03-.97 0-.61-.05-1.2-.07-1.81.12-.65.18-1.34.26-2.02.32-.36.03-.7.13-1.04.22-.8.22-1.6.4-2.41.54-.22.04-.43.1-.63.16-.38.12-.75.23-1.16.17-.27-.03-.5.07-.72.18-.17.1-.04.14.03.2l.12.15c-.03.02-.07.05-.1.05-.22.04-.43.05-.62-.09a.77.77 0 0 0-.51-.13c-.27.01-.34.01-.43.35-.1.43-.11.44-.46.43-.33 0-.67.1-.96-.07-.37-.23-.68-.1-1.02.03-.2.08-.4.14-.61.2-.41.12-.85.2-1.24.37-1 .42-2.05.58-3.11.7-.3.02-.54.2-.83.22-.07 0-.13.04-.2.06.06.02.11.06.17.06.6.05 1.2-.01 1.8.1.11.03.23.02.33-.01 1.1-.37 2.28-.25 3.39-.6.79.04 1.55-.3 2.34-.2.41.05.78-.14 1.16-.23.74-.16 1.47-.35 2.23-.23.04 0 .09.05.09.06-.01.05-.03.12-.07.15-.05.04-.12.06-.2.1-.65.33-1.37.35-2.08.43-1 .13-2 .23-2.99.36a7 7 0 0 0-2.51.9c-.13.08-.26.2-.38.19-.75-.07-1.38.36-2.08.47-.23.04-.4.06-.6-.06-.17-.1-.4-.1-.5.05-.12.18-.19.29-.37.08a.44.44 0 0 0-.17-.12c-.16-.05-.52.12-.52.23.02.1.28.5.34.5.19 0 .37 0 .55.03.37.07.1.15.01.28-.12.18.03.47.26.58.1.04.2.06.3.12.03.02.03.12.03.19 0 .02-.04.05-.07.07-.27.14-.56.04-.84.08-.08 0-.14.03-.21.05.07.08.15.14.2.22.1.1.07.23-.03.26-.2.07-.42.09-.62.13-.1.02-.12.08-.09.16.03.07.06.16.11.18.13.04.28.07.42.08.5.02 1 0 1.5.05.6.04 1.12-.2 1.65-.41l.09-.06c-.06-.03-.13-.08-.18-.08-.21.03-.42.08-.63.1-.1 0-.1-.08-.06-.16.13-.22.24-.44.55-.42.23 0 .43-.06.58-.25-.1-.45.31-.35.51-.48.03-.02.07-.04.1-.04.8-.05 1.53-.33 2.27-.61.47-.18.95-.31 1.43-.46.62-.18 1.23-.4 1.84-.6.37-.13.76-.14.97-.54.04-.07.23-.14.28-.1.28.17.55 0 .8-.04.25-.03.48-.16.72-.23.14-.05.18.05.2.16.05.13.16.26-.03.37l-.19.1-.3.1c-1.06.45-2.15.8-3.24 1.16-.47.15-.91.4-1.38.6-.09.04-.1.08-.09.16.02.05.18.18.26.15l.3-.13c.42-.17.83-.43 1.33-.34 1.1-.3 2.25-.46 3.32-.88l.81-.3c.23-.1.2.11.27.22.04.08.14.16.05.29-.07.1 0 .24.1.2.38-.14.8-.06 1.15-.2.5-.18 1-.1 1.5-.1.47.01.94 0 1.36.25.14.08.52-.29.49-.46 0-.05-.1-.12-.13-.12-.32.02-.65-.07-.96.08-.34.17-.7.06-1.05 0l-.1-.07.1-.06 1.49-.19c.45-.06.93.13 1.37-.16.1-.07.28-.02.42 0 .76.1 1.5-.02 2.23-.25.1-.03.25-.07.3-.02.26.26.53.07.8.05.45-.05.82-.28 1.24-.37.39-.09.75-.16 1.07-.42.15-.13.4-.15.6-.2.14-.05.32-.03.32-.22 0-.1-.05-.2-.1-.3-.06-.16-.04-.3.13-.33.94-.26 1.88-.5 2.81-.74.46.1.84-.17 1.26-.26.48-.1.93-.35 1.45-.38.2-.01.44-.1.58-.25.16-.16.33-.23.54-.29.31-.09.6-.23.9-.36.1-.05.18-.15.14-.26a.52.52 0 0 0-.17-.25.6.6 0 0 0-.52-.06c-.32.1-.63.14-.96.09-.06-.01-.12-.08-.18-.11.05-.04.1-.11.17-.12.39-.04.74-.22 1.14-.26.37-.03.77-.12 1.1-.4.17-.15.46-.24.7-.24.5 0 .87-.32 1.3-.46.05-.01.1-.1.11-.16.02-.15-.1-.18-.2-.2-.15-.01-.3-.04-.43-.03l-1.8.25c-.22.03-.43.03-.59-.16-.03-.04-.03-.15-.02-.16.23-.08.47-.2.71-.22.72-.08 1.44-.14 2.15-.16.38-.01.7-.07 1.01-.3.17-.13.36-.23.56-.33.12-.06.27-.13.4-.12 1 .11 2-.16 3.01-.08.33.03.64.03.96.13.2.06.42.1.64.1 1.12.04 2.19.35 3.27.62.34.08.68.23 1 .38.68.32 1.34.7 2.03 1 .34.16.6.4.87.63.27.2.53.36.87.34 1.14-.03 2.2.3 3.2.82.36.19.72.32 1.14.3.17-.02.35.03.43.24.05.12.18.05.27.07.42.06.86.09 1.16.45.04.05.05.14.03.2 0 .05-.06.14-.12.15-.17.02-.35.01-.53.04-.06 0-.14.05-.16.1a.2.2 0 0 0 .09.26c.25.13.48.39.8.22.3-.15.55-.03.8.12.18.12.33.3.52.38.26.13.57.17.8-.08.36-.37.77-.64 1.3-.66.1 0 .2-.08.3-.13.9-.48 1.77-.96 2.67-1.42.83-.42 1.67-.81 2.51-1.22.26-.12.53-.23.77-.38.2-.12.38-.2.6-.16.42.06.78-.11 1.15-.25 1.32-.48 2.62-1 3.95-1.44 1.2-.38 2.41-.68 3.63-1.01a57 57 0 0 1 2.3-.56c.66-.14 1.32-.3 2-.32.47 0 .9-.19 1.38-.2.53-.02 1.06-.17 1.58-.25.15-.03.3-.03.43-.04 2.06-.05 4.1-.08 6.16.05.68.04 1.37.08 2.05.1.47.03.92.12 1.38.23.52.12 1.07.05 1.58.32.22.12.55.09.84 0 .5-.18.98-.13 1.47.05.34.13.7.17 1.05.07.27-.08.5-.1.72.05.35.22.74.25 1.14.28.3.02.58-.09.85-.06.23.02.43.26.66.32.31.08.64.07.96.11.22.02.46-.01.64.08 1 .48 2.12.64 3.16 1.03 1.06.4 2.18.7 3.16 1.34.24.15.5.32.8.3.3-.01.55.13.78.3.1.06.2.17.28.15.47-.1.72.24 1.03.47.38.27.78.5 1.2.73.57.29 1.03.77 1.67.95.15.04.17.21.17.36 0 .12.06.2.18.22.14.01.2-.08.2-.2.03-.38.07-.78 0-1.17a16.73 16.73 0 0 1-.2-4.08c.02-.54.1-1.08 0-1.62-.01-.1.02-.2.03-.3l.14-1.4c.05-.65.08-1.3.28-1.92.28-.86.29-1.77.57-2.63.27-.81.48-1.64.58-2.5.06-.57.22-1.13.3-1.7.05-.3.21-.6.35-.9.18-.4.37-.78.59-1.15.26-.43.5-.88.58-1.38.12-.76.69-1.17 1.28-1.5.54-.27 1.14-.43 1.7-.66.15-.06.27 0 .41.03.62.18 1.24.35 1.9.32 1.1-.05 1.92.53 2.6 1.32.5.6.96 1.3 1.17 2.05.21.76.49 1.5.65 2.27.34 1.54.6 3.1.83 4.65l.01.1c-.06 1.05.18 2.09.08 3.13-.06.76-.06 1.52-.09 2.27a17.1 17.1 0 0 1-.5 3.63c-.17.7-.2 1.41-.38 2.12a37.96 37.96 0 0 1-1.79 5.74l-.16.4c-.5.99-1 1.99-1.53 2.97-.13.26-.15.48.03.68.98 1.16 1.82 2.41 2.64 3.68 1.1 1.7 2.1 3.44 2.92 5.28a75.46 75.46 0 0 1 1.72 4.19c.34.9.61 1.83.83 2.78.29 1.22.62 2.43.79 3.67a112.54 112.54 0 0 1 .66 6.43c.06.93.1 1.87.13 2.8.02.75-.01 1.5.06 2.26.09.85 0 1.73-.03 2.6-.07 1.58-.15 3.16-.25 4.74-.07.97-.3 1.91-.48 2.87-.31 1.5-.7 3-1.13 4.48-.2.65-.37 1.3-.58 1.95-.1.27-.19.55-.4.75-.24.22-.46.47-.65.73-.54.78-1.35 1.06-2.22 1.17a3.32 3.32 0 0 1-2.54-.65 2.47 2.47 0 0 1-.88-1.56c-.06-.49-.22-.97 0-1.48.12-.25.07-.57.1-.86.05-.93.08-1.87.15-2.8.03-.4.05-.79.18-1.17.1-.33.09-.71.1-1.07.05-.69 0-1.39.15-2.05.17-.75.2-1.49.25-2.24.06-.8.1-1.58.1-2.38 0-.64-.08-1.29-.1-1.93 0-.65.05-1.3-.11-1.94-.03-.13 0-.28 0-.43-.01-.5.06-1-.12-1.5-.04-.09-.02-.2-.01-.32.06-1.15-.19-2.28-.36-3.4a78.2 78.2 0 0 0-1-5.62c-.32-1.46-.62-2.94-1.16-4.36-.06-.16-.08-.34-.12-.51a4.92 4.92 0 0 0-1.07-2.32c-.5-.57-.8-1.27-1.15-1.94a3.67 3.67 0 0 0-.83-1.13c-.3-.26-.48-.62-.67-.97-.17-.31-.34-.65-.58-.9-.84-.9-1.5-1.93-2.16-2.96a15.12 15.12 0 0 0-2.6-3c-.38-.34-.8-.64-.96-1.15-.51-.4-.67-1.1-1.21-1.48a.38.38 0 0 1-.14-.16c-.38-1.04-1.35-1.57-2.06-2.3-.38-.39-.86-.67-1.25-1.05a4.85 4.85 0 0 0-1.66-.97c-.5-.2-1.02-.35-1.51-.56l-1.06-.5c-.74-.37-1.52-.67-2.31-.9-.45-.12-.9-.25-1.33-.4a16.1 16.1 0 0 0-4.07-.96c-.4-.04-.78-.12-1.18-.18-.17-.03-.35-.07-.53-.08-1.58-.08-3.16-.22-4.75-.22-.92 0-1.86.11-2.8.1-.1 0-.2.05-.31.08-.51.12-.56.2-.46.74.18.98.34 1.97.56 2.95.2.82.18 1.64.3 2.46.15 1.06.18 2.14.26 3.22.02.28.02.57.01.86-.01.54-.07 1.08.08 1.61.04.13.02.3 0 .43-.09 2.24-.17 4.47-.3 6.7-.07 1.47-.29 2.93-.56 4.38-.15.81-.23 1.64-.39 2.45-.13.7-.3 1.4-.47 2.1l-.85 3.44a33.8 33.8 0 0 1-1 3.4c-.26.74-.44 1.51-.7 2.26a78.16 78.16 0 0 1-2.46 6.2c-.47 1.08-.95 2.17-1.45 3.24-.22.45-.49.88-.72 1.33-.4.76-.77 1.54-1.21 2.28a80.82 80.82 0 0 1-1.99 3.21 20.44 20.44 0 0 1-2.3 2.86c-.58.63-1.17 1.27-2 1.6-.1.04-.18.11-.26.19-.55.52-1.2.48-1.81.21-.6-.26-1.24-.37-1.78-.76a.66.66 0 0 0-.4-.1c-.67.06-1.18-.3-1.69-.63-.38-.26-.74-.56-1.11-.85l-.32-.3c-.83-.86-1.4-1.91-1.9-2.98-.26-.55-.37-1.17-.5-1.76-.29-1.4-.55-2.81-.83-4.22-.02-.1-.06-.2-.06-.31.05-1.15-.2-2.3-.07-3.45.08-.71.06-1.44.1-2.15.01-.4 0-.8.13-1.18.04-.14.07-.3.04-.42-.07-.26-.01-.48.05-.73.22-.98.4-1.97.6-2.96-.13-.66.14-1.25.3-1.87.14-.48.14-.99.31-1.47.16-.47.2-.97.32-1.46.03-.14.08-.28.15-.4.63-1.06.93-2.25 1.42-3.36.12-.98.54-1.86.84-2.78.28-.85.41-1.74.78-2.57.07-.19.04-.41.06-.63.31-.13.16-.48.34-.7.12-.15.1-.38.15-.58Zm42.97-20.8c.17.3.5.35.8.44.03 0 .07 0 .1-.02.1-.03.09-.07-.01-.12-.28-.16-.55-.35-.89-.3-.43-.42-.83-.6-1.48-.72-.02-.18-.19-.18-.31-.24-.27-.12-.55-.2-.77-.37a2.7 2.7 0 0 0-1.9-.6c-.32-.46-.8-.48-1.3-.47-.03 0-.06.04-.09.06.03.02.05.06.08.06.45.09.84.35 1.31.35.04.05.08.11.13.15.63.4 1.9.87 2.85 1.06 0 .04 0 .08.02.1.44.32.89.6 1.46.62ZM48.9 61c-.71-.16-1.39.06-2.09.14-.6.06-1.07.3-1.41.79-.51.04-.94.3-1.38.53-.09.04-.17.15-.05.25.07.07.2.15.25.13.39-.19.76-.4 1.13-.62.06-.03.04-.19.05-.3.24.02.48.03.73.02.1 0 .26-.02.29-.08.15-.33.44-.3.73-.31.38-.02.73-.21 1.13-.21.2 0 .5-.08.62-.34.28 0 .56.01.84-.02.13-.01.25-.11.37-.18.03 0 .05-.06.05-.08-.02-.02-.06-.06-.08-.06-.38.09-.75.17-1.11.27-.03 0-.05.04-.07.07Zm-11.5 5.11c.59-.07 1.07-.39 1.59-.62.28-.51.76-.59 1.27-.67.2-.03.39-.17.56-.29.07-.05.1-.2.09-.27-.03-.13-.21-.13-.26-.07-.15.2-.31.16-.53.17-.26.02-.5.22-.77.34a4.3 4.3 0 0 0-1.94 1.41c-.25 0-.5.03-.74-.02-.5-.1-.91.08-1.3.37-.07.06-.1.12-.03.15.06.03.14.04.2.02.2-.08.38-.19.58-.27a.4.4 0 0 1 .2-.05c.09.01.12.07.1.14-.08.15-.07.33.14.22.29-.16.73-.13.85-.56Zm7.19-.75c.53-.11 1.13-.05 1.5-.6.08-.1.25-.13.38-.18.37-.13.74-.24 1.06-.5.15-.14.37-.23.58-.26.5-.09.89-.42 1.36-.57.2-.06.36-.22.54-.34 0 0-.01-.06-.03-.07-.02-.02-.06-.05-.09-.04l-.61.16c-.41.14-.81.29-1.2.45a21.3 21.3 0 0 0-3 1.42c-.2.13-.46.23-.5.53-.14-.05-.24-.23-.45-.09-.24.16-.5.29-.74.43l-1.03.56c-.05.04-.1.11-.11.17 0 .04.07.12.13.13.16.06.3.08.42.27.1.19.27.17.43.03.19-.14.78-.42.96-.49.2-.07.47-.08.53-.3.04-.15-.07-.34-.11-.5-.02-.08-.01-.14-.02-.21Zm-15.04 6.9c.22.04.41-.04.6-.14.08-.04.15-.02.18.06.01.02-.02.07-.04.09-.41.4-.83.78-1.25 1.17-.08.08-.16.14-.23.23-.05.06-.21.13-.05.23.04.03.14.01.2-.02.37-.21.62-.6.97-.83.94-.58 1.74-1.36 2.7-1.9.16-.09.15-.23-.06-.27-.03-.02-.08-.06-.08-.08.1-.27.04-.39-.26-.26-.16.07-.16-.04-.19-.14-.1-.33-.12-.34-.29-.22-.65.45-1.3.9-1.86 1.45-.19.19-.34.36-.34.63a.48.48 0 0 0-.56.2c-.05.07-.06.12.02.17.03.02.06.03.09.02.22-.05.39-.16.45-.39ZM57.9 34.34c.28-.01.66.06.77-.22.16-.41.53-.3.79-.44.08-.05.14-.04.18.04.1.31.3.24.5.14a.55.55 0 0 1 .42-.03c.03.01.07.04.08.07.01.03-.01.06-.04.09-.1.16-.28.21-.44.28l-1.88.78c-.1.04-.12.09-.05.13l.1.03c.14 0 .29 0 .43-.02.65-.14 1.25-.52 1.96-.35.08.02.2-.08.3-.13.15-.07.32-.21.48-.2.46.03.81-.26 1.2-.41a.96.96 0 0 0 .33-.27c.05-.06-.22-.17-.45-.13-.17.03-.35.1-.52.14-.14.03-.28.05-.4-.05-.13-.08-.32-.13-.35-.24-.06-.18.17-.14.26-.22a2 2 0 0 1 1-.6c.02 0 .03-.05.02-.06-.02-.02-.06-.05-.08-.05-.22.02-.44.02-.64.08-.29.1-.48-.05-.7-.18-.08-.05-.08-.12 0-.18l.36-.24c.12-.08.2-.21.17-.36-.03-.23-.18-.12-.31-.12-.83-.04-1.65.07-2.46.2-.46.07-.86.02-1.2-.27a.82.82 0 0 0-.8-.18c-.17.05-.36.13-.52.1-.56-.14-1.07.1-1.6.19-.3.05-.6.23-.9.33a6 6 0 0 1-.62.19c-.05 0-.12-.06-.18-.1l.04-.08.83-.85c.04-.04.03-.1.04-.17-.07 0-.15-.04-.2-.02-.37.22-.87.07-1.2.42-.03.04-.15.04-.19 0-.3-.2-.64-.04-.95-.14-.08-.03-.12-.08-.08-.16.07-.18.02-.28-.17-.2-.37.16-.6.52-.92.74-.33.23-.62.46-.79.83-.07.15-.2.18-.35.2-.35.04-.48.22-.44.57.01.04-.09.1-.14.15-.2.23-.24.44.09.6.07.04.06.11-.02.17-.09.06-.18.15-.27.16-.45.1-.8.28-1.05.67-.16.25-.49.28-.77.31-.2.03-.15-.33-.4-.26-.2.05-.42.06-.63.09a.62.62 0 0 0-.45.28c-.08.12-.12.26-.26.32-.09.05-.11.11-.05.14.06.04.13.06.2.06.14 0 .3 0 .43-.05.56-.14 1.13-.18 1.67.1.15.07.27-.01.41-.04.47-.13.94-.41 1.44-.06.05.04.14.03.21.01.55-.11 1.12-.21 1.67-.36.62-.17 1.23-.39 1.85-.57.21-.06.08-.21.1-.33.01-.03.05-.05.07-.08.14-.18.23-.16.4.1.03.05.09.11.12.11.18-.02.35-.06.53-.1 1.05-.22 2.07-.56 3.15-.66.23-.02.24-.02.12.32-.05.13-.04.21.08.22.24 0 .5.1.67-.18Zm-7.85-5.3c.06-.1.16-.18.19-.27.04-.12-.02-.28.04-.38.09-.16.27-.2.45-.24.21-.05.41-.17.62-.18.3-.01.56-.06.8-.26.1-.09.27-.09.4-.12.32-.06.64-.12.96-.16a1 1 0 0 0 .63-.38c.04-.04.05-.11.05-.17 0-.01-.05-.05-.09-.05h-.43c-.2 0-.38.2-.61.07-.7-.39-1.4-.04-2.1.05-.12.01-.12.3-.29.23-.33-.13-.63 0-.95.04-.14.02-.28 0-.42-.02-.02 0-.07-.05-.06-.07a.13.13 0 0 1 .07-.07c.07-.03.14-.03.21-.05l.16-.1c-.03-.02-.06-.05-.1-.06-.64-.12-1.3-.16-1.84.29-.25.2-.52.06-.78.16-.16.05-.2-.17-.27-.28-.09-.14-.24-.13-.38-.16-.56-.08-1.13.12-1.69.04l-2.9.8c-.17.04-.33.14-.48.23-.1.07-.1.17.03.22.2.07.22.2.05.28-.41.21-.84.45-1.28.55-.92.22-1.74.66-2.53 1.14a2.6 2.6 0 0 1-1.3.47c-.38 0-.7.16-1 .36l-.05.08c.06.02.13.07.19.06.1-.03.19-.1.3-.13.05-.02.13 0 .19.02.1.04.07.16-.07.23-.28.16-.56.31-.88.38-.14.03-.25.13-.37.2-.13.09-.12.3 0 .37.34.21.71.36 1.12.35l.65.01c.11 0 .16.1.2.2.18.37.19.39.5.3.26-.07.5-.08.75-.03.06.02.13.06.19.1-.05.03-.1.11-.13.1-.49-.01-.4.45-.58.68-.04.06 0 .14.09.12l.85-.09c.05 0 .17.08.16.09-.13.37.17.3.35.32.28.03.58.06.86.07.14 0 .3-.02.41-.09.39-.26.75-.56 1.13-.83.2-.14.04-.33.1-.47.08-.15.22-.29.37-.38.52-.31 1.05-.6 1.58-.9.28-.17.55-.37.58-.72 0-.13-.08-.23.1-.33.26-.12.55-.18.75-.42.07-.08.06-.12-.04-.14-.07-.01-.15-.01-.21-.03-.07-.02-.13-.06-.19-.1.03-.05.05-.13.09-.14.24-.1.43-.24.54-.5.04-.09.17-.12.27-.05.02.01-.01.11-.03.17-.07.33 0 .4.29.33.24-.07.48-.14.71-.23.2-.08.34-.34.22-.53-.11-.21-.14-.37-.05-.58.03-.08-.07-.24.1-.22.38.03.68-.12.97-.35.08-.06.21-.04.32-.03.05 0 .1.06.15.1l-.04.1c-.21.27-.59.25-.85.44-.15.11-.21.52-.08.7.12.15.26.04.39 0 .2-.07.43-.22.59-.16.34.1.63.01.94-.06.1-.02.16.08.17.2-.23.06-.45.14-.67.21-.1.04-.12.12-.07.13.25.06.5.2.76.16.08-.01.18-.11.11-.24l-.13-.26c.18.02.33.03.45-.17.14-.22.18-.08.19.08v.1c.07.22.07.23.29.1.06-.03.11-.08.17-.12.17.02.34.05.5.05.14 0 .35-.02.31-.18-.07-.33-.23 0-.36-.01-.1-.02-.2.01-.3.02Zm-21.2 115.72c-.02 0 .01 0 0 0-.03.43-.03.87-.04 1.3-.01.36-.07.73 0 1.07.15.69.08 1.37.08 2.05 0 .32 0 .65.03.97.08.7.24 1.4.23 2.13 0 .72.08 1.43.11 2.15.03.57-.07 1.15.15 1.7.09 1.33.17 2.66.27 3.98.05.71.1 1.43.2 2.14.07.53.22 1.05.35 1.58.11.47.4.84.78 1.14.27.22.56.28.89.1.28-.17.57-.3.84-.49.48-.31.88-.72 1.28-1.11.88-.86 1.68-1.77 2.36-2.8.3-.48.62-.96.94-1.44.2-.3.38-.63.64-.86.28-.26.49-.51.52-.9.03-.18.12-.37.28-.43.46-.2.58-.64.75-1 .2-.43.42-.84.6-1.27.4-.95.95-1.85 1.01-2.92 0-.14.06-.3.15-.4.33-.27.33-.7.52-1.04.2-.38.36-.78.49-1.2.4-1.26.8-2.52 1.14-3.8.45-1.66.85-3.33 1.24-5 .2-.87.42-1.75.9-2.53.22-.38.52-.61.93-.6.22.02.41.02.63-.03.24-.04.5-.03.74 0 .14.01.3.06.4.15.57.6 1.12 1.22 1.39 2.03.17.5.35 1.02.47 1.54.13.59.16 1.2.17 1.8.02.6-.05 1.21.16 1.8a2 2 0 0 1 .07.74c-.02.54-.07 1.09-.1 1.62-.03.79-.07 1.57.09 2.35.07.42.12.83 0 1.27-.08.3-.07.65-.01.97.14.71.12 1.43.07 2.15 0 .21-.03.44.02.64.14.5.08 1 .09 1.5.02 1.27.01 2.53.1 3.78.05.6.09 1.22.1 1.83 0 .14-.02.3.01.43.17.85.14 1.72.27 2.57.09.56.14 1.14.38 1.67.11.26.3.32.5.16a17.32 17.32 0 0 0 4-4.75c.6-1.02 1.3-1.97 1.71-3.1.02-.06.09-.11.13-.17.34-.5.57-1.06.81-1.62.32-.75.44-1.6 1.02-2.24.07-.07.08-.2.1-.3.13-.56.4-1.07.65-1.6.1-.22.24-.44.32-.67.51-1.64 1.07-3.27 1.48-4.95.3-1.25.67-2.5.72-3.8.02-.21.08-.42.12-.63.13-.53.16-1.08.07-1.6-.14-.86-.15-1.72-.22-2.57-.07-.9.1-1.8-.06-2.7-.02-.13 0-.29.03-.43.08-.25.07-.48.03-.74-.03-.17 0-.35.03-.53.03-.08.11-.2.2-.22.13-.05.28-.04.42-.06.38-.04.39-.05.44-.46.01-.14.01-.29.03-.43.02-.22.14-.32.35-.33.9-.01 1.79.2 2.66.37.39.08.85.26.88.82.01.12.18.22.25.34.16.23.36.46.45.72.4 1.16.84 2.3 1.04 3.5.27 1.7.63 3.38.92 5.08.19 1.17.46 2.33.43 3.52 0 .11 0 .22.02.33.2 1.38.41 2.76.6 4.15.14.99.21 2 .37 2.98.25 1.6.53 3.18.82 4.77.3 1.55.67 3.09 1.35 4.53.1.22.22.45.35.66.25.4.56.4.86.01.21-.28.37-.6.6-.9a20.23 20.23 0 0 0 2.46-4.4c.35-.78.68-1.58 1.04-2.36.15-.3.26-.59.08-.92-.07-.14-.03-.27.02-.4.16-.45.23-.9.47-1.32.23-.38.5-.8.24-1.3-.05-.12.01-.3.15-.37.16-.1.18-.2.07-.34a.9.9 0 0 1-.16-.28c-.07-.28-.07-.5.2-.75.7-.64.72-.76.81-1.88.01-.12.07-.19.13-.28.3-.52.62-1.05.7-1.66.16-1 .28-2 .4-2.99.02-.1 0-.22.04-.32.28-.69.18-1.42.27-2.13 0-.03.02-.08 0-.1-.02-.06-.05-.1-.1-.15-.01.03-.05.06-.05.09-.03.37-.18.69-.36 1-.1.18-.27.23-.45.17-.2-.08-.27-.18-.2-.38.07-.24.02-.5.17-.73.43-.64.47-1.43.8-2.1.16-.33.18-.68-.17-.98-.15-.13-.2-.38-.3-.57l-.08-.19c-.04-.06-.2 0-.27.08-.19.21-.05.5-.17.72l-.08.06c-.02-.03-.05-.06-.05-.1-.05-.31-.05-.63.12-.93.07-.12.1-.27.14-.4.05-.23.32.07.39-.19.21-.86.62-1.68.56-2.61-.02-.18 0-.38.07-.53.26-.58.15-1.22.36-1.8.04-.11.02-.22-.07-.29-.28-.2-.25-.48-.24-.78.02-.54.22-1.05.3-1.58.2-1.3.1-2.57-.22-3.84-.3-1.19-.53-2.38-.94-3.54-.04-.13-.06-.33-.15-.38-.5-.25-.48-.68-.44-1.12.02-.3-.07-.56-.12-.84-.12-.72-.4-1.38-.6-2.06-.4-1.24-1.08-2.36-1.41-3.61-.18-.62-.46-1.21-.7-1.81l-.8-2c-.03-.07-.07-.2-.1-.19-.6.09-.23-.49-.45-.65 0-.56-.26-1.04-.5-1.52a7.9 7.9 0 0 0-.52-.94c-.36-.54-.68-1.14-1.31-1.4-.37-.14-.6-.38-.8-.67l-.35-.55c-.14-.23-.36.05-.56-.1a3.67 3.67 0 0 1-1.12-1.16c-.13-.22-.3-.37-.5-.53a5.44 5.44 0 0 0-3.05-1.22c-.18-.02-.35-.07-.53-.11a20.69 20.69 0 0 0-3.9-.72c-.48-.03-.93-.1-1.36-.3-.33-.15-.68-.2-1.05-.21a44.48 44.48 0 0 0-5.07-.06c-.54.03-1.09-.06-1.62.02-1.84.26-3.69.54-5.46 1.16-.95.33-1.92.61-2.87.93-.65.21-1.29.46-1.93.7-.67.24-1.36.46-2.02.74-.92.39-1.87.76-2.74 1.24a5.9 5.9 0 0 1-1.9.67c-.22.04-.42.12-.63.14-.42.04-.76.24-1.03.53-.39.43-.75.87-1.13 1.3-.06.07-.04.14.03.2.11.1-.03-.04.1-.03.07 0 .16-.01.18.02.03.05.04.15 0 .2-.13.15-.3.43-.5.27-.33-.25-.52-.11-.74.1-.21.2-.42.4-.6.62-.64.77-1.32 1.52-1.96 2.3a33.16 33.16 0 0 0-2.7 3.6c-.12.18-.28.34-.42.5-.72.9-1.45 1.79-1.98 2.82-.26.5-.6.98-.9 1.47-.54.88-1.1 1.75-1.61 2.65-.8 1.36-1.58 2.73-2.44 4.06-.36.56-.7 1.18-.67 1.9 0 .2-.1.34-.19.5-.15.28-.3.58-.39.88-.19.62-.62 1.13-.76 1.77-.04.16-.16.32-.28.45-.25.27-.41.59-.58.9-.22.43-.5.8-.88 1.1-.28.21-.53.47-.7.8-.14.24-.13.29.14.33h.22c.2.03.27.11.18.26-.18.31-.34.64-.4 1-.03.13-.13.25-.22.36-.27.35-.4.7-.25 1.16.12.4-.1.78-.3 1.13a52.26 52.26 0 0 0-2.09 4.13c-.16.36-.33.72-.28 1.13.03.22-.03.42-.13.63-.31.64-.6 1.3-.88 1.96-.42.95-.85 1.9-1.17 2.89-.11.34-.4.63-.45.97-.11.68-.4 1.3-.58 1.96-.3 1.07-.62 2.14-.93 3.2-.04.13-.06.28-.07.42-.02.33-.1.64-.23.94-.12.26-.2.54-.26.82-.17.7-.35 1.4-.5 2.1-.13.62-.16 1.27-.36 1.89a.48.48 0 0 0 0 .32c.2.47.01.9-.04 1.36-.07.57-.18 1.14.04 1.72.07.15.03.35.03.53 0 .4-.02.8-.03 1.19 0 .05.06.1.1.16 0 .01.08 0 .1-.03.94-.89 1.87-1.8 2.63-2.85 1.05-1.5 2.09-3.02 3.06-4.57.54-.84.95-1.76 1.43-2.64.17-.32.34-.63.53-.94.05-.08.16-.18.24-.18.36 0 .5-.2.61-.5l1.1-2.69c.57-1.4 1.1-2.8 1.77-4.16.16-.8.6-1.45.98-2.15.15-.28.25-.58.34-.9.34-1.02.48-2.09.76-3.12.1-.35.2-.7.24-1.05.12-1.1.42-2.18.63-3.26.18-.86.61-1.5 1.38-1.95 1-.6 1.16-.45 1.96.05a6.02 6.02 0 0 1 1.8 3.35c.15.92.37 1.83.31 2.77 0 .04 0 .08.02.1.15.4.09.8.07 1.19-.02.5-.02 1-.05 1.51Zm85.18-110.92.11-3.02c0-.1-.05-.14-.1-.12-.05.01-.09.02-.1.05-.19.3-.4.6-.56.92-.39.73-.72 1.49-1.12 2.21-.54.98-.9 2.03-1.34 3.06-.25.59-.32 1.27-.65 1.8-.37.59-.52 1.26-.88 1.83-.1.15-.15.34-.27.47-.53.62-.78 1.37-1.03 2.12-.11.33-.17.7-.28 1.03-.44 1.36-.86 2.73-1.34 4.09-.12.33-.23.67-.3 1.02-.2.84-.45 1.66-.63 2.5-.15.68-.38 1.35-.58 2.02 0 .03.03.07.05.1l.07-.01c.19-.08.21-.29.33-.41.12-.12.31-.17.44-.28a.42.42 0 0 0 .13-.29c-.02-.63.16-1.2.48-1.74.12-.21.22-.46.25-.7.05-.39.22-.73.21-1.14 0-.37.24-.75.38-1.12.13-.36.3-.72.4-1.1.08-.23.1-.5.14-.74.03-.14.06-.28.11-.41.1-.22.42-.3.77-.2.16.04.24.2.2.44-.03.2-.1.42-.15.62-.02.08-.01.15.06.17.07 0 .16-.04.2-.08.32-.36.38-.84.56-1.27.18-.43.4-.86.43-1.31.03-.36-.2-.74-.28-1.12-.05-.25.13-.17.27-.12.04.02.13-.03.16-.08.13-.17.29-.33.36-.52.17-.47.3-.96.46-1.43.16-.47.55-.84.66-1.35.03-.1.12-.18.14-.29.34-1.24.89-2.41 1.12-3.69.06-.38.28-.73.44-1.1.02-.03.1-.05.14-.08.03.07.07.14.06.2-.02.18-.04.36-.1.53-.33 1.13-.7 2.25-.96 3.4-.15.66-.3 1.33-.5 1.98-.23.79-.35 1.61-.7 2.37-.14.28-.23.6-.28.92-.29 1.63-.85 3.2-1.18 4.81-.39 1.86-.94 3.67-1.42 5.51-.11.45-.31.91-.3 1.36.03.96-.35 1.83-.45 2.76-.13 1.17-.47 2.31-.7 3.47-.15.7-.22 1.42-.4 2.11-.2.77-.35 1.55-.5 2.32-.16.77-.34 1.54-.48 2.31-.07.35-.06.71-.09 1.07 0 .02.03.07.06.08.02.01.07-.02.08-.05.1-.18.21-.37.3-.56l1.03-2.37c.53-1.22 1.11-2.41 1.56-3.66.42-1.17.94-2.32 1.25-3.54.15-.58.4-1.14.58-1.72.5-1.65.98-3.3 1.44-4.95.25-.94.41-1.9.66-2.83.18-.67.22-1.35.34-2.02.12-.67.28-1.33.42-2 .03-.14.05-.3.01-.42-.3-1.05.04-2.08.02-3.12.28-.87.23-1.77.28-2.67.04-.76.02-1.54.19-2.26.3-1.25.19-2.51.32-3.76Zm-51.5-10.32c.3-.04.54-.05.8-.09.67-.1 1.33-.24 2.01-.25.18 0 .35-.07.53-.1.34-.09.7-.17 1.04-.27.41-.1.83-.21 1.18-.48.04-.02.05-.13.03-.19-.02-.05-.1-.1-.16-.12-.06-.03-.15-.05-.2-.01-.36.22-.75.18-1.14.16a3.42 3.42 0 0 0-.87.03c-1.12.22-2.24.45-3.3.89l-.3.1-.01.11c0 .03 0 .08.02.09l.36.13ZM8.71 139.79l-.13.28c-.01.02.08.09.12.11.03.02.09.01.1 0 .05-.06.08-.13.13-.18.03-.03.09-.05.14-.07.01.06.05.13.04.2 0 .15-.1.23-.22.32-.14.1-.26.24-.36.38-.03.03 0 .15.03.19.04.04.14.06.19.03.13-.06.25-.15.35-.24.19-.18.5-.04.65-.32.11-.22.31-.4.39-.64.11-.38.3-.7.52-1.02.02-.03-.01-.15-.06-.18-.04-.04-.13-.03-.19-.02-.1.02-.21.1-.28.06-.13-.06-.2-.17-.16-.35.1-.31-.36-.3-.36-.57-.06.02-.15.01-.16.04-.26.62-.74 1.15-.74 1.98Zm4.95-2.79c0 .12-.02.2 0 .25.02.08.09.07.16.01.27-.23.54-.46.74-.77.14-.22.35-.37.64-.2.11.07.21-.02.26-.1.24-.4.54-.74.65-1.22.17-.72.4-1.44.88-2.04.04-.06.04-.14.04-.2 0-.03-.06-.09-.06-.09-.08.06-.2.1-.25.18a7.72 7.72 0 0 1-1.04 1.48c-.16.18-.38.34-.5.55-.49.75-.9 1.55-1.52 2.15Zm29.96-68.57c.06.03.15.1.19.08.32-.16.63-.32.94-.5.42-.23.83-.56 1.27-.71.71-.25 1.31-.72 2.03-.95.23-.08.43-.25.64-.38.23-.15.3-.39.39-.62 0-.03 0-.07-.03-.1 0-.02-.05-.04-.07-.04l-.56.31c-.17.12-.33.33-.51.36-.45.07-.8.33-1.18.5-.6.26-1.27.44-1.71 1-.13.17-.35.25-.53.36l-.82.5c-.04.03-.03.12-.05.19Zm11.34-42.65c-.03 0-.14-.02-.24 0-.7.2-1.41.17-2.12.1-.41-.04-.76.15-1.14.21-.09.02-.12.1-.08.18.03.05.06.15.11.16.1.03.22.04.31.01.42-.16.82-.24 1.21.07.07.05.23.05.3 0 .6-.35 1.3-.37 1.95-.55.03-.02.06-.08.09-.12l-.1-.05-.3-.01ZM30.49 80.55c-.05.31.04.47.42.55.13.03.15.11.22.18.2.17.2.17.39-.05.06-.08.1-.18.23-.09.27.18.54.12.8-.02.04-.02.09-.01.1-.03.04-.04.07-.1.08-.14 0-.02-.05-.05-.08-.06-.17-.05-.3-.21-.5-.13-.18.08-.33-.03-.5-.09-.17-.06-.34-.09-.51-.13l-.52-.14c-.02 0-.06.03-.08.06l-.05.09Zm3.16-10.33c.03.01.05.05.08.05.1 0 .24.02.32-.04.57-.47 1.23-.8 1.87-1.19.09-.05.14-.15.21-.23.01-.01 0-.06-.01-.08a.18.18 0 0 0-.08-.05h-.11c-.88.3-1.6.88-2.29 1.46v.08Zm10.13 2.55c.03.02.06.06.09.05.09-.03.2-.05.26-.11.1-.09.03-.18-.02-.28-.06-.11-.18-.17-.17-.35 0-.2-.15-.28-.3-.23-.17.06-.33.16-.4.32-.1.24-.3.24-.51.3-.17.05-.06.15-.01.22.12.15.27.2.47.17.2-.03.36-.24.6-.1Zm66.39-45.7c-.05.03-.11.04-.13.09-.43.78-.88 1.55-1.13 2.41-.03.1-.07.2-.07.32 0 .06.03.12.06.19.02-.03.06-.05.07-.08l1.24-2.72a.18.18 0 0 0 0-.1c0-.04-.02-.07-.04-.1ZM36.2 24.92a4.1 4.1 0 0 0-1.97.35c-.03.01-.05.04-.08.07.04.05.08.1.13.13.15.1.28.18.49.1l1.5-.49c.03 0 .06-.04.08-.06-.05-.04-.08-.08-.15-.1-.16 0-.06-.02 0 0Zm-4.47 6.14.04.08.78.32c.06.02.17.02.2-.02.15-.19.34-.37.33-.64 0-.1-.1-.2-.22-.18-.38.04-.74.16-1.09.34-.02.01-.02.07-.04.1Zm27.54 30.41c.51.04.87-.07 1.2-.35.1-.08.12-.32.03-.38-.09-.05-.22-.1-.3-.06-.35.15-.66.38-1.04.5-.04 0-.05.11-.06.18 0 .02.05.05.07.07l.1.04Zm-47.5 78.43c0 .1-.02.14-.01.18l.05.2.14-.11c.38-.51.6-1.12.92-1.67.02-.04-.04-.13-.07-.19 0 0-.08.02-.1.04-.27.37-.55.73-.8 1.11-.1.14-.1.34-.13.44ZM88.24 25.05l.42-.14c.05-.03.08-.09.13-.13l-.09-.06c-.4-.16-.79-.3-1.18-.47-.17-.07-.34-.1-.49.04-.09.09 0 .2.27.32l.66.34.28.1Zm-44.91 45.5c.05.04.1.1.15.12.16.04.31-.13.5 0 .19.12.3 0 .39-.18.04-.1.12-.18.16-.27a.23.23 0 0 0 0-.19c-.03-.05-.12-.08-.18-.07-.37.1-.7.26-1 .5-.03 0-.02.06-.02.1Zm-17.98 36.83v-.1a2.72 2.72 0 0 0-.06-.2c-.06.02-.13.04-.18.08-.28.23-.37.59-.54.89-.11.17.07.31.13.47.03.09.08.08.23-.2.16-.3.43-.56.42-.94Zm7.8-39.4c-.04-.03-.08-.07-.1-.07-.46.19-.89.44-1.27.77-.07.06-.07.13 0 .17.03.02.08.04.1.02.45-.22.89-.46 1.25-.81l.01-.09Zm16.63-6.47c-.35-.07-.57.2-.84.33-.02.01-.03.1-.02.1.05.05.13.12.16.1.26-.09.56-.1.75-.35.01-.03.04-.07.03-.1 0-.02-.05-.04-.08-.08ZM67.8 21.36l-.46.03c-.03 0-.06.04-.09.05.03.03.04.07.07.08l.91.26c.06.01.14-.04.19-.09.05-.04.1-.1.11-.17 0-.04-.07-.12-.12-.12-.14-.03-.28-.03-.61-.04ZM41.73 67.23c.04.05.1.13.13.12.17-.03.34-.08.5-.15.15-.06.22-.25.13-.31-.08-.06-.19-.12-.28-.11-.22.02-.37.16-.49.34v.1ZM24.76 34.96c.03-.01.07-.02.09-.04 0-.01 0-.06-.02-.09a1.1 1.1 0 0 0-.7-.44c-.05-.01-.14.04-.17.09-.03.05-.02.16.02.19.23.16.47.31.78.3Zm48.22 5.86c.04.07.06.13.1.18 0 .02.07 0 .1-.02.22-.12.38-.29.41-.54 0-.04-.07-.13-.11-.13-.3-.02-.49.17-.5.51ZM51.26 61.78c-.28-.02-.54.18-.82.06-.04-.01-.12.07-.17.11-.03.02-.04.07-.04.1 0 .02.02.06.04.07.4.14.76-.04 1.1-.23 0 0-.01-.05-.03-.06l-.08-.05Zm-6.7-.55c-.25.25-.64.14-.92.37a.3.3 0 0 0-.07.08c-.02.02-.04.06-.03.08.01.03.05.07.07.07.36-.11.75-.13 1.04-.41.02-.02.04-.06.03-.08l-.13-.1ZM13.98 139.2l.07.1c.03 0 .06-.02.08-.05l.4-.6c.05-.08.1-.18 0-.28-.06-.07-.24.03-.3.18l-.25.65Zm16.74-37.52h-.07c-.15.15-.3.28-.44.44-.03.04-.01.13 0 .19 0 .09.2.09.25 0l.3-.54c.01-.02-.03-.06-.04-.09Zm2.23-71.9c-.27-.05-.48.09-.7.18-.09.03-.1.1-.04.14l.09.06c.24.04.48.03.68-.14.06-.05.1-.1.14-.16l-.17-.08Zm8.53 39.6.01.08c.02.02.06.05.08.04.26-.1.5-.22.76-.34.02 0 .06-.06.05-.08 0-.03-.05-.07-.07-.07-.31.04-.6.14-.83.37Zm61.06 3.99c.02.08.04.19.08.28.04.1.11.2.22.13.09-.05.2-.18.2-.22a.84.84 0 0 0-.25-.3c-.03-.04-.13-.01-.19 0l-.06.11ZM59.57 23.83c-.16 0-.35-.04-.49.1-.02 0-.02.06-.01.1 0 .02.02.06.05.07.14.06.59-.08.65-.2.01 0 .01.01 0 0-.06-.01-.13-.06-.2-.07Zm27.36-.94c-.1 0-.2 0-.31.02-.03 0-.09 0-.1.02 0 .05 0 .12.02.15a.3.3 0 0 0 .36.13c.09-.03.2-.1.22-.18.04-.13-.1-.12-.2-.14Zm43.7-5.82-.36.01c-.06 0-.13.03-.2.05.06.03.11.07.16.07l.62.03c.03 0 .07-.03.1-.05l-.06-.05-.26-.06Zm2.02.34c-.1 0-.22-.02-.32-.01-.04 0-.07.02-.1.03l.04.05.73.04c.03 0 .05-.04.07-.06-.04 0-.07-.03-.1-.03a6.95 6.95 0 0 0-.32-.02ZM40.3 66.37c.04.03.06.06.1.06.18 0 .3-.11.4-.25 0 0-.04-.06-.08-.07-.09-.05-.18-.04-.26.04l-.16.22Zm.29-.8.08.05c.13.02.27.04.37-.08.02-.03.03-.08.02-.1-.02-.04-.08-.13-.1-.12-.12.04-.24.1-.35.17-.02 0-.02.05-.02.07Zm3.63-.8.06.08.39-.16c.03-.01.04-.05.07-.08-.05-.03-.1-.1-.15-.1-.23 0-.4.12-.37.26Zm-2.92-.92.08.05c.17.02.24-.1.35-.2.03-.02.04-.05.06-.09-.07-.02-.14-.08-.18-.07-.12.06-.22.15-.33.24l.02.07Zm69.66-38.33.05.08c.02.01.05.03.07.02.14-.1.24-.22.27-.4l-.04-.08c-.01-.02-.05-.03-.07-.02a.48.48 0 0 0-.28.4ZM6.84 136.59l.22-.46s-.04-.05-.07-.06c-.03 0-.07 0-.1.02-.12.09-.16.21-.15.35.01.04.06.09.1.15Z"/>
  </g>
  <path fill="#131313" d="M58.67 22.68c.24.01.3 0 .38.02.05.02.1.07.15.1-.02.03-.05.06-.09.06-1.16.03-2.2.58-3.32.8-.15.03-.26.22-.4.26-.12.02-.28-.13-.41-.1-.67.1-1.35.17-2 .36-.67.19-1.35.17-2.02.28-.02 0-.06-.03-.09-.06l.03-.07c.23-.09.45-.2.7-.27.51-.13 1.04-.23 1.56-.36.35-.09.68-.21 1.02-.33.31-.1.61-.2.95-.19.24.02.49-.04.73-.1.98-.23 1.98-.28 2.81-.4ZM38.08 40.82c-.5-.06-.98 0-1.4-.26-.12-.06-.28-.03-.43-.04-.68 0-1.35-.08-2-.3-.61-.21-1.25-.3-1.89-.34-.14-.02-.29-.04-.41-.1-.09-.04-.13-.15-.2-.23.06-.03.12-.1.18-.09.35.02.7-.05 1.04.15.25.17.56.18.83.06.23-.1.43-.08.59.1.19.24.42.24.68.16.6-.16 1.2-.04 1.81-.03.09 0 .13.07.1.15-.16.36.1.45.35.49.43.05.86.05 1.29.09.07 0 .14.03.2.06.02 0 .04.04.06.06-.03.02-.06.05-.1.06l-.7.01ZM27.63 42.72c-.64-.21-1.27-.41-1.94-.5-.42-.04-.63-.5-1.04-.52-.4-.01-.76-.16-1.1-.35-.2-.1-.37-.24-.53-.37-.04-.03-.04-.13-.04-.19 0-.1.16-.2.24-.15l.97.46c.13.07.27.19.4.1.46-.27.82.08 1.22.17.17.04.32.16.47.25.15.09-.22.33.11.37l.54.06.86.04c.05 0 .23-.03.15.14-.02.05-.12.05-.19.07-.08.03-.22-.02-.21.13 0 .1.06.19.09.29ZM25.52 102.1c.02.03.05.07.04.08-.04.1-.07.21-.14.27-.98.85-1.7 1.94-2.6 2.86a.84.84 0 0 0-.18.26c-.23.5-.65.85-1.04 1.22-.19.18-.3.2-.33.07-.04-.15-.04-.3.07-.4.8-.72 1.28-1.73 2.13-2.4.5-.75 1.22-1.3 1.87-1.9.05-.04.12-.05.18-.07ZM28.68 100.62c-.12.01-.19.07-.2.19-.7.4-1.22 1-1.76 1.57-.1.1-.16.23-.26.34-.36.38-.84.58-.88.38-.09-.39.22-.6.45-.8.5-.42.93-.87 1.33-1.39.22-.27.48-.54.82-.7.3-.12.47.03.5.41Z"/>
  <path fill="#131313" d="M32.78 43.82a8.7 8.7 0 0 1-3.05-.46c-.6-.2-1.21-.43-1.87-.45-.07 0-.16-.12-.23-.2 0 0 1.48.08 2.22.1.11.01.23.02.32.07.34.19.65.32 1.07.28.34-.03.7.14 1.04.2.29.05.45.18.5.46ZM99.33 42.93c-.4.33-.55.78-.72 1.24-.02.05-.08.1-.13.13-.02-.06-.06-.13-.06-.2-.01-.62.23-1.18.47-1.74.16-.34.22-.76.55-1.02.07-.06.2-.08.28-.06.13.03.1.17.1.27v.1c-.05.04-.1.06-.14.12-.26.34-.26.76-.35 1.16ZM26.03 40.7c.65 0 1.24.34 1.89.3.35-.02.7.04 1.06.07.04 0 .06.08.1.12-.04.02-.07.05-.1.05-.95-.05-1.92.08-2.84-.3-.19-.08-.42-.06-.62-.1-.04 0-.06-.03-.1-.05.03-.02.06-.06.09-.06l.52-.02ZM60.54 20.15c.06.03.12.02 0 0-.05-.02-.1-.08-.13-.11.03-.02.05-.06.08-.06.42-.06.8-.25 1.25-.22.38.02.77-.08 1.16-.11.03 0 .07.06.11.1-.03.02-.05.06-.08.06-.73.14-1.44.46-2.4.34ZM45.53 23.42l.06-.09c.36-.16.72-.3 1.12-.31.1 0 .21.03.3.07.05.03.06.12.08.18 0 .03-.02.08-.03.08-.5.05-.95.3-1.46.2a.16.16 0 0 1-.08-.04v-.1ZM17.58 30.35l.06-1.3.72-.08c.03 0 .07.03.08.06.01.02.02.07 0 .09-.24.3-.43.63-.53 1.01a.3.3 0 0 1-.33.22ZM56.54 24.33c.2.01.28 0 .34.02.05.02.11.09.13.14 0 .06-.02.17-.06.18-.33.12-.65.26-1.01.23-.06 0-.13-.06-.16-.12a.23.23 0 0 1 .03-.2c.05-.07.14-.17.23-.19.2-.05.42-.05.5-.06ZM28.51 76.02c.04.42-.18.66-.47.82-.03.01-.09.04-.1.02-.04-.05-.1-.11-.1-.17 0-.26.17-.5.13-.78-.01-.1.18-.2.33-.2.2 0 .2.17.21.3 0 .03 0 .04 0 0ZM58.83 18.55l.1.07c.05.05.03.11-.07.14-.66.19-1.33.23-2.01.12-.03 0-.06-.04-.08-.06l.06-.06c.03-.02.07-.04.1-.04.47 0 .92-.02 1.38-.15.17-.05.36-.01.52-.02ZM34.46 43.92c.25 0 .53-.02.75.22.02.02.04.05.05.09l-.02.07c-.42.05-.84.14-1.22-.14-.05-.05-.07-.12-.1-.2l.09-.03a4.87 4.87 0 0 1 .46 0ZM56.63 22.15l-.23-.1.08-.07c.52-.12 1.01-.36 1.56-.38.04 0 .13.09.13.1-.02.07-.07.16-.12.18a6.1 6.1 0 0 1-1.42.27ZM45.44 19.4c.02-.03.04-.07.07-.07l1.53-.3s.04.05.04.08c0 .04 0 .1-.02.1-.5.2-1 .36-1.54.25-.03 0-.06-.04-.08-.06ZM21.06 40.85c-.04 0-.08.02-.1 0l-1.28-.71-.04-.08c.06-.02.13-.07.19-.06a3 3 0 0 1 1.26.7c.02.02.05.07.05.1-.01.02-.06.03-.08.05ZM70.82 42.8l.07.06c.02.03.03.07.02.1-.13.44-.45.77-.73 1.12h-.08c-.02-.06-.07-.15-.05-.18l.68-1.04c.01-.03.06-.03.09-.05ZM47.13 41.9c.06.03.16.04.18.08.05.1.03.21-.08.27-.15.08-.3.16-.47.22-.05.01-.12-.04-.18-.07l.01-.1c.12-.2.2-.47.54-.4ZM54.69 19.24c.38-.27.85-.25 1.28-.33l.1.03c.06.04.04.09-.05.12-.23.1-.44.24-.7.2-.22-.04-.42-.01-.63-.02ZM40.32 42l.39.06c.03 0 .06.04.08.06-.03.02-.06.05-.1.05l-.93-.04c-.04 0-.06-.04-.09-.06.03-.02.06-.05.1-.05l.55-.02ZM27.3 76.32c.03.2-.1.26-.23.3-.1.04-.22.03-.25-.1-.04-.15.14-.42.27-.38.09.02.15.12.22.18ZM26.24 21.9c.01-.03 0-.08.02-.1.17-.2.4-.27.65-.28.02 0 .06.03.07.06l-.03.1c-.15.23-.42.23-.65.31 0 0-.03-.06-.06-.08ZM87.41 20.93c.1 0 .24.03.37.06.03 0 .06.04.08.06-.03.04-.06.12-.1.12-.21 0-.42 0-.63-.02-.06 0-.11-.08-.17-.12.07-.04.12-.07.2-.09.06-.02.13 0 .25-.01ZM21.93 40.42c.03-.03.05-.06.08-.07.17-.06.33-.03.45.1.02.04 0 .15-.04.19-.08.07-.19.06-.27-.01l-.22-.2ZM45.27 75.4c.03.02.08.06.07.07a.52.52 0 0 1-.4.3c-.02 0-.06-.03-.08-.05-.02-.02-.04-.06-.03-.08.1-.16.25-.25.44-.24ZM32.78 43.82c.16 0 .28-.2.45-.05.05.04.07.1.1.16-.04.03-.09.08-.14.09-.17.01-.35.01-.41-.2ZM34.07 80.27l-.05-.08a.1.1 0 0 1 0-.08c.1-.15.24-.25.42-.22.03 0 .08.04.08.06 0 .14-.27.33-.45.32ZM18.09 38.8c.22.01.37.15.5.33 0 .01 0 .05-.02.07-.02.01-.06.03-.09.02-.2-.06-.38-.15-.45-.37l.06-.05ZM18.03 38.85c-.23-.01-.39-.13-.52-.31a.45.45 0 0 1-.03-.09c.06-.02.13-.07.18-.06.22.05.37.18.43.4l-.06.06ZM40.15 25.53l-.3-.07c-.02 0-.04-.04-.07-.07.03-.02.06-.05.1-.05.14-.02.28-.04.42-.03.06 0 .11.08.16.11l-.18.1-.13.01ZM23.1 22.42c.06.02.1.03.11.05.02.02.02.07 0 .08-.06.07-.13.15-.22.2-.05.02-.13-.03-.2-.04.03-.05.03-.12.07-.15.08-.06.17-.1.25-.14ZM81.77 124.73c.01-.39 0-.78.03-1.17 0-.04.1-.07.14-.1 0 0 .07.06.07.08.03 1.16.32 2.3.16 3.48-.01.13.09.27.09.41 0 .1-.07.2-.12.28-.04.06-.11.1-.18.11-.03 0-.1-.08-.11-.13-.08-.73-.14-1.47-.1-2.2.02-.26 0-.5.02-.76-.02 0 .01 0 0 0ZM80.06 147.97v-.13c-.13-.41-.06-.75.35-.98.11-.07.2-.27.29-.26.2.02.39.12.58.2.06.03.05.1-.02.16-.08.07-.17.14-.27.17-.27.08-.39.27-.46.53-.08.27-.18.53-.29.79-.02.05-.08.08-.13.11-.02-.06-.06-.13-.06-.19l.01-.4ZM82.36 134.83c.05.5-.22.96-.31 1.44-.01.04-.13.07-.18.06-.06 0-.12-.06-.14-.12a.35.35 0 0 1-.01-.21c.02-.1.05-.21.1-.3.29-.43.51-.85.28-1.38-.05-.13-.05.02.08-.04.03-.01.09 0 .1.03.14.15.08.34.08.52ZM82.5 131.77c.05.27-.18.54-.23.85-.03.15.07.42-.13.4-.15-.03-.06-.32-.05-.49 0-.1 0-.24.05-.3.22-.27.11-.53.03-.8-.03-.1.12-.23.2-.17.05.03.11.08.12.13.03.1.02.2.02.38ZM81.73 139.7l.06-.5c0-.08.07-.14.13-.1.08.06.2.2.19.21-.21.27-.1.62-.27.9-.07.12.05-.02-.1.01-.03.01-.12-.07-.11-.1l.1-.42ZM82.22 129.25l.07-.5c0-.03.04-.05.06-.08.02.03.06.07.06.1l-.06.95c0 .03-.04.05-.06.08-.02-.03-.05-.06-.05-.1l-.02-.45ZM80.94 147.93l.13-.2.1.17.07.18c.04.07.02.13-.07.14-.06 0-.13-.04-.16-.08-.04-.05-.05-.12-.07-.21ZM79.27 152.87c-.13-.08-.23-.2-.24-.34 0-.06.05-.12.08-.18.03.02.07.03.09.06l.2.36c0 .01-.03.06-.05.07-.02.02-.06.02-.08.03ZM109.57 43.92c.02.02.06.04.06.06.04.41-.15.74-.36 1.06-.02.02-.08.02-.1 0-.06-.03-.14-.08-.14-.13 0-.37.16-.69.44-.94l.1-.05ZM112.17 35.61l.05.1c.03.3-.04.56-.22.79-.05.07-.07.2-.17.15-.06-.04-.07-.2-.04-.3.06-.22.15-.44.25-.67 0-.03.08-.04.13-.07ZM108.86 42.93c-.03-.31.18-.5.34-.72 0 0 .05 0 .07.02.01.03.03.06.03.1.05.26-.17.43-.25.66-.03.09-.1.09-.14.03l-.05-.09ZM111.52 37.41l.05-.24c.01-.03.05-.05.07-.08.01.04.04.06.04.1l-.01.4c-.01.05-.06.1-.1.15l-.05-.18v-.15ZM43.77 29.4l.18.07c-.02.03-.03.06-.06.07-.16.08-.32.19-.49.22-.67.11-1.27.42-1.93.57-.63.14-1.18.48-1.81.6-.24.05-.46.2-.7.3-.09.04-.2.09-.3.08-.09 0-.18-.08-.27-.12.03-.05.05-.15.1-.17.3-.15.58-.3.87-.41a18.16 18.16 0 0 1 4.4-1.21ZM44.97 28.13l.16.11c-.06.04-.11.1-.17.1-.22.01-.44 0-.26.33-.16.2-.37.31-.64.26-.04-.01-.12-.1-.1-.12.16-.53.45-.72 1-.68ZM51.18 34.49l.13.1c-.02.02-.04.06-.07.07-.3.14-.6.25-.93.17-.03 0-.06-.03-.1-.05.02-.02.03-.06.05-.07.29-.15.57-.3.92-.22ZM49.12 34.59l.23.1c-.05.04-.09.1-.15.12-.12.06-.26.12-.4.15-.04.01-.12-.04-.17-.08-.07-.05.01-.23.1-.24.14-.03.29-.04.39-.05ZM57.9 34.34c-.1-.01-.19-.02-.28-.05-.05-.02-.1-.1-.1-.15 0-.06.04-.16.08-.17.16-.03.33-.05.5-.05.05 0 .1.06.16.09l-.35.33Z"/>
  <mask id="b" width="168" height="172" x="428" y="506" maskUnits="userSpaceOnUse" style="mask-type:luminance">
    <path fill="#fff" d="M428 506h168v172H428V506Z"/>
  </mask>
  <g mask="url(#b)">
    <path fill="#131313" d="M496.18 636.35c-.3.33-.49.71-.58 1.11-.2.83-.7 1.49-1.02 2.25-.3.73-.73 1.4-1.09 2.1-.18.35-.3.73-.6 1.02a.2.2 0 0 0-.05.09c-.21.71-.72 1.22-1.15 1.8-.1.13-.2.3-.23.46-.15.99-.65 1.82-1.1 2.67-.07.12-.09.27-.12.4-.01.03.03.07.05.1l.08-.01c.15-.2.34-.39.43-.62.23-.61.65-1.1 1.04-1.61l.14-.1.05.2c.06.64-.19 1.2-.42 1.77-.15.36-.39.7-.32 1.12 0 .04.02.07.04.1l.15-.08.16-.08.05.09v.11c-.32.68-.63 1.37-.97 2.04-.05.12-.22.18-.32.27-.15.13-.15.3-.12.5.02.16.14.28.27.23l2.44-.86c.34-.11.64-.29 1.03-.3.24 0 .48-.14.7-.25 1.06-.46 2.1-.93 3.08-1.56.48-.31.99-.57 1.54-.76.6-.22 1.15-.59 1.7-.92 1.02-.61 2.02-1.24 3.02-1.88.4-.25.79-.51 1.14-.81.88-.75 1.93-1.27 2.78-2.05.4-.36.86-.64 1.32-.93.6-.38 1.19-.8 1.74-1.27.3-.25.63-.47.94-.7.24-.18.47-.35.69-.54.93-.85 1.86-1.7 2.74-2.61.47-.49 1-.93 1.52-1.35.72-.56 1.26-1.3 1.86-1.96.21-.24.42-.5.66-.7.27-.24.59-.42.74-.76.04-.1.12-.19.2-.24.53-.28.87-.76 1.24-1.19 1.06-1.26 2.2-2.46 3.18-3.8.36-.49.78-.94.92-1.56.54-.81.9-1.71 1.4-2.55a39.5 39.5 0 0 0 1.6-3.05c.13-.29.28-.56.45-.84.29-.45.52-.94.76-1.43.58-1.2 1.14-2.4 1.7-3.6.1-.2.17-.4.26-.6.1-.26.18-.54.32-.79.4-.65.66-1.35.95-2.04.08-.18.12-.32.06-.51-.18-.55.14-.96.4-1.4.04-.07.1-.06.18-.01.12.07.19 0 .23-.1a.44.44 0 0 0-.06-.42c-.1-.16-.14-.34-.05-.5.46-.92.54-1.94.89-2.88.16-.43.3-.88.44-1.33.15-.44.31-.88.41-1.33.2-.95.52-1.87.79-2.8.37-1.24.69-2.48.99-3.74.08-.34.18-.69.25-1.04.23-1.09.4-2.18.65-3.27.17-.77.17-1.57.41-2.33.14-.43.12-.92.16-1.4 0-.14-.22-.34-.38-.3-.29.1-.54.04-.83-.05a3.87 3.87 0 0 0-1.72-.08c-.17.02-.38.1-.52.05-.86-.3-1.8-.1-2.65-.47-1.05 0-2.02-.46-3.04-.64-.8-.13-1.6-.38-2.4-.59a8.9 8.9 0 0 1-1.91-.7c-.44-.22-.9-.42-1.42-.48a2.72 2.72 0 0 1-.83-.25c-.61-.28-1.22-.59-1.82-.9-.48-.25-1-.39-1.46-.68-1-.6-1.92-1.27-2.73-2.1l-1.73-1.78c-.8-.85-1.4-1.82-1.91-2.86a67.17 67.17 0 0 0-1.93-3.62 35.4 35.4 0 0 1-1.42-2.77c-.24-.52-.65-.96-.77-1.53-.1-.54-.38-1-.57-1.5-.2-.5-.4-1-.63-1.5-.07-.14-.01-.27-.03-.4a2.78 2.78 0 0 0-.17-.62c-.06-.16-.33-.17-.32-.4.03-.47-.27-.9-.2-1.38.03-.17 0-.36-.06-.53-.41-1.33-.57-2.74-1.14-4.04-.03-.06-.07-.15-.04-.2.25-.5.05-.98-.02-1.46-.07-.5-.2-.99-.3-1.48-.08-.46-.11-.93-.23-1.38-.07-.32-.09-.64-.09-.96 0-.43.02-.86-.1-1.29-.07-.2-.07-.43-.05-.64.08-.6-.18-1.2.05-1.8.03-.05.02-.14 0-.2-.2-.68-.1-1.37-.1-2.05-.02-.8-.14-1.57-.06-2.37.05-.67.16-1.35.09-2.03-.02-.14-.01-.3.02-.43.38-1.41.23-2.86.4-4.29.01-.18 0-.37.04-.54.3-1.18.47-2.39.59-3.6.09-1 .34-1.99.66-2.94.17-.5.33-1.02.4-1.56.05-.43.17-.84.3-1.26.3-.95.64-1.9.96-2.85.14-.4.31-.8.41-1.22.34-1.44.96-2.78 1.45-4.17.25-.7.5-1.42.85-2.09.3-.57.66-1.1.93-1.7.26-.58.6-1.12.94-1.68.16-.28.35-.55.55-.8.6-.76 1.2-1.53 1.83-2.25a4.3 4.3 0 0 1 3.76-1.5c.98.1 1.95.11 2.92.1.5-.02 1 .1 1.49.15.07 0 .14.03.2.07.9.62 1.93 1.07 2.59 2.05a18.8 18.8 0 0 1 2.05 3.77c.44 1.17.91 2.34 1.22 3.56.27 1.07.46 2.17.59 3.28.04.39.12.77.16 1.16.06.72.23 1.43.17 2.15-.01.17.07.35.13.52.01.05.09.07.13.11l.07-.09c.72-2 1.62-3.91 2.47-5.85a38.3 38.3 0 0 1 2.55-4.87c.68-1.1 1.45-2.14 2.26-3.14a14.05 14.05 0 0 1 3.02-2.75 3.96 3.96 0 0 1 3.4-.47l.52.16c.76.2 1.39.59 1.86 1.22.3.4.6.81.88 1.23a13.85 13.85 0 0 1 .75 2.8c.07.63.19 1.27.33 1.9.14.6.07 1.22.15 1.82.13 1.05-.01 2.09.08 3.12.11 1.37.04 2.73 0 4.1 0 .18-.02.37.01.54.2 1.15.08 2.3.04 3.45 0 .15-.09.33.07.47.1-.16.22-.3.27-.46.59-1.7 1.32-3.34 2.04-4.98.3-.66.6-1.3.86-1.98.31-.85.78-1.61 1.17-2.42.32-.68.77-1.3 1.16-1.94.72-1.17 1.48-2.3 2.35-3.35a13.21 13.21 0 0 1 4.52-3.79 4.58 4.58 0 0 1 3.46-.26c.7.23 1.36.46 1.89.99.12.12.28.21.43.31.86.6 1.36 1.44 1.75 2.4.6 1.48.88 3.02 1.02 4.59.05.43.26.82.19 1.28-.07.39.02.78.12 1.17.04.17 0 .36 0 .54-.02.86-.09 1.73-.07 2.6.01.52.14 1.06.23 1.58.1.55.15 1.5.06 2.12 0 .06-.05.15-.02.2.31.84.01 1.72.23 2.57.1.37.01.79.01 1.18 0 .07.05.13.07.2.05-.05.12-.1.14-.16.29-.74.66-1.44 1.04-2.12.13-.22.23-.46.28-.7.26-1.32.9-2.5 1.32-3.76.32-.95.74-1.86 1.2-2.76.33-.64.6-1.3.91-1.95.53-1.1 1.08-2.2 1.63-3.28.25-.48.54-.94.84-1.39.8-1.15 1.45-2.4 2.3-3.52.97-1.3 2.05-2.5 3.23-3.62a9.9 9.9 0 0 1 3.19-1.99 3 3 0 0 1 1.98-.12c.91.27 1.73.7 2.51 1.22.4.25.8.5 1.13.81 1 .9 1.52 2.08 1.84 3.36.17.7.35 1.39.44 2.1.13 1.03.48 2.02.47 3.07 0 .43.04.87.16 1.28.15.5.12 1 .13 1.5 0 .42-.06.86.09 1.28.06.16.02.36.01.54-.04.8-.06 1.58-.12 2.37-.05.57-.26 1.12-.25 1.7 0 .15-.07.31-.02.43.26.78.1 1.56.08 2.35-.01.25-.09.49-.15.73-.24.94-.44 1.88-.65 2.83-.05.17-.07.35-.14.52-.27.63-.4 1.29-.37 1.99.05.98-.23 1.92-.45 2.86-.06.2-.11.42-.14.63-.05.5-.14.99-.3 1.47-.2.61-.34 1.24-.37 1.9-.02.45-.16.92-.3 1.36a77.2 77.2 0 0 1-1.04 3.05c-.17.48-.4.93-.63 1.37-.13.24-.24.43-.1.7.08.13-.02.28-.1.4-.11.22-.23.45-.36.66-.12.2-.18.38-.05.6.04.07.02.23-.04.3-.47.51-.64 1.2-.96 1.79-.3.57-.59 1.16-.87 1.73-.48.97-1.08 1.86-1.63 2.8-.03.05-.09.13-.14.15-.58.21-.7.77-.95 1.23-.23.4-.47.8-.69 1.22a41.14 41.14 0 0 1-2.69 4.16l-.14.16c-.08.07-.13.07-.17 0-.01-.03-.04-.06-.04-.1.02-.06.03-.14.07-.19.49-.68.8-1.45 1.11-2.2.27-.64.55-1.25.85-1.87.4-.8.66-1.65.91-2.52.14-.47.38-.92.6-1.38.13-.29.3-.56.46-.85.05-.09.08-.21-.03-.27-.02-.02-.12.06-.18.1l-.1.05c-.05.02-.14.06-.17.03-.05-.03-.08-.14-.06-.18.18-.4.32-.82.58-1.15a4 4 0 0 0 .54-1.04c.28-.7.52-1.41.77-2.13.02-.05-.03-.13-.04-.2-.06.03-.15.05-.16.1-.22.6-.73 1.09-.7 1.79 0 .1-.06.2-.12.28a20.85 20.85 0 0 0-2.26 4.11c-.1.22-.26.34-.38.52-.1.18-.3.41-.26.57.18.7-.42.6-.74.77-.03.01-.15-.06-.16-.1-.03-.18-.02-.35-.03-.53.38-.03.37-.04.42-.33l.05-.52c.55-.16.73-.63.9-1.1 0-.02-.03-.06-.05-.08-.02-.02-.06-.02-.08 0-.4.3-.8.6-.77 1.18-.28.22-.49.47-.47.85-.3.17-.39.49-.54.76-1 1.78-2.08 3.51-3.2 5.22-.4.59-.88 1.13-1.31 1.69-.1.11-.24.22-.25.34-.06.61-.52.9-.94 1.24-.11.09-.26.19-.3.3-.13.47-.56.72-.78 1.1-.37.61-.99.92-1.44 1.43-.2.24-.51.23-.77.33s-.48.24-.61.55a5.5 5.5 0 0 1-1.17 1.65c-.3.3-.57.65-.86.96-.35.37-.68.72-1.14.95 0-.18 0-.35.16-.48.21-.16.3-.4.41-.63.04-.07 0-.12-.08-.14h-.1l-.9.78c-.2.17-.32.38-.44.6-.04.1-.06.15 0 .19.06.02.14.03.2 0 .26-.1.41-.39.75-.32-.1.3-.34.43-.6.57-.43.22-.72.58-.95 1-.25.43-.47.88-.7 1.32-.05.08-.03.16.05.19.07.01.16.03.2 0 .38-.28.74-.58 1.11-.86.01-.01.06 0 .07.03.02.02.05.07.03.09-.22.46-.56.83-.9 1.19-.2.2-.44.39-.46.71-.01.12-.08.18-.2.19-.62.14-1.04.62-1.52.97-.35.26-.68.52-1.08.7-.5.22-.92.55-1.24 1.01-.2.3-.48.53-.73.79-.16.17-.32.2-.34.08 0-.1.04-.2.07-.3l.06-.09c-.07-.02-.14-.09-.2-.07-.37.14-.67.36-.92.68-.09.1-.22.2-.35.23-.11.04-.19-.04-.12-.17.09-.16-.05-.22-.14-.17-.4.24-.77.51-1.16.76-.08.05-.18.08-.27.11l-.07-.3-.01-.33c-.02-.08-.1-.12-.17-.09-.13.06-.25.12-.38.2-.4.25-.76.54-1.17.75-.46.24-.89.48-1.27.8-.36.31-.8.5-1.26.58-.8.13-1.5.45-2.23.77-1.58.67-3.12 1.48-4.84 1.78-.42.07-.82.25-1.23.37-.17.05-.22.17-.23.31-.07.58.04 1.17-.23 1.7-.07.15 0 .28.08.4.28.47.25.97.2 1.48 0 .14-.02.32-.11.4-.36.35-.44.81-.62 1.24-.2.49-.34 1.02-.8 1.37-.1.07-.1.26-.13.4 0 .03.09.13.12.12.14-.04.28-.08.3.13.02.51.02 1.01-.2 1.49-.17.38-.15.83-.5 1.16-.2.2-.05.65-.42.82-.02.01 0 .2.06.29.33.62.26 1.27.07 1.89-.1.34-.18.68-.2 1.04a1.9 1.9 0 0 1-.16.62c-.31.8-.54 1.64-1.14 2.3-.09.09-.1.26-.1.4-.01.1-.12.27.09.3.02 0 .06-.18.1-.28a.18.18 0 0 1 .06-.08c.05-.04.1 0 .1.1.02.03.02.07.01.1-.04.18-.07.36-.12.52-.03.1-.09.2-.16.28a8.53 8.53 0 0 0-1.46 2.85 7.4 7.4 0 0 1-.19.5c0 .03-.04.05-.07.09-.03-.06-.08-.1-.09-.16-.05-.47 0-.93.13-1.39.07-.27.16-.55.19-.84.1-.96.26-1.9.52-2.84.03-.1.01-.21 0-.32 0-.03-.02-.07-.04-.09-.01 0-.07.02-.08.04-.33.68-.67 1.35-.98 2.03-.07.16-.05.37-.13.52-.45.9-.64 1.9-1.1 2.8-.2.38-.3.8-.44 1.2 0 .03.03.08.06.1h.1c.39-.14.63-.45.87-.77.15-.2.19-.19.36.09l.1.2c.04.09.11.09.15-.02.1-.31.43-.19.63-.31.22-.13.36-.34.64-.39.2-.03.36-.2.54-.33.77-.59 1.57-1.13 2.47-1.52.5-.22.91-.57 1.38-.84a22.03 22.03 0 0 0 3.13-2.27c.2-.17.37-.36.63-.4.03-.01.12.08.11.1-.06.15-.08.34.13.24.56-.24 1.16-.42 1.66-.78l.1-.05c.1-.05.17.03.15.2-.03.13-.1.26-.12.4-.02.07.04.12.12.1.1-.04.2-.09.28-.16l1.22-1.06c.18-.16.34-.37.65-.2.07.05.29-.06.37-.15.6-.69 1.48-.86 2.21-1.3a.92.92 0 0 1 .52-.1c.26 0 .48-.1.72-.19.35-.11.65-.26.84-.6a.82.82 0 0 1 .3-.32c.25-.13.56-.18.77-.35.18-.15.26-.44.53-.5.05-.01.12.03.18.05l-.03.1c-.02.08-.13.17.04.24l.1.02c.48.06.93-.02 1.34-.3.2-.14.45-.22.67-.34.1-.05.16-.29.1-.38-.09-.17-.18-.04-.25 0-.19.13-.37.23-.6.09-.22-.13-.6-.03-.67-.42 0-.07-.08-.05-.16-.02l-2.14.72c-.1.04-.2.1-.3.1-.1 0-.2-.05-.3-.08.04-.04.08-.1.13-.12.28-.15.57-.31.87-.43.24-.1.19-.25.14-.43-.04-.16.1-.16.19-.16.13 0 .33-.03.24.2-.04.1-.06.15.03.16.07.02.15.03.2 0 .48-.26 1-.4 1.5-.6.48-.22 1.02-.35 1.57-.29.38.04.73 0 1.04-.2.3-.18.56-.06.8.1.37.25.65.57.83.98.1.2.22.32.5.26.16-.02.27.22.28.4.02.16 0 .3-.18.35-.22.05-.38.2-.52.37-.04.05-.1.14-.08.17.02.05.11.1.18.1.1 0 .22 0 .31-.03.2-.08.27-.03.2.16-.06.14-.11.27.04.38.26.18.55.33.72.63.1.17.09.33-.05.48-.18.18-.37.35-.62.44-.12.05-.28.1-.26.27.01.1.13.17.19.25.07.1.08.18.03.3-.08.2-.1.41-.16.62-.05.15-.23.27-.1.48.03.04-.06.18-.12.26-.11.14-.25.26-.36.4-.06.08-.12.21 0 .27.08.04.21.02.3 0 .1-.04.18-.13.26-.2.09-.07.14-.06.17.04.04.18.13.22.29.1.11-.08.23-.18.36-.2.25-.06.21.08.13.23-.04.06 0 .16.07.14.24-.06.47-.16.7-.25.09-.03.16-.03.17.05.02.1.03.22 0 .3a.43.43 0 0 1-.24.2c-.32.11-.52.37-.74.61-.12.15-.14.33.09.44.04.03.1.12.09.16-.12.29-.08.65-.39.86a.96.96 0 0 0-.46.81c-.01.1-.07.2-.1.3-.2.8-.67 1.36-1.43 1.65-.48.18-.86.44-1.18.88-.44.61-1.14.97-1.8 1.35-.61.36-1.26.68-1.88 1.04-.5.29-1.01.54-1.57.7-.14.05-.18-.02-.14-.24.01-.07.05-.16.02-.2-.1-.11-.2 0-.26.06a2.1 2.1 0 0 0-.34.41c-.08.16-.2.18-.35.2-.07.02-.22 0-.16.15.02.04.13.04.2.07.06.03.17.08.17.1l-.21.69c-.02.04-.13.08-.18.06-.35-.1-.63.1-.92.23-.24.1-.45.2-.69 0-.11-.11-.27-.01-.4.05-.38.19-.79.35-1.16.56-.42.23-.82.45-1.28.57-.13.02-.28.1-.25.26.01.06.2.07.3.11.09.04.18.1.08.21-.2.23-.45.35-.71.48-.59.28-1.15.6-1.73.88-.55.26-1.11.5-1.71.66-1.14.3-2.28.63-3.41.97-.22.06-.41.12-.63.08a.35.35 0 0 1-.1-.05c-.05-.04-.03-.11.05-.14.54-.2 1.06-.46 1.62-.56.46-.1.9-.2 1.29-.49.2-.15.5-.08.68-.29l.1-.17-.2-.08a.25.25 0 0 0-.1 0c-1.41.23-2.83.44-4.2.88-.24.07-.5.13-.71.23-.53.27-1.05.14-1.57.01-.09-.02-.11-.2-.03-.27l.43-.31.08-.07c-.07-.04-.13-.1-.19-.1-.56.05-1.12.12-1.57.53-.1.1-.23 0-.23-.18 0-.07.03-.17-.07-.15-.28.03-.55.1-.84.14a.42.42 0 0 0-.32.26l-1.14 2.32c-.36.74-.6 1.54-1.17 2.17-.05.05-.07.13-.13.17-.05.04-.13.07-.19.06-.05-.01-.13-.09-.13-.13v-.97c0-.1-.06-.12-.15-.07-.16.08-.26.04-.26-.16l-.06-.3-.2.22c-.02.02-.06.05-.07.04-.03-.02-.07-.05-.07-.09 0-.1 0-.22.03-.31.4-1.32.61-1.78 1.53-3.43.03-.05.06-.14.05-.2-.01-.05-.08-.1-.12-.14a.13.13 0 0 0-.1-.01c-.07.03-.14.06-.18.12-.14.2-.28.42-.4.64-.14.3-.2.18-.28-.04-.02-.05-.1-.08-.17-.1l-.5-.2c-.15-.08-.35-.26-.46-.22-.18.06-.33.26-.46.42-.21.26-.34.57-.35.9 0 .5-.13.9-.58 1.19a.62.62 0 0 0-.25.34c-.15.55-.5 1.02-.65 1.6-.1.4-.46.68-.63 1.07-.2.43-.43.83-.7 1.2-.21.3-.34.65-.67.85a.42.42 0 0 0-.15.15c-.11.22-.19.47-.33.67-.13.2-.3.44-.6.26-.06.13-.09.27-.17.37-.46.58-.74 1.23-1.02 1.89-.18.43-.44.82-.67 1.23-.07.12-.18.24-.04.37.02.02.17-.1.26-.16l.2-.09c0 .1.04.21.03.32 0 .06-.03.14-.07.18-.33.35-.66.68-.9 1.08-.06.09-.18.19-.25.18-.44-.02-.6.32-.86.55-.27.24-.6.4-.66.8-.6.84-1.08 1.77-1.78 2.54-.2.22-.3.5-.47.73-.17.24-.13.43.09.6-.1.27.05.33.26.27.38-.1.76-.23 1.13-.35a.96.96 0 0 0 .66-.66c.15-.5.51-.85.78-1.27l.07-.06c.02.06.06.13.06.2-.04.37-.28.65-.44.97-.05.11-.2.23-.1.37.06.06.2.06.3.1.1.04.12.1.05.14-.14.09-.34.12-.43.3-.01.02-.03.07-.02.08.01.03.05.05.08.06.07.02.14.02.22.03.28.02.42-.4.77-.25.3.15.55-.09.82-.15.31-.05.6-.22.91-.32.28-.09.56-.12.84-.21.27-.1.52-.25.8-.33.51-.14 1.03-.3 1.57-.37.72-.09 1.4-.28 2.08-.51.21-.07.42-.09.63-.05.04 0 .07.04.1.06l-.1.14c-.05.05-.12.08-.18.12.06.03.12.09.17.08.99-.18 1.98-.37 2.96-.57.63-.12 1.27-.26 1.91-.28.11 0 .23 0 .33-.03 1.18-.32 2.41-.32 3.6-.58.15-.02.3-.05.43-.04 1.41.1 2.78-.22 4.16-.4.15-.02.3-.04.44-.04 1.25.04 2.5-.19 3.76-.08.43.04.85.04 1.29-.07.33-.1.71-.04 1.07-.03.98.03 1.95.08 2.92.12.4.01.79.06 1.18-.06.12-.04.25.08.2.16-.03.06-.07.15-.12.15-.56 0-1.11.22-1.7.02a1.7 1.7 0 0 0-.85.01c-.36.08-.71.06-1.07.06-1.15.02-2.3 0-3.45.1-1.14.1-2.28.12-3.42.26-.25.03-.5.1-.7.23-.19.11.04.13.1.17.08.07.18.11.06.23-.13.13-.3.26-.48.19-.63-.25-1.18-.02-1.73.24-.1.05-.17.13-.27.17-.19.08-.45.26-.36-.2 0-.02-.09-.1-.15-.1-.36-.05-.71-.01-1.01.24-.17.13-.36.24-.54.34-.19.1-.37.21-.6.09-.09-.05-.22-.01-.31.02-.68.23-1.4.22-2.07.5-.29.12-.62.15-.94.2-.49.08-.86.35-1.17.71-.07.08-.06.14.03.16.1.02.21.05.32.06.68.05 1.35-.15 2.02-.21.3-.22.63-.17.93-.06.4.14.75.1 1.16.03.49-.09 1-.04 1.5-.12.8-.14 1.64-.16 2.47-.17 1.15-.02 2.29-.08 3.43-.22.21-.03.43 0 .64 0 .83-.01 1.65.07 2.48-.07.45-.07.93.02 1.4.05.1 0 .13.07.1.13-.04.06-.1.15-.14.16-.57.12-1.13.22-1.7.21l-1.63-.02c-.25 0-.5 0-.75.06-.32.08-.64.05-.97.07-1 .08-2 .12-2.95.48-.07.02-.1.1-.16.14.05.04.1.1.17.1.14.03.28.03.42.05.15 0 .33-.04.43.03.65.41 1.24.17 1.84-.1.18-.1.2.03.16.22-.04.13.13.14.21.13.32-.07.64-.13.93-.25.88-.38 1.8-.45 2.74-.45.32 0 .64.04.96-.08.2-.07.43-.04.64-.03.07 0 .19.05.19.07 0 .12-.1.15-.2.17-.2.05-.42.15-.63.14-.41-.02-.76.18-1.14.27-.04 0-.08.12-.06.17.01.05.1.1.15.11.14.01.28 0 .42-.02.18-.01.36-.07.54-.07l2.59.08c.18 0 .38-.01.5.13.47.52 1.03.38 1.6.3 1-.12 2.01-.12 3 .19.24.07.48.11.73.12.8.02 1.59.06 2.38.07.36 0 .72 0 1.07-.09.24-.06.5-.03.75-.03.18 0 .32.25.54-.03.14-.17.46.07.7.09.37.02.53.47.95.44.32-.01.63.11.94.2.55.14 1.07.43 1.67.38.1 0 .12-.07.08-.13a.25.25 0 0 0-.08-.08l-.1-.05c-.02-.02-.05-.05-.05-.08 0-.02.04-.06.06-.06.28-.05.51.07.63.3-.2.31.1.4.25.41.47.02.78.3 1.12.54.3.2.6.28.83-.1.08-.13.18-.06.28-.02.24.1.4.28.56.49.13.16.3.29.46.44.13.12.26.16.46.16.3.02.43.34.63.55.6.66.84.7 1.5.13.2-.18.39-.08.56-.16.1-.04.22-.16.13-.24-.3-.25-.63-.47-.54-.94-.43-.47-.71-1.07-1.3-1.41-.72-.41-1.4-.9-2.08-1.35-.12-.08-.21-.2-.3-.32-.02-.04 0-.14.04-.2.04-.04.14-.1.18-.08.37.16.74.3 1.07.5.74.44 1.46.92 2.17 1.4.34.22.57.54.77.9.2.34.28.73.4 1.1.14.37.41.68.35 1.11-.01.1.03.23.1.3.48.45.35.98.15 1.49-.09.22-.12.4.03.59.09.11.18.25.2.38.13.9.28 1.1-.7 1.51l-.88.4c.03-.22.05-.43.1-.63.05-.14 0-.2-.11-.22-.1-.02-.21-.02-.32-.02-.36 0-.48.1-.5.4-.02.1-.03.22-.02.32.06.44-.1.8-.47 1-.63.34-.52.85-.41 1.38.03.17.09.34.14.5.05.18.16.23.32.16l1.39-.56c.14-.05.1-.15.08-.25-.08-.27-.18-.52-.25-.8.22-.1.44-.17.7-.16.23 0 .4-.12.55-.3.1-.12.16-.4.38-.25.13.09-.06.24-.12.35-.1.23-.23.45-.34.67-.04.1-.1.24-.06.3.21.32.06.52-.17.74-.15.15-.16.31.07.42.14.07.2.2.25.34.11.23.04.48-.22.47-.7 0-1.03.4-1.21 1a.64.64 0 0 1-.26.33c-.47.33-.9.7-1.42.97-.6.31-1.2.65-1.77 1.02-.3.19-.6.23-.9.32-.02 0-.1-.11-.1-.18-.02-.2.12-.32.29-.4.08-.04.1-.09.06-.17-.04-.1-.13-.18-.24-.16a2.2 2.2 0 0 0-.4.12c-1 .4-2.09.47-3.13.73-.34.08-.65.17-.83.57-.1.26-.47.29-.75.37-.04.02-.1-.04-.17-.07l.07-.09c.09-.1.2-.2.28-.33.02-.04 0-.17-.03-.18-.41-.2-.28-.4 0-.6.05-.05.06-.2.03-.3-.05-.12-.18-.07-.28-.04-.3.12-.63.12-.92.3-.27.18-.6.22-.93.24-.2.02-.27.36-.13.53.2.22.18.22.1.3a6.9 6.9 0 0 1-2.4 1.38c-.27.1-.04.32-.17.38a.68.68 0 0 1-.42.06 2.8 2.8 0 0 0-1.27.13c-.34.1-.67.28-1.05.22a.77.77 0 0 0-.41.1c-.56.26-1.15.4-1.75.52-.27.06-.56.14-.82.25-.63.3-1.3.4-1.96.53-.56.12-1.14.16-1.7.27-.32.06-.6.21-.92.28-.7.14-1.41.27-2.11.39-.53.08-1.08.1-1.6.24-.5.13-1 .1-1.5.08-.16 0-.4.04-.43-.17-.02-.09.24-.09.38-.1 1.2-.14 2.38-.5 3.57-.72.91-.17 1.83-.32 2.73-.51.77-.17 1.56-.31 2.28-.6 1.18-.46 2.39-.76 3.6-1.09.06-.01.12-.05.18-.08-.08-.03-.17-.1-.26-.1-.21 0-.46-.03-.64.06-.49.25-1.04.23-1.54.43-.13.05-.29.06-.4-.05l.22-.16c.33-.23.7-.34 1.1-.4.5-.08.97-.24 1.46-.37.03 0 .05-.04.09-.06-.06-.03-.11-.09-.17-.09-.15-.02-.3-.04-.43 0-.75.25-1.54.3-2.31.45-.08 0-.25.03-.15-.16.07-.13-.02-.21-.13-.2l-4.05.47-.1.01c-1.66.46-3.38.58-5.05 1-.36.1-.74.26-1.16.12-.38-.14-.77.06-1.17.02-1.3-.14-2.57.13-3.84.37-.4.07-.77.08-1.16.05.14-.3.47-.28.72-.38.23-.1.48-.18.71-.27.01 0 .03-.05.02-.06l-.09-.06c-.1 0-.23-.02-.32.02-.59.25-1.2-.02-1.81.13-.56.13-1.13.2-1.7.28-.2.02-.43 0-.64-.03-.23-.04-.5.1-.68-.13.19-.15.41-.05.62-.08.4-.05.79-.08 1.16-.17.88-.21 1.8-.02 2.67-.28.3-.08.65-.03.97 0 .61.05 1.2.07 1.81-.12a11 11 0 0 1 2.02-.32c.36-.03.7-.13 1.04-.22.8-.22 1.6-.4 2.41-.54.22-.04.43-.1.63-.16.38-.12.75-.23 1.16-.17.27.03.5-.07.72-.19.17-.08.04-.13-.03-.2-.04-.03-.08-.1-.12-.14l.1-.05c.22-.04.43-.05.62.09.15.1.33.14.51.13.27-.01.34-.01.43-.35.1-.43.11-.44.46-.43.33 0 .67-.1.96.07.37.23.68.1 1.02-.03.2-.08.4-.14.61-.2.41-.12.85-.2 1.24-.37 1-.42 2.05-.58 3.11-.7.3-.02.54-.2.83-.22.07 0 .13-.04.2-.06-.05-.02-.11-.06-.17-.06-.6-.05-1.2.01-1.8-.1a.67.67 0 0 0-.33.01c-1.1.37-2.28.25-3.39.6-.79-.04-1.55.3-2.35.2-.4-.05-.76.14-1.15.23-.74.16-1.47.35-2.23.23-.04 0-.09-.05-.09-.06.01-.05.03-.12.07-.15.05-.04.12-.06.2-.1.65-.34 1.37-.35 2.08-.43 1-.13 2-.23 2.99-.36a7 7 0 0 0 2.51-.9c.13-.08.26-.2.38-.19.75.07 1.38-.36 2.08-.47.23-.04.4-.06.6.06.17.1.4.1.5-.05.12-.18.19-.29.37-.08.05.05.11.1.17.12.16.05.52-.12.51-.23 0-.1-.27-.5-.33-.5-.19 0-.37 0-.54-.03-.38-.07-.1-.15-.02-.28.12-.18-.03-.47-.26-.58-.1-.04-.2-.06-.3-.12-.03-.02-.03-.12-.03-.18 0-.03.04-.06.07-.08.27-.14.56-.04.84-.08.08 0 .14-.03.21-.05l-.2-.22c-.1-.1-.07-.23.03-.26.2-.06.41-.09.62-.13.1-.02.12-.08.09-.16-.03-.07-.06-.16-.11-.18a1.44 1.44 0 0 0-.42-.08c-.5-.02-1 0-1.5-.05-.6-.04-1.12.2-1.65.41l-.09.06c.06.03.13.08.18.08.21-.03.42-.08.63-.1.1 0 .1.08.06.16-.13.22-.24.43-.55.42-.23 0-.43.06-.58.25.1.45-.31.35-.51.48-.03.02-.07.04-.1.04-.8.05-1.53.33-2.27.61-.47.18-.95.31-1.43.46-.62.18-1.23.4-1.84.6-.37.13-.76.14-.97.54-.04.07-.23.14-.28.1-.28-.17-.55 0-.8.04-.25.03-.48.16-.72.23-.14.05-.18-.05-.2-.16-.05-.13-.15-.26.03-.37l.19-.1.3-.1c1.06-.45 2.15-.8 3.24-1.16.47-.15.91-.4 1.38-.6.09-.04.1-.08.09-.16-.01-.05-.18-.18-.25-.15l-.3.13c-.43.17-.84.43-1.34.34-1.1.3-2.25.46-3.32.88l-.81.3c-.24.1-.2-.11-.27-.22-.04-.08-.14-.16-.05-.29.07-.1 0-.24-.1-.2-.38.14-.8.06-1.15.2-.5.18-1 .1-1.5.1-.47-.01-.94 0-1.36-.25-.14-.08-.52.29-.49.46 0 .05.1.12.13.12.32-.02.65.07.96-.08.35-.17.7-.06 1.05 0l.1.07c-.04.02-.06.05-.1.06l-1.49.19c-.45.06-.93-.13-1.37.16-.1.07-.28.02-.42 0-.76-.1-1.5.02-2.23.25-.1.03-.25.07-.3.02-.26-.26-.53-.07-.8-.05-.45.05-.82.27-1.24.37-.39.09-.75.15-1.07.42-.15.13-.4.15-.6.2-.14.05-.32.03-.32.22 0 .1.05.2.1.3.06.16.04.3-.13.33-.94.26-1.88.5-2.81.74-.46-.1-.84.17-1.26.26-.48.1-.93.35-1.45.38-.2.01-.44.1-.58.25-.16.16-.33.23-.54.29-.31.09-.6.23-.9.36-.1.05-.18.15-.14.26.02.1.1.2.17.25.16.1.35.12.52.06.32-.1.63-.14.96-.09.07.01.12.08.18.11-.05.04-.1.11-.17.12-.39.04-.74.22-1.14.26a1.9 1.9 0 0 0-1.1.4c-.17.15-.46.24-.7.24-.5 0-.87.32-1.3.46-.05.01-.1.1-.11.16-.02.15.1.17.2.2.15.01.3.04.43.03l1.8-.25c.23-.03.43-.03.59.16.02.04.03.15.02.16-.23.08-.47.2-.71.22-.72.08-1.44.14-2.15.16-.38.01-.7.07-1.01.3-.17.13-.36.23-.56.33-.12.06-.27.13-.4.12-1-.11-2 .16-3.01.08-.33-.03-.64-.03-.96-.13a2.4 2.4 0 0 0-.64-.1c-1.12-.04-2.19-.36-3.27-.62a5.38 5.38 0 0 1-1-.38c-.68-.32-1.34-.7-2.03-1-.34-.16-.6-.4-.87-.63-.27-.2-.52-.36-.87-.35a6.37 6.37 0 0 1-3.2-.81 2.1 2.1 0 0 0-1.14-.3c-.18.02-.35-.03-.43-.24-.05-.12-.18-.05-.27-.07-.42-.06-.86-.09-1.16-.46-.04-.04-.05-.13-.03-.19 0-.05.06-.14.12-.15.17-.02.35-.01.53-.03.06-.01.14-.06.16-.1a.2.2 0 0 0-.09-.27c-.25-.13-.48-.38-.8-.22-.3.15-.55.03-.8-.12-.18-.12-.33-.3-.52-.38-.26-.13-.57-.16-.8.08-.36.38-.77.64-1.3.66-.1 0-.2.08-.3.13-.9.48-1.77.96-2.67 1.42-.82.42-1.67.81-2.51 1.22-.26.12-.53.23-.77.38-.2.12-.38.2-.6.16-.42-.06-.78.11-1.15.25-1.32.48-2.62 1-3.95 1.44-1.2.38-2.41.68-3.63 1.01-.76.2-1.52.39-2.3.56-.66.14-1.32.3-2 .32-.47 0-.9.19-1.38.2-.53.02-1.06.17-1.58.25-.15.03-.3.03-.43.04-2.06.05-4.1.09-6.16-.05-.68-.04-1.37-.08-2.05-.1a7.83 7.83 0 0 1-1.38-.23c-.52-.12-1.07-.05-1.58-.32-.22-.12-.55-.09-.84 0-.5.17-.98.13-1.47-.05-.34-.13-.7-.16-1.06-.07-.26.08-.49.1-.71-.05-.35-.22-.74-.25-1.14-.28-.3-.02-.58.09-.85.06-.23-.02-.43-.26-.66-.32-.31-.08-.64-.07-.96-.1-.22-.03-.46 0-.64-.09-1-.48-2.12-.64-3.15-1.03-1.07-.4-2.2-.7-3.17-1.34-.24-.15-.5-.31-.8-.3-.3.01-.55-.13-.78-.3-.1-.06-.2-.17-.28-.15-.47.1-.72-.24-1.03-.47-.38-.27-.78-.5-1.2-.73-.57-.29-1.03-.77-1.67-.95-.15-.04-.17-.21-.17-.36 0-.12-.06-.2-.18-.22-.14-.01-.2.08-.2.2-.02.38-.07.78 0 1.17.27 1.35.28 2.72.2 4.08-.02.54-.1 1.08 0 1.62.01.1-.02.2-.03.3l-.14 1.4c-.05.65-.08 1.3-.28 1.92-.28.86-.29 1.77-.57 2.63-.27.81-.48 1.64-.58 2.5-.06.57-.22 1.13-.3 1.7-.05.3-.21.6-.35.9-.18.4-.37.78-.59 1.15-.26.43-.5.88-.58 1.38-.12.76-.69 1.17-1.28 1.5-.54.27-1.13.43-1.7.66-.15.06-.27 0-.41-.03-.62-.18-1.24-.35-1.9-.32-1.1.05-1.92-.53-2.6-1.32a5.5 5.5 0 0 1-1.17-2.05c-.21-.76-.49-1.5-.65-2.27-.34-1.54-.6-3.1-.83-4.65l-.01-.1c.06-1.05-.18-2.09-.08-3.13.06-.76.06-1.52.08-2.27.05-1.23.2-2.43.5-3.63.18-.7.22-1.41.4-2.12a37.95 37.95 0 0 1 1.78-5.74l.16-.4c.5-.99 1-1.99 1.53-2.97.13-.26.15-.48-.03-.69a34.88 34.88 0 0 1-2.64-3.67 40.36 40.36 0 0 1-2.92-5.28 75.29 75.29 0 0 1-1.72-4.2c-.34-.9-.61-1.82-.83-2.77-.29-1.22-.62-2.43-.79-3.67a112.6 112.6 0 0 1-.66-6.43c-.06-.93-.1-1.87-.13-2.8-.02-.75.01-1.5-.06-2.26-.08-.85 0-1.73.04-2.6.06-1.58.14-3.16.24-4.74.07-.97.3-1.91.48-2.87.31-1.5.7-3 1.13-4.48.2-.65.37-1.3.58-1.95.1-.27.19-.55.4-.75.24-.22.46-.47.65-.73.54-.78 1.35-1.06 2.22-1.17.92-.12 1.82.06 2.55.65.46.38.78.94.87 1.56.06.49.22.97 0 1.48-.12.25-.07.57-.1.86-.05.94-.08 1.87-.15 2.8-.03.4-.05.79-.18 1.17-.1.33-.09.72-.1 1.07-.05.69 0 1.39-.15 2.05-.17.75-.2 1.5-.25 2.24-.06.8-.1 1.58-.1 2.38 0 .64.08 1.29.1 1.93 0 .65-.05 1.3.11 1.93.03.14 0 .3 0 .44.01.5-.06 1 .12 1.5.04.09.02.2.01.31-.06 1.16.19 2.29.36 3.42.27 1.88.59 3.75 1 5.6.32 1.48.62 2.95 1.16 4.37.06.16.08.34.12.51.19.86.47 1.65 1.07 2.32.5.57.8 1.27 1.15 1.94.23.42.45.82.82 1.13.31.26.49.62.68.97.17.31.34.65.58.9.84.9 1.5 1.93 2.16 2.96.72 1.13 1.62 2.1 2.6 3 .38.34.8.64.96 1.15.51.4.67 1.1 1.21 1.48.06.04.12.1.14.16.38 1.04 1.35 1.57 2.06 2.3.38.39.86.67 1.25 1.04.47.47 1.06.75 1.66.98.5.2 1.02.35 1.51.56l1.06.5c.74.37 1.52.67 2.31.9.45.12.9.25 1.33.4 1.32.5 2.67.83 4.07.96.4.04.78.12 1.18.18.17.03.35.07.53.08 1.58.08 3.16.22 4.75.22.92 0 1.86-.11 2.8-.1.1 0 .2-.05.31-.08.51-.12.56-.2.46-.74-.18-.99-.35-1.97-.56-2.95-.2-.82-.18-1.64-.3-2.46-.15-1.06-.18-2.14-.26-3.22-.02-.28-.02-.57-.01-.86.01-.54.07-1.08-.08-1.62-.04-.13-.01-.28 0-.42.09-2.24.17-4.47.3-6.7.07-1.47.29-2.93.56-4.38.15-.81.23-1.63.38-2.45.14-.7.3-1.4.48-2.1.27-1.14.57-2.29.85-3.44.29-1.14.6-2.29 1-3.4.26-.74.44-1.51.7-2.26a78.3 78.3 0 0 1 2.46-6.2c.47-1.08.95-2.17 1.45-3.24.22-.45.49-.88.72-1.33.4-.76.77-1.54 1.21-2.28.63-1.09 1.3-2.15 1.99-3.21a20.47 20.47 0 0 1 2.3-2.86c.58-.63 1.17-1.27 2-1.6.1-.04.18-.11.26-.19.55-.52 1.2-.48 1.81-.21.6.26 1.24.37 1.77.76.11.08.28.1.42.1.66-.06 1.17.3 1.68.63.38.26.74.56 1.11.85l.32.3c.83.86 1.4 1.91 1.9 2.98.26.55.37 1.17.5 1.76.29 1.4.56 2.81.83 4.22.02.1.06.2.06.31-.05 1.15.2 2.3.07 3.45-.08.71-.06 1.44-.1 2.15-.01.4 0 .8-.13 1.18a.83.83 0 0 0-.04.42c.07.26.01.48-.05.73-.22.98-.4 1.97-.6 2.96.13.66-.14 1.25-.3 1.87-.14.48-.14.99-.31 1.47-.16.47-.2.97-.32 1.46-.03.14-.08.28-.15.4-.63 1.06-.93 2.25-1.42 3.36-.12.98-.54 1.86-.84 2.78-.28.85-.41 1.75-.78 2.57-.07.19-.04.41-.06.63-.31.13-.17.48-.34.7-.12.15-.1.38-.15.58Zm-42.97 20.8c-.17-.3-.5-.35-.8-.44-.03 0-.07 0-.1.02-.1.03-.09.07.01.12.28.16.55.35.89.3.43.42.83.6 1.48.72.02.18.19.18.31.24.27.12.55.2.77.37a2.7 2.7 0 0 0 1.9.6c.32.46.8.48 1.3.47.03 0 .06-.04.09-.06-.03-.02-.05-.06-.08-.06-.45-.09-.85-.35-1.31-.35-.04-.05-.08-.11-.13-.15a9.77 9.77 0 0 0-2.85-1.06c0-.04 0-.08-.02-.1-.44-.32-.89-.6-1.46-.62ZM547.1 617c.71.16 1.39-.06 2.09-.14.6-.06 1.06-.3 1.41-.79.51-.04.94-.3 1.38-.53.09-.04.17-.15.05-.25-.07-.07-.2-.15-.25-.13-.39.19-.76.4-1.13.62-.06.03-.03.19-.05.3-.24-.02-.48-.03-.73-.02-.1 0-.25.02-.29.08-.15.33-.45.3-.73.31-.38.02-.73.21-1.13.21-.2 0-.5.08-.62.34-.28 0-.56-.01-.85.01-.13.02-.25.12-.37.19-.02 0-.04.06-.04.08.02.02.06.06.08.06.38-.09.75-.17 1.11-.27.03 0 .05-.04.07-.07Zm11.5-5.12c-.59.08-1.07.4-1.59.63-.28.51-.76.59-1.26.67-.2.03-.4.17-.57.29-.06.04-.1.2-.09.27.03.13.21.13.26.07.15-.2.31-.16.53-.17.26-.01.5-.22.77-.34a4.31 4.31 0 0 0 1.94-1.41c.25 0 .5-.03.74.02.5.1.91-.08 1.3-.37.07-.06.1-.12.03-.15-.06-.03-.14-.04-.2-.02-.2.08-.38.19-.58.27a.4.4 0 0 1-.2.05c-.09-.01-.12-.07-.1-.14.08-.15.07-.33-.14-.22-.29.16-.73.13-.85.55Zm-7.19.76c-.53.11-1.13.05-1.5.6-.08.1-.25.13-.38.18-.37.13-.74.24-1.06.5-.15.14-.37.23-.58.26-.5.1-.89.42-1.36.57-.2.06-.36.22-.54.34 0 0 .01.06.03.07.02.02.06.05.09.04l.61-.16c.41-.14.81-.29 1.2-.45 1.03-.4 2.05-.86 3-1.42.2-.13.46-.23.5-.53.14.05.24.23.46.09.23-.16.49-.29.74-.43l1.01-.56c.06-.04.12-.11.12-.17 0-.04-.07-.12-.13-.13-.16-.06-.3-.08-.42-.27-.1-.19-.27-.16-.43-.03a5.8 5.8 0 0 1-.96.49c-.2.07-.47.08-.53.3-.03.15.07.34.11.5.02.08.01.14.02.21Zm15.04-6.9a.93.93 0 0 0-.6.14c-.08.04-.15.02-.18-.06-.01-.02.02-.06.04-.09.41-.4.83-.78 1.25-1.17.08-.08.16-.14.23-.23.05-.06.21-.13.05-.23-.04-.03-.14-.01-.2.02-.37.21-.62.6-.97.83-.94.58-1.74 1.36-2.7 1.9-.16.09-.15.23.06.27.03.01.08.06.08.08-.1.27-.04.39.26.26.16-.07.16.04.19.14.1.33.12.34.29.22.65-.44 1.3-.9 1.86-1.45.19-.19.34-.36.34-.63.23.06.4 0 .55-.2.06-.07.07-.12 0-.17-.04-.02-.07-.03-.1-.02-.22.05-.39.16-.45.39Zm-28.36 37.93c-.28.01-.66-.06-.77.22-.16.41-.53.3-.79.44-.08.05-.14.04-.18-.04-.1-.31-.3-.24-.5-.14a.56.56 0 0 1-.42.03c-.03-.01-.07-.04-.08-.07-.01-.03.01-.06.03-.09.12-.16.29-.21.45-.28l1.88-.78c.1-.04.12-.09.05-.13a.23.23 0 0 0-.1-.03c-.14 0-.29 0-.43.02-.65.14-1.25.52-1.96.35-.08-.02-.2.08-.3.13-.15.07-.32.21-.48.2-.46-.03-.81.26-1.2.41a.96.96 0 0 0-.33.27c-.05.06.22.17.45.13.17-.03.35-.1.52-.14.14-.03.28-.04.4.05.13.08.32.13.35.24.07.17-.17.14-.26.22a2 2 0 0 1-1 .6c-.02 0-.03.05-.02.06.02.02.06.05.08.05.22-.02.44-.02.64-.08.29-.1.48.05.7.18.08.05.08.12 0 .18l-.36.24c-.12.08-.2.2-.17.36.03.23.18.12.31.12.83.04 1.65-.07 2.46-.2.46-.07.86-.02 1.2.27.25.2.5.26.8.18.17-.05.36-.13.52-.1.56.14 1.07-.1 1.6-.19.3-.05.6-.23.9-.34.2-.06.41-.13.62-.18.05 0 .12.06.18.1l-.04.08-.84.85c-.03.04-.02.1-.03.17.07 0 .15.04.2.02.37-.22.87-.07 1.2-.42.03-.04.15-.04.19 0 .3.2.64.04.95.14.08.03.12.08.08.16-.07.18-.02.28.16.2.38-.16.6-.52.93-.74.33-.23.62-.46.79-.83.07-.15.2-.18.35-.2.35-.04.48-.23.43-.57 0-.04.1-.1.15-.15.2-.23.24-.44-.09-.6-.06-.04-.06-.11.02-.17.09-.06.17-.15.27-.16a1.5 1.5 0 0 0 1.05-.67c.16-.25.49-.28.77-.31.2-.03.15.33.4.26.2-.05.42-.06.63-.09.2-.02.35-.12.45-.27.08-.13.12-.27.26-.33.09-.04.11-.11.05-.14a.33.33 0 0 0-.2-.06c-.14 0-.3 0-.43.05-.56.14-1.13.18-1.67-.1-.15-.07-.27.01-.41.04-.47.13-.94.41-1.44.06-.05-.04-.14-.02-.21-.01-.55.12-1.12.21-1.67.37-.62.16-1.23.38-1.85.56-.21.06-.08.21-.1.33-.01.03-.05.05-.07.08-.14.18-.23.15-.4-.1-.03-.05-.09-.12-.13-.12l-.51.1c-1.06.23-2.08.57-3.16.67-.23.02-.24.02-.12-.32.05-.13.04-.21-.08-.22-.24 0-.5-.1-.67.18Zm7.85 5.3c-.07.1-.16.18-.19.27-.04.12.02.28-.04.38-.09.16-.27.2-.46.24-.2.05-.4.17-.6.18-.31.01-.57.06-.8.26-.1.09-.28.09-.41.12-.32.06-.64.12-.96.16a1 1 0 0 0-.63.38c-.04.04-.05.11-.05.17 0 .01.05.05.09.05h.43c.2 0 .38-.2.61-.07.7.39 1.4.04 2.1-.05.12-.01.12-.3.29-.23.33.13.63 0 .95-.04.14-.02.28 0 .42.02.02 0 .06.05.06.07a.13.13 0 0 1-.07.07c-.07.03-.14.03-.21.05l-.16.1c.03.02.06.05.1.06.64.12 1.3.16 1.84-.3.25-.2.52-.05.78-.15.16-.05.2.17.27.28.09.14.24.13.38.16.57.08 1.13-.12 1.69-.04l2.9-.8c.17-.04.33-.14.48-.23.1-.07.1-.17-.03-.22-.2-.07-.22-.2-.05-.28.41-.21.84-.45 1.28-.55a8.6 8.6 0 0 0 2.53-1.14c.42-.26.82-.45 1.3-.47.38 0 .7-.16 1-.36l.05-.08c-.06-.02-.13-.07-.19-.06-.1.03-.19.1-.3.13-.05.02-.13 0-.19-.02-.1-.04-.07-.16.07-.23.28-.16.56-.31.88-.38.14-.03.25-.13.37-.2.13-.09.12-.3 0-.37-.35-.22-.71-.36-1.12-.35l-.65-.01c-.11 0-.16-.1-.2-.2-.18-.37-.19-.39-.5-.3-.25.07-.5.08-.75.03-.06-.01-.13-.06-.19-.1.05-.03.1-.11.13-.1.49.01.4-.45.58-.68.04-.06 0-.13-.09-.13-.28.03-.56.08-.85.1-.05 0-.17-.08-.16-.09.13-.37-.17-.3-.35-.32-.28-.03-.58-.06-.86-.07-.14 0-.3.02-.41.09-.39.26-.75.56-1.13.83-.2.14-.04.33-.1.47a.99.99 0 0 1-.37.38c-.52.31-1.05.6-1.58.9-.28.17-.55.37-.58.72 0 .13.08.24-.1.33-.26.12-.56.18-.75.41-.07.09-.07.13.04.15.07.01.15.01.21.03.07.02.13.07.18.1-.02.05-.04.13-.08.14a.88.88 0 0 0-.54.5c-.04.09-.17.12-.27.05-.02-.01.01-.11.02-.17.08-.33.01-.4-.28-.33-.24.07-.48.14-.71.23-.2.08-.34.34-.22.53.11.21.14.37.05.58-.03.08.07.24-.1.22-.38-.03-.68.12-.97.35-.08.06-.21.04-.32.03-.05 0-.1-.06-.15-.1l.04-.1c.21-.27.59-.25.85-.44.15-.11.21-.52.08-.7-.12-.15-.26-.04-.39 0-.2.07-.43.22-.59.16-.34-.1-.63-.01-.94.06-.1.02-.16-.08-.17-.2.23-.06.45-.14.67-.22.1-.03.12-.1.07-.12-.25-.06-.5-.2-.76-.16-.08.01-.18.11-.11.24l.13.26c-.18-.02-.33-.03-.45.16-.14.23-.18.1-.19-.07v-.1c-.07-.22-.07-.23-.29-.1-.06.03-.12.08-.17.12-.17-.02-.34-.05-.5-.05-.14 0-.35.02-.31.18.07.33.23 0 .36.01.1.02.2-.01.3-.02Zm21.2-115.72c.02 0-.01 0 0 0 .03-.43.03-.87.04-1.3.01-.36.07-.73 0-1.08-.15-.68-.08-1.36-.08-2.04 0-.33 0-.65-.03-.97-.08-.7-.24-1.4-.23-2.13 0-.72-.08-1.43-.11-2.15-.03-.57.07-1.15-.15-1.7-.09-1.33-.17-2.66-.27-3.98-.05-.71-.1-1.43-.2-2.14-.07-.53-.22-1.05-.35-1.58a2.1 2.1 0 0 0-.78-1.14c-.27-.22-.56-.28-.89-.1-.28.17-.57.3-.84.49-.48.31-.88.72-1.28 1.11-.88.86-1.68 1.77-2.36 2.8-.3.48-.62.96-.94 1.44-.2.3-.38.63-.64.86-.28.26-.49.51-.52.9-.03.18-.12.37-.28.43-.46.2-.58.64-.75 1-.2.43-.42.84-.6 1.27-.4.95-.95 1.85-1.01 2.92 0 .14-.06.3-.15.4-.33.27-.34.7-.52 1.04-.2.38-.36.78-.49 1.2-.4 1.26-.8 2.52-1.14 3.8-.45 1.66-.85 3.33-1.24 5-.2.87-.42 1.75-.9 2.53-.22.38-.52.61-.93.6a2.46 2.46 0 0 0-.63.02c-.24.05-.5.04-.75.01-.13-.01-.3-.06-.39-.15a5.44 5.44 0 0 1-1.39-2.03c-.17-.5-.35-1.02-.47-1.54a8.64 8.64 0 0 1-.17-1.8c-.02-.6.05-1.21-.16-1.8a2 2 0 0 1-.07-.74c.02-.54.07-1.09.1-1.62.03-.79.06-1.57-.09-2.35a2.84 2.84 0 0 1 0-1.27c.08-.3.07-.65.01-.97a8.47 8.47 0 0 1-.07-2.15c0-.21.03-.44-.02-.64-.14-.5-.08-1-.09-1.5-.02-1.27-.01-2.53-.1-3.78-.05-.6-.09-1.22-.1-1.83 0-.14.01-.3-.01-.43-.17-.85-.14-1.72-.27-2.57-.09-.56-.14-1.14-.38-1.67-.11-.26-.3-.32-.5-.17a17.31 17.31 0 0 0-4 4.75c-.6 1.03-1.3 1.98-1.71 3.1-.02.07-.09.12-.13.18-.34.5-.57 1.06-.81 1.62-.32.75-.43 1.6-1.02 2.24-.07.07-.08.2-.1.3-.13.57-.4 1.08-.65 1.6-.1.22-.24.44-.32.67-.51 1.64-1.08 3.27-1.48 4.95-.3 1.25-.67 2.5-.73 3.8 0 .21-.07.42-.12.63a4.06 4.06 0 0 0-.06 1.6c.14.86.15 1.72.22 2.58.07.89-.1 1.8.06 2.69.02.13 0 .29-.03.42-.08.25-.07.49-.03.75.03.17 0 .35-.03.53-.03.08-.11.2-.2.23-.13.04-.28.03-.42.05-.38.04-.39.05-.44.46-.01.14-.01.29-.03.43-.02.22-.14.32-.35.33-.9.01-1.79-.2-2.66-.37-.39-.08-.85-.26-.88-.82-.01-.12-.18-.22-.25-.34-.16-.23-.36-.46-.45-.72-.4-1.15-.84-2.3-1.04-3.5-.27-1.7-.63-3.38-.91-5.08-.2-1.17-.47-2.33-.44-3.52 0-.11 0-.22-.02-.33-.2-1.38-.41-2.76-.6-4.15-.14-.99-.21-2-.37-2.98-.25-1.6-.53-3.18-.82-4.77-.3-1.55-.67-3.09-1.35-4.53-.1-.22-.22-.45-.35-.66-.25-.4-.56-.4-.86-.01-.21.28-.37.6-.6.9a20.22 20.22 0 0 0-2.46 4.4c-.35.78-.68 1.58-1.04 2.36-.15.3-.26.59-.09.92.08.14.04.27 0 .4-.17.45-.25.9-.48 1.32-.23.38-.5.8-.24 1.3.05.12-.01.3-.15.37-.16.1-.18.2-.07.34a.9.9 0 0 1 .16.28c.07.28.07.5-.2.75-.7.64-.72.76-.81 1.88-.01.12-.07.19-.13.27-.3.53-.62 1.06-.7 1.67-.16 1-.28 2-.4 2.99-.02.1 0 .22-.04.32-.28.69-.19 1.42-.27 2.13 0 .03-.02.08 0 .1.02.06.05.1.1.15.01-.03.05-.06.05-.09.03-.37.18-.69.36-1 .1-.18.27-.23.45-.17.2.08.27.18.2.38-.07.24-.02.5-.17.73-.42.64-.47 1.42-.8 2.1-.16.33-.18.68.17.98.15.13.2.38.3.57l.08.19c.04.06.2 0 .27-.08.19-.21.05-.5.17-.72l.08-.06c.02.03.05.06.06.1.04.31.04.63-.13.93-.07.12-.1.27-.14.4-.05.23-.32-.07-.39.19-.21.86-.62 1.68-.56 2.61.02.18 0 .38-.07.53-.26.58-.15 1.22-.36 1.8-.04.11-.02.22.07.29.28.2.25.48.24.78-.02.54-.22 1.05-.3 1.58-.2 1.3-.1 2.57.22 3.84.3 1.19.53 2.38.93 3.54.05.13.07.33.16.38.5.25.48.68.44 1.12-.02.3.07.56.12.84.12.72.4 1.38.6 2.06.4 1.24 1.08 2.36 1.41 3.61.18.62.46 1.22.7 1.81l.8 2c.03.07.07.2.1.19.6-.09.23.49.45.65 0 .57.26 1.04.5 1.52a8 8 0 0 0 .52.94c.36.54.69 1.14 1.31 1.4.37.14.6.38.8.67l.35.54c.14.25.36-.04.56.11.45.33.85.68 1.12 1.16.13.23.3.37.5.53.9.72 1.9 1.13 3.05 1.22.18.02.35.07.53.12 1.28.33 2.57.63 3.9.7.48.04.93.11 1.36.31.33.15.68.2 1.05.21 1.7.09 3.38.17 5.07.06.54-.03 1.09.06 1.62-.02 1.85-.26 3.69-.54 5.46-1.16.95-.33 1.92-.61 2.87-.93.65-.21 1.29-.46 1.93-.7.67-.24 1.36-.46 2.02-.74.92-.39 1.87-.76 2.74-1.25a5.9 5.9 0 0 1 1.9-.66c.22-.04.42-.12.63-.14.42-.04.76-.24 1.03-.53.39-.43.75-.87 1.13-1.3.06-.07.04-.14-.03-.2-.11-.1.03.04-.1.03-.07 0-.16.01-.18-.02-.03-.05-.04-.15 0-.2.13-.15.3-.43.5-.27.33.25.52.11.74-.1.21-.2.42-.4.6-.62.64-.77 1.32-1.52 1.96-2.3a32.98 32.98 0 0 0 2.7-3.6c.12-.18.28-.34.42-.5.72-.9 1.45-1.79 1.98-2.82.26-.5.6-.98.9-1.47.54-.88 1.1-1.75 1.61-2.65.8-1.36 1.58-2.73 2.44-4.06.36-.56.7-1.18.67-1.9 0-.2.1-.34.19-.5.15-.28.3-.58.39-.88.19-.62.62-1.13.76-1.77.04-.16.16-.32.28-.45.25-.27.41-.59.58-.9.22-.43.5-.8.88-1.1.28-.21.53-.47.7-.8.14-.24.13-.29-.14-.33h-.22c-.2-.03-.27-.11-.18-.26.19-.32.34-.64.4-1 .03-.13.13-.25.22-.36.27-.35.4-.7.25-1.16-.12-.4.1-.78.3-1.13a52.53 52.53 0 0 0 2.09-4.13c.16-.36.33-.72.28-1.13-.03-.22.03-.42.13-.63.31-.64.6-1.3.88-1.96.42-.95.85-1.9 1.17-2.89.11-.34.4-.63.45-.97.11-.68.4-1.3.58-1.96.3-1.07.62-2.14.94-3.2.03-.13.05-.28.06-.42.02-.33.1-.64.23-.94.12-.26.2-.54.26-.82.17-.7.35-1.4.5-2.1.13-.62.16-1.27.36-1.89a.47.47 0 0 0 0-.32c-.2-.47-.01-.9.04-1.36.07-.57.17-1.14-.04-1.72-.07-.15-.03-.35-.03-.53 0-.4.02-.8.03-1.19 0-.05-.06-.1-.1-.16 0-.01-.08 0-.1.02-.94.9-1.87 1.8-2.63 2.86-1.05 1.5-2.09 3.02-3.06 4.57-.54.84-.95 1.76-1.43 2.64-.17.32-.34.63-.53.94-.05.08-.16.18-.24.18-.36 0-.5.2-.61.5l-1.1 2.69c-.57 1.4-1.1 2.8-1.77 4.16-.16.8-.6 1.45-.98 2.15-.15.28-.25.58-.34.9-.34 1.02-.48 2.09-.76 3.12-.1.35-.2.7-.24 1.05-.12 1.1-.42 2.18-.63 3.26a2.8 2.8 0 0 1-1.38 1.95c-1 .6-1.16.45-1.96-.05a6.02 6.02 0 0 1-1.8-3.35c-.15-.92-.37-1.83-.31-2.77 0-.04 0-.08-.02-.1-.15-.4-.09-.8-.07-1.19.02-.5.02-1 .05-1.51Zm-85.18 110.92-.11 3.02c0 .1.05.14.1.12.05-.01.09-.02.1-.05.19-.3.4-.6.56-.92.38-.73.72-1.49 1.12-2.21.54-.98.9-2.03 1.34-3.06.25-.59.32-1.27.65-1.8.37-.59.52-1.26.88-1.83.1-.15.15-.34.27-.47.53-.62.78-1.37 1.03-2.12.11-.34.17-.7.28-1.03.44-1.36.86-2.73 1.34-4.09.12-.33.23-.67.3-1.02.2-.84.45-1.66.63-2.5.15-.68.38-1.35.58-2.02 0-.03-.02-.07-.05-.1l-.07.01c-.19.08-.21.28-.33.41-.12.12-.31.17-.44.28a.42.42 0 0 0-.13.29c.02.63-.16 1.2-.48 1.74-.12.21-.22.46-.25.7-.05.39-.22.74-.21 1.14 0 .37-.24.75-.38 1.12-.13.36-.3.73-.4 1.1-.08.23-.1.5-.14.74-.02.14-.06.28-.11.41-.1.22-.42.3-.77.2-.16-.04-.24-.2-.2-.44.03-.2.1-.41.15-.62.02-.08.01-.15-.06-.16-.07-.02-.16.03-.2.07-.32.36-.38.84-.56 1.27-.18.43-.4.86-.43 1.31-.03.36.2.74.28 1.12.05.25-.13.17-.27.12-.04-.02-.13.03-.16.08-.13.17-.29.33-.36.52-.17.47-.3.96-.46 1.43-.16.47-.55.84-.66 1.35-.03.1-.12.18-.14.29-.33 1.24-.89 2.41-1.12 3.69-.06.38-.28.73-.44 1.1-.02.03-.1.05-.14.08-.03-.07-.07-.14-.06-.2.02-.18.04-.36.1-.53.33-1.13.7-2.25.96-3.4a29 29 0 0 1 .5-1.98c.23-.79.35-1.61.7-2.37.14-.28.23-.6.28-.92.29-1.63.85-3.2 1.18-4.81.39-1.86.94-3.67 1.42-5.51.11-.46.31-.91.3-1.36-.03-.96.35-1.83.45-2.76.13-1.17.47-2.31.7-3.47.15-.7.22-1.42.4-2.12.2-.76.35-1.54.5-2.3.16-.78.34-1.55.48-2.32.07-.35.06-.71.09-1.07 0-.02-.03-.07-.06-.08-.02-.01-.07.02-.08.05-.1.18-.21.37-.3.56l-1.03 2.37c-.52 1.22-1.11 2.41-1.56 3.66-.42 1.17-.94 2.32-1.25 3.54-.15.58-.4 1.14-.59 1.72-.48 1.65-.97 3.3-1.43 4.95-.25.94-.41 1.9-.66 2.83-.18.67-.22 1.35-.34 2.02-.12.67-.28 1.33-.42 2a.98.98 0 0 0-.01.42c.3 1.05-.04 2.08-.02 3.12-.28.87-.23 1.77-.28 2.67-.04.76-.02 1.54-.19 2.26-.3 1.25-.19 2.51-.32 3.76Zm51.5 10.32c-.3.04-.54.05-.8.09-.66.1-1.33.24-2.01.25-.18 0-.35.07-.52.1l-1.05.27c-.41.1-.83.21-1.18.48-.04.02-.05.13-.03.19.02.05.1.1.16.12.06.02.15.05.2.01.36-.22.75-.18 1.14-.16.3.02.59.02.87-.03a17 17 0 0 0 3.3-.89l.3-.1.01-.11c0-.03 0-.08-.02-.09a7.5 7.5 0 0 0-.36-.13Zm53.82-116.27c.02-.03.09-.16.13-.28.01-.02-.08-.09-.12-.11-.03-.02-.09-.01-.1 0-.05.05-.08.13-.13.17-.03.04-.09.06-.14.08-.01-.06-.05-.13-.04-.2 0-.15.1-.23.22-.32.14-.1.26-.24.36-.38.03-.03 0-.15-.03-.19-.04-.04-.14-.06-.19-.03-.13.06-.25.15-.35.24-.19.17-.5.04-.65.32-.11.22-.31.4-.39.64-.11.38-.3.7-.52 1.02-.02.03.01.15.05.18.05.04.14.02.2.01.1 0 .21-.08.28-.05.13.06.2.17.16.35-.1.31.36.3.36.57.06-.02.15-.01.16-.04.26-.62.74-1.15.74-1.98Zm-4.95 2.79c0-.12.02-.2 0-.25-.02-.08-.09-.07-.16-.01-.27.23-.54.46-.74.77-.14.22-.35.37-.64.2-.11-.07-.21.02-.26.1-.24.4-.54.74-.65 1.22-.17.73-.4 1.44-.88 2.04-.04.05-.04.14-.04.2 0 .03.06.09.06.09.08-.06.2-.1.25-.18.28-.53.64-1.02 1.04-1.48.16-.18.38-.34.5-.55.49-.75.9-1.55 1.52-2.15Zm-29.96 68.57c-.06-.03-.15-.1-.19-.08-.31.16-.63.32-.94.5-.42.23-.83.56-1.27.71-.72.25-1.31.72-2.03.95-.23.08-.43.25-.64.38-.23.15-.3.39-.39.62 0 .03 0 .07.03.1 0 .02.05.04.07.04l.56-.31c.17-.12.33-.33.51-.36.45-.07.8-.33 1.17-.5.6-.26 1.28-.44 1.72-1 .13-.17.35-.25.53-.37l.82-.49c.04-.03.03-.12.05-.19Zm-11.34 42.65c.03 0 .14.02.24 0a5.8 5.8 0 0 1 2.12-.1c.41.04.76-.15 1.14-.21.09-.02.12-.1.08-.18-.03-.05-.06-.15-.11-.16a.54.54 0 0 0-.31-.01c-.42.16-.82.24-1.21-.07-.07-.05-.23-.05-.3 0-.6.35-1.3.37-1.95.55-.03.02-.06.08-.09.12l.1.05.3.01Zm24.48-54.77c.05-.31-.04-.47-.42-.55-.13-.03-.15-.11-.22-.18-.2-.17-.2-.17-.39.05-.06.08-.1.18-.23.09-.27-.18-.54-.12-.8.02-.04.02-.09.01-.1.03a.32.32 0 0 0-.08.14c0 .02.05.05.08.07.17.04.3.2.5.12.18-.08.33.03.5.09.17.06.34.09.51.13l.52.14c.02 0 .06-.03.08-.06l.05-.09Zm-3.16 10.33c-.03-.01-.05-.05-.08-.05-.1 0-.24-.02-.32.04-.57.48-1.23.8-1.87 1.19-.09.05-.14.15-.21.23-.01.01 0 .06.01.08l.08.05h.11c.88-.3 1.6-.88 2.29-1.46v-.08Zm-10.13-2.55c-.03-.02-.06-.06-.09-.05-.09.03-.2.05-.26.11-.1.09-.03.18.02.28.06.11.18.17.17.35 0 .2.15.28.3.23.17-.06.33-.15.4-.32.1-.24.3-.24.51-.3.17-.05.06-.15.01-.22a.46.46 0 0 0-.47-.17c-.2.03-.36.24-.6.1Zm-66.39 45.7c.05-.03.11-.04.13-.09.43-.78.88-1.55 1.13-2.41.03-.1.07-.2.07-.31 0-.07-.04-.13-.06-.2-.02.03-.06.05-.07.08l-1.24 2.72a.18.18 0 0 0 0 .1c0 .04.02.07.04.1Zm73.96 2.15c.85.06 1.4-.13 1.97-.35.03-.01.05-.04.08-.07-.04-.04-.08-.1-.13-.13-.15-.1-.28-.18-.49-.1l-1.5.49c-.03 0-.06.04-.09.06.06.04.1.08.16.1.16 0 .06.02 0 0Zm4.47-6.14c-.01-.02-.02-.07-.04-.08l-.78-.32c-.06-.02-.17-.02-.2.02-.15.19-.34.37-.33.64 0 .1.1.2.22.18.38-.04.75-.16 1.09-.34.02-.01.02-.07.04-.1Zm-27.54-30.41c-.51-.03-.87.07-1.2.35-.1.08-.12.32-.02.38.08.05.2.1.28.06.36-.15.67-.38 1.05-.5.04 0 .05-.11.06-.18 0-.02-.05-.05-.07-.07l-.1-.04Zm47.5-78.43c0-.1.02-.14.01-.18a2.52 2.52 0 0 0-.05-.2l-.14.11c-.38.51-.6 1.12-.92 1.67-.02.04.04.13.07.19 0 0 .08-.02.1-.04.27-.37.55-.73.8-1.11.1-.14.1-.34.13-.44Zm-76.47 114.85-.41.14c-.05.03-.08.09-.13.13l.09.06c.4.16.79.3 1.18.47.17.07.34.1.49-.04.09-.09 0-.2-.27-.32l-.66-.34-.29-.1Zm44.92-45.5c-.05-.04-.1-.1-.15-.12-.16-.04-.31.13-.5 0-.19-.12-.3 0-.39.18-.04.1-.12.18-.16.27a.24.24 0 0 0 0 .19c.03.05.12.08.18.07.37-.1.7-.26 1-.5.03 0 .02-.06.02-.1Zm17.98-36.83v.1l.06.2c.06-.02.13-.04.18-.08.28-.23.37-.59.54-.89.11-.17-.07-.31-.13-.47-.03-.09-.08-.08-.23.2-.16.3-.43.57-.42.95Zm-7.8 39.4c.03.03.08.07.1.07.46-.19.89-.44 1.27-.77.07-.07.07-.13 0-.17-.03-.02-.08-.03-.1-.02-.45.22-.89.46-1.25.81l-.01.09Zm-16.63 6.47c.35.07.57-.2.84-.33.02-.01.03-.1.02-.1-.05-.05-.13-.12-.16-.1-.26.09-.56.1-.75.35-.01.03-.04.07-.03.1 0 .02.05.04.08.08Zm-18.03 40.15.46-.03c.03 0 .06-.04.09-.05l-.07-.08-.91-.26c-.06-.01-.13.04-.19.09a.32.32 0 0 0-.11.17c0 .04.07.12.12.12.14.02.28.02.61.04Zm26.08-45.87c-.04-.05-.1-.13-.13-.12a2.8 2.8 0 0 0-.5.15c-.15.07-.22.25-.13.32.08.05.19.11.28.1.22-.02.37-.16.49-.35v-.1Zm16.98 32.27c-.04.01-.08.02-.1.04 0 .01 0 .06.02.09.18.23.4.39.7.44.05.01.14-.04.17-.09.03-.05.02-.16-.02-.19-.23-.16-.47-.31-.77-.3Zm-48.23-5.86c-.04-.06-.06-.13-.1-.18 0-.02-.07 0-.1.02-.22.12-.38.29-.41.54 0 .04.07.13.11.13.3.02.49-.17.5-.51Zm21.73-20.96c.27.02.53-.18.81-.06.04.01.12-.07.17-.11.03-.02.04-.07.04-.1a.1.1 0 0 0-.04-.07c-.4-.14-.76.04-1.1.23 0 0 .01.05.03.06l.09.05Zm6.7.55c.24-.25.63-.14.9-.37a.31.31 0 0 0 .08-.08c.02-.02.04-.06.03-.08-.01-.03-.05-.07-.08-.07-.35.11-.75.13-1.03.41-.02.02-.04.06-.03.08l.13.1ZM582 538.8l-.06-.1c-.03 0-.07.02-.08.04l-.4.6c-.05.1-.1.19 0 .29.06.07.24-.03.3-.18l.25-.65Zm-16.73 37.52h.07c.15-.15.3-.28.44-.44.03-.04.01-.13 0-.19 0-.09-.2-.09-.25 0l-.3.54c-.01.02.02.06.04.09Zm-2.23 71.9c.27.05.48-.09.7-.18.09-.03.1-.1.04-.14l-.09-.06c-.24-.04-.48-.03-.69.14l-.13.16.17.08Zm-8.53-39.6-.01-.08c-.02-.02-.06-.05-.08-.04-.26.1-.5.22-.76.34-.02 0-.06.06-.05.08 0 .03.05.08.07.08.31-.05.6-.15.83-.38Zm-61.06-3.99c-.02-.08-.04-.19-.08-.28-.04-.1-.11-.2-.22-.13-.09.05-.2.18-.2.22.05.12.15.22.25.3.03.04.13.01.19 0l.06-.11Zm42.98 49.54c.16 0 .35.04.49-.1.02 0 .02-.06.01-.1 0-.02-.02-.06-.05-.07-.14-.06-.59.08-.65.2-.01 0-.01-.01 0 0 .06.01.13.06.2.07Zm-27.36.94c.1 0 .2 0 .31-.02.03 0 .09 0 .1-.02 0-.05 0-.12-.02-.15a.3.3 0 0 0-.36-.13c-.09.03-.2.1-.23.18-.03.13.1.12.2.14Zm-43.7 5.82.36-.01c.06 0 .13-.03.2-.05-.06-.03-.11-.07-.16-.07l-.62-.03c-.03 0-.07.03-.1.05l.06.05.26.06Zm-2.02-.34c.1 0 .22.02.32.01.04 0 .07-.02.1-.03-.01-.02-.02-.05-.04-.05l-.74-.04c-.02 0-.04.04-.06.06.04 0 .07.03.1.03l.32.02Zm92.35-48.96c-.04-.03-.07-.06-.1-.06-.18 0-.3.11-.4.25 0 0 .04.05.08.07.09.05.18.04.26-.04l.16-.22Zm-.29.8-.08-.05c-.13-.01-.27-.04-.37.08-.02.03-.03.08-.02.1.02.04.08.13.1.12.12-.04.24-.1.35-.17.02 0 .02-.05.02-.07Zm-3.63.8-.06-.08-.39.16c-.03.01-.04.05-.07.08.05.03.1.1.15.1.23 0 .4-.12.37-.26Zm2.92.92-.08-.05c-.17-.02-.25.1-.35.2l-.06.09c.07.02.14.08.17.07.13-.06.24-.15.34-.24l-.02-.07Zm-69.66 38.33-.05-.08c-.02-.01-.05-.03-.07-.02a.57.57 0 0 0-.27.4l.04.09c.01 0 .05.02.07 0a.48.48 0 0 0 .28-.39Zm104.12-111.07-.22.46s.04.05.07.06c.03 0 .07 0 .1-.02.12-.09.16-.21.14-.35 0-.04-.05-.09-.09-.15Z"/>
  </g>
  <path fill="#131313" d="M537.33 655.32c-.24-.01-.3 0-.38-.02-.05-.02-.1-.07-.15-.1.02-.03.05-.07.09-.07 1.16-.02 2.2-.57 3.32-.79.15-.03.26-.22.4-.26.12-.02.28.13.41.1.67-.1 1.35-.17 2-.36.67-.19 1.35-.17 2.02-.28.02 0 .06.03.09.06 0 0-.01.06-.03.07-.23.09-.45.2-.7.27-.51.13-1.04.23-1.56.36-.35.1-.68.21-1.02.33-.31.1-.61.2-.95.19-.25-.02-.49.04-.74.1-.97.23-1.97.28-2.8.4ZM557.92 637.18c.5.07.98 0 1.4.26.12.06.28.03.43.04.68 0 1.35.08 2 .3.62.22 1.25.3 1.88.35.15.01.3.03.42.08.09.04.13.16.2.24-.06.03-.12.1-.18.09-.35-.02-.7.05-1.04-.15a.87.87 0 0 0-.83-.06c-.23.1-.43.08-.59-.1-.19-.24-.42-.24-.68-.16-.6.16-1.2.04-1.81.03-.09 0-.13-.07-.1-.15.16-.36-.1-.45-.35-.49-.42-.05-.86-.05-1.29-.09a.67.67 0 0 1-.2-.06c-.02 0-.04-.04-.06-.06.03-.02.06-.05.1-.06l.7-.01ZM568.37 635.28c.64.21 1.27.41 1.94.5.42.04.63.5 1.04.52.4.01.76.16 1.1.35.2.1.37.24.53.37.04.03.04.13.04.19 0 .1-.15.2-.24.15l-.97-.46c-.13-.07-.27-.19-.4-.1-.46.27-.82-.08-1.22-.17-.17-.04-.32-.16-.47-.25-.15-.09.22-.33-.11-.37l-.54-.06-.86-.04c-.05 0-.23.03-.15-.14.02-.05.12-.05.19-.07.08-.03.22.02.21-.13 0-.1-.06-.19-.09-.29ZM570.48 575.9c-.02-.02-.05-.07-.04-.08.04-.1.07-.21.14-.27.98-.85 1.7-1.94 2.6-2.86a.85.85 0 0 0 .19-.26c.22-.5.64-.85 1.03-1.22.19-.18.3-.2.33-.07.04.15.04.3-.07.4-.8.73-1.28 1.73-2.13 2.4-.5.75-1.22 1.3-1.87 1.9-.04.04-.12.04-.18.07ZM567.32 577.38c.12-.01.18-.07.2-.19.7-.4 1.22-1 1.76-1.57.1-.1.16-.24.26-.34.36-.38.84-.58.88-.38.09.39-.22.6-.45.8-.5.42-.93.87-1.34 1.39-.2.27-.47.54-.8.7-.3.12-.48-.02-.5-.41Z"/>
  <path fill="#131313" d="M563.22 634.18a8.7 8.7 0 0 1 3.05.46c.6.2 1.21.43 1.87.45.07 0 .16.12.23.2 0 0-1.48-.08-2.22-.1-.11-.01-.23-.02-.32-.07a1.78 1.78 0 0 0-1.08-.28c-.33.03-.68-.14-1.03-.2-.29-.05-.45-.18-.5-.46ZM496.67 635.07c.4-.33.55-.78.72-1.24.02-.05.08-.1.13-.13.02.06.06.13.06.2.01.62-.23 1.18-.47 1.74-.16.34-.23.76-.55 1.02a.37.37 0 0 1-.28.06c-.13-.03-.1-.17-.1-.27v-.1c.05-.04.1-.06.14-.12.26-.35.26-.76.35-1.16ZM569.97 637.3c-.65 0-1.24-.34-1.89-.3-.35.02-.7-.04-1.06-.07-.04 0-.06-.08-.1-.12.04-.02.07-.05.1-.05.95.05 1.92-.08 2.84.3.19.08.42.06.62.1.04 0 .06.03.1.05-.03.02-.06.05-.09.05-.17.02-.35.03-.52.03ZM535.46 657.85c-.06-.03-.12-.02 0 0 .05.02.1.08.13.11-.03.02-.05.06-.09.06-.41.06-.8.25-1.24.23-.38-.03-.77.07-1.16.1-.03 0-.07-.06-.11-.1.03-.02.05-.06.08-.06.73-.14 1.43-.46 2.4-.34ZM550.47 654.58l-.06.09c-.36.16-.72.3-1.12.31a.64.64 0 0 1-.3-.07c-.05-.03-.06-.12-.08-.18 0-.03.02-.08.03-.08.5-.05.95-.3 1.46-.2.03 0 .06.02.08.04v.1ZM578.42 647.65l-.05 1.3-.74.08c-.02 0-.06-.03-.07-.06-.01-.02-.02-.07 0-.09.24-.3.43-.63.53-1.01a.3.3 0 0 1 .33-.22ZM539.46 653.67c-.2-.01-.28 0-.34-.02-.05-.02-.12-.09-.13-.14 0-.06.02-.17.06-.18.33-.12.65-.26 1.01-.23.06 0 .13.06.16.12.02.05 0 .14-.03.2-.06.08-.14.17-.23.19-.2.05-.42.05-.5.06ZM567.49 601.98c-.04-.42.18-.66.47-.82.03-.01.09-.03.1-.02.04.05.1.11.1.17 0 .26-.16.5-.13.78.01.1-.18.2-.33.2-.2 0-.2-.17-.21-.3 0-.03 0-.04 0 0ZM537.17 659.45c-.04-.04-.08-.05-.1-.08-.05-.04-.03-.1.06-.13a4.53 4.53 0 0 1 2.02-.12c.03 0 .06.04.08.06l-.06.06c-.03.01-.07.04-.1.04a5 5 0 0 0-1.38.15c-.17.05-.36.01-.52.02ZM561.54 634.08c-.25 0-.53.02-.75-.22a.21.21 0 0 1-.05-.09l.02-.07c.42-.05.84-.14 1.22.14.05.04.07.12.1.2l-.09.03a5.1 5.1 0 0 1-.46 0ZM539.38 655.85l.22.1-.08.06c-.52.13-1.01.37-1.56.39-.04 0-.13-.09-.13-.1.02-.07.07-.16.12-.17.48-.14.96-.26 1.42-.28ZM550.56 658.6c-.02.03-.04.07-.06.07l-1.54.3a.2.2 0 0 1-.04-.08c0-.04 0-.1.02-.1.5-.2 1-.36 1.54-.25.03 0 .06.04.08.06ZM574.94 637.15c.04 0 .08-.02.1 0 .43.23.86.47 1.28.72.02.01.03.05.04.07-.06.02-.13.07-.19.06a3 3 0 0 1-1.26-.7c-.02-.02-.05-.07-.04-.1 0-.02.05-.03.07-.05ZM525.18 635.2l-.06-.06a.12.12 0 0 1-.03-.1c.13-.44.45-.77.73-1.12h.08c.02.06.07.15.05.18l-.68 1.04c-.01.03-.06.03-.09.05ZM548.87 636.1c-.06-.03-.16-.04-.18-.08-.05-.1-.03-.21.08-.27.15-.08.3-.16.48-.22.04-.01.12.04.17.07l-.01.1c-.12.2-.2.47-.54.4ZM541.31 658.75c-.38.28-.85.26-1.28.34l-.1-.03c-.06-.04-.04-.09.05-.12.23-.1.44-.24.7-.2.22.04.42.01.63.01ZM555.68 636a7.96 7.96 0 0 1-.39-.06c-.03 0-.06-.04-.08-.06.03-.01.06-.05.1-.05l.94.04c.03 0 .05.04.08.06-.03.02-.06.05-.1.05l-.55.02ZM568.7 601.68c-.03-.2.1-.26.23-.3.1-.04.22-.03.25.1.04.15-.14.42-.27.38-.09-.02-.15-.12-.22-.18ZM569.75 656.1c0 .03.01.08-.01.1-.17.19-.4.27-.65.28-.02 0-.06-.03-.07-.06-.01-.02.02-.07.03-.1.15-.23.42-.23.65-.31l.05.08ZM508.59 657.07c-.1 0-.24-.03-.37-.06-.03 0-.06-.04-.09-.06.04-.04.07-.12.11-.12.21 0 .42 0 .63.02.06 0 .11.08.17.12-.07.03-.12.07-.2.09-.06.02-.13 0-.25.01ZM574.07 637.58c-.03.03-.05.06-.08.07-.17.06-.33.03-.45-.1-.02-.04 0-.15.04-.19.08-.07.19-.06.27.01l.22.2ZM550.73 602.6c-.03-.02-.08-.06-.07-.07a.52.52 0 0 1 .4-.3c.02 0 .06.02.08.05.02.02.04.06.03.08a.47.47 0 0 1-.44.24Z"/>
  <path fill="#131313" d="M563.22 634.18c-.16 0-.28.2-.45.05-.05-.04-.07-.1-.1-.16.04-.03.09-.08.14-.09.17-.01.35-.01.41.2ZM561.93 597.73l.05.08a.1.1 0 0 1 0 .08c-.1.15-.24.25-.42.23-.03-.01-.08-.05-.08-.07 0-.14.27-.33.45-.32ZM577.91 639.2c-.22-.01-.37-.15-.5-.33 0-.01 0-.05.02-.07.02-.01.06-.03.09-.02.2.06.38.15.45.37l-.06.05ZM577.97 639.15c.23.01.39.13.52.31a.5.5 0 0 1 .03.09c-.06.02-.13.08-.18.06a.54.54 0 0 1-.43-.4l.06-.06ZM555.85 652.47c.08.01.2.03.3.07.02 0 .04.04.07.07-.03.01-.06.05-.1.05-.14.02-.28.04-.42.03-.06 0-.11-.08-.16-.11l.18-.1.13-.01ZM572.9 655.58c-.06-.02-.1-.03-.11-.05-.02-.02-.02-.07 0-.08.06-.07.13-.15.22-.2.05-.02.13.03.2.04-.03.05-.03.12-.07.15-.08.06-.17.1-.25.14ZM514.23 553.27c-.01.39 0 .78-.03 1.17 0 .04-.1.07-.14.1 0 0-.06-.06-.06-.08-.04-1.16-.33-2.3-.17-3.48.01-.13-.09-.27-.09-.41 0-.1.07-.2.13-.28.03-.06.1-.1.17-.11.03 0 .1.08.11.13.08.73.14 1.47.1 2.2-.02.26 0 .5-.02.76.02 0-.01 0 0 0ZM515.94 530.03v.13c.13.41.06.75-.35.98-.11.07-.2.27-.29.26-.2-.02-.39-.12-.58-.2-.06-.03-.05-.1.02-.16.08-.07.17-.14.26-.17.28-.08.4-.27.47-.53.08-.27.18-.53.28-.79.03-.04.09-.08.13-.11.03.06.07.13.07.19l-.01.4ZM513.64 543.17c-.05-.5.22-.96.31-1.44.01-.04.13-.07.18-.06.06 0 .12.06.14.12.03.06.03.14.01.21-.02.1-.05.21-.1.3-.29.43-.51.85-.28 1.38.05.13.05-.02-.08.04-.03.01-.09 0-.1-.03-.14-.15-.08-.34-.08-.52ZM513.5 546.23c-.05-.27.18-.54.23-.85.02-.15-.07-.42.13-.4.15.02.06.32.05.49 0 .1 0 .24-.05.3-.23.27-.11.53-.03.8.03.1-.12.23-.2.17-.05-.03-.11-.08-.13-.13-.02-.1 0-.2 0-.38ZM514.27 538.3l-.06.5c0 .09-.08.14-.13.1-.08-.06-.2-.2-.19-.21.21-.27.1-.62.27-.9.07-.12-.04.02.1-.01.03-.01.12.07.12.1l-.11.42ZM513.78 548.75l-.07.5c0 .03-.04.05-.06.08-.02-.03-.06-.07-.06-.1l.06-.95c0-.02.04-.05.06-.08.02.03.04.06.04.1l.03.46ZM515.06 530.07l-.13.2-.1-.17-.07-.18c-.04-.07-.01-.13.07-.14.05 0 .13.04.16.08.04.05.05.12.07.21ZM516.73 525.13c.13.08.23.2.24.34 0 .06-.05.12-.08.18-.03-.01-.07-.02-.09-.06a4.73 4.73 0 0 1-.2-.36c0-.01.02-.06.05-.07.02-.02.06-.02.08-.02ZM486.43 634.08c-.02-.02-.06-.04-.06-.06-.04-.41.15-.74.36-1.06.01-.02.08-.02.1 0 .06.03.14.08.14.13 0 .37-.16.69-.44.94l-.1.05ZM483.83 642.38l-.05-.1c-.03-.28.04-.55.22-.78.05-.07.07-.2.17-.15.06.03.07.2.04.3-.06.22-.15.44-.25.67 0 .03-.08.04-.13.06ZM487.13 635.07c.04.31-.17.5-.33.72 0 0-.05 0-.07-.02a.27.27 0 0 1-.03-.1c-.05-.26.18-.43.25-.66.03-.09.1-.09.14-.03l.05.09ZM484.48 640.59l-.05.24-.06.08c-.02-.03-.05-.06-.05-.1l.01-.4c.01-.05.06-.1.1-.15l.05.18v.15ZM552.23 648.6l-.18-.07c.02-.03.03-.06.07-.07.15-.08.3-.19.48-.22.67-.11 1.27-.42 1.93-.57.63-.14 1.18-.48 1.81-.6.24-.06.46-.2.7-.3.09-.04.2-.09.3-.08.09 0 .18.07.27.12-.03.05-.05.15-.1.17-.3.15-.58.3-.88.41a18.14 18.14 0 0 1-4.4 1.21ZM551.03 649.87l-.15-.11c.05-.04.1-.1.16-.1.22-.01.44 0 .26-.33.16-.2.37-.32.64-.26.04.01.12.1.1.12-.16.53-.45.72-1 .68ZM544.82 643.51l-.13-.1c.02-.02.04-.06.07-.07.3-.14.6-.25.93-.17.03 0 .06.03.1.05-.02.02-.03.06-.05.07-.29.15-.57.3-.92.22ZM546.88 643.41l-.23-.1c.05-.04.09-.1.15-.12.12-.06.26-.12.4-.15.04-.01.12.04.17.08.07.05-.01.23-.1.24l-.39.05ZM538.1 643.66c.1.01.19.02.28.05.05.02.1.1.1.15 0 .06-.04.16-.08.17-.16.03-.33.05-.5.05-.05 0-.1-.06-.15-.09l.34-.33Z"/>
</svg>
