<svg width="39" height="64" viewBox="0 0 39 64" fill="none" xmlns="http://www.w3.org/2000/svg">
<mask id="mask0_19255_673" style="mask-type:luminance" maskUnits="userSpaceOnUse" x="0" y="0" width="39" height="64">
<path d="M0.320801 0H38.6791V64H0.320801V0Z" fill="white"/>
</mask>
<g mask="url(#mask0_19255_673)">
<path d="M30.4826 -0.0107422H8.51846C4.00055 -0.0107422 0.325195 3.21293 0.325195 7.17493V56.7471C0.325195 60.7091 4.00055 63.9328 8.51846 63.9328H30.4826C35.0005 63.9328 38.6759 60.7091 38.6759 56.7471V7.17493C38.6759 3.21184 35.0005 -0.0107422 30.4826 -0.0107422ZM36.2839 56.7471C36.2839 59.3888 33.6802 61.5376 30.4826 61.5376H8.51846C5.31977 61.5376 2.71716 59.3888 2.71716 56.7471V7.17493C2.71716 4.53323 5.32085 2.38448 8.51846 2.38448H30.4826C33.6813 2.38448 36.2839 4.53323 36.2839 7.17493V56.7471Z" fill="black"/>
</g>
<path d="M29.6573 21.8254C29.6595 21.6843 29.6421 21.5442 29.5965 21.4128C29.5965 21.4096 29.5944 21.4074 29.5933 21.4042C29.5423 21.2652 29.4641 21.137 29.3653 21.023C29.3588 21.0165 29.3577 21.0089 29.3522 21.0024C29.3501 20.9992 29.3468 20.9992 29.3436 20.997C29.3381 20.9905 29.3349 20.985 29.3305 20.9796C29.2339 20.8786 29.1177 20.8015 28.995 20.7407C28.9787 20.7331 28.9657 20.7234 28.9483 20.7158C28.8246 20.6604 28.691 20.63 28.5542 20.6202C28.5325 20.6191 28.5119 20.618 28.4912 20.617C28.463 20.617 28.4348 20.6104 28.4065 20.6137L23.5075 20.8667C22.8474 20.9004 22.3403 21.4639 22.374 22.124C22.4087 22.7842 22.9429 23.2912 23.6302 23.2587L25.1915 23.1772L20.9125 27.0828C20.4239 27.5279 20.3892 28.2847 20.8343 28.7744C21.0699 29.0328 21.3935 29.1653 21.7181 29.1653C22.0059 29.1653 22.2947 29.0621 22.5238 28.8526L26.9918 24.7766L26.8213 26.6061C26.7605 27.2641 27.2437 27.8482 27.9016 27.909C27.9386 27.9112 27.9766 27.9134 28.0135 27.9134C28.6248 27.9134 29.1459 27.4476 29.2024 26.8265L29.6573 21.9199C29.6584 21.908 29.6563 21.8971 29.6563 21.8851C29.6595 21.8656 29.6573 21.8461 29.6573 21.8254Z" fill="black"/>
<path d="M16.8331 30.8036L11.984 35.2271L12.1404 33.3975C12.1968 32.7396 11.7082 32.1587 11.0502 32.1022C10.3879 32.0479 9.81355 32.5344 9.75709 33.1934L9.34015 38.0707C9.33906 38.0816 9.34123 38.0914 9.34123 38.1011C9.33906 38.1174 9.34123 38.1348 9.34123 38.1511C9.33906 38.2933 9.35643 38.4334 9.40204 38.5658C9.40421 38.5724 9.40855 38.5789 9.41181 38.5854C9.46284 38.7276 9.53993 38.8601 9.64308 38.9752C9.64525 38.9763 9.64634 38.9774 9.64742 38.9784C9.64851 38.9784 9.64851 38.9784 9.64851 38.9784C9.65719 38.9882 9.66697 38.9958 9.67674 39.0045C9.7256 39.0544 9.77663 39.1033 9.83309 39.1435C9.86458 39.1663 9.89824 39.1815 9.9319 39.201C9.96881 39.2227 10.0057 39.2477 10.0459 39.2651C10.085 39.2835 10.1273 39.2933 10.1675 39.3074C10.2044 39.3194 10.2392 39.3335 10.2783 39.3411C10.3206 39.3498 10.3619 39.353 10.4042 39.3574C10.44 39.3617 10.4748 39.3693 10.5106 39.3704L15.8016 39.4638C15.8081 39.4638 15.8157 39.4638 15.8233 39.4638C16.4726 39.4638 17.0057 38.9415 17.0177 38.2868C17.0296 37.6256 16.503 37.0794 15.8429 37.0686L13.5616 37.0284L18.4455 32.5713C18.9341 32.1261 18.9688 31.3693 18.5236 30.8796C18.0774 30.3921 17.3217 30.3574 16.8331 30.8036Z" fill="black"/>
</svg>
