<svg width="74" height="64" viewBox="0 0 74 64" fill="none" xmlns="http://www.w3.org/2000/svg">
<mask id="mask0_19251_678" style="mask-type:luminance" maskUnits="userSpaceOnUse" x="0" y="0" width="74" height="64">
<path d="M0.865234 0H73.1349V64H0.865234V0Z" fill="white"/>
</mask>
<g mask="url(#mask0_19251_678)">
<path d="M62.2563 64.0112C57.6795 64.0112 53.6421 61.1873 52.0653 56.9401H5.00536C2.72258 56.9401 0.868652 55.0899 0.868652 52.8127V8.5618C0.868652 6.28277 2.72258 4.43258 5.00536 4.43258H14.6814V0.623596C14.6814 0.279026 14.9604 0 15.305 0C15.6496 0 15.9286 0.279026 15.9286 0.623596V4.43258H28.2825V0.623596C28.2825 0.279026 28.5615 0 28.9061 0C29.2507 0 29.5297 0.279026 29.5297 0.623596V4.43258H41.8836V0.623596C41.8836 0.279026 42.1627 0 42.5054 0C42.8499 0 43.129 0.279026 43.129 0.623596V4.43258H55.6402V0.623596C55.6402 0.279026 55.9192 0 56.2638 0C56.6065 0 56.8855 0.279026 56.8855 0.623596V4.43258H66.5634C68.8462 4.43258 70.7001 6.28277 70.7001 8.5618V46.3521C72.2657 48.2772 73.1233 50.691 73.1233 53.1742C73.1233 59.1498 68.2507 64.0112 62.2619 64.0112H62.2563ZM52.6739 53.9981C52.7357 54.7247 52.8799 55.4401 53.1009 56.1273C54.3893 60.0993 58.0672 62.7697 62.2563 62.7697C67.5597 62.7697 71.8724 58.4644 71.8724 53.176C71.8724 50.9101 71.0634 48.7097 69.5971 46.9794C67.7638 44.8184 65.0896 43.5805 62.2563 43.5805C62.0952 43.5805 61.9342 43.5861 61.7713 43.5936C56.8518 43.8408 52.8256 47.9064 52.6458 52.824C52.6421 52.9064 52.6402 52.9831 52.6402 53.0637C52.6364 53.3801 52.6477 53.6891 52.6739 53.9981ZM2.11397 20.5749V52.8127C2.11397 54.4026 3.41172 55.6985 5.00723 55.6985H51.6908C51.5391 55.0599 51.4454 54.4045 51.4117 53.7434C51.4117 53.7434 51.4117 53.7416 51.4117 53.7378C51.4117 53.7378 51.4117 53.7378 51.4117 53.736C51.4117 53.736 51.4117 53.7341 51.4117 53.7303C51.4117 53.7303 51.4117 53.7285 51.4117 53.7247C51.4042 53.5431 51.3986 53.3633 51.3986 53.1816C51.3986 53.1685 51.3986 53.1554 51.3986 53.1442V53.1367C51.3986 53.0974 51.3986 53.0562 51.3986 53.0169C51.3986 52.9419 51.4005 52.8689 51.4042 52.794C51.6046 47.161 56.1327 42.6086 61.7675 42.3577C61.8537 42.3539 61.9379 42.3483 62.0241 42.3483C64.7844 42.2921 67.4192 43.2659 69.451 45.0637V8.5618C69.451 6.97004 68.1552 5.67416 66.5578 5.67416H56.8818V8.7397C56.8818 9.08427 56.6027 9.3633 56.2582 9.3633C55.9136 9.3633 55.6346 9.08427 55.6346 8.7397V5.67416H43.1252V8.7397C43.1252 9.08427 42.8462 9.3633 42.5016 9.3633C42.157 9.3633 41.878 9.08427 41.878 8.7397V5.67416H29.5241V8.7397C29.5241 9.08427 29.2451 9.3633 28.9005 9.3633C28.5559 9.3633 28.2769 9.08427 28.2769 8.7397V5.67416H15.923V8.7397C15.923 9.08427 15.6439 9.3633 15.3012 9.3633C14.9567 9.3633 14.6776 9.08427 14.6776 8.7397V5.67416H4.99974C3.40611 5.67416 2.10648 6.96817 2.10648 8.5618V19.3315H50.7731C51.1158 19.3315 51.3949 19.6086 51.3949 19.9532C51.3949 20.2959 51.1158 20.5749 50.7731 20.5749H2.11397ZM61.4979 57.9363L60.8593 56.9794C60.3424 56.206 59.7263 55.5187 59.026 54.9326C58.6271 54.5993 58.1964 54.2978 57.7451 54.0318C57.4473 53.8577 57.3481 53.4775 57.5222 53.1816C57.6982 52.8839 58.0784 52.7865 58.3761 52.9607C58.8836 53.2603 59.3724 53.6011 59.8237 53.9775C60.3424 54.4101 60.82 54.8933 61.2507 55.4195C62.2488 53.3951 63.9454 50.8277 66.7282 48.618C66.996 48.4064 67.3874 48.4494 67.6009 48.7172C67.8162 48.985 67.7713 49.3764 67.5035 49.5899C64.4529 52.0075 62.7994 54.8858 61.9473 56.8745L61.496 57.9307L61.4979 57.9363ZM47.0166 46.9925H38.5334C38.1889 46.9925 37.9099 46.7135 37.9099 46.3708C37.9099 46.0262 38.1889 45.7491 38.5334 45.7491H47.0166C47.3612 45.7491 47.6402 46.0262 47.6402 46.3708C47.6402 46.7135 47.3612 46.9925 47.0166 46.9925ZM33.4192 46.9925H24.9361C24.5915 46.9925 24.3125 46.7135 24.3125 46.3708C24.3125 46.0262 24.5915 45.7491 24.9361 45.7491H33.4192C33.7619 45.7491 34.0409 46.0262 34.0409 46.3708C34.0409 46.7135 33.7619 46.9925 33.4192 46.9925ZM20.0615 46.9925H11.5784C11.2338 46.9925 10.9548 46.7135 10.9548 46.3708C10.9548 46.0262 11.2338 45.7491 11.5784 45.7491H20.0615C20.4042 45.7491 20.6833 46.0262 20.6833 46.3708C20.6833 46.7135 20.4042 46.9925 20.0615 46.9925ZM59.9904 38.367H51.5072C51.1627 38.367 50.8836 38.088 50.8836 37.7453C50.8836 37.4007 51.1627 37.1236 51.5072 37.1236H59.9904C60.3349 37.1236 60.614 37.4007 60.614 37.7453C60.614 38.088 60.3349 38.367 59.9904 38.367ZM47.0166 38.367H38.5334C38.1889 38.367 37.9099 38.088 37.9099 37.7453C37.9099 37.4007 38.1889 37.1236 38.5334 37.1236H47.0166C47.3612 37.1236 47.6402 37.4007 47.6402 37.7453C47.6402 38.088 47.3612 38.367 47.0166 38.367ZM33.4192 38.367H24.9361C24.5915 38.367 24.3125 38.088 24.3125 37.7453C24.3125 37.4007 24.5915 37.1236 24.9361 37.1236H33.4192C33.7619 37.1236 34.0409 37.4007 34.0409 37.7453C34.0409 38.088 33.7619 38.367 33.4192 38.367ZM20.0615 38.367H11.5784C11.2338 38.367 10.9548 38.088 10.9548 37.7453C10.9548 37.4007 11.2338 37.1236 11.5784 37.1236H20.0615C20.4042 37.1236 20.6833 37.4007 20.6833 37.7453C20.6833 38.088 20.4042 38.367 20.0615 38.367ZM59.7188 29.7416H51.2357C50.893 29.7416 50.614 29.4625 50.614 29.1199C50.614 28.7753 50.893 28.4981 51.2357 28.4981H59.7188C60.0634 28.4981 60.3424 28.7753 60.3424 29.1199C60.3424 29.4625 60.0634 29.7416 59.7188 29.7416ZM46.7451 29.7416H38.2619C37.9173 29.7416 37.6383 29.4625 37.6383 29.1199C37.6383 28.7753 37.9173 28.4981 38.2619 28.4981H46.7451C47.0896 28.4981 47.3687 28.7753 47.3687 29.1199C47.3687 29.4625 47.0896 29.7416 46.7451 29.7416ZM33.1477 29.7416H24.6645C24.32 29.7416 24.0409 29.4625 24.0409 29.1199C24.0409 28.7753 24.32 28.4981 24.6645 28.4981H33.1477C33.4922 28.4981 33.7713 28.7753 33.7713 29.1199C33.7713 29.4625 33.4922 29.7416 33.1477 29.7416ZM19.79 29.7416H11.3069C10.9623 29.7416 10.6833 29.4625 10.6833 29.1199C10.6833 28.7753 10.9623 28.4981 11.3069 28.4981H19.79C20.1346 28.4981 20.4136 28.7753 20.4136 29.1199C20.4136 29.4625 20.1346 29.7416 19.79 29.7416ZM63.7731 20.5693H57.4099C57.0672 20.5693 56.7881 20.2921 56.7881 19.9476C56.7881 19.6049 57.0672 19.3258 57.4099 19.3258H63.7731C64.1177 19.3258 64.3967 19.6049 64.3967 19.9476C64.3967 20.2921 64.1177 20.5693 63.7731 20.5693Z" fill="black"/>
</g>
</svg>
