<svg width="143" height="27" viewBox="0 0 143 27" fill="none" xmlns="http://www.w3.org/2000/svg">
<g clip-path="url(#clip0_19147_1603)">
<path d="M12.9933 0.78958C8.7815 0.886061 5.66904 3.15752 5.81813 7.33852C6.00587 12.4124 10.451 13.8817 12.0744 14.4926C13.985 15.2245 16.2601 16.2592 17.359 18.1578C17.782 18.8778 18.0353 19.6843 18.0995 20.5162C18.1637 21.3482 18.0373 22.1838 17.7297 22.9599C17.4222 23.7359 16.9416 24.4321 16.3243 24.9958C15.7071 25.5595 14.9692 25.976 14.1667 26.2136C15.645 26.0427 17.0469 25.4668 18.2166 24.5498C19.3863 23.6328 20.2781 22.4106 20.7929 21.019C21.2008 19.9252 21.334 18.7486 21.181 17.5918C21.028 16.4349 20.5933 15.3329 19.915 14.3819C19.0664 13.2931 18.1439 12.2635 17.1541 11.3003C15.3816 9.50082 13.9844 8.08102 13.9844 5.65964C13.9844 3.23826 15.7512 1.92331 17.4906 1.42803C15.9224 0.967144 14.3972 0.757425 12.9933 0.78958ZM18.4299 2.51253C17.5805 2.51108 16.7647 2.84373 16.1599 3.43823C15.5551 4.03273 15.2101 4.84104 15.1999 5.68758C15.1999 7.61918 16.2485 8.91818 18.0266 10.4921C23.3275 15.1642 23.7745 20.3973 20.0196 24.4971C21.9869 23.4217 23.5623 21.7535 24.5201 19.7313C25.1915 18.3074 25.4928 16.738 25.3963 15.1677C25.2998 13.5973 24.8086 12.0763 23.9679 10.7447C22.9851 9.06621 24.3275 8.25768 25.5975 9.25925H25.6083C24.9402 6.92592 22.5106 2.7987 18.4299 2.51253Z" fill="#00A1DF"/>
<path d="M16.4974 22.6701C15.7906 24.4751 13.615 26.8249 9.87114 25.6858C7.2505 24.884 4.95464 23.2704 3.31716 21.0793C1.67967 18.8882 0.78587 16.2338 0.765625 13.5018C0.78778 11.6661 1.20321 9.85621 1.9841 8.19343C2.76499 6.53065 3.89332 5.05332 5.29354 3.86035C4.67194 5.26104 4.45527 6.80692 4.66796 8.32374C4.88065 9.84057 5.51423 11.268 6.4973 12.4452C8.04894 14.2613 9.87667 14.9657 11.6492 15.6481C11.6492 15.6481 18.4907 17.5742 16.4974 22.6701Z" fill="black"/>
<path d="M93.4937 7.15686C89.6008 7.15687 86.9947 9.92451 86.9947 13.4575C86.9947 17.3372 89.7554 19.7593 93.4937 19.7593C97.232 19.7593 99.9926 17.1501 99.9926 13.4575C99.9926 9.57781 97.2154 7.15686 93.4937 7.15686ZM34.9233 7.36538V19.5497H37.5462V12.2365L43.3442 19.5497H45.5809V7.36538H42.958V14.7129L37.1601 7.36538H34.9233ZM53.5876 7.36538L48.4961 19.5497H51.3185L52.329 16.9905H57.1984L58.2143 19.5497H61.1963L56.0886 7.36538H53.5876ZM64.4264 7.36538V19.5497H67.2207V15.1633H70.976V12.5493H67.2207V9.97937H71.5002V7.36538H64.4264ZM74.7086 7.36538V9.97937H78.3755V19.5497H81.1688V9.97937H84.841V7.36538H74.7086ZM93.4937 9.76548C93.9739 9.75922 94.4502 9.85181 94.8929 10.0374C95.3355 10.2231 95.735 10.4978 96.0662 10.8443C96.3975 11.1909 96.6533 11.6019 96.8179 12.0515C96.9824 12.5012 97.0521 12.9798 97.0225 13.4575C97.0225 15.4992 95.8184 17.1506 93.4937 17.1506C93.0173 17.1436 92.547 17.042 92.1105 16.8518C91.6739 16.6615 91.2798 16.3864 90.9513 16.0425C90.6227 15.6986 90.3662 15.2929 90.1968 14.849C90.0275 14.4052 89.9486 13.9321 89.9649 13.4575C89.9649 11.2287 91.4672 9.76548 93.4937 9.76548ZM54.7804 10.9317L56.1382 14.3765H53.3773L54.7804 10.9317Z" fill="black"/>
<path d="M109.358 7.15689C105.515 7.15689 103.162 9.95755 103.162 13.4575C103.162 17.2437 105.515 19.7593 109.712 19.7593C111.395 19.7473 113.018 19.1362 114.289 18.0363V12.6052H109.066V15.2138H111.666V16.5509C111.099 16.9367 110.431 17.1489 109.744 17.1614C107.563 17.1614 106.128 15.7136 106.128 13.4683C106.128 10.9589 107.685 9.77625 109.689 9.77625C110.606 9.76395 111.496 10.0871 112.19 10.6845L113.361 8.43916C112.225 7.54507 110.804 7.08973 109.358 7.15689ZM121.853 7.36541L116.774 19.5497H119.584L120.6 16.9905H125.437L126.448 19.5497H129.435L124.355 7.36541H121.853ZM132.633 7.36541V9.97939H138.325L132.284 17.6021V19.5497H142.235V16.9411H136.001L142.064 9.31408V7.36541H132.633ZM123.041 10.9317L124.405 14.3765H121.644L123.041 10.9317Z" fill="#00A0DF"/>
</g>
<defs>
<clipPath id="clip0_19147_1603">
<rect width="143" height="27" fill="white"/>
</clipPath>
</defs>
</svg>
