<svg width="170" height="49" viewBox="0 0 170 49" fill="none" xmlns="http://www.w3.org/2000/svg">
<path d="M0.238556 23.611C0.245468 23.6018 0.337708 23.641 0.38382 23.6686C0.787323 23.9107 0.927979 23.8831 1.08015 23.4611C1.20697 23.1037 1.2923 22.7302 1.37991 22.359C1.50443 21.8355 1.56668 21.2799 1.87566 20.8302C2.1754 20.3967 2.22614 19.9609 2.10623 19.4721C2.07625 19.3499 2.06012 19.2185 2.06473 19.094C2.09009 18.423 2.18694 17.7797 2.57892 17.1986C2.9317 16.6729 3.27295 16.1403 3.53812 15.5546C3.71565 15.1603 3.90242 14.7453 4.29901 14.4824C4.42122 14.3994 4.49962 14.2403 4.58032 14.1043C4.87315 13.6085 5.3297 13.3826 5.86694 13.5048C6.27277 13.597 6.68318 13.5486 7.09131 13.6639C7.47868 13.7723 7.94675 13.8045 8.23958 13.431C8.58775 12.9883 9.0489 12.9537 9.53082 12.9883C10.098 13.0298 10.6606 13.1151 11.2256 13.182C11.47 13.2096 11.5991 13.0598 11.5069 12.8476C11.2371 12.2366 10.9581 11.6279 10.4439 11.169C10.3033 11.0422 10.2064 10.867 10.0681 10.7355C9.86746 10.5442 9.77985 10.3205 9.81903 10.0484C9.85362 9.78557 9.83287 9.52041 9.65302 9.32672C9.32098 8.96472 9.1642 8.51509 8.94054 8.09544C8.79297 7.81644 8.67537 7.5213 8.52089 7.24922C8.33412 6.91719 8.58315 6.63128 8.53473 6.32461C8.4471 5.78045 8.61774 5.25242 8.65462 4.71748C8.69843 4.08801 8.99127 3.51618 9.35558 2.97893C9.71759 2.4463 10.271 2.20189 10.7829 1.92289C11.5576 1.50324 12.3946 1.19196 13.2062 0.836868C13.2938 0.799976 13.3838 0.758472 13.4737 0.740026C14.064 0.61782 14.6312 0.412607 15.2099 0.262731C15.9501 0.0690467 16.7271 -0.00012707 17.4903 0.0828807C18.1152 0.152054 18.7355 0.304235 19.3442 0.467945C19.7385 0.576316 20.1443 0.716968 20.4809 0.940628C21.1173 1.36258 21.7076 1.86063 22.2149 2.43477C23.211 3.56229 23.9188 4.87428 24.493 6.25082C24.9472 7.33223 25.3231 8.44361 25.7565 9.53194C25.9802 10.0899 26.2569 10.6272 26.5013 11.1783C26.7457 11.727 26.974 12.285 27.2276 12.8315C27.3245 13.0436 27.3983 13.2442 27.3245 13.4725C27.2991 13.5486 27.3129 13.5832 27.3867 13.6224C27.7372 13.8115 27.7303 14.1896 27.8363 14.5032C27.8479 14.5332 27.8502 14.5677 27.8456 14.5977C27.8387 14.6277 27.8179 14.6554 27.8041 14.683C27.7603 14.66 27.7164 14.6346 27.6726 14.6092C27.5643 14.5447 27.7441 14.5078 27.6196 14.5285C27.5712 14.5378 27.5089 14.5493 27.5389 14.6254C27.7487 15.1465 27.7533 15.6768 27.6173 16.2095C27.5112 16.6153 27.4628 17.0188 27.4997 17.4361C27.5066 17.5168 27.4513 17.6114 27.4029 17.6851C27.3544 17.7566 27.2392 17.8004 27.2184 17.8765C27.1608 18.0656 27.3475 18.0425 27.4467 18.0956C27.5919 18.1694 27.7188 18.2685 27.7741 18.4253C27.864 18.6812 28.0416 18.4022 28.1615 18.4991C28.671 18.898 29.2429 19.1562 29.877 19.2946C30.0407 19.3315 30.0822 19.4606 30.0822 19.6543C30.0845 20.0048 30.375 20.2192 30.8085 20.3368C31.0483 20.4037 31.2742 20.5259 31.5048 20.6204C31.7077 20.7057 31.9568 20.7426 32.1043 20.8856C32.2726 21.0493 32.3395 21.296 32.4571 21.5127C32.0375 21.4067 31.6155 21.3744 31.2604 21.0677C31.1013 20.9317 30.8546 20.8994 30.6517 20.8095C30.5687 20.7726 30.5249 20.7795 30.5249 20.8763C30.5249 21.0954 30.4718 21.3214 30.5871 21.5266C30.6102 21.5658 30.7024 21.605 30.7439 21.5911C30.9284 21.522 31.0967 21.4851 31.2627 21.6419C31.4264 21.7963 31.6662 21.9324 31.8484 21.8425C32.0605 21.7387 32.2196 21.8655 32.3879 21.8355C32.5263 21.8079 32.4686 21.6349 32.4571 21.5127C32.8053 21.2937 33.1465 21.3329 33.4924 21.4943C33.6123 21.5519 33.6377 21.6972 33.6261 21.8263C33.6123 21.9831 33.4901 22.0269 33.3587 22.0177C33.2687 22.0108 33.1811 21.9601 33.0912 21.9439C33.0405 21.9347 32.9805 21.9485 32.9298 21.9624C32.8675 21.9808 32.916 22.1537 33.0151 22.1768C33.2964 22.2437 33.4371 22.4327 33.5155 22.6887C33.723 22.5065 33.9858 22.5157 34.2026 22.5964C34.5046 22.7094 34.8459 22.7786 35.0811 23.0345C34.8989 23.0484 34.7214 23.1083 34.5461 22.9838C34.3478 22.8432 34.1265 22.8985 33.912 22.9331C34.0804 23.2882 34.4332 23.3251 34.7537 23.4081C34.809 23.4219 34.9105 23.3343 34.9635 23.272C35.0211 23.2029 35.0419 23.1175 35.0811 23.0345C35.4339 22.9792 35.6483 23.2697 35.9365 23.3827C36.0126 23.4127 36.008 23.4611 35.9642 23.5349C35.8697 23.6963 35.9135 23.837 36.0587 23.9476C36.2824 24.1159 36.4991 24.2727 36.7228 24.4388C36.4622 24.5517 36.4738 24.5587 36.144 24.5195C36.121 24.3742 36.0287 24.3096 35.8927 24.3511C35.7751 24.388 35.6875 24.4803 35.6644 24.6071C35.6621 24.6209 35.7498 24.6693 35.7982 24.6716C35.8881 24.6763 35.978 24.6624 36.0703 24.6532C36.0887 24.7708 36.1533 24.9114 36.1118 24.9991C36.0633 25.0959 35.9181 25.1443 35.8143 25.2112C35.6714 25.3034 35.5169 25.3103 35.3601 25.2711C35.2379 25.2389 35.1134 25.1835 35.0788 25.368C35.0534 25.5017 35.0972 25.6193 35.2079 25.7C35.4085 25.8453 35.6137 25.9836 35.8189 26.1243C35.7613 26.4402 35.9112 26.4148 36.1095 26.2972C36.1832 26.2534 36.2271 26.2557 36.2616 26.3318C36.3723 26.5716 36.6375 26.7814 36.4207 27.0927C36.4069 27.1135 36.4115 27.1573 36.423 27.1849C36.4346 27.2126 36.4599 27.2449 36.4853 27.2518C36.506 27.2587 36.5383 27.231 36.5637 27.2149C36.7182 27.1158 36.7136 26.9567 36.7205 26.7999C36.7251 26.6961 36.7781 26.6223 36.8819 26.5993C36.988 26.5739 37.0479 26.6269 37.1078 26.7146C37.1563 26.7837 37.2347 26.8391 37.3038 26.8921C37.4653 27.1965 37.765 27.2587 38.0694 27.2979C38.1086 27.3048 38.1639 27.231 38.2031 27.1872C38.2538 27.1273 38.24 27.0673 38.1708 27.0304C38.0648 26.9751 37.9587 26.8898 37.848 26.8783C37.6658 26.8621 37.4883 26.8829 37.3038 26.8921C37.3638 26.7146 37.5275 26.7169 37.6658 26.6546C37.7027 26.6385 37.7235 26.5808 37.7535 26.5416C37.3776 26.3318 37.4929 25.8545 37.2301 25.5824C37.2093 25.5594 37.1747 25.5524 37.1494 25.534C36.9949 25.4233 37.154 25.391 37.2047 25.3495C37.3085 25.2596 37.3869 25.1651 37.2808 25.0429C37.0986 24.8307 36.9142 24.6417 36.7228 24.4388C36.8473 24.4572 36.9626 24.4572 37.0825 24.4895C37.2347 24.5333 37.3776 24.6278 37.5298 24.6463C37.6981 24.6647 37.8595 24.5863 37.9864 24.8077C38.0463 24.9137 38.2215 24.6371 38.3876 24.7247C38.4936 24.7777 38.6066 24.8745 38.6712 24.6786C38.7196 24.5287 38.7611 24.3742 38.8118 24.2243C38.8649 24.0721 38.9894 24.0514 39.1139 24.1136C39.2776 24.199 39.4851 24.1967 39.6073 24.3788C39.7618 24.6117 39.9509 24.6301 40.1607 24.4341C40.2598 24.3419 40.4005 24.2889 40.5089 24.3696C40.8432 24.6255 41.249 24.697 41.6272 24.8423C41.8647 24.9345 42.0745 25.0844 42.1575 25.3541C42.2128 25.5317 42.3281 25.7 42.335 25.8776C42.3397 26.0459 42.3927 26.0989 42.5333 26.0989C42.923 26.0966 43.2435 26.2303 43.5871 26.4333C43.986 26.6707 44.3595 26.9866 44.8414 27.0743C44.9821 27.0996 45.0812 27.2172 45.2726 27.1457C45.4179 27.0904 45.5147 27.374 45.7176 27.4017C45.8467 27.4178 45.9482 27.5008 46.0058 27.3094C46.0312 27.2241 46.1096 27.2264 46.1327 27.3094C46.2549 27.7153 46.4947 27.8398 46.9189 27.7314C47.1772 27.6668 47.1841 27.7314 47.6591 28.0865C47.8043 28.1972 47.998 28.2686 48.1779 28.2963C48.2747 28.3102 48.3831 28.1672 48.4984 28.1349C48.722 28.0704 48.5676 27.8651 48.6275 27.8006C48.7912 27.6276 48.9711 27.932 49.1509 27.8421C49.2201 27.8075 49.2593 27.706 49.3169 27.6392C49.3723 27.5769 49.6467 27.5954 49.725 27.6853C49.8265 27.8006 49.6766 27.8144 49.6213 27.8605C49.5429 27.932 49.5567 27.9481 49.6536 27.9804C49.898 28.0588 50.0663 27.7729 50.2761 27.8352C50.788 27.985 51.286 28.1741 51.7887 28.3517C51.8118 28.3609 51.8256 28.4024 51.8417 28.43C51.7495 28.4462 51.6227 28.43 51.5697 28.4831C51.4452 28.6076 51.489 28.8566 51.2469 28.9073C51.1846 28.9189 51.2077 28.988 51.3022 29.0019C51.3644 29.0111 51.4428 29.0134 51.489 28.9834C51.7126 28.8382 51.9317 28.7552 52.1876 28.9189C52.2199 28.9396 52.3006 28.8843 52.3582 28.8635C52.3283 28.8105 52.296 28.7598 52.2706 28.7067C52.2453 28.6491 52.2291 28.5868 52.2084 28.5269C52.5335 28.5177 52.8332 28.6168 53.1261 28.7367C53.3843 28.8405 53.6725 28.9189 53.6864 29.2855C53.691 29.357 53.7648 29.3477 53.797 29.2578C53.8316 29.1679 53.8639 29.0711 53.9838 29.1195C54.219 29.2117 54.4772 29.1748 54.7147 29.2993C54.9914 29.4446 55.2981 29.5737 55.6025 29.6083C56.1835 29.6752 56.6769 29.968 57.2188 30.1317C57.3064 30.1594 57.3133 30.217 57.2465 30.2631C57.2211 30.2793 57.1957 30.3046 57.1681 30.3093C57.0413 30.3231 56.926 30.3185 56.7992 30.33C56.67 30.1363 56.4533 30.081 56.2412 30.0349C56.1927 30.0256 56.1305 30.0764 56.0751 30.0994C56.112 30.1432 56.1443 30.194 56.1881 30.2286C56.3749 30.383 56.5824 30.3784 56.7992 30.33C56.9237 30.6321 57.2442 30.5191 57.4609 30.5975C58.1365 30.8396 58.8259 31.0563 59.5269 31.2131C59.8289 31.2823 60.1425 31.25 60.3846 31.5013C60.5345 31.6581 60.8366 31.4483 60.9426 31.7319C60.8204 31.7388 60.7074 31.7481 60.5852 31.7665C60.5276 31.7734 60.4792 31.8195 60.4261 31.8472C60.4561 31.8979 60.4769 31.9602 60.5207 31.9971C60.5898 32.0547 60.6729 32.1147 60.7651 32.034C60.8596 31.951 60.9519 31.8703 60.9426 31.7319C61.1317 31.7481 61.3092 31.7481 61.496 31.7688C61.6528 31.785 61.8073 31.8265 61.9618 31.8265C62.0448 31.8265 62.054 31.755 62.0056 31.6927C61.911 31.5728 61.8926 31.4345 62.0932 31.4714C63.4236 31.7296 64.7472 32.0224 66.1006 32.1815C67.4795 32.3453 68.8537 32.5712 70.2372 32.7188C70.7375 32.7695 71.2379 32.8594 71.7267 32.977C72.3124 33.1177 72.9073 33.1707 73.5022 33.2307C74.6343 33.3413 75.771 33.4359 76.8571 33.8002C77.3321 33.9593 77.8647 33.8509 78.3074 34.1322C78.3259 34.1438 78.365 34.1299 78.3904 34.1184C78.9738 33.8694 79.5779 34.2221 80.1636 34.0607C80.4979 34.1922 80.8461 34.1737 81.1965 34.1737C81.6877 34.176 82.1972 34.0515 82.663 34.3236C82.7622 34.3836 82.8406 34.3282 82.9189 34.2798C83.0319 34.2083 83.1564 34.1668 83.281 34.2175C83.5853 34.3374 83.9035 34.3213 84.2217 34.3328C84.6321 34.349 85.0403 34.3905 85.4484 34.4389C85.5268 34.4481 85.6259 34.5311 85.6582 34.6049C85.7135 34.7271 85.589 34.7548 85.506 34.7663C84.7774 34.8609 84.0465 34.9162 83.334 34.6787C83.0504 34.5842 82.7737 34.5657 82.4901 34.6418C82.2503 34.7041 82.0174 34.4988 81.7638 34.6441C81.6946 34.6833 81.5378 34.5542 81.4156 34.5311C81.2334 34.4965 81.0467 34.485 80.8599 34.4712C80.8507 34.4712 80.8299 34.5219 80.8276 34.5496C80.8276 34.5795 80.8345 34.6303 80.853 34.6395C81.1643 34.7848 81.4801 34.9231 81.7937 35.073C81.8352 35.0937 81.8583 35.1537 81.8906 35.1952C81.8352 35.2229 81.7822 35.2667 81.7246 35.2736C81.4409 35.3082 81.155 35.3474 80.8691 35.3543C80.6178 35.3635 80.3434 35.3889 80.1197 35.3013C79.8269 35.1837 79.5963 35.4742 79.2966 35.3312C79.126 35.2505 78.8677 35.352 78.6487 35.3704C78.8585 35.4557 79.0614 35.5987 79.2758 35.6171C79.5894 35.6425 79.9099 35.5779 80.2281 35.5549C80.4794 35.5364 80.7331 35.5019 80.9867 35.5088C81.2035 35.5157 81.3764 35.7186 81.6162 35.6817C81.6369 35.6794 81.6669 35.744 81.6923 35.7785C81.6646 35.7947 81.6369 35.8201 81.6093 35.8224C81.4502 35.8339 81.2842 35.8731 81.1343 35.8408C80.4034 35.6725 79.6793 35.8408 78.953 35.8569C78.8055 35.8616 78.6648 35.993 78.5126 36.0137C78.3835 36.0299 78.3374 35.7393 78.1391 35.8662C77.8163 35.7278 77.4427 35.8754 77.1315 35.6817C76.781 35.8177 76.4605 35.6517 76.1354 35.571C75.8471 35.4972 75.6535 35.684 75.4252 35.7785C75.4021 35.7901 75.386 35.827 75.3745 35.8569C75.3722 35.8639 75.4114 35.8961 75.4321 35.8961C75.9348 35.9146 76.4167 36.1267 76.9332 36.0391C77.0554 36.0183 77.1822 36.0829 77.2237 36.2305C77.2629 36.385 77.3136 36.5487 77.2052 36.6847C77.1292 36.7793 77.0069 36.8346 76.917 36.9199C76.811 37.0191 76.7718 37.1205 76.9516 37.1943C77.0093 37.2174 77.0807 37.2496 77.1061 37.298C77.2191 37.5079 77.3482 37.4272 77.4842 37.3326C77.6687 37.2081 77.6687 37.2081 77.5534 36.8738C77.4889 36.6916 77.5972 36.5164 77.7494 36.574C78.0884 36.7032 78.4342 36.7308 78.7801 36.657C79.0499 36.5994 79.1536 36.9522 79.3565 36.8899C79.571 36.8254 79.7716 36.7354 79.9998 36.7769C80.0598 36.7862 80.122 36.8161 80.1751 36.8507C80.3319 36.9545 80.4817 37.0813 80.68 36.9384C80.8461 37.192 81.019 37.2542 81.2888 37.049C81.3902 36.9729 81.5977 37.0306 81.7545 37.0398C81.8145 37.0444 81.8744 37.0836 81.9275 37.1159C81.9805 37.1505 82.0704 37.2127 82.0635 37.2381C82.0335 37.3396 81.9321 37.3303 81.8421 37.3396C81.7638 37.3465 81.6784 37.1805 81.6185 37.3419C81.6023 37.388 81.6462 37.4641 81.6784 37.5148C81.826 37.7269 81.8629 37.7385 82.1534 37.6255C82.3287 37.5586 82.5546 37.4087 82.6745 37.584C82.8221 37.7984 82.5408 37.8768 82.4117 37.999C82.354 38.052 82.2503 38.112 82.3333 38.2065C82.3633 38.2411 82.4624 38.248 82.5108 38.225C82.7391 38.1258 82.9904 38.0451 83.1795 37.8906C83.4239 37.6923 83.7582 37.8929 83.9796 37.6554C84.0349 37.5955 84.1618 37.5655 84.2171 37.6831C84.2563 37.7661 84.3001 37.8699 84.2817 37.9506C84.2517 38.1051 84.1756 38.248 84.1249 38.3979C84.028 38.6677 84.0303 38.6792 84.2724 38.6654C84.9711 38.6239 85.672 38.5778 86.3707 38.5316C86.8457 38.4994 87.323 38.4855 87.7957 38.4233C88.0147 38.3956 88.2084 38.504 88.4413 38.4486C88.6626 38.3956 88.9278 38.5847 89.1676 38.4556C89.4581 38.2988 89.7809 38.2941 90.0876 38.2181C90.1222 38.2088 90.1475 38.1558 90.1752 38.1212C90.1475 38.1097 90.1199 38.0866 90.0899 38.0843C89.9631 38.0728 89.834 38.0797 89.7094 38.059C89.5319 38.0313 89.4927 37.8814 89.661 37.7292C89.8201 37.5817 89.744 37.5586 89.608 37.4987C89.4697 37.4364 89.4351 37.3211 89.525 37.192C89.6357 37.0352 89.7602 36.8945 89.9723 36.8692C90.1291 36.853 90.2836 36.8277 90.4358 36.7862C90.468 36.7769 90.4842 36.687 90.4957 36.634C90.5003 36.6155 90.468 36.5717 90.4496 36.5694C90.2951 36.5556 90.136 36.5256 89.9815 36.5395C89.6979 36.5648 89.4143 36.604 89.1307 36.5348C89.0223 36.5095 88.9947 36.408 89.0085 36.3135C89.0154 36.2558 89.0731 36.2074 89.103 36.1521C89.2183 35.9284 89.2183 35.9284 89.3913 36.1198C89.6172 36.3711 89.6357 36.3734 89.9608 36.2374C90.0761 36.189 90.1867 36.1613 90.3043 36.1175C90.3412 36.1613 90.3758 36.2259 90.4196 36.2374C90.6387 36.2927 90.8554 36.2628 91.0514 36.1521C91.1021 36.1244 91.1482 36.0622 91.1598 36.0091C91.1898 35.8823 91.0791 35.8869 90.9984 35.85C90.8508 35.7855 90.7194 35.7393 90.5856 35.8892C90.5049 35.9815 90.4012 36.0391 90.3043 36.1175C90.2698 36.0045 90.1729 35.8846 90.2029 35.7947C90.2375 35.6932 90.3689 35.5964 90.4796 35.5595C90.6594 35.5019 90.8554 35.4995 91.0445 35.4627C91.3857 35.3958 91.7501 35.4834 92.0729 35.3105C91.7085 35.1606 91.3419 35.2989 90.9776 35.3128C90.3735 35.3335 89.7694 35.3866 89.1653 35.4281C89.0615 35.435 88.9785 35.3935 88.937 35.2989C88.8701 35.1491 88.9924 35.0661 89.0777 34.9784C89.1883 34.8632 89.2229 34.9923 89.2829 35.0522C89.4581 35.2321 89.4927 35.2344 89.6334 35.0661C89.6933 34.9946 89.7325 34.8516 89.7925 34.847C90.1591 34.8101 90.4796 34.5058 90.8808 34.6672C91.0053 34.7179 91.1229 34.6418 91.2174 34.5427C91.3281 34.4297 91.4388 34.3029 91.6094 34.2936C91.7339 34.289 91.8584 34.3075 91.9852 34.3167C91.9991 34.7986 92.2942 34.5957 92.4833 34.4919C92.7254 34.3582 92.9214 34.4804 93.122 34.545C93.2926 34.6026 93.4402 34.7225 93.5993 34.8147C93.9428 34.6234 94.0743 35.0499 94.3464 35.0707C94.4086 35.0776 94.3948 35.1491 94.3164 35.1998C94.2657 35.2344 94.1734 35.2736 94.1757 35.3082C94.1757 35.4396 94.2933 35.3935 94.3625 35.3912C94.5539 35.3843 94.7038 35.405 94.8721 35.5549C95.188 35.8339 95.3148 35.7855 95.6191 35.4327C95.6768 35.3681 95.7598 35.2736 95.829 35.2736C96.3455 35.2851 96.7882 34.9323 97.3093 34.9854C97.337 34.9877 97.3646 34.9623 97.3946 34.9485C97.4799 34.9116 97.4407 34.8816 97.413 34.8055C97.2309 34.3029 97.2678 34.2406 97.692 34.1184C97.8511 34.0723 97.9895 34.0584 98.1486 34.1161C98.2362 34.1507 98.3284 34.0976 98.3769 34.0008C98.416 33.927 98.4091 33.8186 98.5475 33.8209C98.695 33.8256 98.8449 33.8025 98.9948 33.7817C99.0824 33.7702 99.2438 33.5212 99.2369 33.4244C99.23 33.3413 99.064 33.286 98.9256 33.339C98.808 33.3852 98.7043 33.4774 98.5844 33.5004C98.4322 33.5327 98.2708 33.5189 98.114 33.5143C98.0425 33.512 98.0402 33.452 98.1255 33.4082C98.4114 33.2653 98.2362 33.2122 98.084 33.1454C98.0564 33.1361 98.0379 33.1062 98.0148 33.0854C98.0725 33.0577 98.1278 33.0255 98.1855 33.007C98.4253 32.9309 98.6259 32.7626 98.898 32.7511C99.3753 32.7303 99.8502 32.675 100.328 32.6335C100.657 32.6035 100.95 32.7119 101.229 32.8802C101.418 32.9932 101.64 33.0693 101.796 33.2191C102.096 33.5051 102.444 33.4981 102.774 33.3898C103.23 33.2399 103.687 33.1546 104.162 33.0923C104.427 33.0577 104.702 32.9148 104.819 32.6266C104.881 32.4744 104.976 32.4582 105.114 32.4859C105.2 32.5043 105.303 32.5412 105.377 32.5136C105.822 32.3476 106.26 32.1677 106.726 32.0616C106.834 32.0363 106.92 31.9025 107.014 31.8195C106.908 31.7019 106.807 31.7873 106.696 31.8172C106.18 31.9579 105.661 32.0985 105.14 32.2184C104.958 32.2599 104.759 32.2392 104.57 32.2438C104.54 32.2438 104.51 32.2207 104.48 32.2092C104.533 32.1746 104.582 32.1377 104.635 32.1078C104.662 32.0916 104.699 32.0962 104.727 32.0801C104.78 32.0524 104.828 32.0155 104.879 31.9809C104.835 31.951 104.794 31.9002 104.748 31.8956C104.621 31.8864 104.494 31.9002 104.367 31.8979C104.34 31.8979 104.312 31.868 104.284 31.8518C104.312 31.8149 104.337 31.7481 104.37 31.7458C105.008 31.6789 105.559 31.3353 106.17 31.1693C106.964 30.9549 107.745 30.6897 108.513 30.3992C109.076 30.187 109.606 29.8965 110.155 29.6475C110.671 29.4146 111.211 29.2209 111.709 28.9488C112.186 28.6883 112.696 28.5131 113.201 28.3401C113.59 28.2064 113.959 28.0427 114.335 27.8813C114.801 27.6807 115.276 27.4662 115.767 27.3763C116.244 27.2887 116.673 27.0996 117.123 26.952C117.602 26.793 118.089 26.6592 118.555 26.4586C119.807 25.9168 121.052 25.3634 122.26 24.7316C123.584 24.0422 124.914 23.3712 126.242 22.6887C126.457 22.578 126.461 22.525 126.297 22.3774C125.516 21.6764 124.732 20.9778 123.955 20.2745C122.903 19.3246 122.212 18.0817 121.289 17.028C121.209 16.9335 121.16 16.809 121.096 16.7006C120.964 16.4815 120.964 16.2533 121.151 16.0896C121.412 15.8659 121.361 15.6699 121.188 15.4347C121.126 15.3517 121.22 15.2295 121.317 15.2549C121.407 15.2756 121.49 15.3263 121.582 15.3471C121.875 15.4163 121.97 15.3725 122.046 15.0681C122.087 14.9021 122.138 14.7776 122.308 14.7107C122.484 14.6438 122.652 14.5585 122.82 14.4732C122.943 14.4133 122.885 14.321 122.848 14.238C122.809 14.1481 122.772 14.0536 122.866 13.9844C122.91 13.9521 122.998 13.9267 123.042 13.9498C123.381 14.1204 123.581 13.959 123.738 13.6777C123.77 13.6224 123.8 13.5647 123.821 13.5048C123.869 13.3641 123.95 13.3157 124.105 13.3526C124.257 13.3895 124.432 13.4425 124.573 13.3987C124.912 13.295 125.193 13.4379 125.488 13.544C125.723 13.6316 125.959 13.7238 126.196 13.8068C126.214 13.8138 126.251 13.7815 126.267 13.7584C126.277 13.7469 126.267 13.7031 126.251 13.6939C125.929 13.5002 125.603 13.3088 125.281 13.1151C125.262 13.1036 125.246 13.0598 125.253 13.0459C125.264 13.0206 125.306 12.986 125.322 12.9906C125.578 13.0713 125.809 12.9952 126.046 12.9099C126.198 12.8546 126.355 12.9122 126.51 12.9606C127.748 13.3618 128.981 13.7699 130.173 14.3003C131.283 14.7914 132.318 15.407 133.305 16.1057C133.976 16.5807 134.637 17.0672 135.313 17.5353C135.723 17.8189 135.876 18.0495 135.876 18.6213C135.873 18.8104 135.952 18.8403 136.083 18.8058C136.572 18.6743 137.056 18.5337 137.543 18.3953C138.059 18.2455 138.601 18.1509 139.088 17.9319C139.56 17.7174 140.077 17.7313 140.556 17.5353C141.045 17.337 141.631 17.4546 142.136 17.224C142.456 17.3554 142.756 17.0741 143.063 17.1663C143.413 17.2701 143.761 17.2401 144.107 17.1963C145.41 17.0326 146.717 17.2125 148.02 17.1202C148.115 17.1133 148.209 17.1318 148.304 17.1433C149.212 17.2701 150.132 17.2793 151.043 17.4038C151.887 17.5214 152.749 17.5191 153.591 17.6529C155.124 17.8996 156.637 18.2616 158.099 18.7873C159.42 19.2623 160.686 19.8549 161.795 20.7449C162.542 21.3421 163.259 21.9739 163.937 22.6449C164.686 23.3827 165.387 24.169 165.98 25.0429C166.819 26.2811 167.647 27.5285 168.373 28.8382C168.837 29.6706 169.256 30.5283 169.708 31.3653C169.81 31.5567 169.814 31.7342 169.729 31.9095C169.457 32.4721 169.558 33.037 169.766 33.5742C169.867 33.8417 169.89 34.0607 169.759 34.2982C169.568 34.6464 169.512 34.9992 169.625 35.3912C169.701 35.6633 169.637 35.91 169.3 35.963C169.18 35.9815 169.123 36.0645 169.12 36.1521C169.109 36.4034 168.996 36.5579 168.765 36.657C168.703 36.6847 168.627 36.8484 168.65 36.883C168.804 37.0998 168.687 37.2335 168.537 37.3695C168.465 37.4318 168.389 37.494 168.329 37.5678C167.947 38.0336 167.469 38.2549 166.849 38.2549C166.436 38.2549 166.024 38.1904 165.615 38.2111C164.767 38.2526 164.066 37.9068 163.404 37.4479C162.489 36.8161 161.599 36.1452 160.679 35.5157C159.948 35.0153 159.222 34.5011 158.415 34.1115C157.469 33.6549 156.554 33.1407 155.608 32.6819C155.184 32.4744 154.732 32.3084 154.276 32.1885C153.665 32.0271 153.037 31.9187 152.415 31.8126C151.76 31.6996 151.103 31.5544 150.446 31.5359C149.745 31.5175 149.06 31.4206 148.371 31.3399C147.552 31.2454 146.731 31.167 145.91 31.1232C145.562 31.1047 145.219 31.0817 144.87 31.0402C144.37 30.9802 143.844 30.9456 143.353 31.0287C142.816 31.1209 142.279 31.1439 141.742 31.2085C141.14 31.28 140.524 31.2892 139.938 31.4276C138.952 31.6581 137.981 31.9602 137.01 32.2507C135.062 32.8341 133.203 33.6526 131.356 34.4873C130.116 35.0499 128.871 35.5964 127.57 36.0068C127.118 36.1498 126.683 36.3711 126.221 36.4611C125.682 36.5625 125.188 36.7631 124.681 36.9499C123.314 37.4525 116.157 40.088 115.589 40.2909C115.442 40.344 115.474 40.6184 115.253 40.5538C115.027 40.4915 114.905 40.5653 114.822 40.789C114.771 40.9158 114.478 40.9642 114.58 41.1372C114.718 41.3677 114.905 41.1256 115.071 41.0957C115.195 41.0703 115.32 41.0449 115.446 41.038C115.49 41.0357 115.539 41.0864 115.585 41.1118C115.566 41.1395 115.553 41.1741 115.527 41.1902C115.283 41.3378 115.05 41.5199 114.787 41.6237C113.849 41.9972 112.896 42.3408 111.944 42.6797C111.338 42.8965 110.704 42.9218 110.097 43.1155C109.405 43.3369 108.665 43.3945 107.955 43.5628C107.243 43.7335 106.53 43.8972 105.795 43.9179C105.732 43.9202 105.668 43.9433 105.615 43.9756C105.331 44.1554 105.004 44.1439 104.69 44.1739C104.379 44.2038 104.065 44.2845 103.749 44.1992C104.001 43.9687 104.321 44.0609 104.612 44.0125C104.736 43.9917 104.888 44.0102 104.985 43.9479C105.352 43.7035 105.79 43.7796 106.18 43.6458C106.592 43.5052 107.007 43.3899 107.45 43.3807C107.54 43.3784 107.69 43.3461 107.708 43.2954C107.787 43.044 107.953 43.0971 108.146 43.0994C108.527 43.1017 108.907 43.0579 109.288 43.0233C109.38 43.0141 109.465 42.9656 109.481 42.8504C109.518 42.5852 109.76 42.5414 109.91 42.6059C110.24 42.7466 110.431 42.6059 110.614 42.3777C110.644 42.3408 110.653 42.2831 110.671 42.237C110.611 42.2163 110.551 42.1771 110.494 42.1794C109.758 42.214 109.073 42.4883 108.363 42.6497C107.501 42.8457 106.655 43.1155 105.792 43.3253C105.177 43.4752 104.549 43.579 103.929 43.7035C103.595 43.971 103.348 43.7888 103.106 43.549C102.954 43.3991 102.797 43.4037 102.587 43.4867C102.271 43.6136 101.937 43.5997 101.644 43.3692C101.57 43.3115 101.497 43.2539 101.416 43.2031C101.395 43.187 101.337 43.1847 101.333 43.1916C101.312 43.2493 101.294 43.3092 101.284 43.3692C101.278 43.3991 101.28 43.436 101.291 43.4637C101.34 43.5744 101.464 43.7265 101.43 43.7865C101.314 43.9779 101.158 43.8142 101.017 43.775C100.826 43.7219 100.63 43.7381 100.457 43.8188C100.009 44.0309 99.5297 44.0148 99.0571 44.0586C98.7527 44.0862 98.5521 44.0447 98.5521 43.685C98.5544 43.6551 98.4622 43.5974 98.416 43.5997C98.3653 43.602 98.2777 43.6551 98.2754 43.692C98.2616 43.9179 98.1855 44.1185 98.0886 44.3214C97.9987 44.5036 97.8419 44.5428 97.6943 44.5128C97.5053 44.4782 97.6598 44.416 97.7082 44.3606C97.7358 44.3284 97.7405 44.2753 97.7566 44.2315C97.5076 44.2038 97.4822 44.0171 97.4568 43.8211C97.4522 43.7773 97.3831 43.7427 97.3462 43.7035C97.3231 43.7265 97.2862 43.7473 97.2816 43.7727C97.2516 43.9917 97.1294 44.1808 97.1248 44.416C97.1179 44.7226 97.0603 44.7595 96.8135 44.7918C96.1541 44.8817 95.4946 44.9463 94.8467 45.1377C94.4616 45.253 94.0212 45.2622 93.6177 45.2207C93.2765 45.1838 92.9514 45.17 92.6216 45.253C92.1005 45.3844 91.5702 45.442 91.0353 45.4812C90.8785 45.4928 90.7125 45.5066 90.5672 45.5642C90.1452 45.7303 89.7025 45.7441 89.2621 45.8017C88.7964 45.864 88.356 46.083 87.8764 46.1199C87.655 46.1361 87.4129 46.1245 87.2169 46.2099C86.7327 46.4174 86.2231 46.4128 85.7205 46.4796C85.4991 46.5073 85.2524 46.4842 85.0679 46.5811C84.7981 46.7217 84.5192 46.7333 84.2378 46.7609C83.5092 46.837 82.7783 46.9085 82.0474 46.9777C81.6669 47.0123 81.2842 47.0077 80.9198 47.1645C80.8092 47.2106 80.6639 47.2336 80.5486 47.206C80.0713 47.0907 79.5917 47.146 79.1213 47.2106C78.1644 47.3374 77.2168 47.1206 76.2645 47.1898C75.7434 47.0192 75.1923 47.1437 74.6574 47.0192C74.2008 46.9108 73.712 46.8947 73.2393 46.9131C72.5061 46.9408 71.7821 46.731 71.0488 46.8416C69.9213 46.701 68.7938 46.558 67.6847 46.2813C64.7933 45.5596 61.9134 44.801 59.0726 43.8903C58.9735 43.858 58.8905 43.8672 58.8167 43.9387C58.148 44.5843 57.3249 45.0224 56.5986 45.5896C55.7915 46.2237 54.9153 46.731 53.9769 47.1322C52.9301 47.5772 51.9547 48.1905 50.8018 48.3865C50.2692 48.4764 49.7527 48.654 49.2039 48.5226C49.0379 48.481 48.895 48.5364 48.7405 48.5848C48.6252 48.6194 48.4776 48.6494 48.3716 48.6079C48.0856 48.5018 47.8043 48.5594 47.5184 48.5687C46.9627 48.5894 46.4439 48.4741 46.0035 48.1098C45.7545 47.9046 45.4824 47.7732 45.155 47.7248C44.3987 47.6164 44.3295 46.8647 43.9583 46.3966C43.9514 46.3874 43.9837 46.3413 43.9975 46.3136C44.0667 46.1845 44.0436 46.0807 43.9329 45.9793C43.8177 45.8755 43.6217 45.7533 43.624 45.6403C43.6286 45.2069 43.2597 44.8956 43.285 44.4667C43.3012 44.2292 43.1398 44.1485 42.953 44.0701C42.8769 44.0378 42.8331 43.9295 42.7754 43.858C43.0498 43.7911 42.8838 43.4891 43.0291 43.3668C43.7416 42.7835 44.454 42.2024 45.1781 41.6352C45.4017 41.46 45.6646 41.3355 45.9021 41.1787C46.1695 41.0057 46.4324 40.8282 46.6907 40.6414C46.9235 40.4731 47.1218 40.2149 47.3778 40.1342C47.749 40.0189 47.5046 39.56 47.8643 39.447C48.0511 39.3871 48.1848 39.1588 48.3416 39.0066C48.1986 38.8129 47.9427 38.9121 47.7698 38.7853C47.6429 38.693 47.4977 38.6262 47.3685 38.5386C47.2648 38.4717 47.2901 38.2918 47.4124 38.2227C47.4654 38.1927 47.5346 38.1904 47.5922 38.165C47.6498 38.1397 47.7006 38.1028 47.7536 38.0728C47.7052 38.0428 47.6568 37.9921 47.606 37.9875C47.4124 37.9736 47.2141 37.9598 47.078 37.8053C46.8267 37.5217 46.4555 37.78 46.1788 37.584C46.0312 37.4802 45.8859 37.6232 45.743 37.6877C45.66 37.7269 45.5562 37.7477 45.4663 37.7338C45.2403 37.7039 45.2103 37.3741 44.9544 37.3764C44.9705 37.3326 44.9821 37.2565 45.0074 37.2496C45.1412 37.215 45.2518 37.1459 45.298 37.0237C45.3856 36.7977 45.0697 36.8461 45.0536 36.6939C45.0443 36.6086 45.0697 36.5118 45.0997 36.4265C45.1296 36.3481 45.1204 36.2881 45.0351 36.2858C44.9152 36.2858 44.7907 36.3066 44.6731 36.3342C44.5901 36.3527 44.5324 36.4956 44.431 36.4126C44.3365 36.3365 44.2604 36.2328 44.1843 36.1382C44.1658 36.1175 44.1635 36.076 44.1658 36.046C44.2119 35.5157 43.9998 35.1929 43.451 35.1145C43.3311 35.0983 43.1882 35.0476 43.1144 34.96C42.9599 34.7801 42.6924 34.7732 42.5633 34.6118C42.3881 34.3951 42.2059 34.2683 41.9315 34.2959C41.6871 34.319 41.611 34.0561 41.392 33.9939C41.1245 33.9201 40.8432 33.7702 40.6564 33.5696C40.4305 33.3298 39.9993 33.5443 39.8633 33.1361C39.8241 33.0139 39.6235 33.1961 39.4621 33.15C39.2983 33.1039 39.3652 33.3229 39.3352 33.4267C39.273 33.6457 39.1093 33.7425 38.9179 33.6411C38.8141 33.5858 38.7196 33.4935 38.6504 33.3967C38.6089 33.3413 38.7611 33.2053 38.6066 33.1707C38.4337 33.1338 38.4245 33.2676 38.4083 33.399C38.3922 33.5212 38.3461 33.6434 38.2953 33.7564C38.2723 33.8025 38.1985 33.8279 38.1431 33.8532C38.1362 33.8578 38.0947 33.814 38.0832 33.7864C38.044 33.6987 38.0371 33.5673 37.9748 33.5304C37.795 33.4313 37.8595 33.6826 37.7489 33.7195C37.6036 33.7656 37.4998 33.7633 37.4583 33.6065C37.6174 33.3667 37.6174 33.2837 37.4699 33.2606C37.0225 33.1961 36.5983 33.0992 36.3723 32.6427C36.3654 32.6289 36.3193 32.6173 36.3008 32.6242C35.9112 32.8179 35.8674 32.3752 35.6437 32.2599C35.6345 32.2553 35.6598 32.1377 35.6967 32.0962C35.7336 32.0547 35.8097 32.0201 35.8604 32.0271C35.9089 32.034 35.9481 32.1031 35.9896 32.1446C36.0403 32.1908 36.0795 32.396 36.151 32.2323C36.2962 31.8979 36.3723 31.5313 36.4715 31.1785C36.4761 31.1601 36.4415 31.1209 36.4184 31.1071C36.4023 31.0955 36.3585 31.0955 36.347 31.1094C36.2847 31.1808 36.2224 31.2523 36.1717 31.3307C36.0357 31.5405 36.0334 31.5428 35.9019 31.393C35.7774 31.2523 35.6598 31.0287 35.4546 31.1047C35.0972 31.2316 34.8067 31.3169 34.6568 30.8419C34.6407 30.7866 34.4885 30.7796 34.4055 30.7381C33.9005 30.4822 33.384 30.2401 32.8952 29.9542C32.6139 29.7905 32.3003 29.7835 32.0098 29.6844C31.8207 29.832 31.6501 29.6567 31.4679 29.6544C31.2858 29.6521 31.2051 29.5299 31.099 29.4054C30.9584 29.244 31.0045 29.0365 30.9192 28.8797C30.797 28.6537 30.4834 28.8797 30.3243 28.6768C30.1375 28.4416 29.9254 28.3955 29.6602 28.5753C29.5449 28.6537 29.4158 28.6145 29.3858 28.4439C29.3628 28.3194 29.3489 28.1926 29.3167 28.0703C29.2936 27.985 29.2359 27.9758 29.1714 28.0242C28.9754 28.1649 28.8094 28.1441 28.7379 27.8974C28.6572 27.6184 28.482 27.4224 28.203 27.4455C27.9147 27.4708 27.8041 27.1434 27.5274 27.1872C27.1746 27.2403 27.0639 26.9382 26.9025 26.7238C26.808 26.5993 26.6858 26.62 26.5612 26.6246C26.4644 26.6292 26.3653 26.6408 26.2753 26.62C26.2246 26.6108 26.1831 26.5439 26.1393 26.5024C25.9963 26.3756 25.8165 26.3941 25.7934 26.5485C25.7519 26.8575 25.7658 27.1711 25.6459 27.4708C25.5629 27.6784 25.4037 27.6276 25.2631 27.6622C25.247 27.5377 25.2654 27.4132 25.2193 27.3025C25.1593 27.1596 25.4568 27.0258 25.2354 26.9267C25.0925 26.8621 24.9403 26.9774 24.8019 27.0604C24.5898 27.1895 24.3546 27.2679 24.2878 27.5469C23.9949 27.5285 23.7413 27.6161 23.4669 27.7153C22.0327 28.2318 20.5778 28.6745 19.0375 28.7482C18.7862 28.7598 18.5325 28.8105 18.2881 28.8728C17.4142 29.0872 16.5219 29.1333 15.6342 29.1056C15.2215 29.0918 14.8087 29.0849 14.3983 29.1149C13.1924 29.2025 11.9934 29.3062 10.7782 29.2417C10.2387 29.2117 9.683 29.2232 9.17572 29.0711C8.62004 28.905 8.0482 28.9189 7.49481 28.7759C6.82153 28.603 6.14363 28.4416 5.46344 28.3102C5.07837 28.2341 4.74864 28.1003 4.45351 27.8282C4.22293 27.6161 3.93701 27.4524 3.65109 27.3141C3.1761 27.0835 2.83946 26.7146 2.5351 26.2995C2.46132 26.1958 2.38753 26.092 2.31836 25.9859C1.93329 25.3933 1.50673 24.8469 0.911835 24.4434C0.729675 24.3189 0.577499 24.1505 0.413788 23.9984C0.365372 23.9545 0.326172 23.9038 0.282364 23.8577C0.213196 23.7862 0.171692 23.7032 0.238556 23.611ZM105.834 31.6074C105.771 31.6005 105.707 31.6143 105.589 31.6235C105.522 31.6397 105.4 31.665 105.28 31.6973C105.253 31.7042 105.234 31.7342 105.211 31.7527C105.239 31.7688 105.264 31.7873 105.294 31.7965C105.483 31.8518 105.67 31.8311 105.85 31.7711C105.908 31.7527 105.954 31.7042 106.002 31.6697C105.947 31.6489 105.891 31.6166 105.834 31.6074ZM123.45 36.717C123.48 36.7239 123.512 36.7147 123.738 36.6962C123.798 36.6916 124.015 36.581 124.222 36.4403C124.278 36.4011 124.28 36.3458 124.213 36.2973C124.146 36.2512 124.026 36.1728 123.999 36.1959C123.816 36.3389 123.733 36.6202 123.42 36.5833C123.376 36.5787 123.325 36.6386 123.279 36.6709C123.335 36.687 123.392 36.7055 123.45 36.717ZM122.763 35.6909C122.772 35.7163 122.813 35.7578 122.827 35.7532C122.908 35.7209 122.986 35.6817 123.065 35.6402C123.367 35.4811 123.66 35.292 124.024 35.3036C124.063 35.3059 124.102 35.2482 124.142 35.2206C124.123 35.1883 124.109 35.1583 124.089 35.1375C124.068 35.1145 124.033 35.0799 124.015 35.0868C123.579 35.2021 123.106 35.2344 122.777 35.601C122.758 35.6194 122.753 35.6656 122.763 35.6909ZM120.554 27.9574C120.316 27.9551 120.164 28.1464 119.973 28.2202C119.947 28.2479 119.927 28.2686 119.908 28.2894C119.966 28.3055 120.023 28.3378 120.083 28.3401C120.321 28.347 120.471 28.1557 120.669 28.0727C120.694 28.0611 120.711 28.0265 120.731 28.0012C120.671 27.9873 120.611 27.9574 120.554 27.9574ZM120.355 37.5309C120.48 37.5332 120.604 37.524 120.771 37.5194C121.121 37.5286 121.465 37.4272 121.75 37.139C121.829 37.0606 121.979 37.0536 122.092 37.0029C122.124 36.9891 122.14 36.9337 122.163 36.8992C122.136 36.8876 122.106 36.8669 122.076 36.8669C121.824 36.8738 121.571 36.8623 121.349 37.0098C121.112 37.1666 120.89 37.1067 120.637 37.026C120.379 36.9453 120.445 37.1297 120.515 37.275C120.519 37.2819 120.422 37.3396 120.372 37.3741C120.346 37.3926 120.321 37.4064 120.3 37.4272C120.236 37.4894 120.256 37.5309 120.355 37.5309ZM120.284 28.8958C120.6 28.7598 120.904 28.5984 121.211 28.4439C121.255 28.4208 121.285 28.3724 121.322 28.3355C121.289 28.3194 121.259 28.2963 121.232 28.2963C121.169 28.294 121.098 28.2848 121.047 28.3125C120.764 28.46 120.457 28.5131 120.146 28.5638C120.058 28.5776 119.968 28.6191 119.892 28.6699C119.848 28.7021 119.809 28.7736 119.807 28.8289C119.804 28.8612 119.874 28.9281 119.91 28.9304C120.035 28.9327 120.173 28.9419 120.284 28.8958ZM119.032 37.8076C119.06 37.8168 119.09 37.8192 119.117 37.8192C119.15 37.8192 119.18 37.8122 119.21 37.8076C119.41 37.7292 119.611 37.6554 119.807 37.5701C119.846 37.554 119.871 37.5056 119.901 37.4733C119.844 37.4641 119.786 37.4525 119.726 37.4479C119.461 37.4226 119.258 37.5655 119.048 37.6969C118.967 37.7477 118.958 37.78 119.032 37.8076ZM117.323 29.4538C117.344 29.4769 117.383 29.5045 117.404 29.4976C117.672 29.3985 117.914 29.2624 118.094 29.0319C118.103 29.0203 118.089 28.9904 118.084 28.9696C118.057 28.9581 118.024 28.9327 118.001 28.9396C117.732 29.0226 117.469 29.1241 117.314 29.3846C117.305 29.4008 117.31 29.44 117.323 29.4538ZM113.157 30.217C113.099 30.1917 113.019 30.1409 112.933 30.1271C112.885 30.1202 112.827 30.1755 112.774 30.2032C112.793 30.2286 112.804 30.2631 112.827 30.2793C112.903 30.3277 112.979 30.3853 113.065 30.4084C113.106 30.4176 113.166 30.3554 113.219 30.3277C113.203 30.3 113.189 30.2724 113.157 30.217ZM115.838 29.6775C115.811 29.6706 115.779 29.6752 115.746 29.6775C115.622 29.6913 115.5 29.7121 115.426 29.8273C115.41 29.8504 115.405 29.8896 115.412 29.9173C115.419 29.9449 115.453 29.9864 115.465 29.9841C115.61 29.9403 115.753 29.8965 115.894 29.8389C115.942 29.8181 115.977 29.7628 116.018 29.7236C115.958 29.7074 115.901 29.689 115.838 29.6775ZM114.515 32.7557C114.552 32.7857 114.626 32.7718 114.679 32.7649C114.704 32.7626 114.75 32.7165 114.746 32.7073C114.692 32.5989 114.633 32.4905 114.57 32.3868C114.554 32.3637 114.522 32.3499 114.497 32.3337C114.485 32.3614 114.464 32.3891 114.462 32.419C114.455 32.5343 114.397 32.6658 114.515 32.7557ZM113.627 41.1971C113.632 41.2248 113.646 41.2686 113.666 41.2732C113.752 41.3032 113.842 41.3216 113.918 41.3401C114.026 41.3078 114.116 41.2847 114.204 41.2548C114.22 41.2501 114.227 41.2202 114.238 41.204C114.035 41.1717 113.832 41.1418 113.63 41.1118C113.63 41.1395 113.62 41.1694 113.627 41.1971ZM113.185 32.9171C113.311 32.9378 113.422 32.9724 113.503 33.0854C113.542 33.1407 113.583 33.2676 113.678 33.1223C113.828 32.8894 113.985 32.6611 114.141 32.4283C114.1 32.3937 114.063 32.336 114.024 32.3314C113.869 32.3222 113.719 32.3406 113.597 32.4628C113.466 32.5897 113.367 32.7603 113.159 32.7903C113.106 32.7972 113.06 32.8387 113.009 32.8664C113.067 32.8825 113.125 32.9079 113.185 32.9171ZM112.744 31.5705C112.786 31.6996 113.035 31.6051 113.164 31.5544C113.376 31.4668 113.643 31.4368 113.738 31.1693C114.204 31.1693 114.607 30.9779 115.001 30.7566C115.02 30.745 115.031 30.7105 115.041 30.6828C115.417 30.669 115.753 30.5652 116.067 30.3531C116.081 30.3415 116.085 30.3162 116.094 30.2977C116.067 30.2862 116.039 30.2678 116.009 30.2631C115.981 30.2585 115.947 30.2585 115.919 30.2701C115.622 30.39 115.274 30.4268 115.041 30.6828C114.563 30.6505 114.185 30.9295 113.763 31.0863C113.747 31.0909 113.745 31.1393 113.738 31.1693C113.484 31.167 113.258 31.2408 113.044 31.3814C112.94 31.4483 112.68 31.3791 112.744 31.5705ZM112.23 42.0226C112.352 42.0572 112.467 42.0226 112.53 41.8981C112.557 41.8473 112.594 41.7736 112.576 41.7344C112.557 41.6975 112.474 41.6905 112.421 41.6721C112.299 41.6698 112.172 41.6813 112.124 41.8128C112.094 41.8981 112.133 41.9949 112.23 42.0226ZM111.693 42.0595C111.785 42.0549 111.866 42.0295 111.873 41.9234C111.879 41.8128 111.803 41.7759 111.711 41.762C111.6 41.7459 111.552 41.8104 111.538 41.9027C111.524 42.0157 111.6 42.0502 111.693 42.0595ZM103.599 33.5466C103.606 33.5927 103.669 33.6572 103.712 33.6618C103.835 33.6803 103.975 33.7218 104.072 33.6157C104.19 33.4912 104.344 33.4751 104.489 33.422C104.522 33.4082 104.54 33.3413 104.554 33.2952C104.556 33.2883 104.506 33.2491 104.48 33.2514C104.353 33.256 104.229 33.2676 104.058 33.2814C103.948 33.2929 103.779 33.2491 103.657 33.3782C103.618 33.4174 103.59 33.4935 103.599 33.5466ZM101.688 34.1207C101.718 34.1991 101.785 34.2129 101.836 34.153C102.052 33.9016 102.336 33.7933 102.652 33.7402C102.677 33.7356 102.7 33.701 102.723 33.6803C102.682 33.648 102.631 33.5996 102.583 33.5881C102.534 33.5788 102.495 33.5927 102.548 33.5904C102.216 33.6088 102.022 33.6296 101.87 33.7449C101.799 33.8025 101.727 33.8694 101.681 33.9455C101.653 33.987 101.667 34.0677 101.688 34.1207ZM100.941 33.3206C101.001 33.2814 101.128 33.3437 101.095 33.2122C101.088 33.1869 100.985 33.173 100.927 33.1776C100.803 33.1846 100.68 33.2053 100.556 33.2214C100.526 33.2238 100.494 33.2284 100.464 33.2353C100.436 33.2445 100.408 33.2629 100.381 33.2745C100.413 33.2952 100.447 33.3298 100.482 33.3298C100.637 33.3321 100.791 33.3252 100.941 33.3206ZM100.664 34.0423C100.637 34.0262 100.607 33.9985 100.579 33.9985C100.424 34.0008 100.268 34.0054 100.113 34.0169C100.088 34.0192 100.065 34.0538 100.042 34.0746C100.072 34.1069 100.099 34.1576 100.136 34.1691C100.196 34.1876 100.261 34.1783 100.355 34.183C100.415 34.1622 100.505 34.1322 100.593 34.0999C100.618 34.0884 100.639 34.0607 100.664 34.0423ZM100.162 41.1349C100.203 41.2109 100.242 41.1994 100.314 41.1579C100.54 41.0265 100.475 40.7682 100.583 40.5884C100.528 40.4731 100.445 40.3832 100.314 40.367C100.261 40.3601 100.201 40.397 100.143 40.4155C100.316 40.6368 100.074 40.6922 100 40.8236C99.9678 40.8789 100.104 41.0288 100.162 41.1349ZM91.1575 36.4611C91.0284 36.4334 90.9015 36.4472 90.807 36.5418C90.7724 36.5763 90.7747 36.6524 90.777 36.7078C90.777 36.7285 90.8208 36.7562 90.8485 36.7654C91.0284 36.8185 91.1344 36.7677 91.2266 36.5856C91.2405 36.5625 91.2382 36.5302 91.2428 36.5026C91.2151 36.4887 91.1874 36.4657 91.1575 36.4611ZM91.8653 37.6209C91.8492 37.5955 91.8031 37.5632 91.7916 37.5701C91.4664 37.7569 91.0722 37.6439 90.7447 37.8168C90.6733 37.856 90.5488 37.8584 90.5764 37.9575C90.5879 37.9967 90.7424 38.0128 90.8324 38.0128C90.9246 38.0105 91.0191 37.9736 91.2013 37.9344C91.2981 37.9252 91.4895 37.9275 91.6717 37.8883C91.7477 37.8722 91.8054 37.7684 91.8653 37.6993C91.8792 37.6831 91.8769 37.6393 91.8653 37.6209ZM92.5179 36.4979C92.4787 36.3827 92.4533 36.2628 92.4118 36.1475C92.3911 36.0944 92.3473 36.0483 92.3127 35.9999C92.285 36.0529 92.2366 36.106 92.2343 36.159C92.2273 36.3112 92.2712 36.4726 92.0844 36.5602C92.0452 36.5787 92.0291 36.6409 92.0014 36.6824C92.059 36.6986 92.1167 36.717 92.1766 36.7285C92.2066 36.7354 92.2389 36.7285 92.2712 36.7285C92.5363 36.7124 92.5755 36.6755 92.5179 36.4979ZM92.5686 38.2503C92.5363 38.2642 92.5179 38.3241 92.5063 38.3656C92.5017 38.3748 92.5479 38.414 92.5732 38.4164C92.6332 38.421 92.6931 38.414 92.7715 38.4117C92.8407 38.3933 92.9283 38.3725 93.0136 38.3449C93.039 38.3356 93.062 38.3103 93.0851 38.2918C93.0597 38.278 93.0344 38.2573 93.0067 38.248C92.8591 38.1927 92.7116 38.1927 92.5686 38.2503ZM93.6615 35.2182C93.5993 35.0522 93.4656 35.096 93.348 35.1145C93.288 35.1237 93.235 35.1629 93.1773 35.1883C93.2281 35.2574 93.2649 35.352 93.3318 35.3843C93.4448 35.4419 93.5785 35.4488 93.6592 35.3105C93.6731 35.2874 93.6615 35.2482 93.6615 35.2182ZM96.078 36.6225C95.8889 36.6155 95.6999 36.6386 95.5108 36.6225C95.4255 36.6155 95.3448 36.5464 95.2664 36.4956C95.2433 36.4818 95.2295 36.4403 95.2272 36.4126C95.2249 36.3896 95.2364 36.355 95.2548 36.3412C95.4209 36.2213 95.6122 36.2512 95.799 36.2558C95.8912 36.2605 96.0042 36.2259 95.9904 36.1336C95.9812 36.0806 95.8474 36.0345 95.7621 36.0114C95.6768 35.9884 95.5615 35.9584 95.4969 35.9953C95.2226 36.1498 94.9343 36.1521 94.6853 36.0068C94.5377 35.9215 94.0927 36.1982 94.2495 35.6955C94.1896 35.6886 94.1227 35.6633 94.072 35.6817C93.9567 35.7255 93.8575 35.7809 93.7469 35.8385C93.7077 35.7947 93.6615 35.7232 93.62 35.7232C93.401 35.714 93.1819 35.7186 92.9629 35.7347C92.8799 35.7417 92.8545 35.8016 92.8937 35.85C92.9122 35.8731 92.9375 35.8938 92.9652 35.9031C93.1358 35.963 93.3018 36.0668 93.484 35.9054C93.5486 35.8477 93.6546 35.8639 93.7469 35.8385C93.7676 35.8961 93.7907 35.9446 93.8183 35.9999C93.8552 36.0806 93.9198 36.1682 93.7791 36.2051C93.5509 36.2674 93.2857 36.1705 93.0897 36.3711C93.3387 36.4749 93.5878 36.3873 93.8345 36.3665C94.0604 36.3481 94.2703 36.3642 94.4593 36.5026C94.879 36.2628 94.7868 36.5095 94.6968 36.7539C94.6876 36.7816 94.6784 36.8092 94.6692 36.8369C94.8167 36.8761 95.0081 36.8715 95.1003 36.966C95.1695 37.0352 95.0681 37.2612 95.3125 37.215C95.4324 37.1897 95.5523 37.162 95.6722 37.1366C95.5638 36.7631 95.8728 36.8415 96.0549 36.7793C96.1103 36.7608 96.1633 36.7262 96.2163 36.6962C96.1702 36.6709 96.1264 36.6225 96.078 36.6225ZM94.1573 38.1673C94.0973 38.1535 94.0351 38.1512 93.9751 38.142C93.9129 38.1512 93.8506 38.1581 93.7884 38.1673C93.6961 38.1812 93.6062 38.1996 93.5947 38.3149C93.5901 38.3449 93.5924 38.3818 93.6062 38.4071C93.6569 38.5086 93.7538 38.5224 93.8391 38.4855C93.9544 38.4394 94.0581 38.3656 94.1642 38.2965C94.1896 38.2826 94.2057 38.2457 94.2103 38.2181C94.2126 38.2019 94.1803 38.1719 94.1573 38.1673ZM94.238 37.2888C94.3417 37.2865 94.434 37.1459 94.4178 37.0144C94.3971 36.8507 94.2587 36.7608 94.0812 36.7977C93.9567 36.8231 93.8345 36.9683 93.876 37.0536C93.9475 37.2012 94.0627 37.298 94.238 37.2888ZM94.5885 38.0059C94.6323 38.0889 94.6784 38.1719 94.7314 38.248C94.7545 38.2803 94.8006 38.2988 94.8352 38.3218C94.8444 38.2619 94.8559 38.2019 94.8605 38.142C94.8675 38.0428 94.8375 37.9644 94.7291 37.9368C94.7014 37.9414 94.6669 37.9391 94.6415 37.9506C94.6184 37.9598 94.5839 37.999 94.5885 38.0059ZM95.1926 37.9759C95.2179 37.9944 95.2502 38.0151 95.2779 38.0128C95.5292 37.9875 95.7805 37.9598 96.0319 37.9229C96.0595 37.9183 96.0757 37.8537 96.0987 37.8168C96.0711 37.803 96.0411 37.7753 96.0157 37.7777C95.8566 37.7846 95.6975 37.8007 95.6676 37.803C95.4462 37.8399 95.3494 37.8468 95.2571 37.8745C95.1695 37.8976 95.1488 37.9437 95.1926 37.9759ZM96.3362 38.7023C96.2602 38.5985 96.1702 38.5293 96.0296 38.5847C96.0088 38.6054 95.9742 38.6239 95.9696 38.6469C95.965 38.67 95.9904 38.7069 96.0111 38.7207C96.0849 38.7691 96.161 38.8268 96.244 38.8498C96.2809 38.8614 96.3385 38.8037 96.387 38.7761C96.3708 38.7507 96.3547 38.7253 96.3362 38.7023ZM97.1802 38.7576C97.1686 38.7322 97.1386 38.6954 97.1202 38.6977C97.0626 38.7023 96.9842 38.7092 96.9542 38.7461C96.9012 38.8153 96.8781 38.9075 96.8389 38.9997C96.8504 39.062 96.6798 39.145 96.8573 39.2003C96.9796 39.2372 97.1018 39.2372 97.1778 39.1081C97.2447 38.9951 97.2378 38.8752 97.1802 38.7576ZM96.7513 42.8457C96.9035 42.8457 97.0533 42.8457 97.2032 42.8319C97.2332 42.8296 97.2609 42.7696 97.2885 42.7351C97.2609 42.7212 97.2332 42.6959 97.2055 42.6959C97.1156 42.6982 97.0234 42.7097 96.8596 42.7212C96.8735 42.7189 96.8135 42.7258 96.7559 42.7443C96.7282 42.7512 96.7098 42.7812 96.6867 42.8019C96.7075 42.8181 96.7305 42.8457 96.7513 42.8457ZM96.689 42.267C96.7121 42.2854 96.7444 42.3039 96.7743 42.3062C96.8689 42.3108 96.9657 42.3085 97.0787 42.3085C97.1825 42.2785 97.307 42.2532 97.4223 42.2024C97.4499 42.1909 97.4476 42.0987 97.4453 42.0456C97.4453 42.0226 97.4084 41.988 97.3808 41.9834C97.1041 41.9142 96.9196 42.1333 96.6913 42.2117C96.6844 42.214 96.6798 42.2601 96.689 42.267ZM95.4324 40.8144C95.5823 40.7083 95.6238 40.4985 95.8428 40.4754C95.8797 40.5284 95.9166 40.5746 95.9604 40.6184C96.2094 40.8605 96.2094 40.8605 96.4585 40.5861C96.6129 40.4178 96.6521 40.4132 96.8343 40.5607C96.9058 40.6184 96.9772 40.6691 96.9104 40.7844C96.7997 40.9735 96.7029 41.1717 96.5991 41.3654C96.5576 41.4392 96.5691 41.4992 96.6452 41.513C96.7029 41.5222 96.772 41.5199 96.8205 41.4946C96.9288 41.4323 97.058 41.3724 97.1202 41.2755C97.1732 41.1902 97.1248 41.0495 97.1548 40.9412C97.1917 40.7936 97.1986 40.623 97.3761 40.5469C97.5606 40.4662 97.5929 40.3394 97.4753 40.1757C97.3669 40.0235 97.2678 39.8667 97.1525 39.7214C97.0718 39.6223 96.8758 39.6269 96.8228 39.726C96.7743 39.8136 96.7813 39.9105 96.8596 39.9797C96.9058 40.0189 97.0072 40.0281 97.0188 40.0696C97.0556 40.2056 96.9242 40.1734 96.862 40.1826C96.7421 40.1964 96.5991 40.2241 96.4977 40.1803C96.2809 40.0834 96.2417 40.2056 96.1702 40.3601C96.1103 40.4869 95.9673 40.4616 95.8428 40.4754C95.8128 40.3232 95.8036 40.1595 95.5892 40.1411C95.4324 40.1272 95.2594 40.1342 95.1557 40.261C95.0473 40.3901 95.0957 40.5607 95.1303 40.7129C95.1603 40.842 95.324 40.8904 95.4324 40.8144ZM93.7791 42.1563C93.8414 42.2624 93.9013 42.4584 93.9636 42.4584C94.3072 42.4607 94.4732 42.8065 94.7845 42.8434C94.8144 42.8457 94.8467 42.8365 94.8767 42.825C95.0035 42.7858 95.2341 42.3339 95.1949 42.2093C95.1465 42.1771 95.1003 42.131 95.0473 42.1125C94.8029 42.0387 94.6369 42.2278 94.434 42.2947C94.2818 42.3431 94.1273 42.3638 94.1458 42.0964C94.1527 41.9695 93.8852 41.9096 93.7907 42.0041C93.7676 42.0272 93.733 42.0502 93.733 42.0756C93.7307 42.101 93.763 42.1286 93.7791 42.1563ZM93.4379 40.9273C93.537 41.0057 93.3825 41.0034 93.5094 40.9919C93.7561 40.9665 93.9521 40.7752 94.2195 40.789C94.4086 40.7982 94.4755 40.6553 94.464 40.4731C94.4593 40.4108 94.464 40.3486 94.4663 40.2402C94.4501 40.1964 94.4225 40.1111 94.381 40.0327C94.3302 39.9336 94.1481 39.9197 94.0627 40.0027C93.9106 40.1457 93.8829 40.3025 94.0028 40.3924C94.0743 40.4477 94.1596 40.48 94.2403 40.5215C94.185 40.5492 94.1319 40.5884 94.0743 40.5999C93.8644 40.646 93.6339 40.6207 93.454 40.7682C93.4217 40.7936 93.4125 40.9089 93.4379 40.9273ZM93.431 39.115C93.5555 39.1173 93.68 39.1012 93.9613 39.0781C93.9567 39.0781 94.1066 39.062 94.2587 39.0366C94.2795 39.0343 94.3141 38.9928 94.3095 38.9836C94.2979 38.9582 94.2726 38.9328 94.2472 38.9167C93.9544 38.7576 93.6708 38.7322 93.401 38.9651C93.3779 38.9859 93.3572 39.0089 93.3364 39.0297C93.3687 39.0597 93.3987 39.115 93.431 39.115ZM92.6493 42.5644C92.8269 42.6613 93.039 42.6198 93.1128 42.463C93.152 42.38 93.1635 42.2831 93.2073 42.207C93.2534 42.131 93.2511 42.0918 93.1635 42.0687C93.1381 42.0618 93.1035 42.0502 93.0828 42.0595C92.9721 42.1079 92.8637 42.1632 92.8153 42.1863C92.7093 42.2601 92.6585 42.2924 92.6124 42.3316C92.5525 42.3777 92.5778 42.5229 92.6493 42.5644ZM92.4741 40.7982C92.4925 40.8397 92.5801 40.8835 92.6239 40.872C92.813 40.8236 92.9444 40.6184 92.9145 40.4708C92.8845 40.4431 92.8661 40.4085 92.8407 40.4016C92.7461 40.3786 92.6608 40.4016 92.5986 40.4823C92.5225 40.5769 92.4072 40.6599 92.4741 40.7982ZM91.7869 38.919C91.9437 39.2326 92.1905 39.2764 92.451 39.1865C92.5525 39.1657 92.6147 39.1542 92.6747 39.1381C92.7046 39.1288 92.7323 39.1104 92.76 39.0966C92.7254 39.0458 92.7 38.9628 92.6562 38.9513C92.3311 38.8568 92.0037 38.7784 91.6763 38.6977C91.6532 38.693 91.6232 38.7207 91.5979 38.7345C91.5195 38.7807 91.5241 38.8268 91.6163 38.8614C91.674 38.8844 91.7685 38.8821 91.7869 38.919ZM91.0122 41.5683C91.0353 41.5868 91.0699 41.6029 91.0975 41.6006C91.3166 41.573 91.4549 41.4185 91.6094 41.2824C91.5794 41.2478 91.5633 41.2179 91.5379 41.2017C91.4849 41.1671 91.4157 41.1026 91.3765 41.1164C91.1898 41.181 91.0906 41.3493 90.9892 41.5061C90.9822 41.5176 90.9961 41.5568 91.0122 41.5683ZM90.8162 39.2787C90.8508 39.2718 90.8692 39.1819 90.8969 39.1311C90.8692 38.9605 90.7332 38.972 90.6156 38.9767C90.5603 38.9767 90.4796 39.0043 90.4565 39.0458C90.4012 39.1427 90.4865 39.2188 90.5557 39.251C90.6318 39.2856 90.7309 39.2925 90.8162 39.2787ZM90.4012 41.7689C90.5142 41.8289 90.5603 41.7528 90.5418 41.5338C90.5165 41.4807 90.4911 41.43 90.4657 41.377C90.3827 41.4507 90.2997 41.5222 90.2144 41.596C90.2767 41.656 90.3274 41.7321 90.4012 41.7689ZM71.3371 37.5678C71.3002 37.5309 71.2148 37.5125 71.1664 37.5286C71.1272 37.5448 71.1111 37.6209 71.0834 37.6716C71.1272 37.7016 71.1687 37.7546 71.2125 37.7569C71.314 37.7615 71.397 37.6255 71.3371 37.5678ZM71.1572 39.1058C71.1687 39.1634 71.2125 39.2118 71.2402 39.2649C71.2656 39.2211 71.3025 39.1773 71.3094 39.1311C71.3209 39.0712 71.3094 39.0066 71.3094 38.9651C71.3048 38.9121 71.3094 38.8798 71.2979 38.8521C71.2771 38.7968 71.2471 38.7438 71.2195 38.6907C71.1964 38.7369 71.1549 38.7807 71.1503 38.8291C71.1411 38.919 71.1434 39.0159 71.1572 39.1058ZM73.682 34.7709C73.6474 34.7755 73.6221 34.8332 73.5921 34.8655C73.6198 34.8793 73.6474 34.9047 73.6728 34.9047C73.825 34.8977 73.9772 34.8885 74.1293 34.8724C74.2008 34.8655 74.2884 34.8816 74.3161 34.7801C74.2562 34.7686 74.1985 34.7525 74.1386 34.7479C74.0786 34.7456 74.0164 34.7571 73.9564 34.7617C73.8642 34.764 73.7719 34.7571 73.682 34.7709ZM75.1162 33.8694C75.2177 33.8532 75.3514 33.8832 75.4021 33.7425C75.2799 33.7287 75.1577 33.708 75.0355 33.701C74.8926 33.6918 74.7957 33.7633 74.7519 33.8924C74.5375 33.9224 74.3369 33.9616 74.1247 33.9939C74.0971 33.9985 74.0763 34.0285 74.0509 34.0469C74.0809 34.0607 74.1086 34.0861 74.1363 34.0861C74.353 34.0861 74.5582 34.0907 74.7727 34.0861C74.8972 34.3005 75.107 34.2337 75.2915 34.2106C75.3491 34.2037 75.4044 34.1599 75.4598 34.1322C75.4183 34.1046 75.3745 34.0492 75.333 34.0515C75.1416 34.0584 74.964 34.07 74.7727 34.0861C74.7657 34.0146 74.7588 33.9662 74.7519 33.8924C74.8764 33.8901 74.9917 33.8878 75.1162 33.8694ZM76.246 35.2759C76.6888 35.2667 77.1061 35.4995 77.4889 35.3658C77.6733 35.352 77.8001 35.3474 77.9223 35.3289C77.9569 35.3243 77.9846 35.2782 78.0146 35.2528C77.9846 35.2413 77.9569 35.2252 77.9269 35.2229C77.0185 35.1629 76.1238 35.0315 75.2315 34.8562C75.1416 34.8378 75.0424 34.8401 74.9502 34.8585C74.8626 34.8724 74.7819 34.9208 74.6989 34.9531C74.7519 34.9831 74.8049 35.0292 74.8626 35.0407C75.3237 35.1306 75.7872 35.2851 76.246 35.2759ZM78.757 38.7345C78.7432 38.6562 78.6463 38.6562 78.6302 38.7415C78.568 39.0412 78.372 39.1565 78.0976 39.1888C77.8762 39.2118 77.6572 39.2441 77.4358 39.2603C77.309 39.2695 77.1822 39.251 77.1038 39.1265C76.9885 38.949 76.9355 39.0389 76.8732 39.1703C76.834 39.2557 76.7741 39.3294 76.7141 39.4009C76.6519 39.477 76.6057 39.4609 76.5804 39.3686C76.5481 39.2464 76.5204 39.1242 76.4766 39.0043C76.3775 38.7276 76.3452 38.9651 76.2991 39.032C76.1238 39.2902 75.7457 39.1288 75.582 39.4032C75.6235 39.1611 75.4321 39.0343 75.3445 38.8452C75.4667 38.836 75.5797 38.8268 75.6996 38.8037C75.748 38.7968 75.7872 38.7438 75.831 38.7115C75.7664 38.6469 75.6996 38.527 75.6419 38.5316C75.5336 38.5363 75.4367 38.6054 75.3307 38.6562C75.3168 38.5109 75.1831 38.3933 75.0932 38.4094C74.7727 38.474 74.5236 38.3126 74.2446 38.2181C73.9287 38.112 73.6567 38.2619 73.3892 38.4256C73.3661 38.308 73.3592 38.1858 73.3016 38.0866C73.2163 37.9414 73.2739 37.8999 73.3823 37.8076C73.4307 37.7684 73.4745 37.7753 73.4883 37.78C73.4837 37.7777 73.4699 37.7707 73.4491 37.7569C73.3039 37.6578 73.1286 37.607 72.9603 37.5517C72.928 37.5425 72.8243 37.6301 72.8289 37.6485C72.9165 37.9022 72.8773 38.1212 72.6882 38.3172C72.626 38.3841 72.6583 38.4417 72.7505 38.4394C72.9672 38.4325 73.1724 38.4348 73.3892 38.4256C73.4791 38.6746 73.6912 38.5962 73.8757 38.5916C73.9357 38.5893 74.0348 38.5939 74.0509 38.6262C74.104 38.7415 73.9795 38.7392 73.9218 38.7876C73.848 38.8452 73.7881 38.919 73.7235 38.9859C73.6613 39.0504 73.6705 39.1035 73.7466 39.1358C73.7696 39.145 73.8042 39.1473 73.8296 39.1358C73.8849 39.1127 73.9357 39.0712 73.9933 39.0481C74.1363 38.9928 74.2239 39.0643 74.1916 39.2118C74.1778 39.2718 74.127 39.3225 74.1132 39.3825C74.0648 39.59 74.2285 39.6914 74.4498 39.6638C74.6551 39.6384 74.5767 39.2672 74.8418 39.3802C75.0286 39.4609 75.2154 39.4148 75.4021 39.4124C75.4667 39.4124 75.5197 39.4101 75.582 39.4032C75.6327 39.6038 75.8494 39.537 75.9717 39.6223C76.1054 39.7168 76.2161 39.8067 76.11 40.0027C76.0616 40.0903 76.1561 40.1757 76.246 40.2033C76.3982 40.2517 76.3752 40.1203 76.3982 40.0419C76.4236 39.9543 76.419 39.8206 76.4743 39.786C76.6334 39.6937 76.8156 39.6338 76.9931 39.5738C77.0231 39.5646 77.1107 39.6223 77.1199 39.6615C77.1476 39.7837 77.1453 39.9128 77.1684 40.0373C77.1845 40.1272 77.2076 40.2218 77.2537 40.3002C77.279 40.3417 77.362 40.374 77.4151 40.3693C77.4981 40.3624 77.4842 40.3071 77.4704 40.2356C77.4081 39.9497 77.4151 39.9497 77.671 39.9497C77.7955 39.952 77.9223 39.9497 78.0492 39.9474C78.0814 39.9474 78.116 39.9497 78.1437 39.9359C78.1967 39.9082 78.2774 39.8805 78.289 39.8367C78.3697 39.5508 78.4942 39.311 78.787 39.1957C78.7778 39.0412 78.7824 38.8867 78.757 38.7345ZM73.2647 39.2856C73.2808 39.3871 73.29 39.4793 73.3085 39.5669C73.3154 39.5946 73.3408 39.6177 73.3592 39.643C73.3823 39.6084 73.4261 39.5738 73.4261 39.5393C73.4261 39.3571 73.4169 39.1749 73.403 38.9951C73.403 38.9697 73.3684 38.9467 73.35 38.9213C73.32 38.9559 73.2716 38.9882 73.267 39.0251C73.2555 39.115 73.2624 39.2072 73.2647 39.2856ZM74.9617 40.1226C75.0724 40.1595 75.1946 40.1687 75.2315 40.1757C75.3468 40.1572 75.3791 40.1572 75.4067 40.1457C75.4529 40.1272 75.4967 40.1042 75.5405 40.0811C75.5151 40.0627 75.4921 40.0396 75.4644 40.0304C75.3237 39.9774 75.1831 39.9174 75.0378 39.8805C75.0032 39.8713 74.9202 39.9289 74.9064 39.9704C74.8949 40.0143 74.9271 40.1111 74.9617 40.1226ZM79.1767 39.7975C79.1098 39.7514 79.0176 39.7283 78.9369 39.726C78.8147 39.726 78.704 39.7675 78.6971 39.9243C78.5979 39.9428 78.5288 40.005 78.5288 40.1019C78.5241 40.2564 78.5587 40.4085 78.6902 40.5123C78.734 40.5469 78.7939 40.5653 78.847 40.5884C78.8654 40.5354 78.9138 40.4708 78.9 40.4293C78.8423 40.2564 78.7663 40.0903 78.6971 39.9243C78.7824 39.9543 78.8654 40.0004 78.953 40.0119C79.0591 40.0258 79.2343 39.8367 79.1767 39.7975ZM79.9952 40.0258C79.8915 39.9889 79.7992 39.8644 79.6632 39.9612C79.4949 40.0765 79.5894 40.1895 79.6171 40.3394C79.6471 40.4962 79.571 40.6553 79.8246 40.5377C79.933 40.4869 80.039 40.4178 80.1336 40.3417C80.1728 40.3117 80.1751 40.2402 80.2051 40.1641C80.1382 40.118 80.0736 40.0535 79.9952 40.0258ZM81.4041 40.1803C81.3118 40.1088 81.2334 40.1826 81.1735 40.2448C81.1343 40.284 81.1181 40.3463 81.0905 40.3993C81.1666 40.4247 81.2403 40.4523 81.2842 40.4685C81.351 40.4616 81.3833 40.4662 81.411 40.457C81.4663 40.4362 81.517 40.4062 81.5701 40.3809C81.5147 40.314 81.4686 40.2356 81.4041 40.1803ZM82.9212 39.6338C82.8728 39.6361 82.7944 39.6891 82.7852 39.7306C82.7645 39.8275 82.8129 39.9059 82.9259 39.922C82.9674 39.8897 83.0388 39.8621 83.0458 39.8229C83.0573 39.7353 83.0435 39.6315 82.9212 39.6338ZM83.5161 40.7337C83.417 40.7659 83.4101 40.872 83.4493 40.9458C83.4931 41.0265 83.5945 41.0426 83.6729 40.9919C83.7052 40.9688 83.7052 40.8951 83.719 40.8443C83.6822 40.7475 83.5992 40.7083 83.5161 40.7337ZM84.9434 39.5692C84.925 39.477 84.8742 39.4747 84.8028 39.537C84.7566 39.5785 84.6898 39.5969 84.6437 39.6384C84.6091 39.6684 84.5929 39.7214 84.5699 39.7629C84.6298 39.7791 84.6898 39.7952 84.7497 39.8113C84.8051 39.7883 84.8789 39.7791 84.9134 39.7376C84.9457 39.7007 84.9549 39.6246 84.9434 39.5692ZM85.2547 40.2287C85.2363 40.171 85.2017 40.1203 85.174 40.0673C85.1371 40.1042 85.0956 40.1411 85.0633 40.1803C85.0449 40.2033 85.0403 40.2379 85.0264 40.2656C84.9388 40.4247 84.6759 40.3232 84.6252 40.5354C84.8212 40.5792 84.9181 40.7198 84.9964 40.8881C85.008 40.9135 85.1071 40.9181 85.1532 40.8997C85.2017 40.8789 85.2616 40.8236 85.2708 40.7775C85.2916 40.6576 85.2893 40.5331 85.2939 40.4454C85.2754 40.3486 85.2731 40.2863 85.2547 40.2287ZM86.0617 39.9543C86.0387 39.9382 85.9972 39.9382 85.9718 39.9474C85.9441 39.9566 85.9049 40.0004 85.9095 40.0096C85.9741 40.1434 86.0456 40.2748 86.1171 40.4108C86.1493 40.3786 86.1701 40.3647 86.1816 40.3463C86.2485 40.2379 86.1885 40.0419 86.0617 39.9543ZM89.3567 39.2095C89.329 39.1242 89.2529 39.055 89.2114 38.9697C89.1584 38.8545 89.1215 38.7484 88.9555 38.8498C88.4643 39.1542 87.8994 39.1726 87.353 39.2626C87.293 39.2718 87.2377 39.311 87.1823 39.3364C87.2354 39.3548 87.2907 39.3848 87.346 39.3894C87.5904 39.4101 87.8418 39.4655 88.0793 39.4286C88.3145 39.3917 88.2499 39.6868 88.349 39.6684C88.5635 39.6799 88.6649 39.6177 88.7502 39.5162C88.8817 39.3617 89.02 39.2603 89.2414 39.3548C89.3982 39.424 89.3843 39.2879 89.3567 39.2095ZM88.8632 44.4436C88.9117 44.4436 89.0016 44.3883 88.9993 44.3768C88.9785 44.2984 88.9555 44.1877 88.8978 44.1577C88.8286 44.1231 88.7341 44.1716 88.7134 44.3214C88.7134 44.3791 88.7595 44.4483 88.8632 44.4436ZM84.4154 46.2329C84.4477 46.2675 84.5076 46.3228 84.5353 46.3113C84.6783 46.2629 84.8166 46.1983 84.9526 46.1292C85.0011 46.1061 85.038 46.06 85.0795 46.0254C85.0195 46.0093 84.9642 45.9885 84.9042 45.977C84.8443 45.9678 84.782 45.9701 84.7198 45.9655C84.5929 45.977 84.4869 46.0231 84.4315 46.1453C84.4177 46.173 84.4039 46.2191 84.4154 46.2329ZM84.9964 45.4536C84.9365 45.4443 84.8742 45.4305 84.812 45.4236C84.782 45.4213 84.7497 45.4282 84.7221 45.4305C84.6644 45.4605 84.6068 45.4859 84.5583 45.5227C84.5445 45.5343 84.5491 45.5896 84.563 45.6127C84.5906 45.6519 84.6483 45.7164 84.6644 45.7095C84.7497 45.6703 84.8258 45.6127 84.9019 45.5573C84.9388 45.5297 84.9665 45.4882 84.9964 45.4536ZM83.7767 43.9986C84.0211 44.077 84.1802 43.8557 84.4039 43.8949C84.7451 43.9548 85.0979 43.964 85.4322 44.047C85.5959 44.0886 85.702 44.0678 85.8588 44.0171C86.1516 43.9225 86.4491 43.8649 86.7834 43.9871C87.1016 44.1024 87.376 43.8418 87.602 43.6458C87.7311 43.5329 87.5582 43.2792 87.685 43.104C87.7588 43.0025 87.6596 43.1201 87.7818 43.0855C87.8187 43.074 87.9179 43.134 87.9156 43.1501C87.8994 43.2446 87.851 43.33 87.8372 43.4245C87.8118 43.5928 87.8694 43.7381 87.9963 43.8511C88.0193 43.8718 88.0516 43.881 88.0793 43.8926C88.1438 43.9156 88.1969 43.888 88.213 43.8072C88.2361 43.685 88.2291 43.5536 88.2706 43.4383C88.3029 43.3553 88.3836 43.2562 88.4597 43.2377C88.5197 43.2239 88.6119 43.3161 88.6811 43.3738C88.7779 43.4591 88.8978 43.5582 88.9578 43.3738C89.0154 43.1916 89.1722 43.1547 89.2875 43.0556C89.4189 42.9403 89.4766 43.0071 89.555 43.1409C89.6841 43.3553 89.887 43.2516 90.0668 43.2031C90.2006 43.1685 90.189 43.0948 90.0761 43.0556C89.8685 42.9795 90.0576 42.7812 89.9377 42.659C89.8317 42.5529 89.7809 42.5022 89.6264 42.6036C89.3382 42.7904 89.0339 42.7927 88.7203 42.6936C88.635 42.6659 88.5888 42.4676 88.6788 42.3984C88.907 42.2278 88.8863 42.0041 88.8056 41.7989C88.7249 41.6006 88.6073 41.4231 88.5358 41.2109C88.462 40.9965 88.4274 40.8789 88.6257 40.7429C88.7526 40.6553 88.907 40.5792 88.9393 40.4016C88.9601 40.2956 89.1422 40.1895 88.9647 40.0857C88.8978 40.0465 88.7825 40.0696 88.6972 40.0926C88.5566 40.1342 88.4551 40.2195 88.2683 40.1687C87.9017 40.0742 87.8925 40.1111 87.7426 40.4892C87.7103 40.5769 87.6619 40.6599 87.6412 40.7498C87.6366 40.7752 87.7196 40.8536 87.738 40.8466C87.8694 40.8005 87.9916 40.7452 87.9548 40.9711C87.9455 41.0334 87.8948 41.0934 87.8971 41.1533C87.9248 41.7044 87.5259 41.9073 87.1201 42.0987C87.0855 42.1148 87.0025 42.0641 86.9702 42.0226C86.9356 41.9765 86.9333 41.905 86.9172 41.8427C86.8757 41.6859 87.1085 41.5753 86.9932 41.4046C86.8365 41.1764 87.1962 41.1372 87.1593 41.0772C87.0071 40.8074 87.3322 40.7844 87.3599 40.6207C87.406 40.367 87.1431 40.171 87.2307 39.9059C87.2446 39.8575 87.0163 39.8598 86.9886 39.9428C86.9195 40.1503 86.8941 40.1895 86.7396 39.9797C86.6335 39.8344 86.4145 39.9405 86.4007 40.1157C86.396 40.1803 86.3984 40.2425 86.403 40.3071C86.4168 40.5146 86.4814 40.5377 86.7673 40.4685C86.818 40.4547 86.8803 40.4846 86.9379 40.4939C86.9218 40.5469 86.9218 40.6276 86.8849 40.6483C86.7511 40.7244 86.6059 40.7867 86.4606 40.8466C86.2623 40.9296 86.29 41.0841 86.2969 41.2386C86.2346 41.2432 86.1816 41.2501 86.1217 41.2663C86.0133 41.294 85.9879 41.3562 86.0387 41.4669C86.0894 41.5799 86.1124 41.7067 86.147 41.8266C85.868 41.8681 85.5821 41.8773 85.3146 41.9603C85.144 42.0134 85.0426 42.0502 84.9573 41.8589C84.9296 41.792 84.865 41.8197 84.7981 41.8612C84.6621 41.9488 84.4823 42.0087 84.3554 41.9165C84.1502 41.7666 84.0188 41.9188 83.8528 41.9649C83.7559 41.9903 83.6891 41.9327 83.6545 41.8358C83.8689 41.7851 83.9427 41.6191 83.9588 41.4231C83.9635 41.3747 83.915 41.287 83.8735 41.2778C83.7859 41.2525 83.6637 41.2778 83.6499 41.377C83.6291 41.5291 83.6476 41.679 83.6545 41.8358C83.5115 41.8335 83.3962 41.649 83.2325 41.8058C83.1103 41.9257 83.0089 42.1148 82.8267 41.822C82.7483 41.6952 82.633 41.8935 82.5431 41.9672C82.3287 42.1448 82.2272 42.1286 82.1142 41.9027C81.9805 41.6398 81.9782 41.6352 81.7914 41.7989C81.743 41.8427 81.7061 41.9004 81.6531 41.9303C81.5701 41.9788 81.4617 42.0134 81.3971 41.9211C81.2888 41.7666 81.2035 41.596 81.1066 41.4346C81.0905 41.4092 81.0559 41.3977 81.0305 41.377C81.0028 41.4323 80.9613 41.483 80.9544 41.5407C80.9337 41.7136 80.9106 41.8658 80.6824 41.7228C80.5509 41.8289 80.4103 41.8081 80.2604 41.7666C80.2166 41.7528 80.1497 41.822 80.0944 41.852C79.8892 41.3839 79.375 41.626 79.0637 41.4046C79.0383 41.3862 79.0222 41.3539 79.0107 41.3262C78.9599 41.2063 78.923 41.1095 78.7547 41.2133C78.6233 41.2916 78.4504 41.2963 78.3074 41.3631C78.1691 41.4254 78.1114 41.3954 78.003 41.2824C77.7978 41.068 77.5419 41.0588 77.2444 41.1579C76.7764 41.3124 76.306 41.0772 75.831 41.0864C75.5105 40.8674 75.1301 41.098 74.8026 40.9527C74.4637 40.7982 74.1132 40.8835 73.7673 40.8651C73.3269 40.8397 72.8911 40.7844 72.453 40.7267C72.3447 40.7106 72.2801 40.7221 72.2363 40.819C72.1856 40.9366 72.0726 41.0611 72.091 41.1648C72.1717 41.5891 71.9227 41.6467 71.6022 41.6652C71.5469 41.6698 71.4961 41.7228 71.4408 41.7528C71.5008 41.7713 71.5607 41.8104 71.6184 41.8104C71.7775 41.8104 71.9389 41.7759 72.0956 41.7874C72.4715 41.8174 72.8542 41.8473 72.9442 42.3408C72.9718 42.4907 73.124 42.4907 73.2555 42.4768C73.3477 42.4653 73.4653 42.463 73.4561 42.5875C73.4445 42.7304 73.4445 42.7927 73.6198 42.8342C73.7743 42.8711 73.8965 42.8734 74.0533 42.8365C74.1547 42.8112 74.2608 42.9218 74.3253 42.7281C74.4383 42.4007 74.6504 42.3154 74.9986 42.4653C75.243 42.5714 75.5751 42.4561 75.7434 42.7673C76.1446 42.8319 76.5458 42.8849 76.9424 42.9703C77.2998 43.0463 77.6595 42.9195 78.0261 43.0602C78.4434 43.2239 78.5172 43.2377 78.6187 43.5997C78.6279 43.6297 78.7017 43.6481 78.7478 43.6551C78.7639 43.6574 78.8031 43.6136 78.8055 43.5882C78.8193 43.466 78.8216 43.3415 78.8423 43.2193C78.8447 43.2101 78.9622 43.2008 79.0061 43.2262C79.0314 43.2423 79.0199 43.3253 79.0222 43.3784C79.0245 43.4683 79.0153 43.6366 79.0245 43.6389C79.4303 43.6758 79.4211 43.9779 79.4418 44.2684C79.4465 44.3099 79.5064 44.3491 79.5479 44.3837C79.5525 44.3883 79.6009 44.3514 79.6194 44.326C79.6355 44.303 79.6332 44.2661 79.6448 44.2361C79.7646 43.9295 79.9837 43.7842 80.3134 43.8234C81.0928 43.9179 81.8883 43.8511 82.6561 44.0286C82.8659 44.077 83.085 43.9986 83.2625 44.0839C83.4839 44.1923 83.6222 43.9479 83.7767 43.9986ZM71.7221 42.8895C71.7775 42.9149 71.8282 42.9426 71.8835 42.961C71.9135 42.9726 71.9458 42.9679 71.9781 42.9726C72.2939 42.9449 72.3908 42.8527 72.3746 42.5875C72.3723 42.5575 72.3539 42.5299 72.3401 42.5045C72.2962 42.4192 72.2455 42.4192 72.204 42.5045C72.1348 42.6521 72.0449 42.765 71.8674 42.7927C71.8167 42.7996 71.7705 42.855 71.7221 42.8895ZM76.525 44.8402C76.7303 44.9094 76.8894 45.1169 77.1361 45.0431C77.1937 45.027 77.2398 44.9763 77.2906 44.9417C77.2675 44.9209 77.2467 44.8956 77.2191 44.8817C77.0208 44.7826 76.8294 44.6512 76.5896 44.7319C76.5619 44.7503 76.532 44.7618 76.5112 44.7849C76.5043 44.7918 76.5158 44.8356 76.525 44.8402ZM78.4642 45.8064C78.5218 45.8225 78.5841 45.8548 78.6417 45.8548C78.8008 45.8502 78.9576 45.8294 79.1167 45.8179C79.2435 45.8087 79.3704 45.8017 79.4949 45.7833C79.5456 45.7741 79.5917 45.7326 79.6401 45.7049C79.5779 45.6911 79.5179 45.6611 79.458 45.6634C79.1744 45.6772 78.8885 45.6957 78.6048 45.721C78.5564 45.7257 78.5103 45.7764 78.4642 45.8064ZM82.6814 45.4328C82.7114 45.4651 82.7368 45.5112 82.7737 45.5274C82.8567 45.5596 82.9466 45.5758 83.0319 45.6034C83.0942 45.6242 83.1403 45.5988 83.1265 45.525C83.1172 45.4789 83.0688 45.4236 83.025 45.4005C82.9743 45.3775 82.9074 45.3844 82.8475 45.3798C82.7921 45.3982 82.7368 45.4167 82.6814 45.4328ZM83.47 44.9601C83.3455 44.9601 83.2233 44.9717 83.1011 44.9809C83.0388 44.9878 82.9766 44.9809 82.9166 44.9947C82.8913 44.9993 82.8682 45.0293 82.8452 45.0501C82.8774 45.0754 82.912 45.1285 82.9443 45.1261C83.1288 45.1169 83.3132 45.1008 83.4954 45.0754C83.5484 45.0685 83.5945 45.027 83.6453 44.9993C83.5876 44.9855 83.5277 44.9601 83.47 44.9601ZM73.4122 46.2652C74.134 46.2052 74.8372 46.4727 75.5589 46.3251C75.6212 46.4635 75.7549 46.4658 75.884 46.4635C76.2945 46.4566 76.7003 46.4151 77.1107 46.5281C77.3113 46.5834 77.5488 46.5073 77.7702 46.5004C78.2774 46.4819 78.7916 46.4082 79.2874 46.475C79.7047 46.5304 80.1082 46.5119 80.5163 46.4842C81.4663 46.4151 82.4163 46.3321 83.364 46.2491C83.4216 46.2444 83.4792 46.2006 83.5346 46.1776C83.4954 46.1476 83.4585 46.0969 83.4147 46.0923C82.6607 46.0093 81.9205 45.9977 81.155 46.1176C80.3895 46.2375 79.594 46.1522 78.8124 46.1545C78.6556 46.1545 78.4873 46.0923 78.3466 46.1338C78.0538 46.2237 77.7978 46.3782 77.4635 46.2122C77.1799 46.0715 76.8502 46.2952 76.532 46.1591C76.1861 46.0162 75.8587 46.1084 75.5589 46.3251C75.4436 46.0715 75.2891 45.8986 74.9709 46.0577C74.8903 46.0969 74.7703 46.1707 74.7196 46.1407C74.3092 45.9032 73.8434 46.1568 73.4307 45.9816C73.3961 45.9655 73.3269 46.0277 73.2785 46.0623C73.2301 46.0969 73.3385 46.2698 73.4122 46.2652ZM72.5729 46.1153C72.6952 46.1637 72.822 46.1614 72.928 46.0807C72.9672 46.0508 72.9742 45.977 72.9972 45.9239C72.9857 45.8294 72.8635 45.7533 72.792 45.8017C72.7182 45.8525 72.6513 45.9193 72.5845 45.9839C72.5222 46.0438 72.5176 46.0946 72.5729 46.1153ZM70.9589 44.605C71.2218 44.7895 71.4754 44.7595 71.7567 44.605C72.0265 44.4598 72.0449 44.4898 72.1833 44.7595C72.2248 44.8402 72.2801 44.9209 72.2893 45.0062C72.3009 45.1054 72.3055 45.2022 72.4254 45.1907C72.7782 45.1584 73.1217 45.3106 73.4607 45.2852C74.1593 45.2368 74.8418 45.4905 75.5382 45.3613C76.0016 45.4766 76.4697 45.4743 76.9401 45.4351C77.1776 45.4167 77.1983 45.5366 77.1153 45.7187C77.173 45.7303 77.2444 45.7695 77.2906 45.751C77.4681 45.6818 77.4081 45.4812 77.4842 45.3544C77.5188 45.2991 77.475 45.2276 77.3966 45.2368C76.947 45.2852 76.525 45.1308 76.0916 45.0685C76.0039 45.057 75.9348 45.0062 75.8333 45.0524C75.6742 45.1238 75.4897 45.0385 75.3191 45.1653C75.1923 45.2576 75.0194 45.1515 74.8649 45.1169C74.685 45.0777 74.4913 45.0985 74.3046 45.0823C74.2147 45.0754 74.1109 45.0547 74.1224 44.9209C74.134 44.7987 74.2123 44.7987 74.3138 44.8103C74.4037 44.8195 74.4983 44.8126 74.5836 44.7849C74.6089 44.778 74.6343 44.6465 74.6136 44.6304C74.4429 44.499 74.27 44.3675 74.0809 44.2638C74.0164 44.2292 73.8941 44.243 73.8227 44.2799C73.5229 44.4413 73.2301 44.3883 72.9073 44.3606C72.5706 44.3353 72.2409 44.3952 71.9227 44.2085C71.7152 44.0862 71.4915 44.1669 71.3002 44.2776C71.2056 44.2615 71.1019 44.2085 71.035 44.2407C70.9612 44.273 70.9082 44.3768 70.8759 44.4621C70.8621 44.4944 70.9151 44.5751 70.9589 44.605ZM70.6453 41.9972C70.7329 42.0341 70.7998 41.9027 70.786 41.7297C70.7767 41.6214 70.7145 41.5522 70.6292 41.5476C70.5093 41.5545 70.4516 41.6237 70.4401 41.7228C70.4194 41.8796 70.53 41.9488 70.6453 41.9972ZM66.8892 40.3578C66.91 40.3924 66.9999 40.4132 67.046 40.3993C67.1521 40.3693 67.1613 40.2725 67.1175 40.1941C67.0967 40.1572 67.0137 40.1572 66.9607 40.1411C66.8662 40.1895 66.8431 40.2771 66.8892 40.3578ZM64.5258 43.7035C64.5834 43.6943 64.6388 43.662 64.6941 43.6389C64.6734 43.6205 64.6503 43.5905 64.6273 43.5882C64.4451 43.5674 64.3298 43.3438 64.1177 43.4176C64.0946 43.4383 64.06 43.4591 64.0554 43.4844C64.0531 43.5052 64.0831 43.5352 64.1038 43.5559C64.2168 43.6804 64.3598 43.7289 64.5258 43.7035ZM63.9401 44.6004C63.9863 44.6788 64.0231 44.6673 64.0785 44.5981C64.1108 44.5566 64.1753 44.5382 64.2284 44.5105C64.2768 44.4851 64.3275 44.4575 64.3759 44.4321C64.3252 44.4183 64.2745 44.3998 64.2214 44.3906C64.1938 44.386 64.1615 44.3952 64.1315 44.3998C64.1038 44.4021 64.0669 44.3952 64.0462 44.4114C64.0024 44.439 63.9632 44.4782 63.9309 44.5197C63.9194 44.5359 63.9286 44.5774 63.9401 44.6004ZM63.6473 42.629C63.7073 42.629 63.7695 42.629 63.8364 42.629C63.9079 42.6175 64.007 42.6267 63.9955 42.5137C63.9932 42.4907 63.8871 42.4653 63.8295 42.4699C63.7395 42.4722 63.645 42.4907 63.5574 42.5183C63.5205 42.5275 63.4951 42.5737 63.4651 42.6013C63.4951 42.6129 63.5228 42.6244 63.5528 42.629C63.5827 42.6336 63.615 42.629 63.6473 42.629ZM61.6736 43.941C61.7935 43.9733 61.9595 43.9571 62.031 44.0332C62.3261 44.3376 62.5982 44.1393 62.8887 44.0632C62.9763 44.3883 63.0455 44.4252 63.2876 44.3814C63.3153 44.3768 63.3429 44.3353 63.3637 44.3168C63.2046 44.243 63.0524 44.1347 62.8887 44.0632C62.5382 43.828 62.1324 43.7681 61.7197 43.7888C61.6759 43.7911 61.639 43.8511 61.5975 43.8856C61.6228 43.9041 61.6459 43.9341 61.6736 43.941ZM61.6712 43.1086C62.2016 43.3046 62.7573 43.4268 63.3083 43.5605C63.3683 43.5767 63.4698 43.4867 63.5297 43.4245C63.5989 43.3553 63.4974 43.1824 63.3683 43.1501C63.0639 43.074 62.755 43.0118 62.4506 42.9311C62.2316 42.8734 62.1163 42.7305 62.1947 42.5091C62.3169 42.1655 62.137 41.9373 61.9825 41.6859C61.9733 41.6721 61.918 41.6767 61.8903 41.6859C61.8626 41.6975 61.8211 41.7459 61.8211 41.7459C61.941 41.905 61.9987 42.0572 61.8949 42.2624C61.8165 42.4169 62.1601 42.6221 61.9157 42.742C61.7865 42.8065 61.5652 42.6843 61.3853 42.6428C61.2009 42.599 61.0187 42.5437 60.8343 42.5091C60.6613 42.4768 60.5345 42.5552 60.4331 42.6982C60.3593 42.7996 60.4077 42.9564 60.5161 43.0048C60.7028 43.0902 60.8896 43.0325 61.0671 43.0325C61.3 42.8988 61.4637 43.0325 61.6712 43.1086ZM59.4992 43.5282C59.9673 43.6943 60.4446 43.8349 60.9219 43.9756C61.0187 44.0055 61.0948 43.9456 61.1202 43.8418C61.1478 43.7289 61.0764 43.6574 61.0003 43.609C60.7628 43.4568 60.5022 43.3645 60.2186 43.323C60.0388 43.2954 59.8612 43.2446 59.6906 43.2054C59.6329 43.2516 59.5661 43.2792 59.5384 43.33C59.5015 43.3876 59.3355 43.4706 59.4992 43.5282ZM59.3908 31.8172C59.5107 31.8241 59.6306 31.8288 59.7275 31.8334C59.8036 31.7965 59.8566 31.7688 59.9073 31.7434C59.8612 31.672 59.8312 31.5751 59.7644 31.5336C59.6053 31.4322 59.407 31.5244 59.3263 31.7042C59.294 31.778 59.3009 31.8126 59.3908 31.8172ZM50.2692 34.5519C50.3153 34.6464 50.4191 34.6464 50.4998 34.6141C50.5367 34.598 50.569 34.5173 50.5643 34.4712C50.5528 34.3651 50.479 34.3213 50.3361 34.3628C50.2761 34.3859 50.2254 34.4573 50.2692 34.5519ZM41.89 29.2325C41.9016 29.1448 41.89 29.048 41.8601 28.9673C41.8439 28.9304 41.7586 28.9166 41.701 28.9004C41.6756 28.8935 41.6249 28.8935 41.6156 28.9097C41.4796 29.1448 41.5649 29.3916 41.5995 29.6291C41.6226 29.7882 41.7309 29.9034 41.8854 29.9634C41.9131 29.9749 41.9408 29.9772 41.9707 29.9795C41.9892 30.081 42.063 30.1363 42.1598 30.134C42.2474 30.134 42.3466 30.1133 42.4204 30.0671C42.5472 29.9911 42.5034 29.8527 42.4895 29.7351C42.4849 29.7028 42.4042 29.6429 42.3973 29.6498C42.2497 29.7582 42.1137 29.8665 41.9707 29.9795C41.9661 29.9196 41.9638 29.8642 41.9454 29.8066C41.8785 29.6129 41.8647 29.4169 41.89 29.2325ZM42.2589 26.5255C42.1367 26.5232 42.0145 26.5209 41.8946 26.537C41.8577 26.5416 41.8278 26.6062 41.7932 26.6431C41.8209 26.6592 41.8462 26.6823 41.8739 26.6869C41.9338 26.6938 41.9961 26.6892 42.056 26.6915C42.1183 26.6823 42.1829 26.6823 42.2382 26.6592C42.2774 26.6431 42.3074 26.597 42.342 26.5647C42.3143 26.5508 42.2866 26.5255 42.2589 26.5255ZM43.119 28.7644C43.0406 28.7206 42.9576 28.686 42.8723 28.6583C42.8515 28.6491 42.8193 28.6883 42.7893 28.6975C42.4503 28.7782 42.3166 28.7598 42.312 28.6283C42.3028 28.407 42.4872 28.4024 42.6325 28.3586C42.7224 28.3332 42.7432 28.2871 42.6901 28.241C42.6187 28.1787 42.5495 28.1072 42.4665 28.0657C42.2705 27.9643 42.063 27.9136 41.9823 27.6738C42.1967 27.713 42.395 27.7545 42.6094 27.7798C42.6878 27.7867 42.7731 27.7291 42.8538 27.7014C42.8008 27.6714 42.7478 27.6415 42.6947 27.6092C42.5887 27.5423 42.425 27.4962 42.3904 27.404C42.2543 27.0304 41.9108 27.2656 41.6987 27.1388C41.6756 27.1826 41.6203 27.2495 41.6318 27.2656C41.7471 27.4086 41.8601 27.5354 41.9823 27.6738C41.8324 27.6945 41.6687 27.6761 41.6433 27.9066C41.6249 28.0957 41.5995 28.2848 41.5557 28.4692C41.5372 28.5476 41.5372 28.6307 41.5972 28.6168C41.9569 28.5269 42.0122 28.9581 42.2912 29.0019C42.478 29.0319 42.6555 29.0964 42.8423 29.1287C42.9899 29.1541 43.0637 29.0388 43.1375 28.9304C43.1836 28.8635 43.1882 28.8059 43.119 28.7644ZM43.1836 29.5483C43.1398 29.5322 43.0452 29.553 43.0245 29.5875C42.9645 29.6775 43.0452 29.749 43.1029 29.8112C43.1444 29.855 43.202 29.8827 43.255 29.9173C43.4165 30.0187 43.5894 29.9357 43.6632 29.7213C43.6586 29.6314 43.6447 29.5161 43.5294 29.553C43.4072 29.5922 43.3035 29.5945 43.1836 29.5483ZM43.8845 27.2472C43.7715 27.2034 43.6516 27.1757 43.564 27.1503C43.4741 27.1988 43.4188 27.2287 43.3657 27.2564C43.4072 27.291 43.4441 27.3348 43.4902 27.3579C43.6009 27.4132 43.7139 27.4685 43.8315 27.5031C43.8776 27.5147 43.9675 27.487 43.9883 27.4501C44.0436 27.3509 43.9698 27.2795 43.8845 27.2472ZM44.7123 27.6691C44.6293 27.6323 44.5394 27.6138 44.4564 27.5792C44.3872 27.5515 44.3365 27.57 44.3411 27.653C44.3411 27.7037 44.378 27.7775 44.4172 27.796C44.4956 27.8329 44.5878 27.8375 44.6593 27.8513C44.7008 27.8259 44.7261 27.8144 44.7469 27.796C44.7976 27.7522 44.7884 27.7014 44.7123 27.6691ZM45.826 36.7354C45.8398 36.7908 45.8606 36.8784 45.8952 36.8853C46.0151 36.9153 46.1419 36.9199 46.2641 36.9291C46.4393 36.9453 46.5684 37.0237 46.6076 37.1989C46.6353 37.3211 46.6284 37.4664 46.8152 37.4272C46.9166 37.4064 46.9535 37.3234 46.9604 37.2197C46.965 37.0928 46.9835 36.9729 47.0849 36.8761C47.1103 36.853 47.3386 36.7723 47.1287 36.7401C46.7944 36.687 46.4924 36.4172 46.1188 36.551C46.0335 36.5879 45.9482 36.6202 45.8652 36.664C45.8444 36.6732 45.8214 36.717 45.826 36.7354ZM41.0415 30.6528C40.8686 30.8857 40.8686 31.0586 41.0992 31.1785C41.2191 31.2431 41.2998 31.3169 41.3643 31.4252C41.4012 31.4921 41.4773 31.5129 41.5096 31.4414C41.6964 31.0264 41.9915 31.3814 42.2267 31.3284C42.2889 31.3169 42.3535 31.3169 42.4157 31.3123C42.3973 31.4206 42.5933 31.6581 42.2589 31.5774C42.0883 31.5336 42.0376 31.6627 42.003 31.7757C41.9707 31.8749 42.1367 32.0155 42.2497 31.9925C42.3097 31.9786 42.3604 31.9164 42.4181 31.9072C42.7201 31.8495 42.9737 32.0616 43.0152 32.4052C43.0199 32.4329 42.9968 32.4628 42.9853 32.4928C43.0429 32.4997 43.1236 32.5343 43.1513 32.509C43.2643 32.4075 43.3542 32.2807 43.4649 32.1769C43.5848 32.0616 43.7254 32.087 43.8822 32.23C44.1958 32.5159 44.5209 32.7511 44.9844 32.6219C45.1827 32.5666 45.3349 32.6358 45.4824 32.7995C45.7568 33.1015 46.1695 33.09 46.5315 33.1869C46.5431 33.1892 46.6123 33.0831 46.5984 33.0531C46.5385 32.9079 46.4739 32.7603 46.3817 32.6381C46.2779 32.4997 46.271 32.3591 46.2825 32.2046C46.0335 32.147 45.7314 32.1008 45.5516 32.2484C45.2288 32.5159 45.0351 32.3337 44.8068 32.1562C44.6639 32.0455 44.6708 32.0201 44.8921 31.8518C44.9429 31.8126 44.9982 31.778 45.0351 31.7273C45.0697 31.6789 45.0835 31.6166 45.1066 31.559C45.0489 31.5405 44.9913 31.5036 44.9336 31.506C44.876 31.5106 44.8138 31.5428 44.763 31.5774C44.1797 31.9879 43.6516 31.8933 43.1674 31.4045C43.4141 31.446 43.6586 31.4898 43.9076 31.5244C43.9629 31.5313 44.0505 31.5152 44.0782 31.4783C44.152 31.3791 44.0505 31.3192 43.9883 31.2708C43.8661 31.1739 43.7416 31.0632 43.6009 31.0102C43.4095 30.9364 43.511 30.835 43.5271 30.7243C43.5479 30.5491 43.4349 30.4292 43.3058 30.3346C43.1536 30.2239 42.9161 30.2401 42.8216 30.4292C42.7017 30.6759 42.6463 30.5883 42.5356 30.4476C42.5172 30.4268 42.4342 30.466 42.3812 30.466C42.0999 30.4707 41.92 30.3969 41.641 30.1686C41.4335 29.998 41.2467 29.9841 41.0484 30.1502C40.9354 30.247 40.804 30.3692 41.0738 30.4707C41.226 30.5283 41.0876 30.5906 41.0415 30.6528ZM40.0754 29.8988C40.0777 29.9496 40.1238 30.0003 40.1515 30.051C40.1976 30.0118 40.2529 29.9795 40.2898 29.9334C40.3475 29.8619 40.4166 29.7928 40.3728 29.6844C40.3359 29.6452 40.3037 29.576 40.2598 29.5668C40.2114 29.5599 40.1261 29.5968 40.11 29.636C40.0777 29.7167 40.0708 29.8112 40.0754 29.8988ZM39.8494 28.1972C40.1607 28.3355 40.502 28.4116 40.7671 28.6468C40.8086 28.686 40.8824 28.6929 40.94 28.7137C41.0922 28.7713 41.2029 28.656 41.1706 28.4692C41.166 28.4416 41.1407 28.4139 41.1222 28.3793C41.1176 28.3263 41.0922 28.2594 41.113 28.2087C41.1706 28.0657 41.2882 27.8997 41.0807 27.8121C40.9124 27.7429 40.6426 27.713 40.5619 27.8859C40.4074 28.2202 40.2645 28.0727 40.0915 27.9435C40.0662 27.9251 40.0224 27.8997 40.0062 27.9089C39.9301 27.9528 39.8517 27.9966 39.7918 28.0588C39.7318 28.1234 39.7687 28.1603 39.8494 28.1972ZM38.9986 29.4769C39.0793 29.5714 39.1554 29.6683 39.2338 29.7651C39.2707 29.8112 39.3029 29.8619 39.3445 29.9057C39.3514 29.9104 39.3883 29.8896 39.4113 29.8804C39.552 29.7789 39.5036 29.1933 39.3352 29.1541C39.2453 29.1333 39.1254 29.2278 39.0217 29.2763C38.911 29.327 38.9317 29.4008 38.9986 29.4769ZM38.964 27.6599C39.0309 27.683 39.2153 27.4824 39.19 27.3786C39.1162 27.321 39.0309 27.2149 38.9248 27.1826C38.798 27.1457 38.7057 27.2518 38.6297 27.3602C38.5836 27.427 38.5697 27.4732 38.6297 27.5054C38.7403 27.5608 38.851 27.6161 38.964 27.6599ZM38.3714 28.2433C38.3899 28.3125 38.3922 28.3816 38.4268 28.4185C38.4613 28.4554 38.5351 28.4808 38.5836 28.4716C38.6297 28.4646 38.7011 28.4047 38.7034 28.3655C38.7081 28.1718 38.572 28.0381 38.466 27.8928C38.436 27.9228 38.3829 27.9504 38.3783 27.9827C38.3645 28.0727 38.3714 28.1649 38.3714 28.2433ZM38.436 25.7761C38.4567 25.7669 38.4683 25.7392 38.4844 25.7185C38.3645 25.534 38.1962 25.4118 37.9818 25.3588C37.9564 25.3518 37.9218 25.3611 37.8987 25.3749C37.8803 25.3864 37.8526 25.4279 37.8572 25.4325C37.9887 25.5986 38.1178 25.7738 38.353 25.7946C38.3806 25.7992 38.4129 25.7899 38.436 25.7761ZM38.2584 32.8963C38.2792 32.8779 38.3161 32.8571 38.3138 32.841C38.3022 32.7557 38.3046 32.6496 38.2538 32.5897C38.2077 32.532 38.104 32.5182 38.0233 32.4928C38.014 32.4882 37.9725 32.5389 37.9725 32.5643C37.9702 32.6842 38.1478 32.8848 38.2584 32.8963ZM36.6306 28.852C36.7136 28.8866 36.8312 28.9097 36.8658 28.9742C36.9626 29.1541 37.0225 29.1794 37.1839 29.0203C37.3984 28.8059 37.5344 28.8566 37.5828 29.1656C37.6013 29.2993 37.6313 29.4054 37.7327 29.4792C37.7742 29.5092 37.8503 29.5092 37.9057 29.4976C37.9818 29.4815 38.0002 29.4261 37.9679 29.3662C37.9518 29.3408 37.9379 29.3109 37.9034 29.2486C37.9126 29.1933 37.9218 29.1056 37.9402 29.0203C37.9564 28.9396 38.0394 28.8336 37.8964 28.799C37.456 28.6952 37.1148 28.4254 36.7689 28.1603C36.7412 28.1995 36.6836 28.2433 36.6905 28.2779C36.7136 28.437 36.8865 28.6145 36.596 28.716C36.5245 28.739 36.5499 28.8151 36.6306 28.852ZM34.8989 23.8508C34.8874 23.7332 34.8067 23.6963 34.7122 23.6802C34.5 23.6479 34.2856 23.6225 34.0735 23.5948C34.0596 23.6202 34.0389 23.6456 34.032 23.6755C34.0273 23.7032 34.025 23.7493 34.0412 23.7655C34.2049 23.9246 34.4101 23.9868 34.6292 24.0191C34.7698 24.0399 34.9081 23.9522 34.8989 23.8508ZM36.0126 28.49C36.1602 28.3909 36.3031 28.2825 36.43 28.1903C36.4 28.0796 36.3908 28.0196 36.37 27.9643C36.2501 27.6323 35.9296 27.5654 35.6575 27.4386C35.6275 27.4247 35.563 27.4847 35.5146 27.51C35.6437 27.6968 35.4869 27.8628 35.4731 28.0381C35.4615 28.211 35.5814 28.3194 35.6852 28.4324C35.7797 28.5338 35.8904 28.5707 36.0126 28.49ZM35.2932 29.938C35.3601 30.1017 35.4523 30.2562 35.3624 30.4476C35.337 30.5029 35.5399 30.6367 35.5722 30.5929C35.6045 30.5491 35.6229 30.4937 35.6483 30.4407C35.6299 30.2562 35.6322 30.0625 35.4661 29.9311C35.4246 29.8988 35.3693 29.8827 35.3209 29.8596C35.3117 29.885 35.284 29.9173 35.2932 29.938ZM35.2333 27.8651C35.2402 27.7591 35.1733 27.7153 35.0788 27.6968C34.9543 27.6738 34.9335 27.7637 34.9151 27.849C34.892 27.9689 34.9773 27.9943 35.0603 28.0081C35.1733 28.0196 35.2263 27.9666 35.2333 27.8651ZM34.8597 29.3731C34.9381 29.41 35.0234 29.4331 35.1064 29.463C35.1203 29.44 35.1433 29.4146 35.1479 29.3893C35.1526 29.3616 35.1456 29.3132 35.1295 29.3062C35.0534 29.2717 34.975 29.2348 34.8943 29.2255C34.8436 29.2186 34.7859 29.2601 34.7306 29.2809C34.7744 29.3109 34.8136 29.3501 34.8597 29.3731ZM34.6015 25.8268C34.7191 25.8384 34.6684 25.7 34.7191 25.6608C34.922 25.5063 34.6822 25.3311 34.7537 25.172C34.8182 25.0313 34.8666 24.8815 34.9174 24.7339C34.9243 24.7155 34.9058 24.6855 34.9012 24.6601C34.8713 24.6486 34.8436 24.6232 34.8182 24.6278C34.7052 24.644 34.583 24.7085 34.4885 24.6786C34.3824 24.6463 34.3133 24.5056 34.2049 24.4549C34.1057 24.4088 33.9904 24.2681 33.8752 24.3765C33.7484 24.4964 33.6377 24.6509 33.5593 24.81C33.5062 24.9184 33.5224 24.8192 33.6261 24.8584C33.7737 24.9184 33.7437 24.9968 33.7783 25.112C33.8429 25.3334 33.9328 25.6239 34.311 25.4325C34.447 25.3611 34.5023 25.5432 34.5438 25.6608C34.5646 25.7185 34.5784 25.8245 34.6015 25.8268ZM33.9928 27.7014C34.1611 27.9228 34.1311 28.1487 34.0435 28.3978C34.0366 28.4139 34.032 28.4231 34.0273 28.43C34.0412 28.4208 34.0665 28.4139 34.1127 28.4439C34.138 28.4623 34.2487 28.4185 34.2556 28.3885C34.2879 28.2433 34.2994 28.0911 34.3156 27.9689C34.2948 27.849 34.304 27.7429 34.2579 27.6738C34.2164 27.6115 34.1127 27.5631 34.0366 27.5631C33.9697 27.5631 33.9512 27.6461 33.9928 27.7014ZM30.2597 25.3541C30.3473 25.481 30.4326 25.6101 30.5226 25.7323C30.654 25.9121 30.6379 25.7046 30.6632 25.67C30.7324 25.5755 30.8039 25.5663 30.8892 25.6308C31.0921 25.7807 31.1636 25.979 31.0575 26.2119C31.0252 26.2857 30.9883 26.3364 31.0552 26.3502C31.1059 26.3618 31.2005 26.3456 31.2166 26.3134C31.295 26.1658 31.3642 26.0943 31.5694 26.1266C31.7262 26.1543 31.8 25.949 31.8392 25.7922C31.9775 25.8476 32.0951 25.9006 32.2335 25.956C32.215 26.0159 32.2081 26.0643 32.1896 26.122C32.1089 26.3894 32.1758 26.5508 32.4018 26.6431C32.7223 26.4609 32.7638 26.8967 33.0197 26.9198C33.2249 26.9382 33.4163 27.0973 33.6123 27.1965C33.7253 27.2541 33.8314 27.3233 33.9466 27.3648C33.9974 27.3832 34.0758 27.3625 34.1242 27.3325C34.2464 27.261 34.1472 27.1826 34.1219 27.1042C34.0343 26.8345 34.0619 26.8022 34.3617 26.8252C34.447 26.8321 34.5484 26.8829 34.56 26.7468C34.5623 26.6984 34.5139 26.6177 34.47 26.597C33.9005 26.3318 33.3356 26.0551 32.7499 25.8314C32.6116 25.7784 32.411 25.9052 32.2335 25.956C32.2288 25.8314 32.2219 25.7162 32.2035 25.5916C32.1966 25.5432 32.1389 25.4694 32.102 25.4694C32.0513 25.4671 31.9798 25.5132 31.9498 25.5594C31.9037 25.6308 31.8714 25.7092 31.8392 25.7922C31.8069 25.7922 31.7861 25.8107 31.7562 25.8015C31.6662 25.7669 31.4656 25.8384 31.5579 25.6193C31.6063 25.504 31.6985 25.4095 31.7492 25.2942C31.77 25.2504 31.7515 25.1512 31.717 25.1282C31.438 24.9368 31.159 24.7385 30.8569 24.5817C30.7462 24.5241 30.6563 24.5886 30.7001 24.7754C30.7393 24.946 30.5433 24.8999 30.4419 24.9322C30.3427 24.7777 30.2505 24.6163 30.1421 24.4687C30.1191 24.4388 30.0245 24.4341 29.9761 24.4526C29.9277 24.471 29.8631 24.5333 29.8631 24.5771C29.8654 24.8999 29.9715 25.1743 30.2597 25.3541ZM29.6556 22.2621C29.7086 22.4051 29.7939 22.5365 29.847 22.6818C29.9162 22.8754 30.0914 22.9631 30.2159 23.1014C30.2989 23.1913 30.2989 23.1775 30.6125 23.2513C30.8869 23.3158 31.159 23.4035 31.4195 23.5072C31.6178 23.5856 31.8392 23.664 31.77 23.9707C31.7585 24.0237 31.8761 24.1159 31.9452 24.1782C32.2542 24.4641 32.3095 24.4664 32.6785 24.2428C32.7315 24.2105 32.7914 24.1897 32.8422 24.1551C32.8791 24.1275 32.9067 24.086 32.939 24.0491C32.9044 24.0306 32.8745 24.0168 32.8514 23.9984C32.3925 23.6271 31.9545 23.2144 31.3526 23.0876C31.0552 23.023 30.9284 22.5803 30.5364 22.7371C30.5249 22.7417 30.4465 22.6011 30.4142 22.5227C30.3612 22.4028 30.2943 22.3128 30.1583 22.2713C29.9138 22.1999 29.6302 22.1952 29.6556 22.2621ZM29.2844 24.7892C29.2959 24.8423 29.3374 24.8907 29.3651 24.9414C29.3812 24.9161 29.4043 24.893 29.4181 24.8676C29.4665 24.7546 29.5103 24.644 29.5518 24.531C29.5518 24.531 29.5034 24.501 29.4758 24.4872C29.3466 24.4411 29.2452 24.5956 29.2844 24.7892ZM28.3275 24.5079C28.3575 24.5079 28.3897 24.5102 28.4335 24.5125C28.5119 24.4941 28.6019 24.478 28.6918 24.4549C28.7794 24.4318 28.7748 24.3949 28.6803 24.3557C28.5696 24.3096 28.4589 24.2543 28.3436 24.2289C28.309 24.222 28.2445 24.2981 28.2145 24.3465C28.1568 24.4411 28.2076 24.5079 28.3275 24.5079Z" fill="#131313"/>
</svg>
