<svg width="170" height="49" viewBox="0 0 170 49" fill="none" xmlns="http://www.w3.org/2000/svg">
<path d="M169.828 25.389C169.821 25.3982 169.729 25.359 169.683 25.3314C169.279 25.0893 169.138 25.1169 168.986 25.5389C168.859 25.8963 168.774 26.2698 168.686 26.641C168.562 27.1645 168.5 27.7201 168.191 28.1698C167.891 28.6033 167.84 29.0391 167.96 29.5279C167.99 29.6501 168.006 29.7815 168.002 29.906C167.976 30.577 167.879 31.2203 167.487 31.8014C167.135 32.3271 166.793 32.8597 166.528 33.4454C166.351 33.8397 166.164 34.2547 165.767 34.5176C165.645 34.6006 165.567 34.7597 165.486 34.8957C165.193 35.3915 164.737 35.6174 164.199 35.4952C163.794 35.403 163.383 35.4514 162.975 35.3361C162.588 35.2277 162.12 35.1955 161.827 35.569C161.479 36.0117 161.018 36.0463 160.536 36.0117C159.968 35.9702 159.406 35.8849 158.841 35.818C158.596 35.7904 158.467 35.9402 158.56 36.1524C158.829 36.7634 159.108 37.3721 159.622 37.831C159.763 37.9578 159.86 38.133 159.998 38.2645C160.199 38.4558 160.287 38.6795 160.247 38.9516C160.213 39.2144 160.234 39.4796 160.413 39.6733C160.745 40.0353 160.902 40.4849 161.126 40.9046C161.273 41.1836 161.391 41.4787 161.546 41.7508C161.732 42.0828 161.483 42.3687 161.532 42.6754C161.619 43.2196 161.449 43.7476 161.412 44.2825C161.368 44.912 161.075 45.4838 160.711 46.0211C160.349 46.5537 159.795 46.7981 159.284 47.0771C158.509 47.4968 157.672 47.808 156.86 48.1631C156.773 48.2 156.683 48.2415 156.593 48.26C156.002 48.3822 155.435 48.5874 154.856 48.7373C154.116 48.931 153.339 49.0001 152.576 48.9171C151.951 48.8479 151.331 48.6958 150.722 48.5321C150.328 48.4237 149.922 48.283 149.585 48.0594C148.949 47.6374 148.359 47.1394 147.852 46.5652C146.855 45.4377 146.148 44.1257 145.573 42.7492C145.119 41.6678 144.743 40.5564 144.31 39.4681C144.086 38.9101 143.81 38.3728 143.565 37.8217C143.321 37.273 143.092 36.715 142.839 36.1685C142.742 35.9564 142.668 35.7558 142.742 35.5275C142.767 35.4514 142.753 35.4168 142.68 35.3776C142.329 35.1885 142.336 34.8104 142.23 34.4968C142.219 34.4668 142.216 34.4323 142.221 34.4023C142.228 34.3723 142.249 34.3446 142.262 34.317C142.306 34.34 142.35 34.3654 142.394 34.3908C142.502 34.4553 142.322 34.4922 142.447 34.4715C142.495 34.4622 142.557 34.4507 142.528 34.3746C142.318 33.8535 142.313 33.3232 142.449 32.7905C142.555 32.3847 142.604 31.9812 142.567 31.5639C142.56 31.4832 142.615 31.3886 142.664 31.3149C142.712 31.2434 142.827 31.1996 142.848 31.1235C142.906 30.9344 142.719 30.9575 142.62 30.9044C142.474 30.8306 142.348 30.7315 142.292 30.5747C142.202 30.3188 142.025 30.5978 141.905 30.5009C141.395 30.102 140.824 29.8438 140.189 29.7054C140.026 29.6685 139.984 29.5394 139.984 29.3457C139.982 28.9952 139.691 28.7808 139.258 28.6632C139.018 28.5963 138.792 28.4741 138.562 28.3796C138.359 28.2943 138.11 28.2574 137.962 28.1144C137.794 27.9507 137.727 27.704 137.609 27.4873C138.029 27.5933 138.451 27.6256 138.806 27.9323C138.965 28.0683 139.212 28.1006 139.415 28.1905C139.498 28.2274 139.542 28.2205 139.542 28.1237C139.542 27.9046 139.595 27.6786 139.479 27.4734C139.456 27.4342 139.364 27.395 139.322 27.4089C139.138 27.478 138.97 27.5149 138.804 27.3581C138.64 27.2037 138.4 27.0676 138.218 27.1575C138.006 27.2613 137.847 27.1345 137.678 27.1645C137.54 27.1921 137.598 27.3651 137.609 27.4873C137.261 27.7063 136.92 27.6671 136.574 27.5057C136.454 27.4481 136.429 27.3028 136.44 27.1737C136.454 27.0169 136.576 26.9731 136.708 26.9823C136.798 26.9892 136.885 27.0399 136.975 27.0561C137.026 27.0653 137.086 27.0515 137.137 27.0376C137.199 27.0192 137.15 26.8463 137.051 26.8232C136.77 26.7563 136.629 26.5673 136.551 26.3113C136.343 26.4935 136.081 26.4843 135.864 26.4036C135.562 26.2906 135.221 26.2214 134.985 25.9655C135.167 25.9516 135.345 25.8917 135.52 26.0162C135.719 26.1568 135.94 26.1015 136.154 26.0669C135.986 25.7118 135.633 25.6749 135.313 25.5919C135.257 25.5781 135.156 25.6657 135.103 25.728C135.045 25.7971 135.025 25.8825 134.985 25.9655C134.633 26.0208 134.418 25.7303 134.13 25.6173C134.054 25.5873 134.058 25.5389 134.102 25.4651C134.197 25.3037 134.153 25.163 134.008 25.0524C133.784 24.8841 133.567 24.7273 133.344 24.5612C133.604 24.4483 133.593 24.4413 133.922 24.4805C133.945 24.6258 134.038 24.6904 134.174 24.6489C134.291 24.612 134.379 24.5197 134.402 24.3929C134.404 24.3791 134.317 24.3307 134.268 24.3284C134.178 24.3237 134.088 24.3376 133.996 24.3468C133.978 24.2292 133.913 24.0886 133.955 24.0009C134.003 23.9041 134.148 23.8557 134.252 23.7888C134.395 23.6966 134.55 23.6897 134.706 23.7289C134.829 23.7611 134.953 23.8165 134.988 23.632C135.013 23.4983 134.969 23.3807 134.859 23.3C134.658 23.1547 134.453 23.0164 134.247 22.8757C134.305 22.5598 134.155 22.5852 133.957 22.7028C133.883 22.7466 133.839 22.7443 133.805 22.6682C133.694 22.4284 133.429 22.2186 133.646 21.9073C133.66 21.8865 133.655 21.8427 133.643 21.8151C133.632 21.7874 133.606 21.7551 133.581 21.7482C133.56 21.7413 133.528 21.769 133.503 21.7851C133.348 21.8842 133.353 22.0433 133.346 22.2001C133.341 22.3039 133.288 22.3777 133.185 22.4007C133.078 22.4261 133.018 22.3731 132.959 22.2854C132.91 22.2163 132.832 22.1609 132.763 22.1079C132.601 21.8035 132.301 21.7413 131.997 21.7021C131.958 21.6952 131.903 21.769 131.863 21.8128C131.813 21.8727 131.826 21.9327 131.896 21.9696C132.002 22.0249 132.108 22.1102 132.218 22.1217C132.401 22.1379 132.578 22.1171 132.763 22.1079C132.703 22.2854 132.539 22.2831 132.401 22.3454C132.364 22.3615 132.343 22.4192 132.313 22.4584C132.689 22.6682 132.573 23.1455 132.836 23.4176C132.857 23.4406 132.892 23.4476 132.917 23.466C133.072 23.5767 132.912 23.609 132.862 23.6505C132.758 23.7404 132.68 23.8349 132.786 23.9571C132.968 24.1693 133.152 24.3583 133.344 24.5612C133.219 24.5428 133.104 24.5428 132.984 24.5105C132.832 24.4667 132.689 24.3722 132.537 24.3537C132.368 24.3353 132.207 24.4137 132.08 24.1923C132.02 24.0863 131.845 24.3629 131.679 24.2753C131.573 24.2223 131.46 24.1255 131.395 24.3214C131.347 24.4713 131.305 24.6258 131.255 24.7757C131.202 24.9279 131.077 24.9486 130.953 24.8864C130.789 24.801 130.581 24.8033 130.459 24.6212C130.305 24.3883 130.116 24.3699 129.906 24.5659C129.807 24.6581 129.666 24.7111 129.558 24.6304C129.223 24.3745 128.817 24.303 128.439 24.1577C128.202 24.0655 127.992 23.9156 127.909 23.6459C127.854 23.4683 127.738 23.3 127.731 23.1224C127.727 22.9541 127.674 22.9011 127.533 22.9011C127.143 22.9034 126.823 22.7697 126.479 22.5667C126.08 22.3293 125.707 22.0134 125.225 21.9257C125.084 21.9004 124.985 21.7828 124.794 21.8543C124.649 21.9096 124.552 21.626 124.349 21.5983C124.22 21.5822 124.118 21.4992 124.061 21.6906C124.035 21.7759 123.957 21.7736 123.934 21.6906C123.812 21.2847 123.572 21.1602 123.147 21.2686C122.889 21.3332 122.882 21.2686 122.407 20.9135C122.262 20.8028 122.068 20.7314 121.889 20.7037C121.792 20.6898 121.683 20.8328 121.568 20.8651C121.344 20.9296 121.499 21.1349 121.439 21.1994C121.275 21.3724 121.095 21.068 120.915 21.1579C120.846 21.1925 120.807 21.294 120.749 21.3608C120.694 21.4231 120.42 21.4046 120.341 21.3147C120.24 21.1994 120.39 21.1856 120.445 21.1395C120.524 21.068 120.51 21.0519 120.413 21.0196C120.168 20.9412 120 21.2271 119.79 21.1648C119.278 21.015 118.78 20.8259 118.278 20.6483C118.255 20.6391 118.241 20.5976 118.225 20.57C118.317 20.5538 118.444 20.57 118.497 20.5169C118.621 20.3924 118.577 20.1434 118.82 20.0927C118.882 20.0811 118.859 20.012 118.764 19.9981C118.702 19.9889 118.624 19.9866 118.577 20.0166C118.354 20.1618 118.135 20.2448 117.879 20.0811C117.847 20.0604 117.766 20.1157 117.708 20.1365C117.738 20.1895 117.77 20.2402 117.796 20.2933C117.821 20.3509 117.837 20.4132 117.858 20.4731C117.533 20.4823 117.233 20.3832 116.94 20.2633C116.682 20.1595 116.394 20.0811 116.38 19.7145C116.375 19.643 116.302 19.6523 116.269 19.7422C116.235 19.8321 116.202 19.9289 116.083 19.8805C115.847 19.7883 115.589 19.8252 115.352 19.7007C115.075 19.5554 114.768 19.4263 114.464 19.3917C113.883 19.3248 113.389 19.032 112.848 18.8683C112.76 18.8406 112.753 18.783 112.82 18.7369C112.845 18.7207 112.871 18.6954 112.898 18.6907C113.025 18.6769 113.14 18.6815 113.267 18.67C113.396 18.8637 113.613 18.919 113.825 18.9651C113.874 18.9744 113.936 18.9236 113.991 18.9006C113.954 18.8568 113.922 18.806 113.878 18.7714C113.692 18.617 113.484 18.6216 113.267 18.67C113.143 18.3679 112.822 18.4809 112.605 18.4025C111.93 18.1604 111.24 17.9437 110.54 17.7869C110.237 17.7177 109.924 17.75 109.682 17.4987C109.532 17.3419 109.23 17.5517 109.124 17.2681C109.246 17.2612 109.359 17.2519 109.481 17.2335C109.539 17.2266 109.587 17.1805 109.64 17.1528C109.61 17.1021 109.59 17.0398 109.546 17.0029C109.477 16.9453 109.394 16.8853 109.301 16.966C109.207 17.049 109.115 17.1297 109.124 17.2681C108.935 17.2519 108.757 17.2519 108.57 17.2312C108.414 17.215 108.259 17.1735 108.105 17.1735C108.022 17.1735 108.012 17.245 108.061 17.3073C108.155 17.4272 108.174 17.5655 107.973 17.5286C106.643 17.2704 105.319 16.9776 103.966 16.8185C102.587 16.6547 101.213 16.4288 99.8292 16.2812C99.3289 16.2305 98.8285 16.1406 98.3397 16.023C97.754 15.8823 97.1591 15.8293 96.5642 15.7693C95.4321 15.6587 94.2954 15.5641 93.2093 15.1998C92.7343 15.0407 92.2017 15.1491 91.759 14.8678C91.7406 14.8562 91.7014 14.8701 91.676 14.8816C91.0926 15.1306 90.4885 14.7779 89.9029 14.9393C89.5685 14.8078 89.2204 14.8263 88.8699 14.8263C88.3787 14.824 87.8692 14.9485 87.4034 14.6764C87.3043 14.6164 87.2259 14.6718 87.1475 14.7202C87.0345 14.7917 86.91 14.8332 86.7855 14.7825C86.4811 14.6626 86.1629 14.6787 85.8447 14.6672C85.4343 14.651 85.0261 14.6095 84.618 14.5611C84.5396 14.5519 84.4405 14.4689 84.4082 14.3951C84.3529 14.2729 84.4774 14.2452 84.5604 14.2337C85.289 14.1391 86.0199 14.0838 86.7324 14.3213C87.016 14.4158 87.2927 14.4343 87.5763 14.3582C87.8161 14.2959 88.049 14.5012 88.3027 14.3559C88.3718 14.3167 88.5286 14.4458 88.6508 14.4689C88.833 14.5035 89.0197 14.515 89.2065 14.5288C89.2157 14.5288 89.2365 14.4781 89.2388 14.4504C89.2388 14.4205 89.2319 14.3697 89.2134 14.3605C88.9022 14.2152 88.5863 14.0769 88.2727 13.927C88.2312 13.9063 88.2081 13.8463 88.1758 13.8048C88.2312 13.7771 88.2842 13.7333 88.3419 13.7264C88.6255 13.6918 88.9114 13.6526 89.1973 13.6457C89.4486 13.6365 89.723 13.6111 89.9467 13.6987C90.2395 13.8163 90.4701 13.5258 90.7698 13.6688C90.9405 13.7495 91.1987 13.648 91.4177 13.6296C91.2079 13.5443 91.005 13.4013 90.7906 13.3829C90.477 13.3575 90.1565 13.4221 89.8383 13.4451C89.587 13.4636 89.3333 13.4981 89.0797 13.4912C88.863 13.4843 88.69 13.2814 88.4502 13.3183C88.4295 13.3206 88.3995 13.256 88.3741 13.2215C88.4018 13.2053 88.4295 13.1799 88.4571 13.1776C88.6162 13.1661 88.7822 13.1269 88.9321 13.1592C89.6631 13.3275 90.3871 13.1592 91.1134 13.1431C91.261 13.1384 91.4016 13.007 91.5538 12.9863C91.6829 12.9701 91.729 13.2607 91.9273 13.1338C92.2501 13.2722 92.6237 13.1246 92.935 13.3183C93.2854 13.1823 93.6059 13.3483 93.931 13.429C94.2193 13.5028 94.4129 13.316 94.6412 13.2215C94.6643 13.2099 94.6804 13.173 94.6919 13.1431C94.6943 13.1361 94.6551 13.1039 94.6343 13.1039C94.1316 13.0854 93.6497 12.8733 93.1332 12.9609C93.011 12.9817 92.8842 12.9171 92.8427 12.7695C92.8035 12.615 92.7528 12.4513 92.8612 12.3153C92.9373 12.2207 93.0595 12.1654 93.1494 12.0801C93.2554 11.9809 93.2946 11.8795 93.1148 11.8057C93.0572 11.7826 92.9857 11.7504 92.9603 11.702C92.8473 11.4921 92.7182 11.5728 92.5822 11.6674C92.3977 11.7919 92.3977 11.7919 92.513 12.1262C92.5776 12.3084 92.4692 12.4836 92.317 12.426C91.9781 12.2968 91.6322 12.2692 91.2863 12.343C91.0165 12.4006 90.9128 12.0478 90.7099 12.1101C90.4954 12.1746 90.2948 12.2646 90.0666 12.2231C90.0066 12.2138 89.9444 12.1839 89.8913 12.1493C89.7345 12.0455 89.5847 11.9187 89.3864 12.0616C89.2204 11.808 89.0474 11.7458 88.7776 11.951C88.6762 12.0271 88.4687 11.9694 88.3119 11.9602C88.2519 11.9556 88.192 11.9164 88.1389 11.8841C88.0859 11.8495 87.996 11.7873 88.0029 11.7619C88.0329 11.6604 88.1343 11.6697 88.2243 11.6604C88.3027 11.6535 88.388 11.8195 88.4479 11.6581C88.4641 11.612 88.4202 11.5359 88.388 11.4852C88.2404 11.2731 88.2035 11.2615 87.913 11.3745C87.7377 11.4414 87.5118 11.5913 87.3919 11.416C87.2443 11.2016 87.5256 11.1232 87.6547 11.001C87.7124 10.948 87.8161 10.888 87.7331 10.7935C87.7031 10.7589 87.604 10.752 87.5556 10.775C87.3273 10.8742 87.076 10.9549 86.8869 11.1094C86.6425 11.3077 86.3082 11.1071 86.0868 11.3446C86.0315 11.4045 85.9046 11.4345 85.8493 11.3169C85.8101 11.2339 85.7663 11.1301 85.7847 11.0494C85.8147 10.8949 85.8908 10.752 85.9415 10.6021C86.0384 10.3323 86.0361 10.3208 85.794 10.3346C85.0953 10.3761 84.3944 10.4222 83.6957 10.4684C83.2207 10.5006 82.7434 10.5145 82.2708 10.5767C82.0517 10.6044 81.858 10.496 81.6251 10.5514C81.4038 10.6044 81.1386 10.4153 80.8988 10.5444C80.6083 10.7012 80.2855 10.7059 79.9788 10.7819C79.9442 10.7912 79.9189 10.8442 79.8912 10.8788C79.9189 10.8903 79.9465 10.9134 79.9765 10.9157C80.1033 10.9272 80.2324 10.9203 80.357 10.941C80.5345 10.9687 80.5737 11.1186 80.4054 11.2708C80.2463 11.4183 80.3224 11.4414 80.4584 11.5013C80.5968 11.5636 80.6313 11.6789 80.5414 11.808C80.4307 11.9648 80.3062 12.1055 80.0941 12.1308C79.9373 12.147 79.7828 12.1723 79.6306 12.2138C79.5984 12.2231 79.5822 12.313 79.5707 12.366C79.5661 12.3845 79.5984 12.4283 79.6168 12.4306C79.7713 12.4444 79.9304 12.4744 80.0849 12.4605C80.3685 12.4352 80.6521 12.396 80.9357 12.4652C81.0441 12.4905 81.0717 12.592 81.0579 12.6865C81.051 12.7442 80.9934 12.7926 80.9634 12.8479C80.8481 13.0716 80.8481 13.0716 80.6752 12.8802C80.4492 12.6289 80.4307 12.6266 80.1056 12.7626C79.9903 12.811 79.8797 12.8387 79.7621 12.8825C79.7252 12.8387 79.6906 12.7741 79.6468 12.7626C79.4277 12.7073 79.211 12.7372 79.015 12.8479C78.9643 12.8756 78.9182 12.9378 78.9066 12.9909C78.8767 13.1177 78.9873 13.1131 79.068 13.15C79.2156 13.2145 79.347 13.2607 79.4808 13.1108C79.5615 13.0185 79.6652 12.9609 79.7621 12.8825C79.7967 12.9955 79.8935 13.1154 79.8635 13.2053C79.8289 13.3068 79.6975 13.4036 79.5868 13.4405C79.407 13.4981 79.211 13.5005 79.0219 13.5373C78.6807 13.6042 78.3164 13.5166 77.9935 13.6895C78.3579 13.8394 78.7245 13.7011 79.0888 13.6872C79.6929 13.6665 80.297 13.6134 80.9011 13.5719C81.0049 13.565 81.0879 13.6065 81.1294 13.7011C81.1963 13.8509 81.0741 13.9339 80.9887 14.0216C80.8781 14.1368 80.8435 14.0077 80.7835 13.9478C80.6083 13.7679 80.5737 13.7656 80.4331 13.9339C80.3731 14.0054 80.3339 14.1484 80.2739 14.153C79.9073 14.1899 79.5868 14.4942 79.1856 14.3328C79.0611 14.2821 78.9435 14.3582 78.849 14.4573C78.7383 14.5703 78.6276 14.6971 78.457 14.7064C78.3325 14.711 78.208 14.6925 78.0812 14.6833C78.0673 14.2014 77.7722 14.4043 77.5831 14.5081C77.341 14.6418 77.145 14.5196 76.9444 14.455C76.7738 14.3974 76.6262 14.2775 76.4671 14.1853C76.1236 14.3766 75.9921 13.9501 75.72 13.9293C75.6578 13.9224 75.6716 13.8509 75.75 13.8002C75.8008 13.7656 75.893 13.7264 75.8907 13.6918C75.8907 13.5604 75.7731 13.6065 75.7039 13.6088C75.5125 13.6157 75.3626 13.595 75.1943 13.4451C74.8784 13.1661 74.7516 13.2145 74.4473 13.5673C74.3896 13.6319 74.3066 13.7264 74.2374 13.7264C73.7209 13.7149 73.2782 14.0677 72.7571 14.0146C72.7295 14.0123 72.7018 14.0377 72.6718 14.0515C72.5865 14.0884 72.6257 14.1184 72.6534 14.1945C72.8355 14.6971 72.7986 14.7594 72.3744 14.8816C72.2153 14.9277 72.0769 14.9416 71.9178 14.8839C71.8302 14.8493 71.738 14.9024 71.6896 14.9992C71.6504 15.073 71.6573 15.1814 71.5189 15.1791C71.3714 15.1744 71.2215 15.1975 71.0716 15.2183C70.984 15.2298 70.8226 15.4788 70.8295 15.5756C70.8364 15.6587 71.0024 15.714 71.1408 15.661C71.2584 15.6148 71.3621 15.5226 71.482 15.4996C71.6342 15.4673 71.7956 15.4811 71.9524 15.4857C72.0239 15.488 72.0262 15.548 71.9409 15.5918C71.655 15.7347 71.8302 15.7878 71.9824 15.8546C72.0101 15.8639 72.0285 15.8938 72.0516 15.9146C71.9939 15.9423 71.9386 15.9745 71.8809 15.993C71.6411 16.0691 71.4405 16.2374 71.1684 16.2489C70.6912 16.2697 70.2162 16.325 69.7389 16.3665C69.4091 16.3965 69.1163 16.2881 68.8373 16.1198C68.6482 16.0068 68.4269 15.9307 68.2701 15.7809C67.9703 15.4949 67.6222 15.5019 67.2924 15.6102C66.8359 15.7601 66.3794 15.8454 65.9044 15.9077C65.6392 15.9423 65.3648 16.0852 65.2472 16.3734C65.185 16.5256 65.0904 16.5418 64.9521 16.5141C64.8668 16.4957 64.763 16.4588 64.6892 16.4864C64.2442 16.6524 63.8061 16.8323 63.3404 16.9384C63.232 16.9637 63.1467 17.0975 63.0521 17.1805C63.1582 17.2981 63.2597 17.2127 63.3703 17.1828C63.8868 17.0421 64.4056 16.9015 64.9267 16.7816C65.1089 16.7401 65.3072 16.7608 65.4962 16.7562C65.5262 16.7562 65.5562 16.7793 65.5862 16.7908C65.5331 16.8254 65.4847 16.8623 65.4317 16.8922C65.404 16.9084 65.3671 16.9038 65.3395 16.9199C65.2864 16.9476 65.238 16.9845 65.1873 17.0191C65.2311 17.049 65.2726 17.0998 65.3187 17.1044C65.4455 17.1136 65.5723 17.0998 65.6992 17.1021C65.7268 17.1021 65.7545 17.132 65.7822 17.1482C65.7545 17.1851 65.7291 17.2519 65.6969 17.2542C65.0582 17.3211 64.5071 17.6647 63.896 17.8307C63.1029 18.0451 62.3212 18.3103 61.5534 18.6008C60.9908 18.813 60.4604 19.1035 59.9117 19.3525C59.3952 19.5854 58.8556 19.7791 58.3576 20.0512C57.8803 20.3117 57.3707 20.4869 56.8657 20.6599C56.4761 20.7936 56.1071 20.9573 55.7313 21.1187C55.2655 21.3193 54.7905 21.5338 54.2994 21.6237C53.8221 21.7113 53.3932 21.9004 52.9436 22.048C52.464 22.207 51.9775 22.3408 51.5117 22.5414C50.2597 23.0832 49.0146 23.6366 47.8064 24.2684C46.4828 24.9578 45.1524 25.6288 43.8243 26.3113C43.6099 26.422 43.6052 26.475 43.769 26.6226C44.5506 27.3236 45.3346 28.0222 46.1116 28.7255C47.1631 29.6754 47.8548 30.9183 48.7771 31.972C48.8578 32.0665 48.9062 32.191 48.9708 32.2994C49.1022 32.5185 49.1022 32.7467 48.9154 32.9104C48.6549 33.1341 48.7056 33.3301 48.8785 33.5653C48.9408 33.6483 48.8463 33.7705 48.7494 33.7451C48.6595 33.7244 48.5765 33.6737 48.4843 33.6529C48.1914 33.5837 48.0969 33.6275 48.0208 33.9319C47.9793 34.0979 47.9286 34.2224 47.7579 34.2893C47.5827 34.3562 47.4144 34.4415 47.2461 34.5268C47.1239 34.5867 47.1815 34.679 47.2184 34.762C47.2576 34.8519 47.2945 34.9464 47.1999 35.0156C47.1561 35.0479 47.0685 35.0733 47.0247 35.0502C46.6858 34.8796 46.4852 35.041 46.3284 35.3223C46.2961 35.3776 46.2661 35.4353 46.2454 35.4952C46.1969 35.6359 46.1162 35.6843 45.9617 35.6474C45.8096 35.6105 45.6343 35.5575 45.4937 35.6013C45.1547 35.705 44.8734 35.5621 44.5783 35.456C44.3431 35.3684 44.1079 35.2762 43.8704 35.1932C43.852 35.1862 43.8151 35.2185 43.7989 35.2416C43.7897 35.2531 43.7989 35.2969 43.8151 35.3061C44.1379 35.4998 44.463 35.6912 44.7858 35.8849C44.8042 35.8964 44.8204 35.9402 44.8135 35.9541C44.8019 35.9794 44.7604 36.014 44.7443 36.0094C44.4884 35.9287 44.2578 36.0048 44.0203 36.0901C43.8681 36.1454 43.7113 36.0878 43.5568 36.0394C42.3186 35.6382 41.085 35.2301 39.893 34.6997C38.7839 34.2086 37.7486 33.593 36.7617 32.8943C36.0907 32.4193 35.429 31.9328 34.7534 31.4647C34.343 31.1811 34.1908 30.9505 34.1908 30.3787C34.1931 30.1896 34.1147 30.1597 33.9833 30.1942C33.4944 30.3257 33.0102 30.4663 32.5237 30.6047C32.0072 30.7545 31.4654 30.8491 30.9788 31.0681C30.5061 31.2826 29.9897 31.2687 29.5101 31.4647C29.0212 31.663 28.4356 31.5454 27.9306 31.776C27.6101 31.6446 27.3103 31.9259 27.0037 31.8337C26.6532 31.7299 26.305 31.7599 25.9592 31.8037C24.6564 31.9674 23.349 31.7875 22.0463 31.8798C21.9517 31.8867 21.8572 31.8682 21.7627 31.8567C20.8542 31.7299 19.9342 31.7207 19.0234 31.5962C18.1795 31.4786 17.3171 31.4809 16.4755 31.3471C14.9422 31.1004 13.4296 30.7384 11.9677 30.2127C10.6465 29.7377 9.38066 29.1451 8.27159 28.2551C7.52452 27.6579 6.80742 27.0261 6.12952 26.3551C5.38015 25.6173 4.67919 24.831 4.08661 23.9571C3.24731 22.7189 2.41954 21.4715 1.69322 20.1618C1.22976 19.3294 0.810106 18.4717 0.358174 17.6347C0.25672 17.4433 0.252108 17.2658 0.337422 17.0905C0.609503 16.5279 0.508049 15.963 0.30053 15.4258C0.199075 15.1583 0.176018 14.9393 0.307447 14.7018C0.498826 14.3536 0.554165 14.0008 0.441182 13.6088C0.365091 13.3367 0.429653 13.09 0.766296 13.037C0.886196 13.0185 0.94384 12.9355 0.946146 12.8479C0.957675 12.5966 1.07066 12.4421 1.30124 12.343C1.36349 12.3153 1.43958 12.1516 1.41652 12.117C1.26204 11.9002 1.37963 11.7665 1.52951 11.6305C1.60099 11.5682 1.67708 11.506 1.73703 11.4322C2.11978 10.9664 2.59708 10.7451 3.21733 10.7451C3.63007 10.7451 4.0428 10.8096 4.45092 10.7889C5.29945 10.7474 6.0004 11.0932 6.66216 11.5521C7.57755 12.1839 8.46758 12.8548 9.38758 13.4843C10.1185 13.9847 10.8448 14.4989 11.6518 14.8885C12.5972 15.3451 13.5126 15.8593 14.458 16.3181C14.8822 16.5256 15.3342 16.6916 15.7907 16.8115C16.4017 16.9729 17.0289 17.0813 17.6515 17.1874C18.3063 17.3004 18.9635 17.4456 19.6206 17.4641C20.3216 17.4825 21.0064 17.5794 21.6958 17.6601C22.5143 17.7546 23.3352 17.833 24.1561 17.8768C24.5042 17.8953 24.8478 17.9183 25.196 17.9598C25.6963 18.0198 26.222 18.0544 26.7132 17.9713C27.2504 17.8791 27.7876 17.8561 28.3249 17.7915C28.9267 17.72 29.5423 17.7108 30.128 17.5724C31.1149 17.3419 32.0856 17.0398 33.0563 16.7493C35.0047 16.1659 36.8632 15.3474 38.7101 14.5127C39.9506 13.9501 41.1957 13.4036 42.4962 12.9932C42.9481 12.8502 43.3839 12.6289 43.845 12.5389C44.3846 12.4375 44.878 12.2369 45.3853 12.0501C46.7526 11.5475 53.9097 8.91196 54.477 8.70906C54.6245 8.65602 54.5923 8.38164 54.8136 8.4462C55.0396 8.50845 55.1618 8.43467 55.2448 8.21101C55.2955 8.08419 55.5883 8.03577 55.4869 7.86284C55.3485 7.63226 55.1618 7.87437 54.9958 7.90434C54.8713 7.9297 54.7467 7.95507 54.6199 7.96199C54.5761 7.96429 54.5277 7.91356 54.4816 7.8882C54.5 7.86053 54.5139 7.82594 54.5392 7.8098C54.7836 7.66224 55.0165 7.48008 55.2794 7.37632C56.2178 7.00278 57.1701 6.65923 58.1224 6.32027C58.7288 6.10353 59.3629 6.07817 59.9693 5.88448C60.661 5.66313 61.4012 5.60548 62.1114 5.43716C62.8239 5.26654 63.5363 5.10283 64.2719 5.08208C64.3341 5.07977 64.3987 5.05671 64.4517 5.02443C64.7353 4.84458 65.0628 4.85611 65.3764 4.82613C65.6876 4.79616 66.0012 4.71546 66.3171 4.80077C66.0658 5.03135 65.7453 4.93912 65.4547 4.98754C65.3302 5.00829 65.1781 4.98985 65.0812 5.0521C64.7146 5.29651 64.2765 5.22042 63.8868 5.35416C63.4741 5.49481 63.059 5.6101 62.6163 5.61932C62.5264 5.62163 62.3765 5.65391 62.3581 5.70464C62.2797 5.95596 62.1137 5.90293 61.92 5.90062C61.5395 5.89832 61.1591 5.94213 60.7786 5.97672C60.6864 5.98594 60.6011 6.03436 60.585 6.14965C60.5481 6.41481 60.306 6.45862 60.1561 6.39406C59.8264 6.25341 59.635 6.39406 59.4528 6.62233C59.4228 6.65923 59.4136 6.71687 59.3952 6.76299C59.4551 6.78374 59.5151 6.82293 59.5727 6.82063C60.3083 6.78604 60.9931 6.51165 61.7033 6.35025C62.5656 6.15426 63.4118 5.88448 64.2742 5.67466C64.8898 5.52478 65.517 5.42102 66.1373 5.29651C66.4716 5.02904 66.7183 5.2112 66.9604 5.451C67.1126 5.60088 67.2694 5.59626 67.4792 5.51326C67.7951 5.38644 68.1294 5.40027 68.4223 5.63085C68.4961 5.68849 68.5698 5.74614 68.6505 5.79686C68.6713 5.813 68.7289 5.81531 68.7336 5.8084C68.7543 5.75075 68.7728 5.6908 68.782 5.63085C68.7889 5.60087 68.7866 5.56398 68.7751 5.53631C68.7266 5.42564 68.6021 5.27346 68.6367 5.2135C68.752 5.02213 68.9088 5.18584 69.0494 5.22503C69.2408 5.27806 69.4368 5.26192 69.6097 5.18122C70.0571 4.96909 70.5367 4.98523 71.0094 4.94142C71.3137 4.91375 71.5143 4.95526 71.5143 5.31496C71.512 5.34493 71.6042 5.40258 71.6504 5.40027C71.7011 5.39796 71.7887 5.34493 71.791 5.30804C71.8048 5.08207 71.8809 4.88147 71.9778 4.67857C72.0677 4.49641 72.2245 4.45721 72.3721 4.48719C72.5611 4.52177 72.4067 4.58403 72.3582 4.63937C72.3306 4.67165 72.326 4.72468 72.3098 4.76849C72.5588 4.79616 72.5842 4.98293 72.6096 5.17892C72.6142 5.22273 72.6833 5.25731 72.7202 5.29651C72.7433 5.27345 72.7802 5.2527 72.7848 5.22734C72.8148 5.00829 72.937 4.81922 72.9416 4.58403C72.9485 4.27736 73.0061 4.24047 73.2529 4.20819C73.9123 4.11826 74.5718 4.0537 75.2197 3.86232C75.6048 3.74703 76.0452 3.73781 76.4487 3.77931C76.7899 3.81621 77.115 3.83004 77.4448 3.74703C77.9659 3.6156 78.4962 3.55796 79.0311 3.51876C79.1879 3.50723 79.354 3.4934 79.4992 3.43575C79.9212 3.26974 80.3639 3.2559 80.8043 3.19826C81.27 3.136 81.7104 2.91695 82.19 2.88006C82.4114 2.86392 82.6535 2.87545 82.8495 2.79014C83.3337 2.58262 83.8433 2.58723 84.3459 2.52036C84.5673 2.49269 84.814 2.51575 84.9985 2.41891C85.2683 2.27826 85.5472 2.26673 85.8286 2.23906C86.5572 2.16297 87.2881 2.09149 88.019 2.02232C88.3995 1.98773 88.7822 1.99234 89.1466 1.83555C89.2572 1.78943 89.4025 1.76637 89.5178 1.79404C89.9951 1.90933 90.4747 1.85399 90.9451 1.78943C91.902 1.66262 92.8496 1.87936 93.8019 1.81018C94.323 1.98081 94.8741 1.8563 95.409 1.98081C95.8656 2.08918 96.3544 2.10532 96.8271 2.08688C97.5603 2.05921 98.2843 2.26903 99.0176 2.15836C100.145 2.29901 101.273 2.44197 102.382 2.71866C105.273 3.44036 108.153 4.19896 110.994 5.10975C111.093 5.14202 111.176 5.1328 111.25 5.06133C111.918 4.41571 112.742 3.97761 113.468 3.41039C114.275 2.7763 115.151 2.26903 116.09 1.86783C117.136 1.42281 118.112 0.809479 119.265 0.613487C119.797 0.523563 120.314 0.34602 120.862 0.477448C121.028 0.518951 121.171 0.463612 121.326 0.415192C121.441 0.380604 121.589 0.350628 121.695 0.392136C121.981 0.498199 122.262 0.440556 122.548 0.431332C123.104 0.41058 123.622 0.525867 124.063 0.890182C124.312 1.09539 124.584 1.22682 124.911 1.27525C125.668 1.38362 125.737 2.1353 126.108 2.60337C126.115 2.61259 126.083 2.65871 126.069 2.68638C126 2.8155 126.023 2.91926 126.133 3.02071C126.249 3.12447 126.445 3.24668 126.442 3.35966C126.438 3.79315 126.807 4.10443 126.781 4.5333C126.765 4.77079 126.927 4.8515 127.113 4.92989C127.19 4.96217 127.233 5.07055 127.291 5.14202C127.017 5.20889 127.183 5.51095 127.037 5.63316C126.325 6.21651 125.612 6.79757 124.888 7.36479C124.665 7.54003 124.402 7.66454 124.164 7.82133C123.897 7.99427 123.634 8.17181 123.376 8.35858C123.143 8.5269 122.945 8.78514 122.689 8.86585C122.317 8.98114 122.562 9.43999 122.202 9.55297C122.015 9.61292 121.882 9.84119 121.725 9.99337C121.868 10.1871 122.124 10.0879 122.297 10.2147C122.423 10.307 122.569 10.3738 122.698 10.4614C122.802 10.5283 122.776 10.7082 122.654 10.7773C122.601 10.8073 122.532 10.8096 122.474 10.835C122.417 10.8603 122.366 10.8972 122.313 10.9272C122.361 10.9572 122.41 11.0079 122.46 11.0125C122.654 11.0264 122.852 11.0402 122.988 11.1947C123.24 11.4783 123.611 11.22 123.888 11.416C124.035 11.5198 124.18 11.3768 124.323 11.3123C124.406 11.2731 124.51 11.2523 124.6 11.2662C124.826 11.2961 124.856 11.6259 125.112 11.6236C125.096 11.6674 125.084 11.7435 125.059 11.7504C124.925 11.785 124.815 11.8541 124.768 11.9763C124.681 12.2023 124.997 12.1539 125.013 12.3061C125.022 12.3914 124.997 12.4882 124.967 12.5735C124.937 12.6519 124.946 12.7119 125.031 12.7142C125.151 12.7142 125.276 12.6934 125.393 12.6658C125.476 12.6473 125.534 12.5044 125.635 12.5874C125.73 12.6635 125.806 12.7672 125.882 12.8618C125.901 12.8825 125.903 12.924 125.901 12.954C125.854 13.4843 126.067 13.8071 126.615 13.8855C126.735 13.9017 126.878 13.9524 126.952 14.04C127.106 14.2199 127.374 14.2268 127.503 14.3882C127.678 14.6049 127.86 14.7317 128.135 14.7041C128.379 14.681 128.455 14.9439 128.674 15.0061C128.942 15.0799 129.223 15.2298 129.41 15.4304C129.636 15.6702 130.067 15.4557 130.203 15.8639C130.242 15.9861 130.443 15.8039 130.604 15.85C130.768 15.8961 130.701 15.6771 130.731 15.5733C130.793 15.3543 130.957 15.2575 131.149 15.3589C131.252 15.4142 131.347 15.5065 131.416 15.6033C131.457 15.6587 131.305 15.7947 131.46 15.8293C131.633 15.8662 131.642 15.7324 131.658 15.601C131.674 15.4788 131.72 15.3566 131.771 15.2436C131.794 15.1975 131.868 15.1721 131.923 15.1468C131.93 15.1422 131.972 15.186 131.983 15.2136C132.022 15.3013 132.029 15.4327 132.092 15.4696C132.271 15.5687 132.207 15.3174 132.318 15.2805C132.463 15.2344 132.567 15.2367 132.608 15.3935C132.449 15.6333 132.449 15.7163 132.597 15.7394C133.044 15.8039 133.468 15.9008 133.694 16.3573C133.701 16.3711 133.747 16.3827 133.766 16.3758C134.155 16.1821 134.199 16.6248 134.423 16.7401C134.432 16.7447 134.407 16.8623 134.37 16.9038C134.333 16.9453 134.257 16.9799 134.206 16.9729C134.158 16.966 134.118 16.8969 134.077 16.8554C134.026 16.8092 133.987 16.604 133.915 16.7677C133.77 17.1021 133.694 17.4687 133.595 17.8215C133.59 17.8399 133.625 17.8791 133.648 17.8929C133.664 17.9045 133.708 17.9045 133.719 17.8906C133.782 17.8192 133.844 17.7477 133.895 17.6693C134.031 17.4595 134.033 17.4572 134.164 17.607C134.289 17.7477 134.407 17.9713 134.612 17.8953C134.969 17.7684 135.26 17.6831 135.41 18.1581C135.426 18.2134 135.578 18.2204 135.661 18.2619C136.166 18.5178 136.682 18.7599 137.171 19.0458C137.452 19.2095 137.766 19.2165 138.057 19.3156C138.246 19.168 138.416 19.3433 138.598 19.3456C138.781 19.3479 138.861 19.4701 138.967 19.5946C139.108 19.756 139.062 19.9635 139.147 20.1203C139.269 20.3463 139.583 20.1203 139.742 20.3232C139.929 20.5584 140.141 20.6045 140.406 20.4247C140.521 20.3463 140.651 20.3855 140.681 20.5561C140.704 20.6806 140.717 20.8074 140.75 20.9297C140.773 21.015 140.83 21.0242 140.895 20.9758C141.091 20.8351 141.257 20.8559 141.329 21.1026C141.409 21.3816 141.584 21.5776 141.863 21.5545C142.152 21.5292 142.262 21.8566 142.539 21.8128C142.892 21.7597 143.003 22.0618 143.164 22.2762C143.258 22.4007 143.381 22.38 143.505 22.3754C143.602 22.3708 143.701 22.3592 143.791 22.38C143.842 22.3892 143.883 22.4561 143.927 22.4976C144.07 22.6244 144.25 22.6059 144.273 22.4515C144.314 22.1425 144.301 21.8289 144.421 21.5292C144.504 21.3216 144.663 21.3724 144.803 21.3378C144.819 21.4623 144.801 21.5868 144.847 21.6975C144.907 21.8404 144.61 21.9742 144.831 22.0733C144.974 22.1379 145.126 22.0226 145.264 21.9396C145.477 21.8105 145.712 21.7321 145.779 21.4531C146.071 21.4715 146.325 21.3839 146.6 21.2847C148.034 20.7682 149.489 20.3255 151.029 20.2518C151.28 20.2402 151.534 20.1895 151.778 20.1272C152.652 19.9128 153.544 19.8667 154.432 19.8944C154.845 19.9082 155.258 19.9151 155.668 19.8851C156.874 19.7975 158.073 19.6938 159.288 19.7583C159.828 19.7883 160.383 19.7768 160.891 19.9289C161.446 20.095 162.018 20.0811 162.572 20.2241C163.245 20.397 163.923 20.5584 164.603 20.6898C164.988 20.7659 165.318 20.8997 165.613 21.1718C165.843 21.3839 166.129 21.5476 166.415 21.6859C166.89 21.9165 167.227 22.2854 167.531 22.7005C167.605 22.8042 167.679 22.908 167.748 23.0141C168.133 23.6067 168.56 24.1531 169.155 24.5566C169.337 24.6811 169.489 24.8495 169.653 25.0016C169.701 25.0455 169.74 25.0962 169.784 25.1423C169.853 25.2138 169.895 25.2968 169.828 25.389ZM64.2327 17.3926C64.2949 17.3995 64.3595 17.3857 64.4771 17.3765C64.544 17.3603 64.6662 17.335 64.7861 17.3027C64.8137 17.2958 64.8322 17.2658 64.8552 17.2473C64.8276 17.2312 64.8022 17.2127 64.7722 17.2035C64.5832 17.1482 64.3964 17.1689 64.2165 17.2289C64.1589 17.2473 64.1128 17.2958 64.0644 17.3303C64.1197 17.3511 64.175 17.3834 64.2327 17.3926ZM46.6166 12.283C46.5866 12.2761 46.5543 12.2853 46.3284 12.3038C46.2684 12.3084 46.0517 12.419 45.8442 12.5597C45.7888 12.5989 45.7865 12.6542 45.8534 12.7027C45.9202 12.7488 46.0401 12.8272 46.0678 12.8041C46.25 12.6611 46.333 12.3798 46.6466 12.4167C46.6904 12.4213 46.7411 12.3614 46.7872 12.3291C46.7319 12.313 46.6742 12.2945 46.6166 12.283ZM47.3037 13.3091C47.2945 13.2837 47.253 13.2422 47.2391 13.2468C47.1584 13.2791 47.08 13.3183 47.0016 13.3598C46.6996 13.5189 46.4068 13.708 46.0424 13.6964C46.0032 13.6941 45.9641 13.7518 45.9249 13.7794C45.9433 13.8117 45.9571 13.8417 45.9779 13.8625C45.9986 13.8855 46.0332 13.9201 46.0517 13.9132C46.4875 13.7979 46.9601 13.7656 47.2899 13.399C47.3083 13.3806 47.3129 13.3344 47.3037 13.3091ZM49.5126 21.0426C49.7501 21.0449 49.9023 20.8536 50.0937 20.7798C50.1191 20.7521 50.1398 20.7314 50.1582 20.7106C50.1006 20.6945 50.043 20.6622 49.983 20.6599C49.7455 20.653 49.5956 20.8443 49.3973 20.9273C49.372 20.9389 49.3558 20.9735 49.3351 20.9988C49.395 21.0127 49.455 21.0426 49.5126 21.0426ZM49.7109 11.4691C49.5864 11.4668 49.4619 11.476 49.2959 11.4806C48.9454 11.4714 48.6019 11.5728 48.3159 11.861C48.2375 11.9394 48.0877 11.9464 47.9747 11.9971C47.9424 12.0109 47.9263 12.0663 47.9032 12.1008C47.9309 12.1124 47.9608 12.1331 47.9908 12.1331C48.2422 12.1262 48.4958 12.1377 48.7171 11.9902C48.9546 11.8334 49.176 11.8933 49.4296 11.974C49.6879 12.0547 49.621 11.8703 49.5518 11.725C49.5472 11.7181 49.6441 11.6604 49.6948 11.6259C49.7202 11.6074 49.7455 11.5936 49.7663 11.5728C49.8308 11.5106 49.8101 11.4691 49.7109 11.4691ZM49.7824 20.1042C49.4665 20.2402 49.1622 20.4016 48.8555 20.5561C48.8117 20.5792 48.7817 20.6276 48.7448 20.6645C48.7771 20.6806 48.8071 20.7037 48.8347 20.7037C48.897 20.706 48.9685 20.7152 49.0192 20.6875C49.3028 20.54 49.6095 20.4869 49.9208 20.4362C50.0084 20.4224 50.0983 20.3809 50.1744 20.3301C50.2182 20.2979 50.2574 20.2264 50.2597 20.1711C50.262 20.1388 50.1928 20.0719 50.1559 20.0696C50.0314 20.0673 49.8931 20.0581 49.7824 20.1042ZM51.0344 11.1924C51.0068 11.1832 50.9768 11.1808 50.9491 11.1808C50.9169 11.1808 50.8869 11.1878 50.8569 11.1924C50.6563 11.2708 50.4557 11.3446 50.2597 11.4299C50.2205 11.446 50.1951 11.4944 50.1652 11.5267C50.2228 11.5359 50.2805 11.5475 50.3404 11.5521C50.6056 11.5774 50.8085 11.4345 51.0183 11.3031C51.099 11.2523 51.1082 11.22 51.0344 11.1924ZM52.743 19.5462C52.7223 19.5231 52.6831 19.4955 52.6623 19.5024C52.3948 19.6015 52.1527 19.7376 51.9729 19.9681C51.9637 19.9797 51.9775 20.0096 51.9821 20.0304C52.0098 20.0419 52.0421 20.0673 52.0651 20.0604C52.3349 19.9774 52.5978 19.8759 52.7522 19.6154C52.7615 19.5992 52.7569 19.56 52.743 19.5462ZM56.9096 18.783C56.9672 18.8083 57.0479 18.8591 57.1332 18.8729C57.1816 18.8798 57.2393 18.8245 57.2923 18.7968C57.2739 18.7714 57.2623 18.7369 57.2393 18.7207C57.1632 18.6723 57.0871 18.6147 57.0018 18.5916C56.9603 18.5824 56.9003 18.6446 56.8473 18.6723C56.8634 18.7 56.8773 18.7276 56.9096 18.783ZM54.2279 19.3225C54.2556 19.3294 54.2879 19.3248 54.3202 19.3225C54.4447 19.3087 54.5669 19.2879 54.6407 19.1727C54.6568 19.1496 54.6614 19.1104 54.6545 19.0827C54.6476 19.0551 54.613 19.0136 54.6015 19.0159C54.4562 19.0597 54.3133 19.1035 54.1726 19.1611C54.1242 19.1819 54.0896 19.2372 54.0481 19.2764C54.108 19.2926 54.1657 19.311 54.2279 19.3225ZM55.5515 16.2443C55.5146 16.2143 55.4408 16.2282 55.3877 16.2351C55.3624 16.2374 55.3163 16.2835 55.3209 16.2927C55.3739 16.4011 55.4339 16.5095 55.4961 16.6132C55.5123 16.6363 55.5445 16.6501 55.5699 16.6663C55.5814 16.6386 55.6022 16.6109 55.6045 16.581C55.6114 16.4657 55.669 16.3342 55.5515 16.2443ZM56.4392 7.80289C56.4346 7.77522 56.4207 7.73141 56.4 7.7268C56.3147 7.69682 56.2247 7.67838 56.1486 7.65993C56.0403 7.69221 55.9504 7.71527 55.8627 7.74524C55.8466 7.74986 55.8397 7.77983 55.8281 7.79597C56.0311 7.82825 56.234 7.85823 56.4369 7.8882C56.4369 7.86053 56.4461 7.83055 56.4392 7.80289ZM56.8819 16.0829C56.7551 16.0622 56.6444 16.0276 56.5637 15.9146C56.5245 15.8593 56.483 15.7324 56.3884 15.8777C56.2386 16.1106 56.0818 16.3389 55.925 16.5717C55.9665 16.6063 56.0034 16.664 56.0426 16.6686C56.1971 16.6778 56.3469 16.6594 56.4692 16.5372C56.6006 16.4103 56.6997 16.2397 56.9072 16.2097C56.9603 16.2028 57.0064 16.1613 57.0571 16.1336C56.9995 16.1175 56.9418 16.0921 56.8819 16.0829ZM57.3223 17.4295C57.2808 17.3004 57.0318 17.3949 56.9026 17.4456C56.6905 17.5332 56.423 17.5632 56.3285 17.8307C55.8627 17.8307 55.4592 18.0221 55.0649 18.2434C55.0465 18.255 55.035 18.2895 55.0257 18.3172C54.6499 18.331 54.3133 18.4348 53.9997 18.6469C53.9858 18.6585 53.9812 18.6838 53.972 18.7023C53.9997 18.7138 54.0273 18.7322 54.0573 18.7369C54.085 18.7415 54.1196 18.7415 54.1472 18.7299C54.4447 18.61 54.7929 18.5732 55.0257 18.3172C55.503 18.3495 55.8812 18.0705 56.3031 17.9137C56.3193 17.9091 56.3216 17.8607 56.3285 17.8307C56.5821 17.833 56.8081 17.7592 57.0225 17.6186C57.1263 17.5517 57.3868 17.6209 57.3223 17.4295ZM57.8365 6.97742C57.7143 6.94283 57.599 6.97742 57.5367 7.10193C57.5091 7.15266 57.4722 7.22644 57.4906 7.26564C57.5091 7.30254 57.5921 7.30945 57.6451 7.3279C57.7673 7.3302 57.8941 7.31868 57.9425 7.18724C57.9725 7.10193 57.9333 7.00509 57.8365 6.97742ZM58.3737 6.94053C58.2815 6.94514 58.2008 6.9705 58.1939 7.07657C58.187 7.18724 58.263 7.22414 58.3553 7.23797C58.466 7.25411 58.5144 7.18955 58.5282 7.09732C58.542 6.98434 58.466 6.94975 58.3737 6.94053ZM66.467 15.4534C66.4601 15.4073 66.3978 15.3428 66.354 15.3382C66.2318 15.3197 66.0911 15.2782 65.9943 15.3843C65.8767 15.5088 65.7222 15.5249 65.577 15.578C65.5447 15.5918 65.5262 15.6587 65.5124 15.7048C65.5101 15.7117 65.5608 15.7509 65.5862 15.7486C65.713 15.744 65.8375 15.7324 66.0081 15.7186C66.1188 15.7071 66.2871 15.7509 66.4093 15.6218C66.4485 15.5826 66.4762 15.5065 66.467 15.4534ZM68.3785 14.8793C68.3485 14.8009 68.2816 14.7871 68.2309 14.847C68.0142 15.0984 67.7305 15.2067 67.4146 15.2598C67.3893 15.2644 67.3662 15.299 67.3432 15.3197C67.3847 15.352 67.4354 15.4004 67.4838 15.4119C67.5322 15.4212 67.5714 15.4073 67.5184 15.4096C67.8504 15.3912 68.0441 15.3704 68.1963 15.2551C68.2678 15.1975 68.3393 15.1306 68.3854 15.0545C68.413 15.013 68.3992 14.9323 68.3785 14.8793ZM69.1255 15.6794C69.0656 15.7186 68.9388 15.6563 68.971 15.7878C68.978 15.8131 69.0817 15.827 69.1394 15.8224C69.2639 15.8154 69.3861 15.7947 69.5106 15.7786C69.5406 15.7762 69.5729 15.7716 69.6028 15.7647C69.6305 15.7555 69.6582 15.7371 69.6858 15.7255C69.6536 15.7048 69.619 15.6702 69.5844 15.6702C69.4299 15.6679 69.2754 15.6748 69.1255 15.6794ZM69.4022 14.9577C69.4299 14.9738 69.4599 15.0015 69.4875 15.0015C69.642 14.9992 69.7988 14.9946 69.9533 14.9831C69.9787 14.9808 70.0017 14.9462 70.0248 14.9254C69.9948 14.8931 69.9671 14.8424 69.9303 14.8309C69.8703 14.8124 69.8057 14.8217 69.7112 14.817C69.6513 14.8378 69.5613 14.8678 69.4737 14.9001C69.4483 14.9116 69.4276 14.9393 69.4022 14.9577ZM69.9049 7.86514C69.8634 7.78905 69.8242 7.80058 69.7527 7.84209C69.5267 7.97351 69.5913 8.23176 69.4829 8.41161C69.5383 8.5269 69.6213 8.61683 69.7527 8.63297C69.8057 8.63988 69.8657 8.60299 69.9233 8.58455C69.7504 8.36319 69.9925 8.30785 70.0663 8.17642C70.0986 8.12108 69.9625 7.97121 69.9049 7.86514ZM78.9089 12.5389C79.0381 12.5666 79.1649 12.5528 79.2594 12.4582C79.294 12.4237 79.2917 12.3476 79.2894 12.2922C79.2894 12.2715 79.2456 12.2438 79.2179 12.2346C79.0381 12.1815 78.932 12.2323 78.8398 12.4144C78.8259 12.4375 78.8282 12.4698 78.8236 12.4974C78.8513 12.5113 78.879 12.5343 78.9089 12.5389ZM78.2011 11.3791C78.2172 11.4045 78.2633 11.4368 78.2748 11.4299C78.6 11.2431 78.9942 11.3561 79.3217 11.1832C79.3931 11.144 79.5177 11.1416 79.49 11.0425C79.4785 11.0033 79.324 10.9872 79.234 10.9872C79.1418 10.9895 79.0473 11.0264 78.8651 11.0656C78.7683 11.0748 78.5769 11.0725 78.3947 11.1117C78.3187 11.1278 78.261 11.2316 78.2011 11.3007C78.1872 11.3169 78.1895 11.3607 78.2011 11.3791ZM77.5485 12.5021C77.5877 12.6173 77.6131 12.7372 77.6546 12.8525C77.6753 12.9056 77.7192 12.9517 77.7537 13.0001C77.7814 12.9471 77.8298 12.894 77.8321 12.841C77.8391 12.6888 77.7952 12.5274 77.982 12.4398C78.0212 12.4213 78.0374 12.3591 78.065 12.3176C78.0074 12.3014 77.9497 12.283 77.8898 12.2715C77.8598 12.2646 77.8275 12.2715 77.7952 12.2715C77.5301 12.2876 77.4909 12.3245 77.5485 12.5021ZM77.4978 10.7497C77.5301 10.7358 77.5485 10.6759 77.5601 10.6344C77.5647 10.6252 77.5186 10.586 77.4932 10.5836C77.4332 10.579 77.3733 10.586 77.2949 10.5883C77.2257 10.6067 77.1381 10.6275 77.0528 10.6551C77.0274 10.6644 77.0044 10.6897 76.9813 10.7082C77.0067 10.722 77.032 10.7427 77.0597 10.752C77.2073 10.8073 77.3548 10.8073 77.4978 10.7497ZM76.4049 13.7818C76.4671 13.9478 76.6009 13.904 76.7185 13.8855C76.7784 13.8763 76.8314 13.8371 76.8891 13.8117C76.8383 13.7426 76.8015 13.648 76.7346 13.6157C76.6216 13.5581 76.4879 13.5512 76.4072 13.6895C76.3933 13.7126 76.4049 13.7518 76.4049 13.7818ZM73.9884 12.3775C74.1775 12.3845 74.3666 12.3614 74.5556 12.3775C74.6409 12.3845 74.7216 12.4536 74.8 12.5044C74.8231 12.5182 74.8369 12.5597 74.8392 12.5874C74.8415 12.6104 74.83 12.645 74.8116 12.6588C74.6456 12.7787 74.4542 12.7488 74.2674 12.7442C74.1752 12.7395 74.0622 12.7741 74.076 12.8664C74.0853 12.9194 74.219 12.9655 74.3043 12.9886C74.3896 13.0116 74.5049 13.0416 74.5695 13.0047C74.8438 12.8502 75.1321 12.8479 75.3811 12.9932C75.5287 13.0785 75.9737 12.8018 75.8169 13.3045C75.8768 13.3114 75.9437 13.3367 75.9944 13.3183C76.1097 13.2745 76.2089 13.2191 76.3195 13.1615C76.3587 13.2053 76.4049 13.2768 76.4464 13.2768C76.6654 13.286 76.8845 13.2814 77.1035 13.2653C77.1865 13.2583 77.2119 13.1984 77.1727 13.15C77.1542 13.1269 77.1289 13.1062 77.1012 13.0969C76.9306 13.037 76.7646 12.9332 76.5824 13.0946C76.5178 13.1523 76.4118 13.1361 76.3195 13.1615C76.2988 13.1039 76.2757 13.0554 76.2481 13.0001C76.2112 12.9194 76.1466 12.8318 76.2873 12.7949C76.5155 12.7326 76.7807 12.8295 76.9767 12.6289C76.7277 12.5251 76.4787 12.6127 76.2319 12.6335C76.006 12.6519 75.7961 12.6358 75.6071 12.4974C75.1874 12.7372 75.2796 12.4905 75.3696 12.2461C75.3788 12.2184 75.388 12.1908 75.3972 12.1631C75.2497 12.1239 75.0583 12.1285 74.9661 12.034C74.8969 11.9648 74.9983 11.7388 74.7539 11.785C74.634 11.8103 74.5141 11.838 74.3942 11.8634C74.5026 12.2369 74.1936 12.1585 74.0115 12.2207C73.9561 12.2392 73.9031 12.2738 73.8501 12.3038C73.8962 12.3291 73.94 12.3775 73.9884 12.3775ZM75.9091 10.8327C75.9691 10.8465 76.0313 10.8488 76.0913 10.858C76.1535 10.8488 76.2158 10.8419 76.278 10.8327C76.3703 10.8188 76.4602 10.8004 76.4717 10.6851C76.4763 10.6551 76.474 10.6182 76.4602 10.5929C76.4095 10.4914 76.3126 10.4776 76.2273 10.5145C76.112 10.5606 76.0083 10.6344 75.9022 10.7035C75.8768 10.7174 75.8607 10.7543 75.8561 10.7819C75.8538 10.7981 75.8861 10.8281 75.9091 10.8327ZM75.8284 11.7112C75.7247 11.7135 75.6324 11.8541 75.6486 11.9856C75.6693 12.1493 75.8077 12.2392 75.9852 12.2023C76.1097 12.1769 76.2319 12.0317 76.1904 11.9464C76.1189 11.7988 76.0037 11.702 75.8284 11.7112ZM75.4779 10.9941C75.4341 10.9111 75.388 10.8281 75.335 10.752C75.3119 10.7197 75.2658 10.7012 75.2312 10.6782C75.222 10.7381 75.2105 10.7981 75.2059 10.858C75.1989 10.9572 75.2289 11.0356 75.3373 11.0632C75.365 11.0586 75.3995 11.0609 75.4249 11.0494C75.448 11.0402 75.4826 11.001 75.4779 10.9941ZM74.8738 11.0241C74.8485 11.0056 74.8162 10.9849 74.7885 10.9872C74.5372 11.0125 74.2859 11.0402 74.0345 11.0771C74.0069 11.0817 73.9907 11.1463 73.9677 11.1832C73.9953 11.197 74.0253 11.2247 74.0507 11.2223C74.2098 11.2154 74.3689 11.1993 74.3988 11.197C74.6202 11.1601 74.717 11.1532 74.8093 11.1255C74.8969 11.1024 74.9176 11.0563 74.8738 11.0241ZM73.7302 10.2977C73.8063 10.4015 73.8962 10.4707 74.0368 10.4153C74.0576 10.3946 74.0922 10.3761 74.0968 10.3531C74.1014 10.33 74.076 10.2931 74.0553 10.2793C73.9815 10.2309 73.9054 10.1732 73.8224 10.1502C73.7855 10.1386 73.7279 10.1963 73.6794 10.2239C73.6956 10.2493 73.7117 10.2747 73.7302 10.2977ZM72.8863 10.2424C72.8978 10.2678 72.9278 10.3046 72.9462 10.3023C73.0038 10.2977 73.0822 10.2908 73.1122 10.2539C73.1653 10.1847 73.1883 10.0925 73.2275 10.0003C73.216 9.93803 73.3866 9.85503 73.2091 9.79969C73.0869 9.76279 72.9646 9.76279 72.8886 9.89192C72.8217 10.0049 72.8286 10.1248 72.8863 10.2424ZM73.3151 6.15426C73.1629 6.15426 73.0131 6.15426 72.8632 6.16809C72.8332 6.1704 72.8055 6.23035 72.7779 6.26494C72.8055 6.27877 72.8332 6.30413 72.8609 6.30413C72.9508 6.30183 73.043 6.2903 73.2068 6.27877C73.1929 6.28108 73.2529 6.27416 73.3105 6.25571C73.3382 6.24879 73.3566 6.21882 73.3797 6.19807C73.3589 6.18193 73.3359 6.15426 73.3151 6.15426ZM73.3774 6.73301C73.3543 6.71456 73.322 6.69612 73.2921 6.69381C73.1975 6.6892 73.1007 6.69151 72.9877 6.69151C72.8839 6.72148 72.7594 6.74685 72.6441 6.79757C72.6165 6.8091 72.6188 6.90133 72.6211 6.95436C72.6211 6.97742 72.658 7.01201 72.6856 7.01662C72.9623 7.08579 73.1468 6.86674 73.3751 6.78835C73.382 6.78604 73.3866 6.73993 73.3774 6.73301ZM74.634 8.18565C74.4842 8.29171 74.4426 8.50154 74.2236 8.52459C74.1867 8.47156 74.1498 8.42545 74.106 8.38164C73.857 8.13953 73.857 8.13953 73.608 8.41392C73.4535 8.58224 73.4143 8.58685 73.2321 8.43928C73.1606 8.38164 73.0892 8.33091 73.156 8.21562C73.2667 8.02655 73.3635 7.82825 73.4673 7.63457C73.5088 7.56078 73.4973 7.50083 73.4212 7.487C73.3635 7.47777 73.2944 7.48008 73.2459 7.50544C73.1376 7.5677 73.0085 7.62765 72.9462 7.72449C72.8932 7.8098 72.9416 7.95045 72.9116 8.05883C72.8747 8.2064 72.8678 8.37703 72.6903 8.45311C72.5058 8.53382 72.4735 8.66063 72.5911 8.82434C72.6995 8.97652 72.7986 9.13332 72.9139 9.27858C72.9946 9.37773 73.1906 9.37312 73.2436 9.27397C73.2921 9.18635 73.2851 9.08951 73.2068 9.02034C73.1606 8.98114 73.0592 8.97191 73.0477 8.93041C73.0108 8.79437 73.1422 8.82665 73.2044 8.81743C73.3243 8.80359 73.4673 8.77592 73.5688 8.81973C73.7855 8.91658 73.8247 8.79437 73.8962 8.63988C73.9561 8.51307 74.0991 8.53843 74.2236 8.52459C74.2536 8.67677 74.2628 8.84048 74.4772 8.85893C74.634 8.87276 74.807 8.86585 74.9107 8.73903C75.0191 8.60991 74.9707 8.43928 74.9361 8.2871C74.9061 8.15797 74.7424 8.10955 74.634 8.18565ZM76.2873 6.84369C76.225 6.73762 76.1651 6.54163 76.1028 6.54163C75.7592 6.53932 75.5932 6.19346 75.282 6.15657C75.252 6.15426 75.2197 6.16348 75.1897 6.17501C75.0629 6.21421 74.8323 6.66614 74.8715 6.79065C74.9199 6.82293 74.9661 6.86905 75.0191 6.8875C75.2635 6.96128 75.4295 6.77221 75.6324 6.70534C75.7846 6.65692 75.9391 6.63617 75.9207 6.90364C75.9137 7.03045 76.1812 7.0904 76.2757 6.99586C76.2988 6.97281 76.3334 6.94975 76.3334 6.92439C76.3357 6.89902 76.3034 6.87135 76.2873 6.84369ZM76.6285 8.07266C76.5294 7.99427 76.6839 7.99657 76.557 8.0081C76.3103 8.03346 76.1143 8.22484 75.8469 8.21101C75.6578 8.20179 75.5909 8.34474 75.6024 8.5269C75.6071 8.58915 75.6024 8.65141 75.6001 8.75978C75.6163 8.80359 75.644 8.8889 75.6855 8.9673C75.7362 9.06645 75.9183 9.08028 76.0037 8.99728C76.1558 8.85432 76.1835 8.69753 76.0636 8.6076C75.9921 8.55226 75.9068 8.51998 75.8261 8.47848C75.8815 8.45081 75.9345 8.41161 75.9921 8.40008C76.202 8.35397 76.4325 8.37933 76.6124 8.23176C76.6447 8.2064 76.6539 8.09111 76.6285 8.07266ZM76.6354 9.885C76.5109 9.88269 76.3864 9.89883 76.1051 9.92189C76.1097 9.92189 75.9599 9.93803 75.8077 9.96339C75.7869 9.9657 75.7523 10.0072 75.7569 10.0164C75.7685 10.0418 75.7938 10.0672 75.8192 10.0833C76.112 10.2424 76.3956 10.2678 76.6654 10.0349C76.6885 10.0141 76.7092 9.99107 76.73 9.97031C76.6977 9.94034 76.6677 9.885 76.6354 9.885ZM77.4171 6.43556C77.2396 6.33872 77.0274 6.38023 76.9536 6.53702C76.9144 6.62003 76.9029 6.71687 76.8591 6.79296C76.813 6.86905 76.8153 6.90825 76.9029 6.9313C76.9283 6.93822 76.9629 6.94975 76.9836 6.94053C77.0943 6.89211 77.2027 6.83677 77.2511 6.81371C77.3571 6.73993 77.4079 6.70765 77.454 6.66845C77.5139 6.62233 77.4886 6.47707 77.4171 6.43556ZM77.5923 8.20179C77.5739 8.16028 77.4863 8.11647 77.4425 8.128C77.2534 8.17642 77.122 8.38164 77.1519 8.52921C77.1819 8.55687 77.2004 8.59146 77.2257 8.59838C77.3203 8.62144 77.4056 8.59838 77.4678 8.51768C77.5439 8.42314 77.6592 8.34013 77.5923 8.20179ZM78.2795 10.081C78.1227 9.76741 77.8759 9.72359 77.6154 9.81352C77.5139 9.83427 77.4517 9.8458 77.3917 9.86194C77.3618 9.87117 77.3341 9.88961 77.3064 9.90345C77.341 9.95417 77.3664 10.0372 77.4102 10.0487C77.7353 10.1432 78.0627 10.2216 78.3901 10.3023C78.4132 10.307 78.4432 10.2793 78.4685 10.2655C78.5469 10.2193 78.5423 10.1732 78.4501 10.1386C78.3924 10.1156 78.2979 10.1179 78.2795 10.081ZM79.0542 7.43166C79.0311 7.41321 78.9966 7.39707 78.9689 7.39938C78.7498 7.42704 78.6115 7.58153 78.457 7.71758C78.487 7.75216 78.5031 7.78214 78.5285 7.79827C78.5815 7.83286 78.6507 7.89742 78.6899 7.88359C78.8767 7.81903 78.9758 7.65071 79.0773 7.49391C79.0842 7.48238 79.0703 7.44319 79.0542 7.43166ZM79.2502 9.72129C79.2156 9.72821 79.1972 9.81813 79.1695 9.86886C79.1972 10.0395 79.3332 10.028 79.4508 10.0233C79.5061 10.0233 79.5868 9.99568 79.6099 9.95417C79.6652 9.85733 79.5799 9.78124 79.5107 9.74896C79.4346 9.71437 79.3355 9.70745 79.2502 9.72129ZM79.6652 7.23106C79.5522 7.1711 79.5061 7.2472 79.5246 7.46624C79.5499 7.51928 79.5753 7.57 79.6007 7.62304C79.6837 7.54925 79.7667 7.47777 79.852 7.40399C79.7897 7.34404 79.739 7.26795 79.6652 7.23106ZM98.7294 11.4322C98.7663 11.4691 98.8516 11.4875 98.9 11.4714C98.9392 11.4552 98.9553 11.3791 98.983 11.3284C98.9392 11.2984 98.8977 11.2454 98.8539 11.2431C98.7524 11.2385 98.6694 11.3745 98.7294 11.4322ZM98.9092 9.89422C98.8977 9.83658 98.8539 9.78816 98.8262 9.73512C98.8008 9.77893 98.7639 9.82274 98.757 9.86886C98.7455 9.92881 98.757 9.99337 98.757 10.0349C98.7616 10.0879 98.757 10.1202 98.7686 10.1479C98.7893 10.2032 98.8193 10.2562 98.8469 10.3093C98.87 10.2631 98.9115 10.2193 98.9161 10.1709C98.9253 10.081 98.923 9.98415 98.9092 9.89422ZM96.3844 14.2291C96.419 14.2245 96.4443 14.1668 96.4743 14.1345C96.4466 14.1207 96.419 14.0953 96.3936 14.0953C96.2414 14.1023 96.0892 14.1115 95.9371 14.1276C95.8656 14.1345 95.778 14.1184 95.7503 14.2199C95.8102 14.2314 95.8679 14.2475 95.9278 14.2521C95.9878 14.2544 96.05 14.2429 96.11 14.2383C96.2022 14.236 96.2945 14.2429 96.3844 14.2291ZM94.9502 15.1306C94.8487 15.1468 94.715 15.1168 94.6643 15.2575C94.7865 15.2713 94.9087 15.292 95.0309 15.299C95.1739 15.3082 95.2707 15.2367 95.3145 15.1076C95.5289 15.0776 95.7295 15.0384 95.9417 15.0061C95.9693 15.0015 95.9901 14.9715 96.0155 14.9531C95.9855 14.9393 95.9578 14.9139 95.9301 14.9139C95.7134 14.9139 95.5082 14.9093 95.2938 14.9139C95.1692 14.6995 94.9594 14.7663 94.775 14.7894C94.7173 14.7963 94.662 14.8401 94.6066 14.8678C94.6481 14.8954 94.6919 14.9508 94.7335 14.9485C94.9248 14.9416 95.1024 14.93 95.2938 14.9139C95.3007 14.9854 95.3076 15.0338 95.3145 15.1076C95.19 15.1099 95.0747 15.1122 94.9502 15.1306ZM93.8204 13.7241C93.3777 13.7333 92.9603 13.5005 92.5776 13.6342C92.3931 13.648 92.2663 13.6526 92.1441 13.6711C92.1095 13.6757 92.0818 13.7218 92.0518 13.7472C92.0818 13.7587 92.1095 13.7748 92.1395 13.7771C93.0479 13.8371 93.9426 13.9685 94.8349 14.1438C94.9248 14.1622 95.024 14.1599 95.1162 14.1415C95.2038 14.1276 95.2845 14.0792 95.3675 14.0469C95.3145 14.0169 95.2615 13.9708 95.2038 13.9593C94.7427 13.8694 94.2792 13.7149 93.8204 13.7241ZM91.3094 10.2655C91.3232 10.3438 91.4201 10.3438 91.4362 10.2585C91.4985 9.95879 91.6944 9.84349 91.9688 9.81121C92.1902 9.78816 92.4092 9.75588 92.6306 9.73973C92.7574 9.73051 92.8842 9.74896 92.9626 9.87347C93.0779 10.051 93.1309 9.96109 93.1932 9.82966C93.2324 9.74435 93.2923 9.67056 93.3523 9.59908C93.4146 9.52299 93.4607 9.53913 93.486 9.63136C93.5183 9.75357 93.546 9.87578 93.5898 9.99568C93.6889 10.2724 93.7212 10.0349 93.7673 9.96801C93.9426 9.70976 94.3207 9.87117 94.4844 9.59678C94.4429 9.83888 94.6343 9.9657 94.7219 10.1548C94.5997 10.164 94.4867 10.1732 94.3668 10.1963C94.3184 10.2032 94.2792 10.2562 94.2354 10.2885C94.3 10.3531 94.3668 10.473 94.4245 10.4684C94.5328 10.4637 94.6297 10.3946 94.7358 10.3438C94.7496 10.4891 94.8833 10.6067 94.9733 10.5906C95.2938 10.526 95.5428 10.6874 95.8218 10.7819C96.1377 10.888 96.4097 10.7381 96.6772 10.5744C96.7003 10.692 96.7072 10.8142 96.7648 10.9134C96.8502 11.0586 96.7925 11.1001 96.6841 11.1924C96.6357 11.2316 96.5919 11.2247 96.5781 11.22C96.5827 11.2223 96.5965 11.2293 96.6173 11.2431C96.7625 11.3422 96.9378 11.393 97.1061 11.4483C97.1384 11.4575 97.2421 11.3699 97.2375 11.3515C97.1499 11.0978 97.1891 10.8788 97.3782 10.6828C97.4404 10.6159 97.4081 10.5583 97.3159 10.5606C97.0992 10.5675 96.894 10.5652 96.6772 10.5744C96.5873 10.3254 96.3752 10.4038 96.1907 10.4084C96.1308 10.4107 96.0316 10.4061 96.0155 10.3738C95.9624 10.2585 96.0869 10.2608 96.1446 10.2124C96.2184 10.1548 96.2783 10.081 96.3429 10.0141C96.4051 9.94956 96.3959 9.89653 96.3198 9.86425C96.2968 9.85503 96.2622 9.85272 96.2368 9.86425C96.1815 9.88731 96.1308 9.92881 96.0731 9.95187C95.9301 10.0072 95.8425 9.93573 95.8748 9.78816C95.8886 9.72821 95.9394 9.67748 95.9532 9.61753C96.0016 9.41001 95.8379 9.30856 95.6166 9.33623C95.4113 9.36159 95.4897 9.73282 95.2246 9.61983C95.0378 9.53913 94.851 9.58525 94.6643 9.58755C94.5997 9.58755 94.5467 9.58986 94.4844 9.59678C94.4337 9.39618 94.217 9.46304 94.0947 9.37773C93.961 9.28319 93.8503 9.19327 93.9564 8.99728C94.0048 8.90966 93.9103 8.82434 93.8204 8.79668C93.6682 8.74825 93.6912 8.87968 93.6682 8.95808C93.6428 9.0457 93.6474 9.17943 93.5921 9.21402C93.433 9.30625 93.2508 9.3662 93.0733 9.42615C93.0433 9.43538 92.9557 9.37773 92.9465 9.33853C92.9188 9.21632 92.9211 9.0872 92.8981 8.96269C92.8819 8.87276 92.8589 8.77823 92.8127 8.69983C92.7874 8.65833 92.7044 8.62605 92.6513 8.63066C92.5683 8.63758 92.5822 8.69292 92.596 8.76439C92.6583 9.05031 92.6513 9.05031 92.3954 9.05031C92.2709 9.048 92.1441 9.05031 92.0173 9.05262C91.985 9.05262 91.9504 9.05031 91.9227 9.06414C91.8697 9.09181 91.789 9.11948 91.7775 9.16329C91.6967 9.44921 91.5722 9.68901 91.2794 9.8043C91.2886 9.95879 91.284 10.1133 91.3094 10.2655ZM96.8017 9.71437C96.7856 9.61292 96.7764 9.52069 96.7579 9.43307C96.751 9.4054 96.7256 9.38234 96.7072 9.35698C96.6841 9.39156 96.6403 9.42615 96.6403 9.46074C96.6403 9.64289 96.6496 9.82505 96.6634 10.0049C96.6634 10.0303 96.698 10.0533 96.7164 10.0787C96.7464 10.0441 96.7948 10.0118 96.7994 9.97493C96.811 9.885 96.804 9.79277 96.8017 9.71437ZM95.1047 8.87738C94.994 8.84048 94.8718 8.83126 94.8349 8.82434C94.7196 8.84279 94.6873 8.84279 94.6597 8.85432C94.6135 8.87276 94.5697 8.89582 94.5259 8.91888C94.5513 8.93733 94.5744 8.96038 94.602 8.96961C94.7427 9.02264 94.8833 9.08259 95.0286 9.11948C95.0632 9.12871 95.1462 9.07106 95.16 9.02956C95.1715 8.98575 95.1393 8.8889 95.1047 8.87738ZM90.8897 9.20249C90.9566 9.24861 91.0488 9.27166 91.1295 9.27397C91.2517 9.27397 91.3624 9.23247 91.3693 9.07567C91.4685 9.05723 91.5377 8.99497 91.5377 8.89813C91.5423 8.74364 91.5077 8.59146 91.3762 8.4877C91.3324 8.45311 91.2725 8.43467 91.2195 8.41161C91.201 8.46465 91.1526 8.52921 91.1664 8.57071C91.2241 8.74364 91.3002 8.90966 91.3693 9.07567C91.284 9.0457 91.201 8.99958 91.1134 8.98805C91.0073 8.97422 90.8321 9.16329 90.8897 9.20249ZM90.0712 8.97422C90.1749 9.01111 90.2672 9.13562 90.4032 9.03878C90.5715 8.92349 90.477 8.81051 90.4493 8.66063C90.4193 8.50384 90.4954 8.34474 90.2418 8.46234C90.1334 8.51307 90.0274 8.58224 89.9328 8.65833C89.8936 8.6883 89.8913 8.75978 89.8614 8.83587C89.9282 8.88199 89.9928 8.94655 90.0712 8.97422ZM88.6624 8.81973C88.7546 8.89121 88.833 8.81743 88.8929 8.75517C88.9321 8.71597 88.9483 8.65372 88.9759 8.60069C88.8998 8.57532 88.8261 8.54765 88.7822 8.53151C88.7154 8.53843 88.6831 8.53382 88.6554 8.54304C88.6001 8.56379 88.5494 8.59377 88.4963 8.61913C88.5517 8.686 88.5978 8.76439 88.6624 8.81973ZM87.1452 9.3662C87.1936 9.3639 87.272 9.31086 87.2812 9.26936C87.3019 9.17252 87.2535 9.09412 87.1405 9.07798C87.099 9.11026 87.0276 9.13793 87.0206 9.17713C87.0091 9.26475 87.0229 9.36851 87.1452 9.3662ZM86.5503 8.26635C86.6494 8.23407 86.6563 8.128 86.6171 8.05421C86.5733 7.97351 86.4719 7.95737 86.3935 8.0081C86.3612 8.03116 86.3612 8.10494 86.3474 8.15567C86.3842 8.25251 86.4673 8.29171 86.5503 8.26635ZM85.123 9.43076C85.1414 9.52299 85.1922 9.5253 85.2636 9.46304C85.3098 9.42154 85.3766 9.4031 85.4227 9.36159C85.4573 9.33162 85.4735 9.27858 85.4965 9.23708C85.4366 9.22094 85.3766 9.2048 85.3167 9.18866C85.2613 9.21171 85.1876 9.22094 85.153 9.26244C85.1207 9.29933 85.1115 9.37542 85.123 9.43076ZM84.8117 8.77131C84.8302 8.82896 84.8647 8.87968 84.8924 8.93272C84.9293 8.89582 84.9708 8.85893 85.0031 8.81973C85.0215 8.79667 85.0261 8.76209 85.04 8.73442C85.1276 8.57532 85.3905 8.67677 85.4412 8.46465C85.2452 8.42083 85.1484 8.28018 85.07 8.11186C85.0584 8.0865 84.9593 8.08189 84.9132 8.10033C84.8647 8.12108 84.8048 8.17642 84.7956 8.22254C84.7748 8.34244 84.7771 8.46695 84.7725 8.55457C84.791 8.65141 84.7933 8.71367 84.8117 8.77131ZM84.0047 9.0457C84.0277 9.06184 84.0693 9.06184 84.0946 9.05262C84.1223 9.04339 84.1615 8.99958 84.1569 8.99036C84.0923 8.85662 84.0208 8.7252 83.9494 8.58916C83.9171 8.62144 83.8963 8.63527 83.8848 8.65372C83.8179 8.76209 83.8779 8.95808 84.0047 9.0457ZM80.7097 9.79046C80.7374 9.87578 80.8135 9.94495 80.855 10.0303C80.908 10.1455 80.9449 10.2516 81.1109 10.1502C81.6021 9.8458 82.167 9.82735 82.7135 9.73743C82.7734 9.72821 82.8288 9.68901 82.8841 9.66365C82.8311 9.6452 82.7757 9.61522 82.7204 9.61061C82.476 9.58986 82.2246 9.53452 81.9871 9.57141C81.752 9.60831 81.8165 9.31317 81.7174 9.33162C81.5029 9.32008 81.4015 9.38234 81.3162 9.4838C81.1847 9.63828 81.0464 9.73973 80.825 9.6452C80.6682 9.57603 80.6821 9.71207 80.7097 9.79046ZM81.2032 4.55636C81.1548 4.55636 81.0648 4.6117 81.0671 4.62323C81.0879 4.70162 81.1109 4.8123 81.1686 4.84227C81.2378 4.87686 81.3323 4.82844 81.3531 4.67857C81.3531 4.62092 81.3069 4.55175 81.2032 4.55636ZM85.651 2.76708C85.6187 2.73249 85.5588 2.67715 85.5311 2.68868C85.3882 2.7371 85.2498 2.80167 85.1138 2.87084C85.0653 2.8939 85.0285 2.94001 84.987 2.9746C85.0469 2.99074 85.1022 3.01149 85.1622 3.02302C85.2221 3.03224 85.2844 3.02994 85.3466 3.03455C85.4735 3.02302 85.5795 2.97691 85.6349 2.8547C85.6487 2.82703 85.6625 2.78091 85.651 2.76708ZM85.07 3.54643C85.1299 3.55565 85.1922 3.56949 85.2544 3.5764C85.2844 3.57871 85.3167 3.57179 85.3443 3.56949C85.402 3.53951 85.4596 3.51415 85.5081 3.47726C85.5219 3.46573 85.5173 3.41039 85.5034 3.38733C85.4758 3.34813 85.4181 3.28357 85.402 3.29049C85.3167 3.32969 85.2406 3.38733 85.1645 3.44267C85.1276 3.47034 85.0999 3.51184 85.07 3.54643ZM86.2897 5.00137C86.0453 4.92298 85.8862 5.14433 85.6625 5.10513C85.3213 5.04518 84.9685 5.03596 84.6342 4.95295C84.4705 4.91145 84.3644 4.9322 84.2076 4.98293C83.9148 5.07747 83.6173 5.13511 83.283 5.0129C82.9648 4.89761 82.6904 5.15816 82.4644 5.35416C82.3353 5.46714 82.5082 5.72078 82.3814 5.89601C82.3076 5.99747 82.4068 5.87987 82.2846 5.91446C82.2477 5.92599 82.1485 5.86604 82.1508 5.8499C82.167 5.75536 82.2154 5.67005 82.2292 5.57551C82.2546 5.40719 82.197 5.26192 82.0701 5.14894C82.0471 5.12819 82.0148 5.11897 81.9871 5.10744C81.9226 5.08438 81.8695 5.11205 81.8534 5.19275C81.8303 5.31496 81.8373 5.44639 81.7958 5.56168C81.7635 5.64468 81.6828 5.74383 81.6067 5.76228C81.5467 5.77611 81.4545 5.68388 81.3853 5.62624C81.2885 5.54092 81.1686 5.44178 81.1086 5.62624C81.051 5.8084 80.8942 5.84529 80.7789 5.94444C80.6475 6.05972 80.5898 5.99286 80.5114 5.85912C80.3823 5.64468 80.1794 5.74844 79.9996 5.79686C79.8658 5.83145 79.8774 5.90524 79.9903 5.94444C80.1979 6.02052 80.0088 6.21882 80.1287 6.34103C80.2347 6.44709 80.2855 6.49782 80.44 6.39637C80.7282 6.2096 81.0325 6.20729 81.3461 6.30644C81.4314 6.33411 81.4776 6.53241 81.3876 6.60158C81.1594 6.77221 81.1801 6.99586 81.2608 7.20108C81.3415 7.39938 81.4591 7.57692 81.5306 7.78905C81.6044 8.00349 81.639 8.12108 81.4407 8.25713C81.3139 8.34475 81.1594 8.42083 81.1271 8.59838C81.1063 8.70444 80.9242 8.81051 81.1017 8.91427C81.1686 8.95347 81.2839 8.93041 81.3692 8.90735C81.5098 8.86585 81.6113 8.78053 81.7981 8.83126C82.1647 8.9258 82.1739 8.8889 82.3238 8.51076C82.3561 8.42314 82.4045 8.34013 82.4252 8.25021C82.4298 8.22484 82.3468 8.14645 82.3284 8.15337C82.197 8.19948 82.0748 8.25482 82.1116 8.02885C82.1209 7.9666 82.1716 7.90665 82.1693 7.84669C82.1416 7.29562 82.5405 7.09271 82.9463 6.90133C82.9809 6.88519 83.0639 6.93592 83.0962 6.97742C83.1308 7.02354 83.1331 7.09502 83.1492 7.15727C83.1908 7.31406 82.9579 7.42474 83.0732 7.59537C83.2299 7.82364 82.8703 7.86284 82.9071 7.92279C83.0593 8.19256 82.7342 8.21562 82.7065 8.37933C82.6604 8.63297 82.9233 8.82896 82.8357 9.09412C82.8218 9.14254 83.0501 9.14024 83.0778 9.05723C83.1469 8.84971 83.1723 8.81051 83.3268 9.02034C83.4329 9.1656 83.6519 9.05953 83.6657 8.88429C83.6704 8.81973 83.668 8.75748 83.6634 8.69292C83.6496 8.48539 83.585 8.46234 83.2991 8.53151C83.2484 8.54535 83.1861 8.51537 83.1285 8.50615C83.1446 8.45311 83.1446 8.37241 83.1815 8.35166C83.3153 8.27557 83.4605 8.21331 83.6058 8.15337C83.8041 8.07036 83.7764 7.91587 83.7695 7.76138C83.8318 7.75677 83.8848 7.74986 83.9447 7.73372C84.0531 7.70604 84.0785 7.64379 84.0277 7.53311C83.977 7.42013 83.954 7.29331 83.9194 7.17341C84.1984 7.13191 84.4843 7.12268 84.7518 7.03968C84.9224 6.98664 85.0238 6.94975 85.1092 7.14113C85.1368 7.208 85.2014 7.18033 85.2683 7.13882C85.4043 7.0512 85.5841 6.99126 85.711 7.08348C85.9162 7.23336 86.0476 7.08118 86.2136 7.03506C86.3105 7.0097 86.3773 7.06734 86.4119 7.16419C86.1975 7.21492 86.1237 7.38093 86.1076 7.57692C86.1029 7.62534 86.1514 7.71296 86.1929 7.72218C86.2805 7.74755 86.4027 7.72218 86.4165 7.62304C86.4373 7.47086 86.4188 7.32098 86.4119 7.16419C86.5549 7.16649 86.6702 7.35096 86.8339 7.19416C86.9561 7.07426 87.0575 6.88519 87.2397 7.17802C87.3181 7.30484 87.4334 7.10654 87.5233 7.03276C87.7377 6.85521 87.8392 6.87135 87.9522 7.09732C88.0859 7.36018 88.0882 7.36479 88.275 7.20108C88.3234 7.15727 88.3603 7.09962 88.4133 7.06965C88.4963 7.02123 88.6047 6.98664 88.6693 7.07887C88.7776 7.23336 88.863 7.40399 88.9598 7.56539C88.9759 7.59076 89.0105 7.60228 89.0359 7.62304C89.0636 7.5677 89.1051 7.51697 89.112 7.45933C89.1327 7.28639 89.1558 7.13421 89.3841 7.27717C89.5155 7.1711 89.6561 7.19186 89.806 7.23336C89.8498 7.2472 89.9167 7.17802 89.972 7.14805C90.1772 7.61612 90.6914 7.37401 91.0027 7.59537C91.0281 7.61382 91.0442 7.6461 91.0557 7.67376C91.1065 7.79366 91.1434 7.89051 91.3117 7.78675C91.4431 7.70835 91.616 7.70374 91.759 7.63687C91.8974 7.57462 91.955 7.60459 92.0634 7.71758C92.2686 7.93201 92.5245 7.94123 92.822 7.84209C93.29 7.6876 93.7604 7.92279 94.2354 7.91356C94.5559 8.13261 94.9364 7.90203 95.2638 8.0473C95.6027 8.20179 95.9532 8.11647 96.2991 8.13492C96.7395 8.16028 97.1753 8.21562 97.6134 8.27327C97.7217 8.28941 97.7863 8.27788 97.8301 8.18103C97.8808 8.06344 97.9938 7.93893 97.9754 7.83517C97.8947 7.4109 98.1437 7.35326 98.4642 7.33482C98.5195 7.3302 98.5703 7.27717 98.6256 7.2472C98.5656 7.22875 98.5057 7.18955 98.4481 7.18955C98.289 7.18955 98.1275 7.22414 97.9708 7.21261C97.5949 7.18263 97.2122 7.15266 97.1222 6.65923C97.0946 6.50935 96.9424 6.50935 96.811 6.52318C96.7187 6.53471 96.6011 6.53702 96.6104 6.41251C96.6219 6.26955 96.6219 6.20729 96.4466 6.16579C96.2922 6.12889 96.1699 6.12659 96.0132 6.16348C95.9117 6.18885 95.8056 6.07817 95.7411 6.27185C95.6281 6.59927 95.416 6.68459 95.0678 6.53471C94.8234 6.42865 94.4913 6.54393 94.323 6.23265C93.9218 6.16809 93.5206 6.11506 93.124 6.02975C92.7666 5.95366 92.4069 6.08047 92.0403 5.93982C91.623 5.77611 91.5492 5.76228 91.4477 5.40027C91.4385 5.3703 91.3647 5.35185 91.3186 5.34493C91.3025 5.34263 91.2633 5.38644 91.261 5.4118C91.2471 5.53401 91.2448 5.65852 91.2241 5.78072C91.2218 5.78995 91.1042 5.79917 91.0604 5.77381C91.035 5.75767 91.0465 5.67466 91.0442 5.62163C91.0419 5.5317 91.0511 5.36338 91.0419 5.36107C90.6361 5.32418 90.6453 5.02213 90.6246 4.7316C90.6199 4.69009 90.56 4.65089 90.5185 4.61631C90.5139 4.6117 90.4655 4.64859 90.447 4.67395C90.4309 4.69701 90.4332 4.7339 90.4217 4.76388C90.3018 5.07055 90.0827 5.21581 89.753 5.17661C88.9736 5.08208 88.1781 5.14894 87.4103 4.9714C87.2005 4.92298 86.9814 5.00137 86.8039 4.91606C86.5825 4.80769 86.4442 5.0521 86.2897 5.00137ZM98.3443 6.11045C98.289 6.08509 98.2382 6.05742 98.1829 6.03897C98.1529 6.02744 98.1206 6.03205 98.0883 6.02744C97.7725 6.05511 97.6756 6.14734 97.6918 6.41251C97.6941 6.44248 97.7125 6.47015 97.7263 6.49551C97.7702 6.58083 97.8209 6.58083 97.8624 6.49551C97.9316 6.34795 98.0215 6.23496 98.199 6.20729C98.2498 6.20037 98.2959 6.14503 98.3443 6.11045ZM93.5414 4.15977C93.3362 4.0906 93.1771 3.88307 92.9303 3.95686C92.8727 3.973 92.8266 4.02373 92.7758 4.05831C92.7989 4.07906 92.8197 4.10443 92.8473 4.11826C93.0456 4.21741 93.237 4.34884 93.4768 4.26814C93.5045 4.24969 93.5344 4.23816 93.5552 4.2151C93.5621 4.20819 93.5506 4.16438 93.5414 4.15977ZM91.6022 3.19365C91.5446 3.17751 91.4823 3.14523 91.4247 3.14523C91.2656 3.14984 91.1088 3.17059 90.9497 3.18212C90.8229 3.19134 90.696 3.19826 90.5715 3.21671C90.5208 3.22593 90.4747 3.26743 90.4263 3.2951C90.4885 3.30894 90.5485 3.33891 90.6084 3.33661C90.892 3.32277 91.1779 3.30433 91.4616 3.27896C91.51 3.27435 91.5561 3.22362 91.6022 3.19365ZM87.385 3.56718C87.355 3.5349 87.3296 3.48878 87.2927 3.47264C87.2097 3.44036 87.1198 3.42422 87.0345 3.39656C86.9722 3.3758 86.9261 3.40117 86.9399 3.47495C86.9492 3.52107 86.9976 3.5764 87.0414 3.59946C87.0921 3.62252 87.159 3.6156 87.2189 3.62022C87.2743 3.60177 87.3296 3.58332 87.385 3.56718ZM86.5964 4.03987C86.7209 4.03987 86.8431 4.02834 86.9653 4.01912C87.0276 4.0122 87.0898 4.01912 87.1498 4.00528C87.1751 4.00067 87.1982 3.97069 87.2212 3.94994C87.189 3.92458 87.1544 3.87154 87.1221 3.87385C86.9376 3.88307 86.7532 3.89922 86.571 3.92458C86.518 3.9315 86.4719 3.973 86.4211 4.00067C86.4788 4.0145 86.5387 4.03987 86.5964 4.03987ZM96.6542 2.7348C95.9324 2.79475 95.2292 2.52728 94.5075 2.67485C94.4452 2.5365 94.3115 2.53419 94.1824 2.5365C93.7719 2.54342 93.3661 2.58492 92.9557 2.47194C92.7551 2.4166 92.5176 2.49269 92.2962 2.49961C91.789 2.51805 91.2748 2.59184 90.7791 2.52497C90.3617 2.46964 89.9582 2.48808 89.5501 2.51575C88.6001 2.58492 87.6501 2.66793 86.7024 2.75094C86.6448 2.75555 86.5872 2.79936 86.5318 2.82242C86.571 2.85239 86.6079 2.90312 86.6517 2.90773C87.4057 2.99074 88.1459 3.00227 88.9114 2.88237C89.6769 2.76247 90.4724 2.84778 91.254 2.84547C91.4108 2.84547 91.5792 2.90773 91.7198 2.86623C92.0126 2.7763 92.2686 2.62181 92.6029 2.78783C92.8865 2.92848 93.2163 2.70482 93.5344 2.84087C93.8803 2.98382 94.2077 2.89159 94.5075 2.67485C94.6228 2.92849 94.7773 3.10142 95.0955 2.94232C95.1762 2.90312 95.2961 2.82933 95.3468 2.85931C95.7572 3.09681 96.223 2.84317 96.6357 3.01841C96.6703 3.03455 96.7395 2.97229 96.7879 2.93771C96.8363 2.90312 96.7279 2.73019 96.6542 2.7348ZM97.4935 2.88467C97.3713 2.83625 97.2444 2.83856 97.1384 2.91926C97.0992 2.94923 97.0923 3.02302 97.0692 3.07605C97.0807 3.17059 97.2029 3.24668 97.2744 3.19826C97.3482 3.14753 97.4151 3.08067 97.4819 3.0161C97.5442 2.95615 97.5488 2.90543 97.4935 2.88467ZM99.1075 4.39495C98.8446 4.21049 98.591 4.24047 98.3097 4.39495C98.0399 4.54022 98.0215 4.51024 97.8831 4.24047C97.8416 4.15977 97.7863 4.07906 97.7771 3.99375C97.7655 3.8946 97.7609 3.79776 97.641 3.80929C97.2882 3.84157 96.9447 3.68939 96.6057 3.71475C95.9071 3.76317 95.2246 3.50954 94.5282 3.63866C94.0648 3.52337 93.5967 3.52568 93.1263 3.56488C92.8888 3.58332 92.8681 3.46342 92.9511 3.28127C92.8934 3.26974 92.822 3.23054 92.7758 3.24899C92.5983 3.31816 92.6583 3.51876 92.5822 3.64558C92.5476 3.70092 92.5914 3.7724 92.6698 3.76317C93.1194 3.71475 93.5414 3.86924 93.9749 3.9315C94.0625 3.94302 94.1316 3.99375 94.2331 3.94764C94.3922 3.87616 94.5767 3.96147 94.7473 3.83465C94.8741 3.74242 95.047 3.84849 95.2015 3.88307C95.3814 3.92227 95.5751 3.90152 95.7618 3.91766C95.8518 3.92458 95.9555 3.94533 95.944 4.07906C95.9324 4.20127 95.8541 4.20127 95.7526 4.18974C95.6627 4.18052 95.5681 4.18744 95.4828 4.2151C95.4575 4.22202 95.4321 4.35345 95.4529 4.36959C95.6235 4.50102 95.7964 4.63245 95.9855 4.73621C96.05 4.77079 96.1723 4.75696 96.2437 4.72007C96.5435 4.55867 96.8363 4.6117 97.1591 4.63937C97.4958 4.66473 97.8255 4.60478 98.1437 4.79155C98.3512 4.91375 98.5749 4.83305 98.7663 4.72237C98.8608 4.73851 98.9645 4.79155 99.0314 4.75927C99.1052 4.72699 99.1582 4.62323 99.1905 4.53791C99.2043 4.50563 99.1513 4.42493 99.1075 4.39495ZM99.4211 7.00278C99.3335 6.96589 99.2666 7.09732 99.2804 7.27025C99.2897 7.37862 99.3519 7.4478 99.4372 7.45241C99.5571 7.44549 99.6148 7.37632 99.6263 7.27717C99.647 7.12038 99.5364 7.0512 99.4211 7.00278ZM103.177 8.64219C103.156 8.6076 103.067 8.58685 103.02 8.60069C102.914 8.63066 102.905 8.7275 102.949 8.8059C102.97 8.84279 103.053 8.84279 103.106 8.85893C103.2 8.81051 103.223 8.72289 103.177 8.64219ZM105.541 5.29651C105.483 5.30574 105.428 5.33802 105.372 5.36107C105.393 5.37952 105.416 5.4095 105.439 5.4118C105.621 5.43255 105.737 5.65621 105.949 5.58243C105.972 5.56168 106.006 5.54092 106.011 5.51556C106.013 5.49481 105.983 5.46483 105.963 5.44408C105.85 5.31957 105.707 5.27115 105.541 5.29651ZM106.126 4.39957C106.08 4.32117 106.043 4.3327 105.988 4.40187C105.956 4.44338 105.891 4.46182 105.838 4.48949C105.79 4.51485 105.739 4.54253 105.69 4.56789C105.741 4.58172 105.792 4.60017 105.845 4.60939C105.873 4.614 105.905 4.60478 105.935 4.60017C105.963 4.59786 105.999 4.60478 106.02 4.58864C106.064 4.56097 106.103 4.52177 106.135 4.48027C106.147 4.46413 106.138 4.42263 106.126 4.39957ZM106.419 6.371C106.359 6.371 106.297 6.371 106.23 6.371C106.159 6.38253 106.059 6.37331 106.071 6.48629C106.073 6.50935 106.179 6.53471 106.237 6.5301C106.327 6.52779 106.421 6.50935 106.509 6.48168C106.546 6.47246 106.571 6.42634 106.601 6.39867C106.571 6.38714 106.544 6.37561 106.514 6.371C106.484 6.36639 106.451 6.371 106.419 6.371ZM108.393 5.05902C108.273 5.02674 108.107 5.04288 108.035 4.96679C107.74 4.66243 107.468 4.86072 107.178 4.93681C107.09 4.6117 107.021 4.57481 106.779 4.61861C106.751 4.62323 106.723 4.66473 106.703 4.68318C106.862 4.75696 107.014 4.86533 107.178 4.93681C107.528 5.172 107.934 5.23195 108.347 5.2112C108.391 5.20889 108.427 5.14894 108.469 5.11436C108.444 5.09591 108.421 5.06593 108.393 5.05902ZM108.395 5.8914C107.865 5.69541 107.309 5.5732 106.758 5.43947C106.698 5.42333 106.597 5.51326 106.537 5.57551C106.468 5.64468 106.569 5.81762 106.698 5.8499C107.002 5.92599 107.311 5.98824 107.616 6.06895C107.835 6.12659 107.95 6.26955 107.872 6.4909C107.75 6.83446 107.929 7.06273 108.084 7.31406C108.093 7.3279 108.148 7.32329 108.176 7.31406C108.204 7.30254 108.245 7.25411 108.245 7.25411C108.125 7.09501 108.068 6.94283 108.171 6.73762C108.25 6.58313 107.906 6.37792 108.151 6.25802C108.28 6.19346 108.501 6.31566 108.681 6.35717C108.866 6.40098 109.048 6.45631 109.232 6.4909C109.405 6.52318 109.532 6.44479 109.633 6.30183C109.707 6.20037 109.659 6.04358 109.55 5.99516C109.364 5.90985 109.177 5.96749 108.999 5.96749C108.766 6.10123 108.603 5.96749 108.395 5.8914ZM110.567 5.47175C110.099 5.30574 109.622 5.16508 109.145 5.02443C109.048 4.99446 108.972 5.05441 108.946 5.15816C108.919 5.27115 108.99 5.34263 109.066 5.39105C109.304 5.54323 109.564 5.63546 109.848 5.67696C110.028 5.70464 110.205 5.75536 110.376 5.79456C110.433 5.74844 110.5 5.72078 110.528 5.67005C110.565 5.6124 110.731 5.5294 110.567 5.47175ZM110.676 17.1828C110.556 17.1759 110.436 17.1712 110.339 17.1666C110.263 17.2035 110.21 17.2312 110.159 17.2566C110.205 17.328 110.235 17.4249 110.302 17.4664C110.461 17.5678 110.659 17.4756 110.74 17.2958C110.772 17.222 110.765 17.1874 110.676 17.1828ZM119.797 14.4481C119.751 14.3536 119.647 14.3536 119.567 14.3859C119.53 14.402 119.497 14.4827 119.502 14.5288C119.514 14.6349 119.587 14.6787 119.73 14.6372C119.79 14.6141 119.841 14.5427 119.797 14.4481ZM128.176 19.7675C128.165 19.8552 128.176 19.952 128.206 20.0327C128.222 20.0696 128.308 20.0834 128.365 20.0996C128.391 20.1065 128.442 20.1065 128.451 20.0903C128.587 19.8552 128.501 19.6084 128.467 19.3709C128.444 19.2118 128.335 19.0966 128.181 19.0366C128.153 19.0251 128.126 19.0228 128.096 19.0205C128.077 18.919 128.003 18.8637 127.907 18.866C127.819 18.866 127.72 18.8867 127.646 18.9329C127.519 19.0089 127.563 19.1473 127.577 19.2649C127.581 19.2972 127.662 19.3571 127.669 19.3502C127.817 19.2418 127.953 19.1335 128.096 19.0205C128.1 19.0804 128.103 19.1358 128.121 19.1934C128.188 19.3871 128.202 19.5831 128.176 19.7675ZM127.807 22.4745C127.93 22.4768 128.052 22.4791 128.172 22.463C128.209 22.4584 128.239 22.3938 128.273 22.3569C128.246 22.3408 128.22 22.3177 128.193 22.3131C128.133 22.3062 128.07 22.3108 128.01 22.3085C127.948 22.3177 127.884 22.3177 127.828 22.3408C127.789 22.3569 127.759 22.403 127.724 22.4353C127.752 22.4492 127.78 22.4745 127.807 22.4745ZM126.947 20.2356C127.026 20.2794 127.109 20.314 127.194 20.3417C127.215 20.3509 127.247 20.3117 127.277 20.3025C127.616 20.2218 127.75 20.2402 127.754 20.3717C127.764 20.593 127.579 20.5976 127.434 20.6414C127.344 20.6668 127.323 20.7129 127.376 20.759C127.448 20.8213 127.517 20.8928 127.6 20.9343C127.796 21.0357 128.003 21.0864 128.084 21.3262C127.87 21.287 127.671 21.2455 127.457 21.2202C127.379 21.2133 127.293 21.2709 127.213 21.2986C127.266 21.3286 127.319 21.3585 127.372 21.3908C127.478 21.4577 127.641 21.5038 127.676 21.596C127.812 21.9696 128.156 21.7344 128.368 21.8612C128.391 21.8174 128.446 21.7505 128.435 21.7344C128.319 21.5914 128.206 21.4646 128.084 21.3262C128.234 21.3055 128.398 21.3239 128.423 21.0934C128.442 20.9043 128.467 20.7152 128.511 20.5308C128.529 20.4524 128.529 20.3693 128.469 20.3832C128.11 20.4731 128.054 20.0419 127.775 19.9981C127.588 19.9681 127.411 19.9036 127.224 19.8713C127.077 19.8459 127.003 19.9612 126.929 20.0696C126.883 20.1365 126.878 20.1941 126.947 20.2356ZM126.883 19.4517C126.927 19.4678 127.021 19.447 127.042 19.4125C127.102 19.3225 127.021 19.251 126.964 19.1888C126.922 19.145 126.864 19.1173 126.811 19.0827C126.65 18.9813 126.477 19.0643 126.403 19.2787C126.408 19.3686 126.422 19.4839 126.537 19.447C126.659 19.4078 126.763 19.4055 126.883 19.4517ZM126.182 21.7528C126.295 21.7966 126.415 21.8243 126.502 21.8497C126.592 21.8012 126.648 21.7713 126.701 21.7436C126.659 21.709 126.622 21.6652 126.576 21.6421C126.465 21.5868 126.353 21.5315 126.235 21.4969C126.189 21.4853 126.099 21.513 126.078 21.5499C126.023 21.6491 126.097 21.7205 126.182 21.7528ZM125.354 21.3309C125.437 21.3677 125.527 21.3862 125.61 21.4208C125.679 21.4485 125.73 21.43 125.725 21.347C125.725 21.2963 125.688 21.2225 125.649 21.204C125.571 21.1671 125.479 21.1625 125.407 21.1487C125.366 21.1741 125.34 21.1856 125.32 21.204C125.269 21.2478 125.278 21.2986 125.354 21.3309ZM124.24 12.2646C124.227 12.2092 124.206 12.1216 124.171 12.1147C124.051 12.0847 123.925 12.0801 123.802 12.0709C123.627 12.0547 123.498 11.9763 123.459 11.8011C123.431 11.6789 123.438 11.5336 123.251 11.5728C123.15 11.5936 123.113 11.6766 123.106 11.7803C123.101 11.9072 123.083 12.0271 122.981 12.1239C122.956 12.147 122.728 12.2277 122.938 12.2599C123.272 12.313 123.574 12.5828 123.948 12.449C124.033 12.4121 124.118 12.3798 124.201 12.336C124.222 12.3268 124.245 12.283 124.24 12.2646ZM129.025 18.3472C129.198 18.1143 129.198 17.9414 128.967 17.8215C128.847 17.7569 128.767 17.6831 128.702 17.5748C128.665 17.5079 128.589 17.4871 128.557 17.5586C128.37 17.9736 128.075 17.6186 127.84 17.6716C127.777 17.6831 127.713 17.6831 127.651 17.6877C127.669 17.5794 127.473 17.3419 127.807 17.4226C127.978 17.4664 128.029 17.3373 128.063 17.2243C128.096 17.1251 127.93 16.9845 127.817 17.0075C127.757 17.0214 127.706 17.0836 127.648 17.0928C127.346 17.1505 127.093 16.9384 127.051 16.5948C127.047 16.5671 127.07 16.5372 127.081 16.5072C127.023 16.5003 126.943 16.4657 126.915 16.491C126.802 16.5925 126.712 16.7193 126.602 16.8231C126.482 16.9384 126.341 16.913 126.184 16.77C125.871 16.4841 125.545 16.2489 125.082 16.3781C124.884 16.4334 124.732 16.3642 124.584 16.2005C124.31 15.8985 123.897 15.91 123.535 15.8131C123.523 15.8108 123.454 15.9169 123.468 15.9469C123.528 16.0921 123.592 16.2397 123.685 16.3619C123.788 16.5003 123.795 16.6409 123.784 16.7954C124.033 16.853 124.335 16.8992 124.515 16.7516C124.838 16.4841 125.031 16.6663 125.26 16.8438C125.403 16.9545 125.396 16.9799 125.174 17.1482C125.124 17.1874 125.068 17.222 125.031 17.2727C124.997 17.3211 124.983 17.3834 124.96 17.441C125.017 17.4595 125.075 17.4964 125.133 17.494C125.19 17.4894 125.253 17.4572 125.303 17.4226C125.887 17.0121 126.415 17.1067 126.899 17.5955C126.652 17.554 126.408 17.5102 126.159 17.4756C126.103 17.4687 126.016 17.4848 125.988 17.5217C125.914 17.6209 126.016 17.6808 126.078 17.7292C126.2 17.8261 126.325 17.9368 126.465 17.9898C126.657 18.0636 126.555 18.165 126.539 18.2757C126.519 18.4509 126.632 18.5708 126.761 18.6654C126.913 18.7761 127.15 18.7599 127.245 18.5708C127.365 18.3241 127.42 18.4117 127.531 18.5524C127.549 18.5732 127.632 18.534 127.685 18.534C127.967 18.5293 128.146 18.6031 128.425 18.8314C128.633 19.002 128.82 19.0159 129.018 18.8498C129.131 18.753 129.262 18.6308 128.993 18.5293C128.84 18.4717 128.979 18.4094 129.025 18.3472ZM129.991 19.1012C129.989 19.0504 129.943 18.9997 129.915 18.949C129.869 18.9882 129.813 19.0205 129.777 19.0666C129.719 19.1381 129.65 19.2072 129.694 19.3156C129.73 19.3548 129.763 19.424 129.807 19.4332C129.855 19.4401 129.94 19.4032 129.956 19.364C129.989 19.2833 129.996 19.1888 129.991 19.1012ZM130.217 20.8028C129.906 20.6645 129.564 20.5884 129.299 20.3532C129.258 20.314 129.184 20.3071 129.126 20.2863C128.974 20.2287 128.863 20.344 128.896 20.5308C128.9 20.5584 128.926 20.5861 128.944 20.6207C128.949 20.6737 128.974 20.7406 128.953 20.7913C128.896 20.9343 128.778 21.1003 128.986 21.1879C129.154 21.2571 129.424 21.287 129.505 21.1141C129.659 20.7798 129.802 20.9273 129.975 21.0565C130 21.0749 130.044 21.1003 130.06 21.0911C130.136 21.0472 130.215 21.0034 130.275 20.9412C130.335 20.8766 130.298 20.8397 130.217 20.8028ZM131.068 19.5231C130.987 19.4286 130.911 19.3317 130.833 19.2349C130.796 19.1888 130.763 19.1381 130.722 19.0943C130.715 19.0896 130.678 19.1104 130.655 19.1196C130.514 19.2211 130.563 19.8067 130.731 19.8459C130.821 19.8667 130.941 19.7722 131.045 19.7237C131.155 19.673 131.135 19.5992 131.068 19.5231ZM131.102 21.3401C131.036 21.317 130.851 21.5176 130.876 21.6214C130.95 21.679 131.036 21.7851 131.142 21.8174C131.268 21.8543 131.361 21.7482 131.437 21.6398C131.483 21.573 131.497 21.5268 131.437 21.4946C131.326 21.4392 131.215 21.3839 131.102 21.3401ZM131.695 20.7567C131.677 20.6875 131.674 20.6184 131.64 20.5815C131.605 20.5446 131.531 20.5192 131.483 20.5284C131.437 20.5354 131.365 20.5953 131.363 20.6345C131.358 20.8282 131.494 20.9619 131.6 21.1072C131.63 21.0772 131.683 21.0496 131.688 21.0173C131.702 20.9273 131.695 20.8351 131.695 20.7567ZM131.63 23.2239C131.61 23.2331 131.598 23.2608 131.582 23.2815C131.702 23.466 131.87 23.5882 132.085 23.6412C132.11 23.6482 132.145 23.6389 132.168 23.6251C132.186 23.6136 132.214 23.5721 132.209 23.5675C132.078 23.4014 131.949 23.2262 131.713 23.2054C131.686 23.2008 131.653 23.2101 131.63 23.2239ZM131.808 16.1037C131.787 16.1221 131.75 16.1429 131.753 16.159C131.764 16.2443 131.762 16.3504 131.813 16.4103C131.859 16.468 131.962 16.4818 132.043 16.5072C132.052 16.5118 132.094 16.4611 132.094 16.4357C132.096 16.3158 131.919 16.1152 131.808 16.1037ZM133.436 20.148C133.353 20.1134 133.235 20.0903 133.201 20.0258C133.104 19.8459 133.044 19.8206 132.882 19.9797C132.668 20.1941 132.532 20.1434 132.484 19.8344C132.465 19.7007 132.435 19.5946 132.334 19.5208C132.292 19.4908 132.216 19.4908 132.161 19.5024C132.085 19.5185 132.066 19.5739 132.098 19.6338C132.115 19.6592 132.128 19.6891 132.163 19.7514C132.154 19.8067 132.145 19.8944 132.126 19.9797C132.11 20.0604 132.027 20.1664 132.17 20.201C132.61 20.3048 132.952 20.5746 133.298 20.8397C133.325 20.8005 133.383 20.7567 133.376 20.7221C133.353 20.563 133.18 20.3855 133.47 20.284C133.542 20.261 133.517 20.1849 133.436 20.148ZM135.167 25.1492C135.179 25.2668 135.26 25.3037 135.354 25.3198C135.566 25.3521 135.781 25.3775 135.993 25.4052C136.007 25.3798 136.028 25.3544 136.034 25.3245C136.039 25.2968 136.041 25.2507 136.025 25.2345C135.862 25.0754 135.656 25.0132 135.437 24.9809C135.297 24.9601 135.158 25.0478 135.167 25.1492ZM134.054 20.51C133.906 20.6091 133.763 20.7175 133.636 20.8097C133.666 20.9204 133.676 20.9804 133.696 21.0357C133.816 21.3677 134.137 21.4346 134.409 21.5614C134.439 21.5753 134.503 21.5153 134.552 21.49C134.423 21.3032 134.58 21.1372 134.593 20.9619C134.605 20.789 134.485 20.6806 134.381 20.5676C134.287 20.4662 134.176 20.4293 134.054 20.51ZM134.773 19.062C134.706 18.8983 134.614 18.7438 134.704 18.5524C134.729 18.4971 134.526 18.3633 134.494 18.4071C134.462 18.4509 134.443 18.5063 134.418 18.5593C134.437 18.7438 134.434 18.9375 134.6 19.0689C134.642 19.1012 134.697 19.1173 134.746 19.1404C134.755 19.115 134.782 19.0827 134.773 19.062ZM134.833 21.1349C134.826 21.2409 134.893 21.2847 134.988 21.3032C135.112 21.3262 135.133 21.2363 135.151 21.151C135.174 21.0311 135.089 21.0057 135.006 20.9919C134.893 20.9804 134.84 21.0334 134.833 21.1349ZM135.207 19.6269C135.128 19.59 135.043 19.5669 134.96 19.537C134.946 19.56 134.923 19.5854 134.918 19.6107C134.914 19.6384 134.921 19.6868 134.937 19.6938C135.013 19.7283 135.091 19.7652 135.172 19.7745C135.223 19.7814 135.28 19.7399 135.336 19.7191C135.292 19.6891 135.253 19.6499 135.207 19.6269ZM135.465 23.1732C135.347 23.1616 135.398 23.3 135.347 23.3392C135.144 23.4937 135.384 23.6689 135.313 23.828C135.248 23.9687 135.2 24.1185 135.149 24.2661C135.142 24.2845 135.161 24.3145 135.165 24.3399C135.195 24.3514 135.223 24.3768 135.248 24.3722C135.361 24.356 135.483 24.2915 135.578 24.3214C135.684 24.3537 135.753 24.4944 135.862 24.5451C135.961 24.5912 136.076 24.7319 136.191 24.6235C136.318 24.5036 136.429 24.3491 136.507 24.19C136.56 24.0816 136.544 24.1808 136.44 24.1416C136.293 24.0816 136.323 24.0032 136.288 23.888C136.224 23.6666 136.134 23.3761 135.755 23.5675C135.619 23.6389 135.564 23.4568 135.523 23.3392C135.502 23.2815 135.488 23.1755 135.465 23.1732ZM136.074 21.2986C135.905 21.0772 135.935 20.8513 136.023 20.6022C136.03 20.5861 136.034 20.5769 136.039 20.57C136.025 20.5792 136 20.5861 135.954 20.5561C135.928 20.5377 135.818 20.5815 135.811 20.6115C135.779 20.7567 135.767 20.9089 135.751 21.0311C135.772 21.151 135.762 21.2571 135.808 21.3262C135.85 21.3885 135.954 21.4369 136.03 21.4369C136.097 21.4369 136.115 21.3539 136.074 21.2986ZM139.807 23.6459C139.719 23.519 139.634 23.3899 139.544 23.2677C139.412 23.0879 139.429 23.2954 139.403 23.33C139.334 23.4245 139.263 23.4337 139.177 23.3692C138.974 23.2193 138.903 23.021 139.009 22.7881C139.041 22.7143 139.078 22.6636 139.011 22.6498C138.96 22.6382 138.866 22.6544 138.85 22.6866C138.771 22.8342 138.702 22.9057 138.497 22.8734C138.34 22.8457 138.266 23.051 138.227 23.2078C138.089 23.1524 137.971 23.0994 137.833 23.044C137.851 22.9841 137.858 22.9357 137.877 22.878C137.957 22.6106 137.891 22.4492 137.665 22.3569C137.344 22.5391 137.303 22.1033 137.047 22.0802C136.841 22.0618 136.65 21.9027 136.454 21.8035C136.341 21.7459 136.235 21.6767 136.12 21.6352C136.069 21.6168 135.991 21.6375 135.942 21.6675C135.82 21.739 135.919 21.8174 135.945 21.8958C136.032 22.1655 136.004 22.1978 135.705 22.1748C135.619 22.1679 135.518 22.1171 135.506 22.2532C135.504 22.3016 135.553 22.3823 135.596 22.403C136.166 22.6682 136.731 22.9449 137.316 23.1686C137.455 23.2216 137.655 23.0948 137.833 23.044C137.838 23.1686 137.844 23.2838 137.863 23.4084C137.87 23.4568 137.927 23.5306 137.964 23.5306C138.015 23.5329 138.087 23.4868 138.117 23.4406C138.163 23.3692 138.195 23.2908 138.227 23.2078C138.26 23.2078 138.28 23.1893 138.31 23.1985C138.4 23.2331 138.601 23.1616 138.509 23.3807C138.46 23.496 138.368 23.5905 138.317 23.7058C138.296 23.7496 138.315 23.8488 138.349 23.8718C138.628 24.0632 138.907 24.2615 139.21 24.4183C139.32 24.4759 139.41 24.4114 139.366 24.2246C139.327 24.054 139.523 24.1001 139.625 24.0678C139.724 24.2223 139.816 24.3837 139.924 24.5313C139.947 24.5612 140.042 24.5659 140.09 24.5474C140.139 24.529 140.203 24.4667 140.203 24.4229C140.201 24.1001 140.095 23.8257 139.807 23.6459ZM140.411 26.7379C140.358 26.5949 140.272 26.4635 140.219 26.3182C140.15 26.1246 139.975 26.0369 139.851 25.8986C139.768 25.8087 139.768 25.8225 139.454 25.7487C139.18 25.6842 138.907 25.5965 138.647 25.4928C138.449 25.4144 138.227 25.336 138.296 25.0293C138.308 24.9763 138.19 24.8841 138.121 24.8218C137.812 24.5359 137.757 24.5336 137.388 24.7572C137.335 24.7895 137.275 24.8103 137.224 24.8449C137.187 24.8725 137.16 24.914 137.127 24.9509C137.162 24.9694 137.192 24.9832 137.215 25.0016C137.674 25.3729 138.112 25.7856 138.714 25.9124C139.011 25.977 139.138 26.4197 139.53 26.2629C139.542 26.2583 139.62 26.3989 139.652 26.4773C139.705 26.5972 139.772 26.6872 139.908 26.7287C140.153 26.8001 140.436 26.8048 140.411 26.7379ZM140.782 24.2108C140.771 24.1577 140.729 24.1093 140.701 24.0586C140.685 24.0839 140.662 24.107 140.648 24.1324C140.6 24.2454 140.556 24.356 140.515 24.469C140.515 24.469 140.563 24.499 140.591 24.5128C140.72 24.5589 140.821 24.4044 140.782 24.2108ZM141.739 24.4921C141.709 24.4921 141.677 24.4898 141.633 24.4875C141.554 24.5059 141.465 24.522 141.375 24.5451C141.287 24.5682 141.292 24.6051 141.386 24.6443C141.497 24.6904 141.607 24.7457 141.723 24.7711C141.757 24.778 141.822 24.7019 141.852 24.6535C141.91 24.5589 141.859 24.4921 141.739 24.4921Z" fill="#131313"/>
</svg>
