<svg width="113" height="40" viewBox="0 0 113 40" fill="none" xmlns="http://www.w3.org/2000/svg">
<path fill-rule="evenodd" clip-rule="evenodd" d="M63.3224 17.0529H101.362L96.9259 7.73189C95.6286 5.37275 93.7112 3.40765 91.3782 2.04609C89.0452 0.684527 86.384 -0.0224445 83.6785 0.000543238H60.6923C63.3604 2.82588 64.8448 6.55512 64.8435 10.4294C64.8262 12.7208 64.3072 14.9809 63.3224 17.0529ZM43.4391 9.92368C46.6995 9.92368 48.2872 11.1761 48.2872 12.8801C48.2872 14.5842 46.6873 15.8366 43.4391 15.8366H40.2151L36.2033 24.1942H43.9724C47.463 24.1942 48.9478 25.3984 48.9478 27.0904C48.9478 28.7824 47.463 29.9927 43.9724 29.9927H33.3914L28.5433 40.0001H42.827C54.0201 40.0001 59.5894 35.183 59.5894 28.8787C59.6403 26.9595 59.1815 25.0608 58.2592 23.3737C57.3368 21.6867 55.9834 20.2709 54.3352 19.2687C57.2986 17.3178 59.2318 14.4517 59.2318 11.0557C59.2318 4.21549 53.2808 0.000578841 43.8391 0.000578841H29.5492L20.459 18.9075L11.393 0.000578841H-3.05176e-05L14.6413 30.8417L10.3022 40.0001H21.5135L35.9851 9.92368H43.4391ZM65.1587 29.5711C65.1693 27.276 64.6467 25.0093 63.6315 22.9477H104.168L112.258 40H60.6802C62.1305 38.6784 63.2803 37.0644 64.0526 35.2659C64.8249 33.4675 65.202 31.526 65.1587 29.5711Z" fill="#2B2D7F"/>
</svg>
