<svg width="96" height="64" viewBox="0 0 96 64" fill="none" xmlns="http://www.w3.org/2000/svg">
<mask id="mask0_19254_2071" style="mask-type:luminance" maskUnits="userSpaceOnUse" x="0" y="0" width="96" height="64">
<path d="M0.0791016 0H95.9209V64H0.0791016V0Z" fill="white"/>
</mask>
<g mask="url(#mask0_19254_2071)">
<path d="M28.5664 60.1878H76.7859V62.9684H28.5664V60.1878ZM32.5833 55.6793H72.7437V59.0992H32.5833V55.6793ZM1.16771 29.4304H17.8027V35.1097H1.16771V29.4304ZM18.8913 24.7616H20.4567V39.7785H18.8913V24.7616ZM25.8597 11.7257V52.8228L21.5475 40.23V24.3101L25.8597 11.7257ZM48.5622 9.11603C50.0517 9.11603 51.2584 10.3312 51.2584 11.8186C51.2584 13.308 50.0517 14.5148 48.5622 14.5148C47.0728 14.5148 45.8555 13.308 45.8555 11.8186C45.8555 10.3312 47.0728 9.11603 48.5622 9.11603ZM39.866 9.11603C41.3555 9.11603 42.5622 10.3312 42.5622 11.8186C42.5622 13.308 41.3555 14.5148 39.866 14.5148C38.3766 14.5148 37.1593 13.308 37.1593 11.8186C37.1593 10.3312 38.3681 9.11603 39.866 9.11603ZM27.6129 8.81857H29.0601V55.7215H27.6129C27.366 55.7215 27.1361 55.6287 26.9504 55.4768V9.05485C27.1361 8.91139 27.366 8.81857 27.6129 8.81857ZM87.404 8.14557L94.8238 13.9367V50.6034L87.404 56.3945V8.14557ZM48.5622 8.03586C46.4694 8.03586 44.7669 9.72785 44.7669 11.8186C44.7669 13.903 46.4694 15.6118 48.5622 15.6118C50.655 15.6118 52.3491 13.903 52.3491 11.8186C52.3491 9.72785 50.655 8.03586 48.5622 8.03586ZM39.866 8.03586C37.7732 8.03586 36.0707 9.72785 36.0707 11.8186C36.0707 13.903 37.7732 15.6118 39.866 15.6118C41.9504 15.6118 43.6529 13.903 43.6529 11.8186C43.6529 9.72785 41.9504 8.03586 39.866 8.03586ZM31.4251 7.85654H56.9673L56.9947 8.13713C57.0116 8.4346 57.25 8.65612 57.539 8.65612H75.4926V19.1667H32.3702C32.0643 19.1667 31.8259 19.4051 31.8259 19.711C31.8259 20.0084 32.0643 20.2553 32.3702 20.2553H75.4926V20.7743H32.3702C32.0643 20.7743 31.8259 21.0211 31.8259 21.3186C31.8259 21.616 32.0643 21.8629 32.3702 21.8629H75.4926V22.3882H32.3702C32.0643 22.3882 31.8259 22.6266 31.8259 22.9325C31.8259 23.23 32.0643 23.4768 32.3702 23.4768H75.4926V23.9958H32.3702C32.0643 23.9958 31.8259 24.2342 31.8259 24.5401C31.8259 24.8376 32.0643 25.0844 32.3702 25.0844H75.4926V25.6034H32.3702C32.0643 25.6034 31.8259 25.8502 31.8259 26.1477C31.8259 26.4451 32.0643 26.692 32.3702 26.692H75.4926V27.2194H32.3702C32.0643 27.2194 31.8259 27.4578 31.8259 27.7637C31.8259 28.0612 32.0643 28.308 32.3702 28.308H75.4926V36.2321H32.3702C32.0643 36.2321 31.8259 36.4789 31.8259 36.7764C31.8259 37.0738 32.0643 37.3207 32.3702 37.3207H75.4926V37.8481H32.3702C32.0643 37.8481 31.8259 38.0865 31.8259 38.3924C31.8259 38.6899 32.0643 38.9283 32.3702 38.9283H75.4926V39.4473H32.3702C32.0643 39.4473 31.8259 39.6941 31.8259 39.9916C31.8259 40.2975 32.0643 40.5359 32.3702 40.5359H75.4926V41.0633H32.3702C32.0643 41.0633 31.8259 41.3101 31.8259 41.6076C31.8259 41.9051 32.0643 42.1519 32.3702 42.1519H75.4926V42.6688H32.3702C32.0643 42.6688 31.8259 42.9156 31.8259 43.2131C31.8259 43.5211 32.0643 43.7574 32.3702 43.7574H75.4926V44.2848H32.3702C32.0643 44.2848 31.8259 44.5316 31.8259 44.8291C31.8259 45.1266 32.0643 45.3734 32.3702 45.3734H75.4926V55.8755H73.8323V55.135C73.8323 54.8376 73.5939 54.5907 73.288 54.5907H32.039C31.7394 54.5907 31.501 54.8376 31.501 55.135V55.7574H30.174V8.77426H30.8555C31.1445 8.77426 31.3745 8.54641 31.3998 8.25738L31.4251 7.85654ZM76.5812 7.57595H86.3238V56.9641H76.5812V7.57595ZM31.731 1.08861H56.6867L56.9335 6.76793H31.4842L31.731 1.08861ZM31.212 0C30.923 0 30.693 0.229958 30.6677 0.518987L30.3702 7.25316C30.3702 7.27848 30.3618 7.27848 30.3618 7.28692L30.3365 7.6962H29.6044C29.5707 7.6962 29.5538 7.72996 29.52 7.7384H27.6129C27.0095 7.7384 26.4736 8.01055 26.0728 8.41772C26.0475 8.44304 26.0221 8.46835 25.9968 8.50211C25.8006 8.72363 25.6318 8.97046 25.5453 9.26793L20.6107 23.6814H18.347C18.0496 23.6814 17.8027 23.9283 17.8027 24.2257V28.3502H0.623405C0.325937 28.3502 0.0791016 28.597 0.0791016 28.8945V35.6624C0.0791016 35.9599 0.325937 36.2067 0.623405 36.2067H17.8027V40.3312C17.8027 40.6287 18.0496 40.8671 18.347 40.8671H20.6107L25.5453 55.2721C25.6318 55.5696 25.8006 55.8249 25.9968 56.0548C26.0221 56.0886 26.0475 56.1139 26.0728 56.1392C26.4736 56.5464 27.0095 56.8186 27.6129 56.8186H29.52C29.5538 56.8186 29.5707 56.8629 29.6044 56.8629H31.501V59.116H28.0221C27.8681 59.116 27.7331 59.1751 27.6297 59.2764C27.5285 59.3713 27.4778 59.5063 27.4778 59.6603V63.5211C27.4778 63.8186 27.7162 64.0633 28.0221 64.0633H77.3302C77.6276 64.0633 77.8745 63.8186 77.8745 63.5211V59.6603C77.8745 59.3544 77.6276 59.116 77.3302 59.116H73.8323V56.981H75.4926V57.5253C75.4926 57.8228 75.7289 58.0696 76.0369 58.0696H86.8597C86.9863 58.0696 87.0981 58.0274 87.1909 57.9494L95.7078 51.3101C95.8365 51.1983 95.9124 51.0464 95.9124 50.8755V13.6814C95.9124 13.5105 95.8365 13.3586 95.7078 13.2489L87.1909 6.60759C87.0981 6.53797 86.9863 6.49578 86.8597 6.49578H76.0285C75.7289 6.49578 75.482 6.74262 75.482 7.04008V7.57595H58.058L58.0411 7.39662C58.0496 7.36287 58.0833 7.34599 58.0833 7.31224C58.0833 7.24473 58.0664 7.18565 58.0411 7.12447L57.7521 0.527426C57.7415 0.238396 57.5053 0.00843882 57.2057 0.00843882L31.212 0Z" fill="#100F0D"/>
</g>
</svg>
