<svg width="86" height="64" viewBox="0 0 86 64" fill="none" xmlns="http://www.w3.org/2000/svg">
<mask id="mask0_19254_2911" style="mask-type:luminance" maskUnits="userSpaceOnUse" x="0" y="0" width="86" height="64">
<path d="M0.134766 0H85.865V64H0.134766V0Z" fill="white"/>
</mask>
<g mask="url(#mask0_19254_2911)">
<path d="M70.451 24.0963C70.4662 24.1753 70.4755 24.2544 70.4755 24.3346C70.4755 24.416 70.4685 24.4951 70.4534 24.5742C70.4383 24.6532 70.415 24.73 70.3848 24.8044C70.3545 24.8788 70.3173 24.9497 70.2731 25.0172C70.229 25.0846 70.179 25.1463 70.122 25.2044C70.0662 25.2614 70.0045 25.3125 69.9371 25.3579C69.8708 25.4032 69.801 25.4416 69.7266 25.473C69.6522 25.5044 69.5755 25.5288 69.4976 25.5451C69.4196 25.5579 69.3417 25.5637 69.2638 25.5614C69.1848 25.559 69.108 25.5497 69.0313 25.5323C68.9545 25.5149 68.8813 25.4893 68.8092 25.4579C68.7371 25.4253 68.6696 25.387 68.6057 25.3416C68.5417 25.2963 68.4836 25.2451 68.4301 25.187C68.3755 25.13 68.3278 25.0683 68.2871 25.0021C68.2452 24.9358 68.2104 24.866 68.1824 24.7928C68.1545 24.7195 68.1348 24.6439 68.122 24.5672C68.051 24.137 67.9441 23.7172 67.7999 23.3056C67.6569 22.8939 67.479 22.4986 67.2673 22.1172C67.0557 21.737 66.8138 21.3777 66.5394 21.0381C66.2662 20.6997 65.965 20.3858 65.6383 20.0986C65.3103 19.8114 64.9604 19.5544 64.5883 19.3277C64.2162 19.0997 63.8278 18.9067 63.422 18.7463C63.0173 18.5858 62.601 18.4614 62.1743 18.373C61.7476 18.2846 61.3162 18.2323 60.8801 18.2183C60.7371 18.2125 60.5987 18.1823 60.4662 18.1265C60.3336 18.0707 60.2138 17.9939 60.1092 17.8951C60.0045 17.7974 59.9208 17.6835 59.8569 17.5544C59.7929 17.4253 59.7545 17.2893 59.7406 17.1463C59.7324 17.0614 59.7336 16.9765 59.7452 16.8916C59.7557 16.8056 59.7755 16.723 59.8034 16.6428C59.8324 16.5614 59.8685 16.4846 59.9138 16.4114C59.9592 16.3381 60.0115 16.2707 60.0708 16.209C60.1301 16.1474 60.1952 16.0928 60.2673 16.0451C60.3383 15.9974 60.4138 15.9579 60.4929 15.9253C60.5731 15.8939 60.6557 15.8718 60.7406 15.8579C60.8243 15.8439 60.9103 15.8381 60.9952 15.8428C61.2789 15.8532 61.5603 15.8753 61.8417 15.9102C62.1231 15.9451 62.4022 15.9904 62.679 16.0486C62.9557 16.1067 63.2301 16.1765 63.501 16.259C63.772 16.3404 64.0394 16.4335 64.3034 16.537C64.5662 16.6416 64.8243 16.7567 65.0778 16.8835C65.3313 17.009 65.5789 17.1463 65.8208 17.2928C66.0627 17.4404 66.2976 17.5974 66.5255 17.7649C66.7534 17.9323 66.9743 18.109 67.1883 18.2951C67.401 18.4811 67.6057 18.6765 67.8022 18.88C67.9987 19.0835 68.1871 19.2951 68.365 19.5149C68.5441 19.7346 68.7127 19.9614 68.872 20.1951C69.0313 20.4288 69.1801 20.6695 69.3185 20.916C69.4569 21.1625 69.5859 21.4137 69.7022 21.6718C69.8196 21.9288 69.9255 22.1916 70.0208 22.4579C70.115 22.7242 70.1987 22.9939 70.2708 23.2672C70.3429 23.5416 70.4022 23.8172 70.451 24.0963ZM72.265 12.2974C71.4371 11.5904 70.5545 10.959 69.6162 10.4056C68.679 9.85207 67.6999 9.38346 66.6813 8.99974C65.6615 8.61602 64.6173 8.323 63.5464 8.12067C62.4766 7.91951 61.3964 7.81137 60.308 7.79625C60.2255 7.79509 60.1429 7.80091 60.0627 7.81602C59.9813 7.83114 59.9022 7.85439 59.8266 7.88579C59.7499 7.91602 59.6778 7.95556 59.6103 8.00091C59.5417 8.04742 59.479 8.09974 59.422 8.15905C59.3638 8.21835 59.3138 8.28346 59.2696 8.35323C59.2255 8.42184 59.1894 8.49625 59.1615 8.573C59.1324 8.64974 59.1115 8.72881 59.0999 8.81021C59.0871 8.8916 59.0836 8.97416 59.0883 9.05556V9.06486C59.0976 9.2137 59.1324 9.35556 59.1941 9.49044C59.2557 9.62649 59.3406 9.74625 59.4476 9.84974C59.5545 9.95323 59.6778 10.0335 59.815 10.0904C59.9522 10.1474 60.0952 10.1777 60.2452 10.1811C61.1964 10.1963 62.1406 10.2928 63.0755 10.4707C64.0115 10.6474 64.9255 10.9032 65.8162 11.237C66.708 11.5707 67.5638 11.9788 68.3859 12.459C69.2069 12.9404 69.9813 13.4881 70.7092 14.1021C71.4243 14.723 72.0824 15.4021 72.6801 16.137C73.2778 16.873 73.808 17.6544 74.2696 18.4823C74.7324 19.309 75.1197 20.1707 75.4313 21.0649C75.7441 21.9602 75.9766 22.8742 76.1301 23.8102C76.1534 23.9579 76.2045 24.0974 76.2813 24.2265C76.358 24.3556 76.4557 24.4672 76.5743 24.559C76.6929 24.6521 76.8255 24.7195 76.9697 24.7614C77.1138 24.8044 77.2615 24.8183 77.4115 24.8056H77.4162C77.4976 24.7986 77.5778 24.7823 77.6569 24.7579C77.7348 24.7335 77.8103 24.7021 77.8824 24.6625C77.9534 24.623 78.0208 24.5765 78.0836 24.523C78.1452 24.4695 78.201 24.4102 78.251 24.3451C78.301 24.28 78.3441 24.2102 78.3801 24.1358C78.415 24.0625 78.4429 23.9858 78.4627 23.9056C78.4824 23.8265 78.4941 23.7451 78.4964 23.6637C78.4999 23.5811 78.4941 23.4997 78.4801 23.4195C78.3045 22.3486 78.0371 21.2997 77.679 20.2753C77.3208 19.2509 76.8778 18.2637 76.3476 17.316C75.8185 16.3683 75.2104 15.473 74.5255 14.6311C73.8406 13.7881 73.0883 13.0102 72.2673 12.2986L72.265 12.2974ZM85.8243 20.9474C85.7115 20.2311 85.5673 19.5207 85.3917 18.816C85.2162 18.1125 85.0103 17.4172 84.7743 16.7311C84.5371 16.0451 84.2708 15.3718 83.9755 14.709C83.679 14.0463 83.3545 13.3986 83.001 12.7637C82.6487 12.13 82.2685 11.5125 81.8603 10.9125C81.4534 10.3114 81.0208 9.72998 80.5615 9.16718C80.1034 8.60439 79.6208 8.0637 79.1138 7.54393C78.608 7.023 78.0801 6.52649 77.5301 6.05323C76.979 5.57881 76.4092 5.12998 75.8196 4.70672C75.2301 4.28346 74.6231 3.88579 73.9987 3.51602C73.3743 3.14509 72.7348 2.80323 72.0801 2.48928C71.4255 2.17532 70.758 1.89044 70.0778 1.63463C69.3987 1.37881 68.708 1.15439 68.0092 0.959045C67.3092 0.763696 66.6022 0.600906 65.8883 0.467185C65.1743 0.334627 64.4557 0.233464 63.7324 0.163697C63.0103 0.0939291 62.2848 0.0567197 61.5592 0.0509058C61.479 0.0497431 61.3987 0.0567196 61.3196 0.0718361C61.2417 0.0869523 61.165 0.110208 61.0906 0.141603C61.0162 0.171836 60.9464 0.210208 60.8801 0.255557C60.8138 0.300906 60.7522 0.352069 60.6964 0.410208C60.6406 0.468348 60.5917 0.531138 60.5487 0.59858C60.5057 0.666022 60.4697 0.738115 60.4417 0.812534C60.4127 0.888115 60.3929 0.964859 60.3801 1.04509C60.3673 1.12416 60.3638 1.20323 60.3673 1.28346V1.29044C60.3731 1.44044 60.4069 1.58463 60.4673 1.72184C60.5278 1.86021 60.6127 1.98114 60.7197 2.08695C60.8266 2.19277 60.9487 2.27532 61.0871 2.33463C61.2255 2.39509 61.3708 2.42649 61.5208 2.43114C62.8976 2.45788 64.2603 2.60672 65.6115 2.87765C66.9615 3.14742 68.2766 3.53463 69.558 4.03928C70.8383 4.54509 72.0638 5.15904 73.2359 5.8823C74.4069 6.60556 75.5045 7.42649 76.529 8.34625C77.4441 9.20091 78.2824 10.1253 79.0452 11.1172C79.808 12.1102 80.4859 13.159 81.0755 14.2625C81.6662 15.366 82.1627 16.5102 82.5662 17.6951C82.9685 18.8811 83.2708 20.0904 83.4743 21.3253C83.4999 21.4753 83.551 21.6149 83.6301 21.7439C83.7092 21.8742 83.8092 21.9846 83.9301 22.0765C84.051 22.1672 84.1848 22.2335 84.3313 22.273C84.4778 22.3137 84.6255 22.3253 84.7766 22.3079H84.7813C84.8615 22.2997 84.9406 22.2835 85.0162 22.259C85.0929 22.2358 85.1673 22.2032 85.2371 22.1649C85.308 22.1253 85.3731 22.0788 85.4336 22.0265C85.4952 21.9742 85.5499 21.916 85.5987 21.8521C85.6476 21.7881 85.6894 21.7207 85.7243 21.6474C85.7592 21.5753 85.7871 21.5009 85.8069 21.423C85.8266 21.3451 85.8383 21.2649 85.8417 21.1846C85.8452 21.1044 85.8406 21.0253 85.8266 20.9451L85.8243 20.9474ZM63.2999 29.9381V57.7509C63.2999 57.9544 63.2894 58.1579 63.2696 58.3602C63.2487 58.5625 63.2185 58.7637 63.179 58.9637C63.1394 59.1625 63.0894 59.3602 63.0301 59.5544C62.9708 59.7497 62.9022 59.9416 62.8243 60.1288C62.7452 60.3172 62.6592 60.5009 62.5627 60.6811C62.4662 60.8602 62.3615 61.0346 62.2487 61.2032C62.1348 61.373 62.0138 61.5358 61.8848 61.6939C61.7545 61.8509 61.6185 62.0021 61.4743 62.1463C61.3301 62.2893 61.179 62.4265 61.022 62.5556C60.8638 62.6846 60.701 62.8056 60.5313 62.9195C60.3615 63.0323 60.1871 63.137 60.0069 63.2323C59.8278 63.3288 59.6441 63.416 59.4557 63.4939C59.2673 63.5718 59.0755 63.6404 58.8801 63.6997C58.6848 63.759 58.4883 63.809 58.2883 63.8486C58.0883 63.8881 57.8871 63.9183 57.6836 63.9381C57.4813 63.959 57.2778 63.9683 57.0743 63.9695H6.35918C6.1557 63.9683 5.95221 63.959 5.74988 63.9381C5.54639 63.9183 5.34523 63.8881 5.14523 63.8486C4.94523 63.809 4.74756 63.759 4.55337 63.6997C4.35802 63.6404 4.16616 63.5718 3.97779 63.4939C3.78942 63.416 3.6057 63.3288 3.42663 63.2323C3.24639 63.137 3.07197 63.0323 2.90221 62.9183C2.73244 62.8056 2.56965 62.6846 2.41151 62.5556C2.25453 62.4265 2.10337 62.2893 1.95918 62.1451C1.815 62.0021 1.67895 61.8509 1.54872 61.6939C1.41965 61.5358 1.29872 61.373 1.18477 61.2032C1.07197 61.0346 0.967324 60.8602 0.870812 60.68C0.775463 60.5009 0.688254 60.3172 0.610347 60.1288C0.531277 59.9416 0.462673 59.7497 0.40337 59.5544C0.344068 59.3602 0.295231 59.1625 0.254533 58.9637C0.214998 58.7637 0.184766 58.5625 0.164998 58.3602C0.145231 58.1579 0.134766 57.9544 0.134766 57.7509V29.9381C0.134766 29.6125 0.160347 29.2893 0.212673 28.9672C0.263835 28.6463 0.339417 28.33 0.44058 28.0207C0.541742 27.7114 0.666161 27.4114 0.813835 27.1218C0.96151 26.8311 1.13128 26.5556 1.32314 26.2916C1.51384 26.0277 1.72546 25.7811 1.9557 25.5509C2.18593 25.3207 2.43244 25.109 2.69523 24.9172C2.95918 24.7253 3.23477 24.5556 3.52546 24.4067C3.815 24.2579 4.115 24.1335 4.4243 24.0323L29.7859 11.4404C29.6952 11.0881 29.6499 10.7311 29.6476 10.3672C29.6476 10.1986 29.6569 10.0311 29.6755 9.8637C29.6952 9.69625 29.7231 9.53114 29.7615 9.36718C29.7987 9.20207 29.8464 9.0416 29.9022 8.8823C29.9592 8.72416 30.0243 8.56951 30.0987 8.41835C30.172 8.26719 30.2545 8.12067 30.3452 7.97881C30.4371 7.83695 30.5359 7.70091 30.6417 7.57067C30.7487 7.43928 30.8627 7.31602 30.9824 7.19858C31.1034 7.08114 31.2301 6.97067 31.3638 6.86718C31.4976 6.76486 31.6359 6.66951 31.7801 6.5823C31.9243 6.49509 32.0731 6.41718 32.2266 6.34742C32.3801 6.27649 32.5371 6.21602 32.6976 6.1637C32.8569 6.11137 33.0196 6.06835 33.1848 6.03463C33.3499 6.00207 33.5173 5.97765 33.6848 5.96253C33.8522 5.94858 34.0208 5.94393 34.1894 5.94858C34.358 5.95323 34.5255 5.96718 34.6929 5.9916C34.8592 6.01486 35.0243 6.04858 35.1871 6.0916C35.3499 6.13463 35.5103 6.18579 35.6673 6.24742C35.8243 6.30788 35.9778 6.37765 36.1266 6.45672C36.2755 6.53579 36.4197 6.62184 36.5592 6.71718C36.6976 6.81253 36.8313 6.91486 36.958 7.02532C37.0859 7.13579 37.2069 7.25323 37.3208 7.37649C37.4348 7.50091 37.5406 7.63114 37.6394 7.76718C37.7383 7.90323 37.8301 8.04509 37.9127 8.1916C37.9952 8.33811 38.0696 8.48928 38.1348 8.64393C38.1999 8.79974 38.2569 8.95788 38.3034 9.11951C38.351 9.28114 38.3894 9.44509 38.4173 9.61021C38.4464 9.77649 38.465 9.94393 38.4743 10.1114C38.4848 10.28 38.4836 10.4474 38.4743 10.616C38.4638 10.7835 38.4452 10.9509 38.4162 11.1172C38.3871 11.2823 38.3487 11.4463 38.301 11.6079C38.2534 11.7695 38.1964 11.9277 38.1301 12.0823C38.065 12.237 37.9906 12.3881 37.9069 12.5346C37.8243 12.6811 37.7324 12.8218 37.6336 12.9579C37.5336 13.0939 37.4266 13.2242 37.3127 13.3474C37.1987 13.4718 37.0778 13.5881 36.9499 13.6986C36.822 13.8079 36.6894 13.9114 36.5499 14.0056C36.4103 14.0997 36.2662 14.187 36.1162 14.2649C35.9673 14.3428 35.8138 14.4125 35.6569 14.473C35.4999 14.5335 35.3394 14.5858 35.1766 14.6277C35.0138 14.6707 34.8487 14.7032 34.6813 14.7265C34.515 14.7497 34.3464 14.7637 34.1778 14.7683C34.0103 14.773 33.8417 14.7672 33.6743 14.7521C33.5057 14.7381 33.3394 14.7137 33.1743 14.6788C33.0092 14.6451 32.8464 14.6021 32.6859 14.5497C32.5266 14.4974 32.3696 14.4358 32.2162 14.3649C32.0638 14.2951 31.915 14.216 31.7708 14.1277C31.6266 14.0404 31.4883 13.9451 31.3557 13.8416C31.222 13.7393 31.0952 13.6288 30.9755 13.5102L10.4069 23.7195H57.0708C57.2755 23.7195 57.479 23.73 57.6813 23.7497C57.8848 23.7695 58.0859 23.7997 58.2859 23.8393C58.4859 23.8788 58.6836 23.9288 58.879 23.9881C59.0731 24.0474 59.265 24.116 59.4534 24.1939C59.6417 24.2718 59.8255 24.359 60.0057 24.4544C60.1859 24.5509 60.3603 24.6556 60.5301 24.7683C60.6999 24.8823 60.8627 25.0032 61.0208 25.1323C61.1778 25.2614 61.329 25.3974 61.4731 25.5416C61.6173 25.6858 61.7545 25.837 61.8836 25.9939C62.0127 26.1509 62.1348 26.3149 62.2476 26.4835C62.3615 26.6532 62.4662 26.8277 62.5627 27.0067C62.658 27.187 62.7452 27.3707 62.8231 27.559C62.9022 27.7463 62.9708 27.9381 63.0301 28.1335C63.0894 28.3277 63.1394 28.5253 63.179 28.7253C63.2185 28.9242 63.2487 29.1253 63.2696 29.3288C63.2894 29.5311 63.2999 29.7346 63.2999 29.9381ZM32.0313 10.3672C32.0313 10.4997 32.0441 10.6311 32.0708 10.7614C32.0964 10.8916 32.1348 11.0183 32.1859 11.1416C32.2371 11.2637 32.2987 11.3811 32.3731 11.4916C32.4464 11.6021 32.5313 11.7032 32.6255 11.7974C32.7185 11.8916 32.8208 11.9753 32.9324 12.0497C33.0429 12.123 33.1592 12.1858 33.2824 12.2358C33.4045 12.287 33.5313 12.3253 33.6615 12.3509C33.7929 12.3765 33.9243 12.3904 34.0569 12.3904C34.1906 12.3904 34.322 12.3765 34.4522 12.3509C34.5824 12.3253 34.7092 12.287 34.8324 12.2358C34.9557 12.1846 35.072 12.123 35.1824 12.0486C35.2929 11.9753 35.3952 11.8916 35.4894 11.7974C35.5836 11.7032 35.6673 11.6009 35.7406 11.4904C35.815 11.38 35.8778 11.2637 35.9278 11.1404C35.979 11.0183 36.0173 10.8916 36.0429 10.7614C36.0696 10.6311 36.0824 10.4997 36.0824 10.366C36.0824 10.2335 36.0696 10.1021 36.0429 9.97184C36.0173 9.8416 35.979 9.71486 35.9278 9.59277C35.8766 9.46951 35.815 9.35323 35.7406 9.24277C35.6662 9.1323 35.5824 9.02998 35.4883 8.93579C35.3941 8.84277 35.2917 8.75904 35.1813 8.68463C35.0708 8.61137 34.9545 8.54858 34.8313 8.49742C34.708 8.44742 34.5813 8.40905 34.451 8.38346C34.3208 8.35672 34.1894 8.34393 34.0557 8.34393C33.9231 8.34393 33.7917 8.35788 33.6615 8.38346C33.5313 8.40905 33.4045 8.44858 33.2813 8.49858C33.1592 8.54974 33.0417 8.61253 32.9313 8.68579C32.8208 8.76021 32.7185 8.84393 32.6255 8.93695C32.5313 9.03114 32.4476 9.13346 32.3731 9.24393C32.2999 9.35439 32.2371 9.47067 32.1859 9.59393C32.1348 9.71602 32.0964 9.84277 32.0708 9.973C32.0452 10.1032 32.0313 10.2346 32.0313 10.3672ZM60.9162 29.9381C60.9162 29.6858 60.8906 29.437 60.8417 29.1893C60.7917 28.9428 60.7185 28.7021 60.622 28.4695C60.5255 28.237 60.4069 28.016 60.2673 27.8067C60.1266 27.5974 59.9673 27.4032 59.7894 27.2253C59.6115 27.0474 59.4173 26.8881 59.2069 26.7486C58.9976 26.6079 58.7766 26.4904 58.5429 26.3939C58.3103 26.2974 58.0708 26.2242 57.8231 26.1742C57.5755 26.1253 57.3255 26.0997 57.0743 26.0997H6.35918C6.10686 26.0997 5.85802 26.1253 5.61035 26.1742C5.36267 26.2242 5.12314 26.2974 4.88942 26.3939C4.65686 26.4904 4.43593 26.6079 4.22663 26.7486C4.01616 26.8881 3.82198 27.0474 3.64407 27.2253C3.46616 27.4032 3.30686 27.5974 3.16616 27.8067C3.02663 28.016 2.90802 28.237 2.81151 28.4695C2.715 28.7021 2.64174 28.9428 2.59291 29.1893C2.54291 29.437 2.51849 29.6858 2.51732 29.9381V57.7509C2.51849 58.0021 2.54291 58.2521 2.59291 58.4986C2.64174 58.7463 2.715 58.9858 2.81151 59.2183C2.90802 59.4509 3.02663 59.6718 3.16616 59.8811C3.30686 60.0904 3.46616 60.2846 3.64407 60.4625C3.82198 60.6416 4.01616 60.7997 4.22663 60.9404C4.43593 61.08 4.65686 61.1986 4.88942 61.2951C5.12314 61.3916 5.36267 61.4649 5.61035 61.5137C5.85802 61.5637 6.10686 61.5881 6.35918 61.5881H57.0708C57.3231 61.5881 57.5731 61.5637 57.8208 61.5149C58.0685 61.4649 58.3092 61.3916 58.5417 61.2951C58.7743 61.1997 58.9964 61.0811 59.2057 60.9404C59.4162 60.8009 59.6103 60.6416 59.7883 60.4637C59.9673 60.2858 60.1266 60.0916 60.2662 59.8823C60.4069 59.673 60.5255 59.4521 60.622 59.2195C60.7185 58.9858 60.7917 58.7463 60.8417 58.4997C60.8906 58.2521 60.9162 58.0021 60.9162 57.7509V29.9381ZM29.229 44.0579C29.229 44.3881 29.2127 44.716 29.1801 45.0451C29.1476 45.373 29.0999 45.6986 29.0348 46.0218C28.9708 46.3451 28.8906 46.6637 28.7941 46.98C28.6987 47.2951 28.5883 47.6044 28.4615 47.909C28.3348 48.2137 28.1941 48.5114 28.0383 48.8021C27.8836 49.0928 27.7138 49.3753 27.5301 49.6497C27.3476 49.923 27.151 50.1881 26.9417 50.4428C26.7324 50.6974 26.5103 50.9416 26.2778 51.1742C26.0441 51.4079 25.7999 51.6288 25.5441 51.8381C25.2894 52.0474 25.0243 52.2428 24.7499 52.4265C24.4755 52.609 24.1929 52.7788 23.9022 52.9335C23.6115 53.0893 23.3127 53.23 23.008 53.3567C22.7034 53.4823 22.3929 53.5928 22.0778 53.6893C21.7615 53.7846 21.4417 53.8649 21.1185 53.9288C20.7941 53.9928 20.4685 54.0416 20.1394 54.0742C19.8115 54.1067 19.4824 54.1218 19.1522 54.1218C18.822 54.1218 18.4929 54.1067 18.165 54.0742C17.8359 54.0416 17.5103 53.9928 17.1859 53.9288C16.8627 53.8649 16.5429 53.7846 16.2278 53.6893C15.9115 53.5928 15.601 53.4823 15.2964 53.3567C14.9917 53.23 14.6929 53.0893 14.4022 52.9335C14.1115 52.7788 13.829 52.609 13.5545 52.4265C13.2801 52.2428 13.015 52.0474 12.7603 51.8381C12.5045 51.6288 12.2603 51.4079 12.0278 51.1742C11.7941 50.9416 11.572 50.6974 11.3627 50.4428C11.1534 50.1881 10.958 49.923 10.7743 49.6497C10.5906 49.3753 10.4208 49.0928 10.2662 48.8021C10.1103 48.5114 9.96965 48.2137 9.84291 47.909C9.71616 47.6044 9.6057 47.2951 9.51035 46.98C9.41384 46.6637 9.3336 46.3451 9.26965 46.0218C9.2057 45.6986 9.15686 45.373 9.1243 45.0451C9.09174 44.716 9.07546 44.3881 9.07546 44.0579C9.07546 43.7288 9.09174 43.3997 9.1243 43.0718C9.15686 42.7439 9.2057 42.4183 9.26965 42.0951C9.3336 41.7718 9.41384 41.4521 9.51035 41.137C9.6057 40.8207 9.71616 40.5114 9.84291 40.2067C9.96965 39.9021 10.1103 39.6044 10.2662 39.3137C10.4208 39.023 10.5906 38.7404 10.7743 38.4672C10.958 38.1928 11.1534 37.9277 11.3627 37.673C11.572 37.4183 11.7941 37.1742 12.0278 36.9416C12.2603 36.709 12.5045 36.487 12.7603 36.2788C13.015 36.0695 13.2801 35.873 13.5545 35.6904C13.829 35.5067 14.1115 35.3381 14.4022 35.1823C14.6929 35.0265 14.9917 34.8858 15.2964 34.7602C15.601 34.6335 15.9115 34.523 16.2278 34.4277C16.5429 34.3311 16.8627 34.2509 17.1859 34.187C17.5103 34.123 17.8359 34.0742 18.165 34.0428C18.4929 34.0102 18.822 33.9939 19.1522 33.9939C19.4824 33.9939 19.8115 34.0114 20.1394 34.0439C20.4673 34.0765 20.7941 34.1253 21.1173 34.1893C21.4406 34.2544 21.7603 34.3346 22.0755 34.43C22.3917 34.5265 22.701 34.637 23.0057 34.7637C23.3103 34.8904 23.608 35.0311 23.8999 35.187C24.1906 35.3416 24.4731 35.5114 24.7464 35.6939C25.0208 35.8777 25.2859 36.073 25.5406 36.2823C25.7952 36.4916 26.0394 36.7125 26.2731 36.9463C26.5069 37.1788 26.7278 37.423 26.9371 37.6777C27.1464 37.9323 27.3429 38.1963 27.5255 38.4695C27.7092 38.7439 27.879 39.0265 28.0348 39.3172C28.1906 39.6067 28.3313 39.9044 28.458 40.209C28.5836 40.5137 28.6952 40.823 28.7917 41.1381C28.8871 41.4532 28.9673 41.773 29.0324 42.0951C29.0976 42.4183 29.1464 42.7439 29.179 43.0718C29.2115 43.3997 29.2278 43.7288 29.229 44.0579ZM26.8452 44.0579C26.8452 43.8067 26.8324 43.5556 26.808 43.3044C26.7836 43.0544 26.7464 42.8056 26.6976 42.559C26.6476 42.3125 26.5871 42.0683 26.5138 41.8276C26.4406 41.5869 26.3557 41.3497 26.2592 41.1172C26.1627 40.8858 26.0557 40.6579 25.9371 40.4358C25.8173 40.2137 25.6883 39.9986 25.5487 39.7893C25.408 39.58 25.258 39.3776 25.0987 39.1835C24.9394 38.9893 24.7696 38.8032 24.5917 38.6253C24.4138 38.4474 24.2266 38.2788 24.0324 38.1183C23.8383 37.959 23.6359 37.809 23.4266 37.6695C23.2162 37.53 23.001 37.4009 22.779 37.2823C22.5569 37.1637 22.329 37.0556 22.0964 36.959C21.8638 36.8637 21.6266 36.7788 21.3848 36.7056C21.1441 36.6323 20.8999 36.5718 20.6534 36.5218C20.4057 36.473 20.1569 36.4358 19.9057 36.4114C19.6557 36.387 19.4045 36.3742 19.1522 36.3742C18.8999 36.3742 18.6487 36.387 18.3987 36.4114C18.1476 36.4358 17.8987 36.473 17.651 36.5218C17.4045 36.5718 17.1603 36.6323 16.9196 36.7056C16.6778 36.7788 16.4406 36.8637 16.208 36.959C15.9755 37.0556 15.7487 37.1637 15.5255 37.2823C15.3034 37.4009 15.0883 37.53 14.879 37.6695C14.6685 37.809 14.4673 37.959 14.272 38.1183C14.0778 38.2788 13.8906 38.4474 13.7127 38.6253C13.5348 38.8032 13.365 38.9893 13.2057 39.1835C13.0464 39.3776 12.8964 39.58 12.7557 39.7893C12.6162 39.9986 12.4871 40.2137 12.3685 40.4358C12.2487 40.6579 12.1417 40.8858 12.0452 41.1172C11.9487 41.3497 11.8638 41.5869 11.7906 41.8276C11.7173 42.0683 11.6569 42.3125 11.6069 42.559C11.558 42.8056 11.5208 43.0544 11.4964 43.3044C11.472 43.5556 11.4592 43.8067 11.4592 44.0579C11.4592 44.3102 11.472 44.5602 11.4964 44.8114C11.5208 45.0614 11.558 45.3102 11.6069 45.5567C11.6569 45.8044 11.7173 46.0474 11.7906 46.2881C11.8638 46.5288 11.9487 46.766 12.0452 46.9986C12.1417 47.2311 12.2487 47.4579 12.3685 47.68C12.4871 47.9021 12.6162 48.1172 12.7557 48.3265C12.8964 48.5358 13.0464 48.7381 13.2057 48.9323C13.365 49.1265 13.5348 49.3137 13.7127 49.4916C13.8906 49.6695 14.0778 49.8381 14.272 49.9974C14.4673 50.1567 14.6685 50.3067 14.879 50.4463C15.0883 50.5869 15.3034 50.716 15.5255 50.8346C15.7487 50.9532 15.9755 51.0602 16.208 51.1567C16.4406 51.2532 16.6778 51.3381 16.9196 51.4102C17.1603 51.4835 17.4045 51.5451 17.651 51.5939C17.8987 51.6428 18.1476 51.68 18.3987 51.7044C18.6487 51.7288 18.8999 51.7416 19.1522 51.7416C19.4045 51.7416 19.6557 51.7288 19.9057 51.7032C20.1569 51.6788 20.4057 51.6416 20.6522 51.5928C20.8999 51.5428 21.1429 51.4823 21.3848 51.409C21.6255 51.3358 21.8627 51.2509 22.0952 51.1544C22.3278 51.0579 22.5545 50.9509 22.7766 50.8323C22.9987 50.7125 23.215 50.5835 23.4243 50.4439C23.6336 50.3044 23.8359 50.1544 24.0301 49.9951C24.2243 49.8358 24.4115 49.666 24.5894 49.4881C24.7673 49.3102 24.9359 49.1242 25.0964 48.93C25.2557 48.7358 25.4057 48.5335 25.5452 48.3242C25.6859 48.116 25.815 47.8997 25.9336 47.6788C26.0534 47.4567 26.1603 47.23 26.2569 46.9974C26.3534 46.7649 26.4383 46.5276 26.5115 46.2869C26.5848 46.0463 26.6464 45.8032 26.6952 45.5567C26.7452 45.3102 26.7824 45.0614 26.8069 44.8114C26.8324 44.5602 26.8441 44.3102 26.8452 44.0579ZM53.4778 35.2067H35.6731C35.5952 35.2067 35.5173 35.2137 35.4406 35.2288C35.3638 35.2451 35.2894 35.2672 35.2173 35.2974C35.1441 35.3265 35.0755 35.3637 35.0103 35.4067C34.9452 35.4509 34.8859 35.4997 34.8301 35.5556C34.7755 35.6102 34.7255 35.6707 34.6824 35.7358C34.6383 35.8009 34.6022 35.8695 34.572 35.9416C34.5417 36.0137 34.5196 36.0881 34.5045 36.1649C34.4883 36.2416 34.4813 36.3183 34.4813 36.3963C34.4813 36.4753 34.4883 36.5521 34.5045 36.6288C34.5196 36.7056 34.5417 36.78 34.572 36.8521C34.6022 36.9242 34.6383 36.9928 34.6824 37.0579C34.7255 37.123 34.7755 37.1835 34.8301 37.2381C34.8859 37.2939 34.9452 37.3428 35.0103 37.387C35.0755 37.43 35.1441 37.4672 35.2173 37.4963C35.2894 37.5265 35.3638 37.5486 35.4406 37.5649C35.5173 37.58 35.5952 37.587 35.6731 37.587H53.4778C53.5557 37.587 53.6336 37.58 53.7103 37.5649C53.7871 37.5486 53.8615 37.5265 53.9336 37.4963C54.0057 37.4672 54.0743 37.43 54.1394 37.387C54.2045 37.3428 54.265 37.2939 54.3208 37.2381C54.3755 37.1835 54.4255 37.123 54.4685 37.0579C54.5127 36.9928 54.5487 36.9242 54.579 36.8521C54.6092 36.78 54.6313 36.7056 54.6464 36.6288C54.6615 36.5521 54.6697 36.4753 54.6697 36.3963C54.6697 36.3183 54.6615 36.2416 54.6464 36.1649C54.6313 36.0881 54.6092 36.0137 54.579 35.9416C54.5487 35.8695 54.5127 35.8009 54.4685 35.7358C54.4255 35.6707 54.3755 35.6102 54.3208 35.5556C54.265 35.4997 54.2045 35.4509 54.1394 35.4067C54.0743 35.3637 54.0057 35.3265 53.9336 35.2974C53.8615 35.2672 53.7871 35.2451 53.7103 35.2288C53.6336 35.2137 53.5557 35.2067 53.4778 35.2067ZM53.4778 42.5497H35.6731C35.5952 42.5497 35.5173 42.5567 35.4406 42.5718C35.3638 42.5881 35.2894 42.6102 35.2173 42.6404C35.1441 42.6695 35.0755 42.7067 35.0103 42.7497C34.9452 42.7939 34.8859 42.8428 34.8301 42.8986C34.7755 42.9532 34.7255 43.0137 34.6824 43.0788C34.6383 43.1439 34.6022 43.2125 34.572 43.2846C34.5417 43.3567 34.5196 43.4311 34.5045 43.5079C34.4883 43.5846 34.4813 43.6614 34.4813 43.7393C34.4813 43.8183 34.4883 43.8951 34.5045 43.9718C34.5196 44.0486 34.5417 44.123 34.572 44.1951C34.6022 44.2672 34.6383 44.3358 34.6824 44.4009C34.7255 44.466 34.7755 44.5265 34.8301 44.5811C34.8859 44.637 34.9452 44.6858 35.0103 44.73C35.0755 44.773 35.1441 44.8102 35.2173 44.8393C35.2894 44.8695 35.3638 44.8916 35.4406 44.9079C35.5173 44.923 35.5952 44.93 35.6731 44.93H53.4778C53.5557 44.93 53.6336 44.923 53.7103 44.9079C53.7871 44.8916 53.8627 44.8695 53.9348 44.8393C54.0069 44.809 54.0755 44.773 54.1406 44.7288C54.2057 44.6858 54.2662 44.6358 54.322 44.5811C54.3778 44.5253 54.4266 44.4649 54.4708 44.3997C54.5138 44.3346 54.551 44.266 54.5801 44.1939C54.6103 44.1218 54.6336 44.0474 54.6487 43.9707C54.6638 43.8939 54.672 43.816 54.672 43.7381C54.672 43.659 54.6638 43.5823 54.6487 43.5056C54.6336 43.4288 54.6103 43.3544 54.5801 43.2811C54.551 43.209 54.5138 43.1404 54.4708 43.0753C54.4266 43.0102 54.3778 42.9497 54.322 42.8951C54.2662 42.8393 54.2057 42.7904 54.1406 42.7463C54.0755 42.7032 54.0069 42.666 53.9348 42.6358C53.8627 42.6067 53.7871 42.5835 53.7103 42.5683C53.6336 42.5532 53.5557 42.5451 53.4778 42.5451V42.5497ZM53.4778 49.8928H35.6731C35.5952 49.8928 35.5173 49.8997 35.4406 49.9149C35.3638 49.9311 35.2894 49.9532 35.2173 49.9835C35.1441 50.0125 35.0755 50.0497 35.0103 50.0928C34.9452 50.137 34.8859 50.1858 34.8301 50.2416C34.7755 50.2963 34.7255 50.3567 34.6824 50.4218C34.6383 50.4869 34.6022 50.5556 34.572 50.6276C34.5417 50.6997 34.5196 50.7742 34.5045 50.8509C34.4883 50.9276 34.4813 51.0044 34.4813 51.0835C34.4813 51.1614 34.4883 51.2381 34.5045 51.3149C34.5196 51.3916 34.5417 51.466 34.572 51.5381C34.6022 51.6102 34.6383 51.6788 34.6824 51.7439C34.7255 51.809 34.7755 51.8695 34.8301 51.9242C34.8859 51.98 34.9452 52.0288 35.0103 52.073C35.0755 52.116 35.1441 52.1532 35.2173 52.1823C35.2894 52.2125 35.3638 52.2346 35.4406 52.2509C35.5173 52.266 35.5952 52.273 35.6731 52.273H53.4778C53.5557 52.273 53.6336 52.266 53.7103 52.2509C53.7871 52.2346 53.8627 52.2125 53.9348 52.1823C54.0069 52.1521 54.0755 52.116 54.1406 52.0718C54.2069 52.0288 54.2662 51.9788 54.322 51.9242C54.3778 51.8683 54.4266 51.8079 54.4708 51.7428C54.5138 51.6776 54.551 51.609 54.5813 51.5369C54.6115 51.4649 54.6336 51.3904 54.6487 51.3137C54.6638 51.2369 54.672 51.159 54.672 51.08C54.672 51.0021 54.6638 50.9242 54.6487 50.8474C54.6336 50.7707 54.6115 50.6963 54.5813 50.6242C54.551 50.5521 54.5138 50.4835 54.4708 50.4183C54.4266 50.3532 54.3778 50.2928 54.322 50.2369C54.2662 50.1823 54.2069 50.1323 54.1406 50.0893C54.0755 50.0451 54.0069 50.009 53.9348 49.9788C53.8627 49.9486 53.7871 49.9265 53.7103 49.9102C53.6336 49.8951 53.5557 49.8881 53.4778 49.8881V49.8928Z" fill="black"/>
</g>
</svg>
